<svg viewBox="0 0 46.1724 28" xmlns="http://www.w3.org/2000/svg" xmlns:xlink="http://www.w3.org/1999/xlink" width="46.1723633" height="28" fill="none" customFrame="#000000">
	<g id="万事达-A">
		<path id="path" d="M16.814 25.0662L29.2718 25.0662L29.2718 3.18591L16.814 3.18591L16.814 25.0662Z" fill="rgb(255,95,0)" fill-rule="nonzero" />
		<path id="path" d="M17.5978 13.998C17.5978 9.55533 19.6886 5.61457 23.0859 3.01541C20.6468 1.1727 17.5978 0 14.287 0C6.35982 0.081649 0 6.28457 0 13.998C0 21.7106 6.35982 27.9127 14.287 27.9127C17.5978 27.9127 20.6444 26.8233 23.0859 24.8965C19.6182 22.2646 17.5962 18.2486 17.5978 13.998Z" fill="rgb(235,0,27)" fill-rule="nonzero" />
		<path id="path" d="M46.1726 14.0836C46.1726 21.7955 39.8144 28 31.8848 28C28.5748 28 25.5274 26.9097 23.0859 24.9838C26.3967 22.4671 28.5748 18.4439 28.5748 14.002C28.5748 9.56094 26.4832 5.61697 23.0859 3.01781C25.525 1.1735 28.5748 0 31.8848 0C39.8128 0.168101 46.1726 6.37182 46.1726 14.0836Z" fill="rgb(247,158,27)" fill-rule="nonzero" />
	</g>
</svg>
