<svg viewBox="0 0 47.5327 28" xmlns="http://www.w3.org/2000/svg" xmlns:xlink="http://www.w3.org/1999/xlink" width="47.5327148" height="28" fill="none" customFrame="#000000">
	<g id="银联-A">
		<path id="path" d="M10.7175 0.0337084L45.9063 0.0337084C46.0254 0.0554316 46.1415 0.0877996 46.2547 0.130812C46.3678 0.173825 46.4761 0.226766 46.5796 0.289634C46.683 0.352503 46.7799 0.424252 46.8702 0.504881C46.9605 0.58551 47.0428 0.673676 47.1169 0.769379C47.191 0.865082 47.2559 0.966727 47.3114 1.07431C47.3669 1.1819 47.4121 1.29364 47.4472 1.40952C47.4822 1.52541 47.5064 1.64351 47.5198 1.76383C47.5331 1.88415 47.5355 2.00468 47.5267 2.12543L40.0495 26.5383C39.9218 26.7462 39.7712 26.936 39.5977 27.1076C39.4243 27.2792 39.2329 27.4278 39.0237 27.5534C38.8144 27.6789 38.5933 27.7778 38.3602 27.8501C38.1271 27.9224 37.8888 27.966 37.6452 27.9808L1.22071 27.9808C0.259023 27.8846 -0.140087 27.0672 0.0426166 25.5285L7.28907 1.92347C8.00552 0.759784 9.15959 0.129883 10.7368 6.10352e-05L10.7175 0.0337084Z" fill="rgb(0,144,140)" fill-rule="nonzero" />
		<path id="path" d="M10.7561 0.0336473L21.1618 0.0336473C19.5798 0.153879 18.4257 0.778985 17.7093 1.95708L10.4965 25.5525C10.3089 27.0912 10.6984 27.9038 11.6697 28L1.25453 28C0.283201 27.8894 -0.106292 27.0768 0.0764398 25.538L7.28919 1.92341C8.00565 0.759723 9.15971 0.129822 10.7417 0L10.7561 0.0336473Z" fill="rgb(230,0,18)" fill-rule="nonzero" />
		<path id="path" d="M21.1617 0.0336473L33.9668 0.0336473C32.3848 0.153879 31.2307 0.778985 30.5143 1.95708L23.3014 25.5525C23.1139 27.0912 23.5082 27.9038 24.4795 28L11.6648 28C10.7032 27.907 10.3105 27.0912 10.4868 25.5525L17.7092 1.92343C18.4256 0.759723 19.5797 0.129794 21.1617 0L21.1617 0.0336473Z" fill="rgb(0,80,142)" fill-rule="nonzero" />
		<path id="path" d="M9.58757 7.66482C9.57172 7.76253 9.54928 7.85871 9.52025 7.95335C8.99129 9.74693 8.47198 12.156 8.53451 12.4637C8.73165 13.3677 10.0251 13.2956 10.4964 12.358C10.6551 12.0983 11.6167 7.90526 11.6167 7.61194C11.6167 7.61194 13.1699 7.61194 13.1843 7.63597C13.1799 7.6804 13.1702 7.72368 13.1555 7.76582C13.1555 7.82832 12.8862 8.80445 12.5977 9.93446C11.9822 12.3676 11.9004 12.6176 11.5783 13.0937C10.5204 14.6564 6.99577 14.6083 6.70725 13.0263C6.64475 12.6705 7.4045 8.69866 7.74108 7.63597C8.3558 7.5925 8.96969 7.60212 9.58275 7.66483L9.58757 7.66482ZM33.058 7.66482C32.4185 7.59546 31.7773 7.57302 31.1345 7.5975L29.4756 7.5975L29.4756 7.67444C29.4756 7.71773 29.3554 8.22743 27.9801 14.1323C28.5251 14.2441 29.0701 14.2441 29.6151 14.1323C29.6151 14.0938 29.692 13.7909 29.7545 13.4639C30.1103 11.7521 30.067 11.8338 30.6152 11.8338C32.428 11.8338 33.4522 11.2712 33.9427 10.0114C34.4332 8.75157 34.111 7.89561 33.058 7.66482ZM30.7306 10.7663L30.3844 10.7663L30.6344 9.67479C30.8653 8.66019 30.8845 8.57845 30.9518 8.59286C31.0191 8.60728 31.2451 8.62654 31.5144 8.64575C33.2551 8.77562 32.4905 10.8144 30.7306 10.7663ZM18.8968 9.93446C19.118 9.99216 19.296 10.1701 19.296 10.3239C19.296 10.8961 18.1227 11.2856 17.6947 10.8625C17.2668 10.4394 18.1419 9.74693 18.8968 9.93446ZM14.824 10.372C14.8222 10.4389 14.8126 10.5046 14.7952 10.5692L14.7952 10.6654L15.0693 10.5259C15.8002 10.1557 16.5118 10.223 16.7474 10.6798C16.8917 10.9538 16.8773 11.1173 16.507 12.8244C16.4397 13.1321 16.358 13.5457 16.3243 13.738C16.2425 14.2188 16.3243 14.166 15.4828 14.1804C14.7808 14.1804 14.7808 14.1804 14.7904 14.1131C14.8 14.0457 14.8769 13.6995 14.9731 13.2716C15.3482 11.6367 15.353 11.4059 15.0308 11.4059C14.8529 11.4059 14.598 11.5165 14.5788 11.5934C14.5451 11.7521 14.1268 13.7524 14.0979 13.9496L14.0547 14.1563L13.3382 14.1563C12.4631 14.1852 12.5256 14.2573 12.7227 13.4591C12.968 12.4493 13.1122 11.7377 13.2036 11.1029C13.2949 10.4682 13.2372 10.4874 13.8912 10.3817C14.1893 10.3384 14.4971 10.2855 14.574 10.2614C14.8 10.2085 14.8529 10.223 14.8481 10.348L14.824 10.372ZM25.725 10.3528C25.7208 10.4206 25.7128 10.4879 25.7009 10.5547L25.6721 10.6701L25.9462 10.5307C27.3887 9.7902 27.9273 10.4009 27.5089 12.2666C27.4127 12.6897 27.2877 13.2716 27.2396 13.5601C27.2099 13.7533 27.1634 13.9425 27.1002 14.1275C26.6193 14.2114 26.1385 14.2114 25.6576 14.1275C25.6576 14.089 25.7394 13.7188 25.8404 13.3052C26.2251 11.6319 26.2299 11.4155 25.8932 11.4107C25.5566 11.4058 25.4701 11.502 25.4124 11.6992C25.3547 11.8963 25.0037 13.6226 24.9315 13.9159L24.8835 14.1611L24.167 14.1611C23.2918 14.1852 23.3592 14.2717 23.5659 13.4158C23.7727 12.5599 23.965 11.6415 24.0468 11.0116C24.1286 10.3816 24.0468 10.4874 24.643 10.4009C24.9027 10.3576 25.2104 10.3047 25.3258 10.2759C25.6192 10.2134 25.6769 10.223 25.6721 10.3287L25.725 10.3528ZM39.6793 10.3143C39.761 11.7232 39.7899 12.1368 39.8043 12.1512C39.9699 11.8959 40.1158 11.6299 40.2419 11.353C40.7227 10.4297 40.6073 10.5307 41.117 10.4586C41.2565 10.4586 41.5306 10.3913 41.7277 10.3528C42.2086 10.247 42.2086 10.2133 41.6508 11.2183C40.867 12.5743 39.7851 14.4785 39.4004 15.1757C38.2319 17.3107 38.2415 17.3107 37.2366 17.3107L36.6499 17.3107L36.7028 17.1424C36.7317 17.0511 36.7845 16.8587 36.8278 16.7144L36.9048 16.4644L37.1019 16.4644C37.3135 16.4644 37.3519 16.4308 37.5491 16.0942L37.7847 15.6951C37.852 15.5893 38.0732 15.2142 38.2656 14.844L38.6406 14.1948L38.5444 13.3629C38.4291 12.3676 38.2848 11.2135 38.2223 10.8529C38.1598 10.4922 38.1694 10.5403 38.5877 10.4778C38.7656 10.449 39.0686 10.3961 39.2321 10.3576C39.5975 10.2807 39.66 10.2759 39.6841 10.3143L39.6793 10.3143Z" fill="rgb(255,255,255)" fill-rule="nonzero" />
		<path id="path" d="M22.3687 10.3575C20.7002 10.0498 19.3923 11.199 19.3971 12.9637C19.3971 13.9832 20.2914 14.4832 21.5945 14.1899C23.518 13.7668 24.1431 10.6845 22.3687 10.3575ZM21.7677 12.6127C21.5945 13.1946 21.2291 13.5216 20.9791 13.3244C20.6424 13.0647 21.0416 11.401 21.4839 11.2327C21.9263 11.0644 22.0898 11.5404 21.7677 12.6127ZM36.9097 10.4537C35.996 10.6076 36.0057 10.6028 35.9912 10.6941C35.9768 10.7855 35.9912 10.7663 35.8662 10.646C35.7844 10.5596 35.6899 10.4907 35.5825 10.4393C34.2602 9.81898 32.4425 12.5358 33.3177 13.8053C33.6687 14.2861 34.8997 14.4832 35.1594 14.0649C35.2027 13.9928 35.2507 14.0312 35.2411 14.1226L35.2411 14.2236L35.9912 14.2236C36.8856 14.2236 36.7702 14.3197 36.9241 13.5023C37.0203 12.9541 37.2703 11.8338 37.5781 10.5451C37.6213 10.3335 37.6502 10.3383 36.9097 10.4537ZM34.7266 13.3917C34.366 13.1994 34.7266 11.5741 35.1786 11.3433C35.52 11.1702 35.7748 11.3721 35.7748 11.8241C35.7748 12.7666 35.1786 13.6321 34.7266 13.3917ZM19.0941 11.1125C19.0988 11.1865 19.0892 11.2586 19.0653 11.3289C18.8922 12.0646 18.5556 13.5456 18.5027 13.8245L18.4402 14.1563L17.6852 14.1563C16.7813 14.1803 16.839 14.2188 17.0169 13.6754C17.2055 13.0659 17.3466 12.4456 17.44 11.8145C17.5266 11.2279 17.44 11.3337 18.094 11.2135C18.4017 11.1702 18.7143 11.1173 18.7912 11.098C18.9595 11.0596 19.0701 11.0547 19.0942 11.098L19.0941 11.1125ZM23.1189 15.8681C23.0942 15.9469 23.0589 16.0206 23.0131 16.0893C22.9602 16.1951 22.9073 16.2864 22.9073 16.2961C24.2633 16.3249 24.3162 16.3249 24.297 16.3826L24.0565 17.2L22.0899 17.2L21.9792 17.301C21.734 17.5367 20.3828 17.83 20.3828 17.6472L20.6329 16.8298L20.8156 16.8298C21.1281 16.8298 21.2099 16.7625 21.484 16.272L21.7148 15.82C22.1824 15.7881 22.6489 15.8009 23.1141 15.8585L23.1189 15.8681ZM29.4373 15.8392L28.4756 15.8392C27.1773 15.8392 26.7541 15.921 26.2444 16.2576C26.1654 16.3187 26.0804 16.37 25.9896 16.4115C26.0071 16.3252 26.0296 16.2403 26.0569 16.1566C26.087 16.0668 26.111 15.9755 26.129 15.8825C25.7251 15.8292 25.3212 15.8292 24.9172 15.8825C24.8932 15.9258 23.2487 21.3979 23.1718 21.6912C23.0131 22.3019 23.2006 22.3884 24.6528 22.3644L25.3308 22.3644L25.4702 21.8835C25.6337 21.3258 25.6674 21.3738 25.1336 21.4027C24.4604 21.47 24.4749 21.571 24.9317 20.0852L25.1625 19.3158L27.7928 19.3158L28.014 19.21C28.1416 19.152 28.2544 19.0728 28.3523 18.9724C28.4502 18.872 28.5265 18.7573 28.5814 18.6282C28.7016 18.3685 29.4661 15.8681 29.4373 15.8392ZM27.3696 18.4695L25.4029 18.4695L25.5039 18.1089L27.4946 18.1089L27.3696 18.4695ZM27.7783 17.2145L27.1917 17.2145C26.9709 17.1984 26.7528 17.2154 26.5372 17.2654C26.3216 17.3154 26.1182 17.3962 25.9271 17.5078C25.7636 17.5895 25.6434 17.6376 25.653 17.6136C25.6626 17.5895 25.7203 17.402 25.7828 17.2L25.9078 16.7913C26.5666 16.7335 27.2253 16.7335 27.8841 16.7913C27.8584 16.9348 27.8231 17.0758 27.7783 17.2145ZM36.3759 17.5751L34.3131 17.5751L34.2169 17.9839L34.0919 18.3974L34.8228 18.3974C35.0672 18.3918 35.3108 18.403 35.5537 18.431C35.5537 18.431 35.5104 18.5945 35.3662 19.0706L33.8563 19.0706L33.7361 19.4745C33.6014 19.9553 33.5437 19.888 34.2939 19.888L34.9142 19.888L34.6113 20.316C33.8756 21.3546 33.89 21.3402 33.7216 21.4219C33.6034 21.4808 33.4784 21.5065 33.3466 21.4989C33.1062 21.4989 33.1062 21.4989 33.1783 21.2969C33.2505 21.095 33.2312 21.1142 33.034 21.1142C32.8369 21.1142 32.8802 21.1142 32.8946 21.0517C33.0629 20.518 34.1785 16.7961 34.1785 16.7865C34.2554 16.7742 34.3323 16.7742 34.4093 16.7865L34.6305 16.7865L34.7026 16.5653L34.7699 16.3489L34.7699 16.6471C34.7699 17.277 34.9527 17.378 36.0057 17.3539L36.4144 17.3539L36.5347 16.9404L36.6597 16.5317L36.4529 16.5317C36.1596 16.4932 36.1403 16.474 36.1403 16.147L36.1403 15.82L35.5201 15.82C33.6399 15.82 32.7215 15.9017 32.332 16.1037C32.0339 16.2528 32.0339 16.2528 32.1108 16.0316C32.1335 15.9738 32.1512 15.9145 32.1637 15.8537C31.9501 15.8199 31.7353 15.8087 31.5194 15.82L30.851 15.82L30.7596 16.1085C30.7163 16.272 30.3749 17.402 29.2834 21.018C29.2305 21.1767 29.2209 21.1863 29.1103 21.1863C28.9997 21.1863 28.9757 21.1863 28.8458 21.595L28.7208 21.999C28.7208 22.0567 28.7833 22.0615 29.9855 22.0615C31.428 22.0615 31.2789 22.0615 31.2164 22.2634L31.2164 22.3452L32.5003 22.3452L32.5291 22.2105C32.5676 22.0807 32.5676 22.0807 32.7503 22.0807C32.9331 22.0807 32.9331 22.0807 32.9042 22.1721C32.8273 22.3644 32.8225 22.3644 33.438 22.3644C34.3997 22.3644 34.4574 22.3356 35.2123 21.3017L35.4912 20.9219L35.5681 21.4364C35.6883 22.2057 35.8278 22.3259 36.5924 22.3259L37.0203 22.3259L37.1549 21.8787C37.3136 21.3306 37.3232 21.3979 37.0828 21.3979C36.8424 21.3979 36.7847 21.3979 36.6885 20.7776L36.6212 20.1958L36.0394 20.1958L36.1451 20.0563L36.2557 19.9168L37.7752 19.9168L37.8858 19.5562C38.0301 19.0754 38.083 19.1283 37.2992 19.1283L36.6212 19.1283L36.6212 19.0321C36.6212 18.9792 36.6789 18.835 36.7991 18.4839L38.1888 18.4839L38.309 18.0992C38.3715 17.8877 38.4244 17.7049 38.4244 17.6857C38.4244 17.6665 37.506 17.5751 36.3759 17.5751ZM31.5867 21.1575L30.5865 21.1286L30.8702 20.1669L31.8704 20.2198C31.8608 20.2438 31.8127 20.465 31.5867 21.1575ZM32.3176 18.7243C32.2695 18.8782 32.2214 19.0417 32.207 19.0994C32.1925 19.1572 32.1685 19.2292 31.8608 19.2822C31.6781 19.321 31.5001 19.3755 31.327 19.4456C31.2401 19.4915 31.1488 19.5251 31.0529 19.5466C31.0529 19.5466 31.1347 19.2966 31.2164 19.0177C31.2982 18.7388 31.3751 18.4983 31.3799 18.4791C31.5523 18.4555 31.7254 18.4474 31.8992 18.4551L32.3801 18.4551L32.3176 18.7243ZM32.6734 17.5367L32.4089 17.5847C32.2293 17.6126 32.0546 17.6591 31.8848 17.7242C31.7405 17.7771 31.6107 17.8252 31.5963 17.8252C31.6315 17.6469 31.6796 17.4722 31.7405 17.301L31.8944 16.7721L32.3753 16.7721C32.5362 16.7675 32.6965 16.7755 32.8561 16.7961C32.8561 16.7961 32.683 17.5174 32.6734 17.5318L32.6734 17.5367ZM24.0181 17.8252L23.7728 18.6282L22.388 18.6282C22.2485 19.0754 22.1956 19.2341 22.186 19.2629C22.1764 19.2918 22.2197 19.3254 22.8688 19.3254C23.1055 19.3139 23.3412 19.3251 23.5757 19.3591C23.5685 19.4034 23.5573 19.4467 23.542 19.4889C23.4987 19.6236 23.4555 19.7582 23.417 19.8976L23.3256 20.2054L21.8831 20.2054L21.7244 20.7439C21.484 21.5277 21.508 21.5518 22.3928 21.4219C22.7582 21.3738 22.7438 21.345 22.5803 21.8739L22.4457 22.3259L21.484 22.3259C19.9789 22.3259 19.95 22.2875 20.3492 20.9796C20.4742 20.5708 20.5752 20.2246 20.5752 20.2198C20.4469 20.2093 20.3187 20.2093 20.1905 20.2198C20.0612 20.2284 19.933 20.2204 19.8058 20.1958C19.9741 19.6236 20.027 19.436 20.0366 19.4024C20.0462 19.3687 20.1039 19.3399 20.4549 19.3399L20.8492 19.3399L21.0416 18.6426L20.6665 18.6426C20.3876 18.6426 20.2963 18.6426 20.2963 18.5945C20.2963 18.5464 20.503 17.8732 20.5319 17.8251C20.5607 17.7771 24.0229 17.7915 23.9988 17.8251L24.0181 17.8252Z" fill="rgb(255,255,255)" fill-rule="nonzero" />
		<path id="path" d="M28.4467 19.4938C28.4467 19.5274 28.4082 19.6669 28.3793 19.8015C28.2447 20.441 28.062 20.5853 27.3118 20.6286C27.1507 20.6337 26.9904 20.6481 26.831 20.6719C26.7752 20.9091 26.7752 21.1463 26.831 21.3835L26.8935 21.4749L27.3455 21.4749C27.4962 21.4652 27.6468 21.4652 27.7975 21.4749C27.7975 21.5133 27.5523 22.3164 27.5282 22.3548C26.9799 22.3928 26.4333 22.3752 25.8885 22.302C25.6048 22.2106 25.6096 22.2394 25.6433 20.7969L25.6769 19.5226L26.8502 19.5226L26.8502 20.0035L27.0762 20.0035C27.3359 20.0035 27.3599 20.0035 27.4657 19.6573L27.5234 19.4745L28.0043 19.4745C28.437 19.4745 28.4851 19.4745 28.4563 19.537L28.4467 19.4938Z" fill="rgb(255,255,255)" fill-rule="nonzero" />
	</g>
</svg>
