<svg viewBox="0 0 80 80" version="1.1" xmlns="http://www.w3.org/2000/svg" xmlns:xlink="http://www.w3.org/1999/xlink">
    <defs>
        <polygon id="path-1" points="63.9998 64 0 64 0 0.0003 63.9998 0.0003"></polygon>
    </defs>
    <g id="add" stroke="none" stroke-width="1" fill="none" fill-rule="evenodd">
        <g id="Page-1" transform="translate(8.000000, 8.000000)">
            <mask id="mask-2" fill="white">
                <use xlink:href="#path-1"></use>
            </mask>
            <g id="Clip-2"></g>
            <path d="M40.4998,23.5003 L40.4998,5.0003 C40.4998,2.2383 38.2618,0.0003 35.4998,0.0003 L28.4998,0.0003 C25.7378,0.0003 23.4998,2.2383 23.4998,5.0003 L23.4998,23.5003 L4.9998,23.5003 C2.2378,23.5003 -0.0002,25.7383 -0.0002,28.5003 L-0.0002,35.5003 C-0.0002,38.2613 2.2378,40.5003 4.9998,40.5003 L23.4998,40.5003 L23.4998,59.0003 C23.4998,61.7613 25.7378,64.0003 28.4998,64.0003 L35.4998,64.0003 C38.2618,64.0003 40.4998,61.7613 40.4998,59.0003 L40.4998,40.5003 L58.9998,40.5003 C61.7618,40.5003 63.9998,38.2613 63.9998,35.5003 L63.9998,28.5003 C63.9998,25.7383 61.7618,23.5003 58.9998,23.5003 L40.4998,23.5003 Z" id="Fill-1" fill="#FFF" class="theme-icon-color" mask="url(#mask-2)"></path>
        </g>
    </g>
</svg>
