<svg xmlns="http://www.w3.org/2000/svg" width="176" height="162" viewBox="0 0 176 162">
  <g fill="none" fill-rule="evenodd">
    <path fill="#FFF" d="M98.5068199,9.14888147 L173.529722,144.522828 C176.701335,150.247567 174.56863,157.425146 168.76432,160.552295 C167.002868,161.502153 165.027845,162.000213 163.020887,162.000213 L12.9760804,162.000213 C6.36140244,162.000213 1.0002,156.711523 1.0002,150.188509 C1.0002,148.20808 1.50518296,146.261117 2.46824333,144.522828 L77.4891499,9.14888147 C80.6617602,3.42512628 87.9381055,1.32067425 93.7424155,4.44979166 C95.7533654,5.53351555 97.4070349,7.1645151 98.5068199,9.14888147"/>
    <path fill="#0099BF" fill-rule="nonzero" d="M91.5086016,10.5483967 C91.1413693,9.87652853 90.5890178,9.324177 89.9171496,8.9569447 C87.9786773,7.89740703 85.5483099,8.60992435 84.4887723,10.5483967 L9.31537863,148.081537 C8.9938183,148.669847 8.82529329,149.329546 8.82529329,150 C8.82529329,152.209139 10.6161543,154 12.8252933,154 L163.172081,154 C163.842535,154 164.502234,153.831475 165.090543,153.509915 C167.029016,152.450377 167.741533,150.02001 166.681995,148.081537 L91.5086016,10.5483967 Z M173.701825,144.244612 C176.880438,150.060029 174.742886,157.351131 168.927469,160.529744 C167.162541,161.494425 165.183443,162 163.172081,162 L12.8252933,162 C6.19787629,162 0.825293292,156.627417 0.825293292,150 C0.825293292,147.988637 1.33086831,146.00954 2.29554929,144.244612 L77.4689429,6.71147135 C80.647556,0.896054316 87.9386579,-1.24149766 93.754075,1.93711537 C95.7696795,3.03881224 97.4267341,4.69586684 98.5284309,6.71147135 L173.701825,144.244612 Z"/>
    <path fill="#00A77E" fill-rule="nonzero" d="M8,12 L8,62 C8,64.209139 9.790861,66 12,66 C14.209139,66 16,64.209139 16,62 L16,12 C16,9.790861 14.209139,8 12,8 C9.790861,8 8,9.790861 8,12 Z M12,0 C18.627417,0 24,5.372583 24,12 L24,62 C24,68.627417 18.627417,74 12,74 C5.372583,74 0,68.627417 0,62 L0,12 C0,5.372583 5.372583,0 12,0 Z" transform="translate(76 39)"/>
    <path fill="#00A77E" fill-rule="nonzero" d="M88,137 C90.7614237,137 93,134.761424 93,132 C93,129.238576 90.7614237,127 88,127 C85.2385763,127 83,129.238576 83,132 C83,134.761424 85.2385763,137 88,137 Z M88,144 C81.372583,144 76,138.627417 76,132 C76,125.372583 81.372583,120 88,120 C94.627417,120 100,125.372583 100,132 C100,138.627417 94.627417,144 88,144 Z"/>
  </g>
</svg>
