<svg viewBox="0 0 80 80" version="1.1" xmlns="http://www.w3.org/2000/svg" xmlns:xlink="http://www.w3.org/1999/xlink">
  <g id="_symbols" stroke="none" stroke-width="1" fill="none" fill-rule="evenodd">
    <g id="ICON-/-icon-ban-red" fill="#ED5562">
      <path d="M63.6190476,40.2291667 C63.6190476,35.5971991 62.367572,31.3536899 59.8645833,27.4985119 L27.3258929,59.9940476 C31.2673808,62.5545763 35.5396595,63.8348214 40.1428571,63.8348214 C43.3363255,63.8348214 46.3787058,63.2090836 49.2700893,61.9575893 C52.1614728,60.7060949 54.6572316,59.0302684 56.7574405,56.9300595 C58.8576494,54.8298506 60.5262835,52.3197071 61.7633929,49.3995536 C63.0005022,46.4794001 63.6190476,43.422635 63.6190476,40.2291667 Z M20.5074405,53.1324405 L53.0892857,20.59375 C49.2053377,17.9756814 44.8899047,16.6666667 40.1428571,16.6666667 C35.8848993,16.6666667 31.9578553,17.7167554 28.3616071,19.8169643 C24.765359,21.9171732 21.9171732,24.7797438 19.8169643,28.4047619 C17.7167554,32.02978 16.6666667,35.9712089 16.6666667,40.2291667 C16.6666667,44.8899043 17.9469118,49.1909525 20.5074405,53.1324405 Z M73.2857143,40.2291667 C73.2857143,44.7460543 72.4082429,49.0614874 70.6532738,53.1755952 C68.8983047,57.2897031 66.5463937,60.8283582 63.5974702,63.7916667 C60.6485468,66.7549751 57.1242765,69.1140785 53.0245536,70.8690476 C48.9248307,72.6240167 44.6309748,73.5014881 40.1428571,73.5014881 C35.6547395,73.5014881 31.3608836,72.6240167 27.2611607,70.8690476 C23.1614378,69.1140785 19.6371675,66.7549751 16.688244,63.7916667 C13.7393206,60.8283582 11.3874096,57.2897031 9.63244048,53.1755952 C7.87747138,49.0614874 7,44.7460543 7,40.2291667 C7,35.712279 7.87747138,31.4040384 9.63244048,27.3043155 C11.3874096,23.2045926 13.7393206,19.6731299 16.688244,16.7098214 C19.6371675,13.746513 23.1614378,11.3874096 27.2611607,9.63244048 C31.3608836,7.87747138 35.6547395,7 40.1428571,7 C44.6309748,7 48.9248307,7.87747138 53.0245536,9.63244048 C57.1242765,11.3874096 60.6485468,13.746513 63.5974702,16.7098214 C66.5463937,19.6731299 68.8983047,23.2045926 70.6532738,27.3043155 C72.4082429,31.4040384 73.2857143,35.712279 73.2857143,40.2291667 Z" id="fill-1" class="theme-icon-color" ></path>
    </g>
  </g>
</svg>
