<svg xmlns="http://www.w3.org/2000/svg" width="80" height="80" viewBox="0 0 80 80">
  <g fill="none" fill-rule="evenodd">
    <rect width="43.73" height="71.688" x="8.299" y="4.156" fill="#FFF"/>
    <path fill="#009BC3" fill-rule="nonzero" d="M52.0294173,0 C54.3246267,0 56.1852615,1.86063481 56.1852615,4.15584416 L56.1852615,75.8441558 C56.1852615,78.1393652 54.3246267,80 52.0294173,80 L8.39305371,80 C6.09784436,80 4.23720955,78.1393652 4.23720955,75.8441558 L4.23720955,4.15584416 C4.23720955,1.86063481 6.09784436,0 8.39305371,0 L52.0294173,0 Z M52.0292096,64.416 L8.39220955,64.416 L8.39305371,75.8441558 L52.0294173,75.8441558 L52.0292096,64.416 Z M52.0292096,18.771 L8.39220955,18.771 L8.39220955,60.26 L52.0292096,60.26 L52.0292096,18.771 Z M52.0294173,4.15584416 L8.39305371,4.15584416 L8.39220955,14.616 L52.0292096,14.616 L52.0294173,4.15584416 Z"/>
    <path fill="#00A77E" fill-rule="nonzero" d="M30.2112355,74.1403816 C32.2267572,74.1403816 33.8606604,72.5064784 33.8606604,70.4909567 C33.8606604,68.475435 32.2267572,66.8415318 30.2112355,66.8415318 C28.1957138,66.8415318 26.5618106,68.475435 26.5618106,70.4909567 C26.5618106,72.5064784 28.1957138,74.1403816 30.2112355,74.1403816 Z M26.2077829,11.7765968 L34.2146881,11.7765968 C35.3622928,11.7765968 36.2926102,10.8462794 36.2926102,9.69867469 C36.2926102,8.55107002 35.3622928,7.62075262 34.2146881,7.62075262 L26.2077829,7.62075262 C25.0601782,7.62075262 24.1298608,8.55107002 24.1298608,9.69867469 C24.1298608,10.8462794 25.0601782,11.7765968 26.2077829,11.7765968 Z"/>
    <path fill="#009BC3" fill-rule="nonzero" d="M43.9661425,48.7000681 L34.1389993,56.9429244 C32.7796622,58.0831154 30.2627904,57.3615559 30.2627904,55.8316578 L30.2627904,24.1649911 C30.2627904,23.2445166 31.2571554,22.4983245 32.4837667,22.4983245 L73.5418142,22.4983245 C74.7684255,22.4983245 75.7627904,23.2445166 75.7627904,24.1649911 L75.7627904,47.0334015 C75.7627904,47.9538761 74.7684255,48.7000681 73.5418142,48.7000681 L43.9661425,48.7000681 Z M33.8606604,25.8316578 L33.8606604,52.6506825 L41.614682,45.9221349 C42.0519381,45.5687282 42.3172434,45.3667348 42.9730357,45.3667348 L72.3922192,45.3667348 L72.3922192,25.8316578 L33.8606604,25.8316578 Z"/>
    <path fill="#FFF" fill-rule="nonzero" d="M33.8424266,25.8316578 L33.8606604,52.6506825 L41.614682,45.9221349 C42.0468905,45.5687282 42.6644223,45.3667348 43.3126443,45.3667348 L72.3922192,45.3667348 L72.3922192,25.8316578 L33.8424266,25.8316578 Z"/>
    <path fill="#00A77E" fill-rule="nonzero" d="M43.5360059,38.8153159 L44.0492367,38.5393576 C44.2924505,38.4085843 44.3836016,38.1054079 44.2528283,37.8621941 C44.2405255,37.839313 44.2264581,37.8174256 44.2107539,37.7967307 L43.3549117,36.6689048 C43.187984,36.448928 43.2309887,36.13528 43.4509655,35.9683524 C43.5269907,35.9106612 43.6179388,35.875933 43.7130671,35.8682699 L44.9666849,35.767284 C45.2419357,35.7451111 45.4470957,35.5040015 45.4249228,35.2287508 C45.4242812,35.220786 45.4234487,35.2128377 45.4224261,35.2049128 L45.3546204,34.6794179 C45.319282,34.405546 45.0686176,34.2121764 44.7947458,34.2475147 C44.7707396,34.2506122 44.7469901,34.2554489 44.7236846,34.2619866 L43.1184614,34.7122829 C42.8525822,34.7868673 42.5765819,34.6317921 42.5019976,34.3659128 C42.4848213,34.3046826 42.4794834,34.240738 42.4862699,34.1775075 L42.654044,32.6143433 C42.6835131,32.3397778 42.4848232,32.0933092 42.2102578,32.0638401 C42.1925352,32.0619379 42.1747237,32.0609848 42.1568993,32.0609848 L41.56848,32.0609848 C41.2923376,32.0609848 41.06848,32.2848424 41.06848,32.5609848 C41.06848,32.5788091 41.0694331,32.5966207 41.0713353,32.6143433 L41.2385796,34.1725712 C41.2680487,34.4471367 41.0693588,34.6936053 40.7947934,34.7230744 C40.7305236,34.7299725 40.6655261,34.7243432 40.6033992,34.7064983 L39.0538255,34.2614079 C38.7884148,34.1851729 38.5114563,34.3385302 38.4352213,34.6039408 C38.4297078,34.6231359 38.4253493,34.642644 38.4221693,34.6623603 L38.3369247,35.1908766 C38.2929539,35.4634957 38.47831,35.7201426 38.7509291,35.7641134 C38.7639433,35.7662125 38.7770354,35.767796 38.7901747,35.7688604 L40.0238206,35.8687926 C40.2990614,35.8910886 40.5041136,36.1322899 40.4818176,36.4075307 C40.4742592,36.5008374 40.4406585,36.5901483 40.3848396,36.6652984 L39.5478406,37.7921672 C39.3831834,38.0138486 39.4294106,38.3270379 39.6510919,38.4916951 C39.6722161,38.5073853 39.6945459,38.5213836 39.7178732,38.5335593 L40.2549126,38.8138677 C40.4997149,38.9416426 40.8017485,38.8467731 40.9295233,38.6019707 C40.9346023,38.5922399 40.9393595,38.5823445 40.9437872,38.5723006 L41.4072504,37.5209545 C41.518639,37.2682744 41.8137749,37.153735 42.0664549,37.2651236 C42.1741667,37.312606 42.2616723,37.3965685 42.3135637,37.5022268 L42.8504243,38.5953527 C42.9721558,38.8432157 43.2717714,38.9454654 43.5196343,38.8237339 C43.5251427,38.8210286 43.5306008,38.8182221 43.5360059,38.8153159 Z M54.7748118,38.8153159 L55.2880427,38.5393576 C55.5312565,38.4085843 55.6224076,38.1054079 55.4916343,37.8621941 C55.4793314,37.839313 55.465264,37.8174256 55.4495598,37.7967307 L54.5937176,36.6689048 C54.42679,36.448928 54.4697947,36.13528 54.6897714,35.9683524 C54.7657967,35.9106612 54.8567448,35.875933 54.951873,35.8682699 L56.2054909,35.767284 C56.4807416,35.7451111 56.6859017,35.5040015 56.6637287,35.2287508 C56.6630871,35.220786 56.6622547,35.2128377 56.6612321,35.2049128 L56.5934263,34.6794179 C56.558088,34.405546 56.3074236,34.2121764 56.0335517,34.2475147 C56.0095456,34.2506122 55.9857961,34.2554489 55.9624905,34.2619866 L54.3572674,34.7122829 C54.0913881,34.7868673 53.8153879,34.6317921 53.7408035,34.3659128 C53.7236273,34.3046826 53.7182893,34.240738 53.7250758,34.1775075 L53.89285,32.6143433 C53.9223191,32.3397778 53.7236292,32.0933092 53.4490638,32.0638401 C53.4313412,32.0619379 53.4135296,32.0609848 53.3957053,32.0609848 L52.8072859,32.0609848 C52.5311436,32.0609848 52.3072859,32.2848424 52.3072859,32.5609848 C52.3072859,32.5788091 52.3082391,32.5966207 52.3101412,32.6143433 L52.4773856,34.1725712 C52.5068547,34.4471367 52.3081648,34.6936053 52.0335993,34.7230744 C51.9693296,34.7299725 51.904332,34.7243432 51.8422052,34.7064983 L50.2926315,34.2614079 C50.0272208,34.1851729 49.7502622,34.3385302 49.6740272,34.6039408 C49.6685138,34.6231359 49.6641553,34.642644 49.6609753,34.6623603 L49.5757307,35.1908766 C49.5317599,35.4634957 49.7171159,35.7201426 49.989735,35.7641134 C50.0027492,35.7662125 50.0158413,35.767796 50.0289807,35.7688604 L51.2626266,35.8687926 C51.5378674,35.8910886 51.7429196,36.1322899 51.7206236,36.4075307 C51.7130652,36.5008374 51.6794644,36.5901483 51.6236456,36.6652984 L50.7866465,37.7921672 C50.6219893,38.0138486 50.6682165,38.3270379 50.8898979,38.4916951 C50.911022,38.5073853 50.9333518,38.5213836 50.9566792,38.5335593 L51.4937186,38.8138677 C51.7385209,38.9416426 52.0405544,38.8467731 52.1683293,38.6019707 C52.1734083,38.5922399 52.1781655,38.5823445 52.1825931,38.5723006 L52.6460564,37.5209545 C52.7574449,37.2682744 53.0525808,37.153735 53.3052609,37.2651236 C53.4129726,37.312606 53.5004783,37.3965685 53.5523697,37.5022268 L54.0892303,38.5953527 C54.2109618,38.8432157 54.5105773,38.9454654 54.7584403,38.8237339 C54.7639487,38.8210286 54.7694068,38.8182221 54.7748118,38.8153159 Z M66.0136178,38.8153159 L66.5268486,38.5393576 C66.7700625,38.4085843 66.8612135,38.1054079 66.7304403,37.8621941 C66.7181374,37.839313 66.70407,37.8174256 66.6883658,37.7967307 L65.8325236,36.6689048 C65.6655959,36.448928 65.7086007,36.13528 65.9285774,35.9683524 C66.0046027,35.9106612 66.0955507,35.875933 66.190679,35.8682699 L67.4442969,35.767284 C67.7195476,35.7451111 67.9247077,35.5040015 67.9025347,35.2287508 C67.9018931,35.220786 67.9010607,35.2128377 67.9000381,35.2049128 L67.8322323,34.6794179 C67.796894,34.405546 67.5462296,34.2121764 67.2723577,34.2475147 C67.2483516,34.2506122 67.224602,34.2554489 67.2012965,34.2619866 L65.5960734,34.7122829 C65.3301941,34.7868673 65.0541938,34.6317921 64.9796095,34.3659128 C64.9624333,34.3046826 64.9570953,34.240738 64.9638818,34.1775075 L65.131656,32.6143433 C65.161125,32.3397778 64.9624352,32.0933092 64.6878697,32.0638401 C64.6701472,32.0619379 64.6523356,32.0609848 64.6345113,32.0609848 L64.0460919,32.0609848 C63.7699495,32.0609848 63.5460919,32.2848424 63.5460919,32.5609848 C63.5460919,32.5788091 63.547045,32.5966207 63.5489472,32.6143433 L63.7161916,34.1725712 C63.7456606,34.4471367 63.5469707,34.6936053 63.2724053,34.7230744 C63.2081356,34.7299725 63.143138,34.7243432 63.0810112,34.7064983 L61.5314374,34.2614079 C61.2660267,34.1851729 60.9890682,34.3385302 60.9128332,34.6039408 C60.9073198,34.6231359 60.9029613,34.642644 60.8997812,34.6623603 L60.8145367,35.1908766 C60.7705658,35.4634957 60.9559219,35.7201426 61.228541,35.7641134 C61.2415552,35.7662125 61.2546473,35.767796 61.2677867,35.7688604 L62.5014325,35.8687926 C62.7766733,35.8910886 62.9817256,36.1322899 62.9594295,36.4075307 C62.9518712,36.5008374 62.9182704,36.5901483 62.8624516,36.6652984 L62.0254525,37.7921672 C61.8607953,38.0138486 61.9070225,38.3270379 62.1287038,38.4916951 C62.149828,38.5073853 62.1721578,38.5213836 62.1954852,38.5335593 L62.7325245,38.8138677 C62.9773269,38.9416426 63.2793604,38.8467731 63.4071353,38.6019707 C63.4122143,38.5922399 63.4169715,38.5823445 63.4213991,38.5723006 L63.8848624,37.5209545 C63.9962509,37.2682744 64.2913868,37.153735 64.5440668,37.2651236 C64.6517786,37.312606 64.7392843,37.3965685 64.7911756,37.5022268 L65.3280363,38.5953527 C65.4497678,38.8432157 65.7493833,38.9454654 65.9972463,38.8237339 C66.0027546,38.8210286 66.0082128,38.8182221 66.0136178,38.8153159 Z"/>
  </g>
</svg>
