<svg xmlns="http://www.w3.org/2000/svg" width="80" height="80" viewBox="0 0 80 80">
  <g fill="none" fill-rule="evenodd" transform="translate(0 .004)">
    <rect width="80" height="61.856" y="9.068" fill="#FFF" rx="7"/>
    <path fill="#00A77E" fill-rule="nonzero" d="M72.3809524,8.63592239 C76.5888362,8.63592239 80,12.0470862 80,16.25497 L80,16.25497 L80,63.7365606 C80,67.9444444 76.5888362,71.3556082 72.3809524,71.3556082 L72.3809524,71.3556082 L7.61904762,71.3556082 C3.41116381,71.3556082 0,67.9444444 0,63.7365606 L0,63.7365606 L0,16.25497 C0,12.0470862 3.41116381,8.63592239 7.61904762,8.63592239 L7.61904762,8.63592239 Z M72.3809524,12.4454462 L7.61904762,12.4454462 C5.51510571,12.4454462 3.80952381,14.1510281 3.80952381,16.25497 L3.80952381,16.25497 L3.809,26.4949224 L18,26.4957653 C19.1045695,26.4957653 20,27.3911958 20,28.4957653 C20,29.5501271 19.1841222,30.4139304 18.1492623,30.4902796 L18,30.4957653 L3.809,30.4949224 L3.80952381,63.7365606 C3.80952381,65.7747543 5.41017245,67.4390965 7.42301003,67.5411275 L7.61904762,67.5460844 L72.3809524,67.5460844 C74.4848943,67.5460844 76.1904762,65.8405025 76.1904762,63.7365606 L76.1904762,63.7365606 L76.19,30.4949224 L32.3076923,30.4957653 C31.2541029,30.4957653 30.4,29.6003348 30.4,28.4957653 C30.4,27.4414035 31.1782219,26.5776002 32.165319,26.501251 L32.3076923,26.4957653 L76.19,26.4949224 L76.1904762,16.25497 C76.1904762,14.2167763 74.5898275,12.5524341 72.57699,12.4504031 L72.3809524,12.4454462 Z"/>
    <path fill="#0099BF" fill-rule="nonzero" d="M8.78899717,0.472103863 C9.59066192,-0.20498565 10.769574,-0.142901347 11.4965343,0.588502248 L11.6074408,0.709539052 L75.0111143,76.7064235 C75.7238401,77.5502812 75.6175367,78.8121414 74.7736791,79.5248672 C73.9720143,80.2019567 72.7931023,80.1398724 72.0661419,79.4084688 L71.9552355,79.287432 L8.55156198,3.2905475 C7.83883617,2.44668986 7.94513953,1.18482966 8.78899717,0.472103863 Z"/>
  </g>
</svg>
