<svg xmlns="http://www.w3.org/2000/svg" width="80" height="80" viewBox="0 0 80 80">
  <g fill="none" fill-rule="evenodd">
    <rect width="80" height="80"/>
    <g transform="rotate(-45 64.188 -7.354)">
      <path class="theme-icon-fill-color" fill="#FFF" d="M3.40718872,27.9355427 C2.28116049,27.9355427 1.36833426,27.0422464 1.36833426,25.93474 L1.36833426,3.3166621 C1.36833426,2.21164925 2.27649458,1.31585935 3.40718872,1.31585935 L42.8103763,1.31585935 C43.9364045,1.31585935 44.8492308,2.20915563 44.8492308,3.3166621 L44.8492308,25.93474 C44.8492308,27.0397528 43.9410705,27.9355427 42.8103763,27.9355427 L3.40718872,27.9355427 Z"/>
      <path class="theme-icon-primary-color" fill="#0099BF" fill-rule="nonzero" d="M42.8103763,-3.40372891e-14 L3.40718872,-3.40372891e-14 C1.51562436,-3.40372891e-14 -1.85997559e-14,1.48969269 -1.85997559e-14,3.3166621 L-1.85997559e-14,25.93474 C-1.85997559e-14,27.7624608 1.51856557,29.2514021 3.40718872,29.2514021 L42.8103763,29.2514021 C44.7019407,29.2514021 46.217565,27.7617094 46.217565,25.93474 L46.217565,3.3166621 C46.217565,1.48894125 44.6989995,-3.40372891e-14 42.8103763,-3.40372891e-14 Z M3.40718872,2.6317187 L42.8103763,2.6317187 C43.1755663,2.6317187 43.4808965,2.93109247 43.4808965,3.3166621 L43.4808965,25.93474 C43.4808965,26.3209641 43.1769773,26.6196834 42.8103763,26.6196834 L3.40718872,26.6196834 C3.04199869,26.6196834 2.73666851,26.3203096 2.73666851,25.93474 L2.73666851,3.3166621 C2.73666851,2.930438 3.04058774,2.6317187 3.40718872,2.6317187 Z"/>
      <path class="theme-icon-primary-color" stroke="#0099BF" stroke-width="2.7" d="M41.4306079 1.75292537C43.1781707 1.75292537 44.5948503 3.16960494 44.5948503 4.91716774L44.5948503 9.51701404C44.5948503 9.67147559 44.5837828 9.82335221 44.5623977 9.97189415 40.3166274 9.95476944 36.8809009 6.59768779 36.8809009 2.45902963 36.8809009 2.2805811 36.8872883 2.10358562 36.8998526 1.92824824 37.226511 1.81459584 37.5767229 1.75292537 37.9413388 1.75292537L41.4306079 1.75292537zM4.78695715 1.75292537C3.03939434 1.75292537 1.62271477 3.16960494 1.62271477 4.91716774L1.62271477 9.51701404C1.62271477 9.67147559 1.63378221 9.82335221 1.65516733 9.97189415 5.9009376 9.95476944 9.33666418 6.59768779 9.33666418 2.45902963 9.33666418 2.2805811 9.33027676 2.10358562 9.31771246 1.92824824 8.99105407 1.81459584 8.64084209 1.75292537 8.27622619 1.75292537L4.78695715 1.75292537zM41.4306079 27.5573161C43.1781707 27.5573161 44.5948503 26.1406365 44.5948503 24.3930737L44.5948503 19.7932274C44.5948503 19.6387659 44.5837828 19.4868893 44.5623977 19.3383473 40.3166274 19.355472 36.8809009 22.7125537 36.8809009 26.8512119 36.8809009 27.0296604 36.8872883 27.2066559 36.8998526 27.3819932 37.226511 27.4956456 37.5767229 27.5573161 37.9413388 27.5573161L41.4306079 27.5573161zM4.78695715 27.2431472C3.03939434 27.2431472 1.62271477 25.8264677 1.62271477 24.0789049L1.62271477 19.4790586C1.62271477 19.324597 1.63378221 19.1727204 1.65516733 19.0241785 5.9009376 19.0413032 9.33666418 22.3983848 9.33666418 26.537043 9.33666418 26.7154915 9.33027676 26.892487 9.31771246 27.0678244 8.99105407 27.1814768 8.64084209 27.2431472 8.27622619 27.2431472L4.78695715 27.2431472z"/>
      <path class="theme-icon-secondary-color" fill="#00A77E" fill-rule="nonzero" d="M23.1087825,7.52265337 C19.0941313,7.52265337 15.832859,10.6990653 15.832859,14.625701 C15.832859,18.5523368 19.0941313,21.7287487 23.1087825,21.7287487 C27.1234337,21.7287487 30.384706,18.5523368 30.384706,14.625701 C30.384706,10.6990653 27.1234337,7.52265337 23.1087825,7.52265337 Z M23.1087825,10.1543721 C25.6572597,10.1543721 27.7164542,12.1599851 27.7164542,14.625701 C27.7164542,17.091417 25.6572597,19.09703 23.1087825,19.09703 C20.5603053,19.09703 18.5011108,17.091417 18.5011108,14.625701 C18.5011108,12.1599851 20.5603053,10.1543721 23.1087825,10.1543721 Z"/>
    </g>
    <g transform="translate(0 15)">
      <path class="theme-icon-fill-color" fill="#FFF" d="M12.8292172,15.7600988 L34.5670953,10.630465 C38.4049326,9.65376188 41.0276887,10.4682799 42.4353638,13.074019 C43.2464589,14.3420911 45.8005969,17.8832458 50.0977778,23.6974832 L32.7600095,23.8096892 C33.8869,27.0501469 37.067487,30.3524033 42.3017707,33.7164584 C46.1301059,36.1769156 48.8130119,36.3867408 46.0606636,39.4357515 C44.2257648,41.4684253 40.8851837,41.8662799 36.0389203,40.6293151 C30.9471109,38.4898244 27.6325069,36.2205007 26.0951084,33.8213442 C20.7070861,36.3493933 12.6955234,33.9080632 12.7776546,30.7221138 C12.8094702,29.4879574 12.8266577,24.5006191 12.8292172,15.7600988 Z" transform="rotate(-45 31.437 25.781)"/>
      <g transform="translate(.97)">
        <path class="theme-icon-secondary-color" fill="#00A77E" fill-rule="nonzero" d="M33.2043183,9.25864729 L11.6614222,14.2746775 C11.0640641,14.4137717 10.6419993,14.9541947 10.6457779,15.5751031 L10.7015933,29.0112472 C10.7005034,29.7696838 10.6970902,30.2996249 10.6913565,30.600416 L10.6921894,30.7656491 C10.815584,34.9801694 18.7465797,37.3770522 24.4919362,35.5465864 L24.7942557,35.4447338 L24.8310255,35.4913892 C26.7156462,37.8180567 29.9933578,39.9566273 34.6626747,41.9693129 L34.8442563,42.0321001 C40.0896577,43.4204927 43.8843286,42.9872096 46.096793,40.5010006 C47.9814279,38.383183 48.0359045,36.6255815 46.188558,35.2160671 C45.6450416,34.8013674 42.8005357,33.201217 42.0637818,32.7187111 L41.662625,32.4533926 C37.9595636,29.9797555 35.4062028,27.5812494 33.9847815,25.2917936 L33.8837234,25.1239838 L49.0345762,25.1246197 C50.1100224,25.1246197 50.7265087,23.8835731 50.0856745,23.0086571 L47.1969513,19.0488869 C44.7758395,15.7135012 43.2264649,13.5262056 42.5619564,12.5065291 L42.4723411,12.3671266 L42.5025468,12.4218461 C40.7708563,9.20175439 37.5422455,8.16692351 33.2043183,9.25864729 Z M40.2525142,13.7735888 L40.6799669,14.4224698 C41.5867349,15.7659985 43.3381366,18.2192149 45.9467454,21.8008216 L46.4363856,22.4721981 L31.8091802,22.472834 C30.9058995,22.472834 30.2741448,23.3778039 30.5751446,24.2405534 C31.7984009,27.7467484 35.0286706,31.1996023 40.2280437,34.6715143 L40.6426108,34.9456535 C41.4841478,35.4967826 44.0381324,36.9364926 44.5609454,37.2963792 L44.7708794,37.456036 C45.0808572,37.7096326 44.9784911,37.7972681 44.152524,38.7254306 L44.0384259,38.8476859 C42.6335203,40.2832941 39.9413658,40.5847118 35.8501722,39.5553141 L35.5983057,39.4895909 L35.6875801,39.5292333 C30.8339194,37.4370872 27.7226706,35.2684293 26.3516713,33.1138217 C25.9977318,32.5575845 25.2931074,32.3509058 24.7005495,32.6295187 C20.3449299,34.6774734 13.2681324,32.7719993 13.3085515,30.6516136 L13.3193142,27.8610054 L13.2694703,16.6205909 L33.8130826,11.8376222 C37.0169772,11.0315047 38.9898213,11.6114664 40.107442,13.5187232 L40.2525142,13.7735888 Z" transform="rotate(-45 30.496 25.826)"/>
        <path class="theme-icon-secondary-color" fill="#00A77E" fill-rule="nonzero" d="M29.8088009,17.0519103 C30.5150526,16.8958736 31.2124487,17.3493699 31.3664786,18.0648226 C31.3838909,18.1457007 31.40434,18.2653943 31.4230052,18.4197541 C31.5752714,19.6789873 31.4037733,21.1037789 30.6477686,22.4784239 C30.2096519,23.2750527 29.598633,23.9865281 28.8051903,24.5858957 C28.2257101,25.0236357 27.4056539,24.9026127 26.9735434,24.3155832 C26.5414328,23.7285537 26.6608995,22.8978138 27.2403796,22.4600738 C27.7353869,22.0861448 28.1013244,21.6600441 28.3610306,21.1878196 C28.8092515,20.3728186 28.9153423,19.4914248 28.8247432,18.742175 L28.8089149,18.6298812 C28.654885,17.9144286 29.1025491,17.2079469 29.8088009,17.0519103 Z" transform="rotate(-45 29.094 20.935)"/>
        <polygon class="theme-icon-fill-color" fill="#FFF" points="6.823 29.865 17.361 29.797 17.218 51.95 6.679 52.014" transform="rotate(-45 12.02 40.905)"/>
      </g>
      <circle class="theme-icon-secondary-color" cx="18.243" cy="45.21" r="1.937" fill="#00A77E" transform="rotate(-45 18.243 45.21)"/>
      <path class="theme-icon-primary-color" fill="#0099BF" fill-rule="nonzero" d="M8.84247148,28.384617 L1.43854608,35.7885424 C0.927411698,36.2996768 0.932809871,37.1337875 1.45060324,37.6515809 L17.2131466,53.4141243 C17.7307792,53.9317569 18.5645756,53.9373361 19.0757785,53.4265879 L26.4829985,46.0259571 C26.994519,45.5148914 26.9893021,44.6804663 26.4713479,44.1625121 L10.70551,28.3966742 C10.1877166,27.8788808 9.35360586,27.8734826 8.84247148,28.384617 Z M9.79178767,31.1850541 L23.6818713,45.0751377 L18.1270521,50.6262066 L4.23884362,36.7379981 L9.79178767,31.1850541 Z"/>
    </g>
  </g>
</svg>
