<svg width="80" height="80" viewBox="0 0 80 80" fill="none" xmlns="http://www.w3.org/2000/svg">
<g clip-path="url(#clip0)">
<path d="M68.6794 11.677C69.8914 11.677 70.8738 12.6594 70.8738 13.8829C70.8738 37.2066 70.8738 49.3835 70.8738 50.4134C70.8738 51.9582 70.7915 54.1991 68.3922 54.1526C66.7926 54.1216 46.1657 54.2773 6.51129 54.6196C5.29936 54.6196 4.31689 53.6371 4.31689 52.4252V13.8714C4.31689 12.6594 5.29936 11.677 6.51129 11.677H68.6794Z" fill="white"/>
<path class="theme-icon-primary-color" d="M68.6794 7.36005H6.5113C2.91521 7.36005 0 10.2753 0 13.8714V52.4252C0 56.0213 2.91521 58.9365 6.5113 58.9365H68.6794C73.0203 58.9365 75.1907 57.0896 75.1907 53.3959C75.1907 49.7022 75.1907 36.5286 75.1907 13.8752C75.1907 10.2753 72.2755 7.36005 68.6794 7.36005ZM68.6794 11.677C69.8914 11.677 70.8738 12.6594 70.8738 13.8829C70.8738 37.2066 70.8738 49.3835 70.8738 50.4134C70.8738 51.9582 70.7915 54.1991 68.3922 54.1526C66.7926 54.1216 46.1657 54.2773 6.5113 54.6196C5.29937 54.6196 4.3169 53.6371 4.3169 52.4252V13.8714C4.3169 12.6594 5.29937 11.677 6.5113 11.677H68.6794Z" fill="#0099BF"/>
<path class="theme-icon-secondary-color" d="M71 26L70.931 30H4L4.06813 26H71Z" fill="#00A77E"/>
<path class="theme-icon-secondary-color" d="M71 19L70.931 23H4L4.06813 19H71Z" fill="#00A77E"/>
<path class="theme-icon-primary-color" d="M10.3308 36.6815L15.3238 36.6865C16.5159 36.6876 17.4813 37.655 17.4801 38.8471C17.4789 40.0391 16.5116 41.0045 15.3195 41.0034L10.3265 40.9984C9.1344 40.9972 8.16898 40.0299 8.17017 38.8378C8.17135 37.6457 9.13868 36.6803 10.3308 36.6815ZM22.5229 36.6815L27.5159 36.6865C28.708 36.6876 29.6734 37.655 29.6722 38.8471C29.671 40.0391 28.7037 41.0045 27.5116 41.0034L22.5186 40.9984C21.3265 40.9972 20.3611 40.0299 20.3623 38.8378C20.3635 37.6457 21.3308 36.6803 22.5229 36.6815ZM34.715 36.6815L39.7081 36.6865C40.9001 36.6876 41.8656 37.655 41.8644 38.8471C41.8632 40.0391 40.8959 41.0045 39.7038 41.0034L34.7108 40.9984C33.5187 40.9972 32.5533 40.0299 32.5544 38.8378C32.5556 37.6457 33.523 36.6803 34.715 36.6815ZM8.17058 47.4809C8.17199 46.2885 9.13924 45.3228 10.3316 45.3233L27.5159 45.3307C28.7071 45.3312 29.6723 46.2973 29.6718 47.4885C29.6718 47.489 29.6718 47.4896 29.6718 47.4901C29.6704 48.6824 28.7032 49.6481 27.5108 49.6476L10.3265 49.6402C9.13529 49.6397 8.17006 48.6737 8.17058 47.4825C8.17058 47.4819 8.17058 47.4814 8.17058 47.4809Z" fill="#0099BF"/>
<path fill-rule="evenodd" clip-rule="evenodd" d="M75.3356 52.6396C75.3356 61.0958 68.4559 67.9746 60.0005 67.9746C51.5451 67.9746 44.6654 61.0958 44.6654 52.6396C44.6654 44.1842 51.5451 37.3054 60.0005 37.3054C68.4559 37.3054 75.3356 44.1842 75.3356 52.6396Z" fill="white"/>
<path class="theme-icon-primary-color" fill-rule="evenodd" clip-rule="evenodd" d="M40 52.6395C40 63.6864 48.9554 72.64 60.0005 72.64C71.0455 72.64 80.0009 63.6864 80.0009 52.6395C80.0009 41.5945 71.0455 32.64 60.0005 32.64C48.9554 32.64 40 41.5945 40 52.6395ZM75.3358 52.6396C75.3358 61.096 68.456 67.9749 60.0005 67.9749C51.5449 67.9749 44.6651 61.096 44.6651 52.6396C44.6651 44.184 51.5449 37.3051 60.0005 37.3051C68.456 37.3051 75.3358 44.184 75.3358 52.6396Z" fill="#0099BF"/>
<path class="theme-icon-secondary-color" fill-rule="evenodd" clip-rule="evenodd" d="M58.1932 42.7503V50.8319H50.1116C49.1166 50.8319 48.3024 51.6451 48.3024 52.6401C48.3024 53.6341 49.1166 54.4483 50.1116 54.4483H58.1932V62.5299C58.1932 63.5239 59.0065 64.3372 60.0005 64.3372C60.9945 64.3372 61.8078 63.5239 61.8078 62.5299V54.4483H69.8894C70.8843 54.4483 71.6985 53.6341 71.6985 52.6401C71.6985 51.6451 70.8843 50.8319 69.8894 50.8319H61.8078V42.7503C61.8078 41.7562 60.9945 40.943 60.0005 40.943C59.0065 40.943 58.1932 41.7562 58.1932 42.7503Z" fill="#00A77E"/>
</g>
<defs>
<clipPath id="clip0">
<rect width="80" height="80" fill="white"/>
</clipPath>
</defs>
</svg>
