<svg xmlns="http://www.w3.org/2000/svg" width="80" height="80" viewBox="0 0 80 80">
  <g fill="none" fill-rule="evenodd">
    <rect width="80" height="80"/>
    <path fill="#007A98" d="M12.5277972,21.8714155 L12.5277972,26.7748207 L6.06693123,26.7748207 C5.42578108,26.7748207 4.90455829,27.3098812 4.90455829,27.9694818 L4.90455829,27.9694818 L4.90455829,61.5314053 C4.90455829,62.1898527 5.42578108,62.7260664 6.06693123,62.7260664 L6.06693123,62.7260664 L64.2750817,62.7260664 C64.917385,62.7260664 65.4386078,62.1898527 65.4386078,61.5314053 L65.4386078,61.5314053 L65.4386078,58.0422011 L70.3431661,58.0422011 L70.3431661,62.5314053 C70.3431661,65.3416264 68.0691588,67.6294715 65.2750817,67.6294715 L65.2750817,67.6294715 L5.06693123,67.6294715 C2.27285422,67.6294715 -1.56319402e-13,65.3416264 -1.56319402e-13,62.5314053 L-1.56319402e-13,62.5314053 L-1.56319402e-13,26.9694818 C-1.56319402e-13,24.1581075 2.27285422,21.8714155 5.06693123,21.8714155 L5.06693123,21.8714155 L12.5277972,21.8714155 Z M68.2666638,43.3501443 C69.3255539,43.3501443 70.1828586,44.2455962 70.1828586,45.3501443 C70.1828586,46.4546925 69.3255539,47.3501443 68.2666638,47.3501443 L68.2666638,47.3501443 L62.1013184,47.3501443 C61.0412957,47.3501443 60.1828586,46.4546925 60.1828586,45.3501443 C60.1828586,44.2455962 61.0412957,43.3501443 62.1013184,43.3501443 L62.1013184,43.3501443 Z M28.2961482,43.3501443 C29.3549184,43.3501443 30.2132583,44.2458607 30.2132583,45.3495535 C30.2132583,46.4544279 29.3549184,47.3501443 28.2961482,47.3501443 L28.2961482,47.3501443 L22.1303685,47.3501443 C21.0727306,47.3501443 20.2132583,46.4544279 20.2132583,45.3495535 C20.2132583,44.2458607 21.0727306,43.3501443 22.1303685,43.3501443 L22.1303685,43.3501443 Z M44.8289935,23.8806728 C51.0571445,23.8806728 56.1229226,28.9810453 56.1229226,35.2495565 C56.1229226,41.5192208 51.0571445,46.6195933 44.8289935,46.6195933 C38.6008425,46.6195933 33.5339113,41.5192208 33.5339113,35.2495565 C33.5339113,28.9810453 38.6008425,23.8806728 44.8289935,23.8806728 Z M44.8284169,28.750133 C41.2432242,28.750133 38.3284169,31.6650168 38.3284169,35.249631 C38.3284169,38.8342452 41.2432242,41.750133 44.8284169,41.750133 C48.4136096,41.750133 51.3284169,38.8342452 51.3284169,35.249631 C51.3284169,31.6650168 48.4136096,28.750133 44.8284169,28.750133 Z M27.556648,23.1501217 C28.6155382,23.1501217 29.4739753,24.0467549 29.4739753,25.1513031 C29.4739753,26.2546699 28.6155382,27.1501217 27.556648,27.1501217 L27.556648,27.1501217 L21.3913026,27.1501217 C20.3324125,27.1501217 19.4739753,26.2546699 19.4739753,25.1513031 C19.4739753,24.0467549 20.3324125,23.1501217 21.3913026,23.1501217 L21.3913026,23.1501217 Z M68.2655313,23.1501217 C69.3244214,23.1501217 70.1828586,24.0467549 70.1828586,25.1513031 C70.1828586,26.2546699 69.3244214,27.1501217 68.2655313,27.1501217 L68.2655313,27.1501217 L62.1001859,27.1501217 C61.0401632,27.1501217 60.1828586,26.2546699 60.1828586,25.1513031 C60.1828586,24.0467549 61.0401632,23.1501217 62.1001859,23.1501217 L62.1001859,23.1501217 Z"/>
    <path fill="#007A98" d="M74.8284169,52.1179544 C74.8284169,52.7414731 74.3272091,53.250133 73.7120401,53.250133 L15.9436874,53.250133 C15.3285184,53.250133 14.8284169,52.7414731 14.8284169,52.1179544 L14.8284169,18.3823117 C14.8284169,17.7576991 15.3285184,17.250133 15.9436874,17.250133 L73.7120401,17.250133 C74.3272091,17.250133 74.8284169,17.7576991 74.8284169,18.3823117 L74.8284169,52.1179544 Z M14.7237651,12.3705285 C11.9296881,12.3705285 9.65683388,14.6583736 9.65683388,17.4685947 L9.65683388,53.0316714 C9.65683388,55.8430456 11.9296881,58.1297376 14.7237651,58.1297376 L74.9319156,58.1297376 C77.7259926,58.1297376 80,55.8430456 80,53.0316714 L80,17.4685947 C80,14.6583736 77.7259926,12.3705285 74.9319156,12.3705285 L14.7237651,12.3705285 Z"/>
  </g>
</svg>
