<svg viewBox="0 0 80 80" version="1.1" xmlns="http://www.w3.org/2000/svg" xmlns:xlink="http://www.w3.org/1999/xlink">
  <defs></defs>
  <g id="_symbols" stroke="none" stroke-width="1" fill="none" fill-rule="evenodd">
    <g id="icon-cashwithdrawal-preview">
      <path d="M58.4775,36.703 L58.4775,24.078 L73.0135,24.078 C74.6705,24.078 76.0135,22.735 76.0135,21.078 L76.0135,3 C76.0135,1.343 74.6705,0 73.0135,0 L2.9995,0 C1.3425,0 -0.0005,1.343 -0.0005,3 L-0.0005,21.078 C-0.0005,22.735 1.3425,24.078 2.9995,24.078 L18.3395,24.078 L18.3395,56.304 C18.3395,57.953 19.6905,59.304 21.3395,59.304 L36.5585,59.304 C37.1645,70.619 46.5025,79.615 57.9685,79.615 C69.8265,79.615 79.4375,70.002 79.4375,58.146 C79.4375,46.461 70.0965,36.975 58.4775,36.703" id="Fill-1" fill="#FFF" class="theme-icon-fill-color"></path>
      <path d="M32.8516,27.2221 C32.8516,24.3791 35.1646,22.0671 38.0066,22.0671 C40.8496,22.0671 43.1626,24.3791 43.1626,27.2221 C43.1626,30.0641 40.8496,32.3771 38.0066,32.3771 C35.1646,32.3771 32.8516,30.0641 32.8516,27.2221 M47.1626,27.2221 C47.1626,22.1661 43.0636,18.0671 38.0066,18.0671 C32.9506,18.0671 28.8516,22.1661 28.8516,27.2221 C28.8516,32.2781 32.9506,36.3771 38.0066,36.3771 C43.0636,36.3771 47.1626,32.2781 47.1626,27.2221" id="Fill-1"  fill="#00A77E" class="theme-icon-secondary-color"></path>
      <path d="M70.9248,55.7899 C70.1788,55.0439 68.9588,55.0439 68.2138,55.7899 L59.9968,64.0069 L59.9968,47.1089 C59.9968,46.0549 59.1338,45.1919 58.0788,45.1919 C57.0258,45.1919 56.1618,46.0549 56.1618,47.1089 L56.1618,63.7529 L48.1988,55.7899 C47.4538,55.0439 46.2348,55.0439 45.4878,55.7899 C44.7428,56.5349 44.7428,57.7559 45.4878,58.5009 L56.5668,69.5789 C56.7098,69.7659 56.8848,69.9249 57.0868,70.0489 C57.4228,70.2769 57.8148,70.3869 58.2068,70.3789 C58.7108,70.3889 59.2198,70.2059 59.6028,69.8229 L70.9248,58.5009 C71.6698,57.7559 71.6698,56.5349 70.9248,55.7899" id="Fill-3" fill="#00A77E" class="theme-icon-secondary-color"></path>
      <path d="M73.0137,-0.0001 L2.9997,-0.0001 C1.3427,-0.0001 -0.0003,1.3429 -0.0003,2.9999 L-0.0003,21.0789 C-0.0003,22.7349 1.3427,24.0789 2.9997,24.0789 L18.3887,24.0789 L18.3887,20.0789 L3.9997,20.0789 L3.9997,3.9999 L72.0137,3.9999 L72.0137,20.0789 L58.3667,20.0789 L58.3667,24.0789 L73.0137,24.0789 C74.6707,24.0789 76.0137,22.7349 76.0137,21.0789 L76.0137,2.9999 C76.0137,1.3429 74.6707,-0.0001 73.0137,-0.0001" id="Fill-5" fill="#00A77E" class="theme-icon-secondary-color"></path>
      <path d="M57.9688,75.6142 C48.3368,75.6142 40.5008,67.7782 40.5008,58.1452 C40.5008,48.5132 48.3368,40.6772 57.9688,40.6772 C67.6018,40.6772 75.4378,48.5132 75.4378,58.1452 C75.4378,67.7782 67.6018,75.6142 57.9688,75.6142 L57.9688,75.6142 Z M33.1788,55.3032 C32.2898,49.7552 27.9008,45.3882 22.3398,44.5352 L22.3398,13.4372 L54.4778,13.4372 L54.4778,36.9862 C45.2088,38.5062 37.9508,45.9442 36.7098,55.3032 L33.1788,55.3032 Z M22.3398,55.3032 L22.3398,48.5952 C25.6848,49.3512 28.3228,51.9712 29.1098,55.3032 L22.3398,55.3032 Z M58.4778,36.7032 L58.4778,13.4372 L64.0758,13.4372 C65.2138,13.4372 66.1448,12.5072 66.1448,11.3692 C66.1448,10.2312 65.2138,9.3012 64.0758,9.3012 L11.9378,9.3012 C10.7998,9.3012 9.8688,10.2312 9.8688,11.3692 C9.8688,12.5072 10.7998,13.4372 11.9378,13.4372 L18.3398,13.4372 L18.3398,56.3032 C18.3398,57.9542 19.6908,59.3032 21.3398,59.3032 L36.5588,59.3032 C37.1638,70.6192 46.5028,79.6142 57.9688,79.6142 C69.8258,79.6142 79.4378,70.0032 79.4378,58.1452 C79.4378,46.4612 70.0968,36.9752 58.4778,36.7032 L58.4778,36.7032 Z" id="Fill-8" fill="#0099BF" class="theme-icon-primary-color"></path>
    </g>
  </g>
</svg>
