<?xml version="1.0" encoding="UTF-8"?>
<svg viewBox="0 0 80 80" version="1.1" xmlns="http://www.w3.org/2000/svg" xmlns:xlink="http://www.w3.org/1999/xlink">
    <g id="Page-1" stroke="none" stroke-width="1" fill="none" fill-rule="evenodd">
        <g id="icon-cashdeposit-preview">
            <path d="M32.6924,52.877 C32.6924,52.878 32.6924,52.879 32.6914,52.881 C32.6924,52.879 32.6924,52.878 32.6924,52.877 M76.4324,5.902 L57.8224,5.902 L57.8224,3 C57.8224,1.35 56.4724,0 54.8234,0 L3.0004,0
        C1.3494,0 0.0004,1.35 0.0004,3 L0.0004,37.166 C0.0004,38.816 1.3494,40.166 3.0004,40.166 L8.7504,40.166 L8.7504,51.916 C8.7504,53.566 10.0994,54.916 11.7504,54.916 L32.2964,54.916 C32.1494,55.932 32.0464,56.962
        32.0464,58.019 C32.0464,69.876 41.6594,79.487 53.5154,79.487 C65.3724,79.487 74.9844,69.876 74.9844,58.019 C74.9844,53.583 73.6374,49.461 71.3334,46.04 L76.4324,46.04 C78.0824,46.04 79.4324,44.69 79.4324,43.04 L79.4324,8.902
        C79.4324,7.252 78.0824,5.902 76.4324,5.902" id="Fill-1" fill="#FFF" class="theme-icon-fill-color"></path>
            <path d="M53.5156,36.5499 C41.6596,36.5499 32.0466,46.1619 32.0466,58.0179 C32.0466,69.8759 41.6596,79.4869 53.5156,79.4869 C65.3716,79.4869 74.9846,69.8759 74.9846,58.0179 C74.9846,46.1619 65.3716,36.5499
        53.5156,36.5499 M53.5156,40.5499 C63.1476,40.5499 70.9846,48.3859 70.9846,58.0179 C70.9846,67.6509 63.1476,75.4869 53.5156,75.4869 C43.8836,75.4869 36.0466,67.6509 36.0466,58.0179 C36.0466,48.3859 43.8836,40.5499
        53.5156,40.5499" id="Fill-1" fill="#0099bf" class="theme-icon-primary-color"></path>
            <path d="M47.3906,31.1334 C44.5476,31.1334 42.2356,28.8204 42.2356,25.9784 C42.2356,23.1354 44.5476,20.8234 47.3906,20.8234 C50.2336,20.8234 52.5456,23.1354 52.5456,25.9784 C52.5456,28.8204 50.2336,31.1334
        47.3906,31.1334 M47.3906,16.8234 C42.3336,16.8234 38.2356,20.9224 38.2356,25.9784 C38.2356,31.0344 42.3336,35.1334 47.3906,35.1334 C52.4476,35.1334 56.5456,31.0344 56.5456,25.9784 C56.5456,20.9224 52.4476,16.8234
        47.3906,16.8234" id="Fill-3" fill="#00a77e" class="theme-icon-secondary-color"></path>
            <path d="M53.5156,45.4625 C52.4486,45.4625 51.5756,46.3355 51.5756,47.4025 L51.5756,56.0775 L42.9006,56.0775 C41.8326,56.0775 40.9586,56.9505 40.9586,58.0185 C40.9586,59.0855 41.8326,59.9595 42.9006,59.9595
        L51.5756,59.9595 L51.5756,68.6345 C51.5756,69.7015 52.4486,70.5745 53.5156,70.5745 C54.5826,70.5745 55.4556,69.7015 55.4556,68.6345 L55.4556,59.9595 L64.1306,59.9595 C65.1986,59.9595 66.0726,59.0855 66.0726,58.0185
        C66.0726,56.9505 65.1986,56.0775 64.1306,56.0775 L55.4556,56.0775 L55.4556,47.4025 C55.4556,46.3355 54.5826,45.4625 53.5156,45.4625"
                  id="Fill-5" fill="#00a77e" class="theme-icon-secondary-color"></path>
            <path d="M33.2754,50.9166 L12.7504,50.9166 L12.7504,18.7496 L15.8844,18.7496 L15.8844,14.7496 L11.7504,14.7496 C10.0994,14.7496 8.7504,16.1006 8.7504,17.7496 L8.7504,36.1666 L4.0004,36.1666 L4.0004,3.9996
        L53.8224,3.9996 L53.8224,6.0606 L57.8224,6.0606 L57.8224,2.9996 C57.8224,1.3506 56.4724,-0.0004 54.8234,-0.0004 L3.0004,-0.0004 C1.3494,-0.0004 0.0004,1.3506 0.0004,2.9996 L0.0004,37.1666 C0.0004,38.8156 1.3494,40.1666
        3.0004,40.1666 L8.7504,40.1666 L8.7504,51.9166 C8.7504,53.5656 10.0994,54.9166 11.7504,54.9166 L32.2964,54.9166 C32.4974,53.5356 32.8254,52.1986 33.2754,50.9166"
                  id="Fill-7" fill="#00a77e" class="theme-icon-secondary-color"></path>
            <path d="M75.4326,16.6344 C72.1126,15.8504 69.5006,13.2294 68.7336,9.9024 L75.4326,9.9024 L75.4326,16.6344 Z M75.4326,42.0394 L68.7246,42.0394 C69.4806,38.6964 72.0996,36.0574 75.4326,35.2704 L75.4326,42.0394
        Z M19.2696,16.6264 L19.2696,9.9024 L25.9356,9.9024 C25.1706,13.2184 22.5746,15.8334 19.2696,16.6264 L19.2696,16.6264 Z M25.9456,42.0394 L19.2696,42.0394 L19.2696,35.2794 C22.5856,36.0754 25.1916,38.7064 25.9456,42.0394
        L25.9456,42.0394 Z M76.4326,5.9024 L18.2696,5.9024 C16.6196,5.9024 15.2696,7.2524 15.2696,8.9024 L15.2696,43.0394 C15.2696,44.6904 16.6196,46.0394 18.2696,46.0394 L36.0616,46.0394 C37.0816,44.5564 38.2926,43.2174
        39.6496,42.0394 L30.0056,42.0394 C29.1546,36.4894 24.8026,32.1064 19.2696,31.2064 L19.2696,20.6984 C24.7906,19.8014 29.1346,15.4354 29.9996,9.9024 L64.6686,9.9024 C65.5366,15.4454 69.8956,19.8174 75.4326,20.7034
        L75.4326,31.2014 C70.4826,31.9944 66.4816,35.5754 65.0686,40.2854 C67.3906,41.8024 69.3996,43.7564 70.9696,46.0394 L76.4326,46.0394 C78.0816,46.0394 79.4326,44.6904 79.4326,43.0394 L79.4326,8.9024 C79.4326,7.2524
        78.0816,5.9024 76.4326,5.9024 L76.4326,5.9024 Z" id="Fill-10" fill="#0099bf" class="theme-icon-primary-color"></path>
        </g>
    </g>
</svg>
