<svg width="80" height="80" viewBox="0 0 80 80" fill="none" xmlns="http://www.w3.org/2000/svg">
<g clip-path="url(#clip0)">
<rect x="13" y="12" width="60" height="26" rx="1.88108" fill="white"/>
<path fill-rule="evenodd" clip-rule="evenodd" d="M11 13.7811C11 11.249 12.3919 10 14.885 10H70.7089C73.027 10 74.2143 11.5263 74.1595 13.5536C74.1499 13.9081 74.2143 38.6648 74.2143 38.6648C74.2143 40.4777 73.1984 41.6071 71.1451 41.6071H13.9366C12.7891 41.6071 11 40.6479 11 38.1503V13.7811ZM14.6604 37.398H70.7126C70.821 37.398 70.9134 37.3943 70.9898 37.388C70.996 37.318 70.9997 37.2335 70.9997 37.1344V14.1152C70.9997 13.7932 70.9947 13.6517 70.9758 13.5125C70.9739 13.499 70.9722 13.4868 70.9707 13.4758C70.9681 13.4574 70.966 13.4426 70.9647 13.431C71.0012 13.4319 71.0064 13.4294 70.9938 13.4172C70.9654 13.3899 70.9599 13.3894 70.9647 13.431C70.9534 13.4308 70.9391 13.4302 70.9214 13.4295C70.8707 13.4274 70.7921 13.4242 70.6762 13.4242H14.6604C14.2252 13.4242 14.0767 13.4204 14.0261 13.4889C13.9985 13.5262 14 13.5851 14 13.6779V36.7245C14 37.1991 14.2018 37.398 14.6604 37.398Z" fill="#0099BF" class="theme-icon-primary-color"/>
<rect x="1.72379" y="30.9707" width="49.5354" height="30.4833" rx="2.62787" fill="white"/>
<path fill-rule="evenodd" clip-rule="evenodd" d="M49.0551 58.139C49.0551 58.6075 48.6694 58.9896 48.196 58.9896H3.74112C3.26772 58.9896 2.88287 58.6075 2.88287 58.139V33.6511C2.88287 33.1818 3.26772 32.8005 3.74112 32.8005H48.196C48.6694 32.8005 49.0551 33.1818 49.0551 33.6511V58.139ZM3.74564 30.0181C1.68017 30.0181 0 31.6612 0 33.6796V58.3566C0 60.3757 1.68017 62.0181 3.74564 62.0181H48.2535C50.319 62.0181 52 60.3757 52 58.3566V33.6796C52 31.6612 50.319 30.0181 48.2535 30.0181H3.74564Z" fill="#0099BF" class="theme-icon-primary-color"/>
<path fill-rule="evenodd" clip-rule="evenodd" d="M26.3093 51.661C23.215 51.661 20.6993 49.1358 20.6993 46.0315C20.6993 42.9272 23.215 40.4028 26.3093 40.4028C29.4036 40.4028 31.9193 42.9272 31.9193 46.0315C31.9193 49.1358 29.4036 51.661 26.3093 51.661M26.3093 37.4585C21.5816 37.4585 17.7354 41.3046 17.7354 46.0315C17.7354 50.7593 21.5816 54.6054 26.3093 54.6054C31.037 54.6054 34.8823 50.7593 34.8823 46.0315C34.8823 41.3046 31.037 37.4585 26.3093 37.4585" fill="#00A77E" class="theme-icon-secondary-color"/>
<path fill-rule="evenodd" clip-rule="evenodd" d="M62.1072 33.1787C52.2162 33.1787 44.1964 41.1978 44.1964 51.089C44.1964 60.9819 52.2162 69.0001 62.1072 69.0001C71.9981 69.0001 80.0179 60.9819 80.0179 51.089C80.0179 41.1978 71.9981 33.1787 62.1072 33.1787" fill="#0099BF" class="theme-icon-primary-color"/>
<path fill-rule="evenodd" clip-rule="evenodd" d="M61.8571 36.3394C69.8521 36.3394 76.3571 42.8437 76.3571 50.8389C76.3571 58.835 69.8521 65.3394 61.8571 65.3394C53.8622 65.3394 47.3571 58.835 47.3571 50.8389C47.3571 42.8437 53.8622 36.3394 61.8571 36.3394" fill="white"/>
<path fill-rule="evenodd" clip-rule="evenodd" d="M57.969 20.3373H66.6174C67.4672 20.3373 68.1617 19.5861 68.1617 18.6686C68.1617 17.7512 67.4672 17 66.6174 17H57.969C57.1192 17 56.4247 17.7512 56.4247 18.6686C56.4247 19.5861 57.1192 20.3373 57.969 20.3373ZM66.4931 24.4204H28.6694C27.7512 24.4204 27 25.1716 27 26.089C27 27.0073 27.7512 27.7577 28.6694 27.7577H66.4931C67.4113 27.7577 68.1617 27.0073 68.1617 26.089C68.1617 25.1716 67.4113 24.4204 66.4931 24.4204ZM39.3488 52.1909H44.0473C44.8543 52.1909 45.5076 52.8307 45.5076 53.6198C45.5076 54.409 44.8543 55.0487 44.0473 55.0487H39.3488C38.541 55.0487 37.8868 54.409 37.8868 53.6198C37.8868 52.8307 38.541 52.1909 39.3488 52.1909ZM13.2604 51.9834H8.49078C7.67263 51.9834 7.00778 52.6474 7.00778 53.4655C7.00778 54.2845 7.67263 54.9485 8.49078 54.9485H13.2604C14.0794 54.9485 14.7434 54.2845 14.7434 53.4655C14.7434 52.6474 14.0794 51.9834 13.2604 51.9834ZM14.6285 38.4551C14.6285 39.2434 13.9743 39.8832 13.1673 39.8832H8.46882C7.66186 39.8832 7.00766 39.2434 7.00766 38.4551C7.00766 37.666 7.66186 37.0254 8.46882 37.0254H13.1673C13.9743 37.0254 14.6285 37.666 14.6285 38.4551ZM39.3485 39.8915H44.047C44.854 39.8915 45.5082 39.2517 45.5082 38.4634C45.5082 37.6743 44.854 37.0337 44.047 37.0337H39.3485C38.5407 37.0337 37.8874 37.6743 37.8874 38.4634C37.8874 39.2517 38.5407 39.8915 39.3485 39.8915ZM60.8163 43.1038C60.8163 42.2805 61.4898 41.6069 62.313 41.6069C63.1362 41.6069 63.8098 42.2805 63.8098 43.1038V49.7973H70.5027C71.3267 49.7973 72.001 50.4709 72.001 51.2949C72.001 52.1182 71.3267 52.7926 70.5027 52.7926H63.8098V59.4861C63.8098 60.3094 63.1362 60.983 62.313 60.983C61.4898 60.983 60.8163 60.3094 60.8163 59.4861V52.7926H54.1233C53.2993 52.7926 52.625 52.1182 52.625 51.2949C52.625 50.4709 53.2993 49.7973 54.1233 49.7973H60.8163V43.1038Z" fill="#00A77E" class="theme-icon-secondary-color"/>
</g>
<defs>
<clipPath id="clip0">
<rect width="80" height="80" fill="white"/>
</clipPath>
</defs>
</svg>
