<svg width="80" height="80" viewBox="0 0 80 80" fill="none" xmlns="http://www.w3.org/2000/svg">
<path fill-rule="evenodd" clip-rule="evenodd" d="M76.626 7H11.537C9.887 7 8.537 8.35 8.537 10V15.237H3C1.35 15.237 0 16.587 0 18.237V45.362C0 47.012 1.35 48.362 3 48.362H32.096C31.888 49.56 31.768 50.787 31.768 52.044C31.768 63.9 41.38 73.513 53.236 73.513C65.094 73.513 74.705 63.9 74.705 52.044C74.705 47.633 73.371 43.535 71.09 40.125H76.626C78.276 40.125 79.626 38.775 79.626 37.125V10C79.626 8.35 78.276 7 76.626 7Z" fill="white"/>
<path fill-rule="evenodd" clip-rule="evenodd" d="M57.5665 20.0226H69.3715C70.5315 20.0226 71.4795 19.0736 71.4795 17.9146C71.4795 16.7556 70.5315 15.8066 69.3715 15.8066H57.5665C56.4065 15.8066 55.4585 16.7556 55.4585 17.9146C55.4585 19.0736 56.4065 20.0226 57.5665 20.0226" fill="#00A77E" class="theme-icon-secondary-color"/>
<path fill-rule="evenodd" clip-rule="evenodd" d="M69.3712 23.8638H21.5882C20.4282 23.8638 19.4792 24.8128 19.4792 25.9718C19.4792 27.1318 20.4282 28.0798 21.5882 28.0798H69.3712C70.5312 28.0798 71.4792 27.1318 71.4792 25.9718C71.4792 24.8128 70.5312 23.8638 69.3712 23.8638" fill="#00A77E" class="theme-icon-secondary-color"/>
<path fill-rule="evenodd" clip-rule="evenodd" d="M4.0001 19.2378H8.7621V15.2378H3.0001C1.3501 15.2378 9.91821e-05 16.5878 9.91821e-05 18.2378V45.3628C9.91821e-05 47.0128 1.3501 48.3628 3.0001 48.3628H32.2301L33.3921 44.3628H4.0001V19.2378Z" fill="#00A77E" class="theme-icon-secondary-color"/>
<path fill-rule="evenodd" clip-rule="evenodd" d="M75.626 36.125H67.605C63.798 32.687 58.77 30.576 53.236 30.576C47.703 30.576 42.675 32.687 38.868 36.125H12.537V11H75.626V36.125ZM52.9995 70.0002C43.0755 70.0002 35 61.9258 35 51.9997C35 42.0747 43.0755 34.0002 52.9995 34.0002C62.9256 34.0002 71 42.0747 71 51.9997C71 61.9258 62.9256 70.0002 52.9995 70.0002V70.0002ZM76.626 7H11.537C9.887 7 8.537 8.35 8.537 10V37.125C8.537 38.775 9.887 40.125 11.537 40.125H35.383C33.102 43.535 31.768 47.634 31.768 52.044C31.768 63.901 41.38 73.513 53.236 73.513C65.094 73.513 74.705 63.901 74.705 52.044C74.705 47.634 73.371 43.535 71.09 40.125H76.626C78.276 40.125 79.626 38.775 79.626 37.125V10C79.626 8.35 78.276 7 76.626 7Z" fill="#0099BF" class="theme-icon-primary-color"/>
<path d="M57.791 64.4782C58.3515 64.4785 58.8123 64.0511 58.8648 63.5043L58.8698 63.4004L58.8725 58.5009C58.8728 57.9054 58.3903 57.4224 57.7947 57.4221C57.2343 57.4219 56.7734 57.8493 56.7209 58.3961L56.716 58.4999L56.7132 63.3994C56.713 63.995 57.1955 64.478 57.791 64.4782Z" fill="#00A77E" class="theme-icon-secondary-color"/>
<path d="M48.791 64.4782C49.3515 64.4785 49.8123 64.0511 49.8648 63.5043L49.8698 63.4004L49.8725 58.5009C49.8728 57.9054 49.3903 57.4224 48.7947 57.4221C48.2343 57.4219 47.7734 57.8493 47.7209 58.3961L47.716 58.4999L47.7132 63.3994C47.713 63.995 48.1955 64.478 48.791 64.4782Z" fill="#00A77E" class="theme-icon-secondary-color"/>
<path d="M53.2534 67.4656C53.8132 67.4658 54.2734 67.039 54.3258 66.4929L54.3308 66.3892L54.3335 58.4973C54.3338 57.9025 53.8519 57.4202 53.2571 57.4199C52.6974 57.4197 52.2372 57.8465 52.1847 58.3926L52.1797 58.4963L52.177 66.3882C52.1768 66.983 52.6587 67.4653 53.2534 67.4656Z" fill="#00A77E" class="theme-icon-secondary-color"/>
<path fill-rule="evenodd" clip-rule="evenodd" d="M41.0739 58.0046C40.3885 58.0046 39.8328 57.4608 39.8328 56.7867L39.8328 43.0191C39.8328 42.3465 40.3856 41.8013 41.0739 41.8013L65.0584 41.8013C65.7438 41.8013 66.2995 42.345 66.2995 43.0191V56.7867C66.2995 57.4593 65.7467 58.0046 65.0584 58.0046L41.0739 58.0046Z" fill="white"/>
<path fill-rule="evenodd" clip-rule="evenodd" d="M66.997 42.9571C66.9384 41.8686 66.0419 41 64.9358 41L41.0642 41L40.9504 41.0031C39.858 41.0622 39 41.968 39 43.0705L39 57.1904L39.003 57.3037C39.0616 58.3923 39.9581 59.2609 41.0642 59.2609L64.9358 59.2609L65.0496 59.2578C66.142 59.1986 67 58.2929 67 57.1904V43.0705L66.997 42.9571ZM45.0461 44.0465L61 43.9999V44.0465C61 45.9999 63 47 64 47V53C63 53 61 53.9999 61 56L45.0461 55.9999V55.8259C45.0461 54 43 53 42 53V47C43.5 47 45.0461 46 45.0461 44.0465Z" fill="#0099BF" class="theme-icon-primary-color"/>
<path d="M53.0001 46C50.793 46 49.0001 47.7888 49.0001 50C49.0001 52.2112 50.793 54 53.0001 54C55.2072 54 57.0001 52.2112 57.0001 50C57.0001 47.7888 55.2072 46 53.0001 46Z" fill="#00A77E" class="theme-icon-secondary-color"/>
</svg>
