<svg viewBox="0 0 80 80" version="1.1" xmlns="http://www.w3.org/2000/svg" xmlns:xlink="http://www.w3.org/1999/xlink">
    <defs></defs>
    <g id="Page-1_5_">
        <g id="icon-checkdeposit-p3_1_">
            <path id="Fill-1_3_" fill="#fff" class="theme-icon-fill-color" d="M76.6,0H11.5c-1.6,0-3,1.3-3,3v5.2H3c-1.6,0-3,1.4-3,3v27.1c0,1.6,1.4,3,3,3h29.1
                        c-0.2,1.2-0.3,2.4-0.3,3.7c0,11.9,9.6,21.5,21.5,21.5c11.9,0,21.5-9.6,21.5-21.5c0-4.4-1.3-8.5-3.6-11.9l0,0h5.5c1.7,0,3-1.3,3-3
                        V3C79.6,1.4,78.3,0,76.6,0"/>
        </g>
    </g>
    <g id="Page-1_4_">
        <g id="icon-checkdeposit-p1_1_">
            <path id="Fill-9_1_" fill="#0099bf" class="theme-icon-primary-color" d="M75.6,29.1h-8c-3.8-3.4-8.8-5.5-14.4-5.5c-5.5,0-10.6,2.1-14.4,5.5H12.5V4h63.1V29.1z M53.2,62.5
                        c-9.6,0-17.5-7.8-17.5-17.5c0-9.6,7.8-17.5,17.5-17.5c9.6,0,17.5,7.8,17.5,17.5C70.7,54.7,62.9,62.5,53.2,62.5L53.2,62.5z M76.6,0
                        H11.5c-1.6,0-3,1.3-3,3v27.1c0,1.6,1.4,3,3,3h23.8c-2.3,3.4-3.6,7.5-3.6,11.9c0,11.9,9.6,21.5,21.5,21.5
                        c11.9,0,21.5-9.6,21.5-21.5c0-4.4-1.3-8.5-3.6-11.9h5.5c1.7,0,3-1.4,3-3V3C79.6,1.3,78.3,0,76.6,0L76.6,0z"/>
        </g>
    </g>
    <g id="Page-1_3_">
        <g id="icon-checkdeposit-p2_1_">
            <path id="Fill-1_2_" fill="#00a77e" class="theme-icon-secondary-color" d="M63.9,43.1h-8.7v-8.7c0-1.1-0.9-1.9-1.9-1.9c-1.1,0-1.9,0.9-1.9,1.9v8.7h-8.7c-1.1,0-1.9,0.9-1.9,1.9
                        c0,1.1,0.9,1.9,1.9,1.9h8.7v8.7c0,1.1,0.9,1.9,1.9,1.9c1.1,0,1.9-0.9,1.9-1.9V47h8.7c1.1,0,1.9-0.9,1.9-1.9
                        C65.8,44,64.9,43.1,63.9,43.1"/>
            <path id="Fill-3_1_" fill="#00a77e" class="theme-icon-secondary-color" d="M57.6,13h11.8c1.2,0,2.1-0.9,2.1-2.1s-0.9-2.1-2.1-2.1H57.6c-1.2,0-2.1,0.9-2.1,2.1S56.4,13,57.6,13"/>
            <path id="Fill-5_1_" fill="#00a77e" class="theme-icon-secondary-color" d="M69.4,16.9H21.6c-1.2,0-2.1,0.9-2.1,2.1c0,1.2,0.9,2.1,2.1,2.1h47.8c1.2,0,2.1-0.9,2.1-2.1
                        C71.5,17.8,70.5,16.9,69.4,16.9"/>
            <path id="Fill-7_1_" fill="#00a77e" class="theme-icon-secondary-color" d="M4,12.2h4.8v-4H3c-1.6,0-3,1.4-3,3v27.1c0,1.7,1.4,3,3,3h29.2l1.2-4H4V12.2z"/>
        </g>
    </g>
</svg>
