<svg width="80" height="80" viewBox="0 0 80 80" fill="none" xmlns="http://www.w3.org/2000/svg">
<rect x="7.0815" y="17.0625" width="66" height="29" fill="white"/>
<path fill-rule="evenodd" clip-rule="evenodd" d="M71.626 44.125H8.537V19H71.626V44.125ZM7.537 15C5.887 15 4.537 16.35 4.537 18V45.125C4.537 46.775 5.887 48.125 7.537 48.125H72.626C74.276 48.125 75.626 46.775 75.626 45.125V18C75.626 16.35 74.276 15 72.626 15H7.537Z" fill="#0099BF" class="theme-icon-primary-color"/>
<path fill-rule="evenodd" clip-rule="evenodd" d="M53.5665 27.216H65.3715C66.5315 27.216 67.4795 26.267 67.4795 25.108C67.4795 23.949 66.5315 23 65.3715 23H53.5665C52.4065 23 51.4585 23.949 51.4585 25.108C51.4585 26.267 52.4065 27.216 53.5665 27.216" fill="#00A77E" class="theme-icon-secondary-color"/>
<path fill-rule="evenodd" clip-rule="evenodd" d="M65.3712 31.0571H17.5882C16.4282 31.0571 15.4792 32.0061 15.4792 33.1651C15.4792 34.3251 16.4282 35.2731 17.5882 35.2731H65.3712C66.5312 35.2731 67.4792 34.3251 67.4792 33.1651C67.4792 32.0061 66.5312 31.0571 65.3712 31.0571" fill="#00A77E" class="theme-icon-secondary-color"/>
<path fill-rule="evenodd" clip-rule="evenodd" d="M50 36C38.403 36 29 45.4022 29 56.9995C29 68.5987 38.403 78 50 78C61.597 78 71 68.5987 71 56.9995C71 45.4022 61.597 36 50 36" fill="#0099BF" class="theme-icon-primary-color"/>
<path fill-rule="evenodd" clip-rule="evenodd" d="M50 39C59.9248 39 68 47.0744 68 56.9995C68 66.9256 59.9248 75 50 75C40.0752 75 32 66.9256 32 56.9995C32 47.0744 40.0752 39 50 39" fill="white"/>
<path d="M54.791 68.4797C55.3515 68.4799 55.8123 68.0525 55.8648 67.5057L55.8698 67.4019L55.8725 62.5024C55.8728 61.9069 55.3902 61.4239 54.7947 61.4236C54.2342 61.4233 53.7734 61.8508 53.7209 62.3975L53.7159 62.5014L53.7132 67.4009C53.7129 67.9964 54.1955 68.4794 54.791 68.4797Z" fill="#00A77E" class="theme-icon-secondary-color"/>
<path d="M45.791 68.4797C46.3515 68.4799 46.8123 68.0525 46.8648 67.5057L46.8698 67.4019L46.8725 62.5024C46.8728 61.9069 46.3902 61.4239 45.7947 61.4236C45.2342 61.4233 44.7734 61.8508 44.7209 62.3975L44.7159 62.5014L44.7132 67.4009C44.7129 67.9964 45.1955 68.4794 45.791 68.4797Z" fill="#00A77E" class="theme-icon-secondary-color"/>
<path d="M50.2534 71.4671C50.8131 71.4673 51.2734 71.0404 51.3258 70.4944L51.3308 70.3907L51.3335 62.4988C51.3337 61.904 50.8518 61.4216 50.2571 61.4214C49.6973 61.4211 49.2371 61.848 49.1847 62.3941L49.1797 62.4978L49.177 70.3897C49.1767 70.9844 49.6586 71.4668 50.2534 71.4671Z" fill="#00A77E" class="theme-icon-secondary-color"/>
<path fill-rule="evenodd" clip-rule="evenodd" d="M63.997 46.9571C63.9384 45.8686 63.0419 45 61.9358 45L38.0642 45L37.9504 45.0031C36.858 45.0622 36 45.968 36 47.0705L36 61.1904L36.003 61.3037C36.0616 62.3923 36.9581 63.2609 38.0642 63.2609L61.9358 63.2609L62.0496 63.2578C63.142 63.1986 64 62.2929 64 61.1904V47.0705L63.997 46.9571ZM42.0461 48.0466L58 48V48.0466C58 50 60 51.0001 61 51.0001V57.0001C60 57.0001 58 58 58 60.0001L42.0461 60V59.826C42.0461 58.0001 40 57.0001 39 57.0001V51.0001C40.5 51.0001 42.0461 50.0001 42.0461 48.0466Z" fill="#0099BF" class="theme-icon-primary-color"/>
<path d="M50.0001 50C47.793 50 46.0001 51.7888 46.0001 54C46.0001 56.2112 47.793 58 50.0001 58C52.2072 58 54.0001 56.2112 54.0001 54C54.0001 51.7888 52.2072 50 50.0001 50Z" fill="#00A77E" class="theme-icon-secondary-color"/>
</svg>
