<svg xmlns="http://www.w3.org/2000/svg" width="80" height="80" viewBox="0 0 80 80">
  <g fill="none" fill-rule="evenodd" transform="translate(0 5.276)">
    <g transform="rotate(-45 63 4.883)">
      <path class="theme-icon-secondary-color" fill="#00A77E" d="M60.0517313,25.1320648 L3.94826866,25.1320648 L3.94826866,4.18027897 L60.0517313,4.18027897 L60.0517313,25.1320648 Z M2.70083979,0 C1.21537791,0 0,1.19236658 0,2.6497035 L0,26.6074394 C0,28.0647763 1.21537791,29.2571429 2.70083979,29.2571429 L61.2991602,29.2571429 C62.7846221,29.2571429 64,28.0647763 64,26.6074394 L64,2.6497035 C64,1.19236658 62.7846221,0 61.2991602,0 L2.70083979,0 Z"/>
      <polygon class="theme-icon-fill-color" fill="#FFF" points="60.795 26.157 3.205 26.157 3.072 3.379 60.663 3.379"/>
      <path class="theme-icon-primary-color" fill="#0099BF" d="M54.0955429,15.080237 C55.1561143,15.080237 56.0228571,15.899529 56.0228571,16.9001185 C56.0228571,17.9015713 55.1561143,18.72 54.0955429,18.72 L54.0955429,18.72 L10.4082286,18.72 C9.34765714,18.72 8.48,17.9015713 8.48,16.9001185 C8.48,15.899529 9.34765714,15.080237 10.4082286,15.080237 L10.4082286,15.080237 Z M54.0958171,7.74857143 C55.1563886,7.74857143 56.0231314,8.56786343 56.0231314,9.56845292 C56.0231314,10.5690424 55.1563886,11.3883344 54.0958171,11.3883344 L54.0958171,11.3883344 L43.3026743,11.3883344 C42.2421029,11.3883344 41.37536,10.5690424 41.37536,9.56845292 C41.37536,8.56786343 42.2421029,7.74857143 43.3026743,7.74857143 L43.3026743,7.74857143 Z"/>
    </g>
    <g transform="translate(0 8.724)">
      <path class="theme-icon-fill-color" fill="#FFF" d="M12.6797958,15.2791193 L34.9232143,10.1663713 C38.8497686,9.19088594 41.5429825,10.0430106 43.002856,12.7227453 C43.8424799,14.0276629 46.4834575,17.6736285 50.9257887,23.6606418 L33.1587136,23.6606418 C34.3350474,26.9889828 37.6164282,30.3942768 43.002856,33.8765238 C46.9424688,36.4234261 49.693314,36.6562519 46.8929177,39.7626668 C45.0259868,41.83361 41.6051836,42.2191811 36.6305082,40.9193799 C31.3982103,38.6930287 27.9863391,36.34541 26.3948945,33.8765238 C20.889993,36.431569 12.6635175,33.8765238 12.7265557,30.6120623 C12.7509751,29.3474924 12.7353885,24.2365114 12.6797958,15.2791193 Z" transform="rotate(-45 31.803 25.724)"/>
      <path class="theme-icon-secondary-color" fill="#00A77E" fill-rule="nonzero" d="M21.8520942,11.8202126 C24.2299293,7.8703755 27.3297337,6.26065151 30.9110775,7.31600317 L30.9110775,7.31600317 L30.8496512,7.29863753 L31.0153762,7.33364191 C32.2341603,7.58311701 34.9389581,8.02786426 39.1061338,8.66339885 L39.1061338,8.66339885 L44.0638925,9.40741834 C45.1611877,9.56993789 45.6050658,10.9130757 44.8206968,11.6974447 L44.8206968,11.6974447 L33.7700729,22.7471529 L33.9645958,22.7942639 C36.6496234,23.4058845 40.2387351,23.2704453 44.7204643,22.3505719 L44.7204643,22.3505719 L45.2040647,22.2490106 C46.0887974,22.0590509 49.3154669,21.1364804 50.0104453,21.0386392 C52.3725928,20.7060887 53.5982692,22.0112294 53.7484752,24.9105253 C53.9248092,28.3141495 51.4691411,31.3937135 46.6438534,34.2198179 L46.6438534,34.2198179 L46.4662137,34.3070486 C41.6116211,36.2635217 37.6813534,37.1144049 34.6317036,36.8138244 L34.6317036,36.8138244 L34.5712956,36.807052 L34.4241312,37.1008768 C31.5516647,42.6090795 24.0415822,46.6678269 20.9172854,43.7235241 L20.9172854,43.7235241 L20.7977161,43.6051698 C20.5853394,43.3844294 20.2062907,43.0004019 19.6610391,42.4535605 L19.6610391,42.4535605 L9.94680032,32.8207389 C9.49701321,32.3764634 9.41575838,31.6795488 9.75129455,31.1437272 L9.75129455,31.1437272 Z M29.9539363,9.85256695 C27.7656527,9.29454079 25.9092219,10.3158694 24.1528593,13.232982 L24.1528593,13.232982 L12.6130845,31.6598804 L20.7421233,39.7162126 L22.743409,41.7331978 C24.2405294,43.2892769 30.7738124,39.4997367 32.4761002,34.8485446 C32.707687,34.2157757 33.3704009,33.850664 34.0290145,33.9929911 C36.5801813,34.5443008 40.4107024,33.8364879 45.4569535,31.8027735 L45.43844,31.809 L45.3633007,31.8393441 L45.5943161,31.7029653 C49.3193273,29.4602111 51.0658213,27.2796978 51.056894,25.2214547 L51.056894,25.2214547 L51.0520913,25.0502188 C50.9862615,23.7795627 50.9978272,23.6418084 50.5891669,23.6853082 L50.5891669,23.6853082 L50.321106,23.723475 C49.6806909,23.8456798 46.7814223,24.6718719 45.7708605,24.8888482 L45.7708605,24.8888482 L45.2711288,24.9938396 C39.1963323,26.2417437 34.473132,26.1636337 31.0794986,24.6877073 C30.9316064,24.6480049 30.7950642,24.5831255 30.6736954,24.4992119 C29.9691445,24.1300208 29.7523647,23.2477127 30.1506506,22.601046 C30.1594575,22.1977653 30.1082525,21.8187274 30.0062292,21.4600154 C29.7463651,20.5463379 29.1891705,19.8343901 28.5836603,19.3610356 L28.4912687,19.2917325 C27.8638284,18.8889735 27.6816883,18.0538319 28.0844473,17.4263917 C28.4872062,16.7989514 29.3223478,16.6168112 29.949788,17.0195702 C30.0207168,17.0650999 30.1218062,17.1363605 30.2465529,17.2338806 C31.157465,17.9459815 31.9746832,18.9427803 32.4504442,20.2492855 L41.016079,11.6827703 L40.1755969,11.5565195 C35.6944015,10.8804643 32.6508036,10.391611 31.0221675,10.0856644 L31.0221675,10.0856644 L30.2432375,9.93025349 Z"/>
      <polygon class="theme-icon-fill-color" fill="#FFF" points="7.35 29.728 18.15 29.728 18.15 52.43 7.35 52.425" transform="rotate(-45 12.75 41.079)"/>
      <path class="theme-icon-primary-color" fill="#0099BF" fill-rule="nonzero" d="M19.15,28.3778867 L8.35,28.3778867 C7.60441559,28.3778867 7,28.9823022 7,29.7278867 L7,52.4247912 C7,53.170144 7.60405424,53.7744636 8.34940702,53.774791 L19.149407,53.779535 C19.8952229,53.7798625 20.5,53.175351 20.5,52.429535 L20.5,29.7278867 C20.5,28.9823022 19.8955844,28.3778867 19.15,28.3778867 Z M17.7998982,31.0775713 L17.7998982,51.0782713 L9.69989824,51.0755713 L9.69989824,31.0775713 L17.7998982,31.0775713 Z" transform="rotate(-45 13.75 41.079)"/>
      <circle class="theme-icon-secondary-color" cx="19.007" cy="44.375" r="1.985" fill="#00A77E" transform="rotate(-45 19.007 44.375)"/>
    </g>
  </g>
</svg>
