<svg xmlns="http://www.w3.org/2000/svg" width="80" height="80" viewBox="0 0 80 80">
  <g fill="none" fill-rule="evenodd">
    <rect width="80" height="80"/>
    <path fill="#007A98" d="M10.665037,27.9995887 L10.665037,33.0157087 L5.01501348,33.0157087 L5.01501348,56.0608721 L65.7861692,56.0608721 L65.7861692,52.8506061 L70.5932676,52.8506061 L70.5932676,56.9695061 C70.5932676,59.6369842 69.0811572,61.0088301 66.0569364,61.0850438 L65.7861692,61.0884061 L65.7861692,61.1245887 L3.65157624,61.1245887 C1.71015487,61.1245887 0.109953018,59.8630887 0.00543002912,58.2885498 L2.27373675e-13,58.1245887 L2.27373675e-13,30.9995887 C2.27373675e-13,29.4045887 1.53548781,28.089922 3.45200408,28.0040498 L3.65157624,27.9995887 L10.665037,27.9995887 Z M68.4849676,36.2155887 C69.6449676,36.2155887 70.5929676,37.1159682 70.5929676,38.2155887 C70.5929676,39.316158 69.6449676,40.2155887 68.4849676,40.2155887 L68.4849676,40.2155887 L20.7019676,40.2155887 C19.5419676,40.2155887 18.5929676,39.316158 18.5929676,38.2155887 C18.5929676,37.1159682 19.5419676,36.2155887 20.7019676,36.2155887 L20.7019676,36.2155887 Z M68.4852676,27.9995887 C69.6452676,27.9995887 70.5932676,28.8999682 70.5932676,29.9995887 C70.5932676,31.0992092 69.6452676,31.9995887 68.4852676,31.9995887 L68.4852676,31.9995887 L56.6802676,31.9995887 C55.5202676,31.9995887 54.5722676,31.0992092 54.5722676,29.9995887 C54.5722676,28.8999682 55.5202676,27.9995887 56.6802676,27.9995887 L56.6802676,27.9995887 Z"/>
    <path fill="#007A98" d="M75.014562,48.5625 L13.9798637,48.5625 L13.9798637,24.5625 L75.014562,24.5625 L75.014562,48.5625 Z M12.0091811,20 C10.3591811,20 9.00918113,21.35 9.00918113,23 L9.00918113,50.125 C9.00918113,51.775 10.3591811,53.125 12.0091811,53.125 L77,53.125 C78.65,53.125 80,51.775 80,50.125 L80,23 C80,21.35 78.65,20 77,20 L12.0091811,20 Z"/>
  </g>
</svg>
