<svg viewBox="0 0 80 80" version="1.1" xmlns="http://www.w3.org/2000/svg" xmlns:xlink="http://www.w3.org/1999/xlink">
  <g id="_symbols" stroke="none" stroke-width="1" fill="none" fill-rule="evenodd">
    <g id="ICON-/-icon-clear" fill="#007A98">
      <path
        d="M63.6915,47.992 C64.2225,48.523 64.4885,49.169 64.4885,49.928 C64.4885,50.687 64.2225,51.333 63.6915,51.864 L59.8195,55.736 C59.2885,56.267 58.6415,56.533 57.8825,56.533 C57.1245,56.533 56.4785,56.267 55.9475,55.736 L47.5765,47.365 L39.2055,55.736 C38.6735,56.267 38.0285,56.533 37.2695,56.533 C36.5095,56.533 35.8645,56.267 35.3335,55.736 L31.4615,51.864 C30.9295,51.333 30.6645,50.687 30.6645,49.928 C30.6645,49.169 30.9295,48.523 31.4615,47.992 L39.8325,39.621 L31.4615,31.25 C30.9295,30.719 30.6645,30.073 30.6645,29.314 C30.6645,28.555 30.9295,27.909 31.4615,27.378 L35.3335,23.506 C35.8645,22.974 36.5095,22.709 37.2695,22.709 C38.0285,22.709 38.6735,22.974 39.2055,23.506 L47.5765,31.877 L55.9475,23.506 C56.4785,22.974 57.1245,22.709 57.8825,22.709 C58.6415,22.709 59.2885,22.974 59.8195,23.506 L63.6915,27.378 C64.2225,27.909 64.4885,28.555 64.4885,29.314 C64.4885,30.073 64.2225,30.719 63.6915,31.25 L55.3205,39.621 L63.6915,47.992 Z M73.9985,8 L26.1565,8 C23.2525,8 20.5265,9.401 18.8365,11.763 L0.8415,36.892 C-0.2805,38.46 -0.2805,40.567 0.8415,42.135 L18.8365,67.265 C20.5265,69.627 23.2525,71.027 26.1565,71.027 L73.9985,71.027 C77.3125,71.027 80.0005,68.34 80.0005,65.024 L80.0005,14.003 C80.0005,10.687 77.3125,8 73.9985,8 L73.9985,8 Z"
        id="Fill-1" class="theme-icon-color">
      </path>
    </g>
  </g>
</svg>
