<svg viewBox="0 0 80 80" version="1.1" xmlns="http://www.w3.org/2000/svg" xmlns:xlink="http://www.w3.org/1999/xlink">
  <g id="_symbols" stroke="none" stroke-width="1" fill="none" fill-rule="evenodd">
    <g id="ICON-/-icon-coins" fill="#007A98" class="theme-icon-color">
      <g id="Group-2" transform="translate(4.000000, 9.000000)">
        <path d="M26.9788,41.0153 C26.8128,40.7253 26.5768,40.4423 26.2688,40.1643 C25.9598,39.8883 25.6838,39.6643 25.4378,39.4953 C25.1928,39.3263 24.8558,39.1363 24.4268,38.9263 C23.9988,38.7163 23.6598,38.5603 23.4098,38.4573 C23.1598,38.3553 22.7968,38.2143 22.3248,38.0363 C21.9048,37.8743 21.5918,37.7523 21.3868,37.6673 C21.1818,37.5823 20.9118,37.4613 20.5768,37.3053 C20.2418,37.1493 19.9918,37.0113 19.8268,36.8903 C19.6618,36.7703 19.4848,36.6223 19.2968,36.4493 C19.1098,36.2743 18.9788,36.0893 18.9028,35.8933 C18.8268,35.6963 18.7888,35.4823 18.7888,35.2493 C18.7888,34.6433 19.0568,34.1473 19.5918,33.7633 C20.1278,33.3793 20.8198,33.1873 21.6678,33.1873 C22.0428,33.1873 22.4248,33.2393 22.8128,33.3413 C23.2018,33.4443 23.5348,33.5603 23.8108,33.6903 C24.0878,33.8193 24.3488,33.9613 24.5938,34.1183 C24.8398,34.2743 25.0138,34.3933 25.1168,34.4733 C25.2188,34.5533 25.2848,34.6073 25.3108,34.6333 C25.4268,34.7233 25.5468,34.7543 25.6718,34.7273 C25.8068,34.7183 25.9098,34.6473 25.9808,34.5133 L27.0658,32.5583 C27.1718,32.3793 27.1508,32.2093 26.9988,32.0493 C26.9448,31.9953 26.8778,31.9333 26.7968,31.8623 C26.7168,31.7893 26.5428,31.6613 26.2758,31.4733 C26.0068,31.2863 25.7238,31.1183 25.4248,30.9713 C25.1248,30.8243 24.7378,30.6743 24.2598,30.5223 C23.7818,30.3703 23.2888,30.2683 22.7798,30.2143 L22.7798,27.8573 C22.7798,27.7323 22.7398,27.6293 22.6598,27.5493 C22.5788,27.4683 22.4758,27.4283 22.3508,27.4283 L20.5428,27.4283 C20.4268,27.4283 20.3268,27.4713 20.2418,27.5553 C20.1568,27.6403 20.1148,27.7413 20.1148,27.8573 L20.1148,30.2683 C18.7128,30.5363 17.5748,31.1333 16.6998,32.0623 C15.8248,32.9913 15.3868,34.0713 15.3868,35.3033 C15.3868,35.6693 15.4248,36.0183 15.4998,36.3483 C15.5768,36.6783 15.6698,36.9753 15.7818,37.2393 C15.8938,37.5023 16.0518,37.7613 16.2568,38.0153 C16.4628,38.2703 16.6568,38.4893 16.8398,38.6713 C17.0228,38.8553 17.2618,39.0443 17.5568,39.2413 C17.8508,39.4373 18.1038,39.5963 18.3128,39.7163 C18.5228,39.8363 18.8018,39.9753 19.1508,40.1313 C19.4988,40.2873 19.7728,40.4063 19.9738,40.4873 C20.1748,40.5673 20.4498,40.6783 20.7968,40.8213 C21.2798,41.0083 21.6368,41.1543 21.8698,41.2563 C22.1008,41.3593 22.3958,41.5023 22.7528,41.6853 C23.1098,41.8683 23.3718,42.0363 23.5368,42.1873 C23.7018,42.3393 23.8508,42.5273 23.9848,42.7493 C24.1198,42.9733 24.1858,43.2093 24.1858,43.4593 C24.1858,44.1643 23.9118,44.7093 23.3628,45.0933 C22.8128,45.4773 22.1768,45.6693 21.4538,45.6693 C21.1238,45.6693 20.7928,45.6333 20.4628,45.5623 C19.3018,45.3303 18.2168,44.7723 17.2078,43.8883 L17.1818,43.8623 C17.1008,43.7633 16.9948,43.7233 16.8598,43.7413 C16.7168,43.7583 16.6148,43.8123 16.5518,43.9023 L15.1718,45.7093 C15.0388,45.8883 15.0468,46.0713 15.1998,46.2583 C15.2448,46.3123 15.3228,46.3933 15.4338,46.4993 C15.5448,46.6073 15.7528,46.7743 16.0568,47.0023 C16.3598,47.2303 16.6908,47.4443 17.0468,47.6453 C17.4048,47.8463 17.8578,48.0443 18.4068,48.2413 C18.9568,48.4373 19.5258,48.5763 20.1148,48.6563 L20.1148,50.9993 C20.1148,51.1163 20.1568,51.2163 20.2418,51.3013 C20.3268,51.3863 20.4268,51.4283 20.5428,51.4283 L22.3508,51.4283 C22.4758,51.4283 22.5788,51.3883 22.6598,51.3083 C22.7398,51.2273 22.7798,51.1243 22.7798,50.9993 L22.7798,48.6563 C24.1998,48.4243 25.3538,47.8153 26.2418,46.8273 C27.1298,45.8413 27.5748,44.6643 27.5748,43.2993 C27.5748,42.8523 27.5158,42.4333 27.4008,42.0393 C27.2848,41.6473 27.1438,41.3053 26.9788,41.0153" id="Fill-4"></path>
        <path d="M37.5999,39.9997 C37.5999,48.9837 30.3169,56.2667 21.3329,56.2667 C12.3499,56.2667 5.0669,48.9837 5.0669,39.9997 C5.0669,31.0167 12.3499,23.7327 21.3329,23.7327 C30.3169,23.7327 37.5999,31.0167 37.5999,39.9997 M42.6659,39.9997 C42.6659,39.0947 42.5919,38.2087 42.4829,37.3337 L70.9999,37.3337 C71.5519,37.3337 71.9999,36.8857 71.9999,36.3337 L71.9999,27.6667 C71.9999,27.1137 71.5519,26.6667 70.9999,26.6667 L37.9719,26.6667 C37.1989,25.7027 36.3379,24.8157 35.4119,23.9997 L70.9999,23.9997 C71.5519,23.9997 71.9999,23.5527 71.9999,22.9997 L71.9999,14.3337 C71.9999,13.7807 71.5519,13.3337 70.9999,13.3337 L30.3329,13.3337 C29.7809,13.3337 29.3329,13.7807 29.3329,14.3337 L29.3329,20.2317 C26.8619,19.2297 24.1639,18.6667 21.3329,18.6667 C9.5509,18.6667 -0.0001,28.2177 -0.0001,39.9997 C-0.0001,51.7817 9.5509,61.3337 21.3329,61.3337 C29.2249,61.3337 36.0989,57.0367 39.7889,50.6667 L70.9999,50.6667 C71.5519,50.6667 71.9999,50.2197 71.9999,49.6667 L71.9999,40.9997 C71.9999,40.4477 71.5519,39.9997 70.9999,39.9997 L42.6659,39.9997" id="Fill-6"></path>
        <path d="M71.0003,-0.0003 L30.3333,-0.0003 C29.7803,-0.0003 29.3333,0.4477 29.3333,0.9997 L29.3333,9.6667 C29.3333,10.2197 29.7803,10.6667 30.3333,10.6667 L71.0003,10.6667 C71.5523,10.6667 72.0003,10.2197 72.0003,9.6667 L72.0003,0.9997 C72.0003,0.4477 71.5523,-0.0003 71.0003,-0.0003" id="Fill-1"></path>
      </g>
    </g>
  </g>
</svg>
