<svg viewBox="0 0 80 80" version="1.1" xmlns="http://www.w3.org/2000/svg" xmlns:xlink="http://www.w3.org/1999/xlink">
  <g id="_symbols" stroke="none" stroke-width="1" fill="none" fill-rule="evenodd">
    <g id="ICON-/-icon-depositslips" fill="#007A98">
      <g id="Group-2" transform="translate(11.000000, 5.000000)">
        <path d="M16,64 L53.3333333,64 L53.3333333,5.33333333 L16,5.33333333 L16,64 Z M16,0 L53.3333333,0 C56.278852,-5.41083001e-16 58.6666667,2.38781467 58.6666667,5.33333333 L58.6666667,64 C58.6666667,66.9455187 56.278852,69.3333333 53.3333333,69.3333333 L10.6666667,69.3333333 L10.6666667,5.33333333 C10.6666667,2.38781467 13.0544813,5.41083001e-16 16,0 Z" id="Rectangle-16" fill-rule="nonzero"></path>
        <path d="M5.33333333,32 L5.33333333,61.3333333 C5.33333333,62.8060927 6.52724067,64 8,64 L10.6666667,64 L10.6666667,32 L5.33333333,32 Z M0,26.6666667 L16,26.6666667 L16,69.3333333 L8,69.3333333 C3.581722,69.3333333 5.41083001e-16,65.7516113 0,61.3333333 L0,26.6666667 Z" id="Rectangle" fill-rule="nonzero"></path>
        <path d="M46.827381,36.8660714 C46.827381,37.7767903 46.531253,38.5610086 45.9389881,39.21875 C45.3467232,39.8764914 44.5773857,40.2827373 43.6309524,40.4375 L43.6309524,42 C43.6309524,42.0833337 43.6041669,42.1517854 43.5505952,42.2053571 C43.4970235,42.2589288 43.4285718,42.2857143 43.3452381,42.2857143 L42.139881,42.2857143 C42.0624996,42.2857143 41.995536,42.2574408 41.9389881,42.2008929 C41.8824402,42.144345 41.8541667,42.0773813 41.8541667,42 L41.8541667,40.4375 C41.4613076,40.3839283 41.0818471,40.2916673 40.7157738,40.1607143 C40.3497006,40.0297612 40.0476202,39.8973221 39.8095238,39.7633929 C39.5714274,39.6294636 39.3511915,39.4866079 39.1488095,39.3348214 C38.9464276,39.183035 38.8080361,39.0714289 38.733631,39 C38.6592258,38.9285711 38.607143,38.8750002 38.577381,38.8392857 C38.47619,38.7142851 38.4702376,38.5922625 38.5595238,38.4732143 L39.4791667,37.2678571 C39.5208335,37.208333 39.5892852,37.1726191 39.6845238,37.1607143 C39.77381,37.1488095 39.8452378,37.1755949 39.8988095,37.2410714 L39.9166667,37.2589286 C40.5892891,37.8482172 41.3124961,38.2202373 42.0863095,38.375 C42.3065487,38.4226193 42.5267846,38.4464286 42.7470238,38.4464286 C43.2291691,38.4464286 43.653272,38.3184537 44.0193452,38.0625 C44.3854185,37.8065463 44.5684524,37.4434547 44.5684524,36.9732143 C44.5684524,36.8065468 44.52381,36.6488103 44.4345238,36.5 C44.3452376,36.3511897 44.2455363,36.226191 44.1354167,36.125 C44.0252971,36.023809 43.8511917,35.912203 43.6130952,35.7901786 C43.3749988,35.6681542 43.1785722,35.572917 43.0238095,35.5044643 C42.8690468,35.4360116 42.630954,35.3392863 42.3095238,35.2142857 C42.0773798,35.1190471 41.8943459,35.0446431 41.7604167,34.9910714 C41.6264874,34.9374997 41.4434535,34.8586315 41.2113095,34.7544643 C40.9791655,34.6502971 40.7931555,34.5580361 40.6532738,34.4776786 C40.5133922,34.397321 40.3452391,34.2916673 40.1488095,34.1607143 C39.95238,34.0297612 39.7931554,33.9032744 39.671131,33.78125 C39.5491065,33.6592256 39.4196435,33.5133937 39.2827381,33.34375 C39.1458326,33.1741063 39.0401789,33.001489 38.9657738,32.8258929 C38.8913687,32.6502967 38.8288693,32.4523821 38.7782738,32.2321429 C38.7276783,32.0119037 38.702381,31.7797631 38.702381,31.5357143 C38.702381,30.7142816 38.9940447,29.9940507 39.577381,29.375 C40.1607172,28.7559493 40.9196382,28.3571437 41.8541667,28.1785714 L41.8541667,26.5714286 C41.8541667,26.4940472 41.8824402,26.4270836 41.9389881,26.3705357 C41.995536,26.3139878 42.0624996,26.2857143 42.139881,26.2857143 L43.3452381,26.2857143 C43.4285718,26.2857143 43.4970235,26.3124997 43.5505952,26.3660714 C43.6041669,26.4196431 43.6309524,26.4880948 43.6309524,26.5714286 L43.6309524,28.1428571 C43.9702398,28.1785716 44.2991056,28.2470233 44.6175595,28.3482143 C44.9360135,28.4494053 45.1949395,28.5491067 45.3943452,28.6473214 C45.593751,28.7455362 45.7827372,28.8571422 45.9613095,28.9821429 C46.1398818,29.1071435 46.2559521,29.1934521 46.3095238,29.2410714 C46.3630955,29.2886907 46.4077379,29.330357 46.4434524,29.3660714 C46.5446434,29.4732148 46.5595242,29.5863089 46.4880952,29.7053571 L45.764881,31.0089286 C45.7172617,31.0982147 45.64881,31.1458333 45.5595238,31.1517857 C45.4761901,31.1696429 45.3958337,31.1488098 45.3184524,31.0892857 C45.3005951,31.0714285 45.2574408,31.0357146 45.1889881,30.9821429 C45.1205354,30.9285712 45.0044651,30.8497029 44.8407738,30.7455357 C44.6770825,30.6413685 44.5029771,30.5461314 44.3184524,30.4598214 C44.1339276,30.3735115 43.9122037,30.2961313 43.6532738,30.2276786 C43.3943439,30.1592258 43.1398822,30.125 42.889881,30.125 C42.3244019,30.125 41.863097,30.2529749 41.5059524,30.5089286 C41.1488077,30.7648822 40.9702381,31.0952361 40.9702381,31.5 C40.9702381,31.6547627 40.9955355,31.7976184 41.046131,31.9285714 C41.0967264,32.0595245 41.1845232,32.1830351 41.3095238,32.2991071 C41.4345244,32.4151792 41.5520828,32.5133925 41.6622024,32.59375 C41.772322,32.6741075 41.938987,32.7663685 42.1622024,32.8705357 C42.3854178,32.9747029 42.5654755,33.0550592 42.702381,33.1116071 C42.8392864,33.168155 43.0476176,33.2499995 43.327381,33.3571429 C43.6428587,33.4761911 43.8839277,33.5699401 44.0505952,33.6383929 C44.2172627,33.7068456 44.443451,33.8110112 44.7291667,33.9508929 C45.0148824,34.0907745 45.2395825,34.2172613 45.4032738,34.3303571 C45.5669651,34.4434529 45.7514871,34.592261 45.9568452,34.7767857 C46.1622034,34.9613104 46.3199399,35.1502967 46.4300595,35.34375 C46.5401791,35.5372033 46.6339282,35.7648796 46.7113095,36.0267857 C46.7886909,36.2886918 46.827381,36.5684509 46.827381,36.8660714 Z" id=""></path>
        <path d="M24,16 L45.6648256,16 C46.4012053,16 46.9981589,15.4030463 46.9981589,14.6666667 C46.9981589,13.930287 46.4012053,13.3333333 45.6648256,13.3333333 L24,13.3333333 C23.2636203,13.3333333 22.6666667,13.930287 22.6666667,14.6666667 C22.6666667,15.4030463 23.2636203,16 24,16 Z" id="Line" fill-rule="nonzero"></path>
        <path d="M24,24 L45.6648256,24 C46.4012053,24 46.9981589,23.4030463 46.9981589,22.6666667 C46.9981589,21.930287 46.4012053,21.3333333 45.6648256,21.3333333 L24,21.3333333 C23.2636203,21.3333333 22.6666667,21.930287 22.6666667,22.6666667 C22.6666667,23.4030463 23.2636203,24 24,24 Z" id="Line" fill-rule="nonzero"></path>
        <path d="M24,32 L32.0662157,32 C32.8025953,32 33.399549,31.4030463 33.399549,30.6666667 C33.399549,29.930287 32.8025953,29.3333333 32.0662157,29.3333333 L24,29.3333333 C23.2636203,29.3333333 22.6666667,29.930287 22.6666667,30.6666667 C22.6666667,31.4030463 23.2636203,32 24,32 Z" id="Line" fill-rule="nonzero"></path>
        <path d="M24,40 L32.0662157,40 C32.8025953,40 33.399549,39.4030463 33.399549,38.6666667 C33.399549,37.930287 32.8025953,37.3333333 32.0662157,37.3333333 L24,37.3333333 C23.2636203,37.3333333 22.6666667,37.930287 22.6666667,38.6666667 C22.6666667,39.4030463 23.2636203,40 24,40 Z" id="Line" fill-rule="nonzero"></path>
        <path d="M30.6666667,49.3333333 L30.6666667,54.6666667 L44,54.6666667 L44,49.3333333 L30.6666667,49.3333333 Z M29.3333333,46.6666667 L45.3333333,46.6666667 C46.069713,46.6666667 46.6666667,47.2636203 46.6666667,48 L46.6666667,56 C46.6666667,56.7363797 46.069713,57.3333333 45.3333333,57.3333333 L29.3333333,57.3333333 C28.5969537,57.3333333 28,56.7363797 28,56 L28,48 C28,47.2636203 28.5969537,46.6666667 29.3333333,46.6666667 Z" id="Rectangle-17" fill-rule="nonzero"></path>
      </g>
    </g>
  </g>
</svg>
