<?xml version="1.0" encoding="UTF-8"?>
<svg viewBox="0 0 80 80" version="1.1" xmlns="http://www.w3.org/2000/svg" xmlns:xlink="http://www.w3.org/1999/xlink">
 <g id="Page-1" stroke="none" stroke-width="1" fill="none" fill-rule="evenodd">
    <g id="icon-mixedmedia-preview">
        <path d="M71.7839,28.5667 L75.605,28.5667 C78.029,28.5667 80,30.5497 80,32.9877 L80,63.8277 C80,66.2647 78.029,68.2487 75.605,68.2487 L23.393,68.2487 C20.97,68.2487 18.999,66.2647 18.999,63.8277 L18.999,59.9647 L4.394,59.9647 C1.971,59.9647 0,57.9807 0,55.5437 L0,24.7047 C0,22.2667 1.971,20.2837 4.394,20.2837 L10.7829,20.2837 L10.7829,16.4211 C10.7829,13.9841 12.7539,12.0001 15.1769,12.0001 L67.3889,12.0001 C69.8119,12.0001 71.7839,13.9841 71.7839,16.4211 L71.7839,28.5667 Z" id="bg-white" fill="#FFF" class="theme-icon-fill-color"></path>
        <path d="M75.6051,28.5667 L71.7491,28.5667 L71.7491,31.9527 L75.6051,31.9527 C76.1621,31.9527 76.6141,32.4177 76.6141,32.9877 L76.6141,63.8277 C76.6141,64.3977 76.1621,64.8627 75.6051,64.8627 L23.3931,64.8627 C22.8371,64.8627 22.3841,64.3977 22.3841,63.8277 L22.3841,59.9647 L56.6061,59.9647 C59.0291,59.9647 61.0011,57.9807 61.0011,55.5437 L61.0011,51.6507 L57.6151,51.6507 L57.6151,55.5437 C57.6151,56.1147 57.1631,56.5797 56.6061,56.5797 L4.3941,56.5797 C3.8381,56.5797 3.3861,56.1147 3.3861,55.5437 L3.3861,24.7047 C3.3861,24.1327 3.8381,23.6687 4.3941,23.6687 L10.8641,23.6687 L10.8641,20.2837 L4.3941,20.2837 C1.9711,20.2837 0.0001,22.2667 0.0001,24.7047 L0.0001,55.5437 C0.0001,57.9807 1.9711,59.9647 4.3941,59.9647 L18.9991,59.9647 L18.9991,63.8277 C18.9991,66.2647 20.9701,68.2487 23.3931,68.2487 L75.6051,68.2487 C78.0291,68.2487 80.0001,66.2647 80.0001,63.8277 L80.0001,32.9877 C80.0001,30.5497 78.0291,28.5667 75.6051,28.5667" id="Fill-13" fill="#00A77E" class="theme-icon-secondary-color"></path>
        <path d="M68.398,47.2611 C68.398,47.8311 67.945,48.2961 67.389,48.2961 L15.177,48.2961 C14.621,48.2961 14.169,47.8311 14.169,47.2611 L14.169,16.4211 C14.169,15.8501 14.621,15.3861 15.177,15.3861 L67.389,15.3861 C67.945,15.3861 68.398,15.8501 68.398,16.4211 L68.398,47.2611 Z M67.389,12.0001 L15.177,12.0001 C12.754,12.0001 10.783,13.9841 10.783,16.4211 L10.783,47.2611 C10.783,49.6991 12.754,51.6821 15.177,51.6821 L67.389,51.6821 C69.812,51.6821 71.784,49.6991 71.784,47.2611 L71.784,16.4211 C71.784,13.9841 69.812,12.0001 67.389,12.0001 Z" id="Fill-1" fill="#0099BF" class="theme-icon-primary-color"></path>
        <path d="M61.7974,38.8187 L56.3534,38.8187 C55.4174,38.8187 54.6594,39.5767 54.6594,40.5117 C54.6594,41.4467 55.4174,42.2047 56.3534,42.2047 L61.7974,42.2047 C62.7324,42.2047 63.4894,41.4467 63.4894,40.5117 C63.4894,39.5767 62.7324,38.8187 61.7974,38.8187" id="Fill-3" fill="#00A77E" class="theme-icon-secondary-color"></path>
        <path d="M27.1368,38.3333 L21.6918,38.3333 C20.7578,38.3333 19.9988,39.0913 19.9988,40.0253 C19.9988,40.9603 20.7578,41.7183 21.6918,41.7183 L27.1368,41.7183 C28.0718,41.7183 28.8298,40.9603 28.8298,40.0253 C28.8298,39.0913 28.0718,38.3333 27.1368,38.3333" id="Fill-5" fill="#00A77E" class="theme-icon-secondary-color"></path>
        <path d="M26.4947,24.6429 C27.4297,24.6429 28.1877,23.8849 28.1877,22.9509 C28.1877,22.0159 27.4297,21.2569 26.4947,21.2569 L21.0507,21.2569 C20.1157,21.2569 19.3577,22.0159 19.3577,22.9509 C19.3577,23.8849 20.1157,24.6429 21.0507,24.6429 L26.4947,24.6429 Z" id="Fill-7" fill="#00A77E" class="theme-icon-secondary-color"></path>
        <path d="M56.3531,24.9017 L61.7971,24.9017 C62.7321,24.9017 63.4901,24.1437 63.4901,23.2097 C63.4901,22.2747 62.7321,21.5157 61.7971,21.5157 L56.3531,21.5157 C55.4171,21.5157 54.6601,22.2747 54.6601,23.2097 C54.6601,24.1437 55.4171,24.9017 56.3531,24.9017" id="Fill-9" fill="#00A77E" class="theme-icon-secondary-color"></path>
        <path d="M42.3018,37.5238 C38.7668,37.5238 35.8928,34.6198 35.8928,31.0498 C35.8928,27.4798 38.7668,24.5768 42.3018,24.5768 C45.8368,24.5768 48.7108,27.4798 48.7108,31.0498 C48.7108,34.6198 45.8368,37.5238 42.3018,37.5238 M42.3018,21.1908 C36.9008,21.1908 32.5068,25.6138 32.5068,31.0498 C32.5068,36.4868 36.9008,40.9098 42.3018,40.9098 C47.7028,40.9098 52.0958,36.4868 52.0958,31.0498 C52.0958,25.6138 47.7028,21.1908 42.3018,21.1908" id="Fill-11" fill="#00A77E" class="theme-icon-secondary-color"></path>
    </g>
	  </g>
</svg>
