<svg xmlns="http://www.w3.org/2000/svg" viewBox="0 0 80 80">
  <defs>
  </defs>
  <title>electronic-payment</title>
  <g id="_symbols" stroke="none" stroke-width="1" fill="none" fill-rule="evenodd">
    <g id="icon-electronic-payment-preview" fill-rule="nonzero">
      <path class="theme-icon-fill-color" d="M12.39,56.41H69.3a9,9,0,0,1,9,9v6.67a0,0,0,0,1,0,0H1.78a0,0,0,0,1,0,0V67A10.61,10.61,0,0,1,12.39,56.41Z"  fill="#fff" />
      <path class="theme-icon-fill-color" d="M24.34,19.84H59.68a12.8,12.8,0,0,1,12.8,12.8V56.51a0,0,0,0,1,0,0H14.42a0,0,0,0,1,0,0V29.76A9.93,9.93,0,0,1,24.34,19.84Z"  fill="#fff" />
      <path class="theme-icon-secondary-color" d="M74.47,54.71h-.28V25.28A7.16,7.16,0,0,0,67,18.13H18.64a5.94,5.94,0,0,0-5.93,5.93V54.71H6.29A6.22,6.22,0,0,0,.08,60.92V72.08a1.7,1.7,0,0,0,1.7,1.7H78.3a1.7,1.7,0,0,0,1.7-1.7V60.24A5.54,5.54,0,0,0,74.47,54.71ZM16.12,24.06a2.52,2.52,0,0,1,2.52-2.52H67a3.75,3.75,0,0,1,3.74,3.74V54.71H16.12ZM76.6,70.37H3.48V60.92a2.81,2.81,0,0,1,2.81-2.81H74.47a2.14,2.14,0,0,1,2.13,2.13Z" fill="#00a77e"/>
      <path class="theme-icon-primary-color" d="M18.76,63.18H4.59a1.7,1.7,0,1,0,0,3.4H18.76a1.7,1.7,0,1,0,0-3.4Z" fill="#0099bf"/>
      <path class="theme-icon-primary-color" d="M24.58,63.08a1.73,1.73,0,1,0,1.73,1.73A1.72,1.72,0,0,0,24.58,63.08Z" fill="#0099bf"/>
      <rect class="theme-icon-primary-color" x="16.12" y="46.96" width="54.66" height="3.4" fill="#0099bf"/>
      <rect class="theme-icon-fill-color" x="1.7" y="8.31" width="12.71" height="32.84" rx="6.36"  fill="#fff" />
      <path class="theme-icon-primary-color" d="M11.48,42.85H4.64A4.64,4.64,0,0,1,0,38.21v-27A4.64,4.64,0,0,1,4.64,6.61h6.84a4.64,4.64,0,0,1,4.64,4.64v27A4.64,4.64,0,0,1,11.48,42.85ZM4.64,10A1.25,1.25,0,0,0,3.4,11.25v27a1.25,1.25,0,0,0,1.24,1.24h6.84a1.24,1.24,0,0,0,1.23-1.24v-27A1.24,1.24,0,0,0,11.48,10Z" fill="#0099bf"/>
      <path class="theme-icon-fill-color" d="M14.42,37.5,27,40.1a7,7,0,0,0,6.52-2l7.1-6.88a5.8,5.8,0,0,0-.07-7.73c-1.84-2.29-4.83-.9-6.62.54a45.62,45.62,0,0,1-4,2.89l10.62-7.37a.79.79,0,0,1,.44-.14l14.7.06-9.5-9.26a6.38,6.38,0,0,0-5.27-1.89L14.42,11.66V37"  fill="#fff" />
      <path class="theme-icon-secondary-color" d="M28.54,42a8.42,8.42,0,0,1-1.93-.24L14.07,39.17a1.7,1.7,0,0,1-1.34-1.91,2,2,0,0,1,0-.25V11.66A1.7,1.7,0,0,1,14.2,10L40.69,6.6A8.13,8.13,0,0,1,47.37,9l9.5,9.26a1.71,1.71,0,0,1-1.19,2.92h0l-14.4-.05-.45.31a5.11,5.11,0,0,1,1,1,7.46,7.46,0,0,1,0,10l-.05,0-7.07,6.86A9,9,0,0,1,28.54,42ZM16.12,36.12l11.21,2.31.08,0a5.23,5.23,0,0,0,4.84-1.52l.08-.08L39.39,30c.4-.46,2.08-2.67-.18-5.49a1.35,1.35,0,0,0-1-.56,3.27,3.27,0,0,0-1.61.35l-3.08,2.13c-1.51,1.13-2.66,1.85-2.72,1.89A1.7,1.7,0,0,1,29,25.49l2.6-1.8c.42-.31.85-.65,1.3-1a11.41,11.41,0,0,1,2.06-1.32l4.66-3.23a2.48,2.48,0,0,1,1.4-.45h0l10.49,0L45,11.4A4.65,4.65,0,0,0,41.12,10l-25,3.17ZM41,21.09Z" fill="#00a77e"/>
      <path class="theme-icon-primary-color" d="M52.2,26.93a4,4,0,1,1-4,4,4,4,0,0,1,4-4m0-3.11A7.15,7.15,0,1,0,59.35,31a7.15,7.15,0,0,0-7.15-7.15Z" fill="#0099bf"/>
      <path class="theme-icon-fill-color" d="M61.29,36.57A5.6,5.6,0,1,1,66.88,31,5.6,5.6,0,0,1,61.29,36.57Z"  fill="#fff" />
      <path class="theme-icon-primary-color" d="M61.29,26.93a4,4,0,1,1-4,4,4,4,0,0,1,4-4m0-3.11A7.15,7.15,0,1,0,68.44,31a7.15,7.15,0,0,0-7.15-7.15Z" fill="#0099bf"/>
    </g>
  </g>
</svg>
