<svg width="60" height="60" viewBox="0 0 60 60" fill="none" xmlns="http://www.w3.org/2000/svg">
<path fill-rule="evenodd" clip-rule="evenodd" d="M47.5999 20.4681L58.8926 26.5615V56.4333H1.09773L0.992676 26.5615L11.6227 21.122V3.92138L47.5999 3.69629V20.4681Z" fill="white"/>
<path fill-rule="evenodd" clip-rule="evenodd" d="M40.4807 7.9126H19.4807C18.2381 7.9126 17.2307 8.91996 17.2307 10.1626V20.6626C17.2307 21.9052 18.2381 22.9126 19.4807 22.9126H40.4807C41.7234 22.9126 42.7307 21.9052 42.7307 20.6626V10.1626C42.7307 8.91996 41.7234 7.9126 40.4807 7.9126ZM18.9807 21.1626V9.6626H40.9807V21.1626H18.9807Z" fill="#0099BF"/>
<path fill-rule="evenodd" clip-rule="evenodd" d="M48.8136 29.2388L54.6971 26.3494L48.8136 21.8633V29.2388ZM48.8136 18.1828C48.8862 18.22 48.9566 18.2631 49.0238 18.3121L59.2708 26.1252C59.7666 26.4861 59.958 27.0666 59.8112 27.5933C59.8582 27.751 59.8833 27.9089 59.8833 28.0633L59.8856 56.2129C59.8856 56.8434 59.3261 57.3545 58.636 57.3545H1.35368C0.665188 57.3545 0.106413 56.8457 0.104119 56.2167L0 27.6776C0.000190705 27.5826 0.0116442 27.4843 0.0337457 27.3847C-0.0175205 26.9187 0.183463 26.439 0.614409 26.1252L10.8614 18.3121C10.9217 18.2682 10.9844 18.2291 11.0491 18.1946V4.25572C11.0491 3.56221 11.6645 3 12.4236 3L47.439 3.27336C48.1982 3.27336 48.8136 3.83557 48.8136 4.52909V18.1828ZM11.0491 21.8805L4.69024 26.729L11.0491 29.6947V21.8805ZM11.4382 33.0735C11.6393 33.2625 11.9049 33.3937 12.2026 33.4377L26.8699 40.4251L14.3426 47.1821C13.6069 47.5783 13.3624 48.431 13.7964 49.0866C14.2305 49.7423 15.1787 49.9526 15.9144 49.5563L33.4331 40.1071L56.66 29.042V54.5759H3.07335L2.98225 29.0452L11.4382 33.0735ZM13.7981 30.9768L29.9427 38.5063L46.0645 30.5888V5.78481L13.7981 5.51145V30.9768Z" fill="#00A77E"/>
<path fill-rule="evenodd" clip-rule="evenodd" d="M17.9807 20.6627L18.6321 22.0139L29.7305 16.2573L40.8073 22.0029L41.4807 20.6626L31.2846 15.4513L41.4807 10.1627L40.8293 8.81152L29.6444 14.6129L18.9807 9.16259L17.9807 10.1626L28.1024 15.4128L17.9807 20.6627ZM19.5061 25.9126C18.805 25.9126 18.2307 26.4649 18.2307 27.1391C18.2307 27.814 18.805 28.3663 19.5061 28.3663H39.9553C40.6564 28.3663 41.2307 27.814 41.2307 27.1391C41.2307 26.4649 40.6564 25.9126 39.9553 25.9126H19.5061ZM22.2307 32.1391C22.2307 31.4649 22.7307 30.9126 24.0625 30.9126H35.3989C36.7307 30.9126 37.2307 31.4649 37.2307 32.1391C37.2307 32.814 36.7307 33.3663 35.3989 33.3663H24.0625C22.7307 33.3663 22.2307 32.814 22.2307 32.1391Z" fill="#0099BF"/>
</svg>
