<svg width="80px" height="80px" viewBox="0 0 80 80" version="1.1" xmlns="http://www.w3.org/2000/svg" xmlns:xlink="http://www.w3.org/1999/xlink">
    <g id="Email-Receipt" stroke="none" stroke-width="1" fill="none" fill-rule="evenodd">
        <g id="Group">
            <path d="M16.1369084,26.3590731 L16.1369084,1.34006679 C16.1369084,1.34006679 31.7579389,1.2309306 63,1.01265823 L63,25.4079543 L77.7095609,34.2711704 L77.7095609,77.7209974 L2.42727529,77.7209974 L2.29043912,34.2711704 L16.1369084,26.3590731 Z" id="Combined-Shape" fill="#FFFFFF"></path>
            <path d="M44.5481094,53.9731219 L21.7271732,67.7183565 C20.7688517,68.2946916 19.5336464,67.9888085 18.9682649,67.0351476 C18.4028835,66.0814867 18.7214243,64.84118 19.6797458,64.264845 L35.9976174,54.4364588 L16.8923318,44.2730332 C16.5044997,44.2091086 16.1583918,44.0180942 15.8963829,43.743219 L4.88198106,37.8838951 L5.00064822,75.0194931 L74.8014475,75.0194931 L74.8014475,37.8792744 L44.5481094,53.9731219 Z M18.9705309,40.6935134 L40,51.6455696 L61,40.1291884 L61,4.05063291 L18.9705309,3.65301478 L18.9705309,40.6935134 Z M15.389679,38.8286212 L15.389679,27.4625159 L7.10672728,34.5148959 L15.389679,38.8286212 Z M15.389679,22.1011372 L15.389679,1.82650739 C15.389679,0.817755214 16.19128,0 17.180105,0 L62.790426,0.397618128 C63.7792509,0.397618128 64.580852,1.21537334 64.580852,2.22412552 L64.580852,22.0839576 C64.6754805,22.1381651 64.7670944,22.2008329 64.8547201,22.2720731 L78.2022638,33.6366149 C78.8479681,34.1615763 79.0973265,35.005858 78.9061507,35.7720011 C78.9673717,36.0014385 79,36.231087 79,36.4556962 L79.002961,77.400603 C79.002961,78.3176504 78.2742328,79.0610642 77.375301,79.0610642 L2.76063922,79.0610642 C1.86382525,79.0610642 1.1359773,78.321019 1.13298828,77.4061372 L0.996987031,35.8946055 C0.997271764,35.7562324 1.01228863,35.6129197 1.04123177,35.4676846 C0.97477401,34.7900722 1.2365878,34.0927855 1.79767919,33.6366149 L15.1452229,22.2720731 C15.2237396,22.2082386 15.3054584,22.1512868 15.389679,22.1011372 Z M64.580852,27.4374735 L64.580852,38.1654524 L72.244612,33.9626532 L64.580852,27.4374735 Z" id="Combined-Shape" fill="#00A77E" fill-rule="nonzero"></path>
            <path d="M25.0941827,10.2230318 L39.3642544,10.2230318 C40.3279933,10.2230318 41.1174102,11.0263522 41.1174102,12.0070649 C41.1174102,12.9886968 40.3279933,13.7920173 39.3642544,13.7920173 L25.0941827,13.7920173 C24.1295405,13.7920173 23.3401236,12.9886968 23.3401236,12.0070649 C23.3401236,11.0263522 24.1295405,10.2230318 25.0941827,10.2230318 Z M25.0941827,20.3334723 L39.3642544,20.3330127 C40.3279933,20.3330127 41.1174102,21.1363332 41.1174102,22.117965 C41.1174102,23.0986778 40.3279933,23.9019982 39.3642544,23.9019982 L25.0941827,23.9024578 C24.1295405,23.9024578 23.3401236,23.0991373 23.3401236,22.1175055 C23.3401236,21.1367927 24.1295405,20.3334723 25.0941827,20.3334723 Z M25.0932794,30.4439128 L53.2030577,30.4439128 C54.1667966,30.4439128 54.9562136,31.2472332 54.9562136,32.227946 C54.9562136,33.2095778 54.1667966,34.0128983 53.2030577,34.0128983 L25.0932794,34.0128983 C24.1295405,34.0128983 23.3401236,33.2095778 23.3401236,32.227946 C23.3401236,31.2472332 24.1295405,30.4439128 25.0932794,30.4439128 Z" id="Combined-Shape" fill="#0099BF"></path>
        </g>
    </g>
</svg>
