<svg width="80" height="80" viewBox="0 0 80 80" fill="none" xmlns="http://www.w3.org/2000/svg">
<g id="ICON / tile-Envelope Deposit">
<g id="Group">
<path id="Combined Shape" fill-rule="evenodd" clip-rule="evenodd" d="M51.5887 20.875L69.0805 31.4146V69.9755H2.26902L2.14758 31.4146L19.6395 21.4195V2.18901L51.5887 1.89844V20.875Z" fill="white"/>
<path id="Oval " fill-rule="evenodd" clip-rule="evenodd" d="M24.4028 26.8376C24.4028 20.6451 29.4229 15.625 35.6155 15.625C41.808 15.625 46.8281 20.6451 46.8281 26.8376C46.8281 33.0302 41.808 38.0502 35.6155 38.0502C29.4229 38.0502 24.4028 33.0302 24.4028 26.8376Z" fill="#0099BF"/>
<path id="Oval _2" fill-rule="evenodd" clip-rule="evenodd" d="M27.3279 26.8379C27.3279 22.2608 31.0384 18.5503 35.6155 18.5503C40.1926 18.5503 43.9031 22.2608 43.9031 26.8379C43.9031 31.415 40.1926 35.1255 35.6155 35.1255C31.0384 35.1255 27.3279 31.415 27.3279 26.8379Z" fill="white"/>
<path id="Fill 3" fill-rule="evenodd" clip-rule="evenodd" d="M37.8203 27.5469C37.7557 27.4167 37.6635 27.2904 37.5435 27.1665C37.4232 27.043 37.3154 26.9431 37.2194 26.8677C37.1237 26.7918 36.9921 26.7068 36.8247 26.6131C36.6578 26.5189 36.5253 26.4498 36.428 26.4036C36.3303 26.3575 36.189 26.2951 36.0045 26.2153C35.8409 26.1433 35.7189 26.0885 35.6388 26.0506C35.5587 26.0126 35.453 25.9583 35.323 25.8892C35.1922 25.819 35.0945 25.7571 35.0303 25.7033C34.9657 25.6495 34.897 25.5837 34.8236 25.5058C34.751 25.428 34.6994 25.3454 34.6697 25.2575C34.6399 25.1701 34.6252 25.074 34.6252 24.9702C34.6252 24.6988 34.7296 24.4774 34.9389 24.3059C35.1477 24.1344 35.4178 24.0489 35.7487 24.0489C35.8946 24.0489 36.0439 24.0715 36.1953 24.1171C36.3467 24.1632 36.4767 24.2151 36.5849 24.2732C36.6926 24.3309 36.7945 24.3948 36.8902 24.4644C36.9862 24.5345 37.0541 24.5874 37.094 24.6229C37.1338 24.659 37.1594 24.683 37.1699 24.695C37.2152 24.7349 37.2621 24.7488 37.3108 24.7368C37.3628 24.7329 37.403 24.7008 37.4307 24.6412L37.8543 23.7674C37.8962 23.6877 37.8874 23.6118 37.8283 23.5397C37.8073 23.5157 37.7809 23.4883 37.7498 23.4556C37.7184 23.4239 37.6504 23.3663 37.546 23.2827C37.4416 23.1986 37.3309 23.1237 37.2143 23.0579C37.0973 22.9926 36.9459 22.9253 36.7597 22.8576C36.5731 22.7899 36.3806 22.7437 36.1823 22.7197V21.6668C36.1823 21.611 36.1668 21.5649 36.1349 21.5289C36.1039 21.4929 36.064 21.4751 36.015 21.4751H35.31C35.2643 21.4751 35.2253 21.4938 35.1922 21.5323C35.1591 21.5702 35.1423 21.6144 35.1423 21.6668V22.7437C34.5959 22.8634 34.1518 23.1309 33.81 23.546C33.4691 23.9605 33.2984 24.4438 33.2984 24.9943C33.2984 25.1576 33.3131 25.3137 33.3424 25.4607C33.3726 25.6086 33.4087 25.7412 33.4523 25.8589C33.4959 25.9766 33.5575 26.0924 33.6376 26.2062C33.7182 26.3196 33.7936 26.4176 33.8649 26.4992C33.9362 26.5809 34.0297 26.6659 34.1446 26.7538C34.2595 26.8413 34.3581 26.9124 34.4394 26.9662C34.5216 27.02 34.6307 27.0819 34.7665 27.1521C34.9024 27.2212 35.0093 27.2745 35.0873 27.3106C35.1662 27.3461 35.2731 27.3961 35.409 27.46C35.5969 27.5436 35.7365 27.6084 35.8271 27.6545C35.9177 27.7002 36.0322 27.764 36.1718 27.8457C36.311 27.9278 36.4134 28.0023 36.4775 28.0705C36.5417 28.1378 36.6004 28.2218 36.6524 28.3217C36.7048 28.4212 36.7308 28.5273 36.7308 28.6388C36.7308 28.9544 36.6234 29.1979 36.4096 29.3689C36.1953 29.5404 35.947 29.6264 35.6648 29.6264C35.5365 29.6264 35.4073 29.6106 35.2782 29.5784C34.8253 29.4751 34.4025 29.2253 33.9983 28.8184C33.9673 28.7747 33.9253 28.757 33.8729 28.7646C33.8171 28.7728 33.7769 28.7968 33.753 28.8367L33.2149 29.6442C33.1625 29.7239 33.1659 29.8061 33.225 29.8897C33.2426 29.9137 33.2728 29.9497 33.3164 29.9977C33.36 30.0453 33.4414 30.1198 33.5596 30.2216C33.6779 30.3234 33.8071 30.419 33.9463 30.5093C34.0855 30.5992 34.2625 30.6875 34.4763 30.7755C34.6906 30.8634 34.9125 30.9248 35.1423 30.9609V32.0085C35.1423 32.0604 35.1591 32.1051 35.1922 32.1431C35.2253 32.1805 35.2643 32.2002 35.31 32.2002H36.015C36.064 32.2002 36.1039 32.182 36.1349 32.1459C36.1668 32.1099 36.1823 32.0643 36.1823 32.0085V30.9609C36.7363 30.8576 37.1862 30.5847 37.5326 30.1442C37.8794 29.7033 38.053 29.1778 38.053 28.5672C38.053 28.3679 38.03 28.18 37.9851 28.0047C37.9394 27.8289 37.8845 27.6766 37.8203 27.5469Z" fill="#00A77E" stroke="#00A77E" stroke-width="0.5"/>
<path id="Combined Shape_2" fill-rule="evenodd" clip-rule="evenodd" d="M52.4741 37.5884L63.7466 31.4066L52.4298 22.4531L52.4741 37.5884ZM52.4157 17.6363L69.3383 31.1748C69.7072 31.4747 69.9303 31.892 69.9972 32.3326C70.1439 32.6709 70.2257 33.0186 70.2257 33.3537L70.2284 69.6915C70.2284 70.5054 69.5816 71.1651 68.7839 71.1651H2.56487C1.76897 71.1651 1.12302 70.5084 1.12036 69.6964L1 32.8558C1.00234 31.5563 2.469 29.766 4.55226 30.6576L18.7519 38.0527V2.61014C18.7519 1.72088 19.3015 1 19.9794 1H50.7012C51.3791 1 52.3724 1.96765 52.3724 2.85691L52.4157 17.6363ZM48.8225 4.54992L48.9247 39.5349L35.614 46.8344L22.3018 39.9015V4.54992H48.8225ZM32.0618 49.3117L17.5803 58.034C16.7298 58.5455 16.4471 59.6463 16.9488 60.4926C17.4506 61.339 18.5468 61.6104 19.3973 61.0989L39.6465 48.9027L66.4997 34.6176V67.5788H4.55289L4.44757 34.6217L32.0618 49.3117Z" fill="#00A77E"/>
<path id="Line Copy 6" d="M3.96185 33.6094L19.4641 21.3446C19.4641 21.3446 19.9078 19.6539 19.9078 18.9146C19.9078 17.863 20.2435 15.898 19.4641 16.5316L1.71449 30.7317C0.935104 31.3654 0.806377 32.5232 1.42697 33.3179C2.04756 34.1125 3.18247 34.243 3.96185 33.6094Z" fill="#00A77E"/>
</g>
<path id="Path" fill-rule="evenodd" clip-rule="evenodd" d="M61.0027 43C51.0624 43 43.0027 51.0591 43.0027 60.9996C43.0027 70.9418 51.0624 79 61.0027 79C70.943 79 79.0027 70.9418 79.0027 60.9996C79.0027 51.0591 70.943 43 61.0027 43" fill="#0099BF"/>
<path id="Path_2" fill-rule="evenodd" clip-rule="evenodd" d="M61.0027 46C69.2733 46 76.0027 52.7287 76.0027 60.9996C76.0027 69.2713 69.2733 76 61.0027 76C52.732 76 46.0027 69.2713 46.0027 60.9996C46.0027 52.7287 52.732 46 61.0027 46" fill="white"/>
<path id="Fill 5" fill-rule="evenodd" clip-rule="evenodd" d="M61.0027 50C60.068 50 59.3032 50.7648 59.3032 51.6996V59.2995H51.7039C50.7683 59.2995 50.0027 60.0644 50.0027 61C50.0027 61.9348 50.7683 62.7005 51.7039 62.7005H59.3032V70.3004C59.3032 71.2352 60.068 72 61.0027 72C61.9374 72 62.7021 71.2352 62.7021 70.3004V62.7005H70.3015C71.2371 62.7005 72.0027 61.9348 72.0027 61C72.0027 60.0644 71.2371 59.2995 70.3015 59.2995H62.7021V51.6996C62.7021 50.7648 61.9374 50 61.0027 50" fill="#00A77E"/>
</g>
</svg>
