<svg viewBox="0 0 80 80" version="1.1" xmlns="http://www.w3.org/2000/svg" xmlns:xlink="http://www.w3.org/1999/xlink">
  <g id="_symbols" stroke="none" stroke-width="1" fill="none" fill-rule="evenodd">
    <g id="ICON-/-icon-envelopes" fill="#007A98">
      <path d="M69.3809524,61.2857143 L69.3809524,31.5714286 C68.5555514,32.5000046 67.6656794,33.3511866 66.7113095,34.125 C59.7985765,39.4385186 54.3045839,43.797602 50.2291667,47.202381 C48.9136839,48.3115135 47.8432581,49.1755921 47.0178571,49.7946429 C46.1924562,50.4136936 45.0768919,51.0391833 43.671131,51.671131 C42.26537,52.3030786 40.9434586,52.6190476 39.7053571,52.6190476 L39.6279762,52.6190476 C38.3898748,52.6190476 37.0679634,52.3030786 35.6622024,51.671131 C34.2564414,51.0391833 33.1408771,50.4136936 32.3154762,49.7946429 C31.4900752,49.1755921 30.4196494,48.3115135 29.1041667,47.202381 C25.0287495,43.797602 19.5347568,39.4385186 12.6220238,34.125 C11.667654,33.3511866 10.7777819,32.5000046 9.95238095,31.5714286 L9.95238095,61.2857143 C9.95238095,61.6210334 10.0748996,61.9112091 10.3199405,62.15625 C10.5649814,62.4012909 10.8551571,62.5238095 11.1904762,62.5238095 L68.1428571,62.5238095 C68.4781763,62.5238095 68.7683519,62.4012909 69.0133929,62.15625 C69.2584338,61.9112091 69.3809524,61.6210334 69.3809524,61.2857143 Z M69.3809524,20.6220238 L69.3809524,19.6741071 C69.3809524,19.5580351 69.374504,19.3903781 69.3616071,19.171131 C69.3487103,18.9518838 69.3100202,18.7906751 69.2455357,18.6875 C69.1810513,18.5843249 69.1101194,18.4682546 69.0327381,18.3392857 C68.9553568,18.2103168 68.8392865,18.1135916 68.6845238,18.0491071 C68.5297611,17.9846227 68.3492074,17.952381 68.1428571,17.952381 L11.1904762,17.952381 C10.8551571,17.952381 10.5649814,18.0748996 10.3199405,18.3199405 C10.0748996,18.5649814 9.95238095,18.8551571 9.95238095,19.1904762 C9.95238095,23.5238312 11.8481953,27.186493 15.639881,30.1785714 C20.6180804,34.099226 25.7896557,38.1874787 31.1547619,42.4434524 C31.3095246,42.5724213 31.760909,42.9528738 32.5089286,43.5848214 C33.2569482,44.216769 33.8501962,44.7003951 34.2886905,45.0357143 C34.7271847,45.3710334 35.3010877,45.7772794 36.0104167,46.2544643 C36.7197456,46.7316492 37.3710288,47.0863084 37.9642857,47.3184524 C38.5575426,47.5505964 39.1121006,47.6666667 39.6279762,47.6666667 L39.7053571,47.6666667 C40.2212327,47.6666667 40.7757907,47.5505964 41.3690476,47.3184524 C41.9623046,47.0863084 42.6135877,46.7316492 43.3229167,46.2544643 C44.0322456,45.7772794 44.6061486,45.3710334 45.0446429,45.0357143 C45.4831371,44.7003951 46.0763851,44.216769 46.8244048,43.5848214 C47.5724244,42.9528738 48.0238088,42.5724213 48.1785714,42.4434524 C53.5436776,38.1874787 58.7152529,34.099226 63.6934524,30.1785714 C65.0863165,29.0694389 66.3824345,27.5798705 67.5818452,25.7098214 C68.781256,23.8397724 69.3809524,22.1438568 69.3809524,20.6220238 Z M74.3333333,19.1904762 L74.3333333,61.2857143 C74.3333333,62.9881037 73.7271886,64.4454304 72.514881,65.6577381 C71.3025733,66.8700457 69.8452466,67.4761905 68.1428571,67.4761905 L11.1904762,67.4761905 C9.48808673,67.4761905 8.03076003,66.8700457 6.81845238,65.6577381 C5.60614473,64.4454304 5,62.9881037 5,61.2857143 L5,19.1904762 C5,17.4880867 5.60614473,16.03076 6.81845238,14.8184524 C8.03076003,13.6061447 9.48808673,13 11.1904762,13 L68.1428571,13 C69.8452466,13 71.3025733,13.6061447 72.514881,14.8184524 C73.7271886,16.03076 74.3333333,17.4880867 74.3333333,19.1904762 Z" id="fill-1"></path>
    </g>
  </g>
</svg>
