<svg width="80" height="80" xmlns="http://www.w3.org/2000/svg">

 <g>
  <title>background</title>
  <rect fill="none" id="canvas_background" height="402" width="582" y="-1" x="-1"/>
 </g>
 <g>
  <title>Layer 1</title>
  <g id="Page-1_1_">
   <g id="icon-exit_1_">
    <path d="m72.935484,59.935484c0,1.5 -0.5,2.8 -1.6,3.8l-7.6,7.6c-1,1 -2.3,1.6 -3.8,1.6s-2.8,-0.5 -3.8,-1.6l-16.4,-16.4l-16.4,16.4c-1,1 -2.3,1.6 -3.8,1.6s-2.8,-0.5 -3.8,-1.6l-7.6,-7.6c-1,-1 -1.6,-2.3 -1.6,-3.8s0.5,-2.8 1.6,-3.8l16.5,-16.4l-16.4,-16.4c-1,-1 -1.6,-2.3 -1.6,-3.8c0,-1.5 0.5,-2.8 1.6,-3.8l7.6,-7.6c1,-1 2.3,-1.6 3.8,-1.6s2.8,0.5 3.8,1.6l16.3,16.5l16.5,-16.4c1,-1 2.3,-1.6 3.8,-1.6s2.8,0.5 3.8,1.6l7.6,7.6c1,1 1.6,2.3 1.6,3.8c0,1.5 -0.5,2.8 -1.6,3.8l-16.5,16.3l16.4,16.4c1.1,1.1 1.6,2.4 1.6,3.8z" fill="#fff" id="_xF00D__1_"/>
   </g>
  </g>
 </g>
</svg>