<svg viewBox="0 0 80 80" version="1.1" xmlns="http://www.w3.org/2000/svg" xmlns:xlink="http://www.w3.org/1999/xlink">
    <defs></defs>
    <g id="Page-1" stroke="none" stroke-width="1" fill="none" fill-rule="evenodd">
        <g id="icon-fastcash-preview">
            <path d="M78.9548,35.1975 L70.1198,2.2235 C69.6918,0.6295 68.0388,-0.3245 66.4448,0.1015 L10.2638,15.1555 C8.6698,15.5825 7.7158,17.2365 8.1418,18.8295 L10.0128,25.8065 L5.1058,27.1215 C4.0688,27.3995 3.4478,28.4745 3.7258,29.5115 C4.0038,30.5485 5.0798,31.1695 6.1158,30.8915 L11.0218,29.5765 L12.0888,33.5565 L1.4458,36.3685 C0.4098,36.6465 -0.2112,37.7215 0.0658,38.7585 C0.3448,39.7955 1.4198,40.4165 2.4568,40.1385 L13.0998,37.3275 L14.1588,41.2815 L9.3138,42.5795 C8.2768,42.8575 7.6568,43.9335 7.9338,44.9695 C8.2128,46.0065 9.2878,46.6275 10.3248,46.3495 L15.1688,45.0515 L16.9778,51.8035 C17.4048,53.3975 19.0588,54.3525 20.6518,53.9255 L33.3728,50.5165 L33.3738,50.5165 C32.4648,52.8955 31.9448,55.4665 31.9448,58.1645 C31.9448,70.0215 41.5578,79.6335 53.4138,79.6335 C65.2708,79.6335 74.8828,70.0215 74.8828,58.1645 C74.8828,50.8845 71.2498,44.4615 65.7068,40.5795 C66.1358,40.8775 66.5568,41.1875 66.9608,41.5165 L76.8338,38.8715 C78.4278,38.4445 79.3818,36.7915 78.9548,35.1975" id="Fill-1" fill="#fff" class="theme-icon-fill-color"></path>
            <path d="M44.8806,32.135 C42.1346,32.871 39.3026,31.236 38.5676,28.49 C37.8306,25.744 39.4666,22.912 42.2116,22.176 C44.9576,21.441 47.7896,23.076 48.5256,25.822 C49.2616,28.567 47.6256,31.399 44.8806,32.135 M41.1766,18.312 C36.2926,19.621 33.3946,24.641 34.7026,29.525 C36.0116,34.409 41.0316,37.307 45.9156,35.999 C50.7996,34.69 53.6976,29.67 52.3896,24.786 C51.0806,19.902 46.0606,17.004 41.1766,18.312" id="Fill-1" fill="#00a77e" class="theme-icon-secondary-color"></path>
            <path d="M14.3318,41.2356 L9.3138,42.5796 C8.2768,42.8576 7.6568,43.9326 7.9348,44.9696 C8.2118,46.0066 9.2878,46.6286 10.3248,46.3496 L15.3448,45.0056 L14.3318,41.2356 Z" id="Fill-3" fill="#00a77e" class="theme-icon-secondary-color"></path>
            <path d="M12.2566,33.5125 L1.4456,36.3685 C0.4096,36.6465 -0.2114,37.7215 0.0666,38.7585 C0.3446,39.7955 1.4196,40.4165 2.4566,40.1385 L13.2706,37.2825 L12.2566,33.5125 Z" id="Fill-5" fill="#00a77e" class="theme-icon-secondary-color"></path>
            <path d="M10.1756,25.763 L5.1066,27.121 C4.0696,27.399 3.4476,28.475 3.7266,29.512 C4.0036,30.549 5.0796,31.169 6.1156,30.891 L11.1886,29.533 L10.1756,25.763 Z" id="Fill-7" fill="#00a77e" class="theme-icon-secondary-color"></path>
            <path d="M66.1892,55.8089 C65.4442,55.0639 64.2242,55.0639 63.4782,55.8089 L55.2612,64.0259 L55.2612,47.1279 C55.2612,46.0739 54.3992,45.2109 53.3442,45.2109 C52.2902,45.2109 51.4272,46.0739 51.4272,47.1279 L51.4272,63.7719 L43.4642,55.8089 C42.7182,55.0639 41.4992,55.0639 40.7532,55.8089 C40.0072,56.5539 40.0072,57.7749 40.7532,58.5199 L51.8312,69.5979 C51.9742,69.7849 52.1502,69.9439 52.3512,70.0679 C52.6872,70.2959 53.0802,70.4059 53.4712,70.3979 C53.9762,70.4089 54.4842,70.2249 54.8672,69.8419 L66.1892,58.5199 C66.9352,57.7749 66.9352,56.5539 66.1892,55.8089" id="Fill-9" fill="#00a77e" class="theme-icon-secondary-color"></path>
            <path d="M68.3533,37.0027 C68.2173,33.5767 70.0653,30.3507 73.0813,28.7287 L74.8323,35.2667 L68.3533,37.0027 Z M60.0443,5.9587 L66.5143,4.2247 L68.2563,10.7267 C64.8473,10.8287 61.6463,8.9727 60.0443,5.9587 L60.0443,5.9587 Z M14.0053,25.2547 L12.2653,18.7607 L18.7053,17.0347 C18.8243,20.4357 16.9923,23.6337 14.0053,25.2547 L14.0053,25.2547 Z M27.0323,48.0747 L20.5823,49.8027 L18.8323,43.2717 C22.2433,43.1827 25.4413,45.0497 27.0323,48.0747 L27.0323,48.0747 Z M78.9553,35.1977 L70.1203,2.2237 C69.6923,0.6287 68.0393,-0.3253 66.4453,0.1017 L10.2633,15.1557 C8.6693,15.5827 7.7153,17.2357 8.1423,18.8297 L16.9783,51.8037 C17.4053,53.3977 19.0583,54.3527 20.6523,53.9247 L33.3733,50.5167 C34.0353,48.7847 34.9093,47.1627 35.9723,45.6787 L30.9543,47.0237 C28.6943,41.8827 23.3573,38.7757 17.7793,39.3377 L15.0593,29.1897 C20.1613,26.8927 23.2263,21.5507 22.6303,15.9827 L56.1183,7.0097 C58.3913,12.1397 63.7323,15.2337 69.3103,14.6577 L72.0273,24.7977 C66.8973,27.0917 63.8163,32.4617 64.4303,38.0537 L62.2823,38.6297 C63.9673,39.3967 65.5423,40.3607 66.9603,41.5167 L76.8333,38.8717 C78.4273,38.4447 79.3813,36.7917 78.9553,35.1977 L78.9553,35.1977 Z" id="Fill-11" fill="#0099bf" class="theme-icon-primary-color"></path>
            <path d="M53.4138,36.6961 C41.5578,36.6961 31.9448,46.3081 31.9448,58.1641 C31.9448,70.0221 41.5578,79.6331 53.4138,79.6331 C65.2708,79.6331 74.8828,70.0221 74.8828,58.1641 C74.8828,46.3081 65.2708,36.6961 53.4138,36.6961 M53.4138,40.6961 C63.0468,40.6961 70.8828,48.5321 70.8828,58.1641 C70.8828,67.7971 63.0468,75.6331 53.4138,75.6331 C43.7818,75.6331 35.9448,67.7971 35.9448,58.1641 C35.9448,48.5321 43.7818,40.6961 53.4138,40.6961" id="Fill-14" fill="#0099bf" class="theme-icon-primary-color"></path>
        </g>
    </g>
</svg>
