<svg viewBox="0 0 80 80" version="1.1" xmlns="http://www.w3.org/2000/svg" xmlns:xlink="http://www.w3.org/1999/xlink">
  <defs></defs>
  <g id="_symbols" stroke="none" stroke-width="1" fill="none" fill-rule="evenodd">
    <g id="ICON-/-icon-balanceinquiry-preview">
      <path d="M63.6667,37.5077 L63.6667,37.5077 L63.6667,4.9997 C63.6667,2.2497 61.4167,-0.0003 58.6667,-0.0003 L4.9997,-0.0003 C2.2497,-0.0003 -0.0003,2.2497 -0.0003,4.9997 L-0.0003,58.9997 C-0.0003,61.7497
            2.2497,63.9997 4.9997,63.9997 L37.2757,63.9997 C39.8167,73.0227 48.0877,79.6447 57.9227,79.6447 C69.7797,79.6447 79.3917,70.0317 79.3917,58.1757 C79.3917,48.3117 72.7297,40.0217 63.6667,37.5077"
            id="Fill-1" fill="#FFF" class="theme-icon-fill-color"></path>
      <path d="M66.4587,49.2729 C65.8447,49.2729 65.2387,49.5549 64.8477,50.0869 L55.1037,63.2999 L49.7297,58.0929 C49.3417,57.7169 48.8397,57.5299 48.3377,57.5299 C47.8157,57.5299 47.2947,57.7329 46.9017,58.1379
            C46.1337,58.9309 46.1537,60.1979 46.9467,60.9659 L53.9637,67.7649 C54.3377,68.1269 54.8377,68.3289 55.3547,68.3289 C55.4097,68.3289 55.4657,68.3269 55.5207,68.3219 C56.0957,68.2739 56.6227,67.9799 56.9647,67.5149
            L68.0657,52.4609 C68.7227,51.5719 68.5327,50.3199 67.6437,49.6649 C67.2867,49.4009 66.8707,49.2729 66.4587,49.2729"
            id="Fill-1" fill="#00a77e" class="theme-icon-secondary-color"></path>
      <path d="M3.9997,11.4941 L3.9997,5.0001 C3.9997,4.4581 4.4577,4.0001 4.9997,4.0001 L58.6667,4.0001 C59.2087,4.0001 59.6667,4.4581 59.6667,5.0001 L59.6667,11.4941 L3.9997,11.4941 Z M58.6667,0.0001 L4.9997,0.0001
            C2.2497,0.0001 -0.0003,2.2501 -0.0003,5.0001 L-0.0003,59.0001 C-0.0003,61.7501 2.2497,64.0001 4.9997,64.0001 L37.2757,64.0001 C36.9127,62.7101 36.6627,61.3751 36.5467,60.0001 L4.9997,60.0001 C4.4577,60.0001 3.9997,59.5421
            3.9997,59.0001 L3.9997,15.4661 L59.6667,15.4661 L59.6667,36.7951 C61.0417,36.9061 62.3767,37.1501 63.6667,37.5081 L63.6667,5.0001 C63.6667,2.2501 61.4167,0.0001 58.6667,0.0001 L58.6667,0.0001 Z"
            id="Fill-3" fill="#00a77e" class="theme-icon-secondary-color"></path>
      <path d="M19.7614,23.9584 L13.1384,23.9584 C12.0524,23.9584 11.1644,24.8464 11.1644,25.9314 C11.1644,27.0174 12.0524,27.9054 13.1384,27.9054 L19.7614,27.9054 C20.8464,27.9054 21.7344,27.0174 21.7344,25.9314
            C21.7344,24.8464 20.8464,23.9584 19.7614,23.9584" id="Fill-5"
            fill="#0099bf" class="theme-icon-primary-color"></path>
      <path d="M29.5309,27.9052 L51.1549,27.9052 C52.2409,27.9052 53.1289,27.0172 53.1289,25.9312 C53.1289,24.8462 52.2409,23.9582 51.1549,23.9582 L29.5309,23.9582 C28.4449,23.9582 27.5569,24.8462 27.5569,25.9312
            C27.5569,27.0172 28.4449,27.9052 29.5309,27.9052" id="Fill-7"
            fill="#0099bf" class="theme-icon-primary-color"></path>
      <path d="M19.7614,34.3549 L13.1384,34.3549 C12.0524,34.3549 11.1644,35.2429 11.1644,36.3279 C11.1644,37.4139 12.0524,38.3009 13.1384,38.3009 L19.7614,38.3009 C20.8464,38.3009 21.7344,37.4139 21.7344,36.3279
            C21.7344,35.2429 20.8464,34.3549 19.7614,34.3549" id="Fill-9"
            fill="#0099bf" class="theme-icon-primary-color"></path>
      <path d="M57.9225,75.644 C48.2905,75.644 40.4545,67.808 40.4545,58.175 C40.4545,54.448 41.6385,50.997 43.6355,48.157 C43.8015,48.001 43.9365,47.818 44.0415,47.615 C47.2345,43.426 52.2615,40.707 57.9225,40.707
            C67.5555,40.707 75.3915,48.543 75.3915,58.175 C75.3915,67.808 67.5555,75.644 57.9225,75.644 M57.9225,36.707 C56.1685,36.707 54.4725,36.94 52.8405,37.337 C53.0195,37.041 53.1285,36.698 53.1285,36.328 C53.1285,35.243
            52.2405,34.355 51.1545,34.355 L29.5305,34.355 C28.4445,34.355 27.5575,35.243 27.5575,36.328 C27.5575,37.414 28.4445,38.301 29.5305,38.301 L49.8195,38.301 C46.4165,39.69 43.4535,41.925 41.1865,44.748 L36.5935,44.748
            C35.5075,44.748 34.6195,45.635 34.6195,46.721 C34.6195,47.806 35.5075,48.694 36.5935,48.694 L38.6835,48.694 C37.2705,51.556 36.4545,54.767 36.4545,58.175 C36.4545,70.033 46.0665,79.644 57.9225,79.644 C69.7795,79.644
            79.3915,70.033 79.3915,58.175 C79.3915,46.319 69.7795,36.707 57.9225,36.707"
            id="Fill-11" fill="#0099bf" class="theme-icon-primary-color"></path>
    </g>
  </g>
</svg>
