<?xml version="1.0" encoding="utf-8"?>
<!-- Generator: SketchAPI 5.1.316 <https://api.sketch.io/> -->
<svg version="1.1" xmlns="http://www.w3.org/2000/svg" xmlns:xlink="http://www.w3.org/1999/xlink" style="" viewBox="0 0 80 80">
<g style="mix-blend-mode: source-over;" transform="matrix(1,0,0,1,1.351305709310397,11.486098529138374)">
	<g id="Page1" style="">
		<g id="svg-hide" style="">
			<path id="1" d="M24,45.2l3.4-6.1c-2.5-1.8-4.5-4.1-5.9-6.9c-1.4-2.8-2.1-5.7-2.1-8.8c0-3.5,0.9-6.7,2.6-9.7               C15.4,17.1,9.9,22.2,5.5,29C10.3,36.4,16.5,41.8,24,45.2z M40.7,12.4c0-0.6-0.2-1.1-0.6-1.5c-0.4-0.4-0.9-0.6-1.5-0.6               c-3.6,0-6.7,1.3-9.3,3.9s-3.9,5.7-3.9,9.3c0,0.6,0.2,1.1,0.6,1.5c0.4,0.4,0.9,0.6,1.5,0.6s1.1-0.2,1.5-0.6               c0.4-0.4,0.6-0.9,0.6-1.5c0-2.5,0.9-4.6,2.6-6.3c1.8-1.8,3.9-2.6,6.3-2.6c0.6,0,1.1-0.2,1.5-0.6C40.5,13.5,40.7,13,40.7,12.4z                M56.4,4.2c0,0.2,0,0.3,0,0.4c-3,5.4-7.6,13.6-13.6,24.5s-10.6,19-13.6,24.4L27,57.3c-0.3,0.5-0.7,0.7-1.2,0.7c-0.3,0-2.3-1-5.8-3               c-0.5-0.3-0.7-0.7-0.7-1.2c0-0.3,0.6-1.6,1.9-3.8c-4.1-1.9-7.9-4.4-11.4-7.5s-6.5-6.6-9-10.6C0.3,31.1,0,30.1,0,29s0.3-2.1,0.9-3               c4.4-6.8,9.9-12.1,16.4-16s13.7-5.9,21.4-5.9c2.6,0,5.1,0.2,7.8,0.7l2.3-4.2C49.1,0.2,49.5,0,50,0c0.1,0,0.4,0.1,0.8,0.3               s0.8,0.4,1.3,0.7c0.5,0.3,1,0.5,1.4,0.8s0.9,0.5,1.4,0.8C55.3,2.8,55.6,3,55.7,3C56.2,3.3,56.4,3.7,56.4,4.2z M58,23.5               c0,4-1.1,7.6-3.4,10.9c-2.3,3.3-5.3,5.7-9,7.1l12.1-21.7C57.9,21.1,58,22.4,58,23.5z M77.3,29c0,1-0.3,2-0.9,3               c-1.1,1.8-2.7,3.9-4.7,6.3c-4.3,4.9-9.3,8.8-15,11.5c-5.7,2.7-11.7,4.1-18.1,4.1l3.2-5.7c6.1-0.5,11.7-2.5,16.9-5.9               c5.2-3.4,9.5-7.8,13-13.2c-3.3-5.1-7.4-9.4-12.2-12.7l2.7-4.8c2.7,1.8,5.4,4,7.9,6.6s4.6,5.2,6.2,7.9C77,27,77.3,28,77.3,29z" fill="#FFF" class="theme-icon-color"/>
		</g>
	</g>
</g>
</svg>
