<?xml version="1.0" encoding="UTF-8"?>
<svg width="80px" height="80px" viewBox="0 0 80 80" version="1.1" xmlns="http://www.w3.org/2000/svg" xmlns:xlink="http://www.w3.org/1999/xlink">
    <!-- Generator: Sketch 53.2 (72643) - https://sketchapp.com -->
    <title>ICON / icon-change-language-preview</title>
    <desc>Created with Sketch.</desc>
    <g id="ICON-/-icon-change-language-preview" stroke="none" stroke-width="1" fill="none" fill-rule="evenodd">
        <circle id="Oval" fill="#FFFFFF" cx="40" cy="40" r="39"></circle>
        <polygon id="Line-5" fill="#00A77E" fill-rule="nonzero" points="38 1.5 42 1.5 42 78.5174701 38 78.5174701"></polygon>
        <polygon id="Line-5" fill="#00A77E" fill-rule="nonzero" transform="translate(39.941424, 41.047338) rotate(-270.000000) translate(-39.941424, -41.047338) " points="37.941424 2.53860286 41.941424 2.53860286 41.941424 79.556073 37.941424 79.556073"></polygon>
        <path d="M35.9872755,-5.65651265 C35.5563128,-6.67354017 36.0314122,-7.84736813 37.0484397,-8.27833079 C38.0654672,-8.70929346 39.2392952,-8.23419403 39.6702579,-7.21716651 C43.4404368,1.68006766 45.3170667,12.1437458 45.3170667,24.1647229 C45.3170667,36.1986245 43.4364426,46.3963461 39.6504364,54.7506814 C39.1945023,55.7567618 38.0093053,56.2027435 37.0032249,55.7468093 C35.9971444,55.2908752 35.5511628,54.1056782 36.0070969,53.0995978 C39.538824,45.3063636 41.3170667,35.6638074 41.3170667,24.1647229 C41.3170667,12.6527139 39.5348298,2.71535039 35.9872755,-5.65651265 Z" id="Line-5" fill="#00A77E" fill-rule="nonzero" transform="translate(40.572658, 23.744137) rotate(-270.000000) translate(-40.572658, -23.744137) "></path>
        <path d="M35.9872755,26.3434873 C35.5563128,25.3264598 36.0314122,24.1526319 37.0484397,23.7216692 C38.0654672,23.2907065 39.2392952,23.765806 39.6702579,24.7828335 C43.4404368,33.6800677 45.3170667,44.1437458 45.3170667,56.1647229 C45.3170667,68.1986245 43.4364426,78.3963461 39.6504364,86.7506814 C39.1945023,87.7567618 38.0093053,88.2027435 37.0032249,87.7468093 C35.9971444,87.2908752 35.5511628,86.1056782 36.0070969,85.0995978 C39.538824,77.3063636 41.3170667,67.6638074 41.3170667,56.1647229 C41.3170667,44.6527139 39.5348298,34.7153504 35.9872755,26.3434873 Z" id="Line-5" fill="#00A77E" fill-rule="nonzero" transform="translate(40.572658, 55.744137) scale(1, -1) rotate(-270.000000) translate(-40.572658, -55.744137) "></path>
        <path d="M18.318509,6.00800069 C17.7204614,5.07933887 17.9884771,3.8416963 18.9171389,3.24364863 C19.8458007,2.64560095 21.0834433,2.91361667 21.681491,3.84227848 C27.636951,13.0900501 30.5980044,24.7369418 30.5980044,38.7441937 C30.5980044,52.7141123 27.6535563,65.104536 21.7545109,75.8851873 C21.2242912,76.8541769 20.0089419,77.2098702 19.0399523,76.6796505 C18.0709627,76.1494308 17.7152694,74.9340815 18.2454891,73.9650919 C23.8104496,63.7949892 26.5980044,52.0647822 26.5980044,38.7441937 C26.5980044,25.4609384 23.8270549,14.561794 18.318509,6.00800069 Z" id="Line-5" fill="#0099BF" fill-rule="nonzero" transform="translate(24.298814, 39.925206) rotate(-180.000000) translate(-24.298814, -39.925206) "></path>
        <path d="M49.318509,6.00800069 C48.7204614,5.07933887 48.9884771,3.8416963 49.9171389,3.24364863 C50.8458007,2.64560095 52.0834433,2.91361667 52.681491,3.84227848 C58.636951,13.0900501 61.5980044,24.7369418 61.5980044,38.7441937 C61.5980044,52.7141123 58.6535563,65.104536 52.7545109,75.8851873 C52.2242912,76.8541769 51.0089419,77.2098702 50.0399523,76.6796505 C49.0709627,76.1494308 48.7152694,74.9340815 49.2454891,73.9650919 C54.8104496,63.7949892 57.5980044,52.0647822 57.5980044,38.7441937 C57.5980044,25.4609384 54.8270549,14.561794 49.318509,6.00800069 Z" id="Line-5" fill="#0099BF" fill-rule="nonzero" transform="translate(55.298814, 39.925206) scale(-1, 1) rotate(-180.000000) translate(-55.298814, -39.925206) "></path>
        <path d="M40,75 C59.3299662,75 75,59.3299662 75,40 C75,20.6700338 59.3299662,5 40,5 C20.6700338,5 5,20.6700338 5,40 C5,59.3299662 20.6700338,75 40,75 Z M40,79 C18.4608948,79 1,61.5391052 1,40 C1,18.4608948 18.4608948,1 40,1 C61.5391052,1 79,18.4608948 79,40 C79,61.5391052 61.5391052,79 40,79 Z" id="Oval" fill="#00A77E" fill-rule="nonzero"></path>
    </g>
</svg>