<svg viewBox="0 0 54 54" version="1.1" xmlns="http://www.w3.org/2000/svg" xmlns:xlink="http://www.w3.org/1999/xlink">    
    <title>icon-mainmenu</title>    
    <g id="Main-Menu" stroke="none" stroke-width="1" fill="none" fill-rule="evenodd">
        <g>            
            <path d="M7.97846999,27.7842595 L7.97846999,44.2385094 C7.55190643,46.3363836 8.59992847,47.3853207 11.1225361,47.3853207 C13.6451438,47.3853207 17.39699,47.3853207 22.3780748,47.3853207 L22.3780748,32.9900608 L30.3599833,32.9900608 L30.3599833,47.3845998 L42.421489,47.3845998 C44.3653358,47.0470252 45.3372592,46.4382832 45.3372592,45.5583737 C45.3372592,44.6784642 45.28899,38.9950139 45.1924516,28.5080228 L48.6286199,31.035346 L52.1523996,27.7842595 L45.3372592,21.3616902 L45.3372592,7.53846021 L37.6397787,7.53846021 L37.6397787,14.2473914 L26.5614759,5.42864509 L1.01852195,27.7842595 L3.66162906,31.035346 L7.97846999,27.7842595 Z" id="Path-7" fill="#FFF" class="theme-icon-fill-color"></path>
            <path d="M7.97847614,27.7842595 L7.97847614,45.2390262 C7.97847614,47.3364198 8.88210274,48.3851166 10.6893559,48.3851166 C12.4966092,48.3851166 16.3928508,48.3851166 22.3780809,48.3851166 L22.3780809,32.9900608 L30.3599895,32.9900608 L30.3599895,48.3851166 L42.4214952,48.3851166 C44.2688035,48.4173479 45.1924577,47.3686511 45.1924577,45.2390262 C45.1924577,43.1094014 45.1924577,37.2911458 45.1924577,27.7842595 L26.5963699,11.9374029 L7.97847614,27.7842595 Z" id="Theme-Color-1" stroke="#00A77E" stroke-width="3" stroke-linejoin="round" class="theme-icon-secondary-color"></path>
            <path d="M51.2970913,27.4472052 L49.1118035,29.7272844 C48.9424405,29.9171663 48.720155,30.0332035 48.4449403,30.0753995 L48.3496741,30.0753995 C48.0744593,30.0753995 47.8521738,30.0015576 47.6828109,29.8538717 L26.509434,11.9374029 L5.47744162,29.8538717 C5.22339722,30.0226556 4.96935664,30.0964975 4.71531224,30.0753995 C4.44009748,30.0332035 4.21781196,29.9171663 4.04844903,29.7272844 L1.71799093,27.0041496 C1.548628,26.7931698 1.47453283,26.5452721 1.4957032,26.2604492 C1.51687356,25.9756264 1.63330883,25.7488264 1.8450125,25.5800425 L24.0732124,6.85079162 C24.7506641,6.3022439 25.555126,6.02797416 26.4866221,6.02797416 C27.4181183,6.02797416 28.2225801,6.3022439 28.9000318,6.85079162 L36.6483472,13.306744 L36.6483472,7.5786686 C36.6483472,7.28329676 36.7436124,7.04067352 36.9341457,6.85079162 C37.124679,6.66090972 37.3681346,6.56597019 37.6645197,6.56597019 L43.7615547,6.56597019 C44.0579399,6.56597019 44.3013954,6.66090972 44.4919287,6.85079162 C44.682462,7.04067352 44.7777272,7.28329676 44.7777272,7.5786686 L44.7777272,19.9024834 L51.1700697,25.5800425 C51.3817734,25.7488264 51.4982086,25.9756264 51.519379,26.2604492 C51.5405494,26.5452721 51.4664542,27.2362253 51.2970913,27.4472052 Z" id="Path" stroke="#0099BF" stroke-width="3" stroke-linejoin="round" class="theme-icon-primary-color"></path>
        </g>
    </g>
</svg>