<svg xmlns="http://www.w3.org/2000/svg" width="80" height="80" viewBox="0 0 80 80">
  <g fill="none" fill-rule="evenodd">
    <rect width="80" height="80"/>
    <g transform="translate(0 4.44)">
      <path fill="#FFF" d="M59.8479725,2 C61.999647,2 63.7508241,3.76183333 63.7508241,5.9259401 L63.7508241,5.9259401 L63.7502254,16.711 L67.1440405,16.7114859 C69.2293354,16.7114859 70.9371061,18.3640918 71.0418054,20.4356829 L71.046892,20.637426 L71.046892,48.0239885 C71.046892,50.1880953 69.296603,51.9499286 67.1440405,51.9499286 L67.1440405,51.9499286 L20.7786967,51.9499286 C18.6270222,51.9499286 16.8767332,50.1880953 16.8767332,48.0239885 L16.8767332,48.0239885 L16.8767332,44.5935641 L3.90718891,44.5935641 C1.75551443,44.5935641 0.00522537217,42.8317307 0.00522537217,40.667624 L0.00522537217,40.667624 L0.00522537217,13.2819495 C0.00522537217,11.1169547 1.75551443,9.35600937 3.90718891,9.35600937 L3.90718891,9.35600937 L9.58022537,9.356 L9.58066522,5.9259401 C9.58066522,3.82946167 11.2232705,2.11050743 13.2821264,2.00512013 L13.4826288,2 Z"
      id="Fill-1" class="theme-icon-fill-color"/>
      <path fill="#00A77E" d="M67.1389039,16.7114859 L63.7146956,16.7114859 L63.7146956,19.7183245 L67.1389039,19.7183245 C67.6335315,19.7183245 68.0349169,20.1312542 68.0349169,20.637426 L68.0349169,48.0239885 C68.0349169,48.5301604 67.6335315,48.9430901 67.1389039,48.9430901 L20.7735602,48.9430901 C20.2798206,48.9430901 19.8775471,48.5301604 19.8775471,48.0239885 L19.8775471,44.5935641 L50.2673961,44.5935641 C52.4190706,44.5935641 54.1702477,42.8317307 54.1702477,40.667624 L54.1702477,37.2105589 L51.1634091,37.2105589 L51.1634091,40.667624 C51.1634091,41.1746839 50.7620237,41.5876135 50.2673961,41.5876135 L3.90205234,41.5876135 C3.40831276,41.5876135 3.00692734,41.1746839 3.00692734,40.667624 L3.00692734,13.2819495 C3.00692734,12.7740016 3.40831276,12.3619599 3.90205234,12.3619599 L9.64754714,12.3619599 L9.64754714,9.35600938 L3.90205234,9.35600938 C1.75037786,9.35600938 8.88020832e-05,11.1169547 8.88020832e-05,13.2819495 L8.88020832e-05,40.667624 C8.88020832e-05,42.8317307 1.75037786,44.5935641 3.90205234,44.5935641 L16.8715966,44.5935641 L16.8715966,48.0239885 C16.8715966,50.1880953 18.6218857,51.9499286 20.7735602,51.9499286 L67.1389039,51.9499286 C69.2914664,51.9499286 71.0417555,50.1880953 71.0417555,48.0239885 L71.0417555,20.637426 C71.0417555,18.4724313 69.2914664,16.7114859 67.1389039,16.7114859"
      id="Fill-2" class="theme-icon-secondary-color"/>
      <path fill="#0099BF" d="M59.8428359,0.26583521 C61.9945104,0.26583521 63.7456875,2.02766854 63.7456875,4.19177531 L63.7456875,4.19177531 L63.7463102,27.9949949 C73.0830315,30.3250036 80,38.7676615 80,48.8251422 C80,60.6831422 70.388,70.2941422 58.531,70.2941422 C46.675,70.2941422 37.062,60.6831422 37.062,48.8251422 C37.062,43.792522 38.7940917,39.1642307 41.6945915,35.5037989 L13.4774922,35.5042779 C11.3258177,35.5042779 9.57552865,33.7433326 9.57552865,31.5783378 L9.57552865,31.5783378 L9.57552865,4.19177531 C9.57552865,2.02766854 11.3258177,0.26583521 13.4774922,0.26583521 L13.4774922,0.26583521 Z M63.6802183,32.2913573 L63.6662391,32.3686209 C63.3016355,34.1560542 61.7255511,35.5042779 59.8428359,35.5042779 L59.8428359,35.5042779 L47.4805923,35.5039488 C43.6550792,38.6826251 41.2152359,43.4743093 41.2152359,48.8251466 C41.2152359,58.3739204 48.9834907,66.1414063 58.531,66.1414063 C68.0795005,66.1414063 75.8467641,58.3739204 75.8467641,48.8251466 C75.8467641,41.0695961 70.7218302,34.4887068 63.6802183,32.2913573 Z M59.8428359,3.27267375 L13.4774922,3.27267375 C12.9837526,3.27267375 12.5823672,3.68471542 12.5823672,4.19177531 L12.5823672,4.19177531 L12.5823672,31.5783378 C12.5823672,32.0845097 12.9837526,32.4974394 13.4774922,32.4974394 L13.4774922,32.4974394 L44.5924258,32.4969319 C48.3432192,29.2922603 53.2113257,27.3571422 58.531,27.3571422 C59.2766888,27.3571422 60.0134982,27.3951594 60.7395958,27.4693609 L60.738849,4.19177531 C60.738849,3.68471542 60.3365755,3.27267375 59.8428359,3.27267375 L59.8428359,3.27267375 Z M58.531,31.5098782 C56.5106176,31.5098782 54.5699107,31.8577085 52.7656319,32.4966339 L59.8428359,32.4974394 C60.3365755,32.4974394 60.738849,32.0845097 60.738849,31.5783378 L60.7349542,31.6494407 C60.0130965,31.5573526 59.2774917,31.5098782 58.531,31.5098782 Z"
      id="Fill-3" class="theme-icon-secondary-color"/>
      <path fill="#00A77E" d="M54.4701885,24.0745984 C55.2964522,24.0745984 55.9654165,24.7238829 55.9654165,25.5247813 C55.9654165,26.3256798 55.2964522,26.9749643 54.4701885,26.9749643 L54.4701885,26.9749643 L49.6593013,26.9749643 C48.8321539,26.9749643 48.1623058,26.3256798 48.1623058,25.5247813 C48.1623058,24.7238829 48.8321539,24.0745984 49.6593013,24.0745984 L49.6593013,24.0745984 Z M23.8404607,23.6588164 C24.6667244,23.6588164 25.3365724,24.308101 25.3365724,25.1081428 C25.3365724,25.9090413 24.6667244,26.5583258 23.8404607,26.5583258 L23.8404607,26.5583258 L19.0286897,26.5583258 C18.2033097,26.5583258 17.532578,25.9090413 17.532578,25.1081428 C17.532578,24.308101 18.2033097,23.6588164 19.0286897,23.6588164 L19.0286897,23.6588164 Z M37.2418393,8.97496432 C42.0147272,8.97496432 45.896841,12.7635995 45.896841,17.419946 C45.896841,22.0771491 42.0147272,25.8657842 37.2418393,25.8657842 C32.4689513,25.8657842 28.5859538,22.0771491 28.5859538,17.419946 C28.5859538,12.7635995 32.4689513,8.97496432 37.2418393,8.97496432 Z M37.2418393,11.8753303 C34.1179439,11.8753303 31.5781772,14.3619701 31.5781772,17.419946 C31.5781772,20.4779219 34.1179439,22.9654183 37.2418393,22.9654183 C40.3657346,22.9654183 42.9055013,20.4779219 42.9055013,17.419946 C42.9055013,14.3619701 40.3657346,11.8753303 37.2418393,11.8753303 Z M54.4699234,9.25326583 C55.2961871,9.25326583 55.9660351,9.90340693 55.9660351,10.7043054 C55.9660351,11.5043473 55.2961871,12.1536318 54.4699234,12.1536318 L54.4699234,12.1536318 L49.6590361,12.1536318 C48.8318887,12.1536318 48.1629244,11.5043473 48.1629244,10.7043054 C48.1629244,9.90340693 48.8318887,9.25326583 49.6590361,9.25326583 L49.6590361,9.25326583 Z M23.273034,9.03158399 C24.0992977,9.03158399 24.7691457,9.68172509 24.7691457,10.4826235 C24.7691457,11.2826654 24.0992977,11.9319499 23.273034,11.9319499 L23.273034,11.9319499 L18.4621468,11.9319499 C17.6358831,11.9319499 16.9660351,11.2826654 16.9660351,10.4826235 C16.9660351,9.68172509 17.6358831,9.03158399 18.4621468,9.03158399 L18.4621468,9.03158399 Z"
      id="Fill-4" class="theme-icon-secondary-color"/>
    </g>
    <g transform="translate(40 34.22)">
      <circle cx="18.5" cy="18.993" r="18.5" fill="#FFF"/>
      <path fill="#00A77E" d="M28.3555254,24.9517712 C29.3155024,24.9517712 30.1018378,25.7993024 30.1018378,26.8349584 C30.1018378,27.8696447 29.3155024,28.7171759 28.3555254,28.7171759 L28.3555254,28.7171759 L7.52472564,28.7171759 C6.56384894,28.7171759 5.77751351,27.8696447 5.77751351,26.8339887 C5.77751351,25.7993024 6.56384894,24.9517712 7.52472564,24.9517712 L7.52472564,24.9517712 Z M18.7679084,17.5912303 C19.8211802,17.5912303 20.6839352,18.4387615 20.6839352,19.4734478 C20.6839352,20.5091038 19.8211802,21.356635 18.7679084,21.356635 L18.7679084,21.356635 L7.69452743,21.356635 C6.64026849,21.356635 5.77751351,20.5091038 5.77751351,19.4734478 C5.77751351,18.4387615 6.64026849,17.5912303 7.69452743,17.5912303 L7.69452743,17.5912303 Z M15.3326843,10.2306894 C16.2926613,10.2306894 17.0789967,11.0782207 17.0789967,12.1138767 C17.0789967,13.148563 16.2926613,13.9960942 15.3326843,13.9960942 L15.3326843,13.9960942 L7.52472564,13.9960942 C6.56384894,13.9960942 5.77751351,13.148563 5.77751351,12.1129069 C5.77751351,11.0782207 6.56384894,10.2306894 7.52472564,10.2306894 L7.52472564,10.2306894 Z"
      id="Fill-5" class="theme-icon-secondary-color"/>
    </g>
  </g>
</svg>
