<svg xmlns="http://www.w3.org/2000/svg" width="80" height="80" viewBox="0 0 80 80">
  <g fill="none" fill-rule="evenodd">
    <path fill="#FFF" d="M14.6612664,6.7433 C13.0612032,6.7433 11.7520606,8.05244257 11.7520606,9.65250572 L11.7520606,15.7310092 L3.4734309,15.9811 C1.87336776,15.9811 2.12763933,16.0581369 2.12763933,17.6582 L2.12763933,43.9442833 C2.12763933,46.853489 3.4734309,46.853489 6.38263662,46.853489 L36.5980532,46.853489 C36.3963482,48.0152318 36.27998,49.2050969 36.27998,50.4240541 C36.27998,61.9212351 45.6010751,71.2433 57.0982561,71.2433 C68.5973766,71.2433 77.917502,61.9212351 77.917502,50.4240541 C77.917502,46.146552 76.6238752,42.172577 74.4119091,38.8657798 L76.7803634,38.8657798 C78.3804265,38.8657798 79.6895691,37.5566372 79.6895691,35.9565741 L79.6895691,9.65250572 C79.6895691,8.05244257 78.3804265,6.7433 76.7803634,6.7433 L14.6612664,6.7433 Z"
    id="Fill-1" class="theme-icon-fill-color"/>
    <path fill="#00A77E" d="M57.5665 19.7662L69.3715 19.7662C70.5315 19.7662 71.4795 18.8172 71.4795 17.6582 71.4795 16.4992 70.5315 15.5502 69.3715 15.5502L57.5665 15.5502C56.4065 15.5502 55.4585 16.4992 55.4585 17.6582 55.4585 18.8172 56.4065 19.7662 57.5665 19.7662M69.3712 23.6075L21.5882 23.6075C20.4282 23.6075 19.4792 24.5565 19.4792 25.7155 19.4792 26.8755 20.4282 27.8235 21.5882 27.8235L69.3712 27.8235C70.5312 27.8235 71.4792 26.8755 71.4792 25.7155 71.4792 24.5565 70.5312 23.6075 69.3712 23.6075"
    id="Fill-2" class="theme-icon-secondary-color"/>
    <path fill="#00A77E" d="M4.0001,18.9811 L8.7621,18.9811 L8.7621,14.9811 L3.0001,14.9811 C1.3501,14.9811 0.0001,16.3311 0.0001,17.9811 L0.0001,45.1061 C0.0001,46.7561 1.3501,48.1061 3.0001,48.1061 L37.2301,48.1061 L38.3921,44.1061 L4.0001,44.1061 L4.0001,18.9811 Z"
    id="Fill-3" class="theme-icon-secondary-color"/>
    <path fill="#0099BF" d="M75.626,35.8683 L71.605,35.8683 C67.798,32.4303 62.77,30.3193 57.236,30.3193 C51.703,30.3193 46.675,32.4303 42.868,35.8683 L12.537,35.8683 L12.537,10.7433 L75.626,10.7433 L75.626,35.8683 Z M57.236,69.2563 C47.605,69.2563 39.768,61.4203 39.768,51.7873 C39.768,42.1553 47.605,34.3193 57.236,34.3193 C66.869,34.3193 74.705,42.1553 74.705,51.7873 C74.705,61.4203 66.869,69.2563 57.236,69.2563 L57.236,69.2563 Z M11.537,6.7433 C9.887,6.7433 8.537,8.0933 8.537,9.7433 L8.537,36.8683 C8.537,38.5183 9.887,39.8683 11.537,39.8683 L39.383,39.8683 C37.102,43.2783 35.768,47.3773 35.768,51.7873 C35.768,63.6443 45.38,73.2563 57.236,73.2563 C69.094,73.2563 78.705,63.6443 78.705,51.7873 C78.705,47.3773 77.371,43.2783 75.09,39.8683 L76.626,39.8683 C78.276,39.8683 79.626,38.5183 79.626,36.8683 L79.626,9.7433 C79.626,8.0933 78.276,6.7433 76.626,6.7433 L11.537,6.7433 Z"
    id="Fill-4" class="theme-icon-secondary-color"/>
    <path fill="#00A77E" d="M68.2051789,56.1300007 C69.1918219,56.1300007 70,57.0010744 70,58.0654987 C70,59.1289262 69.1918219,60 68.2051789,60 L68.2051789,60 L46.7957458,60 C45.8081781,60 45,59.1289262 45,58.064502 C45,57.0010744 45.8081781,56.1300007 46.7957458,56.1300007 L46.7957458,56.1300007 Z M58.3512392,48.5650003 C59.4337685,48.5650003 60.3204889,49.4360741 60.3204889,50.4995017 C60.3204889,51.5639259 59.4337685,52.4349997 58.3512392,52.4349997 L58.3512392,52.4349997 L46.9702643,52.4349997 C45.8867204,52.4349997 45,51.5639259 45,50.4995017 C45,49.4360741 45.8867204,48.5650003 46.9702643,48.5650003 L46.9702643,48.5650003 Z M54.8205922,41 C55.8072352,41 56.6154133,41.8710738 56.6154133,42.935498 C56.6154133,43.9989256 55.8072352,44.8699993 54.8205922,44.8699993 L54.8205922,44.8699993 L46.7957458,44.8699993 C45.8081781,44.8699993 45,43.9989256 45,42.9345013 C45,41.8710738 45.8081781,41 46.7957458,41 L46.7957458,41 Z"
    id="Fill-5" class="theme-icon-secondary-color"/>
  </g>
</svg>
