<svg xmlns="http://www.w3.org/2000/svg" width="80" height="80" viewBox="0 0 80 80">
  <g fill="none" fill-rule="evenodd">
    <path fill="#FFF" d="M58.478,36.7031 L58.478,24.0781 L73.014,24.0781 C74.671,24.0781 76.014,22.7351 76.014,21.0781 L76.014,3.0001 C76.014,1.3431 74.671,0.0001 73.014,0.0001 L3,0.0001 C1.343,0.0001 0,1.3431 0,3.0001 L0,21.0781 C0,22.7351 1.343,24.0781 3,24.0781 L18.34,24.0781 L18.34,56.3041 C18.34,57.9531 19.691,59.3041 21.34,59.3041 L36.559,59.3041 C37.165,70.6191 46.503,79.6151 57.969,79.6151 C69.827,79.6151 79.438,70.0021 79.438,58.1461 C79.438,46.4611 70.097,36.9751 58.478,36.7031"
    id="Fill-1" class="theme-icon-fill-color"/>
    <path fill="#00A77E" d="M32.8521,27.2222 C32.8521,24.3792 35.1651,22.0672 38.0071,22.0672 C40.8501,22.0672 43.1631,24.3792 43.1631,27.2222 C43.1631,30.0642 40.8501,32.3772 38.0071,32.3772 C35.1651,32.3772 32.8521,30.0642 32.8521,27.2222 M47.1631,27.2222 C47.1631,22.1662 43.0641,18.0672 38.0071,18.0672 C32.9511,18.0672 28.8521,22.1662 28.8521,27.2222 C28.8521,32.2782 32.9511,36.3772 38.0071,36.3772 C43.0641,36.3772 47.1631,32.2782 47.1631,27.2222"
    id="Fill-2" class="theme-icon-secondary-color"/>
    <path fill="#00A77E" d="M73.0142,-2.48689958e-14 L3.0002,-2.48689958e-14 C1.3432,-2.48689958e-14 0.0002,1.343 0.0002,3 L0.0002,21.079 C0.0002,22.735 1.3432,24.079 3.0002,24.079 L18.3892,24.079 L18.3892,20.079 L4.0002,20.079 L4.0002,4 L72.0142,4 L72.0142,20.079 L58.3672,20.079 L58.3672,24.079 L73.0142,24.079 C74.6712,24.079 76.0142,22.735 76.0142,21.079 L76.0142,3 C76.0142,1.343 74.6712,-2.48689958e-14 73.0142,-2.48689958e-14"
    id="Fill-3" class="theme-icon-secondary-color"/>
    <path fill="#0099BF" d="M57.9693,75.6143 C48.3373,75.6143 40.5013,67.7783 40.5013,58.1453 C40.5013,48.5133 48.3373,40.6773 57.9693,40.6773 C67.6023,40.6773 75.4383,48.5133 75.4383,58.1453 C75.4383,67.7783 67.6023,75.6143 57.9693,75.6143 L57.9693,75.6143 Z M33.1793,55.3033 C32.2903,49.7553 27.9013,45.3883 22.3403,44.5353 L22.3403,13.4373 L54.4783,13.4373 L54.4783,36.9863 C45.2093,38.5063 37.9513,45.9443 36.7103,55.3033 L33.1793,55.3033 Z M22.3403,55.3033 L22.3403,48.5953 C25.6853,49.3513 28.3233,51.9713 29.1103,55.3033 L22.3403,55.3033 Z M58.4783,36.7033 L58.4783,13.4373 L64.0763,13.4373 C65.2143,13.4373 66.1453,12.5073 66.1453,11.3693 C66.1453,10.2313 65.2143,9.3013 64.0763,9.3013 L11.9383,9.3013 C10.8003,9.3013 9.8693,10.2313 9.8693,11.3693 C9.8693,12.5073 10.8003,13.4373 11.9383,13.4373 L18.3403,13.4373 L18.3403,56.3033 C18.3403,57.9543 19.6913,59.3033 21.3403,59.3033 L36.5593,59.3033 C37.1643,70.6193 46.5033,79.6143 57.9693,79.6143 C69.8263,79.6143 79.4383,70.0033 79.4383,58.1453 C79.4383,46.4613 70.0973,36.9753 58.4783,36.7033 L58.4783,36.7033 Z"
    id="Fill-4" class="theme-icon-secondary-color"/>
    <path fill="#00A77E" d="M68.2051789,64.1295869 C69.1918219,64.1295869 70,65.0006606 70,66.0650849 C70,67.1285124 69.1918219,67.9995862 68.2051789,67.9995862 L68.2051789,67.9995862 L46.7957458,67.9995862 C45.8081781,67.9995862 45,67.1285124 45,66.0640882 C45,65.0006606 45.8081781,64.1295869 46.7957458,64.1295869 L46.7957458,64.1295869 Z M58.3512392,56.5645865 C59.4337685,56.5645865 60.3204889,57.4356603 60.3204889,58.4990879 C60.3204889,59.5635121 59.4337685,60.4345859 58.3512392,60.4345859 L58.3512392,60.4345859 L46.9702643,60.4345859 C45.8867204,60.4345859 45,59.5635121 45,58.4990879 C45,57.4356603 45.8867204,56.5645865 46.9702643,56.5645865 L46.9702643,56.5645865 Z M54.8205922,48.9995862 C55.8072352,48.9995862 56.6154133,49.87066 56.6154133,50.9350842 C56.6154133,51.9985118 55.8072352,52.8695855 54.8205922,52.8695855 L54.8205922,52.8695855 L46.7957458,52.8695855 C45.8081781,52.8695855 45,51.9985118 45,50.9340875 C45,49.87066 45.8081781,48.9995862 46.7957458,48.9995862 L46.7957458,48.9995862 Z"
    id="Fill-5" class="theme-icon-secondary-color"/>
  </g>
</svg>
