<svg xmlns="http://www.w3.org/2000/svg" width="80" height="80" viewBox="0 0 80 80">
  <g fill="none" fill-rule="evenodd">
    <path fill="#FFF" fill-rule="nonzero" d="M5,13.0329773 L75,13.0329773 C77.7614237,13.0329773 80,15.328953 80,18.1611825 L80,62.5225782 C80,65.3548077 77.7614237,67.6507833 75,67.6507833 L5,67.6507833 C2.23857625,67.6507833 0,65.3548077 0,62.5225782 L0,18.1611825 C0,15.328953 2.23857625,13.0329773 5,13.0329773 Z"
    id="Fill-1" class="theme-icon-fill-color"/>
    <path fill="#0099BF" fill-rule="nonzero" d="M18.0364106,49 C19.1375977,49 20.0302863,49.8954305 20.0302863,51 C20.0302863,52.1045695 19.1375977,53 18.0364106,53 L18.0364106,53 L11.9938756,53 C10.8926885,53 10,52.1045695 10,51 C10,49.8954305 10.8926885,49 11.9938756,49 L11.9938756,49 Z M67.0061244,49 C68.1073115,49 69,49.8954305 69,51 C69,52.1045695 68.1073115,53 67.0061244,53 L67.0061244,53 L28.3069744,53 C27.2057873,53 26.3130988,52.1045695 26.3130988,51 C26.3130988,49.8954305 27.2057873,49 28.3069744,49 L28.3069744,49 Z M67.0061244,38 C68.1073115,38 69,38.8954305 69,40 C69,41.1045695 68.1073115,42 67.0061244,42 L67.0061244,42 L28.3069744,42 C27.2057873,42 26.3130988,41.1045695 26.3130988,40 C26.3130988,38.8954305 27.2057873,38 28.3069744,38 L28.3069744,38 Z M18.0364106,38 C19.1375977,38 20.0302863,38.8954305 20.0302863,40 C20.0302863,41.1045695 19.1375977,42 18.0364106,42 L18.0364106,42 L11.9938756,42 C10.8926885,42 10,41.1045695 10,40 C10,38.8954305 10.8926885,38 11.9938756,38 L11.9938756,38 Z"
    id="Fill-2" class="theme-icon-secondary-color"/>
    <path fill="#00A77E" fill-rule="nonzero" d="M75,13 C77.7614237,13 80,15.2700049 80,18.0701977 L80,61.9298023 C80,64.7299951 77.7614237,67 75,67 L5,67 C2.23857625,67 6.53699317e-13,64.7299951 6.53699317e-13,61.9298023 L6.53699317e-13,18.0701977 C6.53699317e-13,15.2700049 2.23857625,13 5,13 L75,13 Z M76,28.845 L4,28.845 L4,61.9298023 C4,62.4898408 4.44771525,62.9438418 5,62.9438418 L75,62.9438418 C75.5522847,62.9438418 76,62.4898408 76,61.9298023 L76,28.845 Z M75,17.0561582 L5,17.0561582 C4.44771525,17.0561582 4,17.5101592 4,18.0701977 L4,24.789 L76,24.789 L76,18.0701977 C76,17.5101592 75.5522847,17.0561582 75,17.0561582 Z"
    id="Fill-3" class="theme-icon-secondary-color"/>
    <g transform="translate(21)">
      <path fill="#FFF" stroke="#FFF" stroke-width="4" d="M7.2081561,32.5961965 L34.7597956,3.28504917 C35.8945733,2.07780207 37.7931595,2.01905403 39.0004066,3.15383174 C39.0328265,3.18430551 39.0645644,3.21549674 39.0955968,3.2473823 L41.1368963,5.34480132 C42.2564618,6.49514589 42.2721433,8.32294951 41.1724798,9.49233379 L13.1629988,39.2776701 C12.8610349,39.5987791 12.4920206,39.8494018 12.0822049,40.0117108 L7.32726681,41.8949212 C6.11370039,42.3755586 4.74027686,41.7814022 4.25963949,40.5678358 C4.02595391,39.9778006 4.03938056,39.318575 4.29689724,38.7385443 L6.65215384,33.4335626 C6.78907649,33.1251579 6.97704837,32.8420632 7.2081561,32.5961965 Z"
      id="Fill-4" class="theme-icon-fill-color"/>
      <path fill="#FFF" d="M7.56139392,32.1246814 L34.4865678,4.13652148 C35.6352467,2.94249355 37.5343859,2.90573092 38.7284138,4.05440985 C38.7437803,4.0691927 38.7589887,4.08413896 38.7740365,4.09924608 L40.6357059,5.96825555 C41.7875588,7.12464978 41.8035722,8.98973098 40.6717452,10.1657327 L13.3854071,38.5170447 C13.0823476,38.8319325 12.7141486,39.0768035 12.3065673,39.2345278 L3.54326954,42.6257169 C3.28573754,42.7253757 2.99617717,42.5973942 2.89651837,42.3398622 C2.84801457,42.2145217 2.8520125,42.074932 2.90761056,41.9525731 L6.99210813,32.9635032 C7.13291159,32.6536261 7.32542149,32.3699698 7.56139392,32.1246814 Z"
      id="Fill-5" class="theme-icon-fill-color"/>
      <path fill="#0099BF" fill-rule="nonzero" d="M33.2937742,1.58991736 C35.2313621,-0.476315519 38.4313468,-0.536493356 40.4411402,1.4555064 L40.4411402,1.4555064 L42.5227043,3.59803315 C44.4685336,5.60211613 44.4955663,8.83887862 42.5834966,10.8770169 L42.5834966,10.8770169 L14.3469715,40.9752624 C13.836184,41.5197277 13.2159383,41.9429872 12.5295551,42.2154788 L12.5295551,42.2154788 L3.43783749,45.8248571 C2.1357048,46.341799 0.672500316,45.6756328 0.169678813,44.3369333 C-0.0750710537,43.6853173 -0.054323462,42.9598342 0.227241671,42.3241272 L0.227241671,42.3241272 L4.46111051,32.7650594 C4.69895826,32.2280558 5.0240259,31.7366186 5.42237168,31.3118249 L5.42237168,31.3118249 Z M7.555,35.811 L5.44624687,40.5705467 L10.307,38.641 L7.555,35.811 Z M37.6344896,4.44850287 C37.2325309,4.05010292 36.592534,4.06213848 36.2050164,4.47538506 L36.2050164,4.47538506 L9.987,32.433 L13.426,35.968 L39.6728613,7.99090213 C40.0258588,7.61463045 40.0484057,7.03409618 39.7436962,6.63175657 L39.6607029,6.53510538 Z"
      id="Fill-6" class="theme-icon-secondary-color"/>
    </g>
    <circle cx="57.531" cy="57.369" r="19" fill="#FFF" id="Fill-7" class="theme-icon-fill-color"/>
    <path fill="#00A77E" d="M67.3079717,64.0059805 C68.255149,64.0059805 69.031,64.9229002 69.031,66.0433468 C69.031,67.1627442 68.255149,68.079664 67.3079717,68.079664 L67.3079717,68.079664 L46.754916,68.079664 C45.806851,68.079664 45.031,67.1627442 45.031,66.0422977 C45.031,64.9229002 45.806851,64.0059805 46.754916,64.0059805 L46.754916,64.0059805 Z M57.8481896,56.0428222 C58.8874178,56.0428222 59.7386694,56.959742 59.7386694,58.0791394 C59.7386694,59.199586 58.8874178,60.1165057 57.8481896,60.1165057 L57.8481896,60.1165057 L46.9224537,60.1165057 C45.8822516,60.1165057 45.031,59.199586 45.031,58.0791394 C45.031,56.959742 45.8822516,56.0428222 46.9224537,56.0428222 L46.9224537,56.0428222 Z M54.4587685,48.079664 C55.4059458,48.079664 56.1817967,48.9965837 56.1817967,50.1170303 C56.1817967,51.2364277 55.4059458,52.1533475 54.4587685,52.1533475 L54.4587685,52.1533475 L46.754916,52.1533475 C45.806851,52.1533475 45.031,51.2364277 45.031,50.1159812 C45.031,48.9965837 45.806851,48.079664 46.754916,48.079664 L46.754916,48.079664 Z" 
    id="Fill-8" class="theme-icon-secondary-color"/>
    <path fill="#0099BF" d="M58.062,35.8370115 C45.9127616,35.8370115 36.062,45.6869777 36.062,57.8364991 C36.062,69.98807 45.9127616,79.8370115 58.062,79.8370115 C70.2122632,79.8370115 80.062,69.98807 80.062,57.8364991 C80.062,45.6869777 70.2122632,35.8370115 58.062,35.8370115 M58.062,39.3913818 C68.2333099,39.3913818 76.5072001,47.6657015 76.5072001,57.8364835 C76.5072001,68.0083214 68.2333099,76.2826411 58.062,76.2826411 C47.891746,76.2826411 39.6167999,68.0083214 39.6167999,57.8364835 C39.6167999,47.6657015 47.891746,39.3913818 58.062,39.3913818"
    id="Fill-9" class="theme-icon-secondary-color"/>
  </g>
</svg>
