<svg xmlns="http://www.w3.org/2000/svg" width="80" height="80" viewBox="0 0 80 80">
  <g fill="none" fill-rule="evenodd">
    <g fill-rule="nonzero" transform="translate(0 1.112)">
      <path fill="#FFF" d="M3.90306122,7.0255102 L58.5459184,7.0255102 C60.7015196,7.0255102 62.4489796,8.77297024 62.4489796,10.9285714 L62.4489796,52.4980164 C62.4489796,54.6536176 60.7015196,56.4010776 58.5459184,56.4010776 L3.90306122,56.4010776 C1.74746003,56.4010776 0,54.6536176 0,52.4980164 L0,10.9285714 C0,8.77297024 1.74746003,7.0255102 3.90306122,7.0255102 Z"
      id="Fill-1" class="theme-icon-fill-color"/>
      <path fill="#0099BF" d="M9.75362664 29.1428571L14.4849917 29.1428571C15.3472322 29.1428571 16.0462162 28.4438731 16.0462162 27.5816327 16.0462162 26.7193922 15.3472322 26.0204082 14.4849917 26.0204082L9.75362664 26.0204082C8.89138616 26.0204082 8.19240215 26.7193922 8.19240215 27.5816327 8.19240215 28.4438731 8.89138616 29.1428571 9.75362664 29.1428571zM9.75362664 37.7295918L14.4849917 37.7295918C15.3472322 37.7295918 16.0462162 37.0306078 16.0462162 36.1683673 16.0462162 35.3061269 15.3472322 34.6071429 14.4849917 34.6071429L9.75362664 34.6071429C8.89138616 34.6071429 8.19240215 35.3061269 8.19240215 36.1683673 8.19240215 37.0306078 8.89138616 37.7295918 9.75362664 37.7295918zM22.5269455 29.1428571L52.8287654 29.1428571C53.6910059 29.1428571 54.3899899 28.4438731 54.3899899 27.5816327 54.3899899 26.7193922 53.6910059 26.0204082 52.8287654 26.0204082L22.5269455 26.0204082C21.664705 26.0204082 20.965721 26.7193922 20.965721 27.5816327 20.965721 28.4438731 21.664705 29.1428571 22.5269455 29.1428571zM22.5269455 37.7295918L52.8287654 37.7295918C53.6910059 37.7295918 54.3899899 37.0306078 54.3899899 36.1683673 54.3899899 35.3061269 53.6910059 34.6071429 52.8287654 34.6071429L22.5269455 34.6071429C21.664705 34.6071429 20.965721 35.3061269 20.965721 36.1683673 20.965721 37.0306078 21.664705 37.7295918 22.5269455 37.7295918zM31.614771 46.3596939L52.8287654 46.3596939C53.6910059 46.3596939 54.3899899 45.6607099 54.3899899 44.7984694 54.3899899 43.9362289 53.6910059 43.2372449 52.8287654 43.2372449L31.614771 43.2372449C30.7525305 43.2372449 30.0535465 43.9362289 30.0535465 44.7984694 30.0535465 45.6607099 30.7525305 46.3596939 31.614771 46.3596939z"
      id="Fill-2" class="theme-icon-secondary-color"/>
      <path fill="#00A77E" d="M3.90306122,10.1479592 C3.47194099,10.1479592 3.12244898,10.4974512 3.12244898,10.9285714 L3.12244898,52.4980164 C3.12244898,52.9291366 3.47194099,53.2786286 3.90306122,53.2786286 L58.5459184,53.2786286 C58.9770386,53.2786286 59.3265306,52.9291366 59.3265306,52.4980164 L59.3265306,10.9285714 C59.3265306,10.4974512 58.9770386,10.1479592 58.5459184,10.1479592 L3.90306122,10.1479592 Z M3.90306122,7.0255102 L58.5459184,7.0255102 C60.7015196,7.0255102 62.4489796,8.77297024 62.4489796,10.9285714 L62.4489796,52.4980164 C62.4489796,54.6536176 60.7015196,56.4010776 58.5459184,56.4010776 L3.90306122,56.4010776 C1.74746003,56.4010776 0,54.6536176 0,52.4980164 L0,10.9285714 C0,8.77297024 1.74746003,7.0255102 3.90306122,7.0255102 Z"
      id="Fill-3" class="theme-icon-secondary-color"/>
      <path fill="#00A77E" d="M1.94767917,19.7755102 L60.500376,19.7755102 C61.3626165,19.7755102 62.0616005,19.0765262 62.0616005,18.2142857 C62.0616005,17.3520452 61.3626165,16.6530612 60.500376,16.6530612 L1.94767917,16.6530612 C1.08543869,16.6530612 0.38645468,17.3520452 0.38645468,18.2142857 C0.38645468,19.0765262 1.08543869,19.7755102 1.94767917,19.7755102 Z"
      id="Fill-4" class="theme-icon-secondary-color"/>
    </g>
    <circle cx="58.531" cy="54.029" r="19" fill="#FFF" id="Fill-5" class="theme-icon-fill-color"/>
    <path fill="#00A77E" d="M47.6526244 52.0879569C46.5332043 52.0879569 45.6171246 52.9619569 45.6171246 54.0289569 45.6171246 55.0969569 46.5332043 55.9709569 47.6526244 55.9709569L59.4104237 55.9709569C60.5287957 55.9709569 61.4448754 55.0969569 61.4448754 54.0289569 61.4448754 52.9619569 60.5287957 52.0879569 59.4104237 52.0879569L47.6526244 52.0879569zM47.4723276 44.4975431C46.4520615 44.4975431 45.6171246 45.3715431 45.6171246 46.4385431 45.6171246 47.5065431 46.4520615 48.3805431 47.4723276 48.3805431L55.7628769 48.3805431C56.7821877 48.3805431 57.6171246 47.5065431 57.6171246 46.4395431 57.6171246 45.3715431 56.7821877 44.4975431 55.7628769 44.4975431L47.4723276 44.4975431zM47.4723276 59.6783707C46.4520615 59.6783707 45.6171246 60.5523707 45.6171246 61.6193707 45.6171246 62.6873707 46.4520615 63.5613707 47.4723276 63.5613707L69.5906277 63.5613707C70.6099385 63.5613707 71.4448754 62.6873707 71.4448754 61.6203707 71.4448754 60.5523707 70.6099385 59.6783707 69.5906277 59.6783707L47.4723276 59.6783707z"
    id="Fill-6" class="theme-icon-secondary-color"/>
    <path fill="#0099BF" d="M58.531,32.5609569 C46.675,32.5609569 37.062,42.1729569 37.062,54.0289569 C37.062,65.8869569 46.675,75.4979569 58.531,75.4979569 C70.388,75.4979569 80,65.8869569 80,54.0289569 C80,42.1729569 70.388,32.5609569 58.531,32.5609569 M58.531,36.0294569 C68.4568114,36.0294569 76.531,44.1038766 76.531,54.0289417 C76.531,63.9550372 68.4568114,72.0294569 58.531,72.0294569 C48.606219,72.0294569 40.531,63.9550372 40.531,54.0289417 C40.531,44.1038766 48.606219,36.0294569 58.531,36.0294569"
    id="Fill-7" class="theme-icon-secondary-color"/>
  </g>
</svg>
