<svg xmlns="http://www.w3.org/2000/svg" width="78" height="57" viewBox="0 0 78 57">
  <g fill="none" Fill-rule="evenodd" transform="translate(-1 -12)">
    <rect width="80" height="80"/>
    <g transform="translate(0 10)">
      <rect width="60.38" height="7.716" x="8.894" y="45.299" fill="#FFF" rx="3.858"/>
      <path fill="#00A77E" Fill-rule="nonzero" d="M65.2471548,44 L12.6847204,44 C9.80246628,44 7.46593763,46.2385763 7.46593763,49 C7.46593763,51.7614237 9.80246628,54 12.6847204,54 L65.2471548,54 C68.129409,54 70.4659376,51.7614237 70.4659376,49 C70.4659376,46.2385763 68.129409,44 65.2471548,44 Z M12.6847204,46.7259364 L65.2471548,46.7259364 C66.5580407,46.7259364 67.6207237,47.7440693 67.6207237,49 C67.6207237,50.2559307 66.5580407,51.2740636 65.2471548,51.2740636 L12.6847204,51.2740636 C11.3738346,51.2740636 10.3111516,50.2559307 10.3111516,49 C10.3111516,47.7440693 11.3738346,46.7259364 12.6847204,46.7259364 Z"
      id="Fill-1" class="theme-icon-secondary-color"/>
      <path fill="#FFF" d="M10.2347403,13.9222935 L51.5222363,14.173458 C53.1226614,14.1831939 54.4160676,15.4811905 54.4201335,17.0816401 L54.4787989,40.1741289 L54.4787989,40.1741289 L47.7167589,45.6499209 L10.3550181,45.422638 C8.75860032,45.4129265 7.46685157,44.1211575 7.45716512,42.5247396 L7.3014145,16.8555733 C7.29164421,15.2453378 8.58907765,13.9320636 10.1993132,13.9222933 C10.2111221,13.9222216 10.2229314,13.9222217 10.2347403,13.9222935 Z" transform="rotate(39 30.881 29.777)"
      id="Fill-2" class="theme-icon-Fill-color"/>
      <path fill="#0099BF" Fill-rule="nonzero" d="M50.7631146,12.5035709 L9.63549508,12.5035709 C7.25648355,12.5035709 5.32791365,14.4562479 5.32791365,16.8649971 L5.32791365,42.6892642 C5.32791365,45.0980133 7.25648355,47.0506904 9.63549508,47.0506904 L47.305383,47.0506904 L54.9872925,40.7522441 L55.0706938,16.8675534 C55.0706938,14.4562479 53.1421262,12.5035709 50.7631146,12.5035709 Z M50.7631146,15.3951371 C51.5648739,15.3951371 52.2148124,16.0532158 52.2148124,16.8727513 L52.1366028,39.3679624 L46.294449,44.1583239 L9.63549508,44.1591241 C8.83373585,44.1591241 8.18378157,43.5010454 8.18378157,42.6892642 L8.18378157,16.8649971 C8.18378157,16.0532158 8.83373585,15.3951371 9.63549508,15.3951371 L50.7631146,15.3951371 Z" transform="rotate(39 30.2 29.777)"
      id="Fill-3" class="theme-icon-secondary-color"/>
      <path fill="#00A77E" Fill-rule="nonzero" d="M40.6160562,38.9096864 L34.0439176,38.9096864 C32.5736977,38.9096864 31.381849,40.1164332 31.381849,41.6050309 L31.381849,45.7702352 C31.381849,47.2588329 32.5736977,48.4655797 34.0439176,48.4655797 L40.6160562,48.4655797 C42.0862761,48.4655797 43.2781248,47.2588329 43.2781248,45.7702352 L43.2781248,41.6050309 C43.2781248,40.1164332 42.0862761,38.9096864 40.6160562,38.9096864 Z M40.4219545,41.8004819 L40.4219545,45.5739759 L34.2370965,45.5739759 L34.2370965,41.8004819 L40.4219545,41.8004819 Z" transform="rotate(39 37.33 43.688)"
      id="Fill-4" class="theme-icon-secondary-color"/>
      <polygon fill="#0099BF" Fill-rule="nonzero" points="15.815 9.019 17.613 6.772 55.961 38.214 54.164 40.461"
      id="Fill-5" class="theme-icon-secondary-color"/>
      <polygon fill="#0099BF" Fill-rule="nonzero" points="12.062 13.713 13.859 11.466 52.207 42.908 50.41 45.155"
      id="Fill-6" class="theme-icon-secondary-color"/>
      <polygon fill="#00A77E" Fill-rule="nonzero" points="10.759 24.797 12.597 22.584 17.311 26.597 15.473 28.811"
      id="Fill-7" class="theme-icon-secondary-color"/>
      <polygon fill="#00A77E" Fill-rule="nonzero" points="23.914 35.974 25.752 33.761 30.466 37.774 28.628 39.987"
      id="Fill-8" class="theme-icon-secondary-color"/>
      <polygon fill="#00A77E" Fill-rule="nonzero" points="17.337 30.386 19.174 28.172 23.889 32.186 22.051 34.399"
      id="Fill-9" class="theme-icon-secondary-color"/>
    </g>
    <g transform="translate(49.502 39.216)">
      <ellipse cx="14.583" cy="14.765" fill="#FFF" rx="12.851" ry="13.012" id="Ellipse-1" class="theme-icon-Fill-color"/>
      <path fill="#00A77E" d="M21.2778111,18.1365779 C21.9487284,18.1365779 22.4982895,18.7325758 22.4982895,19.460866 C22.4982895,20.1884744 21.9487284,20.7844722 21.2778111,20.7844722 L21.2778111,20.7844722 L6.7193966,20.7844722 C6.04785055,20.7844722 5.49828945,20.1884744 5.49828945,19.4601841 C5.49828945,18.7325758 6.04785055,18.1365779 6.7193966,18.1365779 L6.7193966,18.1365779 Z M14.5771321,12.9605251 C15.3132521,12.9605251 15.9162219,13.5565229 15.9162219,14.2841313 C15.9162219,15.0124215 15.3132521,15.6084194 14.5771321,15.6084194 L14.5771321,15.6084194 L6.83806918,15.6084194 C6.10125932,15.6084194 5.49828945,15.0124215 5.49828945,14.2841313 C5.49828945,13.5565229 6.10125932,12.9605251 6.83806918,12.9605251 L6.83806918,12.9605251 Z M12.1762921,7.78447222 C12.8472094,7.78447222 13.3967705,8.38047006 13.3967705,9.10876032 C13.3967705,9.83636866 12.8472094,10.4323665 12.1762921,10.4323665 L12.1762921,10.4323665 L6.7193966,10.4323665 C6.04785055,10.4323665 5.49828945,9.83636866 5.49828945,9.1080784 C5.49828945,8.38047006 6.04785055,7.78447222 6.7193966,7.78447222 L6.7193966,7.78447222 Z"
      id="Fill-10" class="theme-icon-secondary-color"/>
      <path fill="#0099BF" d="M14.5833638,1.79185376e-13 C6.52987455,1.79185376e-13 -1.76973211e-13,6.61081021 -1.76973211e-13,14.7649681 C-1.76973211e-13,22.9205016 6.52987455,29.530624 14.5833638,29.530624 C22.6375324,29.530624 29.1667277,22.9205016 29.1667277,14.7649681 C29.1667277,6.61081021 22.6375324,1.79185376e-13 14.5833638,1.79185376e-13 M14.5833638,2.71711924 C21.1451246,2.71711924 26.4828135,8.12168395 26.4828135,14.7649672 C26.4828135,21.4089401 21.1451246,26.8135048 14.5833638,26.8135048 C8.02228428,26.8135048 2.6839142,21.4089401 2.6839142,14.7649672 C2.6839142,8.12168395 8.02228428,2.71711924 14.5833638,2.71711924"
      id="Fill-11" class="theme-icon-secondary-color"/>
    </g>
  </g>
</svg>
