<svg xmlns="http://www.w3.org/2000/svg" width="80" height="80" viewBox="0 0 80 80">
  <g fill="none" fill-rule="evenodd" transform="translate(0 4)">
    <path fill="#00A77E" fill-rule="nonzero" d="M7,20.5 C5.06700338,20.5 3.5,22.0670034 3.5,24 L3.5,54.625 C3.5,56.5579966 5.06700338,58.125 7,58.125 L55.125,58.125 C57.0579966,58.125 58.625,56.5579966 58.625,54.625 L58.625,24 C58.625,22.0670034 57.0579966,20.5 55.125,20.5 L7,20.5 Z M7,17 L55.125,17 C58.9909932,17 62.125,20.1340068 62.125,24 L62.125,54.625 C62.125,58.4909932 58.9909932,61.625 55.125,61.625 L7,61.625 C3.13400675,61.625 0,58.4909932 0,54.625 L0,24 C0,20.1340068 3.13400675,17 7,17 Z"
    id="Fill-1" class="theme-icon-secondary-color"/>
    <path fill="#FFF" d="M12.25,13.5 L51.6171246,3.5 L58.625,24.4552471 L60.1278161,58.125 L6.5,58.125 C4.84314575,58.125 3.5,56.7818542 3.5,55.125 L3.5,23.5 C3.5,21.8431458 4.84314575,20.5 6.5,20.5 L14.196908,20.5 L14.196908,20.5 L12.25,13.5 Z"
    id="Fill-2" class="theme-icon-icon-color"/>
    <path fill="#FFF" fill-rule="nonzero" d="M13.8817921,13.6665181 C13.4150093,13.7915922 13.1379996,14.271387 13.2630737,14.7381699 L18.9680627,36.0294787 C19.0931368,36.4962615 19.5729316,36.7732712 20.0397145,36.6481971 L56.0668594,26.9947527 C56.5336422,26.8696786 56.8106519,26.3898838 56.6855778,25.9231009 L50.9805888,4.63179215 C50.8555147,4.16500931 50.3757199,3.88799963 49.9089371,4.01307371 L13.8817921,13.6665181 Z M54.3613292,3.72592549 L55.842173,9.25317296 L58.6280704,8.50733332 C60.9619846,7.8819629 63.3609588,9.26701129 63.9863292,11.6009255 L69.6913182,32.8922343 C70.3166886,35.2261485 68.9316403,37.6251227 66.5977261,38.2504931 L30.5705811,47.9039375 C28.2366669,48.5293079 25.8376927,47.1442595 25.2123223,44.8103453 L23.731173,39.282173 L20.9455811,40.0289375 C18.6116669,40.6543079 16.2126927,39.2692595 15.5873223,36.9353453 L9.88233332,15.6440365 C9.2569629,13.3101223 10.6420113,10.9111481 12.9759255,10.2857777 L49.0030704,0.632333322 C51.3369846,0.00696289668 53.7359588,1.39201129 54.3613292,3.72592549 Z"
    id="Fill-3" class="theme-icon-icon-color"/>
    <path fill="#0099BF" fill-rule="nonzero" d="M54.3613292,3.72592549 L55.842173,9.25317296 L58.6280704,8.50733332 C60.9619846,7.8819629 63.3609588,9.26701129 63.9863292,11.6009255 L69.6913182,32.8922343 C70.3166886,35.2261485 68.9316403,37.6251227 66.5977261,38.2504931 L30.5705811,47.9039375 C28.2366669,48.5293079 25.8376927,47.1442595 25.2123223,44.8103453 L23.731173,39.282173 L20.9455811,40.0289375 C18.6116669,40.6543079 16.2126927,39.2692595 15.5873223,36.9353453 L9.88233332,15.6440365 C9.2569629,13.3101223 10.6420113,10.9111481 12.9759255,10.2857777 L49.0030704,0.632333322 C51.3369846,0.00696289668 53.7359588,1.39201129 54.3613292,3.72592549 Z M59.5339371,11.8880737 L56.748173,12.633173 L60.0663182,25.0172343 C60.6916886,27.3511485 59.3066403,29.7501227 56.9727261,30.3754931 L27.111173,38.376173 L28.5930627,43.9044787 C28.7181368,44.3712615 29.1979316,44.6482712 29.6647145,44.5231971 L65.6918594,34.8697527 C66.1586422,34.7446786 66.4356519,34.2648838 66.3105778,33.7981009 L60.6055888,12.5067921 C60.4805147,12.0400093 60.0007199,11.7629996 59.5339371,11.8880737 Z M49.9089371,4.01307371 L13.8817921,13.6665181 C13.4150093,13.7915922 13.1379996,14.271387 13.2630737,14.7381699 L18.9680627,36.0294787 C19.0931368,36.4962615 19.5729316,36.7732712 20.0397145,36.6481971 L22.825173,35.901173 L19.5073333,23.5190365 C18.8819629,21.1851223 20.2670113,18.7861481 22.6009255,18.1607777 L52.461173,10.159173 L50.9805888,4.63179215 C50.8555147,4.16500931 50.3757199,3.88799963 49.9089371,4.01307371 Z M53.367173,13.539173 L23.5067921,21.5415181 C23.0400093,21.6665922 22.7629996,22.146387 22.8880737,22.6131699 L26.205173,34.996173 L56.0668594,26.9947527 C56.5336422,26.8696786 56.8106519,26.3898838 56.6855778,25.9231009 L53.367173,13.539173 Z"
    id="Fill-4" class="theme-icon-secondary-color"/>
    <path fill="#FFF" d="M58.531,35.5315 C69.0244102,35.5315 77.531,44.0380898 77.531,54.5315 C77.531,65.0249102 69.0244102,73.5315 58.531,73.5315 C48.0375898,73.5315 39.531,65.0249102 39.531,54.5315 C39.531,44.0380898 48.0375898,35.5315 58.531,35.5315 Z M58.0462095,12.2654071 L62.125,25.75 L62.125,30.3591122 C58.7443779,31.281323 54.5754859,32.8282288 49.6183241,34.9998295 C44.6611623,37.1714302 40.6604709,41.850244 37.61625,49.0362708 L12.2950538,48.4528173 L12.2950538,29.3044534 L23.934043,25.75 C23.5142892,23.8230206 24.6573926,21.8998411 26.5506918,21.3476989 L52.1812323,13.873074 L58.0462095,12.2654071 Z"
    id="Fill-5" class="theme-icon-icon-color"/>
    <path fill="#00A77E" fill-rule="nonzero" d="M68.2051789,60.1295869 C69.1918219,60.1295869 70,61.0006606 70,62.0650849 C70,63.077873 69.2669587,63.9161906 68.3448459,63.9937338 L68.2051789,63.9995862 L46.7957458,63.9995862 C45.8081781,63.9995862 45,63.1285124 45,62.0640882 C45,61.0513 45.7330413,60.2129824 46.6559529,60.1354393 L46.7957458,60.1295869 L68.2051789,60.1295869 Z M58.3512392,52.5645865 C59.4337685,52.5645865 60.3204889,53.4356603 60.3204889,54.4990879 C60.3204889,55.5151292 59.5125474,56.3549978 58.4975782,56.4292503 L58.3512392,56.4345859 L46.9702643,56.4345859 C45.8867204,56.4345859 45,55.5635121 45,54.4990879 C45,53.4839979 45.8079415,52.6441725 46.8237931,52.569922 L46.9702643,52.5645865 L58.3512392,52.5645865 Z M60.375,25.75 C61.3414983,25.75 62.125,26.5335017 62.125,27.5 C62.125,28.4181734 61.4178897,29.1711923 60.5185272,29.2441988 L60.375,29.25 L12.25,29.25 L12.25,47.625 C12.25,48.5914983 11.4664983,49.375 10.5,49.375 C9.5818266,49.375 8.82880766,48.6678897 8.7558012,47.7685272 L8.75,47.625 L8.75,27.5 C8.75,26.5818266 9.45711027,25.8288077 10.3564728,25.7558012 L10.5,25.75 L60.375,25.75 Z M54.8205922,44.9995862 C55.8072352,44.9995862 56.6154133,45.87066 56.6154133,46.9350842 C56.6154133,47.9478723 55.8823719,48.7861899 54.9602591,48.8637331 L54.8205922,48.8695855 L46.7957458,48.8695855 C45.8081781,48.8695855 45,47.9985118 45,46.9340875 C45,45.9212994 45.7330413,45.0829818 46.6559529,45.0054386 L46.7957458,44.9995862 L54.8205922,44.9995862 Z M34.5566667,39.75 C36.2483333,39.75 37.61625,41.1208333 37.61625,42.8066667 C37.61625,44.4983333 36.2454167,45.86625 34.5566667,45.86625 C32.8679167,45.86625 31.5,44.4925 31.5,42.8066667 C31.5,41.1179167 32.87375,39.75 34.5566667,39.75 Z"
    id="Fill-6" class="theme-icon-secondary-color"/>
    <path fill="#0099BF" d="M58.531,33.063 C46.675,33.063 37.062,42.675 37.062,54.531 C37.062,66.389 46.675,76 58.531,76 C70.388,76 80,66.389 80,54.531 C80,42.675 70.388,33.063 58.531,33.063 M58.531,36.5315 C68.4568114,36.5315 76.531,44.6059197 76.531,54.5309848 C76.531,64.4570803 68.4568114,72.5315 58.531,72.5315 C48.606219,72.5315 40.531,64.4570803 40.531,54.5309848 C40.531,44.6059197 48.606219,36.5315 58.531,36.5315"
    id="Fill-7" class="theme-icon-secondary-color"/>
  </g>
</svg>
