<svg viewBox="0 0 80 80" version="1.1" xmlns="http://www.w3.org/2000/svg" xmlns:xlink="http://www.w3.org/1999/xlink">
  <defs></defs>
  <g id="_symbols " stroke="none" stroke-width="1" fill="none" fill-rule="evenodd">
    <g id="icon-mini-statement-preview" fill-rule="nonzero">
      <path
        d="M5,9 L75,9 C77.7614237,9 80,11.2385763 80,14 L80,67.2523609 C80,70.0137846 77.7614237,72.2523609 75,72.2523609 L5,72.2523609 C2.23857625,72.2523609 6.43929354e-15,70.0137846 0,67.2523609 L4.4408921e-16,14 C-4.4408921e-16,11.2385763 2.23857625,9 5,9 Z"
        id="bg-white" fill="#FFF" class="theme-icon-fill-color"></path>
      <path
        d="M12.494842,37.3333333 L18.5559371,37.3333333 C19.6605066,37.3333333 20.5559371,36.4379028 20.5559371,35.3333333 C20.5559371,34.2287638 19.6605066,33.3333333 18.5559371,33.3333333 L12.494842,33.3333333 C11.3902725,33.3333333 10.494842,34.2287638 10.494842,35.3333333 C10.494842,36.4379028 11.3902725,37.3333333 12.494842,37.3333333 Z"
        id="Line-Copy-6" fill="#0099BF" class="theme-icon-primary-color"></path>
      <path
        d="M12.494842,48.3333333 L18.5559371,48.3333333 C19.6605066,48.3333333 20.5559371,47.4379028 20.5559371,46.3333333 C20.5559371,45.2287638 19.6605066,44.3333333 18.5559371,44.3333333 L12.494842,44.3333333 C11.3902725,44.3333333 10.494842,45.2287638 10.494842,46.3333333 C10.494842,47.4379028 11.3902725,48.3333333 12.494842,48.3333333 Z"
        id="Line-Copy-9" fill="#0099BF" class="theme-icon-primary-color"></path>
      <path
        d="M28.8580478,37.3333333 L67.6760655,37.3333333 C68.780635,37.3333333 69.6760655,36.4379028 69.6760655,35.3333333 C69.6760655,34.2287638 68.780635,33.3333333 67.6760655,33.3333333 L28.8580478,33.3333333 C27.7534783,33.3333333 26.8580478,34.2287638 26.8580478,35.3333333 C26.8580478,36.4379028 27.7534783,37.3333333 28.8580478,37.3333333 Z"
        id="Line-Copy-7" fill="#0099BF" class="theme-icon-primary-color"></path>
      <path
        d="M28.8580478,48.3333333 L67.6760655,48.3333333 C68.780635,48.3333333 69.6760655,47.4379028 69.6760655,46.3333333 C69.6760655,45.2287638 68.780635,44.3333333 67.6760655,44.3333333 L28.8580478,44.3333333 C27.7534783,44.3333333 26.8580478,45.2287638 26.8580478,46.3333333 C26.8580478,47.4379028 27.7534783,48.3333333 28.8580478,48.3333333 Z"
        id="Line-Copy-10" fill="#0099BF" class="theme-icon-primary-color"></path>
      <path
        d="M40.4999681,59.3888889 L67.6760655,59.3888889 C68.780635,59.3888889 69.6760655,58.4934584 69.6760655,57.3888889 C69.6760655,56.2843194 68.780635,55.3888889 67.6760655,55.3888889 L40.4999681,55.3888889 C39.3953986,55.3888889 38.4999681,56.2843194 38.4999681,57.3888889 C38.4999681,58.4934584 39.3953986,59.3888889 40.4999681,59.3888889 Z"
        id="Line-Copy-11" fill="#0099BF" class="theme-icon-primary-color"></path>
      <path
        d="M5,13 C4.44771525,13 4,13.4477153 4,14 L4,67.2523609 C4,67.8046456 4.44771525,68.2523609 5,68.2523609 L75,68.2523609 C75.5522847,68.2523609 76,67.8046456 76,67.2523609 L76,14 C76,13.4477153 75.5522847,13 75,13 L5,13 Z M5,9 L75,9 C77.7614237,9 80,11.2385763 80,14 L80,67.2523609 C80,70.0137846 77.7614237,72.2523609 75,72.2523609 L5,72.2523609 C2.23857625,72.2523609 6.43929354e-15,70.0137846 0,67.2523609 L4.4408921e-16,14 C-4.4408921e-16,11.2385763 2.23857625,9 5,9 Z"
        id="Rectangle-2" fill="#00A77E" class="theme-icon-secondary-color"></path>
      <path
        d="M2.49506613,25.3333333 L77.5037497,25.3333333 C78.6083192,25.3333333 79.5037497,24.4379028 79.5037497,23.3333333 C79.5037497,22.2287638 78.6083192,21.3333333 77.5037497,21.3333333 L2.49506613,21.3333333 C1.39049663,21.3333333 0.495066126,22.2287638 0.495066126,23.3333333 C0.495066126,24.4379028 1.39049663,25.3333333 2.49506613,25.3333333 Z"
        id="Line-Copy-8" fill="#00A77E" class="theme-icon-secondary-color"></path>
    </g>
  </g>
</svg>
