<svg xmlns="http://www.w3.org/2000/svg" width="80" height="80" viewBox="0 0 80 80">
  <g fill="none" fill-rule="evenodd">
    <rect width="65.2" height="28.6" x="14.8" y="33.507" fill="#FFF" class="theme-icon-fill-color" rx="2"/>
    <path fill="#0099BF" class="theme-icon-primary-color" fill-rule="nonzero" d="M16.147033,31.8071323 C13.465145,31.8071323 11.967892,33.1506907 11.967892,35.8744693 L11.967892,62.0885984 C11.967892,64.7752357 13.8924173,65.8071323 15.1268403,65.8071323 C54.680735,65.8071323 75.193913,65.8071323 76.6663744,65.8071323 C78.8750663,65.8071323 79.967892,64.592188 79.967892,62.6420405 C79.921728,44.8881049 79.9020813,35.884029 79.908952,35.629813 C79.967892,33.4490213 78.6907015,31.8071323 76.1971627,31.8071323 L16.147033,31.8071323 Z M76.2361395,62.2314889 L16.147033,62.2314889 C15.6553597,62.2314889 15.4390745,62.0082425 15.4390745,61.4758026 L15.4390745,35.6161517 C15.4390745,35.3211885 15.4259491,35.3314436 16.147033,35.3314436 L76.1971627,35.3314436 C76.5046684,35.3314436 76.5673233,35.3535188 76.5376439,35.3236424 C76.4935958,35.2793016 76.5010383,35.2979309 76.5183072,35.4305648 C76.5386336,35.5866823 76.5442661,35.7455358 76.5442661,36.106781 L76.5442661,61.9357176 C76.5442661,62.0469172 76.5399966,62.141723 76.5333036,62.220267 C76.4513929,62.2273503 76.3523679,62.2314889 76.2361395,62.2314889 Z"/>
    <rect width="57" height="35.769" x="1.5" y="14.308" fill="#FFF" class="theme-icon-fill-color" rx="3"/>
    <path fill="#0099BF" class="theme-icon-primary-color" d="M56.6695628,46.9592605 C56.6695628,47.5050999 56.2239963,47.95039 55.67712,47.95039 L4.32189636,47.95039 C3.77502008,47.95039 3.33043721,47.5050999 3.33043721,46.9592605 L3.33043721,18.4264749 C3.33043721,17.8796778 3.77502008,17.4353454 4.32189636,17.4353454 L55.67712,17.4353454 C56.2239963,17.4353454 56.6695628,17.8796778 56.6695628,18.4264749 L56.6695628,46.9592605 Z M4.32189636,14.1928677 C1.93865674,14.1928677 0,16.0927719 0,18.4264749 L0,46.9592605 C0,49.2939211 1.93865674,51.1928677 4.32189636,51.1928677 L55.67712,51.1928677 C58.0603597,51.1928677 60,49.2939211 60,46.9592605 L60,18.4264749 C60,16.0927719 58.0603597,14.1928677 55.67712,14.1928677 L4.32189636,14.1928677 Z"/>
    <path fill="#00A77E" class="theme-icon-secondary-color" d="M71.6037525,54.7796116 C72.5515455,54.7796116 73.3261211,55.5550044 73.3261211,56.5019803 C73.3261211,57.4497733 72.5515455,58.224349 71.6037525,58.224349 L71.6037525,58.224349 L32.5620336,58.224349 C31.6142406,58.224349 30.8388479,57.4497733 30.8388479,56.5019803 C30.8388479,55.5550044 31.6142406,54.7796116 32.5620336,54.7796116 L32.5620336,54.7796116 Z M71.7320718,46.8299058 C72.6092527,46.8299058 73.3261211,47.6052986 73.3261211,48.5522745 C73.3261211,49.4992505 72.6092527,50.2746432 71.7320718,50.2746432 L71.7320718,50.2746432 L62.8052443,50.2746432 C61.9280634,50.2746432 61.2111949,49.4992505 61.2111949,48.5522745 C61.2111949,47.6052986 61.9280634,46.8299058 62.8052443,46.8299058 L62.8052443,46.8299058 Z M50.3897845,39.5054915 C51.3247845,39.5054915 52.0817845,40.2634915 52.0817845,41.1984915 C52.0817845,42.1334915 51.3247845,42.8914915 50.3897845,42.8914915 L50.3897845,42.8914915 L44.9457845,42.8914915 C44.0097845,42.8914915 43.2517845,42.1334915 43.2517845,41.1984915 C43.2517845,40.2634915 44.0097845,39.5054915 44.9457845,39.5054915 L44.9457845,39.5054915 Z M15.138,39.2692677 C16.073,39.2692677 16.831,40.0272677 16.831,40.9612677 C16.831,41.8962677 16.073,42.6542677 15.138,42.6542677 L15.138,42.6542677 L9.693,42.6542677 C8.759,42.6542677 8,41.8962677 8,40.9612677 C8,40.0272677 8.759,39.2692677 9.693,39.2692677 L9.693,39.2692677 Z M30.0418922,22.6874915 C35.4428922,22.6874915 39.8358922,27.1104915 39.8358922,32.5464915 C39.8358922,37.9834915 35.4428922,42.4064915 30.0418922,42.4064915 C24.6408922,42.4064915 20.2468922,37.9834915 20.2468922,32.5464915 C20.2468922,27.1104915 24.6408922,22.6874915 30.0418922,22.6874915 Z M30.0418922,26.0734915 C26.5068922,26.0734915 23.6328922,28.9764915 23.6328922,32.5464915 C23.6328922,36.1164915 26.5068922,39.0204915 30.0418922,39.0204915 C33.5768922,39.0204915 36.4508922,36.1164915 36.4508922,32.5464915 C36.4508922,28.9764915 33.5768922,26.0734915 30.0418922,26.0734915 Z M50.3894845,22.2024915 C51.3244845,22.2024915 52.0824845,22.9614915 52.0824845,23.8964915 C52.0824845,24.8304915 51.3244845,25.5884915 50.3894845,25.5884915 L50.3894845,25.5884915 L44.9454845,25.5884915 C44.0094845,25.5884915 43.2524845,24.8304915 43.2524845,23.8964915 C43.2524845,22.9614915 44.0094845,22.2024915 44.9454845,22.2024915 L44.9454845,22.2024915 Z M15.137,22.1928677 C16.072,22.1928677 16.83,22.9518677 16.83,23.8868677 C16.83,24.8208677 16.072,25.5788677 15.137,25.5788677 L15.137,25.5788677 L9.693,25.5788677 C8.758,25.5788677 8,24.8208677 8,23.8868677 C8,22.9518677 8.758,22.1928677 9.693,22.1928677 L9.693,22.1928677 Z"/>
  </g>
</svg>
