<svg xmlns="http://www.w3.org/2000/svg" width="80" height="80" viewBox="0 0 80 80">
  <g fill="#007A98" fill-rule="evenodd">
    <path fill-rule="nonzero" d="M76.1971627,31.8071323 C78.6907015,31.8071323 79.967892,33.4490213 79.908952,35.629813 C79.9020813,35.884029 79.921728,44.8881049 79.967892,62.6420405 C79.967892,64.592188 78.8750663,65.8071323 76.6663744,65.8071323 L76.6663744,65.8071323 L15.1268403,65.8071323 C13.8924173,65.8071323 11.967892,64.7752357 11.967892,62.0885984 L11.967892,62.0885984 L11.967,50.2741323 L16.667,50.2741323 L16.667892,60.3925008 C16.667892,60.8839838 16.8507674,61.112012 17.2620925,61.144185 L17.3697095,61.1481871 L74.9625733,61.1481871 C75.0777425,61.1481871 75.1758651,61.1440486 75.2570294,61.1369652 C75.2636614,61.0584213 75.267892,60.9636154 75.267892,60.8524158 L75.267892,60.8524158 L75.2675242,37.1277697 C75.2660003,36.8642038 75.2594336,36.7283787 75.2421697,36.5945636 C75.2393178,36.572458 75.2367363,36.5535191 75.2346165,36.5375108 L75.23,36.5021323 L75.2179331,36.5027455 C75.1804835,36.5014073 75.1195416,36.4979684 75.0271378,36.4963326 L74.9239516,36.4954425 L59,36.4951323 L59,31.8071323 Z"/>
    <path d="M54.95,45.409411 C54.95,45.8959523 54.5331621,46.2928677 54.0215466,46.2928677 L5.97753324,46.2928677 C5.46591768,46.2928677 5.05,45.8959523 5.05,45.409411 L5.05,19.9763244 C5.05,19.4889295 5.46591768,19.0928677 5.97753324,19.0928677 L54.0215466,19.0928677 C54.5331621,19.0928677 54.95,19.4889295 54.95,19.9763244 L54.95,45.409411 Z M4.32189636,14.1928677 C1.93865674,14.1928677 0,16.0927719 0,18.4264749 L0,46.9592605 C0,49.2939211 1.93865674,51.1928677 4.32189636,51.1928677 L55.67712,51.1928677 C58.0603597,51.1928677 60,49.2939211 60,46.9592605 L60,18.4264749 C60,16.0927719 58.0603597,14.1928677 55.67712,14.1928677 L4.32189636,14.1928677 Z"/>
    <path d="M70.6037525,53.8748695 C71.5515455,53.8748695 72.3261211,54.775249 72.3261211,55.8748695 C72.3261211,56.9754387 71.5515455,57.8748695 70.6037525,57.8748695 L70.6037525,57.8748695 L32.5620336,57.8748695 C31.6142406,57.8748695 30.8388479,56.9754387 30.8388479,55.8748695 C30.8388479,54.775249 31.6142406,53.8748695 32.5620336,53.8748695 L32.5620336,53.8748695 Z M70.7320718,46.2795728 C71.6092527,46.2795728 72.3261211,47.1799523 72.3261211,48.2795728 C72.3261211,49.3791933 71.6092527,50.2795728 70.7320718,50.2795728 L70.7320718,50.2795728 L62.8052443,50.2795728 C61.9280634,50.2795728 61.2111949,49.3791933 61.2111949,48.2795728 C61.2111949,47.1799523 61.9280634,46.2795728 62.8052443,46.2795728 L62.8052443,46.2795728 Z M50.5272092,38.8914915 C51.4802103,38.8914915 52.2517845,39.7869433 52.2517845,40.8914915 C52.2517845,41.9960396 51.4802103,42.8914915 50.5272092,42.8914915 L50.5272092,42.8914915 L44.9783983,42.8914915 C44.0243779,42.8914915 43.2517845,41.9960396 43.2517845,40.8914915 C43.2517845,39.7869433 44.0243779,38.8914915 44.9783983,38.8914915 L44.9783983,38.8914915 Z M15.2746008,38.8914915 C16.2274941,38.8914915 17,39.7872079 17,40.8909006 C17,41.9957751 16.2274941,42.8914915 15.2746008,42.8914915 L15.2746008,42.8914915 L9.72539916,42.8914915 C8.77352508,42.8914915 8,41.9957751 8,40.8909006 C8,39.7872079 8.77352508,38.8914915 9.72539916,38.8914915 L9.72539916,38.8914915 Z M30.0005,22.8333677 C35.4015,22.8333677 39.7945,27.2563677 39.7945,32.6923677 C39.7945,38.1293677 35.4015,42.5523677 30.0005,42.5523677 C24.5995,42.5523677 20.2055,38.1293677 20.2055,32.6923677 C20.2055,27.2563677 24.5995,22.8333677 30.0005,22.8333677 Z M30,26.6928677 C26.6905914,26.6928677 24,29.3835296 24,32.6924043 C24,36.0012789 26.6905914,38.6928677 30,38.6928677 C33.3094086,38.6928677 36,36.0012789 36,32.6924043 C36,29.3835296 33.3094086,26.6928677 30,26.6928677 Z M15.2744054,22.1621894 C16.2274066,22.1621894 17,23.0588226 17,24.1633707 C17,25.2667375 16.2274066,26.1621894 15.2744054,26.1621894 L15.2744054,26.1621894 L9.72559456,26.1621894 C8.77259343,26.1621894 8,25.2667375 8,24.1633707 C8,23.0588226 8.77259343,22.1621894 9.72559456,22.1621894 L9.72559456,22.1621894 Z M50.5268899,22.1621894 C51.4798911,22.1621894 52.2524845,23.0588226 52.2524845,24.1633707 C52.2524845,25.2667375 51.4798911,26.1621894 50.5268899,26.1621894 L50.5268899,26.1621894 L44.9780791,26.1621894 C44.0240587,26.1621894 43.2524845,25.2667375 43.2524845,24.1633707 C43.2524845,23.0588226 44.0240587,22.1621894 44.9780791,22.1621894 L44.9780791,22.1621894 Z"/>
  </g>
</svg>
