<svg viewBox="0 0 80 80" version="1.1" xmlns="http://www.w3.org/2000/svg" xmlns:xlink="http://www.w3.org/1999/xlink">
  <title>icon-more</title>
  <desc></desc>
  <g id="icon-more" stroke="none" stroke-width="1" fill="none" fill-rule="evenodd">
    <path d="M26.5714286,36.1428571 L26.5714286,44.4285714 C26.5714286,45.5793708 26.1686548,46.5575357 25.3630952,47.3630952 C24.5575357,48.1686548 23.5793708,48.5714286 22.4285714,48.5714286 L14.1428571,48.5714286 C12.9920577,48.5714286 12.0138929,48.1686548 11.2083333,47.3630952 C10.4027737,46.5575357 10,45.5793708 10,44.4285714 L10,36.1428571 C10,34.9920577 10.4027737,34.0138929 11.2083333,33.2083333 C12.0138929,32.4027738 12.9920577,32 14.1428571,32 L22.4285714,32 C23.5793708,32 24.5575357,32.4027738 25.3630952,33.2083333 C26.1686548,34.0138929 26.5714286,34.9920577 26.5714286,36.1428571 Z" id="Path" fill="#007A98" class="theme-icon-color"></path>
    <path d="M48.6666667,36.1428571 L48.6666667,44.4285714 C48.6666667,45.5793708 48.2638929,46.5575357 47.4583333,47.3630952 C46.6527737,48.1686548 45.6746089,48.5714286 44.5238095,48.5714286 L36.2380952,48.5714286 C35.0872958,48.5714286 34.109131,48.1686548 33.3035714,47.3630952 C32.4980118,46.5575357 32.0952381,45.5793708 32.0952381,44.4285714 L32.0952381,36.1428571 C32.0952381,34.9920577 32.4980118,34.0138929 33.3035714,33.2083333 C34.109131,32.4027738 35.0872958,32 36.2380952,32 L44.5238095,32 C45.6746089,32 46.6527737,32.4027738 47.4583333,33.2083333 C48.2638929,34.0138929 48.6666667,34.9920577 48.6666667,36.1428571 Z" id="Path" fill="#007A98" class="theme-icon-color"></path>
    <path d="M70.7619048,36.1428571 L70.7619048,44.4285714 C70.7619048,45.5793708 70.359131,46.5575357 69.5535714,47.3630952 C68.7480118,48.1686548 67.769847,48.5714286 66.6190476,48.5714286 L58.3333333,48.5714286 C57.1825339,48.5714286 56.2043691,48.1686548 55.3988095,47.3630952 C54.5932499,46.5575357 54.1904762,45.5793708 54.1904762,44.4285714 L54.1904762,36.1428571 C54.1904762,34.9920577 54.5932499,34.0138929 55.3988095,33.2083333 C56.2043691,32.4027738 57.1825339,32 58.3333333,32 L66.6190476,32 C67.769847,32 68.7480118,32.4027738 69.5535714,33.2083333 C70.359131,34.0138929 70.7619048,34.9920577 70.7619048,36.1428571 Z" id="Path" fill="#007A98" class="theme-icon-color"></path>
  </g>
</svg>
