<svg viewBox="0 0 80 80" version="1.1" xmlns="http://www.w3.org/2000/svg" xmlns:xlink="http://www.w3.org/1999/xlink">
  <defs></defs>
  <g id="ICON-/-icon-no-receipt" stroke="none" stroke-width="1" fill="none" fill-rule="evenodd">
    <circle id="Oval-2" fill="#FFF" class="theme-icon-fill-color" cx="40" cy="40" r="40"></circle>
    <path d="M64.5001761,40.8821843 C65.8731163,40.8821843 67,41.9709982 67,43.3144476 L67,56.1388794 C67,57.4818802 65.8729111,58.5711427 64.5001761,58.5711427 L61.0998528,58.5711427 L61.0998528,61.8777015 C61.0998528,63.2250155 59.9769688,64.3099649 58.6000289,64.3099649 L21.1019973,64.3099649 C19.7250575,64.3099649 18.6021734,63.2250155 18.6021734,61.8777015 L18.6021734,58.5711427 L15.4998239,58.5711427 C14.1275503,58.5711427 13,57.4816847 13,56.1388794 L13,43.3144476 C13,41.9711936 14.1273451,40.8821843 15.4998239,40.8821843 L22.2758499,40.8821843 L22.2758499,14.4322633 C22.2758499,13.0853977 23.3989394,12 24.7756738,12 L46.7755858,12 L58.4280881,23.3421192 L58.4280881,40.8821843 L64.5001761,40.8821843 Z" id="Combined-Shape" fill="#FFF" class="theme-icon-fill-color"></path>
    <path d="M64.5001761,40.8821843 C65.8731163,40.8821843 67,41.9709982 67,43.3144476 L67,56.1388794 C67,57.4818802 65.8729111,58.5711427 64.5001761,58.5711427 L61.0998528,58.5711427 L61.0998528,61.8777015 C61.0998528,63.2250155 59.9769688,64.3099649 58.6000289,64.3099649 L21.1019973,64.3099649 C19.7250575,64.3099649 18.6021734,63.2250155 18.6021734,61.8777015 L18.6021734,58.5711427 L15.4998239,58.5711427 C14.1275503,58.5711427 13,57.4816847 13,56.1388794 L13,43.3144476 C13,41.9711936 14.1273451,40.8821843 15.4998239,40.8821843 L22.2758499,40.8821843 L22.2758499,14.4322633 C22.2758499,13.0853977 23.3989394,12 24.7756738,12 L46.7755858,12 L58.4280881,23.3421192 L58.4280881,40.8821843 L64.5001761,40.8821843 Z M44.7875713,15.8821843 L25.5,15.8821843 L25.5,40.8821843 L55.5,40.8821843 L55.5,25.9288274 L45.5445641,25.9288274 C45.1228009,25.9288274 44.7875713,25.5900061 44.7875713,25.1797772 L44.7875713,15.8821843 Z M47.7376961,22.5714127 L52.4452263,22.5714127 L47.7376961,17.9894803 L47.7376961,22.5714127 Z M63.3335681,54.9947916 L63.3335681,44.4585354 L16.6664319,44.4585354 L16.6664319,54.9947916 L63.3335681,54.9947916 Z M57.433421,60.7336137 L57.433421,58.5711427 L22.2686053,58.5711427 L22.2686053,60.7336137 L57.433421,60.7336137 Z" id="printer" fill="#00A77E" class="outline"></path>
    <path d="M57.4988078,52 C58.8793515,52 60,50.8817358 60,49.4988078 C60,48.1206485 58.8817358,47 57.4988078,47 C56.1230329,47 55,48.1182642 55,49.4988078 C55,50.8769671 56.1182642,52 57.4988078,52 L57.4988078,52 Z" id="Path" fill="#00A77E" class="outline"></path>
    <path d="M40,76 C59.882251,76 76,59.882251 76,40 C76,20.117749 59.882251,4 40,4 C20.117749,4 4,20.117749 4,40 C4,59.882251 20.117749,76 40,76 Z M40,80 C17.90861,80 0,62.09139 0,40 C0,17.90861 17.90861,0 40,0 C62.09139,0 80,17.90861 80,40 C80,62.09139 62.09139,80 40,80 Z" id="Oval-10" fill="#0099BF" fill-rule="nonzero" class="outline"></path>
    <path d="M15.9025306,68.907378 C15.121482,69.6884266 13.855152,69.6884266 13.0741034,68.907378 C12.2930549,68.1263294 12.2930549,66.8599995 13.0741034,66.0789509 L65.576528,13.5765264 C66.3575766,12.7954778 67.6239065,12.7954778 68.4049551,13.5765264 C69.1860037,14.3575749 69.1860037,15.6239049 68.4049551,16.4049535 L15.9025306,68.907378 Z" id="Line" fill="#0099BF" fill-rule="nonzero" class="outline"></path>
  </g>
</svg>
