<svg viewBox="0 0 80 80" version="1.1" xmlns="http://www.w3.org/2000/svg" xmlns:xlink="http://www.w3.org/1999/xlink">
    <defs></defs>
    <g id="ICON-/-icon-note100" stroke="none" stroke-width="1" fill="none" fill-rule="evenodd">
        <path id="Fill 1" d="M2.99988 18C1.34988 18 -0.00012207 19.35 -0.00012207 21V59.574C-0.00012207 61.224 1.34988 62.574 2.99988 62.574H76.7279C78.3779 62.574 79.7279 61.224 79.7279 59.574V21C79.7279 19.35 78.3779 18 76.7279 18H2.99988Z" fill="white"/>
        <path id="Fill 4" d="M21.2654 47.6998H24.8308V37.2201C24.8308 36.8146 24.8426 36.3877 24.8669 35.9402L22.3361 38.1032C22.2304 38.1949 22.123 38.2566 22.0139 38.2892C21.9048 38.3226 21.7966 38.3398 21.6917 38.3398C21.5289 38.3398 21.3812 38.3046 21.2478 38.2335C21.1135 38.1632 21.0137 38.0826 20.949 37.9917L20 36.6612L25.3662 32H27.8357V47.6998H31V50H21.2654V47.6998Z" fill="#007A98"/>
        <path id="Fill 6" d="M42.6326 40.4999C42.6326 39.1542 42.5315 38.0407 42.3292 37.1568C42.1261 36.2747 41.8547 35.5717 41.5158 35.0495C41.177 34.5274 40.7881 34.1612 40.3472 33.9503C39.9072 33.7401 39.45 33.6355 38.9736 33.6355C38.5072 33.6355 38.0564 33.7401 37.6201 33.9503C37.1847 34.1612 36.7994 34.5274 36.4651 35.0495C36.1299 35.5717 35.863 36.2747 35.6663 37.1568C35.4677 38.0407 35.3684 39.1542 35.3684 40.4999C35.3684 41.8456 35.4677 42.9591 35.6663 43.8421C35.863 44.7251 36.1299 45.4281 36.4651 45.9494C36.7994 46.4724 37.1847 46.8394 37.6201 47.0495C38.0564 47.2597 38.5072 47.3643 38.9736 47.3643C39.45 47.3643 39.9072 47.2597 40.3472 47.0495C40.7881 46.8394 41.177 46.4724 41.5158 45.9494C41.8547 45.4281 42.1261 44.7251 42.3292 43.8421C42.5315 42.9591 42.6326 41.8456 42.6326 40.4999ZM46 40.5C46 42.1197 45.8224 43.5275 45.4653 44.7225C45.1092 45.9176 44.6164 46.906 43.9861 47.6853C43.3567 48.4654 42.6134 49.0461 41.7545 49.4273C40.8964 49.8085 39.9692 50 38.9736 50C37.9789 50 37.0571 49.8085 36.2064 49.4273C35.3574 49.0461 34.6196 48.4654 33.9948 47.6853C33.369 46.906 32.8808 45.9176 32.5283 44.7225C32.1767 43.5275 32 42.1197 32 40.5C32 38.8715 32.1767 37.4619 32.5283 36.2704C32.8808 35.0798 33.369 34.094 33.9948 33.3147C34.6196 32.5346 35.3574 31.9539 36.2064 31.5727C37.0571 31.1915 37.9789 31 38.9736 31C39.9692 31 40.8964 31.1915 41.7545 31.5727C42.6134 31.9539 43.3567 32.5346 43.9861 33.3147C44.6164 34.094 45.1092 35.0798 45.4653 36.2704C45.8224 37.4619 46 38.8715 46 40.5Z" fill="#007A98"/>
        <path id="Fill 8" d="M57.6324 40.4999C57.6324 39.1542 57.5313 38.0407 57.3291 37.1568C57.126 36.2747 56.8546 35.5717 56.5157 35.0495C56.1769 34.5274 55.7879 34.1612 55.3471 33.9503C54.9071 33.7401 54.4499 33.6355 53.9735 33.6355C53.5071 33.6355 53.0562 33.7401 52.6199 33.9503C52.1846 34.1612 51.7993 34.5274 51.465 35.0495C51.1298 35.5717 50.8629 36.2747 50.6661 37.1568C50.4676 38.0407 50.3683 39.1542 50.3683 40.4999C50.3683 41.8456 50.4676 42.9591 50.6661 43.8421C50.8629 44.7251 51.1298 45.4281 51.465 45.9494C51.7993 46.4724 52.1846 46.8394 52.6199 47.0495C53.0562 47.2597 53.5071 47.3643 53.9735 47.3643C54.4499 47.3643 54.9071 47.2597 55.3471 47.0495C55.7879 46.8394 56.1769 46.4724 56.5157 45.9494C56.8546 45.4281 57.126 44.7251 57.3291 43.8421C57.5313 42.9591 57.6324 41.8456 57.6324 40.4999ZM61 40.5C61 42.1197 60.8224 43.5275 60.4653 44.7225C60.1092 45.9176 59.6164 46.906 58.9861 47.6853C58.3567 48.4654 57.6134 49.0461 56.7545 49.4273C55.8964 49.8085 54.9692 50 53.9736 50C52.9789 50 52.0571 49.8085 51.2064 49.4273C50.3574 49.0461 49.6196 48.4654 48.9948 47.6853C48.369 46.906 47.8808 45.9176 47.5283 44.7225C47.1767 43.5275 47 42.1197 47 40.5C47 38.8715 47.1767 37.4619 47.5283 36.2704C47.8808 35.0798 48.369 34.094 48.9948 33.3147C49.6196 32.5346 50.3574 31.9539 51.2064 31.5727C52.0571 31.1915 52.9789 31 53.9736 31C54.9692 31 55.8964 31.1915 56.7545 31.5727C57.6134 31.9539 58.3567 32.5346 58.9861 33.3147C59.6164 34.094 60.1092 35.0798 60.4653 36.2704C60.8224 37.4619 61 38.8715 61 40.5Z" fill="#007A98"/>
        <path id="Fill 1_2" d="M75.7281 50.7715C75.7211 50.7705 75.7151 50.7705 75.7081 50.7705C71.3761 50.7705 67.8621 54.2545 67.8051 58.5745H11.9341C11.8761 54.2545 8.36315 50.7705 4.03015 50.7705C4.02015 50.7705 4.01015 50.7715 3.99915 50.7715V29.8915C4.01015 29.8925 4.02015 29.8925 4.03015 29.8925C8.39315 29.8925 11.9291 26.3605 11.9381 22.0005H67.8001C67.8091 26.3605 71.3461 29.8925 75.7081 29.8925C75.7151 29.8925 75.7211 29.8925 75.7281 29.8915V50.7715ZM76.7281 18.0005H2.99915C1.35015 18.0005 -0.000854492 19.3495 -0.000854492 21.0005V59.5745C-0.000854492 61.2235 1.35015 62.5745 2.99915 62.5745H76.7281C78.3781 62.5745 79.7281 61.2235 79.7281 59.5745V21.0005C79.7281 19.3495 78.3781 18.0005 76.7281 18.0005Z" fill="#00A77E"/>
        <path id="$" d="M16.2432 39.2271C16.2432 38.8822 16.1499 38.6088 15.9635 38.4069C15.7812 38.2008 15.4691 38.0116 15.0274 37.8391C14.5856 37.6667 14.2047 37.4963 13.8845 37.3281C13.5643 37.1556 13.2888 36.96 13.0578 36.7413C12.8308 36.5184 12.6525 36.2576 12.5228 35.959C12.3972 35.6604 12.3343 35.3049 12.3343 34.8927C12.3343 34.1819 12.5532 33.5994 12.9909 33.1451C13.4286 32.6909 14.0101 32.4259 14.7356 32.3502V31H15.7082V32.3691C16.4255 32.4742 16.9868 32.7855 17.3921 33.3028C17.7974 33.816 18 34.4826 18 35.3028H16.2432C16.2432 34.7981 16.1418 34.4217 15.9392 34.1735C15.7406 33.9211 15.4732 33.795 15.1368 33.795C14.8045 33.795 14.5471 33.8938 14.3647 34.0915C14.1824 34.285 14.0912 34.5542 14.0912 34.8991C14.0912 35.2187 14.1803 35.4753 14.3587 35.6688C14.537 35.8622 14.8673 36.0599 15.3495 36.2618C15.8359 36.4637 16.2351 36.6551 16.5471 36.836C16.8592 37.0126 17.1226 37.2145 17.3374 37.4416C17.5522 37.6646 17.7163 37.9211 17.8298 38.2114C17.9433 38.4974 18 38.8318 18 39.2145C18 39.9295 17.7852 40.51 17.3556 40.9558C16.926 41.4017 16.3343 41.6646 15.5805 41.7445V43H14.614V41.7508C13.7832 41.6583 13.1388 41.3533 12.6809 40.836C12.227 40.3144 12 39.6225 12 38.7603H13.7568C13.7568 39.2608 13.8703 39.6456 14.0973 39.9148C14.3283 40.1798 14.6586 40.3123 15.0881 40.3123C15.4448 40.3123 15.7264 40.2156 15.9331 40.0221C16.1398 39.8244 16.2432 39.5594 16.2432 39.2271Z" fill="#007A98"/>
    </g>
</svg>
