<svg viewBox="0 0 80 80" version="1.1" xmlns="http://www.w3.org/2000/svg" xmlns:xlink="http://www.w3.org/1999/xlink">
    <defs></defs>
    <g id="ICON-/-icon-note5" stroke="none" stroke-width="1" fill="none" fill-rule="evenodd">
        <path id="Path" d="M76.7279 18H2.99988C1.34988 18 -0.00012207 19.35 -0.00012207 21V59.574C-0.00012207 61.224 1.34988 62.574 2.99988 62.574H76.7279C78.3779 62.574 79.7279 61.224 79.7279 59.574V21C79.7279 19.35 78.3779 18 76.7279 18Z" fill="white"/>
        <path id="Fill 1" d="M75.7281 50.7715C75.7211 50.7705 75.7151 50.7705 75.7081 50.7705C71.3761 50.7705 67.8621 54.2545 67.8051 58.5745H11.9341C11.8761 54.2545 8.36315 50.7705 4.03015 50.7705C4.02015 50.7705 4.01015 50.7715 3.99915 50.7715V29.8915C4.01015 29.8925 4.02015 29.8925 4.03015 29.8925C8.39315 29.8925 11.9291 26.3605 11.9381 22.0005H67.8001C67.8091 26.3605 71.3461 29.8925 75.7081 29.8925C75.7151 29.8925 75.7211 29.8925 75.7281 29.8915V50.7715ZM76.7281 18.0005H2.99915C1.35015 18.0005 -0.000854492 19.3495 -0.000854492 21.0005V59.5745C-0.000854492 61.2235 1.35015 62.5745 2.99915 62.5745H76.7281C78.3781 62.5745 79.7281 61.2235 79.7281 59.5745V21.0005C79.7281 19.3495 78.3781 18.0005 76.7281 18.0005Z" fill="#00A77E"/>
        <path id="Fill 1_2" d="M45.3892 32.2923C45.3892 32.7279 45.2498 33.0803 44.9711 33.3511C44.6924 33.6212 44.2287 33.7579 43.58 33.7579H38.6154L37.9667 37.4752C38.7814 37.3113 39.5264 37.229 40.2 37.229C41.1472 37.229 41.9816 37.3691 42.7008 37.6484C43.42 37.9269 44.0248 38.3133 44.5152 38.8049C45.0064 39.2974 45.3763 39.8748 45.6258 40.5354C45.8753 41.1951 46 41.9075 46 42.6717C46 43.615 45.8322 44.4769 45.495 45.2572C45.1578 46.0367 44.6907 46.7032 44.091 47.2577C43.4932 47.8113 42.7843 48.2401 41.9653 48.544C41.1455 48.8472 40.2534 49 39.289 49C38.7238 49 38.187 48.9414 37.6803 48.8276C37.1727 48.7122 36.697 48.5585 36.2522 48.3657C35.8066 48.1721 35.3954 47.9505 35.0168 47.7C34.6383 47.4504 34.2994 47.1855 34 46.9061L34.948 45.613C35.1476 45.3344 35.4134 45.1952 35.7464 45.1952C35.9537 45.1952 36.1645 45.2606 36.3761 45.3922C36.5886 45.5238 36.8363 45.6673 37.1185 45.8235C37.4015 45.9789 37.7302 46.1224 38.1035 46.2532C38.4786 46.3856 38.9311 46.451 39.4636 46.451C40.0297 46.451 40.5286 46.3602 40.9614 46.1793C41.3924 46.0001 41.752 45.7471 42.0393 45.4228C42.3258 45.0984 42.5425 44.7129 42.6879 44.2663C42.8333 43.818 42.9064 43.3323 42.9064 42.8067C42.9064 41.8379 42.6217 41.0813 42.0522 40.5354C41.4827 39.9885 40.6439 39.716 39.5385 39.716C38.6661 39.716 37.7878 39.8722 36.9069 40.1838L34.985 39.6421L36.4819 31H45.3892V32.2923Z" fill="#007A98"/>
        <path id="$" d="M30.2432 38.2271C30.2432 37.8822 30.1499 37.6088 29.9635 37.4069C29.7812 37.2008 29.4691 37.0116 29.0274 36.8391C28.5856 36.6667 28.2047 36.4963 27.8845 36.3281C27.5643 36.1556 27.2888 35.96 27.0578 35.7413C26.8308 35.5184 26.6525 35.2576 26.5228 34.959C26.3972 34.6604 26.3343 34.3049 26.3343 33.8927C26.3343 33.1819 26.5532 32.5994 26.9909 32.1451C27.4286 31.6909 28.0101 31.4259 28.7356 31.3502V30H29.7082V31.3691C30.4255 31.4742 30.9868 31.7855 31.3921 32.3028C31.7974 32.816 32 33.4826 32 34.3028H30.2432C30.2432 33.7981 30.1418 33.4217 29.9392 33.1735C29.7406 32.9211 29.4732 32.795 29.1368 32.795C28.8045 32.795 28.5471 32.8938 28.3647 33.0915C28.1824 33.285 28.0912 33.5542 28.0912 33.8991C28.0912 34.2187 28.1803 34.4753 28.3587 34.6688C28.537 34.8622 28.8673 35.0599 29.3495 35.2618C29.8359 35.4637 30.2351 35.6551 30.5471 35.836C30.8592 36.0126 31.1226 36.2145 31.3374 36.4416C31.5522 36.6646 31.7163 36.9211 31.8298 37.2114C31.9433 37.4974 32 37.8318 32 38.2145C32 38.9295 31.7852 39.51 31.3556 39.9558C30.926 40.4017 30.3343 40.6646 29.5805 40.7445V42H28.614V40.7508C27.7832 40.6583 27.1388 40.3533 26.6809 39.836C26.227 39.3144 26 38.6225 26 37.7603H27.7568C27.7568 38.2608 27.8703 38.6456 28.0973 38.9148C28.3283 39.1798 28.6586 39.3123 29.0881 39.3123C29.4448 39.3123 29.7264 39.2156 29.9331 39.0221C30.1398 38.8244 30.2432 38.5594 30.2432 38.2271Z" fill="#007A98"/>
    </g>
</svg>
