<svg viewBox="0 0 80 80" version="1.1" xmlns="http://www.w3.org/2000/svg" xmlns:xlink="http://www.w3.org/1999/xlink">
    <defs></defs>
    <g id="ICON-/-icon-note10" stroke="none" stroke-width="1" fill="none" fill-rule="evenodd">
        <path id="Fill 1" d="M76.7279 18H2.99988C1.34988 18 -0.00012207 19.35 -0.00012207 21V59.574C-0.00012207 61.224 1.34988 62.574 2.99988 62.574H76.7279C78.3779 62.574 79.7279 61.224 79.7279 59.574V21C79.7279 19.35 78.3779 18 76.7279 18Z" fill="white"/>
        <path id="Fill 1_2" d="M75.7281 50.7715C75.7211 50.7705 75.7151 50.7705 75.7081 50.7705C71.3761 50.7705 67.8621 54.2545 67.8051 58.5745H11.9341C11.8761 54.2545 8.36315 50.7705 4.03015 50.7705C4.02015 50.7705 4.01015 50.7715 3.99915 50.7715V29.8915C4.01015 29.8925 4.02015 29.8925 4.03015 29.8925C8.39315 29.8925 11.9291 26.3605 11.9381 22.0005H67.8001C67.8091 26.3605 71.3461 29.8925 75.7081 29.8925C75.7151 29.8925 75.7211 29.8925 75.7281 29.8915V50.7715ZM76.7281 18.0005H2.99915C1.35015 18.0005 -0.000854492 19.3495 -0.000854492 21.0005V59.5745C-0.000854492 61.2235 1.35015 62.5745 2.99915 62.5745H76.7281C78.3781 62.5745 79.7281 61.2235 79.7281 59.5745V21.0005C79.7281 19.3495 78.3781 18.0005 76.7281 18.0005Z" fill="#00A77E"/>
        <path id="Fill 1_3" d="M28.2654 46.9037H31.8308V36.424C31.8308 36.0185 31.8426 35.5916 31.8669 35.144L29.3361 37.307C29.2304 37.3988 29.123 37.4605 29.0139 37.4931C28.9048 37.5265 28.7966 37.5436 28.6917 37.5436C28.5289 37.5436 28.3812 37.5085 28.2478 37.4373C28.1135 37.367 28.0137 37.2864 27.949 37.1956L27 35.865L32.3662 31.2039H34.8357V46.9037H38V49.2039H28.2654V46.9037Z" fill="#007A98"/>
        <path id="$" d="M22.2432 38.2271C22.2432 37.8822 22.1499 37.6088 21.9635 37.4069C21.7812 37.2008 21.4691 37.0116 21.0274 36.8391C20.5856 36.6667 20.2047 36.4963 19.8845 36.3281C19.5643 36.1556 19.2888 35.96 19.0578 35.7413C18.8308 35.5184 18.6525 35.2576 18.5228 34.959C18.3972 34.6604 18.3343 34.3049 18.3343 33.8927C18.3343 33.1819 18.5532 32.5994 18.9909 32.1451C19.4286 31.6909 20.0101 31.4259 20.7356 31.3502V30H21.7082V31.3691C22.4255 31.4742 22.9868 31.7855 23.3921 32.3028C23.7974 32.816 24 33.4826 24 34.3028H22.2432C22.2432 33.7981 22.1418 33.4217 21.9392 33.1735C21.7406 32.9211 21.4732 32.795 21.1368 32.795C20.8045 32.795 20.5471 32.8938 20.3647 33.0915C20.1824 33.285 20.0912 33.5542 20.0912 33.8991C20.0912 34.2187 20.1803 34.4753 20.3587 34.6688C20.537 34.8622 20.8673 35.0599 21.3495 35.2618C21.8359 35.4637 22.2351 35.6551 22.5471 35.836C22.8592 36.0126 23.1226 36.2145 23.3374 36.4416C23.5522 36.6646 23.7163 36.9211 23.8298 37.2114C23.9433 37.4974 24 37.8318 24 38.2145C24 38.9295 23.7852 39.51 23.3556 39.9558C22.926 40.4017 22.3343 40.6646 21.5805 40.7445V42H20.614V40.7508C19.7832 40.6583 19.1388 40.3533 18.6809 39.836C18.227 39.3144 18 38.6225 18 37.7603H19.7568C19.7568 38.2608 19.8703 38.6456 20.0973 38.9148C20.3283 39.1798 20.6586 39.3123 21.0881 39.3123C21.4448 39.3123 21.7264 39.2156 21.9331 39.0221C22.1398 38.8244 22.2432 38.5594 22.2432 38.2271Z" fill="#007A98"/>
        <path id="Fill 4" d="M49.955 40.4999C49.955 39.1542 49.8618 38.0407 49.6753 37.1568C49.488 36.2747 49.2378 35.5717 48.9253 35.0495C48.6129 34.5274 48.2543 34.1612 47.8478 33.9503C47.4421 33.7401 47.0205 33.6355 46.5813 33.6355C46.1513 33.6355 45.7355 33.7401 45.3332 33.9503C44.9318 34.1612 44.5765 34.5274 44.2683 35.0495C43.9592 35.5717 43.7131 36.2747 43.5317 37.1568C43.3486 38.0407 43.2571 39.1542 43.2571 40.4999C43.2571 41.8456 43.3486 42.9591 43.5317 43.8421C43.7131 44.7251 43.9592 45.4281 44.2683 45.9494C44.5765 46.4724 44.9318 46.8394 45.3332 47.0495C45.7355 47.2597 46.1513 47.3643 46.5813 47.3643C47.0205 47.3643 47.4421 47.2597 47.8478 47.0495C48.2543 46.8394 48.6129 46.4724 48.9253 45.9494C49.2378 45.4281 49.488 44.7251 49.6753 43.8421C49.8618 42.9591 49.955 41.8456 49.955 40.4999ZM53.06 40.5C53.06 42.1197 52.8962 43.5275 52.567 44.7225C52.2386 45.9176 51.7842 46.906 51.203 47.6853C50.6227 48.4654 49.9374 49.0461 49.1454 49.4273C48.3542 49.8085 47.4992 50 46.5813 50C45.6641 50 44.8142 49.8085 44.0297 49.4273C43.247 49.0461 42.5667 48.4654 41.9906 47.6853C41.4136 46.906 40.9634 45.9176 40.6384 44.7225C40.3142 43.5275 40.1512 42.1197 40.1512 40.5C40.1512 38.8715 40.3142 37.4619 40.6384 36.2704C40.9634 35.0798 41.4136 34.094 41.9906 33.3147C42.5667 32.5346 43.247 31.9539 44.0297 31.5727C44.8142 31.1915 45.6641 31 46.5813 31C47.4992 31 48.3542 31.1915 49.1454 31.5727C49.9374 31.9539 50.6227 32.5346 51.203 33.3147C51.7842 34.094 52.2386 35.0798 52.567 36.2704C52.8962 37.4619 53.06 38.8715 53.06 40.5Z" fill="#007A98"/>
    </g>
</svg>
