<svg viewBox="0 0 80 80" version="1.1" xmlns="http://www.w3.org/2000/svg" xmlns:xlink="http://www.w3.org/1999/xlink">
    <defs></defs>
    <g id="ICON-/-icon-note1" stroke="none" stroke-width="1" fill="none" fill-rule="evenodd">
        <path id="Fill 1" d="M76.7279 18H2.99988C1.34988 18 -0.00012207 19.35 -0.00012207 21V59.574C-0.00012207 61.224 1.34988 62.574 2.99988 62.574H76.7279C78.3779 62.574 79.7279 61.224 79.7279 59.574V21C79.7279 19.35 78.3779 18 76.7279 18Z" fill="white"/>
        <path id="Fill 1_2" d="M75.7282 50.7715C75.7212 50.7705 75.7152 50.7705 75.7082 50.7705C71.3762 50.7705 67.8622 54.2545 67.8052 58.5745H11.9342C11.8762 54.2545 8.36321 50.7705 4.03021 50.7705C4.02021 50.7705 4.01021 50.7715 3.99921 50.7715V29.8915C4.01021 29.8925 4.02021 29.8925 4.03021 29.8925C8.39321 29.8925 11.9292 26.3605 11.9382 22.0005H67.8002C67.8092 26.3605 71.3462 29.8925 75.7082 29.8925C75.7152 29.8925 75.7212 29.8925 75.7282 29.8915V50.7715ZM76.7282 18.0005H2.99921C1.35021 18.0005 -0.000793457 19.3495 -0.000793457 21.0005V59.5745C-0.000793457 61.2235 1.35021 62.5745 2.99921 62.5745H76.7282C78.3782 62.5745 79.7282 61.2235 79.7282 59.5745V21.0005C79.7282 19.3495 78.3782 18.0005 76.7282 18.0005Z" fill="#00A77E"/>
        <path id="Fill 1_3" d="M36.2654 46.6998H39.8308V36.2201C39.8308 35.8146 39.8426 35.3877 39.8669 34.9402L37.3361 37.1032C37.2304 37.1949 37.123 37.2566 37.0139 37.2892C36.9048 37.3226 36.7966 37.3398 36.6917 37.3398C36.5289 37.3398 36.3812 37.3046 36.2478 37.2335C36.1135 37.1632 36.0137 37.0826 35.949 36.9917L35 35.6612L40.3662 31H42.8357V46.6998H46V49H36.2654V46.6998Z" fill="#007A98"/>
        <path id="$" d="M31.2432 38.2271C31.2432 37.8822 31.1499 37.6088 30.9635 37.4069C30.7812 37.2008 30.4691 37.0116 30.0274 36.8391C29.5856 36.6667 29.2047 36.4963 28.8845 36.3281C28.5643 36.1556 28.2888 35.96 28.0578 35.7413C27.8308 35.5184 27.6525 35.2576 27.5228 34.959C27.3972 34.6604 27.3343 34.3049 27.3343 33.8927C27.3343 33.1819 27.5532 32.5994 27.9909 32.1451C28.4286 31.6909 29.0101 31.4259 29.7356 31.3502V30H30.7082V31.3691C31.4255 31.4742 31.9868 31.7855 32.3921 32.3028C32.7974 32.816 33 33.4826 33 34.3028H31.2432C31.2432 33.7981 31.1418 33.4217 30.9392 33.1735C30.7406 32.9211 30.4732 32.795 30.1368 32.795C29.8045 32.795 29.5471 32.8938 29.3647 33.0915C29.1824 33.285 29.0912 33.5542 29.0912 33.8991C29.0912 34.2187 29.1803 34.4753 29.3587 34.6688C29.537 34.8622 29.8673 35.0599 30.3495 35.2618C30.8359 35.4637 31.2351 35.6551 31.5471 35.836C31.8592 36.0126 32.1226 36.2145 32.3374 36.4416C32.5522 36.6646 32.7163 36.9211 32.8298 37.2114C32.9433 37.4974 33 37.8318 33 38.2145C33 38.9295 32.7852 39.51 32.3556 39.9558C31.926 40.4017 31.3343 40.6646 30.5805 40.7445V42H29.614V40.7508C28.7832 40.6583 28.1388 40.3533 27.6809 39.836C27.227 39.3144 27 38.6225 27 37.7603H28.7568C28.7568 38.2608 28.8703 38.6456 29.0973 38.9148C29.3283 39.1798 29.6586 39.3123 30.0881 39.3123C30.4448 39.3123 30.7264 39.2156 30.9331 39.0221C31.1398 38.8244 31.2432 38.5594 31.2432 38.2271Z" fill="#007A98"/>
    </g>
</svg>
