<svg viewBox="0 0 80 80" version="1.1" xmlns="http://www.w3.org/2000/svg" xmlns:xlink="http://www.w3.org/1999/xlink">
    <defs></defs>
    <g id="ICON-/-icon-note500" stroke="none" stroke-width="1" fill="none" fill-rule="evenodd">
        <g>
            <path id="bg" d="M 3 18 C 1.3 18 0 19.4 0 21 V 59.6 C 0 61.2 1.3 62.6 3 62.6 H 76.7 C 78.4 62.6 79.7 61.2 79.7 59.6 V 21 C 79.7 19.4 78.4 18 76.7 18 H 3 Z" fill="white"/>
        </g>
        <g>
            <path id="border" d="M 75.7 50.8 C 75.7 50.8 75.7 50.8 75.7 50.8 C 71.4 50.8 67.9 54.3 67.8 58.6 H 11.9 C 11.9 54.3 8.4 50.8 4 50.8 C 4 50.8 4 50.8 4 50.8 V 29.9 C 4 29.9 4 29.9 4 29.9 C 8.4 29.9 11.9 26.4 11.9 22 H 67.8 C 67.8 26.4 71.3 29.9 75.7 29.9 C 75.7 29.9 75.7 29.9 75.7 29.9 V 50.8 Z M 76.7 18 H 3 C 1.4 18 0 19.3 0 21 V 59.6 C 0 61.2 1.4 62.6 3 62.6 H 76.7 C 78.4 62.6 79.7 61.2 79.7 59.6 V 21 C 79.7 19.3 78.4 18 76.7 18 Z" fill="#00a77e"/>
        </g>
        <g>
            <path id="text5" d="M 29.2 33.3 C 29.2 33.7 29.1 34.1 28.8 34.4 C 28.6 34.6 28.1 34.8 27.5 34.8 H 22.6 L 21.9 38.5 C 22.7 38.3 23.5 38.2 24.1 38.2 C 25.1 38.2 25.9 38.4 26.6 38.6 C 27.3 38.9 27.9 39.3 28.4 39.8 C 28.9 40.3 29.2 40.9 29.5 41.5 C 29.7 42.2 29.8 42.9 29.8 43.7 C 29.8 44.6 29.7 45.5 29.3 46.3 C 29 47 28.6 47.7 28 48.3 C 27.4 48.8 26.7 49.2 25.9 49.5 C 25.1 49.8 24.2 50 23.2 50 C 22.7 50 22.1 49.9 21.6 49.8 C 21.1 49.7 20.7 49.6 20.2 49.4 C 19.8 49.2 19.4 49 19 48.7 C 18.6 48.5 18.3 48.2 18 47.9 L 18.9 46.6 C 19.1 46.3 19.4 46.2 19.7 46.2 C 19.9 46.2 20.1 46.3 20.3 46.4 C 20.6 46.5 20.8 46.7 21.1 46.8 C 21.4 47 21.7 47.1 22.1 47.3 C 22.4 47.4 22.9 47.5 23.4 47.5 C 24 47.5 24.4 47.4 24.9 47.2 C 25.3 47 25.7 46.7 25.9 46.4 C 26.2 46.1 26.4 45.7 26.6 45.3 C 26.7 44.8 26.8 44.3 26.8 43.8 C 26.8 42.8 26.5 42.1 25.9 41.5 C 25.4 41 24.6 40.7 23.5 40.7 C 22.6 40.7 21.7 40.9 20.9 41.2 L 19 40.6 L 20.4 32 H 29.2 V 33.3 Z" fill="#007a98"/>
        </g>
        <g>
            <path id="text0_1" d="M 43.1 40.5 C 43.1 39.2 43 38 42.8 37.2 C 42.6 36.3 42.3 35.6 42 35 C 41.6 34.5 41.2 34.2 40.8 34 C 40.3 33.7 39.9 33.6 39.4 33.6 C 38.9 33.6 38.5 33.7 38.1 34 C 37.6 34.2 37.2 34.5 36.9 35 C 36.6 35.6 36.3 36.3 36.1 37.2 C 35.9 38 35.8 39.2 35.8 40.5 C 35.8 41.8 35.9 43 36.1 43.8 C 36.3 44.7 36.6 45.4 36.9 45.9 C 37.2 46.5 37.6 46.8 38.1 47 C 38.5 47.3 38.9 47.4 39.4 47.4 C 39.9 47.4 40.3 47.3 40.8 47 C 41.2 46.8 41.6 46.5 42 45.9 C 42.3 45.4 42.6 44.7 42.8 43.8 C 43 43 43.1 41.8 43.1 40.5 Z M 46.4 40.5 C 46.4 42.1 46.3 43.5 45.9 44.7 C 45.6 45.9 45.1 46.9 44.4 47.7 C 43.8 48.5 43.1 49 42.2 49.4 C 41.3 49.8 40.4 50 39.4 50 C 38.4 50 37.5 49.8 36.6 49.4 C 35.8 49 35.1 48.5 34.4 47.7 C 33.8 46.9 33.3 45.9 33 44.7 C 32.6 43.5 32.4 42.1 32.4 40.5 C 32.4 38.9 32.6 37.5 33 36.3 C 33.3 35.1 33.8 34.1 34.4 33.3 C 35.1 32.5 35.8 32 36.6 31.6 C 37.5 31.2 38.4 31 39.4 31 C 40.4 31 41.3 31.2 42.2 31.6 C 43.1 32 43.8 32.5 44.4 33.3 C 45.1 34.1 45.6 35.1 45.9 36.3 C 46.3 37.5 46.4 38.9 46.4 40.5 Z" fill="#007a98"/>
        </g>
        <g>
            <path id="text0_2" d="M 60.1 40.5 C 60.1 39.2 60 38 59.8 37.2 C 59.6 36.3 59.3 35.6 59 35 C 58.6 34.5 58.2 34.2 57.8 34 C 57.3 33.7 56.9 33.6 56.4 33.6 C 55.9 33.6 55.5 33.7 55.1 34 C 54.6 34.2 54.2 34.5 53.9 35 C 53.6 35.6 53.3 36.3 53.1 37.2 C 52.9 38 52.8 39.2 52.8 40.5 C 52.8 41.8 52.9 43 53.1 43.8 C 53.3 44.7 53.6 45.4 53.9 45.9 C 54.2 46.5 54.6 46.8 55.1 47 C 55.5 47.3 55.9 47.4 56.4 47.4 C 56.9 47.4 57.3 47.3 57.8 47 C 58.2 46.8 58.6 46.5 59 45.9 C 59.3 45.4 59.6 44.7 59.8 43.8 C 60 43 60.1 41.8 60.1 40.5 Z M 63.4 40.5 C 63.4 42.1 63.3 43.5 62.9 44.7 C 62.6 45.9 62.1 46.9 61.4 47.7 C 60.8 48.5 60.1 49 59.2 49.4 C 58.3 49.8 57.4 50 56.4 50 C 55.4 50 54.5 49.8 53.6 49.4 C 52.8 49 52.1 48.5 51.4 47.7 C 50.8 46.9 50.3 45.9 50 44.7 C 49.6 43.5 49.4 42.1 49.4 40.5 C 49.4 38.9 49.6 37.5 50 36.3 C 50.3 35.1 50.8 34.1 51.4 33.3 C 52.1 32.5 52.8 32 53.6 31.6 C 54.5 31.2 55.4 31 56.4 31 C 57.4 31 58.3 31.2 59.2 31.6 C 60.1 32 60.8 32.5 61.4 33.3 C 62.1 34.1 62.6 35.1 62.9 36.3 C 63.3 37.5 63.4 38.9 63.4 40.5 Z" fill="#007a98"/>
        </g>
    </g>
</svg>
