<svg viewBox="0 0 80 80" version="1.1" xmlns="http://www.w3.org/2000/svg" xmlns:xlink="http://www.w3.org/1999/xlink">
    <defs></defs>
    <g id="ICON-/-icon-note50" stroke="none" stroke-width="1" fill="none" fill-rule="evenodd">
        <path id="Fill 1" d="M2.99988 18C1.34988 18 -0.00012207 19.35 -0.00012207 21V59.574C-0.00012207 61.224 1.34988 62.574 2.99988 62.574H76.7279C78.3779 62.574 79.7279 61.224 79.7279 59.574V21C79.7279 19.35 78.3779 18 76.7279 18H2.99988Z" fill="white"/>
        <path id="Fill 1_2" d="M75.7281 50.7715C75.7211 50.7705 75.7151 50.7705 75.7081 50.7705C71.3761 50.7705 67.8621 54.2545 67.8051 58.5745H11.9341C11.8761 54.2545 8.36315 50.7705 4.03015 50.7705C4.02015 50.7705 4.01015 50.7715 3.99915 50.7715V29.8915C4.01015 29.8925 4.02015 29.8925 4.03015 29.8925C8.39315 29.8925 11.9291 26.3605 11.9381 22.0005H67.8001C67.8091 26.3605 71.3461 29.8925 75.7081 29.8925C75.7151 29.8925 75.7211 29.8925 75.7281 29.8915V50.7715ZM76.7281 18.0005H2.99915C1.35015 18.0005 -0.000854492 19.3495 -0.000854492 21.0005V59.5745C-0.000854492 61.2235 1.35015 62.5745 2.99915 62.5745H76.7281C78.3781 62.5745 79.7281 61.2235 79.7281 59.5745V21.0005C79.7281 19.3495 78.3781 18.0005 76.7281 18.0005Z" fill="#00A77E"/>
        <path id="Fill 1_3" d="M37.2412 33.2923C37.2412 33.7279 37.1036 34.0803 36.8285 34.3511C36.5534 34.6212 36.0958 34.7579 35.4555 34.7579H30.5554L29.9152 38.4752C30.7193 38.3113 31.4546 38.229 32.1194 38.229C33.0543 38.229 33.8779 38.3691 34.5878 38.6484C35.2976 38.9269 35.8945 39.3133 36.3785 39.8049C36.8633 40.2974 37.2285 40.8748 37.4747 41.5354C37.7209 42.1951 37.844 42.9075 37.844 43.6717C37.844 44.615 37.6785 45.4769 37.3456 46.2572C37.0128 47.0367 36.5517 47.7032 35.9599 48.2577C35.3698 48.8113 34.6701 49.2401 33.8618 49.544C33.0526 49.8472 32.1721 50 31.2202 50C30.6624 50 30.1326 49.9414 29.6324 49.8276C29.1315 49.7122 28.6619 49.5585 28.2229 49.3657C27.7831 49.1721 27.3772 48.9505 27.0036 48.7C26.63 48.4504 26.2955 48.1855 26 47.9061L26.9357 46.613C27.1327 46.3344 27.3951 46.1952 27.7237 46.1952C27.9283 46.1952 28.1363 46.2606 28.3452 46.3922C28.5549 46.5238 28.7995 46.6673 29.078 46.8235C29.3573 46.9789 29.6817 47.1224 30.0502 47.2532C30.4204 47.3856 30.867 47.451 31.3926 47.451C31.9513 47.451 32.4438 47.3602 32.8709 47.1793C33.2963 47.0001 33.6512 46.7471 33.9348 46.4228C34.2176 46.0984 34.4315 45.7129 34.575 45.2663C34.7185 44.818 34.7907 44.3323 34.7907 43.8067C34.7907 42.8379 34.5096 42.0813 33.9475 41.5354C33.3854 40.9885 32.5576 40.716 31.4665 40.716C30.6055 40.716 29.7386 40.8722 28.8691 41.1838L26.9722 40.6421L28.4496 32H37.2412V33.2923Z" fill="#007A98"/>
        <path id="$" d="M22.2432 38.2271C22.2432 37.8822 22.1499 37.6088 21.9635 37.4069C21.7812 37.2008 21.4691 37.0116 21.0274 36.8391C20.5856 36.6667 20.2047 36.4963 19.8845 36.3281C19.5643 36.1556 19.2888 35.96 19.0578 35.7413C18.8308 35.5184 18.6525 35.2576 18.5228 34.959C18.3972 34.6604 18.3343 34.3049 18.3343 33.8927C18.3343 33.1819 18.5532 32.5994 18.9909 32.1451C19.4286 31.6909 20.0101 31.4259 20.7356 31.3502V30H21.7082V31.3691C22.4255 31.4742 22.9868 31.7855 23.3921 32.3028C23.7974 32.816 24 33.4826 24 34.3028H22.2432C22.2432 33.7981 22.1418 33.4217 21.9392 33.1735C21.7406 32.9211 21.4732 32.795 21.1368 32.795C20.8045 32.795 20.5471 32.8938 20.3647 33.0915C20.1824 33.285 20.0912 33.5542 20.0912 33.8991C20.0912 34.2187 20.1803 34.4753 20.3587 34.6688C20.537 34.8622 20.8673 35.0599 21.3495 35.2618C21.8359 35.4637 22.2351 35.6551 22.5471 35.836C22.8592 36.0126 23.1226 36.2145 23.3374 36.4416C23.5522 36.6646 23.7163 36.9211 23.8298 37.2114C23.9433 37.4974 24 37.8318 24 38.2145C24 38.9295 23.7852 39.51 23.3556 39.9558C22.926 40.4017 22.3343 40.6646 21.5805 40.7445V42H20.614V40.7508C19.7832 40.6583 19.1388 40.3533 18.6809 39.836C18.227 39.3144 18 38.6225 18 37.7603H19.7568C19.7568 38.2608 19.8703 38.6456 20.0973 38.9148C20.3283 39.1798 20.6586 39.3123 21.0881 39.3123C21.4448 39.3123 21.7264 39.2156 21.9331 39.0221C22.1398 38.8244 22.2432 38.5594 22.2432 38.2271Z" fill="#007A98"/>
        <path id="Fill 4" d="M51.0747 40.4997C51.0747 39.1539 50.9736 38.0404 50.7714 37.1566C50.5683 36.2745 50.2968 35.5715 49.958 35.0493C49.6191 34.5271 49.2302 34.161 48.7893 33.95C48.3494 33.7399 47.8921 33.6353 47.4158 33.6353C46.9494 33.6353 46.4985 33.7399 46.0622 33.95C45.6268 34.161 45.2415 34.5271 44.9072 35.0493C44.572 35.5715 44.3051 36.2745 44.1084 37.1566C43.9098 38.0404 43.8105 39.1539 43.8105 40.4997C43.8105 41.8454 43.9098 42.9589 44.1084 43.8419C44.3051 44.7248 44.572 45.4279 44.9072 45.9491C45.2415 46.4722 45.6268 46.8392 46.0622 47.0493C46.4985 47.2594 46.9494 47.364 47.4158 47.364C47.8921 47.364 48.3494 47.2594 48.7893 47.0493C49.2302 46.8392 49.6191 46.4722 49.958 45.9491C50.2968 45.4279 50.5683 44.7248 50.7714 43.8419C50.9736 42.9589 51.0747 41.8454 51.0747 40.4997ZM54.4421 40.5C54.4421 42.1197 54.2645 43.5275 53.9075 44.7225C53.5513 45.9176 53.0585 46.906 52.4282 47.6853C51.7988 48.4654 51.0555 49.0461 50.1966 49.4273C49.3386 49.8085 48.4113 50 47.4157 50C46.4211 50 45.4993 49.8085 44.6485 49.4273C43.7996 49.0461 43.0618 48.4654 42.4369 47.6853C41.8112 46.906 41.3229 45.9176 40.9704 44.7225C40.6188 43.5275 40.4421 42.1197 40.4421 40.5C40.4421 38.8715 40.6188 37.4619 40.9704 36.2704C41.3229 35.0798 41.8112 34.094 42.4369 33.3147C43.0618 32.5346 43.7996 31.9539 44.6485 31.5727C45.4993 31.1915 46.4211 31 47.4157 31C48.4113 31 49.3386 31.1915 50.1966 31.5727C51.0555 31.9539 51.7988 32.5346 52.4282 33.3147C53.0585 34.094 53.5513 35.0798 53.9075 36.2704C54.2645 37.4619 54.4421 38.8715 54.4421 40.5Z" fill="#007A98"/>
    </g>
</svg>
