<svg viewBox="0 0 80 80" version="1.1" xmlns="http://www.w3.org/2000/svg" xmlns:xlink="http://www.w3.org/1999/xlink">
    <defs></defs>
    <g id="ICON-/-icon-note2" stroke="none" stroke-width="1" fill="none" fill-rule="evenodd">
        <path id="Fill 1" d="M76.7279 18H2.99988C1.34988 18 -0.00012207 19.35 -0.00012207 21V59.574C-0.00012207 61.224 1.34988 62.574 2.99988 62.574H76.7279C78.3779 62.574 79.7279 61.224 79.7279 59.574V21C79.7279 19.35 78.3779 18 76.7279 18Z" fill="white"/>
        <path id="Fill 1_2" d="M75.7282 50.7715C75.7212 50.7705 75.7152 50.7705 75.7082 50.7705C71.3762 50.7705 67.8622 54.2545 67.8052 58.5745H11.9342C11.8762 54.2545 8.36321 50.7705 4.03021 50.7705C4.02021 50.7705 4.01021 50.7715 3.99921 50.7715V29.8915C4.01021 29.8925 4.02021 29.8925 4.03021 29.8925C8.39321 29.8925 11.9292 26.3605 11.9382 22.0005H67.8002C67.8092 26.3605 71.3462 29.8925 75.7082 29.8925C75.7152 29.8925 75.7212 29.8925 75.7282 29.8915V50.7715ZM76.7282 18.0005H2.99921C1.35021 18.0005 -0.000793457 19.3495 -0.000793457 21.0005V59.5745C-0.000793457 61.2235 1.35021 62.5745 2.99921 62.5745H76.7282C78.3782 62.5745 79.7282 61.2235 79.7282 59.5745V21.0005C79.7282 19.3495 78.3782 18.0005 76.7282 18.0005Z" fill="#00A77E"/>
        <path id="Fill 1_3" d="M40.2661 31C41.0729 31 41.8112 31.1214 42.4803 31.3634C43.1493 31.6054 43.7225 31.9484 44.198 32.3917C44.6735 32.8349 45.0448 33.3681 45.3109 33.9914C45.577 34.6163 45.7097 35.3092 45.7097 36.0734C45.7097 36.7297 45.6154 37.3368 45.426 37.8947C45.2358 38.4525 44.9822 38.9866 44.6635 39.4952C44.3457 40.0038 43.9719 40.4971 43.5448 40.9726C43.1176 41.449 42.6696 41.933 42.2016 42.4254L38.2589 46.5257C38.646 46.4103 39.0247 46.3228 39.3952 46.2608C39.7664 46.1988 40.121 46.1683 40.4597 46.1683H44.948C45.27 46.1683 45.527 46.2608 45.7164 46.4451C45.9057 46.6302 46 46.8739 46 47.1778V49H34V47.9904C34 47.7858 34.0425 47.5727 34.1276 47.3502C34.2119 47.1286 34.3471 46.924 34.5331 46.7346L39.8432 41.3174C40.2862 40.858 40.6841 40.419 41.0345 40.0004C41.3857 39.581 41.6794 39.1675 41.9171 38.7565C42.1557 38.3464 42.3368 37.9295 42.4619 37.5066C42.587 37.0846 42.6496 36.6397 42.6496 36.171C42.6496 35.7448 42.5887 35.3695 42.4686 35.0451C42.3468 34.7207 42.1732 34.4482 41.948 34.2257C41.7219 34.0041 41.4541 33.8385 41.1438 33.7273C40.8334 33.6161 40.4847 33.5617 40.0976 33.5617C39.3793 33.5617 38.7887 33.7451 38.3248 34.1153C37.861 34.4847 37.5373 34.9806 37.3512 35.6047C37.262 35.9171 37.1293 36.1404 36.9516 36.2763C36.7739 36.4113 36.5487 36.4792 36.275 36.4792C36.1532 36.4792 36.0206 36.4665 35.8754 36.4419L34.3028 36.1591C34.4238 35.3049 34.6574 34.556 35.0044 33.9124C35.3507 33.2679 35.7845 32.7296 36.3051 32.2991C36.8248 31.8678 37.4221 31.5443 38.0945 31.3269C38.7686 31.1095 39.4919 31 40.2661 31Z" fill="#007A98"/>
        <path id="$" d="M30.2432 38.2271C30.2432 37.8822 30.1499 37.6088 29.9635 37.4069C29.7812 37.2008 29.4691 37.0116 29.0274 36.8391C28.5856 36.6667 28.2047 36.4963 27.8845 36.3281C27.5643 36.1556 27.2888 35.96 27.0578 35.7413C26.8308 35.5184 26.6525 35.2576 26.5228 34.959C26.3972 34.6604 26.3343 34.3049 26.3343 33.8927C26.3343 33.1819 26.5532 32.5994 26.9909 32.1451C27.4286 31.6909 28.0101 31.4259 28.7356 31.3502V30H29.7082V31.3691C30.4255 31.4742 30.9868 31.7855 31.3921 32.3028C31.7974 32.816 32 33.4826 32 34.3028H30.2432C30.2432 33.7981 30.1418 33.4217 29.9392 33.1735C29.7406 32.9211 29.4732 32.795 29.1368 32.795C28.8045 32.795 28.5471 32.8938 28.3647 33.0915C28.1824 33.285 28.0912 33.5542 28.0912 33.8991C28.0912 34.2187 28.1803 34.4753 28.3587 34.6688C28.537 34.8622 28.8673 35.0599 29.3495 35.2618C29.8359 35.4637 30.2351 35.6551 30.5471 35.836C30.8592 36.0126 31.1226 36.2145 31.3374 36.4416C31.5522 36.6646 31.7163 36.9211 31.8298 37.2114C31.9433 37.4974 32 37.8318 32 38.2145C32 38.9295 31.7852 39.51 31.3556 39.9558C30.926 40.4017 30.3343 40.6646 29.5805 40.7445V42H28.614V40.7508C27.7832 40.6583 27.1388 40.3533 26.6809 39.836C26.227 39.3144 26 38.6225 26 37.7603H27.7568C27.7568 38.2608 27.8703 38.6456 28.0973 38.9148C28.3283 39.1798 28.6586 39.3123 29.0881 39.3123C29.4448 39.3123 29.7264 39.2156 29.9331 39.0221C30.1398 38.8244 30.2432 38.5594 30.2432 38.2271Z" fill="#007A98"/>
    </g>
</svg>
