<svg viewBox="0 0 80 80" version="1.1" xmlns="http://www.w3.org/2000/svg" xmlns:xlink="http://www.w3.org/1999/xlink">
    <defs></defs>
    <g id="ICON-/-icon-note1000" stroke="none" stroke-width="1" fill="none" fill-rule="evenodd">
        <g>
            <path id="bg" d="M 3 18 C 1.3 18 0 19.4 0 21 V 59.6 C 0 61.2 1.3 62.6 3 62.6 H 76.7 C 78.4 62.6 79.7 61.2 79.7 59.6 V 21 C 79.7 19.4 78.4 18 76.7 18 H 3 Z" fill="white"/>
        </g>
        <g>
            <path id="border" d="M 75.7 50.8 C 75.7 50.8 75.7 50.8 75.7 50.8 C 71.4 50.8 67.9 54.3 67.8 58.6 H 11.9 C 11.9 54.3 8.4 50.8 4 50.8 C 4 50.8 4 50.8 4 50.8 V 29.9 C 4 29.9 4 29.9 4 29.9 C 8.4 29.9 11.9 26.4 11.9 22 H 67.8 C 67.8 26.4 71.3 29.9 75.7 29.9 C 75.7 29.9 75.7 29.9 75.7 29.9 V 50.8 Z M 76.7 18 H 3 C 1.4 18 0 19.3 0 21 V 59.6 C 0 61.2 1.4 62.6 3 62.6 H 76.7 C 78.4 62.6 79.7 61.2 79.7 59.6 V 21 C 79.7 19.3 78.4 18 76.7 18 Z" fill="#00a77e"/>
        </g>
        <g>
            <path id="text1" d="M 12.3 47.7 H 15.8 V 37.2 C 15.8 36.8 15.8 36.4 15.9 35.9 L 13.3 38.1 C 13.2 38.2 13.1 38.3 13 38.3 C 12.9 38.3 12.8 38.3 12.7 38.3 C 12.5 38.3 12.4 38.3 12.2 38.2 C 12.1 38.2 12 38.1 11.9 38 L 11 36.7 L 16.4 32 H 18.8 V 47.7 H 22 V 50 H 12.3 V 47.7 Z" fill="#007a98"/>
        </g>
        <g>
            <path id="text0_1" d="M 33.6 40.5 C 33.6 39.2 33.5 38 33.3 37.2 C 33.1 36.3 32.9 35.6 32.5 35 C 32.2 34.5 31.8 34.2 31.3 34 C 30.9 33.7 30.5 33.6 30 33.6 C 29.5 33.6 29.1 33.7 28.6 34 C 28.2 34.2 27.8 34.5 27.5 35 C 27.1 35.6 26.9 36.3 26.7 37.2 C 26.5 38 26.4 39.2 26.4 40.5 C 26.4 41.8 26.5 43 26.7 43.8 C 26.9 44.7 27.1 45.4 27.5 45.9 C 27.8 46.5 28.2 46.8 28.6 47 C 29.1 47.3 29.5 47.4 30 47.4 C 30.5 47.4 30.9 47.3 31.3 47 C 31.8 46.8 32.2 46.5 32.5 45.9 C 32.9 45.4 33.1 44.7 33.3 43.8 C 33.5 43 33.6 41.8 33.6 40.5 Z M 37 40.5 C 37 42.1 36.8 43.5 36.5 44.7 C 36.1 45.9 35.6 46.9 35 47.7 C 34.4 48.5 33.6 49 32.8 49.4 C 31.9 49.8 31 50 30 50 C 29 50 28.1 49.8 27.2 49.4 C 26.4 49 25.6 48.5 25 47.7 C 24.4 46.9 23.9 45.9 23.5 44.7 C 23.2 43.5 23 42.1 23 40.5 C 23 38.9 23.2 37.5 23.5 36.3 C 23.9 35.1 24.4 34.1 25 33.3 C 25.6 32.5 26.4 32 27.2 31.6 C 28.1 31.2 29 31 30 31 C 31 31 31.9 31.2 32.8 31.6 C 33.6 32 34.4 32.5 35 33.3 C 35.6 34.1 36.1 35.1 36.5 36.3 C 36.8 37.5 37 38.9 37 40.5 Z" fill="#007a98"/>
        </g>
        <g>
            <path id="text0_2" d="M 48.6 40.5 C 48.6 39.2 48.5 38 48.3 37.2 C 48.1 36.3 47.9 35.6 47.5 35 C 47.2 34.5 46.8 34.2 46.3 34 C 45.9 33.7 45.4 33.6 45 33.6 C 44.5 33.6 44.1 33.7 43.6 34 C 43.2 34.2 42.8 34.5 42.5 35 C 42.1 35.6 41.9 36.3 41.7 37.2 C 41.5 38 41.4 39.2 41.4 40.5 C 41.4 41.8 41.5 43 41.7 43.8 C 41.9 44.7 42.1 45.4 42.5 45.9 C 42.8 46.5 43.2 46.8 43.6 47 C 44.1 47.3 44.5 47.4 45 47.4 C 45.4 47.4 45.9 47.3 46.3 47 C 46.8 46.8 47.2 46.5 47.5 45.9 C 47.9 45.4 48.1 44.7 48.3 43.8 C 48.5 43 48.6 41.8 48.6 40.5 Z M 52 40.5 C 52 42.1 51.8 43.5 51.5 44.7 C 51.1 45.9 50.6 46.9 50 47.7 C 49.4 48.5 48.6 49 47.8 49.4 C 46.9 49.8 46 50 45 50 C 44 50 43.1 49.8 42.2 49.4 C 41.4 49 40.6 48.5 40 47.7 C 39.4 46.9 38.9 45.9 38.5 44.7 C 38.2 43.5 38 42.1 38 40.5 C 38 38.9 38.2 37.5 38.5 36.3 C 38.9 35.1 39.4 34.1 40 33.3 C 40.6 32.5 41.4 32 42.2 31.6 C 43.1 31.2 44 31 45 31 C 46 31 46.9 31.2 47.8 31.6 C 48.6 32 49.4 32.5 50 33.3 C 50.6 34.1 51.1 35.1 51.5 36.3 C 51.8 37.5 52 38.9 52 40.5 Z" fill="#007a98"/>
        </g>
        <g>
            <path id="text0_3" d="M 63.6 40.5 C 63.6 39.2 63.5 38 63.3 37.2 C 63.1 36.3 62.9 35.6 62.5 35 C 62.2 34.5 61.8 34.2 61.3 34 C 60.9 33.7 60.4 33.6 60 33.6 C 59.5 33.6 59.1 33.7 58.6 34 C 58.2 34.2 57.8 34.5 57.5 35 C 57.1 35.6 56.9 36.3 56.7 37.2 C 56.5 38 56.4 39.2 56.4 40.5 C 56.4 41.8 56.5 43 56.7 43.8 C 56.9 44.7 57.1 45.4 57.5 45.9 C 57.8 46.5 58.2 46.8 58.6 47 C 59.1 47.3 59.5 47.4 60 47.4 C 60.4 47.4 60.9 47.3 61.3 47 C 61.8 46.8 62.2 46.5 62.5 45.9 C 62.9 45.4 63.1 44.7 63.3 43.8 C 63.5 43 63.6 41.8 63.6 40.5 Z M 67 40.5 C 67 42.1 66.8 43.5 66.5 44.7 C 66.1 45.9 65.6 46.9 65 47.7 C 64.4 48.5 63.6 49 62.8 49.4 C 61.9 49.8 61 50 60 50 C 59 50 58.1 49.8 57.2 49.4 C 56.4 49 55.6 48.5 55 47.7 C 54.4 46.9 53.9 45.9 53.5 44.7 C 53.2 43.5 53 42.1 53 40.5 C 53 38.9 53.2 37.5 53.5 36.3 C 53.9 35.1 54.4 34.1 55 33.3 C 55.6 32.5 56.4 32 57.2 31.6 C 58.1 31.2 59 31 60 31 C 61 31 61.9 31.2 62.8 31.6 C 63.6 32 64.4 32.5 65 33.3 C 65.6 34.1 66.1 35.1 66.5 36.3 C 66.8 37.5 67 38.9 67 40.5 Z" fill="#007a98"/>
        </g>
    </g>
</svg>
