<svg viewBox="0 0 80 80" version="1.1" xmlns="http://www.w3.org/2000/svg" xmlns:xlink="http://www.w3.org/1999/xlink">
    <defs></defs>
    <g id="ICON-/-icon-note20" stroke="none" stroke-width="1" fill="none" fill-rule="evenodd">
        <path id="Fill 1" d="M76.7279 18H2.99988C1.34988 18 -0.00012207 19.35 -0.00012207 21V59.574C-0.00012207 61.224 1.34988 62.574 2.99988 62.574H76.7279C78.3779 62.574 79.7279 61.224 79.7279 59.574V21C79.7279 19.35 78.3779 18 76.7279 18Z" fill="white"/>
        <path id="Fill 1_2" d="M75.7281 50.7715C75.7211 50.7705 75.7151 50.7705 75.7081 50.7705C71.3761 50.7705 67.8621 54.2545 67.8051 58.5745H11.9341C11.8761 54.2545 8.36315 50.7705 4.03015 50.7705C4.02015 50.7705 4.01015 50.7715 3.99915 50.7715V29.8915C4.01015 29.8925 4.02015 29.8925 4.03015 29.8925C8.39315 29.8925 11.9291 26.3605 11.9381 22.0005H67.8001C67.8091 26.3605 71.3461 29.8925 75.7081 29.8925C75.7151 29.8925 75.7211 29.8925 75.7281 29.8915V50.7715ZM76.7281 18.0005H2.99915C1.35015 18.0005 -0.000854492 19.3495 -0.000854492 21.0005V59.5745C-0.000854492 61.2235 1.35015 62.5745 2.99915 62.5745H76.7281C78.3781 62.5745 79.7281 61.2235 79.7281 59.5745V21.0005C79.7281 19.3495 78.3781 18.0005 76.7281 18.0005Z" fill="#00A77E"/>
        <path id="Fill 1_3" d="M32.2661 31.0002C33.0729 31.0002 33.8112 31.1217 34.4803 31.3637C35.1493 31.6057 35.7225 31.9487 36.198 32.3919C36.6735 32.8351 37.0448 33.3684 37.3109 33.9916C37.577 34.6165 37.7097 35.3094 37.7097 36.0736C37.7097 36.7299 37.6154 37.3371 37.426 37.8949C37.2358 38.4528 36.9822 38.9868 36.6635 39.4955C36.3457 40.0041 35.9719 40.4974 35.5448 40.9729C35.1176 41.4492 34.6696 41.9332 34.2016 42.4257L30.2589 46.526C30.646 46.4105 31.0247 46.323 31.3952 46.2611C31.7664 46.1991 32.121 46.1685 32.4597 46.1685H36.948C37.27 46.1685 37.527 46.2611 37.7164 46.4453C37.9057 46.6304 38 46.8741 38 47.1781V49.0002H26V47.9907C26 47.786 26.0425 47.5729 26.1276 47.3505C26.2119 47.1288 26.3471 46.9242 26.5331 46.7349L31.8432 41.3176C32.2862 40.8583 32.6841 40.4193 33.0345 40.0007C33.3857 39.5812 33.6794 39.1677 33.9171 38.7567C34.1557 38.3466 34.3368 37.9297 34.4619 37.5069C34.587 37.0849 34.6496 36.6399 34.6496 36.1712C34.6496 35.745 34.5887 35.3697 34.4686 35.0453C34.3468 34.721 34.1732 34.4484 33.948 34.226C33.7219 34.0043 33.4541 33.8388 33.1438 33.7275C32.8334 33.6163 32.4847 33.562 32.0976 33.562C31.3793 33.562 30.7887 33.7454 30.3248 34.1156C29.861 34.4849 29.5373 34.9808 29.3512 35.6049C29.262 35.9174 29.1293 36.1407 28.9516 36.2765C28.7739 36.4115 28.5487 36.4795 28.275 36.4795C28.1532 36.4795 28.0206 36.4667 27.8754 36.4421L26.3028 36.1594C26.4238 35.3052 26.6574 34.5563 27.0044 33.9126C27.3507 33.2682 27.7845 32.7299 28.3051 32.2994C28.8248 31.868 29.4221 31.5445 30.0945 31.3271C30.7686 31.1098 31.4919 31.0002 32.2661 31.0002Z" fill="#007A98"/>
        <path id="Fill 4" d="M50.9586 40.4999C50.9586 39.1542 50.8575 38.0407 50.6553 37.1568C50.4522 36.2747 50.1807 35.5717 49.8419 35.0495C49.503 34.5274 49.1141 34.1612 48.6732 33.9503C48.2333 33.7401 47.776 33.6355 47.2997 33.6355C46.8333 33.6355 46.3824 33.7401 45.9461 33.9503C45.5107 34.1612 45.1254 34.5274 44.7911 35.0495C44.4559 35.5717 44.1891 36.2747 43.9923 37.1568C43.7937 38.0407 43.6945 39.1542 43.6945 40.4999C43.6945 41.8456 43.7937 42.9591 43.9923 43.8421C44.1891 44.7251 44.4559 45.4281 44.7911 45.9494C45.1254 46.4724 45.5107 46.8394 45.9461 47.0495C46.3824 47.2597 46.8333 47.3643 47.2997 47.3643C47.776 47.3643 48.2333 47.2597 48.6732 47.0495C49.1141 46.8394 49.503 46.4724 49.8419 45.9494C50.1807 45.4281 50.4522 44.7251 50.6553 43.8421C50.8575 42.9591 50.9586 41.8456 50.9586 40.4999ZM54.326 40.5C54.326 42.1197 54.1484 43.5275 53.7914 44.7225C53.4352 45.9176 52.9424 46.906 52.3121 47.6853C51.6827 48.4654 50.9395 49.0461 50.0805 49.4273C49.2225 49.8085 48.2952 50 47.2996 50C46.305 50 45.3832 49.8085 44.5324 49.4273C43.6835 49.0461 42.9457 48.4654 42.3208 47.6853C41.6951 46.906 41.2069 45.9176 40.8544 44.7225C40.5028 43.5275 40.326 42.1197 40.326 40.5C40.326 38.8715 40.5028 37.4619 40.8544 36.2704C41.2069 35.0798 41.6951 34.094 42.3208 33.3147C42.9457 32.5346 43.6835 31.9539 44.5324 31.5727C45.3832 31.1915 46.305 31 47.2996 31C48.2952 31 49.2225 31.1915 50.0805 31.5727C50.9395 31.9539 51.6827 32.5346 52.3121 33.3147C52.9424 34.094 53.4352 35.0798 53.7914 36.2704C54.1484 37.4619 54.326 38.8715 54.326 40.5Z" fill="#007A98"/>
        <path id="$" d="M22.2432 38.2271C22.2432 37.8822 22.1499 37.6088 21.9635 37.4069C21.7812 37.2008 21.4691 37.0116 21.0274 36.8391C20.5856 36.6667 20.2047 36.4963 19.8845 36.3281C19.5643 36.1556 19.2888 35.96 19.0578 35.7413C18.8308 35.5184 18.6525 35.2576 18.5228 34.959C18.3972 34.6604 18.3343 34.3049 18.3343 33.8927C18.3343 33.1819 18.5532 32.5994 18.9909 32.1451C19.4286 31.6909 20.0101 31.4259 20.7356 31.3502V30H21.7082V31.3691C22.4255 31.4742 22.9868 31.7855 23.3921 32.3028C23.7974 32.816 24 33.4826 24 34.3028H22.2432C22.2432 33.7981 22.1418 33.4217 21.9392 33.1735C21.7406 32.9211 21.4732 32.795 21.1368 32.795C20.8045 32.795 20.5471 32.8938 20.3647 33.0915C20.1824 33.285 20.0912 33.5542 20.0912 33.8991C20.0912 34.2187 20.1803 34.4753 20.3587 34.6688C20.537 34.8622 20.8673 35.0599 21.3495 35.2618C21.8359 35.4637 22.2351 35.6551 22.5471 35.836C22.8592 36.0126 23.1226 36.2145 23.3374 36.4416C23.5522 36.6646 23.7163 36.9211 23.8298 37.2114C23.9433 37.4974 24 37.8318 24 38.2145C24 38.9295 23.7852 39.51 23.3556 39.9558C22.926 40.4017 22.3343 40.6646 21.5805 40.7445V42H20.614V40.7508C19.7832 40.6583 19.1388 40.3533 18.6809 39.836C18.227 39.3144 18 38.6225 18 37.7603H19.7568C19.7568 38.2608 19.8703 38.6456 20.0973 38.9148C20.3283 39.1798 20.6586 39.3123 21.0881 39.3123C21.4448 39.3123 21.7264 39.2156 21.9331 39.0221C22.1398 38.8244 22.2432 38.5594 22.2432 38.2271Z" fill="#007A98"/>
    </g>
</svg>
