<svg xmlns="http://www.w3.org/2000/svg" width="80" height="80" viewBox="0 0 80 80">
  <g fill="none" fill-rule="evenodd">
    <circle cx="40.001" cy="40" r="36" fill="#FFF"/>
    <path class="theme-icon-primary-color" fill="#0099BF" d="M40.0009316,0 C17.9108927,0 0,17.9090295 0,39.9990684 C0,62.0928337 17.9108927,80 40.0009316,80 C62.0909705,80 80.0018632,62.0928337 80.0018632,39.9990684 C80.0018632,17.9090295 62.0909705,0 40.0009316,0 M40.0009316,6 C58.7477402,6 74.0009316,21.2516816 74.0009316,39.9990268 C74.0009316,58.7483184 58.7477402,74 40.0009316,74 C21.254123,74 6.0009316,58.7483184 6.0009316,39.9990268 C6.0009316,21.2516816 21.254123,6 40.0009316,6"/>
    <path class="theme-icon-secondary-color" fill="#00A77E" d="M39.9411255,15.9411255 C37.9017849,15.9411255 36.2332335,17.6098098 36.2332335,19.6493128 L36.2332335,36.2310267 L19.6528401,36.2310267 C17.6115882,36.2310267 15.9411255,37.899711 15.9411255,39.9411255 C15.9411255,41.9806285 17.6115882,43.6512243 19.6528401,43.6512243 L36.2332335,43.6512243 L36.2332335,60.2329382 C36.2332335,62.2724412 37.9017849,63.9411255 39.9411255,63.9411255 C41.9804661,63.9411255 43.6490175,62.2724412 43.6490175,60.2329382 L43.6490175,43.6512243 L60.2294109,43.6512243 C62.2706628,43.6512243 63.9411255,41.9806285 63.9411255,39.9411255 C63.9411255,37.899711 62.2706628,36.2310267 60.2294109,36.2310267 L43.6490175,36.2310267 L43.6490175,19.6493128 C43.6490175,17.6098098 41.9804661,15.9411255 39.9411255,15.9411255" transform="rotate(45 39.941 39.941)"/>
  </g>
</svg>
