<svg xmlns="http://www.w3.org/2000/svg" width="80" height="80" viewBox="0 0 80 80">
  <g fill="none" fill-rule="evenodd">
    <circle cx="40.001" cy="40" r="36" fill="#FFF"/>
    <path class="theme-icon-secondary-color" fill="#00A77E" d="M55.6775507,25.442623 L33.35388,47.087284 L23.9402418,37.859105 C23.260582,37.1927337 22.3812283,36.8613203 21.5018747,36.8613203 C20.5874871,36.8613203 19.6748511,37.2210899 18.9864328,37.9388569 C17.6411269,39.3442623 17.6761609,41.5897209 19.0652594,42.9508197 L31.3569415,55.0004431 C32.0120775,55.6420027 32.8879277,56 33.7935568,56 C33.8899004,56 33.9879956,55.9964555 34.0843391,55.9875942 C35.0915669,55.9025255 36.014713,55.3814798 36.6137946,54.557377 L61.3145228,29.6499778 C62.46539,28.0744351 62.1325669,25.8555605 60.5753052,24.6947275 C59.9499481,24.2268498 59.2212407,24 58.4995401,24 C57.423996,24 56.3624656,24.4997785 55.6775507,25.442623 Z"/>
    <path class="theme-icon-primary-color" fill="#0099BF" d="M40.0009316,0 C17.9108927,0 0,17.9090295 0,39.9990684 C0,62.0928337 17.9108927,80 40.0009316,80 C62.0909705,80 80.0018632,62.0928337 80.0018632,39.9990684 C80.0018632,17.9090295 62.0909705,0 40.0009316,0 M40,6 C58.7468086,6 74,21.2516816 74,39.9990268 C74,58.7483184 58.7468086,74 40,74 C21.2531914,74 6,58.7483184 6,39.9990268 C6,21.2516816 21.2531914,6 40,6"/>
  </g>
</svg>
