<svg viewBox="0 0 80 80" version="1.1" xmlns="http://www.w3.org/2000/svg" xmlns:xlink="http://www.w3.org/1999/xlink">
    <title>icon-otherservices</title>
    <defs></defs>
    <g id="Page-1" stroke="none" stroke-width="1" fill="none" fill-rule="evenodd">
        <g id="icon-otherservices-preview">
            <path d="M-0.0001,33.8537 C-0.0001,31.0897 2.2349,28.8477 4.9989,28.8477 L15.5599,28.8477 C18.3209,28.8477 20.5589,31.0887 20.5589,33.8537 L20.5589,47.6347 C20.5589,50.3987 18.3219,52.6407 15.5599,52.6407 L1.9999,52.6407 C0.8959,52.6407 -0.0001,51.7447 -0.0001,50.6407 L-0.0001,33.8537 Z"
                  id="Fill-3" fill="#FFF" class="theme-icon-fill-color"></path>
            <path d="M50.1425,29.1579 L50.1425,20.0039 C50.1425,18.3509 52.0335,17.4119 53.3505,18.4089 L77.0255,36.3399 C79.8425,38.4729 79.8435,42.2209 77.0255,44.3549 L53.3505,62.2849 C52.0335,63.2829 50.1425,62.3439 50.1425,60.6909 L50.1425,52.9509 L28.2655,52.9509 C27.1615,52.9509 26.2655,52.0549 26.2655,50.9509 L26.2655,34.1639 C26.2655,31.4029 28.5105,29.1579 31.2645,29.1579 L50.1425,29.1579 Z"
                  id="Fill-1" fill="#FFF" class="theme-icon-fill-color"></path>
            <path d="M50.1425,29.158 L50.1425,20.004 C50.1425,18.351 52.0335,17.412 53.3505,18.409 L77.0255,36.34 C79.8425,38.473 79.8435,42.221 77.0255,44.355 L53.3505,62.286 C52.0335,63.283 50.1425,62.344 50.1425,60.691 L50.1425,52.951 L28.2655,52.951 C27.1615,52.951 26.2655,52.055 26.2655,50.951 L26.2655,34.164 C26.2655,31.403 28.5105,29.158 31.2645,29.158 L50.1425,29.158 Z M54.1425,31.158 C54.1425,32.262 53.2465,33.158 52.1425,33.158 L31.2645,33.158 C30.7195,33.158 30.2655,33.612 30.2655,34.164 L30.2655,48.951 L52.1425,48.951 C53.2465,48.951 54.1425,49.846 54.1425,50.951 L54.1425,56.668 L74.6105,41.167 C75.3145,40.633 75.3145,40.061 74.6105,39.528 L54.1425,24.027 L54.1425,31.158 Z"
                  id="Fill-1" fill="#00A77E" class="theme-icon-secondary-color"></path>
            <path d="M15.5595,48.6404 C16.1105,48.6404 16.5585,48.1924 16.5585,47.6344 L16.5585,33.8534 C16.5585,33.2964 16.1105,32.8474 15.5595,32.8474 L4.9985,32.8474 C4.4475,32.8474 3.9995,33.2964 3.9995,33.8534 L3.9995,48.6404 L15.5595,48.6404 Z M-0.0005,33.8534 C-0.0005,31.0894 2.2355,28.8474 4.9985,28.8474 L15.5595,28.8474 C18.3215,28.8474 20.5585,31.0894 20.5585,33.8534 L20.5585,47.6344 C20.5585,50.3984 18.3225,52.6404 15.5595,52.6404 L1.9995,52.6404 C0.8955,52.6404 -0.0005,51.7444 -0.0005,50.6404 L-0.0005,33.8534 Z"
                  id="Fill-4" fill="#0099BF" class="theme-icon-primary-color"></path>
        </g>
    </g>
</svg>
