<svg xmlns="http://www.w3.org/2000/svg" width="80" height="80" viewBox="0 0 80 80">
  <g fill="none" fill-rule="evenodd">
    <path fill="#FFF" d="M10.392983,37.6600594 C9.1269538,37.6600594 8.10063436,36.6665976 8.10063436,35.4349061 L8.10063436,10.2806565 C8.10063436,9.05173827 9.12170776,8.05550318 10.392983,8.05550318 L54.6952346,8.05550318 C55.9612638,8.05550318 56.9875833,9.04896504 56.9875833,10.2806565 L56.9875833,35.4349061 C56.9875833,36.6638243 55.9665099,37.6600594 54.6952346,37.6600594 L10.392983,37.6600594 Z"/>
    <path class="theme-icon-secondary-color" fill="#00A77E" d="M55.0472224,39.0356803 C57.1358644,39.0356803 58.8357414,37.3880368 58.8357414,35.3641925 L58.8357414,32.1311904 L55.916987,32.1311904 L55.916987,35.3641925 C55.916987,35.8383883 55.5273601,36.2245547 55.0472224,36.2245547 L10.0401333,36.2245547 C9.56085759,36.2245547 9.1712306,35.8383883 9.1712306,35.3641925 L9.1712306,10.5839332 C9.1712306,10.108907 9.56085759,9.72357098 10.0401333,9.72357098 L15.617316,9.72357098 L15.617316,6.91244535 L10.0401333,6.91244535 C7.95149125,6.91244535 6.25247622,8.55925839 6.25247622,10.5839332 L6.25247622,35.3641925 C6.25247622,37.3880368 7.95149125,39.0356803 10.0401333,39.0356803 L22.6297398,39.0356803 L55.0472224,39.0356803 Z"/>
    <path fill="#FFF" d="M77.4492099,63.0415543 C75.0746302,54.9324666 73.406085,50.1072754 72.4435743,48.5659806 C70.4723248,45.4093648 67.0907055,43.0340812 61.2560198,43.0340812 C59.2567123,43.0742095 51.8390423,43.0742095 39.0030098,43.0340812 C33.5266442,43.3402967 30.7884614,45.1842632 30.7884614,48.5659806 C30.7884614,51.947698 32.2891211,53.9266769 35.2904406,54.5029173 L46.9083364,54.5029173 L28.7724662,55.4468916 C28.3764234,55.4675056 27.983277,55.3690901 27.6436546,55.1643182 L11.4646636,45.4093648 L11.4646636,45.4093648 C7.46901516,42.7732759 4.52422226,42.7732759 2.6302849,45.4093648 C0.736347543,48.0454538 1.24761682,50.655815 4.16409273,53.2404487 L21.1487166,64.9374513 C22.1222886,65.5046405 24.689927,66.2095062 28.8516319,67.0520484 C33.0133368,67.8945905 40.7294595,69.7844821 52,72.7217231 L52,72.7217231 L76.1127271,65.5024915 C77.1591062,65.1892078 77.7561689,64.0898062 77.4492099,63.0415543 Z"/>
    <path class="theme-icon-secondary-color" fill="#00A77E" fill-rule="nonzero" d="M60.4876198,41.9359883 L57.1259925,41.9628172 C53.4845059,41.9738477 47.2740307,41.9649414 38.5076478,41.9359883 C32.331031,42.2980369 28.9267428,44.7193808 28.9267428,49.2246781 L28.9300506,49.5239035 C28.9785427,51.6992519 29.5597579,53.4562536 30.6433104,54.7301324 L30.6703952,54.75971 L28.3232474,54.8899451 C28.22474,54.8953605 28.1269712,54.8695887 28.042886,54.816042 L12.0606276,44.6382985 C7.57909927,41.514011 3.78525166,41.514011 1.37571196,45.0561705 C-0.953305325,48.4799575 -0.291595675,52.0482297 3.10607239,55.2284787 L3.24602838,55.3441658 L20.0258021,67.5493499 L20.1192085,67.6119293 C21.2766509,68.3241242 23.8917755,69.0823604 28.1793582,69.9991559 L28.8811347,70.145748 C32.5634565,70.8984652 38.8476988,71.9476069 47.7487718,73.2963997 L52.7428871,74.0439895 C53.1360918,74.1022743 53.5352064,73.9918292 53.8482909,73.7380964 L54.5464616,73.1722785 C54.6031328,73.1263505 54.6688979,73.0940202 54.7390339,73.0776093 L75.340209,68.257219 C77.1766033,67.8275547 78.3297629,65.9337849 77.9158432,64.0273943 L77.8924004,63.9263639 L77.3088292,61.8351311 C75.2256129,54.462152 73.7494368,50.0621845 72.7852146,48.4313989 C70.3184562,44.2593795 66.2652763,41.9359883 60.4876198,41.9359883 Z M38.5859706,44.9664493 L54.9768666,44.9994847 C57.4060624,44.9974712 59.1109098,44.9895736 60.0889829,44.9758993 L60.4876198,44.9688973 C65.2556932,44.9688973 68.3631539,46.7501769 70.2952697,50.0179572 L70.4007088,50.2069168 C71.1831107,51.6825401 72.5395422,55.7659604 74.3923337,62.2906835 L75.0657728,64.6942714 C75.1249048,64.966616 74.9601701,65.2371507 74.697832,65.2985304 L54.0966379,70.1189252 L53.8881995,70.174933 C53.4754547,70.3004044 53.088659,70.5060415 52.7486321,70.7816092 L52.5391954,70.9498274 L46.4471449,70.0328292 C37.9388946,68.7308036 32.0410789,67.7283131 28.7687589,67.0286069 L28.3801471,66.9448904 C24.7992094,66.1676204 22.5113336,65.5057787 21.6911403,65.0508468 L21.6467325,65.0251239 L5.00071289,52.9171476 L5.06247515,52.9759823 C2.69754215,50.7623829 2.349046,48.8831159 3.76221819,46.805673 C5.09486796,44.8466025 7.11957233,44.8466025 10.48267,47.1900318 L26.515217,57.4012884 C27.1038136,57.7761156 27.7881947,57.9565181 28.4777467,57.9186103 L46.3902323,56.9338803 L46.5435284,56.9187921 C48.2788873,56.6694136 48.1571516,53.9030932 46.3129826,53.9030932 L34.9870831,53.9025621 L35.115264,53.9312225 C32.8668229,53.4752774 31.8483133,52.0566653 31.8483133,49.2246781 C31.8483133,46.6727001 33.8543409,45.2458871 38.5859706,44.9664493 Z"/>
    <path fill="#FFF" d="M53.7276368,79.1623323 L76.507803,79.1623323 C77.6047547,79.1623323 78.4940099,78.2730771 78.4940099,77.1761254 L78.4940099,68.121341 C78.4940099,67.0243892 77.6047547,66.1351341 76.507803,66.1351341 C76.3231762,66.1351341 76.1394511,66.1608763 75.9619338,66.2116173 L53.1817677,72.7230252 C52.3291937,72.9667221 51.7414299,73.7460299 51.7414299,74.6327489 L51.7414299,77.1761254 C51.7414299,78.2730771 52.630685,79.1623323 53.7276368,79.1623323 Z"/>
    <path class="theme-icon-primary-color" fill="#0099BF" fill-rule="nonzero" d="M76.4801397,64 C76.1411527,64 75.8039434,64.0471771 75.4789584,64.1400697 L52.749076,70.6371047 C51.2550904,71.0641407 50.2303969,72.3867689 50.2303969,73.8881023 L50.2303969,76.5316314 C50.2303969,78.4044662 51.8062921,79.9226988 53.7502573,79.9226988 L76.4801397,79.9226988 C78.4241049,79.9226988 80,78.4044662 80,76.5316314 L80,67.3910673 C80,65.5182326 78.4241049,64 76.4801397,64 Z M76.4801397,66.9066292 C76.757849,66.9066292 76.9829769,67.1235195 76.9829769,67.3910673 L76.9829769,76.5316314 C76.9829769,76.7991792 76.757849,77.0160696 76.4801397,77.0160696 L53.7502573,77.0160696 C53.472548,77.0160696 53.2474201,76.7991792 53.2474201,76.5316314 L53.2474201,73.8881023 C53.2474201,73.6736261 53.3938049,73.4846792 53.6072314,73.4236741 L76.3371138,66.9266391 C76.3835402,66.9133687 76.431713,66.9066292 76.4801397,66.9066292 Z"/>
    <path fill="#FFF" d="M16.5875117,31.0679633 C15.3214825,31.0679633 14.2951631,30.0745014 14.2951631,28.8428099 L14.2951631,3.68856038 C14.2951631,2.45964213 15.3162365,1.46340704 16.5875117,1.46340704 L60.8897634,1.46340704 C62.1557926,1.46340704 63.182112,2.4568689 63.182112,3.68856038 L63.182112,28.8428099 C63.182112,30.0717282 62.1610386,31.0679633 60.8897634,31.0679633 L16.5875117,31.0679633 Z"/>
    <path class="theme-icon-primary-color" fill="#0099BF" fill-rule="nonzero" d="M60.8897634,3.55271368e-14 L16.5875117,3.55271368e-14 C14.460766,3.55271368e-14 12.7567016,1.65673237 12.7567016,3.68856038 L12.7567016,28.8428099 C12.7567016,30.8754736 14.4640729,32.5313703 16.5875117,32.5313703 L60.8897634,32.5313703 C63.0165091,32.5313703 64.7205736,30.8746379 64.7205736,28.8428099 L64.7205736,3.68856038 C64.7205736,1.65589667 63.0132022,3.55271368e-14 60.8897634,3.55271368e-14 Z M16.5875117,2.92681408 L60.8897634,2.92681408 C61.3003581,2.92681408 61.6436505,3.25975672 61.6436505,3.68856038 L61.6436505,28.8428099 C61.6436505,29.2723414 61.3019445,29.6045562 60.8897634,29.6045562 L16.5875117,29.6045562 C16.176917,29.6045562 15.8336246,29.2716136 15.8336246,28.8428099 L15.8336246,3.68856038 C15.8336246,3.25902887 16.1753306,2.92681408 16.5875117,2.92681408 Z"/>
    <path class="theme-icon-primary-color" stroke="#0099BF" stroke-width="3" d="M59.3802791,1.9494814 C61.3220156,1.9494814 62.896104,3.52356981 62.896104,5.46530626 L62.896104,10.5873845 C62.896104,10.7581472 62.8839299,10.9260664 62.8604024,11.0903217 C58.0861262,11.0711588 54.2230664,7.33758596 54.2230664,2.73476134 C54.2230664,2.53298415 54.2304902,2.33287744 54.245089,2.13468089 C54.5999464,2.01441243 54.9791491,1.9494814 55.3735173,1.9494814 L59.3802791,1.9494814 Z"/>
    <path class="theme-icon-primary-color" stroke="#0099BF" stroke-width="3" d="M19.7383839,1.9494814 C21.6801204,1.9494814 23.2542088,3.52356981 23.2542088,5.46530626 L23.2542088,10.5873845 C23.2542088,10.7581472 23.2420347,10.9260664 23.2185073,11.0903217 C18.444231,11.0711588 14.5811712,7.33758596 14.5811712,2.73476134 C14.5811712,2.53298415 14.588595,2.33287744 14.6031938,2.13468089 C14.9580512,2.01441243 15.337254,1.9494814 15.7316221,1.9494814 L19.7383839,1.9494814 Z" transform="matrix(-1 0 0 1 37.835 0)"/>
    <path class="theme-icon-primary-color" stroke="#0099BF" stroke-width="3" d="M59.3802791,21.5056546 C61.3220156,21.5056546 62.896104,23.079743 62.896104,25.0214794 L62.896104,30.1435577 C62.896104,30.3143204 62.8839299,30.4822396 62.8604024,30.6464949 C58.0861262,30.627332 54.2230664,26.8937591 54.2230664,22.2909345 C54.2230664,22.0891573 54.2304902,21.8890506 54.245089,21.6908541 C54.5999464,21.5705856 54.9791491,21.5056546 55.3735173,21.5056546 L59.3802791,21.5056546 Z" transform="matrix(1 0 0 -1 0 52.153)"/>
    <path class="theme-icon-primary-color" stroke="#0099BF" stroke-width="3" d="M19.7383839,21.1562579 C21.6801204,21.1562579 23.2542088,22.7303463 23.2542088,24.6720827 L23.2542088,29.794161 C23.2542088,29.9649236 23.2420347,30.1328429 23.2185073,30.2970982 C18.444231,30.2779353 14.5811712,26.5443624 14.5811712,21.9415378 C14.5811712,21.7397606 14.588595,21.5396539 14.6031938,21.3414574 C14.9580512,21.2211889 15.337254,21.1562579 15.7316221,21.1562579 L19.7383839,21.1562579 Z" transform="rotate(180 18.918 25.727)"/>
    <path class="theme-icon-secondary-color" fill="#00A77E" fill-rule="nonzero" d="M38.7386376,8.36617069 C34.224838,8.36617069 30.5580863,11.8987546 30.5580863,16.2656852 C30.5580863,20.6326157 34.224838,24.1651996 38.7386376,24.1651996 C43.2524371,24.1651996 46.9191888,20.6326157 46.9191888,16.2656852 C46.9191888,11.8987546 43.2524371,8.36617069 38.7386376,8.36617069 Z M38.7386376,11.2929848 C41.6039712,11.2929848 43.9191888,13.5234877 43.9191888,16.2656852 C43.9191888,19.0078826 41.6039712,21.2383855 38.7386376,21.2383855 C35.873304,21.2383855 33.5580863,19.0078826 33.5580863,16.2656852 C33.5580863,13.5234877 35.873304,11.2929848 38.7386376,11.2929848 Z"/>
  </g>
</svg>
