<svg viewBox="0 0 80 80" version="1.1" xmlns="http://www.w3.org/2000/svg" xmlns:xlink="http://www.w3.org/1999/xlink">
  <g id="_symbols" stroke="none" stroke-width="1" fill="none" fill-rule="evenodd">
    <g id="ICON-/-icon-paperclips" fill="#007A98">
      <path d="M69.3333333,60.2083333 C69.3333333,63.4583496 68.2361221,66.1805446 66.0416667,68.375 C63.8472113,70.5694554 61.1250163,71.6666667 57.875,71.6666667 C54.1249813,71.6666667 50.861125,70.2777917 48.0833333,67.5 L15.7083333,35.1666667 C12.5694288,31.9722062 11,28.208355 11,23.875 C11,19.4583112 12.5277625,15.7083487 15.5833333,12.625 C18.6389042,9.54165125 22.3749779,8 26.7916667,8 C31.1805775,8 34.9722062,9.56942875 38.1666667,12.7083333 L63.375,37.9583333 C63.6527792,38.2361125 63.7916667,38.541665 63.7916667,38.875 C63.7916667,39.3194467 63.3680598,39.9652735 62.5208333,40.8125 C61.6736069,41.6597265 61.02778,42.0833333 60.5833333,42.0833333 C60.2222204,42.0833333 59.9027792,41.9444458 59.625,41.6666667 L34.375,16.375 C32.1805446,14.2361004 29.6666808,13.1666667 26.8333333,13.1666667 C23.8888742,13.1666667 21.4027879,14.2083229 19.375,16.2916667 C17.3472121,18.3750104 16.3333333,20.8888742 16.3333333,23.8333333 C16.3333333,26.7500146 17.3888783,29.2638783 19.5,31.375 L51.8333333,63.75 C53.5833421,65.5000088 55.5972108,66.375 57.875,66.375 C59.6527867,66.375 61.1249942,65.7916725 62.2916667,64.625 C63.4583392,63.4583275 64.0416667,61.98612 64.0416667,60.2083333 C64.0416667,57.9305442 63.1666754,55.9166754 61.4166667,54.1666667 L37.2083333,29.9583333 C36.4861075,29.2916633 35.6527825,28.9583333 34.7083333,28.9583333 C33.9027738,28.9583333 33.2361138,29.2222196 32.7083333,29.75 C32.1805529,30.2777804 31.9166667,30.9444404 31.9166667,31.75 C31.9166667,32.6388933 32.2638854,33.4583296 32.9583333,34.2083333 L50.0416667,51.2916667 C50.3194458,51.5694458 50.4583333,51.8749983 50.4583333,52.2083333 C50.4583333,52.65278 50.0277821,53.3055512 49.1666667,54.1666667 C48.3055513,55.0277821 47.65278,55.4583333 47.2083333,55.4583333 C46.8749983,55.4583333 46.5694458,55.3194458 46.2916667,55.0416667 L29.2083333,37.9583333 C27.4583246,36.2638804 26.5833333,34.1944567 26.5833333,31.75 C26.5833333,29.4722108 27.3749921,27.5416746 28.9583333,25.9583333 C30.5416746,24.3749921 32.4722108,23.5833333 34.75,23.5833333 C37.1944567,23.5833333 39.2638804,24.4583246 40.9583333,26.2083333 L65.1666667,50.4166667 C67.9444583,53.1389025 69.3333333,56.4027587 69.3333333,60.2083333 Z" id="fill-1"></path>
    </g>
  </g>
</svg>
