<?xml version="1.0" encoding="UTF-8"?>
<svg width="80px" height="80px" viewBox="0 0 80 80" version="1.1" xmlns="http://www.w3.org/2000/svg" xmlns:xlink="http://www.w3.org/1999/xlink">
    <!-- Generator: Sketch 55.2 (78181) - https://sketchapp.com -->
    <title>ICON / icon-epayment</title>
    <desc>Created with Sketch.</desc>
    <g id="ICON-/-icon-epayment" stroke="none" stroke-width="1" fill="none" fill-rule="evenodd">
        <g id="Group-2" fill-rule="nonzero">
            <g id="Group">
                <path d="M1,63.2950759 C1,70.3221763 6.36413925,77.1121807 14.1428571,77.1121807 L66.8593382,77.1121807 C70.7253305,77.1121791 73.8593366,73.978173 73.8593366,70.1121807 C73.8593366,60.9610976 73.8593366,56.4852418 73.8593366,56.6846133 C73.8593366,56.8183114 76.5973782,55.9296619 77.2763301,54.0186651 C77.8410219,52.4292679 77.8916746,43.8985131 77,42.1621622 C76.4055503,41.0045949 75.3586624,40.442202 73.8593366,40.4749835 L73.8593366,21.320622 C73.8593366,17.4546287 70.7253298,14.320622 66.8593366,14.320622 L58.8771341,14.320622 C58.4982571,14.320622 58.8636638,0.844296069 58.8771341,1.21925921 C58.8771341,1.21925921 5.34596153,3.35768918 5.34596153,1.21925921 L2.3717917,9.72972973 L1,63.2950759 Z" id="BG" fill="#FFFFFF"></path>
                <path class="theme-icon-secondary-color" d="M0.0622357547,8.15106729 C0.565597129,3.57240725 4.06171735,7.10542736e-14 8.33333333,7.10542736e-14 L59,7.10542736e-14 C60.1045695,7.10542736e-14 61,0.968032973 61,2.16216216 L61,7.86525656 C61,9.05938575 60.1045695,10.0274187 59,10.0274187 C57.8954305,10.0274187 57,9.05938575 57,7.86525656 L57,4.32432432 L8.33333333,4.32432432 C6.03890571,4.32432432 4.13217164,6.38375456 4.00658175,9.0145092 C4.13208382,11.5992473 6.0363606,13.6310223 8.33928571,13.6310223 L73,13.6310223 C74.1045695,13.6310223 75,14.5990553 75,15.7931845 L75,36.1927145 L77.6896552,36.1927145 C78.9656234,36.1927145 80,37.1607474 80,38.3548766 L80,55.9028594 C80,57.0969886 78.9656234,58.0650215 77.6896552,58.0650215 L75,58.0650215 L75,77.8378378 C75,79.031967 74.1045695,80 73,80 L12.1428571,80 C5.42399525,80 0,73.9674537 0,66.5569918 L0,8.7426557 C0,8.52973372 0.0218196101,8.33253758 0.0622357547,8.15106729 Z M58.5,50.2902468 C56.8431458,50.2902468 55.5,48.947101 55.5,47.2902468 C55.5,45.6333925 56.8431458,44.2902468 58.5,44.2902468 C60.1568542,44.2902468 61.5,45.6333925 61.5,47.2902468 C61.5,48.947101 60.1568542,50.2902468 58.5,50.2902468 Z M71,36.1927145 L71,17.9553467 L8.33928571,17.9553467 C6.74782117,17.9553467 5.26285865,17.4638126 4,16.6118636 L4,66.5569918 C4,71.6062243 7.65893332,75.6756757 12.1428571,75.6756757 L71,75.6756757 L71,58.0650215 L57.4741379,58.0650215 C51.3703582,58.0650215 46.5,53.1327153 46.5,47.128868 C46.5,41.1250207 51.3703582,36.1927145 57.4741379,36.1927145 L71,36.1927145 Z M75.3793103,40.5170388 L57.4741379,40.5170388 C54.0073142,40.5170388 51.1206897,43.4403795 51.1206897,47.128868 C51.1206897,50.8173565 54.0073142,53.7406972 57.4741379,53.7406972 L75.3793103,53.7406972 L75.3793103,40.5170388 Z" id="Combined-Shape" fill="#00A77E"></path>
                <path class="theme-icon-primary-color" d="M63.9813084,22.7027027 L66,22.7027027 L66,27.0558284 L63.9813084,27.0558284 L59.9439252,27.0558284 L57.9252336,27.0558284 L57.9252336,22.7027027 L59.9439252,22.7027027 L63.9813084,22.7027027 Z M48.3364486,22.7027027 L50.3551402,22.7027027 L50.3551402,27.0558284 L48.3364486,27.0558284 L44.2990654,27.0558284 L42.2803738,27.0558284 L42.2803738,22.7027027 L44.2990654,22.7027027 L48.3364486,22.7027027 Z M33.1962617,22.7027027 L35.2149533,22.7027027 L35.2149533,27.0558284 L33.1962617,27.0558284 L29.1588785,27.0558284 L27.1401869,27.0558284 L27.1401869,22.7027027 L29.1588785,22.7027027 L33.1962617,22.7027027 Z M18.0560748,22.7027027 L20.0747664,22.7027027 L20.0747664,27.0558284 L18.0560748,27.0558284 L14.0186916,27.0558284 L12,27.0558284 L12,22.7027027 L14.0186916,22.7027027 L18.0560748,22.7027027 Z M63.9622642,65.9459459 L66,65.9459459 L66,70.2702703 L63.9622642,70.2702703 L59.8867925,70.2702703 L57.8490566,70.2702703 L57.8490566,65.9459459 L59.8867925,65.9459459 L63.9622642,65.9459459 Z M48.6792453,65.9459459 L50.7169811,65.9459459 L50.7169811,70.2702703 L48.6792453,70.2702703 L44.6037736,70.2702703 L42.5660377,70.2702703 L42.5660377,65.9459459 L44.6037736,65.9459459 L48.6792453,65.9459459 Z M33.3962264,65.9459459 L35.4339623,65.9459459 L35.4339623,70.2702703 L33.3962264,70.2702703 L29.3207547,70.2702703 L27.2830189,70.2702703 L27.2830189,65.9459459 L29.3207547,65.9459459 L33.3962264,65.9459459 Z M18.1132075,65.9459459 L20.1509434,65.9459459 L20.1509434,70.2702703 L18.1132075,70.2702703 L14.0377358,70.2702703 L12,70.2702703 L12,65.9459459 L14.0377358,65.9459459 L18.1132075,65.9459459 Z" id="Combined-Shape" fill="#0099BF"></path>
            </g>
        </g>
    </g>
</svg>