<svg viewBox="0 0 80 80" version="1.1" xmlns="http://www.w3.org/2000/svg" xmlns:xlink="http://www.w3.org/1999/xlink">
  <defs></defs>
  <g id="_symbols" stroke="none" stroke-width="1" fill="none" fill-rule="evenodd">
    <g id="icon-pin-change-preview" fill-rule="nonzero">
      <path
        d="M10.797601,0.0851041667 L69.3050207,0.0851041667 C72.0664444,0.0851041667 74.3050207,2.32368042 74.3050207,5.08510417 L74.3050207,74.0717708 C74.3050207,76.8331946 72.0664444,79.0717708 69.3050207,79.0717708 L10.797601,79.0717708 C8.03617721,79.0717708 5.79760096,76.8331946 5.79760096,74.0717708 L5.79760096,5.08510417 C5.79760096,2.32368042 8.03617721,0.0851041667 10.797601,0.0851041667 Z"
        id="bg-white" fill="#FFF" class="theme-icon-fill-color"></path>
      <path
        d="M10.797601,4.08510417 C10.2453162,4.08510417 9.79760096,4.53281942 9.79760096,5.08510417 L9.79760096,74.0717708 C9.79760096,74.6240556 10.2453162,75.0717708 10.797601,75.0717708 L69.3050207,75.0717708 C69.8573054,75.0717708 70.3050207,74.6240556 70.3050207,74.0717708 L70.3050207,5.08510417 C70.3050207,4.53281942 69.8573054,4.08510417 69.3050207,4.08510417 L10.797601,4.08510417 Z M10.797601,0.0851041667 L69.3050207,0.0851041667 C72.0664444,0.0851041667 74.3050207,2.32368042 74.3050207,5.08510417 L74.3050207,74.0717708 C74.3050207,76.8331946 72.0664444,79.0717708 69.3050207,79.0717708 L10.797601,79.0717708 C8.03617721,79.0717708 5.79760096,76.8331946 5.79760096,74.0717708 L5.79760096,5.08510417 C5.79760096,2.32368042 8.03617721,0.0851041667 10.797601,0.0851041667 Z"
        id="Rectangle-2-Copy-2" fill="#0099BF" class="theme-icon-primary-color"></path>
      <path
        d="M8.2178041,29.3333333 L71.8838124,29.3333333 C72.9883819,29.3333333 73.8838124,28.4379028 73.8838124,27.3333333 C73.8838124,26.2287638 72.9883819,25.3333333 71.8838124,25.3333333 L8.2178041,25.3333333 C7.1132346,25.3333333 6.2178041,26.2287638 6.2178041,27.3333333 C6.2178041,28.4379028 7.1132346,29.3333333 8.2178041,29.3333333 Z"
        id="Line-Copy-12" fill="#0099BF" class="theme-icon-primary-color"></path>
      <path
        d="M26,37.4 L26,40.0020545 L28.4888696,40.0020545 L28.4888696,37.4 L26,37.4 Z M25,34.4 L29.4888696,34.4 C30.5934391,34.4 31.4888696,35.2954305 31.4888696,36.4 L31.4888696,41.0020545 C31.4888696,42.106624 30.5934391,43.0020545 29.4888696,43.0020545 L25,43.0020545 C23.8954305,43.0020545 23,42.106624 23,41.0020545 L23,36.4 C23,35.2954305 23.8954305,34.4 25,34.4 Z"
        id="Rectangle" fill="#0099BF" class="theme-icon-primary-color"></path>
      <path
        d="M39,37.4 L39,40.0020545 L41.4888696,40.0020545 L41.4888696,37.4 L39,37.4 Z M38,34.4 L42.4888696,34.4 C43.5934391,34.4 44.4888696,35.2954305 44.4888696,36.4 L44.4888696,41.0020545 C44.4888696,42.106624 43.5934391,43.0020545 42.4888696,43.0020545 L38,43.0020545 C36.8954305,43.0020545 36,42.106624 36,41.0020545 L36,36.4 C36,35.2954305 36.8954305,34.4 38,34.4 Z"
        id="Rectangle-Copy" fill="#0099BF" class="theme-icon-primary-color"></path>
      <path
        d="M52,40.0020545 L54.4888696,40.0020545 L54.4888696,37.4 L52,37.4 L52,40.0020545 Z M51,34.4 L55.4888696,34.4 C56.5934391,34.4 57.4888696,35.2954305 57.4888696,36.4 L57.4888696,41.0020545 C57.4888696,42.106624 56.5934391,43.0020545 55.4888696,43.0020545 L51,43.0020545 C49.8954305,43.0020545 49,42.106624 49,41.0020545 L49,36.4 C49,35.2954305 49.8954305,34.4 51,34.4 Z"
        id="Rectangle-Copy-2" fill="#0099BF" class="theme-icon-primary-color"></path>
      <path
        d="M26,50.5733333 L26,53.1753878 L28.4888696,53.1753878 L28.4888696,50.5733333 L26,50.5733333 Z M25,47.5733333 L29.4888696,47.5733333 C30.5934391,47.5733333 31.4888696,48.4687638 31.4888696,49.5733333 L31.4888696,54.1753878 C31.4888696,55.2799573 30.5934391,56.1753878 29.4888696,56.1753878 L25,56.1753878 C23.8954305,56.1753878 23,55.2799573 23,54.1753878 L23,49.5733333 C23,48.4687638 23.8954305,47.5733333 25,47.5733333 Z"
        id="Rectangle" fill="#0099BF" class="theme-icon-primary-color"></path>
      <path
        d="M39,53.1753878 L41.4888696,53.1753878 L41.4888696,50.5733333 L39,50.5733333 L39,53.1753878 Z M38,47.5733333 L42.4888696,47.5733333 C43.5934391,47.5733333 44.4888696,48.4687638 44.4888696,49.5733333 L44.4888696,54.1753878 C44.4888696,55.2799573 43.5934391,56.1753878 42.4888696,56.1753878 L38,56.1753878 C36.8954305,56.1753878 36,55.2799573 36,54.1753878 L36,49.5733333 C36,48.4687638 36.8954305,47.5733333 38,47.5733333 Z"
        id="Rectangle-Copy" fill="#0099BF" class="theme-icon-primary-color"></path>
      <path
        d="M52,53.1753878 L54.4888696,53.1753878 L54.4888696,50.5733333 L52,50.5733333 L52,53.1753878 Z M51,47.5733333 L55.4888696,47.5733333 C56.5934391,47.5733333 57.4888696,48.4687638 57.4888696,49.5733333 L57.4888696,54.1753878 C57.4888696,55.2799573 56.5934391,56.1753878 55.4888696,56.1753878 L51,56.1753878 C49.8954305,56.1753878 49,55.2799573 49,54.1753878 L49,49.5733333 C49,48.4687638 49.8954305,47.5733333 51,47.5733333 Z"
        id="Rectangle-Copy-2" fill="#0099BF" class="theme-icon-primary-color"></path>
      <path
        d="M26,66.3487211 L28.4888696,66.3487211 L28.4888696,63.7466667 L26,63.7466667 L26,66.3487211 Z M25,60.7466667 L29.4888696,60.7466667 C30.5934391,60.7466667 31.4888696,61.6420972 31.4888696,62.7466667 L31.4888696,67.3487211 C31.4888696,68.4532906 30.5934391,69.3487211 29.4888696,69.3487211 L25,69.3487211 C23.8954305,69.3487211 23,68.4532906 23,67.3487211 L23,62.7466667 C23,61.6420972 23.8954305,60.7466667 25,60.7466667 Z"
        id="Rectangle" fill="#0099BF" class="theme-icon-primary-color"></path>
      <path
        d="M39,66.3487211 L41.4888696,66.3487211 L41.4888696,63.7466667 L39,63.7466667 L39,66.3487211 Z M38,60.7466667 L42.4888696,60.7466667 C43.5934391,60.7466667 44.4888696,61.6420972 44.4888696,62.7466667 L44.4888696,67.3487211 C44.4888696,68.4532906 43.5934391,69.3487211 42.4888696,69.3487211 L38,69.3487211 C36.8954305,69.3487211 36,68.4532906 36,67.3487211 L36,62.7466667 C36,61.6420972 36.8954305,60.7466667 38,60.7466667 Z"
        id="Rectangle-Copy" fill="#0099BF" class="theme-icon-primary-color"></path>
      <path
        d="M52,66.3487211 L54.4888696,66.3487211 L54.4888696,63.7466667 L52,63.7466667 L52,66.3487211 Z M51,60.7466667 L55.4888696,60.7466667 C56.5934391,60.7466667 57.4888696,61.6420972 57.4888696,62.7466667 L57.4888696,67.3487211 C57.4888696,68.4532906 56.5934391,69.3487211 55.4888696,69.3487211 L51,69.3487211 C49.8954305,69.3487211 49,68.4532906 49,67.3487211 L49,62.7466667 C49,61.6420972 49.8954305,60.7466667 51,60.7466667 Z"
        id="Rectangle-Copy-2" fill="#0099BF" class="theme-icon-primary-color"></path>
      <path
        d="M22.5335331,13.0792037 L22.5335331,11.5 C22.5335331,10.6715729 21.8619602,10 21.0335331,10 C20.2051059,10 19.5335331,10.6715729 19.5335331,11.5 L19.5335331,13.2003327 L18.0864837,12.5860967 C17.3239125,12.2624044 16.443322,12.6181861 16.1196298,13.3807573 C15.7959375,14.1433285 16.1517192,15.023919 16.9142903,15.3476113 L18.5262453,16.0318455 L17.4362556,17.4783107 C16.9376957,18.139922 17.069875,19.0804266 17.7314863,19.5789865 C18.3930976,20.0775464 19.3336022,19.9453671 19.8321621,19.2837558 L20.8701722,17.9062699 L21.9081822,19.2837558 C22.4067421,19.9453671 23.3472467,20.0775464 24.008858,19.5789865 C24.6704693,19.0804266 24.8026486,18.139922 24.3040888,17.4783107 L23.2241224,16.045147 L24.8674137,15.3476113 C25.6299849,15.023919 25.9857666,14.1433285 25.6620743,13.3807573 C25.338382,12.6181861 24.4577915,12.2624044 23.6952203,12.5860967 L22.5335331,13.0792037 Z"
        id="Combined-Shape-Copy" fill="#00A77E" class="theme-icon-secondary-color"></path>
      <path
        d="M35.5335331,13.0792037 L35.5335331,11.5 C35.5335331,10.6715729 34.8619602,10 34.0335331,10 C33.2051059,10 32.5335331,10.6715729 32.5335331,11.5 L32.5335331,13.2003327 L31.0864837,12.5860967 C30.3239125,12.2624044 29.443322,12.6181861 29.1196298,13.3807573 C28.7959375,14.1433285 29.1517192,15.023919 29.9142903,15.3476113 L31.5262453,16.0318455 L30.4362556,17.4783107 C29.9376957,18.139922 30.069875,19.0804266 30.7314863,19.5789865 C31.3930976,20.0775464 32.3336022,19.9453671 32.8321621,19.2837558 L33.8701722,17.9062699 L34.9081822,19.2837558 C35.4067421,19.9453671 36.3472467,20.0775464 37.008858,19.5789865 C37.6704693,19.0804266 37.8026486,18.139922 37.3040888,17.4783107 L36.2241224,16.045147 L37.8674137,15.3476113 C38.6299849,15.023919 38.9857666,14.1433285 38.6620743,13.3807573 C38.338382,12.6181861 37.4577915,12.2624044 36.6952203,12.5860967 L35.5335331,13.0792037 Z"
        id="Combined-Shape-Copy-2" fill="#00A77E" class="theme-icon-secondary-color"></path>
      <path
        d="M48.5335331,13.0792037 L48.5335331,11.5 C48.5335331,10.6715729 47.8619602,10 47.0335331,10 C46.2051059,10 45.5335331,10.6715729 45.5335331,11.5 L45.5335331,13.2003327 L44.0864837,12.5860967 C43.3239125,12.2624044 42.443322,12.6181861 42.1196298,13.3807573 C41.7959375,14.1433285 42.1517192,15.023919 42.9142903,15.3476113 L44.5262453,16.0318455 L43.4362556,17.4783107 C42.9376957,18.139922 43.069875,19.0804266 43.7314863,19.5789865 C44.3930976,20.0775464 45.3336022,19.9453671 45.8321621,19.2837558 L46.8701722,17.9062699 L47.9081822,19.2837558 C48.4067421,19.9453671 49.3472467,20.0775464 50.008858,19.5789865 C50.6704693,19.0804266 50.8026486,18.139922 50.3040888,17.4783107 L49.2241224,16.045147 L50.8674137,15.3476113 C51.6299849,15.023919 51.9857666,14.1433285 51.6620743,13.3807573 C51.338382,12.6181861 50.4577915,12.2624044 49.6952203,12.5860967 L48.5335331,13.0792037 Z"
        id="Combined-Shape-Copy-3" fill="#00A77E" class="theme-icon-secondary-color"></path>
      <path
        d="M61.5335331,13.0792037 L61.5335331,11.5 C61.5335331,10.6715729 60.8619602,10 60.0335331,10 C59.2051059,10 58.5335331,10.6715729 58.5335331,11.5 L58.5335331,13.2003327 L57.0864837,12.5860967 C56.3239125,12.2624044 55.443322,12.6181861 55.1196298,13.3807573 C54.7959375,14.1433285 55.1517192,15.023919 55.9142903,15.3476113 L57.5262453,16.0318455 L56.4362556,17.4783107 C55.9376957,18.139922 56.069875,19.0804266 56.7314863,19.5789865 C57.3930976,20.0775464 58.3336022,19.9453671 58.8321621,19.2837558 L59.8701722,17.9062699 L60.9081822,19.2837558 C61.4067421,19.9453671 62.3472467,20.0775464 63.008858,19.5789865 C63.6704693,19.0804266 63.8026486,18.139922 63.3040888,17.4783107 L62.2241224,16.045147 L63.8674137,15.3476113 C64.6299849,15.023919 64.9857666,14.1433285 64.6620743,13.3807573 C64.338382,12.6181861 63.4577915,12.2624044 62.6952203,12.5860967 L61.5335331,13.0792037 Z"
        id="Combined-Shape-Copy-4" fill="#00A77E" class="theme-icon-secondary-color"></path>
    </g>
  </g>
</svg>
