<svg xmlns="http://www.w3.org/2000/svg"  viewBox="0 0 340 53">
    <title>Popmoney-color icon</title>
  <g fill="none">
    <path  d="M19.26,0.00162557237 L19.26,0.0212482139 C26.0925601,-0.133226338 32.4745764,3.35479422 35.9371167,9.13594224 C39.399657,14.9170903 39.399657,22.0846514 35.9371167,27.8657995 C32.4745764,33.6469475 26.0925601,37.134968 19.26,36.9804935 C16.010368,36.9866686 12.8104737,36.1975736 9.95,34.6846444 L9.95,34.6846444 L9.95,48.6559652 L4.97379915e-14,48.6559652 L4.97379915e-14,18.4567199 C0.137240943,8.14778893 8.75251205,-0.107436464 19.26,0.00162557237 L19.26,0.00162557237 Z M102.71,0.00162557237 L102.71,0.0212482139 C109.54256,-0.133226338 115.924576,3.35479422 119.387117,9.13594224 C122.849657,14.9170903 122.849657,22.0846514 119.387117,27.8657995 C115.924576,33.6469475 109.54256,37.134968 102.71,36.9804935 C99.460368,36.9866686 96.2604737,36.1975736 93.4,34.6846444 L93.4,34.6846444 L93.4,48.6559652 L83.46,48.6559652 L83.46,18.4567199 C83.5917764,8.14935797 92.2041809,-0.107407555 102.71,0.00162557237 L102.71,0.00162557237 Z M60.97,0.00162557237 C66.0229524,-0.0638064867 70.8943064,1.84841071 74.5067861,5.31539977 C78.1192658,8.78238883 80.1752255,13.5184917 80.2200008,18.4763426 C80.2230432,28.6334419 71.8725106,36.8901154 61.5203694,36.9657915 C51.1682281,37.0414676 42.6932264,28.9077918 42.5420108,18.7517757 C42.3907951,8.59575956 50.6200231,0.222666929 60.97,0.00162557237 Z M61.235208,9.54061255 C56.230325,9.5054635 52.1338198,13.4383343 52.0609655,18.3483912 C51.9881111,23.258448 55.966195,27.3066493 60.97,27.4144558 C63.4126864,27.4406187 65.7659048,26.5135922 67.5119001,24.8373405 C69.2578953,23.1610889 70.2536219,20.8729436 70.28,18.4763426 C70.2787937,13.5657656 66.2400911,9.5757616 61.235208,9.54061255 Z M19.5120167,9.54038063 C14.5057935,9.50694292 10.4101205,13.4432428 10.3408718,18.3546528 C10.271623,23.2660629 14.2547497,27.3120125 19.26,27.4144558 C24.3427758,27.4634812 28.5050554,23.4631665 28.56,18.4763426 C28.558911,13.5644627 24.5182399,9.57381833 19.5120167,9.54038063 Z M102.975208,9.54061255 C97.970325,9.5054635 93.8738198,13.4383343 93.8009655,18.3483912 C93.7281111,23.258448 97.706195,27.3066493 102.71,27.4144558 C105.152686,27.4406187 107.505905,26.5135922 109.2519,24.8373405 C110.997895,23.1610889 111.993622,20.8729436 112.02,18.4763426 C112.018794,13.5657656 107.980091,9.5757616 102.975208,9.54061255 Z" id="fill-1" fill="#F60" class="theme-icon-primary-color"/>
    <path  d="M309.08,0.992568969 L318.79,25.8250218 L328.32,0.992568969 L339.33,0.992568969 L318.93,51.1676633 L307.91,51.1676633 L313.11,38.0303048 L297.65,0.992568969 L309.08,0.992568969 Z M282.26,0.0703048177 C287.88,0.0703048177 292.08,1.74804067 294.73,5.05445576 C297.02,7.91936142 298.18,11.9714369 298.18,17.1027576 L298.18,17.1027576 L298.18,21.0959652 L273.78,21.0959652 C273.78,27.8265312 282.03,29.0529463 285.37,29.0529463 C289.552695,29.1181645 293.70258,28.3192246 297.55,26.7080407 L297.55,26.7080407 L297.55,34.1450218 C294.41,36.0091727 289.26,36.9903048 283.99,36.9903048 C277.89,36.9903048 272.75,35.2046444 269.36,32.0846444 C265.97,28.9646444 264.17,24.4710595 264.17,19.0944558 C264.17,7.53671991 271.26,0.0703048177 282.26,0.0703048177 L282.26,0.0703048177 Z M204.07,0.00162557237 C209.122952,-0.0638064867 213.994306,1.84841071 217.606786,5.31539977 C221.219266,8.78238883 223.275226,13.5184917 223.320001,18.4763426 C223.323043,28.6334419 214.972511,36.8901154 204.620369,36.9657915 C194.268228,37.0414676 185.793226,28.9077918 185.642011,18.7517757 C185.490795,8.59575956 193.720023,0.222666929 204.07,0.00162557237 Z M167.42,0.158606704 L167.46,0.197851987 C177.41,0.197851987 181.65,4.34804067 181.65,14.0808709 L181.65,14.0808709 L181.65,36.2152105 L171.21,36.2152105 L171.209161,15.4365217 C171.193787,13.6867556 170.896552,9.4695501 165.15,9.4695501 C162.960791,9.46692961 160.797285,9.93231331 158.81,10.8333237 L158.81,10.8333237 L158.81,36.2152105 L148.31,36.2152105 L148.31,15.6997388 C148.31,11.5691727 146.31,9.4695501 142.31,9.4695501 C140.454935,9.47879154 138.610338,9.7429949 136.83,10.2544558 L136.83,10.2544558 L136,10.4604935 L136,36.2152105 L125.55,36.2152105 L125.55,3.16087086 C131.171347,1.27282815 137.059291,0.259810194 143,0.158606704 C147.19,0.158606704 150.87,1.15936142 153.1,2.91558784 L153.1,2.91558784 L153.67,3.34728595 L154.31,3.04313501 C158.395927,1.1057284 162.88211,0.118655712 167.42,0.158606704 L167.42,0.158606704 Z M245.25,0.158606704 C250.51,0.158606704 254.3,1.1495501 256.84,3.17068218 C259.7,5.45671991 261.09,9.14577652 261.09,14.453701 L261.09,14.453701 L261.09,36.2152105 L251.04,36.2152105 L251.04,16.1020029 C251.04,11.9812482 248.68,9.71483312 244.38,9.71483312 C242.137501,9.69482735 239.906114,10.0260354 237.77,10.6959652 L237.77,10.6959652 L237.04,10.9608709 L237.04,36.2152105 L226.59,36.2152105 L226.59,3.28841803 C232.604155,1.29124171 238.901174,0.235053016 245.25,0.158606704 Z M204.322017,9.54038063 C199.315793,9.50694292 195.220121,13.4432428 195.150872,18.3546528 C195.081623,23.2660629 199.06475,27.3120125 204.07,27.4144558 C209.152776,27.4634812 213.315055,23.4631665 213.37,18.4763426 C213.368911,13.5644627 209.32824,9.57381833 204.322017,9.54038063 Z M282.04,7.55634255 C278.26,7.55634255 275.4,9.91105953 274.26,13.9238897 L274.26,13.9238897 L289.11,13.9238897 C288.58,9.91105953 286.04,7.55634255 282.04,7.55634255 Z" id="fill-2" fill="#666" class="theme-icon-secondary-color"/>
  </g>
</svg>
