<svg xmlns="http://www.w3.org/2000/svg" width="80" height="80" viewBox="0 0 80 80">
  <g fill="none" fill-rule="evenodd">
    <path fill="#FFF" class="theme-icon-fill-color" d="M31.4974135,1.13686838e-13 C41.644599,1.13686838e-13 49.8705182,8.22591917 49.8705182,18.3731047 C49.8705182,25.2701736 46.070179,31.2796257 40.4492857,34.4216759 C56.5816057,38.0536099 60.4990549,51.558895 60.4990549,60.2492539 C60.4990549,70.364422 39.3467347,74.901321 29.2315666,74.901321 C19.1163985,74.901321 0.0955972333,70.364422 0.0955972333,60.2492539 C0.0955972333,51.5415787 5.80175498,37.9997697 22.5079833,34.3997685 C16.9074999,31.2524743 13.1243088,25.2545953 13.1243088,18.3731047 C13.1243088,8.22591917 21.350228,1.13686838e-13 31.4974135,1.13686838e-13 Z"/>
    <path fill="#00A77E" class="theme-icon-secondary-color" fill-rule="nonzero" d="M31.4974135,2.27373675e-13 C41.644599,2.27373675e-13 49.8705182,8.22591917 49.8705182,18.3731047 C49.8705182,25.2005752 46.1464905,31.1582524 40.618889,34.3256825 C56.6870842,38.01386 60.5946522,51.5097585 60.5946522,60.2028759 C60.5946522,70.3500614 39.3753787,74.901321 29.2281932,74.901321 L28.6088656,74.8958511 C18.3253997,74.7170322 -1.77635684e-14,70.1471177 -1.77635684e-14,60.2028759 C-1.77635684e-14,51.4929454 5.69109984,37.961638 22.3379457,34.3032082 C16.831299,31.1309602 13.1243088,25.1849394 13.1243088,18.3731047 C13.1243088,8.22591917 21.350228,2.27373675e-13 31.4974135,2.27373675e-13 Z M31.4974135,37.3646611 C21.7059276,37.3646611 14.5409419,40.4005373 9.80541769,45.6561438 C6.02334835,49.8535815 4,55.3786637 4,60.2028759 C4,65.6091386 17.2812999,70.901321 29.2281932,70.901321 C41.6685203,70.901321 56.5946522,65.4374125 56.5946522,60.2028759 C56.5946522,54.9021744 55.0251089,49.5085308 51.8233961,45.4596436 C47.7500431,40.30848 41.1866979,37.3646611 31.4974135,37.3646611 Z M31.4974135,4 C23.559367,4 17.1243088,10.4350582 17.1243088,18.3731047 C17.1243088,26.3111512 23.559367,32.7462094 31.4974135,32.7462094 C39.43546,32.7462094 45.8705182,26.3111512 45.8705182,18.3731047 C45.8705182,10.4350582 39.43546,4 31.4974135,4 Z"/>
    <circle cx="59.155" cy="59.155" r="20.845" fill="#FFF"/>
    <path fill="#00A77E" class="theme-icon-secondary-color" fill-rule="nonzero" d="M59.1549296,38.3098592 C70.6673441,38.3098592 80,47.6425151 80,59.1549296 C80,70.6673441 70.6673441,80 59.1549296,80 C47.6425151,80 38.3098592,70.6673441 38.3098592,59.1549296 C38.3098592,47.6425151 47.6425151,38.3098592 59.1549296,38.3098592 Z M59.1549296,42.3098592 C49.8516541,42.3098592 42.3098592,49.8516541 42.3098592,59.1549296 C42.3098592,68.4582051 49.8516541,76 59.1549296,76 C68.4582051,76 76,68.4582051 76,59.1549296 C76,49.8516541 68.4582051,42.3098592 59.1549296,42.3098592 Z M59.0552285,54.812742 C60.175903,54.812742 61.1751896,55.2538413 61.980947,56.096224 C62.7867043,56.9386066 63.2086253,57.9833153 63.2086253,59.1549296 C63.2086253,60.3383854 62.7926102,61.3880041 61.9919116,62.2250982 C61.1912129,63.0621922 60.1872298,63.4971171 59.0552285,63.4971171 C57.9232273,63.4971171 56.9192442,63.0621922 56.1185455,62.2250982 C55.3178469,61.3880041 54.9018318,60.3383854 54.9018318,59.1549296 C54.9018318,57.9833153 55.3237528,56.9386066 56.1295101,56.096224 C56.9352675,55.2538413 57.934554,54.812742 59.0552285,54.812742 Z M59.0552285,57.6280705 C58.6554721,57.6280705 58.3390209,57.7677566 58.0336942,58.0869618 C57.7283674,58.4061671 57.5947547,58.7370024 57.5947547,59.1549296 C57.5947547,59.5915832 57.7269636,59.9251505 58.0227296,60.2343603 C58.3184955,60.5435702 58.6375598,60.6817886 59.0552285,60.6817886 C59.4728973,60.6817886 59.7919616,60.5435702 60.0877275,60.2343603 C60.3834935,59.9251505 60.5157024,59.5915832 60.5157024,59.1549296 C60.5157024,58.7370024 60.3820897,58.4061671 60.0767629,58.0869618 C59.7714362,57.7677566 59.454985,57.6280705 59.0552285,57.6280705 Z"/>
    <path fill="#0099BF" class="theme-icon-primary-color" fill-rule="nonzero" d="M16.7152746,23.5976043 C16.7269496,23.5911987 16.7414825,23.5830794 16.7587161,23.5733283 C16.7181239,23.5837976 16.7165334,23.5889842 16.7152746,23.5976043 Z M10.1372996,23.5976043 C10.1360407,23.5889842 10.1344503,23.5837976 10.0938581,23.5733283 C10.1110917,23.5830794 10.1256246,23.5911987 10.1372996,23.5976043 Z M15.419205,6.17822095 L14.9654937,6.83856913 L14.1916517,6.75766746 C13.8327576,6.72014672 13.5719897,6.70197198 13.4262871,6.70197198 C13.2805845,6.70197198 13.0198165,6.72014672 12.6609225,6.75766746 L11.8555753,6.84186285 L11.4066209,6.13782082 C11.1573917,5.7469841 10.6590872,5.07074477 9.92548128,4.13223816 C9.72610365,3.87717311 9.55059013,3.66002656 9.40057659,3.48225194 C8.80095975,3.8404401 8.21408026,4.19401464 7.59714912,4.56851536 C7.47096871,4.64511168 7.35660807,4.71441699 7.25330364,4.77687082 C7.46533251,5.41270135 7.89124809,6.51460175 8.50803676,7.94333059 L8.83274625,8.69548742 L8.36357217,9.3591053 C8.08285642,9.75616047 7.83137211,10.2118805 7.61009613,10.7279333 L7.29142594,11.4711256 L6.51630562,11.5527048 C5.07024593,11.7048984 3.99466225,11.8583498 3.30564434,12.0082185 C3.29560063,12.0104031 3.28077403,12.8800149 3.26116453,14.617054 C3.99466225,14.7767162 5.07024593,14.9301675 6.51630562,15.0823611 L7.29428507,15.1642412 L7.61184952,15.9112394 C7.81372568,16.3861072 8.06720293,16.8454387 8.37347971,17.2901588 L8.8281171,17.9503015 L8.50803676,18.6917353 C7.88845865,20.1269256 7.46148399,21.2323246 7.25044006,21.8667931 C8.12426475,22.397468 8.80723345,22.8100948 9.29884476,23.1043768 C9.33583384,23.1265187 9.37172242,23.1479803 9.40650717,23.1687596 C9.55425818,22.991358 9.72627372,22.7760552 9.92103541,22.5242162 C10.6561608,21.5736533 11.1557888,20.8905956 11.4066209,20.4972451 L11.8555753,19.7932031 L12.6609225,19.8773985 C13.0198165,19.9149192 13.2805845,19.9330939 13.4262871,19.9330939 C13.5719897,19.9330939 13.8327576,19.9149192 14.1916517,19.8773985 L14.9969989,19.7932031 L15.4459532,20.4972451 C15.6967854,20.8905956 16.1964133,21.5736533 16.9315388,22.5242162 C17.1263005,22.7760552 17.298316,22.991358 17.446067,23.1687596 C17.4808518,23.1479803 17.5167403,23.1265187 17.5537294,23.1043768 C18.0453407,22.8100948 18.7283094,22.397468 19.6021341,21.8667931 C19.3910902,21.2323246 18.9641155,20.1269256 18.3445374,18.6917353 L18.0244571,17.9503015 L18.4790945,17.2901588 C18.7853712,16.8454387 19.0388485,16.3861072 19.2407247,15.9112394 L19.5582891,15.1642412 L20.3362686,15.0823611 C21.7823282,14.9301675 22.8579119,14.7767162 23.5469298,14.6268474 C23.5569735,14.6246628 23.5718001,13.755051 23.5914096,12.0180119 C22.8579119,11.8583498 21.7823282,11.7048984 20.3362686,11.5527048 L19.5611482,11.4711256 L19.242478,10.7279333 C19.0212021,10.2118805 18.7697178,9.75616047 18.489002,9.3591053 L18.0198279,8.69548742 L18.3445374,7.94333059 C18.964279,6.50776154 19.3913155,5.40215788 19.6023012,4.76777054 C18.7484948,4.24905638 18.0776859,3.84575888 17.5908413,3.55843487 C17.5451734,3.53148276 17.501176,3.50558208 17.4588611,3.48073914 C16.8414174,4.1997222 16.1603484,5.0995337 15.419205,6.17822095 Z M24.0954563,9.25191325 C24.5460042,9.34991222 24.9009935,9.4536947 25.1830685,9.57838323 C25.8333407,9.86582978 26.2843325,10.267709 26.2843325,11.1236823 L26.2843325,15.5113836 C26.2843325,16.3673569 25.8333407,16.7692361 25.1830685,17.0566827 C24.9009935,17.1813712 24.5460042,17.2851537 24.0954563,17.3831527 C23.4302978,17.5278317 22.5176562,17.6664216 21.3482707,17.801707 C21.2702965,17.9510388 21.1885456,18.098889 21.1030335,18.2452461 C22.0176622,20.4123654 22.4471379,21.697579 22.4471379,22.4376835 C22.4471379,22.9962322 22.1882588,23.4698632 21.788641,23.7831999 L21.7258537,23.8324309 L21.6580205,23.873702 C20.4364028,24.616959 19.5146701,25.1747119 18.8918224,25.547553 C18.5772075,25.7358837 18.3376932,25.8777333 18.171412,25.9741599 C18.0823886,26.0257846 18.0122851,26.065608 17.9578059,26.0953421 C17.9122413,26.1200403 17.9122413,26.1200403 17.8548655,26.1489556 C17.8208937,26.1846831 17.8208937,26.1846831 17.2634818,26.2899242 C16.4415971,26.2899242 16.0919671,25.9164559 14.8374411,24.2942756 C14.3593103,23.6760227 13.9720465,23.1603923 13.6726236,22.7423343 C13.5829026,22.7463832 13.5009339,22.7484224 13.4262871,22.7484224 C13.3516403,22.7484224 13.2696716,22.7463832 13.1799506,22.7423343 C12.8805277,23.1603923 12.4932639,23.6760227 12.0151331,24.2942756 C10.760607,25.9164559 10.4109771,26.2899242 9.58909242,26.2899242 C9.03168043,26.1846831 9.03168043,26.1846831 8.99770868,26.1489556 C8.94033284,26.1200403 8.94033284,26.1200403 8.89476827,26.0953421 C8.84028906,26.065608 8.77018555,26.0257846 8.68116222,25.9741599 C8.51488095,25.8777333 8.27536664,25.7358837 7.96075175,25.547553 C7.33790403,25.1747119 6.41617142,24.616959 5.19455371,23.873702 L5.1267205,23.8324309 L5.06393322,23.7831999 C4.6643154,23.4698632 4.40543631,22.9962322 4.40543631,22.4376835 C4.40543631,21.697579 4.83491197,20.4123654 5.74954063,18.2452461 C5.66402854,18.098889 5.58227766,17.9510388 5.50430351,17.801707 C4.33491798,17.6664216 3.42227639,17.5278317 2.75711788,17.3831527 C2.30657003,17.2851537 1.95158067,17.1813712 1.66950567,17.0566827 C1.01923349,16.7692361 0.568241645,16.3673569 0.568241645,15.5113836 L0.568241645,11.1236823 C0.568241645,10.267709 1.01923349,9.86582978 1.66950567,9.57838323 C1.95158067,9.4536947 2.30657003,9.34991222 2.75711788,9.25191325 C3.422029,9.10728799 4.33423914,8.96874739 5.50299883,8.83350982 C5.58195839,8.68092829 5.66369846,8.53199091 5.74823205,8.38671907 C4.83450232,6.22147446 4.40543631,4.93713391 4.40543631,4.19738242 C4.40543631,3.63883373 4.6643154,3.16520267 5.06393322,2.85186597 L5.1610615,2.77570857 L5.26965423,2.71894419 C5.31051098,2.69758725 5.67326425,2.48087751 6.24493689,2.13385042 C6.86710606,1.75617001 7.45935272,1.39936193 8.02171797,1.06340347 C8.31191839,0.89003699 8.53698829,0.758706535 8.70065077,0.667452303 C8.7937405,0.615547729 8.87066972,0.574479146 8.93708159,0.541805971 C8.99765219,0.512403722 8.99765219,0.512403722 9.08259243,0.476536239 C9.18204235,0.429999424 9.18204235,0.429999424 9.58909242,0.376482479 C10.4060511,0.376482479 10.7591528,0.749646783 12.0106872,2.35074256 C12.4898468,2.9637344 12.8780277,3.47599955 13.1783661,3.89280325 C13.2687068,3.88870683 13.3512011,3.88664351 13.4262871,3.88664351 C13.5032667,3.88664351 13.588033,3.88881221 13.681058,3.89311706 C14.5649159,2.65006057 15.3800047,1.63713557 16.1315212,0.851459235 L16.3562797,0.616484506 L17.0449811,0.376482479 L17.2634818,0.376482479 C17.7562456,0.376482479 17.4823043,0.214808908 21.659207,2.76208669 L21.7264048,2.80306718 L21.788641,2.85186597 C22.1882588,3.16520267 22.4471379,3.63883373 22.4471379,4.19738242 C22.4471379,4.93713391 22.0180719,6.22147446 21.1043421,8.38671907 C21.1888757,8.53199091 21.2706158,8.68092829 21.3495753,8.83350982 C22.518335,8.96874739 23.4305452,9.10728799 24.0954563,9.25191325 Z" opacity=".9" transform="translate(45.729 45.823)"/>
  </g>
</svg>
