<svg xmlns="http://www.w3.org/2000/svg" width="80" height="80" viewBox="0 0 80 80">
  <g fill="none" fill-rule="evenodd" transform="matrix(-1 0 0 1 79.86 17.652)">
    <path fill="#FFF" d="M.0004 15.8537933C.0004 13.0897933 2.2354 10.8477933 4.9994 10.8477933L15.5604 10.8477933C18.3214 10.8477933 20.5594 13.0887933 20.5594 15.8537933L20.5594 29.6347933C20.5594 32.3987933 18.3224 34.6407933 15.5604 34.6407933L2.0004 34.6407933C.8964 34.6407933.0004 33.7447933.0004 32.6407933L.0004 15.8537933zM50.143 11.1579933L50.143 2.00399333C50.143.350993335 52.034-.588006665 53.351.408993335L77.026 18.3399933C79.843 20.4729933 79.844 24.2209933 77.026 26.3549933L53.351 44.2849933C52.034 45.2829933 50.143 44.3439933 50.143 42.6909933L50.143 34.9509933 28.266 34.9509933C27.162 34.9509933 26.266 34.0549933 26.266 32.9509933L26.266 16.1639933C26.266 13.4029933 28.511 11.1579933 31.265 11.1579933L50.143 11.1579933z"
    id="Fill-1" class="theme-icon-fill-color"/>
    <path fill="#00A77E" d="M50.143,11.1580933 L50.143,2.00409333 C50.143,0.351093335 52.034,-0.587906665 53.351,0.409093335 L77.026,18.3400933 C79.843,20.4730933 79.844,24.2210933 77.026,26.3550933 L53.351,44.2860933 C52.034,45.2830933 50.143,44.3440933 50.143,42.6910933 L50.143,34.9510933 L28.266,34.9510933 C27.162,34.9510933 26.266,34.0550933 26.266,32.9510933 L26.266,16.1640933 C26.266,13.4030933 28.511,11.1580933 31.265,11.1580933 L50.143,11.1580933 Z M54.143,13.1580933 C54.143,14.2620933 53.247,15.1580933 52.143,15.1580933 L31.265,15.1580933 C30.72,15.1580933 30.266,15.6120933 30.266,16.1640933 L30.266,30.9510933 L52.143,30.9510933 C53.247,30.9510933 54.143,31.8460933 54.143,32.9510933 L54.143,38.6680933 L74.611,23.1670933 C75.315,22.6330933 75.315,22.0610933 74.611,21.5280933 L54.143,6.02709333 L54.143,13.1580933 Z"
    id="Fill-2" class="theme-icon-secondary-color"/>
    <path fill="#0099BF" d="M15.56,30.6404933 C16.111,30.6404933 16.559,30.1924933 16.559,29.6344933 L16.559,15.8534933 C16.559,15.2964933 16.111,14.8474933 15.56,14.8474933 L4.999,14.8474933 C4.448,14.8474933 4,15.2964933 4,15.8534933 L4,30.6404933 L15.56,30.6404933 Z M-1.59872116e-14,15.8534933 C-1.59872116e-14,13.0894933 2.236,10.8474933 4.999,10.8474933 L15.56,10.8474933 C18.322,10.8474933 20.559,13.0894933 20.559,15.8534933 L20.559,29.6344933 C20.559,32.3984933 18.323,34.6404933 15.56,34.6404933 L2,34.6404933 C0.896,34.6404933 -1.59872116e-14,33.7444933 -1.59872116e-14,32.6404933 L-1.59872116e-14,15.8534933 Z"
    id="Fill-3" class="theme-icon-secondary-color"/>
  </g>
</svg>
