<svg xmlns="http://www.w3.org/2000/svg" width="80" height="80" viewBox="0 0 80 80">
  <g fill="none" fill-rule="evenodd">
    <path fill="#FFF" d="M76.5072,44.8412 L66.6482,44.8412 L66.6482,17.1602 L49.6122,0.0002 L16.9152,0.0002 C15.2582,0.0002 13.9152,1.3432 13.9152,3.0002 L13.9152,44.8412 L3.0002,44.8412 C1.3502,44.8412 0.0002,46.1912 0.0002,47.8412 L0.0002,67.7522 C0.0002,69.4022 1.3502,70.7522 3.0002,70.7522 L8.4032,70.7522 L8.4032,76.6622 C8.4032,78.3192 9.7472,79.6622 11.4032,79.6622 L67.6552,79.6622 C69.3132,79.6622 70.6552,78.3192 70.6552,76.6622 L70.6552,70.7522 L76.5072,70.7522 C78.1572,70.7522 79.5072,69.4022 79.5072,67.7522 L79.5072,47.8412 C79.5072,46.1912 78.1572,44.8412 76.5072,44.8412"/>
    <path fill="#0099BF" d="M65.7 59.6054L68.182 59.6054 68.182 57.1244 65.7 57.1244 65.7 59.6054zM69.182 54.1244L64.7 54.1244C63.595 54.1244 62.7 55.0194 62.7 56.1244L62.7 60.6054C62.7 61.7104 63.595 62.6054 64.7 62.6054L69.182 62.6054C70.286 62.6054 71.182 61.7104 71.182 60.6054L71.182 56.1244C71.182 55.0194 70.286 54.1244 69.182 54.1244L69.182 54.1244zM38.2777 10.6468L27.5057 10.6468C26.4377 10.6468 25.5637 11.5208 25.5637 12.5878 25.5637 13.6558 26.4377 14.5298 27.5057 14.5298L38.2777 14.5298C39.3447 14.5298 40.2187 13.6558 40.2187 12.5878 40.2187 11.5208 39.3447 10.6468 38.2777 10.6468M38.2777 21.5438L27.5057 21.5438C26.4377 21.5438 25.5637 22.4178 25.5637 23.4848L25.5637 23.4858C25.5637 24.5528 26.4377 25.4268 27.5057 25.4268L38.2777 25.4268C39.3447 25.4268 40.2187 24.5528 40.2187 23.4858L40.2187 23.4848C40.2187 22.4178 39.3447 21.5438 38.2777 21.5438M52.2631 32.0653L27.5051 32.0653C26.4381 32.0653 25.5641 32.9393 25.5641 34.0063 25.5641 35.0743 26.4381 35.9483 27.5051 35.9483L52.2631 35.9483C53.3301 35.9483 54.2041 35.0743 54.2041 34.0063 54.2041 32.9393 53.3301 32.0653 52.2631 32.0653"/>
    <path fill="#00A77E" d="M4,66.7524 L75.507,66.7524 L75.507,48.8414 L4,48.8414 L4,66.7524 Z M12.404,75.6624 L66.656,75.6624 L66.656,70.7524 L12.404,70.7524 L12.404,75.6624 Z M17.915,3.9994 L46.611,3.9994 L46.611,18.4124 C46.611,19.5174 47.506,20.4124 48.611,20.4124 L62.648,20.4124 L62.648,44.8414 L17.915,44.8414 L17.915,3.9994 Z M50.611,6.6834 L60.269,16.4124 L50.611,16.4124 L50.611,6.6834 Z M76.507,44.8414 L66.648,44.8414 L66.648,17.1604 L49.613,-0.0006 L16.915,-0.0006 C15.258,-0.0006 13.915,1.3434 13.915,2.9994 L13.915,44.8414 L3,44.8414 C1.35,44.8414 0,46.1904 0,47.8414 L0,67.7524 C0,69.4024 1.35,70.7524 3,70.7524 L8.404,70.7524 L8.404,76.6624 C8.404,78.3194 9.747,79.6624 11.404,79.6624 L67.656,79.6624 C69.313,79.6624 70.656,78.3194 70.656,76.6624 L70.656,70.7524 L76.507,70.7524 C78.158,70.7524 79.507,69.4024 79.507,67.7524 L79.507,47.8414 C79.507,46.1904 78.158,44.8414 76.507,44.8414 L76.507,44.8414 Z"/>
  </g>
</svg>
