<svg width="80" height="80" viewBox="0 0 80 80" fill="none" xmlns="http://www.w3.org/2000/svg">
<g id="ICON / tile-Print and View Balance">
<path id="Fill 1" fill-rule="evenodd" clip-rule="evenodd" d="M74.7449 44.4642H65.6285V18.868L49.8756 3.00049H19.6413C18.1091 3.00049 16.8672 4.24234 16.8672 5.77454V44.4642H6.77429C5.24857 44.4642 4.00024 45.7125 4.00024 47.2382V65.6496C4.00024 67.1753 5.24857 68.4236 6.77429 68.4236H11.7704V73.8885C11.7704 75.4207 13.0131 76.6626 14.5444 76.6626H66.5597C68.0928 76.6626 69.3337 75.4207 69.3337 73.8885V68.4236H74.7449C76.2707 68.4236 77.519 67.1753 77.519 65.6496V47.2382C77.519 45.7125 76.2707 44.4642 74.7449 44.4642Z" fill="white"/>
<path id="Fill 1_2" fill-rule="evenodd" clip-rule="evenodd" d="M64.7517 58.1166H67.0467V55.8225H64.7517V58.1166ZM67.9714 53.0483H63.827C62.8052 53.0483 61.9776 53.8759 61.9776 54.8977V59.0412C61.9776 60.063 62.8052 60.8906 63.827 60.8906H67.9714C68.9922 60.8906 69.8208 60.063 69.8208 59.0412V54.8977C69.8208 53.8759 68.9922 53.0483 67.9714 53.0483Z" fill="#0099BF"/>
<path id="Fill 3" fill-rule="evenodd" clip-rule="evenodd" d="M36.0994 13.77H26.1388C25.1512 13.77 24.343 14.5782 24.343 15.5648C24.343 16.5524 25.1512 17.3606 26.1388 17.3606H36.0994C37.0861 17.3606 37.8942 16.5524 37.8942 15.5648C37.8942 14.5782 37.0861 13.77 36.0994 13.77Z" fill="#0099BF"/>
<path id="Fill 4" fill-rule="evenodd" clip-rule="evenodd" d="M36.0994 21.9839H26.1388C25.1512 21.9839 24.343 22.7921 24.343 23.7787V23.7796C24.343 24.7663 25.1512 25.5744 26.1388 25.5744H36.0994C37.0861 25.5744 37.8942 24.7663 37.8942 23.7796V23.7787C37.8942 22.7921 37.0861 21.9839 36.0994 21.9839Z" fill="#0099BF"/>
<path id="Fill 5" fill-rule="evenodd" clip-rule="evenodd" d="M49.0311 30.1978H26.1378C25.1512 30.1978 24.343 31.0059 24.343 31.9926C24.343 32.9801 25.1512 33.7883 26.1378 33.7883H49.0311C50.0178 33.7883 50.8259 32.9801 50.8259 31.9926C50.8259 31.0059 50.0178 30.1978 49.0311 30.1978Z" fill="#0099BF"/>
<path id="Fill 6" fill-rule="evenodd" clip-rule="evenodd" d="M7.69873 64.7252H73.82V48.1632H7.69873V64.7252ZM15.4698 72.9642H65.6356V68.424H15.4698V72.9642ZM20.5657 6.69873H47.1004V20.0262C47.1004 21.048 47.928 21.8755 48.9497 21.8755H61.9295V44.4646H20.5657V6.69873ZM50.7991 9.18066L59.7297 18.1769H50.7991V9.18066ZM74.7447 44.4646H65.6283V18.8685L49.8763 3H19.641C18.1088 3 16.867 4.24277 16.867 5.77405V44.4646H6.77405C5.24832 44.4646 4 45.712 4 47.2387V65.65C4 67.1758 5.24832 68.4241 6.77405 68.4241H11.771V73.889C11.771 75.4212 13.0129 76.663 14.5451 76.663H66.5603C68.0925 76.663 69.3344 75.4212 69.3344 73.889V68.4241H74.7447C76.2714 68.4241 77.5188 67.1758 77.5188 65.65V47.2387C77.5188 45.712 76.2714 44.4646 74.7447 44.4646Z" fill="#00A77E"/>
<path id="Exclude" fill-rule="evenodd" clip-rule="evenodd" d="M19.9994 78C8.97158 78 0 69.0275 0 58C0 53.733 1.35558 49.782 3.64198 46.5305C3.83204 46.3519 3.9866 46.1424 4.10682 45.9089C7.76254 41.1141 13.518 38 19.9994 38C31.0284 38 40 46.9725 40 58C40 69.0275 31.0284 78 19.9994 78Z" fill="#0099BF"/>
<path id="Exclude_2" fill-rule="evenodd" clip-rule="evenodd" d="M19.9995 74.3635C10.9767 74.3635 3.63635 67.0224 3.63635 57.9999C3.63635 54.5087 4.74547 51.2761 6.61616 48.6158C6.77166 48.4696 6.89812 48.2982 6.99648 48.1071C9.98752 44.1841 14.6966 41.6362 19.9995 41.6362C29.0232 41.6362 36.3636 48.9773 36.3636 57.9999C36.3636 67.0224 29.0232 74.3635 19.9995 74.3635Z" fill="#FFFFFD"/>
<path id="Fill 13" fill-rule="evenodd" clip-rule="evenodd" d="M19.9997 62.5455C16.5243 62.5455 13.2597 60.8282 11.2461 58C13.2597 55.1736 16.5243 53.4545 19.9997 53.4545C23.4752 53.4545 26.7397 55.1736 28.7534 58C26.7397 60.8282 23.4752 62.5455 19.9997 62.5455ZM32.4861 57.0974C29.9161 52.6075 25.1325 49.8184 19.9998 49.8184C14.867 49.8184 10.0834 52.6075 7.51339 57.0974C7.19248 57.6575 7.19248 58.3447 7.51339 58.9038C10.0834 63.3938 14.867 66.182 19.9998 66.182C25.1325 66.182 29.9161 63.3938 32.4861 58.9038C32.807 58.3447 32.807 57.6575 32.4861 57.0974Z" fill="#00A77E"/>
<path id="Fill 15" fill-rule="evenodd" clip-rule="evenodd" d="M20 55.2729C18.4936 55.2729 17.2727 56.4939 17.2727 58.0002C17.2727 59.5057 18.4936 60.7275 20 60.7275C21.5054 60.7275 22.7273 59.5057 22.7273 58.0002C22.7273 56.4939 21.5054 55.2729 20 55.2729Z" fill="#00A77E"/>
</g>
</svg>
