<svg viewBox="0 0 80 80" version="1.1" xmlns="http://www.w3.org/2000/svg" xmlns:xlink="http://www.w3.org/1999/xlink">
  <defs></defs>
  <g id="ICON-/-icon-print-receipt-no-image" stroke="none" stroke-width="1" fill="none" fill-rule="evenodd">
    <path d="M17,0 L63,0 C64.6568542,-3.04359188e-16 66,1.34314575 66,3 L66,77 C66,78.6568542 64.6568542,80 63,80 L17,80 C15.3431458,80 14,78.6568542 14,77 L14,3 C14,1.34314575 15.3431458,3.04359188e-16 17,0 Z" id="Rectangle" fill="#FFFFFF" fill-rule="nonzero"></path>
    <path d="M18,4 L18,76 L62,76 L62,4 L18,4 Z M17,0 L63,0 C64.6568542,-3.04359188e-16 66,1.34314575 66,3 L66,77 C66,78.6568542 64.6568542,80 63,80 L17,80 C15.3431458,80 14,78.6568542 14,77 L14,3 C14,1.34314575 15.3431458,3.04359188e-16 17,0 Z" id="Rectangle" fill="#00A77E" fill-rule="nonzero" class="theme-icon-secondary-color"></path>
    <path d="M37.1457523,11 L26.855203,11 C25.8349369,11 25,11.874 25,12.941 C25,14.009 25.8349369,14.883 26.855203,14.883 L37.1457523,14.883 C38.1650631,14.883 39,14.009 39,12.941 C39,11.874 38.1650631,11 37.1457523,11" id="Fill-3" fill="#0099BF" class="theme-icon-primary-color"></path>
    <path d="M37.1457523,22 L26.855203,22 C25.8349369,22 25,22.874 25,23.941 L25,23.942 C25,25.009 25.8349369,25.883 26.855203,25.883 L37.1457523,25.883 C38.1650631,25.883 39,25.009 39,23.942 L39,23.941 C39,22.874 38.1650631,22 37.1457523,22" id="Fill-4" fill="#0099BF" class="theme-icon-primary-color"></path>
    <path d="M52.9668296,33 L27.0331704,33 C25.9155028,33 25,33.874 25,34.941 C25,36.009 25.9155028,36.883 27.0331704,36.883 L52.9668296,36.883 C54.0844972,36.883 55,36.009 55,34.941 C55,33.874 54.0844972,33 52.9668296,33" id="Fill-5" fill="#0099BF" class="theme-icon-primary-color"></path>
    <path d="M52.9668296,44 L27.0331704,44 C25.9155028,44 25,44.874 25,45.941 C25,47.009 25.9155028,47.883 27.0331704,47.883 L52.9668296,47.883 C54.0844972,47.883 55,47.009 55,45.941 C55,44.874 54.0844972,44 52.9668296,44" id="Fill-5" fill="#0099BF" class="theme-icon-primary-color"></path>
    <path d="M52.9668296,55 L27.0331704,55 C25.9155028,55 25,55.874 25,56.941 C25,58.009 25.9155028,58.883 27.0331704,58.883 L52.9668296,58.883 C54.0844972,58.883 55,58.009 55,56.941 C55,55.874 54.0844972,55 52.9668296,55" id="Fill-5" fill="#0099BF" class="theme-icon-primary-color"></path>
    <path d="M52.9668296,66 L27.0331704,66 C25.9155028,66 25,66.874 25,67.941 C25,69.009 25.9155028,69.883 27.0331704,69.883 L52.9668296,69.883 C54.0844972,69.883 55,69.009 55,67.941 C55,66.874 54.0844972,66 52.9668296,66" id="Fill-5" fill="#0099BF" class="theme-icon-primary-color"></path>
  </g>
</svg>
