<svg viewBox="0 0 80 80" version="1.1" xmlns="http://www.w3.org/2000/svg" xmlns:xlink="http://www.w3.org/1999/xlink">
    <defs></defs>
    <g id="always-ask-preview" stroke="none" stroke-width="1" fill="none" fill-rule="evenodd">
        <path d="M66.3217526,57 L59.5285602,66.8123891 C59.2141942,67.2664733 58.5912422,67.3797373 58.137158,67.0653713 C58.0383086,66.9969371 57.95261,66.9112384 57.8841758,66.8123891 L51.0909834,57 L4,57 C2.8954305,57 2,56.1045695 2,55 L2,14 C2,12.8954305 2.8954305,12 4,12 L76,12 C77.1045695,12 78,12.8954305 78,14 L78,55 C78,56.1045695 77.1045695,57 76,57 L66.3217526,57 Z" id="Rectangle-2" fill="#FFFFFF"></path>
        <path d="M66.3217526,57 L59.5285602,66.8123891 C59.2141942,67.2664733 58.5912422,67.3797373 58.137158,67.0653713 C58.0383086,66.9969371 57.95261,66.9112384 57.8841758,66.8123891 L51.0909834,57 L4,57 C2.8954305,57 2,56.1045695 2,55 L2,14 C2,12.8954305 2.8954305,12 4,12 L76,12 C77.1045695,12 78,12.8954305 78,14 L78,55 C78,56.1045695 77.1045695,57 76,57 L66.3217526,57 Z" id="Rectangle-2" stroke="#00A77E" stroke-width="4"></path>
        <g id="Group" transform="translate(13.000000, 25.000000)" stroke="#0099BF" stroke-linecap="round" stroke-linejoin="round" stroke-width="4">
            <path d="M53.0181818,1.4883 L0.92020583,1.4883" id="Line-4"></path>
            <path d="M53.0181818,10.4883 L0.92020583,10.4883" id="Line-4"></path>
            <path d="M53,19.4883 L29,19.4883" id="Line-4"></path>
        </g>
    </g>
</svg>