<svg viewBox="0 0 80 80" version="1.1" xmlns="http://www.w3.org/2000/svg" xmlns:xlink="http://www.w3.org/1999/xlink">
 <title>icon-scroll-right</title>
 <g>
  <g transform="rotate(180 40,40)" fill-rule="evenodd" fill="none" id="icon-scroll-right">
   <path transform="translate(-40,-40)" class="theme-icon-color" fill="#0099bf" id="fill-1" d="m102.242558,56.650298l-22.91518,22.91518l22.91518,22.91518c0.54663,0.54663 0.81994,1.19394 0.81994,1.94196c0,0.74802 -0.27331,1.39534 -0.81994,1.94197l-7.16369,7.16369c-0.54663,0.54663 -1.19394,0.81994 -1.94196,0.81994c-0.74802,0 -1.39534,-0.27331 -1.94197,-0.81994l-32.02083,-32.02084c-0.54663,-0.54663 -0.81994,-1.19394 -0.81994,-1.94196c0,-0.74802 0.27331,-1.39534 0.81994,-1.94197l32.02083,-32.02083c0.54663,-0.54663 1.19395,-0.81994 1.94197,-0.81994c0.74802,0 1.39533,0.27331 1.94196,0.81994l7.16369,7.16369c0.54663,0.54663 0.81994,1.19395 0.81994,1.94197c0,0.74801 -0.27331,1.39533 -0.81994,1.94196z"/>
  </g>
 </g>
</svg>
