<svg width="80" height="80" viewBox="0 0 80 80" fill="none" xmlns="http://www.w3.org/2000/svg">
<g clip-path="url(#clip0)">
<path d="M40 80C62.0914 80 80 62.0914 80 40C80 17.9086 62.0914 0 40 0C17.9086 0 0 17.9086 0 40C0 62.0914 17.9086 80 40 80Z" fill="white"/>
<path d="M80.0004 39.9999C80.0004 24.1415 70.7714 10.439 57.3916 3.96899V76.0307C70.7714 69.5609 80.0004 55.8584 80.0004 39.9999Z" fill="#D80027" class="theme-icon-color"/>
<path d="M0 39.9999C0 55.8584 9.22891 69.5609 22.6087 76.0309V3.96899C9.22891 10.439 0 24.1415 0 39.9999Z" fill="#D80027" class="theme-icon-color"/>
<path d="M46.9564 45.2174L53.9128 41.7391L50.4347 40.0001V36.5218L43.4782 40.0001L46.9564 33.0435H43.4782L39.9999 27.8262L36.5216 33.0435H33.0433L36.5216 40.0001L29.565 36.5218V40.0001L26.0869 41.7391L33.0433 45.2174L31.3043 48.6957H38.2608V53.913H41.7389V48.6957H48.6955L46.9564 45.2174Z" fill="#D80027" class="theme-icon-color"/>
</g>
<defs>
<clipPath id="clip0">
<rect width="80" height="80" fill="white"/>
</clipPath>
</defs>
</svg>
