<svg width="80" height="80" viewBox="0 0 80 80" fill="none" xmlns="http://www.w3.org/2000/svg">
<path d="M40 80C62.0914 80 80 62.0914 80 40C80 17.9086 62.0914 0 40 0C17.9086 0 0 17.9086 0 40C0 62.0914 17.9086 80 40 80Z" fill="#F0F0F0"/>
<path d="M38.2607 39.9998H79.9998C79.9998 36.3895 79.5186 32.892 78.6218 29.5649H38.2607V39.9998Z" fill="#D80027" class="theme-icon-color"/>
<path d="M38.2607 19.1304H74.1289C71.6803 15.1348 68.5495 11.6031 64.8992 8.69556H38.2607V19.1304Z" fill="#D80027" class="theme-icon-color"/>
<path d="M40 79.9998C49.4139 79.9998 58.0665 76.7461 64.8993 71.3042H15.1006C21.9334 76.7461 30.5861 79.9998 40 79.9998Z" fill="#D80027" class="theme-icon-color"/>
<path d="M5.8709 60.8694H74.129C76.0948 57.6618 77.6193 54.1555 78.622 50.4346H1.37793C2.38059 54.1555 3.90512 57.6618 5.8709 60.8694Z" fill="#D80027" class="theme-icon-color"/>
<path d="M18.5287 6.24656H22.1739L18.7833 8.70984L20.0784 12.6956L16.688 10.2323L13.2975 12.6956L14.4162 9.25234C11.4309 11.7391 8.81437 14.6525 6.65812 17.8988H7.82609L5.66781 19.4667C5.33156 20.0277 5.00906 20.5975 4.7 21.1758L5.73062 24.3478L3.80781 22.9508C3.32984 23.9634 2.89266 24.9989 2.49969 26.0559L3.63516 29.5509H7.82609L4.43547 32.0142L5.73062 36L2.34016 33.5367L0.309219 35.0123C0.105937 36.6464 0 38.3108 0 40H40C40 17.9087 40 15.3044 40 0C32.0981 0 24.732 2.29219 18.5287 6.24656ZM20.0784 36L16.688 33.5367L13.2975 36L14.5927 32.0142L11.202 29.5509H15.393L16.688 25.5652L17.983 29.5509H22.1739L18.7833 32.0142L20.0784 36ZM18.7833 20.362L20.0784 24.3478L16.688 21.8845L13.2975 24.3478L14.5927 20.362L11.202 17.8988H15.393L16.688 13.913L17.983 17.8988H22.1739L18.7833 20.362ZM34.4263 36L31.0358 33.5367L27.6453 36L28.9405 32.0142L25.5498 29.5509H29.7408L31.0358 25.5652L32.3308 29.5509H36.5217L33.1311 32.0142L34.4263 36ZM33.1311 20.362L34.4263 24.3478L31.0358 21.8845L27.6453 24.3478L28.9405 20.362L25.5498 17.8988H29.7408L31.0358 13.913L32.3308 17.8988H36.5217L33.1311 20.362ZM33.1311 8.70984L34.4263 12.6956L31.0358 10.2323L27.6453 12.6956L28.9405 8.70984L25.5498 6.24656H29.7408L31.0358 2.26078L32.3308 6.24656H36.5217L33.1311 8.70984Z" fill="#0052B4" class="theme-icon-color"/>
</svg>
