<?xml version="1.0" encoding="UTF-8"?>
<svg width="80px" height="80px" viewBox="0 0 80 80" version="1.1" xmlns="http://www.w3.org/2000/svg" xmlns:xlink="http://www.w3.org/1999/xlink">
    <!-- Generator: Sketch 54.1 (76490) - https://sketchapp.com -->
    <title>ICON / icon-selfservice-preview</title>
    <desc>Created with Sketch.</desc>
    <g id="ICON-/-icon-selfservice-preview" stroke="none" stroke-width="1" fill="none" fill-rule="evenodd">
        <path d="M4,0 L76,0 C78.209139,-4.05812251e-16 80,1.790861 80,4 L80,58 C80,60.209139 78.209139,62 76,62 L47.2776716,62 L14.5553432,62 L4,62 C1.790861,62 2.04689834e-15,60.209139 0,58 L0,4 C-2.705415e-16,1.790861 1.790861,4.05812251e-16 4,0 Z" id="Rectangle-2-Copy" fill="#FFFFFF" fill-rule="nonzero"></path>
        <path d="M4,0 L76,0 C78.209139,-4.05812251e-16 80,1.790861 80,4 L80,58 C80,60.209139 78.209139,62 76,62 L47.2776716,62 L14.5553432,62 L4,62 C1.790861,62 2.04689834e-15,60.209139 0,58 L0,4 C-2.705415e-16,1.790861 1.790861,4.05812251e-16 4,0 Z M4,4 L4,58 L76,58 L76,4 L4,4 Z" id="Rectangle-2" fill="#00A77E" fill-rule="nonzero"></path>
        <g id="Group-10-Copy-3" transform="translate(23.000000, 24.000000)" fill="#FFFFFF" stroke="#FFFFFF" stroke-linecap="round" stroke-linejoin="round" stroke-width="4">
            <path d="M0.00304243216,32 L-8.8817842e-16,32 C-1.42907908e-12,30.9393876 -3.33066907e-13,29.5436171 3.28803651e-12,27.8126887 C3.28803651e-12,25.7069989 1.790861,24 4,24 C6.209139,24 8,25.7069989 8,27.8126887 L8,3.40442403 C8,1.52421255 9.790861,-4.26325641e-14 12,-4.26325641e-14 C14.209139,-4.26325641e-14 16,1.52421255 16,3.40442403 L16,17.8126887 C16,15.7069989 17.790861,14 20,14 C22.209139,14 24,15.7069989 24,17.8126887 L24,19.8126887 C24,17.7069989 25.790861,16 28,16 C30.209139,16 32,17.7069989 32,19.8126887 L32,22.8126887 C32,20.7069989 33.790861,19 36,19 C38.209139,19 40,20.7069989 40,22.8126887 L40,27 L40,36.3266628 C39.6494659,47.8655848 33.3723381,53.7541956 21.1686166,53.9924953 C3.20296723,54.343307 0.111657763,42.3280866 0.00304243216,32 Z M24,27.5662583 L32,26.2831292 L32,24 L24,24 L24,27.5662583 Z" id="Combined-Shape"></path>
        </g>
        <g id="Group-10-Copy-2" transform="translate(19.000000, 8.000000)" fill-rule="nonzero">
            <path d="M10,40 C10,41.7584976 10,41.7584976 10,44.1873113 C10,45.1664078 9.12545469,46 8,46 C6.87454531,46 6,45.1664078 6,44.1873113 L6,40 C6,38.8954305 5.1045695,38 4,38 C2.8954305,38 2,38.8954305 2,40 L2,44.1873113 C2,47.4195945 4.7071767,50 8,50 C11.2928233,50 14,47.4195945 14,44.1873113 C14,41.7584976 14,41.7584976 14,40 C14,38.8954305 13.1045695,38 12,38 C10.8954305,38 10,38.8954305 10,40 Z" id="Rectangle-Copy-9" fill="#0099BF" transform="translate(8.000000, 44.000000) rotate(-180.000000) translate(-8.000000, -44.000000) "></path>
            <path d="M26,30 C26,31.7584976 26,31.7584976 26,34.1873113 C26,35.1664078 25.1254547,36 24,36 C22.8745453,36 22,35.1664078 22,34.1873113 L22,30 C22,28.8954305 21.1045695,28 20,28 C18.8954305,28 18,28.8954305 18,30 L18,34.1873113 C18,37.4195945 20.7071767,40 24,40 C27.2928233,40 30,37.4195945 30,34.1873113 C30,31.7584976 30,31.7584976 30,30 C30,28.8954305 29.1045695,28 28,28 C26.8954305,28 26,28.8954305 26,30 Z" id="Rectangle-Copy-10" fill="#0099BF" transform="translate(24.000000, 34.000000) rotate(-180.000000) translate(-24.000000, -34.000000) "></path>
            <path d="M18,16 L18,17.222384 C18,18.3471007 18,18.3471007 18,19.8689947 L18,39.595576 C18,40.2932827 17.1696483,41 16,41 C14.8303517,41 14,40.2932827 14,39.595576 L14,20.2047241 C14,19.1001546 13.1045695,18.2047241 12,18.2047241 C10.8954305,18.2047241 10,19.1001546 10,20.2047241 L10,39.595576 C10,42.6582922 12.7513703,45 16,45 C19.2486297,45 22,42.6582922 22,39.595576 L22,19.8689947 C22,18.3471007 22,18.3471007 22,17.222384 L22,16 C22,14.8954305 21.1045695,14 20,14 C18.8954305,14 18,14.8954305 18,16 Z" id="Rectangle-Copy-13" fill="#0099BF" transform="translate(16.000000, 29.500000) rotate(-180.000000) translate(-16.000000, -29.500000) "></path>
            <path d="M34,32 C34,33.7584976 34,33.7584976 34,36.1873113 C34,37.1664078 33.1254547,38 32,38 C30.8745453,38 30,37.1664078 30,36.1873113 L30,32 C30,30.8954305 29.1045695,30 28,30 C26.8954305,30 26,30.8954305 26,32 L26,36.1873113 C26,39.4195945 28.7071767,42 32,42 C35.2928233,42 38,39.4195945 38,36.1873113 C38,33.7584976 38,33.7584976 38,32 C38,30.8954305 37.1045695,30 36,30 C34.8954305,30 34,30.8954305 34,32 Z" id="Rectangle-Copy-11" fill="#0099BF" transform="translate(32.000000, 36.000000) rotate(-180.000000) translate(-32.000000, -36.000000) "></path>
            <path d="M42,35 C42,36.7584976 42,36.7584976 42,39.1873113 C42,40.1664078 41.1254547,41 40,41 C38.8745453,41 38,40.1664078 38,39.1873113 L38,35 C38,33.8954305 37.1045695,33 36,33 C34.8954305,33 34,33.8954305 34,35 L34,39.1873113 C34,42.4195945 36.7071767,45 40,45 C43.2928233,45 46,42.4195945 46,39.1873113 C46,36.7584976 46,36.7584976 46,35 C46,33.8954305 45.1045695,33 44,33 C42.8954305,33 42,33.8954305 42,35 Z" id="Rectangle-Copy-14" fill="#0099BF" transform="translate(40.000000, 39.000000) rotate(-180.000000) translate(-40.000000, -39.000000) "></path>
            <path d="M6,70 L6,58.6733372 C6.31652053,48.2844484 11.7097194,43.2250566 22.8704295,43.0071235 C37.0390376,42.7304559 42,49.9676005 42,63.5843542 C42,64.6889237 42.8954305,65.5843542 44,65.5843542 C45.1045695,65.5843542 46,64.6889237 46,63.5843542 C46,56.8248708 44.8532014,51.3756275 41.9299182,47.1110875 C38.2029083,41.6740557 31.9023485,38.8299965 22.7923372,39.0078859 C9.54560434,39.2665523 2.38454761,45.9843821 2.00092221,58.6126084 L2,70 C2,71.1045695 2.8954305,72 4,72 C5.1045695,72 6,71.1045695 6,70 Z" id="Rectangle-Copy-12" fill="#0099BF" transform="translate(24.000000, 55.500011) rotate(-180.000000) translate(-24.000000, -55.500011) "></path>
            <path d="M18.5,8.43542201 L18.5,2.71772492 C18.5,1.61315542 17.6045695,0.71772492 16.5,0.71772492 C15.3954305,0.71772492 14.5,1.61315542 14.5,2.71772492 L14.5,8.43542201 C14.5,9.53999151 15.3954305,10.435422 16.5,10.435422 C17.6045695,10.435422 18.5,9.53999151 18.5,8.43542201 Z" id="Line-7" fill="#00A77E"></path>
            <path d="M29.5818195,14.7150319 L29.6056543,8.12869711 C29.6096515,7.02413484 28.7174672,6.12546983 27.612905,6.12147262 C26.5083427,6.11747541 25.6096777,7.00965967 25.6056805,8.11422193 L25.5818457,14.7005567 C25.5778485,15.8051189 26.4700328,16.703784 27.574595,16.7077812 C28.6791573,16.7117784 29.5778223,15.8195941 29.5818195,14.7150319 Z" id="Line-7-Copy" fill="#00A77E" transform="translate(27.593750, 11.414627) scale(-1, 1) rotate(-45.000000) translate(-27.593750, -11.414627) "></path>
            <path d="M7.26931953,14.7150319 L7.29315428,8.12869711 C7.29715149,7.02413484 6.40496723,6.12546983 5.30040496,6.12147262 C4.19584269,6.11747541 3.29717768,7.00965967 3.29318047,8.11422193 L3.26934572,14.7005567 C3.26534851,15.8051189 4.15753277,16.703784 5.26209504,16.7077812 C6.36665731,16.7117784 7.26532232,15.8195941 7.26931953,14.7150319 Z" id="Line-7-Copy-2" fill="#00A77E" transform="translate(5.281250, 11.414627) rotate(-45.000000) translate(-5.281250, -11.414627) "></path>
        </g>
    </g>
</svg>