<svg viewBox="0 0 80 80" version="1.1" xmlns="http://www.w3.org/2000/svg" xmlns:xlink="http://www.w3.org/1999/xlink">
  <g id="_symbols" stroke="none" stroke-width="1" fill="none" fill-rule="evenodd">
    <g id="ICON-/-icon-signchecks" fill="#007A98">
      <g id="Group-2" transform="translate(7.000000, 0.000000)">
        <path d="M14.667,20 L33.333,20 L33.333,14.667 L14.667,14.667 L14.667,20 Z M36,21.333 L36,13.333 C36,12.597 35.403,12 34.667,12 L13.333,12 C12.597,12 12,12.597 12,13.333 L12,21.333 C12,22.069 12.597,22.667 13.333,22.667 L34.667,22.667 C35.403,22.667 36,22.069 36,21.333 L36,21.333 Z" id="Fill-1"></path>
        <path d="M58.7334,64.4853 L32.8544,38.6063 L36.0664,35.3943 L61.9454,61.2733 L58.7334,64.4853 Z M33.9454,33.2733 L30.7334,36.4853 L30.7114,36.4633 L29.1044,31.6443 L33.9224,33.2513 L33.9454,33.2733 Z M42.6674,74.6673 L5.3334,74.6673 L5.3334,5.3333 L42.6674,5.3333 L42.6674,37.7523 L35.7944,30.8793 C35.6294,30.7143 35.4284,30.5893 35.2084,30.5163 L27.2084,27.8503 C26.6664,27.6703 26.0744,27.8093 25.6724,28.2133 C25.2714,28.6143 25.1304,29.2093 25.3104,29.7483 L27.9764,37.7483 C28.0494,37.9683 28.1734,38.1693 28.3384,38.3343 L42.6674,52.6613 L42.6674,74.6673 Z M65.1274,60.2133 L48.0004,43.0853 L48.0004,0.0003 L5.3334,0.0003 C2.3874,0.0003 0.0004,2.3873 0.0004,5.3333 L0.0004,74.6673 C0.0004,77.6123 2.3874,80.0003 5.3334,80.0003 L42.6674,80.0003 C45.6124,80.0003 48.0004,77.6123 48.0004,74.6673 L48.0004,57.9943 L57.6724,67.6673 C57.9654,67.9603 58.3494,68.1063 58.7334,68.1063 C59.1174,68.1063 59.5014,67.9603 59.7944,67.6673 L65.1274,62.3343 C65.7124,61.7483 65.7124,60.7983 65.1274,60.2133 L65.1274,60.2133 Z" id="Fill-3"></path>
      </g>
    </g>
  </g>
</svg>
