<svg xmlns="http://www.w3.org/2000/svg" width="80" height="80" viewBox="0 0 80 80">
  <g fill="none" fill-rule="evenodd">
    <rect width="80" height="80"/>
    <path fill="#007A98" d="M76.6239503,21.7142857 C78.4807776,21.7142857 80,23.2047439 80,25.0264151 L80,25.0264151 L80,54.9735849 C80,56.7952561 78.4807776,58.2857143 76.6239503,58.2857143 L76.6239503,58.2857143 L3.37604974,58.2857143 C1.51922238,58.2857143 0,56.7952561 0,54.9735849 L0,54.9735849 L0,25.0264151 C0,23.2047439 1.51922238,21.7142857 3.37604974,21.7142857 L3.37604974,21.7142857 Z M75.0646642,26.9396344 L4.93533583,26.9396344 L4.93533583,53.1293667 L75.0646642,53.1293667 L75.0646642,26.9396344 Z M67.6194286,40.564582 C68.9451429,40.564582 70.0285714,41.588697 70.0285714,42.8394338 C70.0285714,44.0390909 69.0335476,45.0286355 67.7838201,45.1090149 L67.6194286,45.1142857 L13.0102857,45.1142857 C11.6845714,45.1142857 10.6,44.0912499 10.6,42.8394338 C10.6,41.640811 11.5960734,40.6503183 12.8458884,40.5698582 L13.0102857,40.564582 L67.6194286,40.564582 Z M67.6197714,31.4 C68.9454857,31.4 70.0289143,32.424115 70.0289143,33.6748519 C70.0289143,34.8734747 69.0338905,35.8639674 67.784163,35.9444275 L67.6197714,35.9497037 L54.1283429,35.9497037 C52.8026286,35.9497037 51.7192,34.9255887 51.7192,33.6748519 C51.7192,32.476229 52.7142238,31.4857364 53.9639513,31.4052762 L54.1283429,31.4 L67.6197714,31.4 Z"/>
  </g>
</svg>
