<svg viewBox="0 0 80 76" version="1.1" xmlns="http://www.w3.org/2000/svg" xmlns:xlink="http://www.w3.org/1999/xlink">
    <g id="_symbols" stroke="none" stroke-width="1" fill="none" fill-rule="evenodd">
        <g id="TAB-/-MM" transform="translate(-103.000000, -40.000000)">
            <g id="icon-bank-account-preview" transform="translate(103.000000, 40.000000)">
                <path d="M5,22 L75,22 C77.7614237,22 80,24.2385763 80,27 L80,70.2523609 C80,73.0137846 77.7614237,75.2523609 75,75.2523609 L5,75.2523609 C2.23857625,75.2523609 6.43929354e-15,73.0137846 0,70.2523609 L4.4408921e-16,27 C-4.4408921e-16,24.2385763 2.23857625,22 5,22 Z" id="bg-white" fill="#FFFFFF" fill-rule="nonzero"></path>
                <path d="M12.494842,50.3333333 L18.5559371,50.3333333 C19.6605066,50.3333333 20.5559371,49.4379028 20.5559371,48.3333333 C20.5559371,47.2287638 19.6605066,46.3333333 18.5559371,46.3333333 L12.494842,46.3333333 C11.3902725,46.3333333 10.494842,47.2287638 10.494842,48.3333333 C10.494842,49.4379028 11.3902725,50.3333333 12.494842,50.3333333 Z" id="Line-Copy-6" fill="#0099BF" fill-rule="nonzero"></path>
                <path d="M12.494842,61.3333333 L18.5559371,61.3333333 C19.6605066,61.3333333 20.5559371,60.4379028 20.5559371,59.3333333 C20.5559371,58.2287638 19.6605066,57.3333333 18.5559371,57.3333333 L12.494842,57.3333333 C11.3902725,57.3333333 10.494842,58.2287638 10.494842,59.3333333 C10.494842,60.4379028 11.3902725,61.3333333 12.494842,61.3333333 Z" id="Line-Copy-9" fill="#0099BF" fill-rule="nonzero"></path>
                <path d="M28.8580478,50.3333333 L67.6760655,50.3333333 C68.780635,50.3333333 69.6760655,49.4379028 69.6760655,48.3333333 C69.6760655,47.2287638 68.780635,46.3333333 67.6760655,46.3333333 L28.8580478,46.3333333 C27.7534783,46.3333333 26.8580478,47.2287638 26.8580478,48.3333333 C26.8580478,49.4379028 27.7534783,50.3333333 28.8580478,50.3333333 Z" id="Line-Copy-7" fill="#0099BF" fill-rule="nonzero"></path>
                <path d="M28.8580478,61.3333333 L67.6760655,61.3333333 C68.780635,61.3333333 69.6760655,60.4379028 69.6760655,59.3333333 C69.6760655,58.2287638 68.780635,57.3333333 67.6760655,57.3333333 L28.8580478,57.3333333 C27.7534783,57.3333333 26.8580478,58.2287638 26.8580478,59.3333333 C26.8580478,60.4379028 27.7534783,61.3333333 28.8580478,61.3333333 Z" id="Line-Copy-10" fill="#0099BF" fill-rule="nonzero"></path>
                <path d="M5,26 C4.44771525,26 4,26.4477153 4,27 L4,70.2523609 C4,70.8046456 4.44771525,71.2523609 5,71.2523609 L75,71.2523609 C75.5522847,71.2523609 76,70.8046456 76,70.2523609 L76,27 C76,26.4477153 75.5522847,26 75,26 L5,26 Z M5,22 L75,22 C77.7614237,22 80,24.2385763 80,27 L80,70.2523609 C80,73.0137846 77.7614237,75.2523609 75,75.2523609 L5,75.2523609 C2.23857625,75.2523609 6.43929354e-15,73.0137846 0,70.2523609 L4.4408921e-16,27 C-4.4408921e-16,24.2385763 2.23857625,22 5,22 Z" id="Rectangle-2" fill="#00A77E" fill-rule="nonzero"></path>
                <path d="M2.49506613,38.3333333 L77.5037497,38.3333333 C78.6083192,38.3333333 79.5037497,37.4379028 79.5037497,36.3333333 C79.5037497,35.2287638 78.6083192,34.3333333 77.5037497,34.3333333 L2.49506613,34.3333333 C1.39049663,34.3333333 0.495066126,35.2287638 0.495066126,36.3333333 C0.495066126,37.4379028 1.39049663,38.3333333 2.49506613,38.3333333 Z" id="Line-Copy-8" fill="#00A77E" fill-rule="nonzero"></path>
                <g id="PEN" stroke-width="1" fill-rule="evenodd" transform="translate(48.000000, 22.000000) rotate(-360.000000) translate(-48.000000, -22.000000) translate(29.000000, 2.000000)">
                    <path d="M3.21622509,29.7729219 L30.7854884,1.17627266 C31.9354385,-0.0165310719 33.8346157,-0.0512707901 35.0274195,1.09867933 C35.0412359,1.11199941 35.0549243,1.12545177 35.0684826,1.13903455 L37.059043,3.13318747 C38.2138844,4.29011304 38.2299282,6.1586451 37.095123,7.33523025 L9.1646952,36.2939695 C8.86154504,36.6082807 8.49343187,36.8526218 8.08606637,37.0099269 L3.32726681,38.8475482 C2.11522757,39.3155799 0.753260966,38.7124426 0.285229256,37.5004034 C0.0574134248,36.9104397 0.0767255082,36.2535978 0.338809388,35.6780378 L2.64572071,30.6118513 C2.78688233,30.3018476 2.97980858,30.0181486 3.21622509,29.7729219 Z" id="BG" stroke="#FFFFFF" stroke-width="4" fill="#FFFFFF"></path>
                    <path d="M3.21622509,29.7729219 L30.7854884,1.17627266 C31.9354385,-0.0165310719 33.8346157,-0.0512707901 35.0274195,1.09867933 C35.0412359,1.11199941 35.0549243,1.12545177 35.0684826,1.13903455 L37.059043,3.13318747 C38.2138844,4.29011304 38.2299282,6.1586451 37.095123,7.33523025 L9.1646952,36.2939695 C8.86154504,36.6082807 8.49343187,36.8526218 8.08606637,37.0099269 L-0.907092695,40.4826557 C-1.16469609,40.5821299 -1.45416462,40.4539408 -1.55363875,40.1963374 C-1.60205809,40.0709482 -1.59795355,39.9313449 -1.54225098,39.809017 L2.64572071,30.6118513 C2.78688233,30.3018476 2.97980858,30.0181486 3.21622509,29.7729219 Z" id="Path-5" stroke="#0099BF" stroke-width="4" fill="#FFFFFF"></path>
                    <path d="M4.56787107,30.5678711 L9.08353518,35.0835352" id="Line" stroke="#0099BF" stroke-width="4" stroke-linecap="square"></path>
                </g>
            </g>
        </g>
    </g>
</svg>