<svg viewBox="0 0 80 80" version="1.1" xmlns="http://www.w3.org/2000/svg" xmlns:xlink="http://www.w3.org/1999/xlink">
  <g id="_symbols" stroke="none" stroke-width="1" fill="none" fill-rule="evenodd">
    <g id="ICON-/-icon-staples" fill="#007A98">
      <path d="M69.25,65.5099 L11.75,65.5099 C9.541,65.5099 7.75,63.7189 7.75,61.5099 C7.75,59.3009 9.541,57.5099 11.75,57.5099 L69.25,57.5099 C71.459,57.5099 73.25,59.3009 73.25,61.5099 C73.25,63.7189 71.459,65.5099 69.25,65.5099 L69.25,65.5099 Z M60.948,43.6829 L8.817,29.7139 L9.529,27.0579 C11.709,18.9229 20.071,14.0949 28.207,16.2749 L65.607,26.2959 C70.408,27.5819 73.258,32.5179 71.971,37.3189 C70.685,42.1199 65.749,44.9689 60.948,43.6829 L60.948,43.6829 Z M13.5,47.2599 L13.5,35.8869 L55.946,47.2599 L13.5,47.2599 Z M69.25,52.7599 L63.825,52.7599 L63.825,48.7059 C69.683,48.4739 74.962,44.5079 76.56,38.5479 C78.524,31.2129 74.172,23.6729 66.836,21.7079 L29.437,11.6869 C18.767,8.8269 7.8,15.1589 4.941,25.8279 L3,33.0729 L10.5,35.0829 L10.5,50.2599 L59.787,50.2599 L59.787,52.7599 L11.75,52.7599 C6.918,52.7599 3,56.6779 3,61.5099 C3,66.3429 6.918,70.2599 11.75,70.2599 L69.25,70.2599 C74.083,70.2599 78,66.3429 78,61.5099 C78,56.6779 74.083,52.7599 69.25,52.7599 L69.25,52.7599 Z" id="Fill-1"></path>
      <path d="M63,37.7599 C61.619,37.7599 60.5,36.6409 60.5,35.2599 C60.5,33.8789 61.619,32.7599 63,32.7599 C64.381,32.7599 65.5,33.8789 65.5,35.2599 C65.5,36.6409 64.381,37.7599 63,37.7599 M68,35.2599 C68,32.4979 65.762,30.2599 63,30.2599 C60.238,30.2599 58,32.4979 58,35.2599 C58,38.0219 60.238,40.2599 63,40.2599 C65.762,40.2599 68,38.0219 68,35.2599" id="Fill-4"></path>
    </g>
  </g>
</svg>
