<?xml version="1.0" encoding="UTF-8"?>
<svg width="200px" height="200px" viewBox="0 0 200 200" version="1.1" xmlns="http://www.w3.org/2000/svg" xmlns:xlink="http://www.w3.org/1999/xlink">
    <!-- Generator: Sketch 49.2 (51160) - http://www.bohemiancoding.com/sketch -->
    <title>Success</title>
    <desc>Created with Sketch.</desc>
    <defs></defs>
    <g id="Success" stroke="none" stroke-width="1" fill="none" fill-rule="evenodd">
        <circle id="Oval-4" fill="#FFFFFF" cx="100" cy="100" r="76"></circle>
        <path d="M100,19 C55.2637,19 19,55.2637 19,100 C19,144.7363 55.2637,181 100,181 C144.734275,181 181,144.7363 181,100 C181,55.2637 144.734275,19 100,19 M100,27.1 C140.198275,27.1 172.9,59.801725 172.9,100 C172.9,140.198275 140.198275,172.9 100,172.9 C59.801725,172.9 27.1,140.198275 27.1,100 C27.1,59.801725 59.801725,27.1 100,27.1" id="Fill-1" fill="#0099BF"></path>
        <path d="M132.709432,69.4443736 C132.389293,69.1136005 132.122404,69 131.677603,69 C131.233359,69 130.967793,69.1130803 130.649902,69.4421323 L90.1055412,111.398616 L87.2292137,108.416742 L70.3513066,90.9194986 C70.0326922,90.590301 69.7664735,90.47715 69.3214376,90.47715 C68.8750491,90.47715 68.6101409,90.589744 68.2912196,90.919859 L60.4839112,98.9844692 C60.1381939,99.3423241 60,99.6891043 60,100.241075 C60,100.791093 60.1382333,101.137842 60.4812376,101.492891 L81.2684127,122.968512 L89.0788463,131.040406 C89.3949116,131.367568 89.6598331,131.480125 90.1081327,131.480125 C90.5531686,131.480125 90.8193874,131.366974 91.1376529,131.038137 L98.9462417,122.968151 L140.517672,80.0158764 C140.860668,79.6614878 140.999041,79.3142581 140.999041,78.763925 C140.999041,78.2144276 140.861069,77.867815 140.516111,77.5103604 L132.709432,69.4443736 Z M124.89669,63.8833058 C126.719187,61.996823 129.060203,61 131.677603,61 C134.293956,61 136.633796,61.9959479 138.457934,63.8806764 L146.266174,71.9482764 C148.064918,73.8101688 148.999041,76.1533513 148.999041,78.763925 C148.999041,81.3757016 148.064026,83.722004 146.266174,85.5795736 L104.695093,128.531488 L96.8865037,136.601474 C95.0628476,138.485705 92.7232012,139.480125 90.1081327,139.480125 C87.4889779,139.480125 85.1478925,138.485467 83.327453,136.601113 L75.5196929,128.531984 L54.7303242,107.054094 C52.9341232,105.194831 52,102.851649 52,100.241075 C52,97.628911 52.9338197,95.2856079 54.7332156,93.423041 L62.5405241,85.3584308 C64.3628507,83.472125 66.7038019,82.47715 69.3214376,82.47715 C71.9365061,82.47715 74.2761524,83.4715704 76.1044766,85.3606326 L90.1107243,99.8808344 L124.89669,63.8833058 Z" id="Fill-4" fill="#00A77E" fill-rule="nonzero"></path>
    </g>
</svg>
