<?xml version="1.0" encoding="UTF-8"?>
<svg width="80px" height="80px" viewBox="0 0 80 80" version="1.1" xmlns="http://www.w3.org/2000/svg" xmlns:xlink="http://www.w3.org/1999/xlink">
    <!-- Generator: Sketch 54.1 (76490) - https://sketchapp.com -->
    <title>ICON / icon-teller-preview</title>
    <desc>Created with Sketch.</desc>
    <g id="ICON-/-icon-teller-preview" stroke="none" stroke-width="1" fill="none" fill-rule="evenodd">
        <path d="M23.190431,50 C23.7384112,50 24.2623901,50.224842 24.6399496,50.6219958 C28.487154,54.6688589 33.8050444,57 39.5,57 C45.1949556,57 50.512846,54.6688589 54.3600504,50.6219958 C54.7376099,50.224842 55.2615888,50 55.809569,50 L60,50 C69.9411255,50 78,58.0588745 78,68 L78,78 C78,79.1045695 77.1045695,80 76,80 L4,80 C2.8954305,80 2,79.1045695 2,78 L2,68 C2,58.0588745 10.0588745,50 20,50 L23.190431,50 Z M40,8 C49.9411255,8 58,16.0588745 58,26 L58,36 C58,45.9411255 49.9411255,54 40,54 C30.0588745,54 22,45.9411255 22,36 L22,26 C22,16.0588745 30.0588745,8 40,8 Z" id="Rectangle-Copy-6" fill="#FFFFFF" fill-rule="nonzero"></path>
        <path d="M23.190431,50 C23.7384112,50 24.2623901,50.224842 24.6399496,50.6219958 C28.487154,54.6688589 33.8050444,57 39.5,57 C45.1949556,57 50.512846,54.6688589 54.3600504,50.6219958 C54.7376099,50.224842 55.2615888,50 55.809569,50 L60,50 C69.9411255,50 78,58.0588745 78,68 L78,78 C78,79.1045695 77.1045695,80 76,80 L4,80 C2.8954305,80 2,79.1045695 2,78 L2,68 C2,58.0588745 10.0588745,50 20,50 L23.190431,50 Z M22.3534383,54 L20,54 C12.2680135,54 6,60.2680135 6,68 L6,76 L74,76 L74,68 C74,60.2680135 67.7319865,54 60,54 L56.6465617,54 C52.1073688,58.4496379 46.0050459,61 39.5,61 C32.9949541,61 26.8926312,58.4496379 22.3534383,54 Z M40,8 C49.9411255,8 58,16.0588745 58,26 L58,36 C58,45.9411255 49.9411255,54 40,54 C30.0588745,54 22,45.9411255 22,36 L22,26 C22,16.0588745 30.0588745,8 40,8 Z M40,12 C32.2680135,12 26,18.2680135 26,26 L26,36 C26,43.7319865 32.2680135,50 40,50 C47.7319865,50 54,43.7319865 54,36 L54,26 C54,18.2680135 47.7319865,12 40,12 Z" id="Rectangle-Copy-5" fill="#00A77E" fill-rule="nonzero"></path>
        <path d="M19,36.5888672 L19,30 C19,28.8954305 18.1045695,28 17,28 C15.8954305,28 15,28.8954305 15,30 L15,38.5888672 C15,39.6934367 15.8954305,40.5888672 17,40.5888672 L34.0117265,40.5888672 C35.116296,40.5888672 36.0117265,39.6934367 36.0117265,38.5888672 C36.0117265,37.4842977 35.116296,36.5888672 34.0117265,36.5888672 L19,36.5888672 Z" id="Line-6" fill="#0099BF" fill-rule="nonzero"></path>
        <path d="M61,2 L61,9.01373041 C61,20.6038596 51.598247,30 40,30 C28.401753,30 19,20.6038596 19,9.01373041 L19,4.69676038 C19,3.59219088 18.1045695,2.69676038 17,2.69676038 C15.8954305,2.69676038 15,3.59219088 15,4.69676038 L15,9.01373041 C15,22.8135335 26.1931485,34 40,34 C53.8068515,34 65,22.8135335 65,9.01373041 L65,2 C65,0.8954305 64.1045695,1.11901055e-15 63,0 C61.8954305,-1.11901055e-15 61,0.8954305 61,2 Z" id="Rectangle-Copy-2" fill="#0099BF" fill-rule="nonzero" transform="translate(40.000000, 17.000000) rotate(-180.000000) translate(-40.000000, -17.000000) "></path>
        <path d="M61,20 C61,18.8954305 61.8954305,18 63,18 L66,18 C68.7614237,18 71,20.2385763 71,23 L71,27 C71,29.7614237 68.7614237,32 66,32 L63,32 C61.8954305,32 61,31.1045695 61,30 L61,20 Z" id="Rectangle-Copy" fill="#FFFFFF" fill-rule="nonzero"></path>
        <path d="M9,20 C9,18.8954305 9.8954305,18 11,18 L14,18 C16.7614237,18 19,20.2385763 19,23 L19,27 C19,29.7614237 16.7614237,32 14,32 L11,32 C9.8954305,32 9,31.1045695 9,30 L9,20 Z" id="Rectangle-Copy-7" fill="#FFFFFF" fill-rule="nonzero" transform="translate(14.000000, 25.000000) scale(-1, 1) translate(-14.000000, -25.000000) "></path>
        <path d="M61,20 C61,18.8954305 61.8954305,18 63,18 L66,18 C68.7614237,18 71,20.2385763 71,23 L71,27 C71,29.7614237 68.7614237,32 66,32 L63,32 C61.8954305,32 61,31.1045695 61,30 L61,20 Z M65,22 L65,28 L66,28 C66.5522847,28 67,27.5522847 67,27 L67,23 C67,22.4477153 66.5522847,22 66,22 L65,22 Z" id="Rectangle" fill="#0099BF" fill-rule="nonzero"></path>
        <path d="M40,32 C42.7614237,32 45,34.2385763 45,37 L45,41 C45,43.7614237 42.7614237,46 40,46 C37.2385763,46 35,43.7614237 35,41 L35,37 C35,34.2385763 37.2385763,32 40,32 Z M40,36 C39.4477153,36 39,36.4477153 39,37 L39,41 C39,41.5522847 39.4477153,42 40,42 C40.5522847,42 41,41.5522847 41,41 L41,37 C41,36.4477153 40.5522847,36 40,36 Z" id="Rectangle-Copy-4" fill="#0099BF" fill-rule="nonzero" transform="translate(40.000000, 39.000000) rotate(-90.000000) translate(-40.000000, -39.000000) "></path>
        <path d="M9,20 C9,18.8954305 9.8954305,18 11,18 L14,18 C16.7614237,18 19,20.2385763 19,23 L19,27 C19,29.7614237 16.7614237,32 14,32 L11,32 C9.8954305,32 9,31.1045695 9,30 L9,20 Z M13,22 L13,28 L14,28 C14.5522847,28 15,27.5522847 15,27 L15,23 C15,22.4477153 14.5522847,22 14,22 L13,22 Z" id="Rectangle-Copy-3" fill="#0099BF" fill-rule="nonzero" transform="translate(14.000000, 25.000000) scale(-1, 1) translate(-14.000000, -25.000000) "></path>
    </g>
</svg>