<svg viewBox="0 0 80 80" version="1.1" xmlns="http://www.w3.org/2000/svg" xmlns:xlink="http://www.w3.org/1999/xlink">
    <!-- Generator: Sketch 49.3 (51167) - http://www.bohemiancoding.com/sketch -->
    <title>icon-teller</title>
    <desc>Created with Sketch.</desc>
    <defs></defs>
    <g id="svg-teller" stroke="none" stroke-width="1" fill="none" fill-rule="evenodd">
        <path d="M75.986,26.644 C71.29,11.222 56.957,-4.26325641e-14 40,-4.26325641e-14 C23.046,-4.26325641e-14 8.715,11.219 4.016,26.637 C3.969,26.635 3.925,26.623 3.878,26.623 C1.745,26.623 0,28.368 0,30.5 L0,43.945 C0,46.078 1.745,47.823 3.878,47.823 C6.011,47.823 7.756,46.078 7.756,43.945 L7.756,32.687 C10.139,17.033 23.691,5 40,5 C55.66,5 68.773,16.095 71.903,30.835 L71.903,43.945 C71.903,43.97 71.91,43.995 71.911,44.02 L71.911,53.709 L63.232,53.709 C64.103,51.205 64.587,48.523 64.587,45.731 L64.587,36.618 C64.587,23.095 53.523,12.031 40,12.031 C26.477,12.031 15.413,23.095 15.413,36.618 L15.413,45.731 C15.413,55.557 21.257,64.081 29.64,68.008 C21.194,69.993 14.367,74.335 10.824,79.881 L69.175,79.881 C65.632,74.335 58.805,69.993 50.36,68.008 C54.739,65.957 58.414,62.642 60.936,58.552 L49.007,58.552 C47.925,61.105 45.391,62.908 42.456,62.908 L37.544,62.908 C33.633,62.908 30.434,59.708 30.434,55.798 C30.434,51.888 33.633,48.688 37.544,48.688 L42.456,48.688 C46.336,48.688 49.512,51.839 49.561,55.707 L59.338,55.707 L59.338,55.709 L73.911,55.709 L73.911,47.318 C74.468,47.629 75.1,47.823 75.781,47.823 C77.914,47.823 79.659,46.078 79.659,43.945 L79.659,30.5 C79.659,28.438 78.022,26.753 75.986,26.644" id="Fill-1" fill="#44ACC3"></path>
    </g>
</svg>
