<svg width="80px" height="80px" viewBox="0 0 80 80" version="1.1" xmlns="http://www.w3.org/2000/svg" xmlns:xlink="http://www.w3.org/1999/xlink">
    <g id="SMS-Receipt" stroke="none" stroke-width="1" fill="none" fill-rule="evenodd">
        <rect id="Rectangle" x="0" y="0" width="80" height="80"></rect>
        <rect id="Rectangle" fill="#FFFFFF" fill-rule="nonzero" x="11.6216216" y="1.66666667" width="41.3513514" height="76.6666667"></rect>
        <path d="M13.2794747,17.5 L13.2794747,61.6666667 L51.8133025,61.6666667 L51.8133025,50.3529104 L47.8725771,50.3529104 L40.4157018,58.5957667 C39.3842314,59.7359577 37.4744191,59.0143981 37.4744191,57.4845001 L37.4744191,25.8178334 C37.4744191,24.8973588 38.2289472,24.1511667 39.1597047,24.1511667 L51.8133025,24.1511667 L51.8133025,17.5 L13.2794747,17.5 Z M13.2794747,14.1666667 L51.8133025,14.1666667 L51.8133025,3.33333333 L13.2794747,3.33333333 L13.2794747,14.1666667 Z M13.2794747,65 L13.2794747,76.6666667 L51.8133025,76.6666667 L51.8133025,65 L13.2794747,65 Z M55.0927772,24.1511667 L70.3147144,24.1511667 C71.2454719,24.1511667 72,24.8973588 72,25.8178334 L72,48.6862437 C72,49.6067183 71.2454719,50.3529104 70.3147144,50.3529104 L55.0927772,50.3529104 L55.0927772,78.3333333 C55.0927772,79.2538079 54.3586417,80 53.4530398,80 L11.6397374,80 C10.7341354,80 10,79.2538079 10,78.3333333 L10,1.66666667 C10,0.746192084 10.7341354,0 11.6397374,0 L53.4530398,0 C54.3586417,0 55.0927772,0.746192084 55.0927772,1.66666667 L55.0927772,24.1511667 Z M55.0927772,27.4845001 L55.0927772,47.0195771 L68.6294288,47.0195771 L68.6294288,27.4845001 L55.0927772,27.4845001 Z M51.8133025,27.4845001 L40.8449903,27.4845001 L40.8449903,53.1219292 L45.863024,47.5749771 C46.1827323,47.2215705 46.6395258,47.0195771 47.1190211,47.0195771 L51.8133025,47.0195771 L51.8133025,27.4845001 Z" id="Combined-Shape" fill="#00A77E" fill-rule="nonzero"></path>
        <rect id="Rectangle" fill="#FFFFFF" fill-rule="nonzero" x="41.5019236" y="27.5113931" width="27.6725013" height="19.6907255"></rect>
        <path d="M25,10.4166667 C24.1044031,10.4166667 23.3783784,9.67047458 23.3783784,8.75 C23.3783784,7.82952542 24.1044031,7.08333333 25,7.08333333 L39.5945946,7.08333333 C40.4901915,7.08333333 41.2162162,7.82952542 41.2162162,8.75 C41.2162162,9.67047458 40.4901915,10.4166667 39.5945946,10.4166667 L25,10.4166667 Z M32.2972973,74.1569056 C30.5061035,74.1569056 29.0540541,72.6645214 29.0540541,70.8235722 C29.0540541,68.9826231 30.5061035,67.4902389 32.2972973,67.4902389 C34.0884911,67.4902389 35.5405405,68.9826231 35.5405405,70.8235722 C35.5405405,72.6645214 34.0884911,74.1569056 32.2972973,74.1569056 Z M45.8246607,34.9845001 C44.9290638,34.9845001 44.2030391,34.238308 44.2030391,33.3178334 C44.2030391,32.3973588 44.9290638,31.6511667 45.8246607,31.6511667 L62.8516878,31.6511667 C63.7472847,31.6511667 64.4733094,32.3973588 64.4733094,33.3178334 C64.4733094,34.238308 63.7472847,34.9845001 62.8516878,34.9845001 L45.8246607,34.9845001 Z M45.8246607,41.6511667 C44.9290638,41.6511667 44.2030391,40.9049746 44.2030391,39.9845001 C44.2030391,39.0640255 44.9290638,38.3178334 45.8246607,38.3178334 L57.1425944,38.2797402 C58.0381913,38.2797402 58.764216,39.0259323 58.764216,39.9464069 C58.764216,40.8668815 58.0381913,41.6130736 57.1425944,41.6130736 L45.8246607,41.6511667 Z" id="Combined-Shape" fill="#0099BF" fill-rule="nonzero"></path>
    </g>
</svg>
