<?xml version="1.0" encoding="UTF-8"?>
<svg viewBox="0 0 80 80" version="1.1" xmlns="http://www.w3.org/2000/svg" xmlns:xlink="http://www.w3.org/1999/xlink">
    <g id="Page-1" stroke="none" stroke-width="1" fill="none" fill-rule="evenodd">
        <g id="icon-transfer-preview">
            <path d="M71.4582501,42 L58.5252501,42 C57.4212501,42 56.5252501,42.896 56.5252501,44 L56.5252501,50.106 L25.0142501,50.106 L25.0142501,44.156 C25.0142501,42.503 23.1232501,41.564 21.8062501,42.562 L3.10825007,56.737
        C0.298250067,58.868 0.296250067,62.617 3.10825007,64.749 L21.8062501,78.923 C23.1232501,79.922 25.0142501,78.982 25.0142501,77.33 L25.0142501,70.228 L68.4652501,70.228 C71.2262501,70.228 73.4582501,67.993 73.4582501,65.233
        L73.4582501,44 C73.4582501,42.896 72.5622501,42 71.4582501,42" id="Fill-1"
                  fill="#fff" class="theme-icon-fill-color"></path>
            <path d="M77.35,14.5846244 L58.653,0.409624418 C57.335,-0.588375582 55.445,0.350624418 55.445,2.00362442 L55.445,9.10562442 L11.994,9.10562442 C9.233,9.10562442 7,11.3406244 7,14.0996244 L7,35.3336244
        C7,36.4376244 7.896,37.3336244 9,37.3336244 L21.933,37.3336244 C23.037,37.3336244 23.933,36.4376244 23.933,35.3336244 L23.933,29.2266244 L55.445,29.2266244 L55.445,35.1766244 C55.445,36.8296244 57.335,37.7696244
        58.653,36.7706244 L77.35,22.5956244 C80.161,20.4646244 80.163,16.7166244 77.35,14.5846244" id="Fill-4"
                  fill="#fff" class="theme-icon-fill-color"></path>
            <path d="M69.4582501,65.233 C69.4582501,65.785 69.0162501,66.228 68.4652501,66.228 L23.0142501,66.228 C21.9102501,66.228 21.0142501,67.124 21.0142501,68.228 L21.0142501,73.303 L5.52525007,61.561 C4.82525007,61.03
        4.82525007,60.456 5.52525007,59.925 L21.0142501,48.182 L21.0142501,52.107 C21.0142501,53.212 21.9102501,54.107 23.0142501,54.107 L58.5252501,54.107 C59.6302501,54.107 60.5252501,53.212 60.5252501,52.107 L60.5252501,46
        L69.4582501,46 L69.4582501,65.233 Z M71.4582501,42 L58.5252501,42 C57.4212501,42 56.5252501,42.895 56.5252501,44 L56.5252501,50.107 L25.0142501,50.107 L25.0142501,44.157 C25.0142501,42.504 23.1232501,41.564 21.8062501,42.563
        L3.10825007,56.737 C0.298250067,58.868 0.296250067,62.617 3.10825007,64.749 L21.8062501,78.923 C23.1232501,79.921 25.0142501,78.982 25.0142501,77.33 L25.0142501,70.228 L68.4652501,70.228 C71.2262501,70.228 73.4582501,67.993
        73.4582501,65.233 L73.4582501,44 C73.4582501,42.895 72.5622501,42 71.4582501,42 L71.4582501,42 Z" id="Fill-1"
                  fill="#0099bf" class="theme-icon-primary-color"></path>
            <path d="M74.934,19.4086244 L59.445,31.1506244 L59.445,27.2266244 C59.445,26.1216244 58.549,25.2266244 57.445,25.2266244 L21.933,25.2266244 C20.829,25.2266244 19.933,26.1216244 19.933,27.2266244 L19.933,33.3336244
        L11,33.3336244 L11,14.0996244 C11,13.5486244 11.443,13.1056244 11.994,13.1056244 L57.445,13.1056244 C58.549,13.1056244 59.445,12.2106244 59.445,11.1056244 L59.445,6.03062442 L74.934,17.7726244 C75.633,18.3036244
        75.633,18.8776244 74.934,19.4086244 M77.35,14.5846244 L58.653,0.409624418 C57.335,-0.588375582 55.445,0.350624418 55.445,2.00362442 L55.445,9.10562442 L11.994,9.10562442 C9.233,9.10562442 7,11.3406244 7,14.0996244
        L7,35.3336244 C7,36.4376244 7.896,37.3336244 9,37.3336244 L21.933,37.3336244 C23.038,37.3336244 23.933,36.4376244 23.933,35.3336244 L23.933,29.2266244 L55.445,29.2266244 L55.445,35.1766244 C55.445,36.8296244 57.335,37.7696244
        58.653,36.7706244 L77.35,22.5966244 C80.161,20.4656244 80.163,16.7166244 77.35,14.5846244" id="Fill-4"
                  fill="#00a77e" class="theme-icon-secondary-color"></path>
        </g>
    </g>
</svg>
