<svg viewBox="0 0 80 80" version="1.1" xmlns="http://www.w3.org/2000/svg" xmlns:xlink="http://www.w3.org/1999/xlink">
  <defs></defs>
  <g id="_symbols" stroke="none" stroke-width="1" fill="none" fill-rule="evenodd">
    <g id="ICON-/-icon-up50items" fill="#007A98">
      <path d="M12.8027,49.5201 C12.3217,49.3091 11.8757,49.0661 11.4667,48.7911 C11.0567,48.5171 10.6907,48.2271 10.3657,47.9201 L11.3917,46.5031 C11.6087,46.1971 11.8967,46.0441 12.2557,46.0441 C12.4807,46.0441 12.7077,46.1161 12.9377,46.2601 C13.1667,46.4041 13.4347,46.5621 13.7407,46.7331 C14.0467,46.9041 14.4027,47.0611 14.8077,47.2051 C15.2127,47.3491 15.7027,47.4211 16.2797,47.4211 C16.8907,47.4211 17.4307,47.3221 17.8997,47.1241 C18.3667,46.9261 18.7557,46.6491 19.0667,46.2931 C19.3767,45.9381 19.6117,45.5151 19.7687,45.0251 C19.9257,44.5351 20.0047,44.0011 20.0047,43.4251 C20.0047,42.3631 19.6967,41.5331 19.0797,40.9341 C18.4637,40.3351 17.5567,40.0371 16.3607,40.0371 C15.4147,40.0371 14.4657,40.2071 13.5117,40.5491 L11.4327,39.9561 L13.0527,30.4781 L22.6917,30.4781 L22.6917,31.8961 C22.6917,32.3741 22.5407,32.7601 22.2397,33.0571 C21.9377,33.3541 21.4367,33.5021 20.7347,33.5021 L15.3617,33.5021 L14.6587,37.5801 C15.5407,37.4001 16.3467,37.3091 17.0747,37.3091 C18.1017,37.3091 19.0037,37.4621 19.7817,37.7681 C20.5607,38.0751 21.2157,38.4981 21.7467,39.0381 C22.2777,39.5781 22.6777,40.2091 22.9487,40.9341 C23.2177,41.6591 23.3537,42.4401 23.3537,43.2771 C23.3537,44.3121 23.1707,45.2561 22.8067,46.1121 C22.4417,46.9661 21.9357,47.6981 21.2867,48.3051 C20.6397,48.9131 19.8717,49.3831 18.9857,49.7161 C18.0997,50.0491 17.1337,50.2151 16.0897,50.2151 C15.4777,50.2151 14.8977,50.1531 14.3487,50.0271 C13.7997,49.9011 13.2837,49.7321 12.8027,49.5201 Z" id="Fill-1"></path>
      <path d="M29.4209,36.7291 C29.6229,35.8021 29.8959,35.0641 30.2369,34.5151 C30.5799,33.9661 30.9739,33.5821 31.4189,33.3611 C31.8639,33.1401 32.3249,33.0301 32.8029,33.0301 C33.2889,33.0301 33.7569,33.1401 34.2069,33.3611 C34.6559,33.5821 35.0549,33.9661 35.4009,34.5151 C35.7479,35.0641 36.0249,35.8021 36.2319,36.7291 C36.4389,37.6561 36.5419,38.8261 36.5419,40.2391 C36.5419,41.6521 36.4389,42.8221 36.2319,43.7491 C36.0249,44.6761 35.7479,45.4151 35.4009,45.9631 C35.0549,46.5121 34.6559,46.8971 34.2069,47.1181 C33.7569,47.3381 33.2889,47.4481 32.8029,47.4481 C32.3249,47.4481 31.8639,47.3381 31.4189,47.1181 C30.9739,46.8971 30.5799,46.5121 30.2369,45.9631 C29.8959,45.4151 29.6229,44.6761 29.4209,43.7491 C29.2189,42.8221 29.1169,41.6521 29.1169,40.2391 C29.1169,38.8261 29.2189,37.6561 29.4209,36.7291 M27.7129,47.7861 C28.3529,48.6051 29.1059,49.2141 29.9749,49.6151 C30.8429,50.0151 31.7849,50.2151 32.8029,50.2151 C33.8189,50.2151 34.7669,50.0151 35.6449,49.6151 C36.5229,49.2141 37.2819,48.6051 37.9259,47.7861 C38.5689,46.9661 39.0729,45.9291 39.4389,44.6731 C39.8029,43.4181 39.9839,41.9401 39.9839,40.2391 C39.9839,38.5291 39.8029,37.0481 39.4389,35.7971 C39.0729,34.5461 38.5689,33.5111 37.9259,32.6931 C37.2819,31.8741 36.5229,31.2641 35.6449,30.8631 C34.7669,30.4631 33.8189,30.2621 32.8029,30.2621 C31.7849,30.2621 30.8429,30.4631 29.9749,30.8631 C29.1059,31.2641 28.3529,31.8741 27.7129,32.6931 C27.0739,33.5111 26.5739,34.5461 26.2149,35.7971 C25.8549,37.0481 25.6749,38.5291 25.6749,40.2391 C25.6749,41.9401 25.8549,43.4181 26.2149,44.6731 C26.5739,45.9291 27.0739,46.9661 27.7129,47.7861" id="Fill-3"></path>
      <path d="M48,39.3333 L74.667,39.3333 L74.667,19.3333 L48,19.3333 L48,39.3333 Z M48,61.9993 L74.667,61.9993 L74.667,41.9993 L48,41.9993 L48,61.9993 Z M5.333,61.9993 L45.333,61.9993 L45.333,19.3333 L5.333,19.3333 L5.333,61.9993 Z M74.667,13.9993 L5.333,13.9993 C2.388,13.9993 0,16.3883 0,19.3333 L0,61.9993 C0,64.9463 2.388,67.3333 5.333,67.3333 L74.667,67.3333 C77.612,67.3333 80,64.9463 80,61.9993 L80,19.3333 C80,16.3883 77.612,13.9993 74.667,13.9993 L74.667,13.9993 Z" id="Fill-5"></path>
      <path d="M55.7891,33.7935 C55.9011,33.9065 56.0361,33.9635 56.1901,33.9635 C56.3451,33.9635 56.4791,33.9065 56.5921,33.7935 L61.3331,29.0535 L66.0741,33.7935 C66.1871,33.9065 66.3211,33.9635 66.4771,33.9635 C66.6311,33.9635 66.7651,33.9065 66.8781,33.7935 L68.3601,32.3205 C68.4741,32.2075 68.5291,32.0715 68.5291,31.9145 C68.5291,31.7565 68.4741,31.6215 68.3601,31.5085 L61.7351,24.8925 C61.6221,24.7785 61.4881,24.7225 61.3331,24.7225 C61.1791,24.7225 61.0451,24.7785 60.9321,24.8925 L54.3071,31.5085 C54.1931,31.6215 54.1371,31.7565 54.1371,31.9145 C54.1371,32.0715 54.1931,32.2075 54.3071,32.3205 L55.7891,33.7935 Z" id="Fill-7"></path>
      <path d="M60.9317,56.7828 C61.0447,56.8958 61.1787,56.9528 61.3327,56.9528 C61.4887,56.9528 61.6217,56.8958 61.7357,56.7828 L68.3607,50.1668 C68.4737,50.0538 68.5297,49.9188 68.5297,49.7608 C68.5297,49.6028 68.4737,49.4678 68.3607,49.3538 L66.8777,47.8808 C66.7647,47.7678 66.6307,47.7118 66.4767,47.7118 C66.3217,47.7118 66.1877,47.7678 66.0747,47.8808 L61.3327,52.6218 L56.5917,47.8808 C56.4797,47.7678 56.3447,47.7118 56.1907,47.7118 C56.0357,47.7118 55.9017,47.7678 55.7887,47.8808 L54.3067,49.3538 C54.1937,49.4678 54.1367,49.6028 54.1367,49.7608 C54.1367,49.9188 54.1937,50.0538 54.3067,50.1668 L60.9317,56.7828 Z" id="Fill-8"></path>
    </g>
  </g>
</svg>
