<svg xmlns="http://www.w3.org/2000/svg" width="80" height="80" viewBox="0 0 80 80">
  <g fill="none" fill-rule="evenodd">
    <path fill="#FFF" d="M63.4312,37.454 C63.5092,37.475 63.5892,37.486 63.6662,37.508 L63.6662,5 C63.6662,2.25 61.4162,-1.42108547e-14 58.6662,-1.42108547e-14 L4.9992,-1.42108547e-14 C2.2492,-1.42108547e-14 -0.0008,2.25 -0.0008,5 L-0.0008,59 C-0.0008,61.75 2.2492,64 4.9992,64 L37.2492,64 C39.7902,73.023 48.0612,79.644 57.8962,79.644 C69.7532,79.644 79.3652,70.033 79.3652,58.176 C79.3652,48.236 72.6012,39.898 63.4312,37.454"/>
    <path fill="#0099BF" d="M19.7339 23.9583L13.1109 23.9583C12.0259 23.9583 11.1379 24.8463 11.1379 25.9313 11.1379 27.0173 12.0259 27.9053 13.1109 27.9053L19.7339 27.9053C20.8199 27.9053 21.7079 27.0173 21.7079 25.9313 21.7079 24.8463 20.8199 23.9583 19.7339 23.9583M29.5045 27.9051L51.1285 27.9051C52.2145 27.9051 53.1025 27.0171 53.1025 25.9311 53.1025 24.8461 52.2145 23.9581 51.1285 23.9581L29.5045 23.9581C28.4185 23.9581 27.5305 24.8461 27.5305 25.9311 27.5305 27.0171 28.4185 27.9051 29.5045 27.9051M19.7339 34.3548L13.1109 34.3548C12.0259 34.3548 11.1379 35.2428 11.1379 36.3278 11.1379 37.4138 12.0259 38.3018 13.1109 38.3018L19.7339 38.3018C20.8199 38.3018 21.7079 37.4138 21.7079 36.3278 21.7079 35.2428 20.8199 34.3548 19.7339 34.3548M57.8961 75.6444C48.2641 75.6444 40.4281 67.8074 40.4281 58.1754 40.4281 54.4484 41.6121 50.9974 43.6091 48.1574 43.7751 48.0014 43.9101 47.8184 44.0151 47.6144 47.2081 43.4264 52.2351 40.7064 57.8961 40.7064 67.5291 40.7064 75.3651 48.5434 75.3651 58.1754 75.3651 67.8074 67.5291 75.6444 57.8961 75.6444M57.8961 36.7064C56.1421 36.7064 54.4461 36.9404 52.8141 37.3374 52.9931 37.0404 53.1021 36.6984 53.1021 36.3284 53.1021 35.2424 52.2141 34.3544 51.1281 34.3544L29.5041 34.3544C28.4181 34.3544 27.5311 35.2424 27.5311 36.3284 27.5311 37.4134 28.4181 38.3014 29.5041 38.3014L49.7931 38.3014C46.3901 39.6904 43.4271 41.9244 41.1601 44.7484L36.5671 44.7484C35.4811 44.7484 34.5931 45.6354 34.5931 46.7204 34.5931 47.8064 35.4811 48.6944 36.5671 48.6944L38.6571 48.6944C37.2441 51.5564 36.4281 54.7674 36.4281 58.1754 36.4281 70.0324 46.0401 79.6444 57.8961 79.6444 69.7531 79.6444 79.3651 70.0324 79.3651 58.1754 79.3651 46.3194 69.7531 36.7064 57.8961 36.7064"/>
    <path fill="#00A77E" d="M3.9996,4.9999 C3.9996,4.4579 4.4576,3.9999 4.9996,3.9999 L58.6666,3.9999 C59.2086,3.9999 59.6666,4.4579 59.6666,4.9999 L59.6666,11.4939 L3.9996,11.4939 L3.9996,4.9999 Z M4.9996,59.9999 C4.4576,59.9999 3.9996,59.5419 3.9996,58.9999 L3.9996,15.4659 L59.6666,15.4659 L59.6666,36.7949 C61.0416,36.9059 62.3766,37.1499 63.6666,37.5079 L63.6666,4.9999 C63.6666,2.2499 61.4166,-0.0001 58.6666,-0.0001 L4.9996,-0.0001 C2.2496,-0.0001 -0.0004,2.2499 -0.0004,4.9999 L-0.0004,58.9999 C-0.0004,61.7499 2.2496,63.9999 4.9996,63.9999 L37.2756,63.9999 C36.9126,62.7109 36.6626,61.3759 36.5466,59.9999 L4.9996,59.9999 Z"/>
    <path fill="#00A77E" d="M57.9322,63.0741 C54.1092,63.0741 50.5182,61.1851 48.3032,58.0741 C50.5182,54.9651 54.1092,53.0741 57.9322,53.0741 C61.7552,53.0741 65.3462,54.9651 67.5612,58.0741 C65.3462,61.1851 61.7552,63.0741 57.9322,63.0741 M71.6672,57.0811 C68.8402,52.1421 63.5782,49.0741 57.9322,49.0741 C52.2862,49.0741 47.0242,52.1421 44.1972,57.0811 C43.8442,57.6971 43.8442,58.4531 44.1972,59.0681 C47.0242,64.0071 52.2862,67.0741 57.9322,67.0741 C63.5782,67.0741 68.8402,64.0071 71.6672,59.0681 C72.0202,58.4531 72.0202,57.6971 71.6672,57.0811"/>
    <path fill="#00A77E" d="M57.9332,55.075 C56.2762,55.075 54.9332,56.418 54.9332,58.075 C54.9332,59.731 56.2762,61.075 57.9332,61.075 C59.5892,61.075 60.9332,59.731 60.9332,58.075 C60.9332,56.418 59.5892,55.075 57.9332,55.075"/>
  </g>
</svg>
