<?xml version="1.0" encoding="UTF-8"?>
<svg viewBox="0 0 81 81" version="1.1" xmlns="http://www.w3.org/2000/svg" xmlns:xlink="http://www.w3.org/1999/xlink">
    <!-- Generator: Sketch 55.2 (78181) - https://sketchapp.com -->
    <title>Warning</title>
    <desc>Created with Sketch.</desc>
    <g id="Warning" stroke="none" stroke-width="1" fill="none" fill-rule="evenodd">
        <path d="M79.0178756,67.0714277 C81.1434469,71.2669607 79.7166182,76.5176533 75.7251065,78.8714148 C74.4727524,79.6099177 73.0573836,80 71.6145029,80 L8.38464699,80 C3.69839287,80 -4.26325641e-14,76.0099228 -4.26325641e-14,71.2029937 C-4.26325641e-14,69.7641391 0.336010015,68.3450746 0.981274258,67.0714277 L32.5962022,4.66868759 C34.7909375,0.336636167 39.9789664,-1.30430934 44.1101786,1.13183245 C45.5134572,1.95933426 46.6533775,3.18915771 47.4029477,4.66868759 L79.0178756,67.0714277 Z M73.06791,70.1117896 L41.452982,7.70904954 C41.2758927,7.359504 41.0220311,7.08562082 40.7299441,6.91337954 C39.9696919,6.46506509 39.0250281,6.76385716 38.5461679,7.70904954 L6.93123991,70.1117896 C6.76509154,70.4397396 6.67585222,70.8166222 6.67585222,71.2029937 C6.67585222,72.4101639 7.49644716,73.2954774 8.38464699,73.2954774 L71.6145029,73.2954774 C71.8634198,73.2954774 72.1127099,73.2267718 72.3448721,73.0898677 C73.2448248,72.559173 73.6159341,71.1935004 73.06791,70.1117896 Z M40,17.8245679 C41.8643387,17.8245679 43.3756839,19.335913 43.3756839,21.2002517 C43.3756839,21.2016606 43.375683,21.2030696 43.3756812,21.2044785 L43.3421582,47.9773772 C43.33982,49.8447345 41.8253716,51.3572878 39.9580128,51.3572878 C38.0936741,51.3572878 36.582329,49.8459427 36.582329,47.981604 C36.582329,47.9801951 36.5823299,47.9787861 36.5823316,47.9773772 L36.6158546,21.2044785 C36.6181928,19.3371212 38.1326412,17.8245679 40,17.8245679 Z M40,66.4962629 C37.2115826,66.4962629 34.9511237,64.2260961 34.9511237,61.4257034 C34.9511237,58.6253107 37.2115826,56.3551439 40,56.3551439 C42.7884174,56.3551439 45.0488763,58.6253107 45.0488763,61.4257034 C45.0488763,64.2260961 42.7884174,66.4962629 40,66.4962629 Z" id="Combined-Shape" fill="#007A98" fill-rule="nonzero"></path>
    </g>
</svg>