<svg viewBox="0 0 80 80" version="1.1" xmlns="http://www.w3.org/2000/svg" xmlns:xlink="http://www.w3.org/1999/xlink">
  <g id="Page-1" stroke="none" stroke-width="1" fill="none" fill-rule="evenodd">
    <g id="svg-back">
      <path d="M61.8883929,16.8675595 L38.9732143,39.7827381 L61.8883929,62.6979167 C62.4350226,63.2445464 62.7083333,63.8918613 62.7083333,64.639881 C62.7083333,65.3879006 62.4350226,66.0352155 61.8883929,66.5818452 L54.7247024,73.7455357 C54.1780727,74.2921654 53.5307577,74.5654762 52.7827381,74.5654762 C52.0347185,74.5654762 51.3874035,74.2921654 50.8407738,73.7455357 L18.8199405,41.7247024 C18.2733108,41.1780727 18,40.5307577 18,39.7827381 C18,39.0347185 18.2733108,38.3874035 18.8199405,37.8407738 L50.8407738,5.81994048 C51.3874035,5.27331076 52.0347185,5 52.7827381,5 C53.5307577,5 54.1780727,5.27331076 54.7247024,5.81994048 L61.8883929,12.983631 C62.4350226,13.5302607 62.7083333,14.1775756 62.7083333,14.9255952 C62.7083333,15.6736149 62.4350226,16.3209298 61.8883929,16.8675595 Z" id="1" fill="#FFF" class="theme-icon-color"></path>
    </g>
  </g>
</svg>
