<svg viewBox="0 0 80 80" version="1.1" xmlns="http://www.w3.org/2000/svg" xmlns:xlink="http://www.w3.org/1999/xlink">
    <!-- Generator: Sketch 49.3 (51167) - http://www.bohemiancoding.com/sketch -->
    <title>icon-cardless</title>
    <desc>Created with Sketch.</desc>
    <defs></defs>
      <g id="svg-cardless" stroke="none" stroke-width="1" fill="none" fill-rule="evenodd">
  <path d="M8.51068775,9.07216495 L60.801048,70.9278351 L7.49109151,70.9278351 C3.08877923,70.9278351 -0.48,67.3590558 -0.48,62.9567435 L-0.48,17.0432565 C-0.48,12.6409442 3.08877923,9.07216495 7.49109151,9.07216495 L8.51068775,9.07216495 Z M14.9903943,9.07216495 L71.5489085,9.07216495 C75.9512208,9.07216495 79.52,12.6409442 79.52,17.0432565 L79.52,62.9567435 C79.52,67.3590558 75.9512208,70.9278351 71.5489085,70.9278351 L67.2807546,70.9278351 L33.5048846,30.9734523 L79.52,30.9734523 C79.52,30.9734523 79.52,26.0249987 79.52,26.0249987 L29.3216558,26.0249987 L14.9903943,9.07216495 Z M-0.48,30.9734523 L16.0148454,30.9734523 C17.3813231,30.9734523 18.4890722,29.8657032 18.4890722,28.4992255 C18.4890722,27.1327478 17.3813231,26.0249987 16.0148454,26.0249987 L-0.48,26.0249987 C-0.48,26.0249987 -0.48,30.9734523 -0.48,30.9734523 Z"  id="fill-1" fill="#FFFFF" class="theme-icon-color" />
</g>
</svg>


