<svg viewBox="0 0 80 80" version="1.1" xmlns="http://www.w3.org/2000/svg" xmlns:xlink="http://www.w3.org/1999/xlink">
  <g id="Page-1" stroke="none" stroke-width="1" fill="none" fill-rule="evenodd">
    <g id="svg-confirm">
      <path d="M73.4449405,24.8065476 C73.4449405,25.957347 73.0421667,26.9355118 72.2366071,27.7410714 L35.1235119,64.8541667 C34.3179523,65.6597263 33.3397875,66.0625 32.1889881,66.0625 C31.0381887,66.0625 30.0600239,65.6597263 29.2544643,64.8541667 L7.76339286,43.3630952 C6.95783327,42.5575357 6.55505952,41.5793708 6.55505952,40.4285714 C6.55505952,39.277772 6.95783327,38.2996072 7.76339286,37.4940476 L13.6324405,31.625 C14.4380001,30.8194404 15.4161649,30.4166667 16.5669643,30.4166667 C17.7177637,30.4166667 18.6959285,30.8194404 19.5014881,31.625 L32.1889881,44.3556548 L60.4985119,16.0029762 C61.3040715,15.1974166 62.2822363,14.7946429 63.4330357,14.7946429 C64.5838351,14.7946429 65.5619999,15.1974166 66.3675595,16.0029762 L72.2366071,21.8720238 C73.0421667,22.6775834 73.4449405,23.6557482 73.4449405,24.8065476 Z" id="1" fill="#FFF" class="theme-icon-color"></path>
    </g>
  </g>
</svg>
