<svg viewBox="0 0 225.000000 225.000000" version="1.0" xmlns="http://www.w3.org/2000/svg" xmlns:xlink="http://www.w3.org/1999/xlink">
  <g transform="translate(0.000000,225.000000) scale(0.100000,-0.100000)" fill="#FFF" class="theme-icon-color" stroke="none">
    <path d="M1703 2241 c-51 -13 -114 -55 -173 -115 l-55 -56 298 -298 298 -297 74 77 c58 60 77 87 89 129 20 67 20 112 0 179 -14 48 -32 70 -153 193 -86 88 -154 148 -183 163 -52 26 -143 38 -195 25z"/>
    <path d="M812 1407 c-582 -583 -573 -572 -536 -625 11 -16 25 -22 52 -22 35 0 60 23 592 555 l555 555 -45 45 c-24 25 -49 45 -55 45 -6 0 -259 -249 -563 -553z"/>
    <path d="M1018 1212 c-306 -306 -561 -567 -567 -579 -17 -34 -13 -95 9 -130 25 -42 68 -63 127 -63 l48 0 567 568 568 567 -97 97 -98 98 -557 -558z"/>
    <path d="M1313 911 c-498 -501 -553 -559 -553 -588 0 -36 29 -63 70 -63 20 0 140 115 583 558 l557 557 -48 48 c-26 26 -50 46 -52 45 -3 0 -254 -251 -557 -557z"/>
    <path d="M87 339 c-69 -275 -82 -339 -68 -335 9 3 144 37 301 76 157 39 302 75 322 81 l37 10 -24 35 c-13 19 -26 47 -30 62 -5 25 -9 27 -58 28 -143 2 -268 127 -271 271 0 49 -2 52 -30 57 -16 4 -44 17 -62 31 l-32 24 -85 -340z"/>
  </g>
</svg>
