<svg viewBox="0 0 80 80" version="1.1" xmlns="http://www.w3.org/2000/svg" xmlns:xlink="http://www.w3.org/1999/xlink">
    <defs></defs>
    <g id="svg-exit-session" stroke="none" stroke-width="1" fill="none">
        <path d="M46.6375052,10 C48.787622,10 50.5306361,11.7483092 50.5306361,13.9049579 C50.5306361,15.9962536 48.8916587,17.7035827 46.8318117,17.8051369 L46.6375052,17.8099158 L19.7862619,17.8099158 L19.7862619,62.1897626 L46.6375052,62.1900842 C48.787622,62.1900842 50.5306361,63.9383934 50.5306361,66.0950421 C50.5306361,68.1863378 48.8916587,69.8936669 46.8318117,69.995221 L46.6375052,70 L15.8931309,70 C13.7430141,70 12,68.2516908 12,66.0950421 L12,13.9049579 C12,11.8136622 13.6389774,10.1063331 15.6988244,10.004779 L15.8931309,10 L46.6375052,10 Z M53.5325245,24.6752379 L53.689281,24.8208954 L66.8285979,37.7072565 L66.8477652,37.7260388 C66.86203,37.7402477 66.8762091,37.7545889 66.8903009,37.7690625 L66.9132391,37.7928199 L66.9132391,37.7928199 L66.9947136,37.8803318 C66.9946373,37.8804373 66.9949474,37.8807813 66.9952574,37.8811254 C67.0592344,37.9521346 67.1201268,38.0248558 67.1779432,38.0991235 C67.3135571,38.2727338 67.4324897,38.4558864 67.5346322,38.6457928 C67.7186936,38.9878983 67.8478423,39.3507185 67.9226294,39.7217497 C67.9271567,39.745348 67.9316857,39.7689285 67.9359969,39.7925416 C67.9442236,39.8363937 67.951474,39.8803692 67.9579699,39.9244271 C67.9626968,39.9578225 67.9672282,39.9915244 67.9713212,40.0252705 C67.9750166,40.0542811 67.9782016,40.0833051 67.9810621,40.1123519 C67.985613,40.1600899 67.9894377,40.2076831 67.9923963,40.2553222 C67.9937135,40.2747845 67.9947491,40.2938329 67.9956461,40.3128853 C67.9971828,40.3472111 67.9983828,40.3822601 67.9991148,40.4173181 L67.9997501,40.5427762 C67.9995329,40.5614482 67.9991956,40.5801183 67.9987257,40.5987861 C67.997611,40.6420838 67.9957884,40.6854098 67.9932515,40.7286947 L67.9835877,40.8585777 L67.9835877,40.8585777 C67.9816451,40.87857 67.9796885,40.8982301 67.9775839,40.9178758 C67.9731421,40.9606655 67.9678296,41.0036973 67.9618032,41.0466494 L67.9496003,41.1263538 L67.9496003,41.1263538 C67.9435312,41.1651123 67.9367447,41.2035247 67.929382,41.2418492 C67.9232838,41.2724905 67.9169322,41.3035151 67.9102036,41.3344697 C67.9034731,41.3664579 67.8962528,41.3978062 67.888642,41.4290795 C67.8799734,41.4637545 67.870936,41.4987858 67.8614093,41.533705 C67.8518466,41.5696075 67.8415674,41.6052713 67.8307712,41.6408124 C67.822547,41.6671505 67.8142319,41.6935281 67.8056328,41.7198288 C67.7943422,41.7550023 67.7823326,41.7900204 67.7698117,41.824897 C67.7569393,41.8602374 67.7438116,41.8952383 67.7301693,41.9300758 L67.6946166,42.0180114 L67.6946166,42.0180114 C67.6824016,42.0468075 67.6698195,42.0757823 67.6568731,42.1046269 C67.6412874,42.1394872 67.625273,42.1737708 67.6087334,42.2078648 C67.5904709,42.2455102 67.5714207,42.2832579 67.5517258,42.3207422 C67.5419845,42.3391766 67.532184,42.3574486 67.5222277,42.3756584 C67.5020662,42.4127236 67.4811789,42.4495328 67.4596532,42.4860556 C67.4407138,42.5178974 67.4212506,42.5498292 67.4012873,42.5815376 C67.3859314,42.6062936 67.3704355,42.6303302 67.3546524,42.6542259 C67.3362098,42.6817281 67.3172672,42.7095992 67.2979242,42.7372767 C67.2679696,42.7806143 67.2369487,42.8231656 67.2049718,42.8651957 C67.193603,42.8796496 67.1823102,42.8942736 67.1708995,42.9088355 C67.1379523,42.9513662 67.1038711,42.9930595 67.0688093,43.0341735 C67.0575019,43.0470042 67.0463841,43.0598778 67.0351683,43.0726958 C67.0043463,43.1083025 66.9724008,43.1434824 66.939707,43.1781902 C66.9233427,43.1953135 66.906992,43.2123892 66.890456,43.2293524 L66.8717306,43.2485779 L66.8319374,43.2850068 L66.737002,43.378506 C66.7327629,43.3824088 66.7285172,43.3863005 66.724265,43.3901811 L66.7171137,43.3965182 L53.5777968,55.3066399 C51.9825686,56.752633 49.520722,56.6277254 48.0791085,55.0276512 C46.6855487,53.4809127 46.7554623,51.1219073 48.2026353,49.6601987 L48.3572522,49.5122583 L53.9919374,44.4040068 L36.3320683,44.4042854 C34.1819515,44.4042854 32.4389374,42.6559762 32.4389374,40.4993275 C32.4389374,38.4080317 34.0779148,36.7007026 36.1377618,36.5991485 L36.3320683,36.5943695 L54.5559374,36.5940068 L48.245768,30.4050373 C46.7084201,28.8972861 46.6807253,26.4249596 48.1839099,24.8829414 C49.6369884,23.3923238 51.988679,23.3166786 53.5325245,24.6752379 Z" id="Fill-1" fill="#FFF" class="theme-icon-color"/>
    </g>
</svg>
