<svg viewBox="0 0 80 80" version="1.1" xmlns="http://www.w3.org/2000/svg" xmlns:xlink="http://www.w3.org/1999/xlink">
  <g id="Page-1" stroke="none" stroke-width="1" fill="none" fill-rule="evenodd">
    <g id="svg-home">
      <path d="M64.644676,43.891369 L64.644676,64.6056548 C64.644676,65.3536744 64.3713652,66.0009893 63.8247355,66.547619 C63.2781058,67.0942488 62.6307909,67.3675595 61.8827712,67.3675595 L45.3113427,67.3675595 L45.3113427,50.796131 L34.2637236,50.796131 L34.2637236,67.3675595 L17.692295,67.3675595 C16.9442754,67.3675595 16.2969605,67.0942488 15.7503308,66.547619 C15.203701,66.0009893 14.9303903,65.3536744 14.9303903,64.6056548 L14.9303903,43.891369 C14.9303903,43.8625991 14.9375827,43.8194447 14.9519677,43.7619048 C14.9663527,43.7043648 14.973545,43.6612105 14.973545,43.6324405 L39.7875331,23.1770833 L64.6015212,43.6324405 C64.6302912,43.6899804 64.644676,43.7762891 64.644676,43.891369 Z M74.2681879,40.9136905 L71.5925927,44.1071429 C71.3624328,44.3660727 71.0603525,44.5243053 70.6863427,44.5818452 L70.5568784,44.5818452 C70.1828686,44.5818452 69.8807883,44.4811518 69.6506284,44.2797619 L39.7875331,19.3794643 L9.92443791,44.2797619 C9.57919809,44.5099218 9.23396344,44.6106152 8.88872362,44.5818452 C8.51471381,44.5243053 8.2126335,44.3660727 7.98247362,44.1071429 L5.30687838,40.9136905 C5.0767185,40.6259906 4.97602506,40.2879484 5.00479505,39.8995536 C5.03356503,39.5111588 5.19179758,39.2018861 5.47949743,38.9717262 L36.5077712,13.1220238 C37.4284108,12.3740042 38.5216538,12 39.7875331,12 C41.0534125,12 42.1466555,12.3740042 43.067295,13.1220238 L53.597057,21.9255952 L53.597057,13.5104167 C53.597057,13.1076369 53.7265199,12.776787 53.9854498,12.5178571 C54.2443797,12.2589273 54.5752295,12.1294643 54.9780093,12.1294643 L63.2637236,12.1294643 C63.6665034,12.1294643 63.9973533,12.2589273 64.2562831,12.5178571 C64.515213,12.776787 64.644676,13.1076369 64.644676,13.5104167 L64.644676,31.1175595 L74.0955689,38.9717262 C74.3832687,39.2018861 74.5415013,39.5111588 74.5702712,39.8995536 C74.5990412,40.2879484 74.4983478,40.6259906 74.2681879,40.9136905 Z" id="1" fill="#FFF" class="theme-icon-color"></path>
    </g>
  </g>
</svg>
