<svg viewBox="0 0 80 80" version="1.1" xmlns="http://www.w3.org/2000/svg" xmlns:xlink="http://www.w3.org/1999/xlink">
  <defs>
  </defs>
  <g id="Page-1" stroke="none" stroke-width="1" fill="none" fill-rule="evenodd">
    <g id="svg-language">
      <path d="M39.732,-5.68434189e-14 L40.269,-5.68434189e-14 C62.148,0.143 79.857,17.852 80,39.731 L80,40.267 C79.856,62.237 62.003,80 40,80 C17.908,80 2.84217094e-14,62.091 2.84217094e-14,39.999 C2.84217094e-14,17.997
          17.762,0.144 39.732,-5.68434189e-14 Z M44.976,5.694 C50.007,10.883 53.974,16.025 56.856,21.112 C60.253,20.371 63.604,19.383 66.913,18.155 C61.547,11.551 53.8,6.962 44.976,5.694 Z M13.14,18.09 C16.558,19.216 19.939,20.146
          23.284,20.871 C26.155,15.863 30.073,10.801 35.023,5.694 C26.23,6.958 18.504,11.519 13.14,18.09 Z M42.666,7.148 L42.666,22.804 C46.53,22.719 50.336,22.324 54.093,21.655 C51.286,16.89 47.485,12.056 42.666,7.148 Z
          M26.041,21.425 C29.854,22.129 33.618,22.584 37.333,22.759 L37.333,7.148 C32.595,11.976 28.834,16.732 26.041,21.425 Z M11.453,20.338 C8.072,25.237 5.925,31.051 5.446,37.333 L17.578,37.333 C18.108,32.708 19.571,28.033
          21.969,23.308 C18.498,22.526 14.994,21.535 11.453,20.338 Z M58.157,23.55 C60.481,28.192 61.902,32.787 62.423,37.333 L74.555,37.333 C74.077,31.068 71.942,25.27 68.576,20.38 C65.149,21.688 61.676,22.745 58.157,23.55
          Z M24.667,23.882 C22.281,28.425 20.816,32.906 20.272,37.333 L37.333,37.333 L37.333,25.427 C33.168,25.237 28.944,24.715 24.667,23.882 Z M42.666,25.472 L42.666,37.333 L59.727,37.333 C59.194,32.984 57.767,28.58 55.454,24.118
          C51.253,24.918 46.991,25.38 42.666,25.472 Z M57.609,59.442 C60.658,60.113 63.737,60.942 66.842,61.936 C71.203,56.605 74.001,49.949 74.555,42.666 L62.616,42.666 C62.38,48.344 60.713,53.938 57.609,59.442 Z M42.666,57.418
          C46.678,57.599 50.743,58.096 54.858,58.876 C57.996,53.551 59.679,48.15 59.931,42.666 L42.666,42.666 L42.666,57.418 Z M20.07,42.666 C20.317,48.07 21.951,53.395 25,58.643 C29.056,57.896 33.164,57.462 37.333,57.372
          L37.333,42.666 L20.07,42.666 Z M5.446,42.666 C5.997,49.905 8.766,56.524 13.082,61.839 C16.108,60.763 19.166,59.888 22.26,59.2 C19.243,53.775 17.617,48.261 17.384,42.666 L5.446,42.666 Z M26.525,61.076 C29.264,65.184
          32.865,69.246 37.333,73.27 L37.333,60.039 C33.684,60.12 30.082,60.475 26.525,61.076 Z M42.666,60.086 L42.666,73.27 C47.052,69.32 50.599,65.333 53.318,61.302 C49.726,60.664 46.174,60.25 42.666,60.086 Z M15.001,64.004
          C20.092,69.303 26.845,72.989 34.428,74.215 C29.987,70.071 26.399,65.867 23.692,61.606 C20.763,62.222 17.866,63.027 15.001,64.004 Z M56.157,61.847 C53.47,66.026 49.932,70.15 45.573,74.215 C53.099,72.998 59.808,69.359
          64.886,64.122 C61.948,63.219 59.038,62.454 56.157,61.847 Z" id="1" fill="#FFF" class="theme-icon-color">
      </path>
    </g>
  </g>
</svg>
