<svg viewBox="0 0 80 80" version="1.1" 
  xmlns="http://www.w3.org/2000/svg" 
  xmlns:xlink="http://www.w3.org/1999/xlink">
  <g stroke="none" stroke-width="1" fill="none" fill-rule="evenodd">
    <rect width="80" height="80"/>
    <path  d="M19,0 L62.9480519,0 C65.1571909,3.51840692e-15 66.9480519,1.790861 66.9480519,4 L66.9480519,76 C66.9480519,78.209139 65.1571909,80 62.9480519,80 L19,80 C16.790861,80 15,78.209139 15,76 L15,4 C15,1.790861 16.790861,4.05812251e-16 19,0 Z" id="Fill-1" fill="#FFF" class="theme-icon-fill-color"/>
    <path fill-rule="nonzero" d="M62.7922078,0 C65.0874171,0 66.9480519,1.86063481 66.9480519,4.15584416 L66.9480519,75.8441558 C66.9480519,78.1393652 65.0874171,80 62.7922078,80 L19.1558442,80 C16.8606348,80 15,78.1393652 15,75.8441558 L15,4.15584416 C15,1.86063481 16.8606348,0 19.1558442,0 L62.7922078,0 Z M62.792,64.416 L19.155,64.416 L19.1558442,75.8441558 L62.7922078,75.8441558 L62.792,64.416 Z M62.792,18.771 L19.155,18.771 L19.155,60.26 L62.792,60.26 L62.792,18.771 Z M62.7922078,4.15584416 L19.1558442,4.15584416 L19.155,14.616 L62.792,14.616 L62.7922078,4.15584416 Z" id="Fill-2" fill="#009BC3" class="theme-icon-primary-color"/>
    <path  d="M40.974026,66.8415318 C42.9895477,66.8415318 44.6234509,68.475435 44.6234509,70.4909567 C44.6234509,72.5064784 42.9895477,74.1403816 40.974026,74.1403816 C38.9585043,74.1403816 37.3246011,72.5064784 37.3246011,70.4909567 C37.3246011,68.475435 38.9585043,66.8415318 40.974026,66.8415318 Z M42.7927681,25.1534438 L42.7927681,28.5411438 L43.1136956,28.5923269 C44.8031251,28.8933934 46.137613,29.6438988 47.1171594,30.8438431 C48.1579274,32.118784 48.6783114,33.7710032 48.6783114,35.8005009 L48.6783114,35.8005009 L44.166582,35.8005009 L44.1620094,35.517877 C44.1254285,34.4097361 43.8693626,33.5698548 43.3938117,32.998233 C42.8786315,32.378976 42.1891227,32.0693475 41.3252852,32.0693475 C40.4718554,32.0693475 39.8109677,32.3113261 39.3426221,32.7952832 C38.8742764,33.2792403 38.6401036,33.9479338 38.6401036,34.8013636 C38.6401036,35.5923473 38.8690726,36.2272158 39.3270105,36.7059691 C39.7849485,37.1847224 40.6357764,37.6738834 41.8794942,38.1734521 C43.123212,38.6730207 44.1457666,39.1439683 44.947158,39.5862947 C45.7485494,40.0286211 46.4250486,40.5281898 46.9766557,41.0850007 C47.5282628,41.6418116 47.9497738,42.2766801 48.2411889,42.9896062 C48.5326039,43.7025323 48.6783114,44.5325448 48.6783114,45.4796438 C48.6783114,47.2489494 48.1267044,48.6852094 47.0234902,49.7884235 C45.9202761,50.8916376 44.4007548,51.5421176 42.4649262,51.7398636 L42.4649262,51.7398636 L42.4649262,54.8465562 L39.9826944,54.8465562 L39.9826944,51.7554751 L39.6315557,51.712423 C37.6670257,51.4407472 36.1318526,50.6979391 35.0260366,49.4839988 C33.8551725,48.1986503 33.2697405,46.4891888 33.2697405,44.3556143 L33.2697405,44.3556143 L37.78147,44.3556143 L37.7866892,44.6362983 C37.8284431,45.7385271 38.1207203,46.5946666 38.6635209,47.2047168 C39.2515549,47.8656045 40.0971789,48.1960484 41.200393,48.1960484 C42.1162689,48.1960484 42.8396027,47.9540698 43.3703944,47.4701127 C43.9011861,46.9861555 44.166582,46.3330736 44.166582,45.5108668 C44.166582,44.657437 43.9298072,43.9783359 43.4562578,43.4735634 C42.9827083,42.9687909 42.178715,42.5030472 41.0442778,42.0763323 C39.9098406,41.6496174 38.9315187,41.2255044 38.1093119,40.8039933 C37.2871052,40.3824823 36.5819848,39.8985251 35.9939509,39.3521219 C35.4059169,38.8057187 34.947979,38.1630444 34.620137,37.4240991 C34.2922951,36.6851538 34.1283741,35.8057048 34.1283741,34.7857521 C34.1283741,33.0268541 34.6903889,31.5853903 35.8144184,30.4613608 C36.9384479,29.3373314 38.43195,28.6816475 40.2949248,28.4943092 L40.2949248,28.4943092 L40.2949248,25.1534438 L42.7927681,25.1534438 Z M36.9705734,11.7765968 L44.9774786,11.7765968 C46.1250833,11.7765968 47.0554007,10.8462794 47.0554007,9.69867469 C47.0554007,8.55107002 46.1250833,7.62075262 44.9774786,7.62075262 L36.9705734,7.62075262 C35.8229687,7.62075262 34.8926513,8.55107002 34.8926513,9.69867469 C34.8926513,10.8462794 35.8229687,11.7765968 36.9705734,11.7765968 Z" id="Fill-3" fill="#00A77E" class="theme-icon-secondary-color"/>
    </g>
</svg>