<svg width="26" height="26" viewBox="0 0 26 26" fill="none" xmlns="http://www.w3.org/2000/svg">
<path fill-rule="evenodd" clip-rule="evenodd" d="M25.4855 20.6306C25.4855 21.1886 25.2902 21.6629 24.8996 22.0536L22.0536 24.8996C21.6629 25.2902 21.1886 25.4855 20.6306 25.4855C20.0725 25.4855 19.5982 25.2902 19.2076 24.8996L13.0552 18.7472L6.9029 24.8996C6.51227 25.2902 6.03795 25.4855 5.47991 25.4855C4.92187 25.4855 4.44755 25.2902 4.05692 24.8996L1.21094 22.0536C0.820311 21.6629 0.625 21.1886 0.625 20.6306C0.625 20.0725 0.820311 19.5982 1.21094 19.2076L7.36328 13.0552L1.21094 6.9029C0.820311 6.51227 0.625 6.03795 0.625 5.47991C0.625 4.92187 0.820311 4.44755 1.21094 4.05692L4.05692 1.21094C4.44755 0.820311 4.92187 0.625 5.47991 0.625C6.03795 0.625 6.51227 0.820311 6.9029 1.21094L13.0552 7.36328L19.2076 1.21094C19.5982 0.820311 20.0725 0.625 20.6306 0.625C21.1886 0.625 21.6629 0.820311 22.0536 1.21094L24.8996 4.05692C25.2902 4.44755 25.4855 4.92187 25.4855 5.47991C25.4855 6.03795 25.2902 6.51227 24.8996 6.9029L18.7472 13.0552L24.8996 19.2076C25.2902 19.5982 25.4855 20.0725 25.4855 20.6306Z" fill="white"/>
</svg>
