<svg xmlns="http://www.w3.org/2000/svg" viewBox="0 0 350 52">
    <title>Popmoney-mono icon</title>
  <path  d="M309.915,1.43582842 L319.625,26.7458284 L329.155,1.43582842 L340.165,1.43582842 L319.765,52.5758284 L308.745,52.5758284 L313.945,39.1858284 L298.485,1.43582842 L309.915,1.43582842 Z M20.095,0.425828417 L20.095,0.445828417 C26.9275601,0.288383201 33.3095764,3.84348108 36.7721167,9.73580502 C40.234657,15.628129 40.234657,22.9335279 36.7721167,28.8258518 C33.3095764,34.7181758 26.9275601,38.2732736 20.095,38.1158284 C16.845368,38.1221223 13.6454737,37.3178524 10.785,35.7758284 L10.785,35.7758284 L10.785,50.0158284 L0.835,50.0158284 L0.835,19.2358284 C0.972240943,8.72864876 9.58751205,0.314669033 20.095,0.425828417 L20.095,0.425828417 Z M103.545,0.425828417 L103.545,0.445828417 C110.37756,0.288383201 116.759576,3.84348108 120.222117,9.73580502 C123.684657,15.628129 123.684657,22.9335279 120.222117,28.8258518 C116.759576,34.7181758 110.37756,38.2732736 103.545,38.1158284 C100.295368,38.1221223 97.0954737,37.3178524 94.235,35.7758284 L94.235,35.7758284 L94.235,50.0158284 L84.295,50.0158284 L84.295,19.2358284 C84.4267764,8.73024798 93.0391809,0.314698498 103.545,0.425828417 L103.545,0.425828417 Z M283.095,0.495828417 C288.715,0.495828417 292.915,2.20582842 295.565,5.57582842 C297.855,8.49582842 299.015,12.6258284 299.015,17.8558284 L299.015,17.8558284 L299.015,21.9258284 L274.615,21.9258284 C274.615,28.7858284 282.865,30.0358284 286.205,30.0358284 C290.387695,30.1023008 294.53758,29.2879966 298.385,27.6458284 L298.385,27.6458284 L298.385,35.2258284 C295.245,37.1258284 290.095,38.1258284 284.825,38.1258284 C278.725,38.1258284 273.585,36.3058284 270.195,33.1258284 C266.805,29.9458284 265.005,25.3658284 265.005,19.8858284 C265.005,8.10582842 272.095,0.495828417 283.095,0.495828417 Z M61.805,0.425828417 C66.8579524,0.359138049 71.7293064,2.30812866 75.3417861,5.84179058 C78.9542658,9.3754525 81.0102255,14.2026343 81.0550008,19.2558284 C81.0580432,29.6082566 72.7075106,38.0237123 62.3553694,38.1008437 C52.0032281,38.1779751 43.5282264,29.8878825 43.3770108,19.5365584 C43.2257951,9.18523421 51.4550231,0.651120569 61.805,0.425828417 Z M204.905,0.425828417 C209.957952,0.359138049 214.829306,2.30812866 218.441786,5.84179058 C222.054266,9.3754525 224.110226,14.2026343 224.155001,19.2558284 C224.158043,29.6082566 215.807511,38.0237123 205.455369,38.1008437 C195.103228,38.1779751 186.628226,29.8878825 186.477011,19.5365584 C186.325795,9.18523421 194.555023,0.651120569 204.905,0.425828417 Z M168.255,0.585828417 L168.295,0.625828417 C178.245,0.625828417 182.485,4.85582842 182.485,14.7758284 L182.485,14.7758284 L182.485,37.3358284 L172.045,37.3358284 L172.044161,16.1575494 C172.028787,14.374134 171.731552,10.0758284 165.985,10.0758284 C163.795791,10.0731575 161.632285,10.5474909 159.645,11.4658284 L159.645,11.4658284 L159.645,37.3358284 L149.145,37.3358284 L149.145,16.4258284 C149.145,12.2158284 147.145,10.0758284 143.145,10.0758284 C141.289935,10.0852476 139.445338,10.3545318 137.665,10.8758284 L137.665,10.8758284 L136.835,11.0858284 L136.835,37.3358284 L126.385,37.3358284 L126.385,3.64582842 C132.006347,1.7214772 137.894291,0.688978127 143.835,0.585828417 C148.025,0.585828417 151.705,1.60582842 153.935,3.39582842 L153.935,3.39582842 L154.505,3.83582842 L155.145,3.52582842 C159.230927,1.55116399 163.71711,0.545109136 168.255,0.585828417 L168.255,0.585828417 Z M246.085,0.585828417 C251.345,0.585828417 255.135,1.59582842 257.675,3.65582842 C260.535,5.98582842 261.925,9.74582842 261.925,15.1558284 L261.925,15.1558284 L261.925,37.3358284 L251.875,37.3358284 L251.875,16.8358284 C251.875,12.6358284 249.515,10.3258284 245.215,10.3258284 C242.972501,10.3054379 240.741114,10.6430154 238.605,11.3258284 L238.605,11.3258284 L237.875,11.5958284 L237.875,37.3358284 L227.425,37.3358284 L227.425,3.77582842 C233.439155,1.74024487 239.736174,0.663744849 246.085,0.585828417 Z M62.070208,10.1482575 C57.065325,10.1124325 52.9688198,14.1209354 52.8959655,19.1254164 C52.8231111,24.1298974 56.801195,28.2559488 61.805,28.3658284 C64.2476864,28.3924945 66.6009048,27.4476406 68.3469001,25.7391533 C70.0928953,24.030666 71.0886219,21.698518 71.115,19.2558284 C71.1137937,14.2508173 67.0750911,10.1840824 62.070208,10.1482575 Z M20.3470167,10.1480211 C15.3407935,10.1139403 11.2451205,14.1259382 11.1758718,19.1317985 C11.106623,24.1376588 15.0897497,28.2614151 20.095,28.3658284 C25.1777758,28.4157966 29.3400554,24.3385528 29.395,19.2558284 C29.393911,14.2494893 25.3532399,10.1821018 20.3470167,10.1480211 Z M103.810208,10.1482575 C98.805325,10.1124325 94.7088198,14.1209354 94.6359655,19.1254164 C94.5631111,24.1298974 98.541195,28.2559488 103.545,28.3658284 C105.987686,28.3924945 108.340905,27.4476406 110.0869,25.7391533 C111.832895,24.030666 112.828622,21.698518 112.855,19.2558284 C112.853794,14.2508173 108.815091,10.1840824 103.810208,10.1482575 Z M205.157017,10.1480211 C200.150793,10.1139403 196.055121,14.1259382 195.985872,19.1317985 C195.916623,24.1376588 199.89975,28.2614151 204.905,28.3658284 C209.987776,28.4157966 214.150055,24.3385528 214.205,19.2558284 C214.203911,14.2494893 210.16324,10.1821018 205.157017,10.1480211 Z M282.875,8.12582842 C279.095,8.12582842 276.235,10.5258284 275.095,14.6158284 L275.095,14.6158284 L289.945,14.6158284 C289.415,10.5258284 286.875,8.12582842 282.875,8.12582842 Z" id="fill-1" fill="#F0F2F4" class="theme-icon-color"/>
</svg>
