<svg xmlns="http://www.w3.org/2000/svg" viewBox="0 0 160 36">
    <title>Popmoney-icon</title>
   <g fill="none" fill-rule="evenodd" transform="translate(-.5)">
    <rect width="160" height="36" x=".5" id="fill-3" fill="#FFF" rx="10" class="theme-icon-tertiary-color" />
    <path d="M22.3800501,10.0006193 C24.9981517,9.94924711 27.4436138,11.2780168 28.7703906,13.480359 C30.0971674,15.6827011 30.0971674,18.4132005 28.7703906,20.6155427 C27.4436138,22.8178848 24.9981517,24.1466545 22.3800501,24.087807 C21.1348556,24.0901595 19.9087195,23.7895519 18.8126427,23.2131979 L18.8126427,23.2131979 L18.8126427,28.5356058 L15,28.5356058 L15,17.0311314 C15.052588,13.1039196 18.3537891,9.95907182 22.3800501,10.0006193 L22.3800501,10.0006193 Z M54.3564355,10.0006193 C56.9745371,9.94924711 59.4199992,11.2780168 60.746776,13.480359 C62.0735528,15.6827011 62.0735528,18.4132005 60.746776,20.6155427 C59.4199992,22.8178848 56.9745371,24.1466545 54.3564355,24.087807 C53.111241,24.0901595 51.8851049,23.7895519 50.7890281,23.2131979 L50.7890281,23.2131979 L50.7890281,28.5356058 L46.9802172,28.5356058 L46.9802172,17.0311314 C47.0307113,13.1045173 50.3308139,9.95908284 54.3564355,10.0006193 L54.3564355,10.0006193 Z M38.3624951,10.0006193 C40.2986863,9.97569277 42.1652926,10.7041565 43.5495232,12.0249142 C44.9337537,13.3456719 45.7215568,15.1499016 45.7387138,17.0386067 C45.7398795,20.9079779 42.540121,24.0533773 38.5733858,24.0822063 C34.6066505,24.1110353 31.3591979,21.0124921 31.301255,17.1435336 C31.2433122,13.2745751 34.3965892,10.0848255 38.3624951,10.0006193 Z M38.4641176,13.6345191 C36.5463456,13.621129 34.9766461,15.1193655 34.9487297,16.9898633 C34.9208134,18.8603611 36.4451363,20.4025331 38.3624951,20.4436022 C39.2984841,20.453569 40.2001908,20.1004161 40.8692215,19.461844 C41.5382523,18.8232719 41.919795,17.9515976 41.9299025,17.0386067 C41.9294403,15.1679107 40.3818896,13.6479092 38.4641176,13.6345191 Z M22.4766179,13.6344307 C20.5583324,13.6216925 18.9889518,15.1212353 18.962417,16.9922487 C18.9358823,18.8632621 20.4621375,20.4045762 22.3800501,20.4436022 C24.327669,20.4622785 25.922572,18.9383492 25.9436257,17.0386067 C25.9432085,15.1674143 24.3949034,13.6471689 22.4766179,13.6344307 Z M54.458058,13.6345191 C52.540286,13.621129 50.9705865,15.1193655 50.9426701,16.9898633 C50.9147538,18.8603611 52.4390767,20.4025331 54.3564355,20.4436022 C55.2924245,20.453569 56.1941312,20.1004161 56.8631619,19.461844 C57.5321927,18.8232719 57.9137354,17.9515976 57.9238429,17.0386067 C57.9233807,15.1679107 56.37583,13.6479092 54.458058,13.6345191 Z" id="fill-1" fill="#F60" class="theme-icon-primary-color"/>
    <path d="M134.372119,10.3781215 L138.092799,19.8381035 L141.744506,10.3781215 L145.963319,10.3781215 L138.146444,29.4924432 L133.923798,29.4924432 L135.916335,24.4877352 L129.99237,10.3781215 L134.372119,10.3781215 Z M124.095227,10.0267828 C126.2487,10.0267828 127.858056,10.6659203 128.873484,11.925507 C129.750966,13.0168996 130.195455,14.5605474 130.195455,16.5153362 L130.195455,16.5153362 L130.195455,18.0365582 L120.845859,18.0365582 C120.845859,20.6005833 124.007096,21.0677891 125.286917,21.0677891 C126.889643,21.0926341 128.479797,20.788276 129.954052,20.1744917 L129.954052,20.1744917 L129.954052,23.0076274 C128.750866,23.7177801 126.777488,24.0915447 124.758129,24.0915447 C122.42073,24.0915447 120.451184,23.4112931 119.152203,22.2227217 C117.853222,21.0341503 117.163498,19.3223084 117.163498,17.2740784 C117.163498,12.8711314 119.880245,10.0267828 124.095227,10.0267828 Z M94.1343693,10.0006193 C96.0705604,9.97569277 97.9371667,10.7041565 99.3213973,12.0249142 C100.705628,13.3456719 101.493431,15.1499016 101.510588,17.0386067 C101.511754,20.9079779 98.3119952,24.0533773 94.3452599,24.0822063 C90.3785246,24.1110353 87.131072,21.0124921 87.0731292,17.1435336 C87.0151863,13.2745751 90.1684633,10.0848255 94.1343693,10.0006193 Z M80.0908159,10.0604216 L80.1061431,10.0753722 C83.9187859,10.0753722 85.5434698,11.6563964 85.5434698,15.3641413 L85.5434698,15.3641413 L85.5434698,23.7962707 L81.5430688,23.7962707 L81.5430688,15.9808529 C81.5430688,15.3940424 81.5430688,13.6074477 79.2209969,13.6074477 C78.3821354,13.6064494 77.5531227,13.7837384 76.7916346,14.1269805 L76.7916346,14.1269805 L76.7916346,23.7962707 L72.7682428,23.7962707 L72.7682428,15.9808529 C72.7682428,14.4073039 72.0018825,13.6074477 70.4691618,13.6074477 C69.7583377,13.6109682 69.0515248,13.7116171 68.3693344,13.9064593 L68.3693344,13.9064593 L68.0512949,13.9849499 L68.0512949,23.7962707 L64.0470621,23.7962707 L64.0470621,11.2041413 C66.2010507,10.4848869 68.4571941,10.0989753 70.7335561,10.0604216 C72.339081,10.0604216 73.7491841,10.4416615 74.6036759,11.1107001 L74.6036759,11.1107001 L74.8220886,11.2751566 L75.0673239,11.1592895 C76.6329701,10.4212299 78.3519866,10.0452022 80.0908159,10.0604216 L80.0908159,10.0604216 Z M109.913729,10.0604216 C111.929256,10.0604216 113.381509,10.4379238 114.354787,11.2078789 C115.450682,12.0787504 115.983303,13.4841053 115.983303,15.5061718 L115.983303,15.5061718 L115.983303,23.7962707 L112.132342,23.7962707 L112.132342,16.1340964 C112.132342,14.564285 111.228037,13.7008888 109.580362,13.7008888 C108.721081,13.6932676 107.866058,13.8194421 107.047541,14.0746534 L107.047541,14.0746534 L106.76782,14.1755698 L106.76782,23.7962707 L102.763587,23.7962707 L102.763587,11.2527307 C105.068092,10.4919016 107.480985,10.089544 109.913729,10.0604216 Z M94.2309371,13.6344307 C92.3126516,13.6216925 90.7432709,15.1212353 90.7167362,16.9922487 C90.6902014,18.8632621 92.2164566,20.4045762 94.1343693,20.4436022 C96.0819882,20.4622785 97.6768912,18.9383492 97.6979449,17.0386067 C97.6975276,15.1674143 96.1492225,13.6471689 94.2309371,13.6344307 Z M124.010927,12.8786067 C122.562506,12.8786067 121.466611,13.7756417 121.029786,15.3043389 L121.029786,15.3043389 L126.720011,15.3043389 C126.516926,13.7756417 125.543648,12.8786067 124.010927,12.8786067 Z" id="fill-2" fill="#666" class="theme-icon-secondary-color"/>
  </g>
</svg>
