<svg viewBox="0 0 80 80" version="1.1" xmlns="http://www.w3.org/2000/svg" xmlns:xlink="http://www.w3.org/1999/xlink">
    <defs></defs>
    <g id="Page-1_1_">
        <g id="svg-print">
            <path id="1" fill="#fff" class="theme-icon-color" d="M16.6,60.8h38.7v-11H16.6V60.8z M16.6,33.1h38.7V16.6h-6.9c-1.2,0-2.1-0.4-2.9-1.2
                        c-0.8-0.8-1.2-1.8-1.2-2.9V5.5H16.6V33.1z M66.3,35.9c0-0.7-0.3-1.4-0.8-1.9c-0.5-0.5-1.2-0.8-1.9-0.8c-0.7,0-1.4,0.3-1.9,0.8
                        c-0.5,0.5-0.8,1.2-0.8,1.9s0.3,1.4,0.8,1.9c0.5,0.5,1.2,0.8,1.9,0.8c0.7,0,1.4-0.3,1.9-0.8S66.3,36.7,66.3,35.9z M71.8,35.9v18
                        c0,0.4-0.1,0.7-0.4,1s-0.6,0.4-1,0.4h-9.7v6.9c0,1.2-0.4,2.1-1.2,2.9c-0.8,0.8-1.8,1.2-2.9,1.2H15.2c-1.2,0-2.1-0.4-2.9-1.2
                        c-0.8-0.8-1.2-1.8-1.2-2.9v-6.9H1.4c-0.4,0-0.7-0.1-1-0.4S0,54.2,0,53.9v-18c0-2.3,0.8-4.2,2.4-5.8s3.6-2.4,5.8-2.4H11V4.1
                        C11,3,11.5,2,12.3,1.2C13.1,0.4,14,0,15.2,0h29c1.2,0,2.4,0.3,3.8,0.9s2.5,1.3,3.3,2.1l6.6,6.6c0.8,0.8,1.5,1.9,2.1,3.3
                        s0.9,2.6,0.9,3.8v11h2.8c2.3,0,4.2,0.8,5.8,2.4S71.8,33.6,71.8,35.9z"/>
        </g>
    </g>
</svg>
