<svg viewBox="0 0 80 80" version="1.1" xmlns="http://www.w3.org/2000/svg" xmlns:xlink="http://www.w3.org/1999/xlink">
  <title>ICON / icon-reset</title>
  <defs></defs>
  <g id="ICON-/-icon-reset" stroke="none" stroke-width="1" fill="none" fill-rule="evenodd">
    <path
      d="M73,13 L73,32.25 C73,32.9947954 72.7278673,33.6393202 72.1835938,34.1835938 C71.6393202,34.7278673 70.9947954,35 70.25,35 L51,35 C49.796869,35 48.9518254,34.4270891 48.4648438,33.28125 C47.9778621,32.1640569 48.178381,31.1757855 49.0664062,30.3164062 L54.9960938,24.3867188 C50.7564892,20.46222 45.7578413,18.5 40,18.5 C37.0208184,18.5 34.1777479,19.0800723 31.4707031,20.2402344 C28.7636583,21.4003964 26.4218849,22.9687401 24.4453125,24.9453125 C22.4687401,26.9218849 20.9003964,29.2636583 19.7402344,31.9707031 C18.5800723,34.6777479 18,37.5208184 18,40.5 C18,43.4791816 18.5800723,46.3222521 19.7402344,49.0292969 C20.9003964,51.7363417 22.4687401,54.0781151 24.4453125,56.0546875 C26.4218849,58.0312599 28.7636583,59.5996036 31.4707031,60.7597656 C34.1777479,61.9199277 37.0208184,62.5 40,62.5 C43.4088712,62.5 46.6314952,61.7552158 49.6679688,60.265625 C52.7044423,58.7760342 55.2682187,56.6705865 57.359375,53.9492188 C57.5598968,53.662759 57.8893206,53.4908857 58.3476562,53.4335938 C58.7773459,53.4335938 59.1354152,53.5624987 59.421875,53.8203125 L65.3085938,59.75 C65.5664075,59.9791678 65.7024739,60.2727847 65.7167969,60.6308594 C65.7311199,60.9889341 65.6236991,61.3111965 65.3945312,61.5976562 C62.2721198,65.3789252 58.4909076,68.3079323 54.0507812,70.3847656 C49.6106549,72.4615989 44.927108,73.5 40,73.5 C35.5312277,73.5 31.2630412,72.6263108 27.1953125,70.8789062 C23.1275838,69.1315017 19.6185043,66.7825668 16.6679688,63.8320312 C13.7174332,60.8814957 11.3684983,57.3724162 9.62109375,53.3046875 C7.87368918,49.2369588 7,44.9687723 7,40.5 C7,36.0312277 7.87368918,31.7630412 9.62109375,27.6953125 C11.3684983,23.6275838 13.7174332,20.1185043 16.6679688,17.1679688 C19.6185043,14.2174332 23.1275838,11.8684983 27.1953125,10.1210938 C31.2630412,8.37368918 35.5312277,7.5 40,7.5 C44.2109586,7.5 48.2857876,8.29491393 52.2246094,9.88476562 C56.1634312,11.4746173 59.6653493,13.7161314 62.7304688,16.609375 L68.3164062,11.0664062 C69.1471396,10.178381 70.1497337,9.97786215 71.3242188,10.4648438 C72.4414118,10.9518254 73,11.796869 73,13 Z"
      id="fill-1" fill="#FFF" class="theme-icon-color"></path>
  </g>
</svg>
