<svg viewBox="0 0 80 80" version="1.1" xmlns="http://www.w3.org/2000/svg" xmlns:xlink="http://www.w3.org/1999/xlink">
  <defs></defs>
  <g id="Page-1" stroke="none" stroke-width="1" fill="none" fill-rule="evenodd">
    <g id="svg-return-card">
      <g id="Group-2"></g>
      <path d="M73.235119,38.3809524 C73.235119,39.9057616 72.7028823,41.2003915 71.6383929,42.264881 L43.5446429,70.4017857 C42.4226134,71.4662752 41.1135987,71.9985119 39.6175595,71.9985119 C38.0927503,71.9985119 36.7981204,71.4662752 35.733631,70.4017857 L7.63988095,42.264881 C6.54662152,41.2291615 6,39.9345316 6,38.3809524 C6,36.8561432 6.54662152,35.5471285 7.63988095,34.453869 L10.8333333,31.2172619 C11.9553628,30.1527725 13.2643774,29.6205357 14.7604167,29.6205357 C16.2852259,29.6205357 17.5798558,30.1527725 18.6443452,31.2172619 L31.3318452,43.9047619 L31.3318452,13.5238095 C31.3318452,12.0277703 31.8784668,10.7331404 32.9717262,9.63988095 C34.0649856,8.54662152 35.3596155,8 36.8556548,8 L42.3794643,8 C43.8755035,8 45.1701334,8.54662152 46.2633929,9.63988095 C47.3566523,10.7331404 47.9032738,12.0277703 47.9032738,13.5238095 L47.9032738,43.9047619 L60.5907738,31.2172619 C61.6552633,30.1527725 62.9498932,29.6205357 64.4747024,29.6205357 C65.9707416,29.6205357 67.2797563,30.1527725 68.4017857,31.2172619 L71.6383929,34.453869 C72.7028823,35.5758985 73.235119,36.8849132 73.235119,38.3809524 Z" id="1" fill="#fff" class="theme-icon-color"></path>
    </g>
  </g>
</svg>
