<svg viewBox="0 0 80 80" version="1.1" xmlns="http://www.w3.org/2000/svg" xmlns:xlink="http://www.w3.org/1999/xlink">
  <g id="svg-save" stroke="none" stroke-width="1" fill="none" fill-rule="evenodd">
    <path
      d="M55.7777778,13 L19.1111111,13 C15.7347222,13 13,15.7347222 13,19.1111111 L13,61.8888889 C13,65.2652778 15.7347222,68 19.1111111,68 L61.8888889,68 C65.2652778,68 68,65.2652778 68,61.8888889 L68,25.2222222 L55.7777778,13 Z M40.5,61.8888889 C35.4430556,61.8888889 31.3333333,57.7791667 31.3333333,52.7222222 C31.3333333,47.6652778 35.4430556,43.5555556 40.5,43.5555556 C45.5569444,43.5555556 49.6666667,47.6652778 49.6666667,52.7222222 C49.6666667,57.7791667 45.5569444,61.8888889 40.5,61.8888889 Z M49.6666667,31.3333333 L19.1111111,31.3333333 L19.1111111,19.1111111 L49.6666667,19.1111111 L49.6666667,31.3333333 Z"
      id="fill-1" fill="#FFF" class="theme-icon-color"
      transform="translate(40.354167, 39.782738) rotate(0.000000) translate(-40.354167, -39.782738)"></path>
  </g>
</svg>
