<svg viewBox="0 0 80 80" version="1.1" xmlns="http://www.w3.org/2000/svg" xmlns:xlink="http://www.w3.org/1999/xlink">    
    <g id="Select-for-Deposit" stroke="none" stroke-width="1" fill="none" fill-rule="evenodd">
        <path d="M12.2327566,21.9420648 C12.1581455,21.947219 12.0828109,21.9498369 12.0068437,21.9498369 L6.25684735,21.9498369 L6.25684735,49.0817357 L31.3988539,49.0817357 C32.2419071,45.7743718 33.7300778,42.7406985 35.7145195,40.1357565 L18.1688769,40.1357565 C14.8904482,40.1357565 12.2327566,37.1638914 12.2327566,33.4979099 L12.2327566,21.9420648 L12.2327566,21.9420648 Z M12.2327566,15.6928175 L12.2327566,6.6378466 C12.2327566,2.97186515 14.8904482,3.55271368e-14 18.1688769,3.55271368e-14 L74.0638796,3.55271368e-14 C77.3423084,3.55271368e-14 80,2.97186515 80,6.6378466 L80,33.4979099 C80,37.1638914 77.3423084,40.1357565 74.0638796,40.1357565 L72.7223472,40.1357565 C75.9181398,44.3308177 77.8268706,49.6377788 77.8268706,55.4091 C77.8268706,68.9902791 67.2570132,80 54.2184334,80 C41.1798535,80 30.6099961,68.9902791 30.6099961,55.4091 C30.6099961,55.3919482 30.6100129,55.3748004 30.6100466,55.3576567 L6.25684735,55.4091 C2.80128598,55.4091 0,52.5762425 0,49.0817357 L0,23.0695135 C0,19.5750066 2.80128598,15.6846951 6.25684735,15.6846951 L12.0068437,15.6846951 C12.0828109,15.6846951 12.1581455,15.6874334 12.2327566,15.6928175 L12.2327566,15.6928175 Z M37.3781928,52.3478327 C37.3693627,52.6364226 37.3294575,52.9140685 37.2596217,53.1760801 C37.1717454,53.9075527 37.1264728,54.6528194 37.1264728,55.4091 C37.1264728,65.2415584 44.7788042,73.2123408 54.2184334,73.2123408 C63.6580625,73.2123408 71.3103939,65.2415584 71.3103939,55.4091 C71.3103939,45.5766416 63.6580625,37.6058592 54.2184334,37.6058592 C45.7809414,37.6058592 38.771402,43.9740759 37.3781928,52.3478327 L37.3781928,52.3478327 Z M53.4031405,13.6968441 L68.2305406,13.6968441 C69.85019,13.6968441 71.1631752,12.4336327 71.1631752,10.8753824 C71.1631752,9.31713216 69.85019,8.05392074 68.2305406,8.05392074 L53.4031405,8.05392074 C51.7834912,8.05392074 50.470506,9.31713216 50.470506,10.8753824 C50.470506,12.4336327 51.7834912,13.6968441 53.4031405,13.6968441 Z M24.0022159,26.3553243 L68.2305406,26.3553243 C69.85019,26.3553243 71.1631752,24.9478316 71.1631752,23.2116013 C71.1631752,21.475371 69.85019,20.0678783 68.2305406,20.0678783 L24.0022159,20.0678783 C22.3825666,20.0678783 21.0695814,21.475371 21.0695814,23.2116013 C21.0695814,24.9478316 22.3825666,26.3553243 24.0022159,26.3553243 Z M65.3095851,55.9814436 C65.3095851,55.4421661 65.1339888,54.9842958 64.782791,54.6078191 L55.5140621,44.6566726 C55.1438806,44.2801959 54.7120087,44.0919603 54.2184334,44.0919603 C53.7153662,44.0919603 53.2882401,44.2801959 52.9370423,44.6566726 L43.6683134,54.6078191 C43.3076237,54.9741208 43.1272816,55.431991 43.1272816,55.9814436 C43.1272816,56.5207211 43.3076237,56.9836788 43.6683134,57.3703306 L44.7219016,58.5150177 C45.0920831,58.8914944 45.5239551,59.07973 46.0175304,59.07973 C46.5205976,59.07973 46.9477237,58.8914944 47.2989215,58.5150177 L51.484799,54.0278443 L51.484799,64.7726404 C51.484799,65.3017429 51.6651412,65.7596131 52.0258308,66.1462649 C52.3865205,66.5329167 52.8136466,66.7262397 53.3072219,66.7262397 L55.1296448,66.7262397 C55.6232201,66.7262397 56.0503462,66.5329167 56.4110359,66.1462649 C56.7717255,65.7596131 56.9520677,65.3017429 56.9520677,64.7726404 L56.9520677,54.0278443 L61.1379452,58.5150177 C61.489143,58.8914944 61.9162691,59.07973 62.4193363,59.07973 C62.9129116,59.07973 63.3447836,58.8914944 63.7149651,58.5150177 L64.782791,57.3703306 C65.1339888,56.9735037 65.3095851,56.510546 65.3095851,55.9814436 Z" fill="#FFFFFF" fill-rule="nonzero" class="theme-icon-color"></path>
    </g>
</svg>