<svg viewBox="0 0 80 80" version="1.1" xmlns="http://www.w3.org/2000/svg" xmlns:xlink="http://www.w3.org/1999/xlink">
    <g id="Select-for-Return" stroke="none" stroke-width="1" fill="none" fill-rule="evenodd">
        <path d="M12.2327566,21.9420648 C12.1581455,21.947219 12.0828109,21.9498369 12.0068437,21.9498369 L6.25684735,21.9498369 L6.25684735,49.0817357 L31.3988539,49.0817357 C32.2419071,45.7743718 33.7300778,42.7406985 35.7145195,40.1357565 L18.1688769,40.1357565 C14.8904482,40.1357565 12.2327566,37.1638914 12.2327566,33.4979099 L12.2327566,21.9420648 L12.2327566,21.9420648 Z M12.2327566,15.6928175 L12.2327566,6.6378466 C12.2327566,2.97186515 14.8904482,3.55271368e-14 18.1688769,3.55271368e-14 L74.0638796,3.55271368e-14 C77.3423084,3.55271368e-14 80,2.97186515 80,6.6378466 L80,33.4979099 C80,37.1638914 77.3423084,40.1357565 74.0638796,40.1357565 L72.7223472,40.1357565 C75.9181398,44.3308177 77.8268706,49.6377788 77.8268706,55.4091 C77.8268706,68.9902791 67.2570132,80 54.2184334,80 C41.1798535,80 30.6099961,68.9902791 30.6099961,55.4091 C30.6099961,55.3919482 30.6100129,55.3748004 30.6100466,55.3576567 L6.25684735,55.4091 C2.80128598,55.4091 0,52.5762425 0,49.0817357 L0,23.0695135 C0,19.5750066 2.80128598,15.6846951 6.25684735,15.6846951 L12.0068437,15.6846951 C12.0828109,15.6846951 12.1581455,15.6874334 12.2327566,15.6928175 L12.2327566,15.6928175 Z M37.3781928,52.3478327 C37.3693627,52.6364226 37.3294575,52.9140685 37.2596217,53.1760801 C37.1717454,53.9075527 37.1264728,54.6528194 37.1264728,55.4091 C37.1264728,65.2415584 44.7788042,73.2123408 54.2184334,73.2123408 C63.6580625,73.2123408 71.3103939,65.2415584 71.3103939,55.4091 C71.3103939,45.5766416 63.6580625,37.6058592 54.2184334,37.6058592 C45.7809414,37.6058592 38.771402,43.9740759 37.3781928,52.3478327 L37.3781928,52.3478327 Z M53.4031405,13.6968441 L68.2305406,13.6968441 C69.85019,13.6968441 71.1631752,12.4336327 71.1631752,10.8753824 C71.1631752,9.31713216 69.85019,8.05392074 68.2305406,8.05392074 L53.4031405,8.05392074 C51.7834912,8.05392074 50.470506,9.31713216 50.470506,10.8753824 C50.470506,12.4336327 51.7834912,13.6968441 53.4031405,13.6968441 Z M24.0022159,26.3553243 L68.2305406,26.3553243 C69.85019,26.3553243 71.1631752,24.9478316 71.1631752,23.2116013 C71.1631752,21.475371 69.85019,20.0678783 68.2305406,20.0678783 L24.0022159,20.0678783 C22.3825666,20.0678783 21.0695814,21.475371 21.0695814,23.2116013 C21.0695814,24.9478316 22.3825666,26.3553243 24.0022159,26.3553243 Z M65.3095851,54.8367565 C65.3095851,55.376034 65.1339888,55.8339042 64.782791,56.210381 L55.5140621,66.1615274 C55.1438806,66.5380042 54.7120087,66.7262397 54.2184334,66.7262397 C53.7153662,66.7262397 53.2882401,66.5380042 52.9370423,66.1615274 L43.6683134,56.210381 C43.3076237,55.8440793 43.1272816,55.386209 43.1272816,54.8367565 C43.1272816,54.297479 43.3076237,53.8345213 43.6683134,53.4478695 L44.7219016,52.3031824 C45.0920831,51.9267056 45.5239551,51.7384701 46.0175304,51.7384701 C46.5205976,51.7384701 46.9477237,51.9267056 47.2989215,52.3031824 L51.484799,56.7903558 L51.484799,46.0455596 C51.484799,45.5164572 51.6651412,45.0585869 52.0258308,44.6719351 C52.3865205,44.2852833 52.8136466,44.0919603 53.3072219,44.0919603 L55.1296448,44.0919603 C55.6232201,44.0919603 56.0503462,44.2852833 56.4110359,44.6719351 C56.7717255,45.0585869 56.9520677,45.5164572 56.9520677,46.0455596 L56.9520677,56.7903558 L61.1379452,52.3031824 C61.489143,51.9267056 61.9162691,51.7384701 62.4193363,51.7384701 C62.9129116,51.7384701 63.3447836,51.9267056 63.7149651,52.3031824 L64.782791,53.4478695 C65.1339888,53.8446963 65.3095851,54.307654 65.3095851,54.8367565 Z" fill="#FFFFFF" fill-rule="nonzero" class="theme-icon-color"></path>
    </g>
</svg>