<svg version="1.1" xmlns="http://www.w3.org/2000/svg" xmlns:xlink="http://www.w3.org/1999/xlink" style="" viewBox="0 0 80 80">
<g style="mix-blend-mode: source-over;" transform="matrix(2.6314169260881415,0,0,2.6314169260881415,0.6666666666666666,12.017624870289263)">
	<g id="_symbols" fill="none" fill-rule="evenodd" stroke-width="1">
		<g id="Button-/-SEC-/-Select-Bills" transform="matrix(1,0,0,1,-59,-21)" fill="#FFF" class="theme-icon-color">
			<g id="Group-2" transform="matrix(1,0,0,1,59,17)">
				<g id="ICON-/-icon-select-bills">
					<g id="Group-6" transform="matrix(1,0,0,1,0,4.5)">
						<path id="Rectangle-9" d="M1.9691155,1.94444444 L1.9691155,19.0555556 L27.9614401,19.0555556 L27.9614401,1.94444444 L1.9691155,1.94444444 Z M1.9691155,0 L27.9614401,0 C29.0489525,-1.97269844e-16 29.9305556,0.870557431 29.9305556,1.94444444 L29.9305556,19.0555556 C29.9305556,20.1294426 29.0489525,21 27.9614401,21 L1.9691155,21 C0.881603037,21 1.33181865e-16,20.1294426 0,19.0555556 L0,1.94444444 C-1.33181865e-16,0.870557431 0.881603037,1.97269844e-16 1.9691155,0 Z" fill-rule="nonzero"/>
						<path id="Fill-10" d="M0.777777778,5.516 L0.777777778,1.94444444 C0.777777778,1.30011224 1.30011224,0.777777778 1.94444444,0.777777778 L5.48519241,0.777777778 C6.23542663,0.777777778 6.79064847,1.47567266 6.62199947,2.20670542 C6.11636801,4.39843603 4.40322509,6.12582124 2.21664798,6.65046743 C1.48303456,6.82649026 0.777777778,6.27043534 0.777777778,5.516 Z" fill-rule="nonzero"/>
						<path id="Fill-10" d="M23.3194444,5.516 L23.3194444,1.94444444 C23.3194444,1.30011224 23.8417789,0.777777778 24.4861111,0.777777778 L28.0268591,0.777777778 C28.7770933,0.777777778 29.3323151,1.47567266 29.1636661,2.20670542 C28.6580347,4.39843603 26.9448918,6.12582124 24.7583146,6.65046743 C24.0247012,6.82649026 23.3194444,6.27043534 23.3194444,5.516 Z" transform="matrix(-1,0,0,1,52.513474,0)" fill-rule="nonzero"/>
						<path id="Fill-10" d="M5.49050407,20.3128997 L1.94444444,20.3128997 C1.30011224,20.3128997 0.777777778,19.7905653 0.777777778,19.1462331 L0.777777778,15.5555556 C0.777777778,14.8010708 1.4831213,14.2450063 2.21676465,14.4211161 C4.41169594,14.9480055 6.13026108,16.6867521 6.62841673,18.8888115 C6.79350392,19.6185669 6.23869974,20.3128997 5.49050407,20.3128997 Z" fill-rule="nonzero"/>
						<path id="Fill-10" d="M28.0321707,20.3128997 L24.4861111,20.3128997 C23.8417789,20.3128997 23.3194444,19.7905653 23.3194444,19.1462331 L23.3194444,15.5555556 C23.3194444,14.8010708 24.024788,14.2450063 24.7584313,14.4211161 C26.9533626,14.9480055 28.6719277,16.6867521 29.1700834,18.8888115 C29.3351706,19.6185669 28.7803664,20.3128997 28.0321707,20.3128997 Z" transform="matrix(-1,0,0,1,52.51877,0)" fill-rule="nonzero"/>
						<path id="Oval-2" d="M15.1527778,14.3888889 C13.0050038,14.3888889 11.2638889,12.647774 11.2638889,10.5 C11.2638889,8.35222597 13.0050038,6.61111111 15.1527778,6.61111111 C17.3005518,6.61111111 19.0416667,8.35222597 19.0416667,10.5 C19.0416667,12.647774 17.3005518,14.3888889 15.1527778,14.3888889 Z" fill-rule="nonzero"/>
					</g>
				</g>
			</g>
		</g>
	</g>
</g>
</svg>
