<svg version="1.1" xmlns="http://www.w3.org/2000/svg" xmlns:xlink="http://www.w3.org/1999/xlink" viewBox="0 0 80 80">
  <g style="mix-blend-mode: source-over;" transform="matrix(1,0,0,1,1.334113276479583,15.1883665322291)">
    <g id="Page-1_1_">
      <g id="svg-show">
        <path d="M71.8,24.9C67.4,18.1,62,13,55.4,9.6c1.8,3,2.6,6.2,2.6,9.7c0,5.3-1.9,9.9-5.7,13.7 c-3.8,3.8-8.3,5.7-13.7,5.7S28.8,36.8,25,33c-3.8-3.8-5.7-8.3-5.7-13.7c0-3.5,0.9-6.7,2.6-9.7C15.4,13,9.9,18.1,5.5,24.9 c3.8,5.9,8.6,10.6,14.4,14.1c5.8,3.5,12,5.2,18.8,5.2s13-1.7,18.8-5.2C63.2,35.5,68,30.8,71.8,24.9z M40.7,8.3 c0-0.6-0.2-1.1-0.6-1.5c-0.4-0.4-0.9-0.6-1.5-0.6c-3.6,0-6.7,1.3-9.3,3.9s-3.9,5.7-3.9,9.3c0,0.6,0.2,1.1,0.6,1.5 c0.4,0.4,0.9,0.6,1.5,0.6s1.1-0.2,1.5-0.6c0.4-0.4,0.6-0.9,0.6-1.5c0-2.5,0.9-4.6,2.6-6.3c1.8-1.8,3.9-2.6,6.3-2.6 c0.6,0,1.1-0.2,1.5-0.6C40.5,9.4,40.7,8.9,40.7,8.3z M77.3,24.9c0,1-0.3,2-0.9,3c-4,6.6-9.4,11.9-16.2,15.9s-14,6-21.6,6 s-14.8-2-21.6-6S4.9,34.4,0.9,27.8c-0.6-1-0.9-2-0.9-3s0.3-2,0.9-3C4.9,15.3,10.3,10,17.1,6s14-6,21.6-6s14.8,2,21.6,6 s12.2,9.3,16.2,15.9C77,22.9,77.3,23.9,77.3,24.9z"
              id="1" fill="#fff" class="theme-icon-color"/>
      </g>
    </g>
  </g>
</svg>
