<svg viewBox="0 0 276 44" xmlns="http://www.w3.org/2000/svg" xmlns:xlink="http://www.w3.org/1999/xlink" width="276" height="44" fill="none" customFrame="#000000">
	<g id="logoA">
		<path id="形状" d="M28.586 4.37881L27.372 10.9894L16.6928 11.0247L16.2905 13.2141L29.2989 13.2141L30.5553 6.61766L45.5612 6.61766L44.7283 11.0318L32.0587 11.0318L30.7953 17.6212L15.4576 17.6212L15.0483 19.8318L25.7204 19.8318L23.6523 30.8494L12.959 30.8141L12.5496 33.0247L25.6216 33.0247L28.1061 19.8318L43.1332 19.8318L42.2791 24.2106L29.5742 24.2106L27.0897 37.4459L11.752 37.4459L11.3497 39.6212L28.9954 39.6212L31.4729 26.4212L41.8415 26.4212L41.0227 30.8283L33.0257 30.8283L30.5412 44L8.17349 44L10.6298 30.8141L0 30.8141L2.06808 19.7894L12.719 19.7894L15.1824 6.58234L25.8757 6.58234L27.0967 0L46.8105 0L45.9635 4.37881L28.586 4.37881ZM11.4556 26.4L3.16211 26.4L3.57149 24.1894L11.872 24.1894L11.4556 26.4ZM22.5371 24.1894L22.1277 26.3647L13.7989 26.3647L14.2083 24.1894L22.5371 24.1894Z" fill="rgb(0,101,72)" fill-rule="evenodd" />
		<path id="路径" d="M101.555 18.8925L96.7408 18.8925L96.7408 14.6761L101.555 14.6761L101.555 12.4514L96.7408 12.4514L96.7408 10.0642L101.555 10.0642L101.555 7.84656L89.1108 7.84656L89.1108 10.0642L93.5293 10.0642L93.5293 12.4514L89.1108 12.4514L89.1108 14.6761L93.5293 14.6761L93.5293 18.8925L89.1108 18.8925L89.1108 20.9053L101.555 20.9053L101.555 18.8925L101.555 18.8925Z" fill="rgb(35,24,21)" fill-rule="evenodd" />
		<path id="形状" d="M84.502 3.43243L106.185 3.43243L106.185 25.1217L84.502 25.1217L84.502 3.43243ZM87.9182 22.897L102.952 22.897L102.952 5.84078L87.9182 5.84078L87.9182 22.897Z" fill="rgb(35,24,21)" fill-rule="evenodd" />
		<rect id="矩形" width="3.01388645" height="1.81508839" x="98.1381836" y="15.8696594" fill="rgb(35,24,21)" />
		<path id="形状" d="M120.344 6.23628L124.967 6.23628L124.967 24.5213L112.318 24.5213L112.318 6.23628L117.33 6.23628L117.33 2.42953L120.344 2.42953L120.344 6.23628ZM115.537 14.0475L117.33 14.0475L117.33 8.39743L115.537 8.39743L115.537 14.0475ZM120.344 14.0475L122.151 14.0475L122.151 8.39743L120.344 8.39743L120.344 14.0475ZM117.33 22.4803L115.537 22.4803L115.537 16.2652L117.33 16.2652L117.33 22.4803ZM122.151 22.4803L120.344 22.4803L120.344 16.2652L122.151 16.2652L122.151 22.4803Z" fill="rgb(35,24,21)" fill-rule="evenodd" />
		<path id="路径" d="M134.997 21.2019L134.997 16.4064C134.976 15.4184 134.441 14.5132 133.585 14.0193L133.501 13.9769L133.543 13.8921C135.378 10.156 135.075 5.24752 135.018 4.54126L126.569 4.54126L126.569 26.5413L129.576 26.5413L129.576 6.65298L132.244 6.65298C132.244 6.65298 132.188 11.1377 130.571 13.2141L130.571 15.2835C131.384 15.225 132.099 15.8159 132.195 16.6254L132.195 20.9759C132.195 21.6822 131.567 22.0989 130.571 22.1271L130.571 24.5214L130.67 24.5214C131.745 24.5434 132.803 24.2487 133.712 23.6738C134.501 23.0849 134.975 22.1653 134.997 21.1807" fill="rgb(35,24,21)" fill-rule="evenodd" />
		<path id="形状" d="M65.7478 2.40128L69.3616 2.40128L69.3828 7.64879L78.4174 7.64879L78.4174 20.3191L69.3828 20.3191L69.3828 26.5201L65.769 26.5201L65.769 20.3191L56.332 20.3191L56.332 7.64879L65.7478 7.64879L65.7478 2.40128ZM65.7478 18.3063L59.7341 18.3063L59.7341 9.65457L65.7478 9.65457L65.7478 18.3063ZM69.3616 18.3063L75.1706 18.3063L75.1706 9.65457L69.3616 9.65457L69.3616 18.3063Z" fill="rgb(35,24,21)" fill-rule="evenodd" />
		<path id="路径" d="M141.229 6.80834L145.873 6.80834L145.873 22.5014L144.518 22.5014L144.518 10.382L141.229 10.382L141.229 22.5014L141.229 24.8886L144.518 24.8886L151.873 24.8886L151.873 22.5014L149.163 22.5014L149.163 15.1493L151.873 15.1493L151.873 12.7621L149.163 12.7621L149.163 6.80834L151.873 6.80834L151.873 4.41412L141.229 4.41412L141.229 6.80834L141.229 6.80834Z" fill="rgb(35,24,21)" fill-rule="evenodd" />
		<path id="路径" d="M161.924 8.19262L162.898 8.19262L162.898 5.81252L156.122 5.81252L156.898 2.42953L153.609 2.42953L152.452 8.19262L158.635 8.19262L158.635 15.1493C158.642 16.5338 158.31 17.899 157.668 19.1255C156.908 17.939 156.506 16.5585 156.51 15.1493C156.409 13.2319 156.409 11.3106 156.51 9.39326L153.023 9.39326L153.023 15.1493C153.067 17.5034 153.962 19.7619 155.543 21.5056C154.631 22.3016 153.617 22.9736 152.529 23.5043L152.529 26.4706C154.34 25.7824 156.014 24.7754 157.47 23.4973C159.096 24.788 160.929 25.7934 162.891 26.4706L162.891 23.4973C161.726 22.953 160.624 22.2853 159.602 21.5056C161.043 19.6949 161.856 17.4635 161.917 15.1493L161.924 8.19262Z" fill="rgb(35,24,21)" fill-rule="evenodd" />
		<path id="形状" d="M252.771 8.48924C255.176 7.73154 257.06 5.84632 257.818 3.43948L260.909 3.43948C259.498 7.67704 256.674 10.2337 252.771 10.8623L252.771 8.48924ZM275.576 4.52006L263.224 4.52006L263.224 6.57528L275.576 6.57528L275.576 4.52006ZM265.476 23.8363L265.476 26.1457L269.379 26.1316C271.567 26.1316 272.591 25.051 272.591 22.7204L272.591 12.5008L275.929 12.5008L275.929 10.4173L262.349 10.4173L262.349 12.5008L269.407 12.5008L269.407 22.0212C269.465 22.5004 269.307 22.9805 268.975 23.3312C268.644 23.6819 268.174 23.867 267.692 23.8363L265.476 23.8363ZM256.11 26.1457L256.11 16.5053L255.58 16.7737C254.697 17.2124 253.759 17.533 252.792 17.7271L252.792 15.6507C255.268 14.8505 257.217 12.9213 258.044 10.4526L260.867 10.4526C260.426 11.7969 259.796 13.0715 258.996 14.2382L258.912 14.3583L258.912 26.1457L256.11 26.1457Z" fill="rgb(35,24,21)" fill-rule="evenodd" />
		<path id="路径" d="M228.992 3.43243L226.112 3.43243L224.969 7.81125L233.001 7.81125L233.001 5.57946L228.406 5.57946L228.992 3.43243L228.992 3.43243Z" fill="rgb(35,24,21)" fill-rule="evenodd" />
		<path id="路径" d="M230.333 11.6604L232.366 11.6604L232.366 9.64752L225.477 9.64752L225.477 11.6604L227.594 11.6604L227.594 15.2129L224.947 15.2129L224.947 17.2186L227.594 17.2186L227.594 26.1458L232.563 26.1458L232.563 24.0835L230.333 24.0835L230.333 17.2186L232.676 17.2186L232.676 15.2129L230.333 15.2129L230.333 11.6604L230.333 11.6604Z" fill="rgb(35,24,21)" fill-rule="evenodd" />
		<path id="形状" d="M247.351 15.2199L237.469 15.2199L237.469 24.1329L240.342 24.1329L240.342 26.1458L234.61 26.1458L234.61 4.52713L247.351 4.52713L247.351 15.2199ZM237.469 6.5541L244.4 6.5541L244.4 8.92007L237.469 8.92007L237.469 6.5541ZM244.386 10.9258L237.469 10.9258L237.469 13.2989L244.386 13.2989L244.386 10.9258Z" fill="rgb(35,24,21)" fill-rule="evenodd" />
		<path id="路径" d="M244.873 21.8658L244.739 21.7316C244.739 21.7316 247.266 18.949 248.106 16.7878L245.282 16.7878C244.73 17.7501 244.095 18.6623 243.384 19.514L243.214 19.7117L242.932 19.2385C242.486 18.4694 242.142 17.6456 241.909 16.7878L238.704 16.7878C239.168 18.1162 239.752 19.3998 240.447 20.6228C241.859 22.8405 243.892 25.4324 248.106 26.0822L248.106 23.695C247.958 23.6244 247.725 23.5608 247.583 23.4902C246.579 23.1249 245.658 22.5631 244.873 21.8376" fill="rgb(35,24,21)" fill-rule="evenodd" />
		<path id="形状" d="M169.688 10.9612L169.688 26.1458L172.702 26.1458L172.702 7.81125C173.505 6.22767 174.091 4.54351 174.446 2.80386L171.771 2.80386C171.307 5.28446 169.963 7.51404 167.987 9.08251L167.987 11.7381C168.434 11.5701 168.873 11.3791 169.3 11.166L169.688 10.9612ZM180.12 25.7432L180.12 16.6748L179.739 16.8655C179.443 17.0138 179.132 17.1692 178.822 17.3104L178.822 15.0504C180.228 14.4274 181.52 13.5754 182.647 12.5291L183.148 12.0559L178.822 12.0559L178.822 9.78171L181.892 9.78171L181.892 6.95667L179.859 6.95667L179.859 4.78139L181.892 4.78139L181.892 3.36887L184.807 3.36887L184.807 4.78139L186.925 4.78139L186.925 6.95667L184.807 6.95667L184.807 9.78171L185.428 9.78171L185.478 9.71815C186.062 9.00189 186.553 8.21394 186.939 7.37337L186.939 7.4793L187.447 6.5541C187.775 5.94107 188.06 5.3063 188.301 4.65426L191.082 4.65426C190.444 6.28684 189.664 7.86068 188.753 9.35796L188.485 9.78171L190.602 9.78171L190.602 12.0559L186.642 12.0559L186.586 12.1124C186.028 12.6774 185.457 13.2212 184.871 13.7509L184.341 14.2312L189.819 14.2312L189.819 25.7432L180.12 25.7432ZM174.432 4.55539L175.801 8.69407L178.363 8.69407L176.951 4.55539L174.432 4.55539ZM174.629 12.2254L173.697 12.2254L173.697 10.0218L177.452 10.0218L177.452 22.6992L178.864 22.6992L178.864 25.3618L174.629 25.3618L174.629 12.2254ZM182.944 19.288L186.995 19.288L186.995 16.2581L182.979 16.2581L182.944 19.288ZM186.96 23.9564L182.944 23.9564L182.944 21.0677L186.96 21.0677L186.96 23.9564Z" fill="rgb(35,24,21)" fill-rule="evenodd" />
		<path id="路径" d="M213.972 4.32937L213.972 3.32648L211.283 3.32648L211.283 4.32937L205.241 4.32937L205.241 3.32648L202.65 3.32648L202.65 4.32937L197.18 4.32937L197.18 6.42696L202.65 6.42696L202.65 7.53579L205.241 7.53579L205.241 6.42696L211.283 6.42696L211.283 7.53579L213.972 7.53579L213.972 6.42696L219.442 6.42696L219.442 4.32937L213.972 4.32937L213.972 4.32937Z" fill="rgb(35,24,21)" fill-rule="evenodd" />
		<path id="路径" d="M209.702 7.2533L206.914 7.2533L206.914 8.22793L197.18 8.22793L197.18 10.2196L203.935 10.2196C202.478 10.9275 200.952 11.486 199.382 11.8864L199.382 13.3695L206.052 13.3695C203.596 14.3512 200.625 14.782 198.048 15.34L198.048 16.9149L218.856 16.9149L217.649 13.3836L215.129 13.3836L215.68 14.9092L207.986 14.9092C211.085 13.9204 212.927 12.748 216.421 10.9258L212.235 10.9258C211.438 11.3214 211.431 11.4414 210.633 11.7734L205.184 11.7734C206.01 11.3284 206.412 11.0247 207.753 10.2337L219.463 10.2337L219.463 8.24206L209.723 8.24206L209.702 7.2533Z" fill="rgb(35,24,21)" fill-rule="evenodd" />
		<path id="形状" d="M198.416 26.0115L218.214 26.0115L218.214 17.8754L198.416 17.8754L198.416 26.0115ZM201.309 19.521L206.554 19.521L206.554 21.2019L201.309 21.2019L201.309 19.521ZM209.963 19.521L215.228 19.521L215.228 21.2019L209.991 21.2019L209.963 19.521ZM206.554 22.8969L201.309 22.8969L201.309 24.4225L206.554 24.4225L206.554 22.8969ZM215.228 22.8969L209.963 22.8969L209.991 24.4225L215.228 24.4225L215.228 22.8969Z" fill="rgb(35,24,21)" fill-rule="evenodd" />
		<path id="形状" d="M61.9506 32.8482C61.6271 32.6351 61.2609 32.4953 60.8778 32.4385C60.4489 32.3654 60.0139 32.3346 59.5791 32.3467L56.3252 32.3467L56.3252 41.1467L57.5392 41.1467L57.5392 37.6154L59.6567 37.6154C60.5677 37.7142 61.4791 37.4332 62.1765 36.8385C62.6444 36.3151 62.8966 35.6337 62.8823 34.9316C62.8947 34.5146 62.8076 34.1006 62.6282 33.7239C62.4693 33.3818 62.2265 33.0854 61.9224 32.8623L61.9506 32.8482ZM61.1742 36.1181C61.4821 35.8224 61.6469 35.4076 61.626 34.9811L61.6542 34.9881C61.6628 34.6626 61.5717 34.3422 61.393 34.07C61.2273 33.8217 60.9761 33.6432 60.6872 33.5685C60.3477 33.5039 60.002 33.4778 59.6567 33.4909L57.5392 33.4909L57.5392 36.5207L59.6567 36.5207C60.1945 36.5743 60.7336 36.4313 61.1742 36.1181Z" fill="rgb(35,24,21)" fill-rule="evenodd" />
		<path id="形状" d="M71.0062 32.7916C70.3673 32.4058 69.6348 32.2031 68.8887 32.2054C67.7694 32.171 66.6903 32.6246 65.9313 33.4485C65.123 34.398 64.7088 35.6212 64.7737 36.8668C64.7735 37.6265 64.9423 38.3768 65.2678 39.0632C65.5785 39.7399 66.0818 40.3099 66.7147 40.7017C67.3631 41.1096 68.1158 41.3206 68.8816 41.3091C69.6109 41.3103 70.3281 41.123 70.9638 40.7653C71.6109 40.395 72.1322 39.839 72.4602 39.1692C72.8226 38.4239 73.004 37.6036 72.9895 36.7749C73.0036 35.9638 72.8348 35.1599 72.4955 34.4231C72.1789 33.7499 71.6738 33.1831 71.0415 32.7916L71.0062 32.7916ZM66.0018 36.8879C65.9498 37.7795 66.2373 38.6578 66.8065 39.3457L66.7994 39.3457C67.3178 39.9258 68.0617 40.2529 68.8393 40.2427C69.6231 40.2638 70.3757 39.9351 70.8932 39.3457C71.4784 38.6189 71.7704 37.6993 71.712 36.7679C71.7262 36.139 71.6109 35.514 71.3732 34.9316C70.9571 33.9185 69.962 33.265 68.8675 33.286C68.1112 33.2798 67.3839 33.5775 66.8488 34.1123C66.2099 34.8886 65.9053 35.887 66.0018 36.8879Z" fill="rgb(35,24,21)" fill-rule="evenodd" />
		<path id="路径" d="M80.1539 36.5136C79.5417 36.2684 78.9086 36.0793 78.2623 35.9486C77.6682 35.8618 77.0986 35.6526 76.5895 35.3342C76.3775 35.1474 76.2608 34.875 76.2718 34.5926C76.2718 34.2408 76.4397 33.9102 76.7236 33.7027C77.1397 33.425 77.6362 33.2933 78.1352 33.3284L78.1352 33.3284C78.6537 33.2924 79.1684 33.4399 79.5892 33.7451C79.9346 34.0601 80.1403 34.4998 80.1609 34.9669L80.1609 35.0093L81.3256 34.9175L81.3256 34.8751C81.3164 34.3744 81.1699 33.8857 80.9021 33.4626C80.63 33.0445 80.2392 32.7173 79.7798 32.5233C79.2403 32.3025 78.6615 32.1943 78.0788 32.2055C77.5388 32.1977 77.0031 32.301 76.5048 32.5092C76.0596 32.6833 75.6797 32.9919 75.4178 33.392C75.1728 33.7653 75.0427 34.2025 75.0437 34.6491C75.0421 35.0373 75.1471 35.4184 75.3472 35.7509C75.5743 36.1055 75.8941 36.3913 76.2718 36.5772C76.7984 36.8262 77.3529 37.0111 77.9235 37.1281C78.4323 37.2434 78.9342 37.3872 79.4269 37.5589C79.7163 37.6532 79.9748 37.824 80.1751 38.0533C80.3271 38.2568 80.4066 38.5055 80.4009 38.7596C80.3951 39.014 80.3113 39.2605 80.1609 39.4658C79.9805 39.7041 79.7356 39.8855 79.4551 39.9884C79.0964 40.1221 78.7156 40.1868 78.3329 40.1791C77.8941 40.183 77.4592 40.0965 77.0553 39.9249C76.7205 39.7869 76.4317 39.5567 76.2224 39.261C76.0247 38.9403 75.9062 38.5772 75.8766 38.2016L75.8766 38.1592L74.7261 38.2581L74.7261 38.3005C74.738 38.8631 74.9014 39.4121 75.199 39.8896C75.4976 40.3576 75.9306 40.7244 76.4412 40.9419C77.0618 41.1933 77.727 41.3158 78.3964 41.3021L78.3964 41.3021C78.964 41.3082 79.5258 41.1875 80.041 40.949C80.5062 40.7446 80.9013 40.4082 81.1773 39.9814C81.4342 39.5835 81.5714 39.1202 81.5726 38.6466C81.5812 38.2009 81.4558 37.7629 81.2126 37.3894C80.9359 36.9895 80.5517 36.6761 80.1045 36.4854" fill="rgb(35,24,21)" fill-rule="evenodd" />
		<path id="路径" d="M83.2808 32.382L83.2808 33.4979L86.0758 33.4979L86.0617 41.1891L87.2757 41.1891L87.2899 33.4979L90.1061 33.505L90.1061 32.3891L83.3231 32.382L83.2808 32.382L83.2808 32.382Z" fill="rgb(35,24,21)" fill-rule="evenodd" />
		<path id="形状" d="M94.7434 32.4032L93.4659 32.4032L90.1626 41.1961L91.4472 41.1961L92.386 38.5618L95.8727 38.5618L96.8609 41.2032L98.2726 41.2032L94.7787 32.4244L94.7434 32.4032ZM92.7389 37.5377L95.4987 37.5377L94.6305 35.1788C94.3905 34.522 94.2141 33.9852 94.0799 33.5473C93.9758 34.0539 93.8343 34.552 93.6564 35.0375L92.7389 37.5377Z" fill="rgb(35,24,21)" fill-rule="evenodd" />
		<path id="路径" d="M101.047 32.4103L99.8325 32.4103L99.8184 41.1679L99.8184 41.2103L105.176 41.2173L105.225 41.2173L105.225 40.1015L101.039 40.0944L101.047 32.4103L101.047 32.4103Z" fill="rgb(35,24,21)" fill-rule="evenodd" />
		<path id="路径" d="M116.363 36.5631C115.749 36.3244 115.116 36.1378 114.471 36.0051C113.879 35.916 113.31 35.7095 112.798 35.3978C112.59 35.2081 112.474 34.9377 112.481 34.6562C112.478 34.3019 112.646 33.9682 112.932 33.7592C113.362 33.4753 113.874 33.3435 114.386 33.3849C114.904 33.3504 115.417 33.4951 115.84 33.7945C116.184 34.1136 116.389 34.5548 116.412 35.0234L116.412 35.0658L117.577 34.974L117.577 34.9387C117.565 34.4383 117.419 33.9503 117.153 33.5262C116.878 33.1081 116.485 32.7812 116.024 32.5868C115.488 32.3711 114.914 32.2654 114.337 32.2761C113.795 32.2653 113.257 32.3662 112.756 32.5727C112.312 32.7489 111.933 33.057 111.669 33.4555C111.429 33.8311 111.299 34.2668 111.295 34.7127C111.293 35.1008 111.398 35.4819 111.598 35.8144C111.829 36.1657 112.148 36.4506 112.523 36.6408C113.049 36.8919 113.603 37.0769 114.175 37.1917C114.685 37.3097 115.189 37.4535 115.685 37.6225C115.962 37.722 116.206 37.8954 116.391 38.1239C116.541 38.3279 116.619 38.5768 116.61 38.8302C116.607 39.0829 116.528 39.3289 116.384 39.5364C116.203 39.7738 115.958 39.955 115.678 40.0591C115.322 40.1928 114.943 40.2575 114.563 40.2498L114.563 40.2498C114.121 40.2578 113.683 40.1711 113.278 39.9955C112.94 39.8597 112.649 39.6292 112.438 39.3316C112.246 39.0089 112.13 38.6466 112.099 38.2722L112.099 38.2369L110.956 38.3358L110.956 38.3711C110.96 38.9349 111.124 39.4859 111.429 39.9602C111.724 40.4283 112.155 40.7954 112.664 41.0125C113.283 41.2683 113.95 41.3887 114.619 41.3657L114.619 41.3657C115.188 41.3744 115.752 41.2587 116.271 41.0266C116.735 40.8192 117.127 40.4804 117.4 40.052C117.661 39.6583 117.801 39.1967 117.803 38.7242C117.81 38.2765 117.685 37.8364 117.443 37.46C117.162 37.0618 116.779 36.747 116.334 36.549" fill="rgb(35,24,21)" fill-rule="evenodd" />
		<path id="形状" d="M123.739 32.4526L122.468 32.4526L119.158 41.2456L120.449 41.2456L121.388 38.6042L124.882 38.6042L125.856 41.2173L127.268 41.2173L123.76 32.5021L123.739 32.4526ZM121.741 37.5871L124.501 37.5871L123.633 35.2282C123.4 34.5926 123.216 34.0488 123.089 33.5968C122.978 34.1023 122.834 34.6001 122.659 35.087L121.741 37.5871Z" fill="rgb(35,24,21)" fill-rule="evenodd" />
		<path id="路径" d="M131.461 38.8584C131.298 39.2892 131.164 39.7201 131.044 40.1297C130.931 39.7342 130.797 39.3104 130.642 38.8584L128.411 32.5021L128.411 32.5021L127.099 32.5021L130.395 41.2738L130.395 41.2738L131.609 41.2738L134.997 32.5021L134.997 32.4456L133.776 32.4456L131.461 38.8584Z" fill="rgb(35,24,21)" fill-rule="evenodd" />
		<path id="矩形" d="M5.26115e-06 3.81948e-05L8.8 4.21213e-18L8.8 1.21402L0 1.21406L5.26115e-06 3.81948e-05Z" fill="rgb(35,24,21)" fill-rule="evenodd" transform="matrix(0.00157416,-0.999999,0.999999,0.0015674,136.927,41.2589)" />
		<path id="路径" d="M146.488 39.2186L142.105 32.4738L140.876 32.4738L140.862 41.2738L142.034 41.2738L142.048 34.5361L146.431 41.2809L147.652 41.2809L147.666 32.488L146.495 32.488L146.488 39.2186L146.488 39.2186Z" fill="rgb(35,24,21)" fill-rule="evenodd" />
		<path id="路径" d="M154.273 37.8767L156.771 37.8767L156.771 39.4446C156.461 39.693 156.113 39.8908 155.741 40.0308C155.294 40.2186 154.814 40.3146 154.329 40.3133C153.785 40.3153 153.247 40.187 152.762 39.939C152.27 39.6916 151.875 39.2863 151.64 38.7878C151.364 38.1839 151.233 37.5234 151.259 36.8597C151.253 36.2633 151.361 35.6713 151.577 35.1152C151.708 34.8069 151.886 34.5209 152.106 34.2677C152.355 33.9987 152.662 33.7888 153.002 33.6533C153.422 33.4855 153.871 33.4038 154.322 33.4132C154.717 33.4095 155.109 33.4864 155.473 33.6392C155.784 33.7668 156.057 33.9737 156.263 34.2395C156.479 34.5528 156.636 34.9019 156.729 35.2706L156.729 35.313L157.83 35.0022L157.83 34.9669C157.712 34.4581 157.493 33.978 157.188 33.5544C156.874 33.1642 156.463 32.8644 155.995 32.6857C155.458 32.4729 154.886 32.365 154.308 32.3679C153.519 32.3542 152.739 32.5413 152.042 32.9117C151.373 33.284 150.843 33.8641 150.532 34.5644C150.181 35.3109 150.003 36.1267 150.01 36.9515C149.995 37.7635 150.174 38.5674 150.532 39.2963C150.868 39.9867 151.414 40.5528 152.092 40.9136C152.798 41.2881 153.587 41.4799 154.386 41.4716L154.386 41.4716C155.009 41.4689 155.626 41.3516 156.207 41.1255C156.832 40.8793 157.414 40.5335 157.929 40.1014L157.929 40.1014L157.929 36.8103L154.238 36.8103L154.273 37.8767Z" fill="rgb(35,24,21)" fill-rule="evenodd" />
		<path id="路径" d="M165.368 36.6478C164.756 36.4037 164.123 36.2169 163.477 36.0899C162.883 35.9987 162.313 35.7872 161.804 35.4684C161.604 35.2875 161.489 35.0315 161.486 34.7621C161.492 34.4097 161.658 34.0792 161.938 33.8652C162.372 33.5807 162.889 33.449 163.406 33.4909C163.911 33.4637 164.409 33.6108 164.818 33.9076C165.164 34.2228 165.372 34.6618 165.397 35.1294L165.397 35.1718L166.568 35.0799L166.568 35.0446C166.555 34.5446 166.408 34.0571 166.145 33.6321C165.868 33.2172 165.475 32.893 165.015 32.6999C164.479 32.4788 163.902 32.3707 163.321 32.382C162.782 32.374 162.247 32.4749 161.747 32.6787C161.304 32.8552 160.924 33.1633 160.66 33.5615C160.417 33.9357 160.287 34.3723 160.286 34.8186C160.283 35.2092 160.389 35.5929 160.59 35.9275C160.818 36.2785 161.135 36.5634 161.507 36.7538C162.038 36.9984 162.595 37.1831 163.166 37.3047C163.675 37.4188 164.176 37.5602 164.67 37.7284C164.96 37.824 165.219 37.9974 165.418 38.2299C165.568 38.4338 165.645 38.6827 165.637 38.9361C165.635 39.1901 165.553 39.4371 165.404 39.6424C165.224 39.8812 164.979 40.0627 164.698 40.165C164.339 40.2987 163.958 40.3634 163.576 40.3557C163.134 40.3622 162.697 40.2756 162.291 40.1015C161.953 39.9681 161.663 39.737 161.458 39.4376C161.265 39.1179 161.149 38.7576 161.119 38.3852L161.119 38.3429L159.969 38.4417L159.969 38.4841C159.977 39.045 160.141 39.5926 160.442 40.0661C160.742 40.534 161.175 40.9025 161.684 41.1255C162.305 41.3754 162.97 41.4932 163.639 41.4716L163.639 41.4716C164.205 41.4795 164.767 41.3639 165.284 41.1326C165.746 40.9238 166.14 40.5883 166.42 40.165C166.676 39.7667 166.813 39.3037 166.815 38.8302C166.824 38.3823 166.699 37.942 166.455 37.566C166.172 37.1696 165.786 36.8573 165.34 36.662" fill="rgb(35,24,21)" fill-rule="evenodd" />
		<path id="形状" d="M179.351 35.8851C179.151 36.2107 178.866 36.4747 178.525 36.6478L178.561 36.6408C179.498 36.91 180.13 37.7847 180.092 38.7596C180.096 39.1599 180.009 39.5559 179.838 39.9178C179.693 40.2406 179.473 40.5239 179.196 40.7441C178.912 40.9509 178.591 41.0997 178.25 41.182C177.802 41.2896 177.342 41.3394 176.881 41.3303L173.584 41.3303L173.584 32.5374L176.796 32.5374C177.336 32.518 177.874 32.6094 178.377 32.8058C178.767 32.9823 179.094 33.2728 179.316 33.6392C179.536 33.9904 179.654 34.3967 179.655 34.8116C179.651 35.1901 179.546 35.5608 179.351 35.8851ZM177.657 36.097C177.907 36.0313 178.126 35.8817 178.278 35.6732L178.278 35.6449C178.421 35.4374 178.495 35.1904 178.49 34.9387C178.495 34.6756 178.427 34.4163 178.292 34.19C178.167 33.9841 177.972 33.8309 177.742 33.7592C177.323 33.6612 176.894 33.6208 176.464 33.6392L174.813 33.6392L174.813 36.1888L176.598 36.1888C176.954 36.2037 177.31 36.1728 177.657 36.097ZM174.798 37.2976L176.725 37.2976C177.14 37.2887 177.553 37.3386 177.954 37.4459C178.218 37.532 178.446 37.7034 178.603 37.9332C178.761 38.1793 178.842 38.467 178.836 38.7596C178.842 39.0057 178.783 39.2492 178.666 39.4658C178.577 39.657 178.435 39.8187 178.257 39.9319C178.064 40.0478 177.851 40.1269 177.629 40.165C177.395 40.1921 177.159 40.2039 176.923 40.2003L174.806 40.2003L174.798 37.2976Z" fill="rgb(35,24,21)" fill-rule="evenodd" />
		<path id="形状" d="M186 32.5515L184.722 32.5515L181.412 41.3515L182.704 41.3515L183.643 38.7101L187.136 38.7101L188.117 41.3515L189.529 41.3515L186.035 32.5798L186 32.5515ZM183.995 37.686L186.755 37.686L185.887 35.3271C185.654 34.6915 185.478 34.1477 185.337 33.6957C185.23 34.2016 185.089 34.6995 184.913 35.1859L183.995 37.686Z" fill="rgb(35,24,21)" fill-rule="evenodd" />
		<path id="路径" d="M196.728 39.2963L192.352 32.5586L191.124 32.5586L191.11 41.3586L192.282 41.3586L192.289 34.6209L196.672 41.3657L197.9 41.3657L197.914 32.5657L196.742 32.5657L196.728 39.2963L196.728 39.2963Z" fill="rgb(35,24,21)" fill-rule="evenodd" />
		<path id="路径" d="M207.521 32.5798L205.876 32.5798L201.712 36.8244L201.712 32.5727L200.505 32.5727L200.491 41.3727L201.705 41.3727L201.712 38.3217L203.053 36.9868L206.039 41.3586L206.053 41.3798L207.648 41.3798L203.907 36.1535L207.521 32.5798L207.521 32.5798Z" fill="rgb(35,24,21)" fill-rule="evenodd" />
		<path id="形状" d="M219.71 33.0318C219.062 32.6386 218.316 32.4355 217.558 32.4456C216.438 32.411 215.357 32.8615 214.593 33.6815C213.785 34.6336 213.373 35.8598 213.443 37.1069C213.44 37.8639 213.606 38.6119 213.93 39.2963C214.231 39.97 214.721 40.5416 215.341 40.9419C215.992 41.35 216.747 41.5609 217.515 41.5493C218.242 41.5518 218.958 41.3643 219.59 41.0054C220.242 40.6412 220.765 40.0835 221.087 39.4093C221.452 38.6647 221.635 37.8443 221.623 37.0151C221.636 36.2033 221.464 35.3993 221.122 34.6632C220.808 33.9884 220.302 33.421 219.668 33.0318L219.71 33.0318ZM214.621 37.1281C214.573 38.0182 214.863 38.8937 215.433 39.5788C215.961 40.1498 216.703 40.4744 217.48 40.4744C218.257 40.4744 218.999 40.1498 219.527 39.5788C220.108 38.8532 220.398 37.9362 220.339 37.008C220.356 36.3766 220.24 35.7487 220 35.1647C219.577 34.1583 218.585 33.5099 217.494 33.5262C216.739 33.518 216.012 33.8131 215.475 34.3454C214.835 35.1239 214.528 36.1241 214.621 37.1281Z" fill="rgb(35,24,21)" fill-rule="evenodd" />
		<path id="路径" d="M223.924 32.608L223.91 41.408L225.131 41.408L225.131 37.453L229.076 37.453L229.119 37.453L229.126 36.3441L225.131 36.3371L225.138 33.7239L229.697 33.731L229.747 33.731L229.747 32.6151L223.966 32.608L223.924 32.608L223.924 32.608Z" fill="rgb(35,24,21)" fill-rule="evenodd" />
		<path id="路径" d="M242.494 38.3358C242.396 38.9616 242.09 39.5362 241.626 39.9672C241.186 40.336 240.626 40.5319 240.052 40.5181C239.553 40.5128 239.065 40.3712 238.64 40.1085C238.183 39.8164 237.841 39.3745 237.673 38.8584C237.449 38.2412 237.343 37.5869 237.363 36.9303C237.364 36.3669 237.452 35.8071 237.624 35.2706C237.787 34.7598 238.108 34.3144 238.542 33.9994C239.014 33.6751 239.578 33.5117 240.151 33.5332C240.656 33.5075 241.155 33.6572 241.563 33.957C241.976 34.3137 242.27 34.7899 242.403 35.3201L242.403 35.3624L243.602 35.0729L243.602 35.0305C243.411 34.2821 242.98 33.6172 242.374 33.1377C241.75 32.6646 240.984 32.4158 240.2 32.4315C239.472 32.4241 238.754 32.6066 238.118 32.9611C237.483 33.3181 236.971 33.86 236.65 34.5149C236.295 35.2623 236.119 36.0819 236.135 36.9091C236.131 37.715 236.285 38.5139 236.587 39.261C236.834 39.9526 237.287 40.5516 237.885 40.9772C238.565 41.3945 239.354 41.5987 240.151 41.5634L240.151 41.5634C240.973 41.5843 241.777 41.317 242.424 40.8077C243.08 40.2412 243.531 39.4742 243.708 38.6254L243.708 38.583L242.501 38.2652L242.494 38.3358Z" fill="rgb(35,24,21)" fill-rule="evenodd" />
		<path id="路径" d="M251.423 36.2311L247.096 36.2241L247.103 32.6433L245.889 32.6433L245.875 41.401L245.875 41.4433L247.089 41.4433L247.096 37.34L251.423 37.347L251.416 41.4504L252.637 41.4504L252.651 32.6575L251.437 32.6504L251.423 36.2311L251.423 36.2311Z" fill="rgb(35,24,21)" fill-rule="evenodd" />
		<path id="路径" d="M255.446 41.4575L256.66 41.4575L256.667 32.7069L256.667 32.6575L255.46 32.6575L255.446 41.4575L255.446 41.4575Z" fill="rgb(35,24,21)" fill-rule="evenodd" />
		<path id="路径" d="M265.003 39.4093L260.613 32.6645L259.392 32.6645L259.371 41.4645L260.549 41.4645L260.556 34.7268L264.94 41.4716L266.161 41.4786L266.182 32.6716L265.01 32.6716L265.003 39.4093L265.003 39.4093Z" fill="rgb(35,24,21)" fill-rule="evenodd" />
		<path id="形状" d="M272.442 32.714L271.165 32.714L267.854 41.4998L269.146 41.4998L270.085 38.8655L273.614 38.8655L274.588 41.4786L276 41.4786L272.442 32.714ZM270.431 37.8273L273.191 37.8273L272.322 35.4754C272.082 34.8116 271.906 34.2819 271.779 33.844C271.67 34.3477 271.526 34.8432 271.348 35.3271L270.431 37.8273Z" fill="rgb(35,24,21)" fill-rule="evenodd" />
		<rect id="logoA" opacity="0" />
	</g>
</svg>
