<svg viewBox="0 0 22 22" xmlns="http://www.w3.org/2000/svg" xmlns:xlink="http://www.w3.org/1999/xlink" width="22" height="22" fill="none" customFrame="#000000">
	<mask id="mask_7" width="22" height="22" x="0" y="0" maskUnits="userSpaceOnUse" mask-type="outline">
		<g filter="url(#pixso_custom_mask_type_outline)">
			<use xlink:href="#use_7" />
		</g>
	</mask>
	<defs>
		<g id="use_7">
			<rect id="蒙版" width="22" height="22" x="0" y="0" rx="3" fill="rgb(255,255,255)" />
			<rect id="蒙版" width="21" height="21" x="0.5" y="0.5" rx="3" stroke="rgb(151,151,151)" stroke-opacity="0" stroke-width="1" />
		</g>
		<filter id="pixso_custom_mask_type_outline">
			<feColorMatrix type="matrix" values="0 0 0 0 1 0 0 0 0 1 0 0 0 0 1 0 0 0 255 0 " />
		</filter>
	</defs>
	<g id="logo标识A" mask="url(#mask_7)">
		<use xlink:href="#use_7" />
		<g id="编组">
			<path id="形状" d="M13.6003 3.7943L12.7794 6.34501L8.62276 6.35729L8.37473 7.43563L13.4754 7.43563L14.3143 4.74421L20.2216 4.74421L19.8468 6.39777L15.1174 6.41534L14.3678 9.17714L8.06775 9.17714L7.85563 10.1385L11.9673 10.1271L11.0304 14.6128L6.87328 14.5898L6.6935 15.4044L11.9406 15.4044L13.1006 10.1622L19.0794 10.1622L18.7225 11.7982L13.8859 11.7982L12.6366 17.1986L6.28128 17.1986L6.085 18.1661L13.3327 18.131L14.5641 12.8184L18.4905 12.8184L18.1692 14.5952L15.3494 14.6127L14.0644 19.9076L4.65894 19.9076L5.79413 14.5838L1.5 14.56L2.43698 10.1535L6.7413 10.1416L7.90718 4.67382L12.1191 4.69143L12.8151 2L20.8106 2L20.4001 3.7943L13.6003 3.7943ZM10.3985 12.7624L10.5643 11.8388L7.47949 11.8388L7.27322 12.7734L10.3985 12.7624ZM2.94568 12.7899L3.18661 11.84L6.37875 11.84L6.17864 12.7785L2.94568 12.7899Z" fill="rgb(13,139,63)" fill-rule="evenodd" />
		</g>
	</g>
</svg>
