<svg viewBox="0 0 44.2104 28" xmlns="http://www.w3.org/2000/svg" xmlns:xlink="http://www.w3.org/1999/xlink" width="44.2104492" height="28" fill="none" customFrame="#000000">
	<path id="VISA-A" d="M41.8526 1.50784e-11C41.9299 -2.76159e-07 42.0069 0.0037841 42.0838 0.0113531C42.1606 0.0189222 42.2369 0.0302394 42.3126 0.0453049C42.3884 0.0603703 42.4632 0.0791114 42.5371 0.101528C42.611 0.123945 42.6836 0.149929 42.755 0.179482C42.8263 0.209034 42.896 0.242011 42.9641 0.278415C43.0323 0.314818 43.0984 0.354471 43.1626 0.397374C43.2268 0.440277 43.2888 0.486224 43.3485 0.535215C43.4082 0.584205 43.4653 0.636003 43.5199 0.690609C43.5745 0.745214 43.6263 0.802364 43.6753 0.862059C43.7243 0.921754 43.7703 0.983707 43.8132 1.04792C43.8561 1.11213 43.8957 1.17828 43.9321 1.24639C43.9685 1.31449 44.0015 1.38422 44.0311 1.45557C44.0606 1.52691 44.0866 1.59953 44.109 1.67343C44.1314 1.74733 44.1502 1.82215 44.1652 1.89789C44.1803 1.97363 44.1916 2.04993 44.1992 2.12678C44.2068 2.20363 44.2105 2.28067 44.2105 2.35789L44.2105 25.6421C44.2105 25.7193 44.2068 25.7964 44.1992 25.8732C44.1916 25.9501 44.1803 26.0264 44.1652 26.1021C44.1502 26.1778 44.1314 26.2527 44.109 26.3266C44.0866 26.4005 44.0606 26.4731 44.031 26.5444C44.0015 26.6158 43.9685 26.6855 43.9321 26.7536C43.8957 26.8217 43.8561 26.8879 43.8132 26.9521C43.7703 27.0163 43.7243 27.0782 43.6753 27.1379C43.6263 27.1976 43.5745 27.2548 43.5199 27.3094C43.4653 27.364 43.4082 27.4158 43.3485 27.4648C43.2888 27.5138 43.2268 27.5597 43.1626 27.6026C43.0984 27.6455 43.0322 27.6852 42.9641 27.7216C42.896 27.758 42.8263 27.791 42.755 27.8205C42.6836 27.8501 42.611 27.8761 42.5371 27.8985C42.4632 27.9209 42.3884 27.9396 42.3126 27.9547C42.2369 27.9698 42.1606 27.9811 42.0838 27.9886C42.0069 27.9962 41.9299 28 41.8526 28L2.3579 28C2.28067 28 2.20363 27.9962 2.12678 27.9886C2.04993 27.9811 1.97363 27.9698 1.89789 27.9547C1.82215 27.9396 1.74733 27.9209 1.67343 27.8985C1.59954 27.876 1.52691 27.8501 1.45557 27.8205C1.38422 27.791 1.3145 27.758 1.24639 27.7216C1.17829 27.6852 1.11213 27.6455 1.04792 27.6026C0.983709 27.5597 0.921757 27.5138 0.862062 27.4648C0.802367 27.4158 0.745217 27.364 0.690612 27.3094C0.636006 27.2548 0.584208 27.1976 0.535218 27.1379C0.486227 27.0782 0.44028 27.0163 0.397377 26.9521C0.354474 26.8879 0.31482 26.8217 0.278417 26.7536C0.242014 26.6855 0.209036 26.6158 0.179484 26.5444C0.149932 26.4731 0.123947 26.4005 0.10153 26.3266C0.0791132 26.2527 0.0603719 26.1778 0.0453063 26.1021C0.0302406 26.0264 0.0189232 25.9501 0.0113539 25.8732C0.00378464 25.7964 0 25.7193 0 25.6421L0 2.35789C1.84116e-08 2.28067 0.00378467 2.20363 0.011354 2.12678C0.0189233 2.04993 0.0302407 1.97363 0.0453064 1.89789C0.0603721 1.82215 0.0791134 1.74733 0.10153 1.67343C0.123947 1.59954 0.149932 1.52691 0.179484 1.45557C0.209037 1.38422 0.242014 1.3145 0.278417 1.24639C0.314821 1.17829 0.354474 1.11213 0.397377 1.04792C0.44028 0.983709 0.486227 0.921757 0.535218 0.862062C0.584208 0.802367 0.636006 0.745217 0.690612 0.690611C0.745217 0.636006 0.802368 0.584208 0.862063 0.535217C0.921757 0.486227 0.98371 0.44028 1.04792 0.397377C1.11213 0.354474 1.17829 0.31482 1.24639 0.278417C1.3145 0.242014 1.38422 0.209036 1.45557 0.179484C1.52691 0.149932 1.59954 0.123947 1.67343 0.10153C1.74733 0.0791132 1.82215 0.0603719 1.89789 0.0453063C1.97363 0.0302406 2.04993 0.0189232 2.12678 0.0113539C2.20363 0.00378464 2.28067 1.50784e-11 2.3579 1.50784e-11L41.8526 1.50784e-11ZM28.0884 7.92695C24.979 7.92695 22.7905 9.492 22.7714 11.7349C22.7537 13.3928 24.3335 14.3183 25.5272 14.8695C26.7518 15.4354 27.163 15.7964 27.1571 16.3019C27.1497 17.0741 26.18 17.4278 25.2766 17.4278C24.0166 17.4278 23.3476 17.2524 22.3145 16.8236L21.9093 16.6394L21.4672 19.2227C22.204 19.544 23.5613 19.824 24.9716 19.8373C28.2785 19.8373 30.4242 18.2899 30.4493 15.8952C30.4611 14.5836 29.624 13.5829 27.8084 12.7606C26.7091 12.2257 26.0356 11.8705 26.043 11.3297C26.043 10.8493 26.6133 10.3364 27.8438 10.3364C28.6599 10.3181 29.4449 10.4655 30.1987 10.7785L30.4802 10.9112L30.9076 8.41032C29.9962 8.08095 29.0575 7.91982 28.0884 7.92695ZM21.5114 8.16274L18.3651 8.16274L16.3992 19.7017L19.5425 19.7017L21.5114 8.16274ZM39.0011 8.16274L36.5695 8.16274C35.8179 8.16274 35.2535 8.36905 34.9234 9.11916L30.2518 19.6943L33.5543 19.6943C33.5543 19.6943 34.0952 18.2722 34.2175 17.9598L34.8718 17.9598L38.2451 17.9657C38.3394 18.3695 38.6282 19.6943 38.6282 19.6943L41.5461 19.6943L39.0011 8.16274ZM7.77663 8.16274L2.70421 8.16274L2.66442 8.40295C3.90821 8.70358 5.0179 9.13979 5.99053 9.68063L8.78169 19.684L12.1093 19.6796L17.0608 8.16274L13.7303 8.16274L10.6503 16.0322L10.3217 14.4318C10.3062 14.3824 10.29 14.3333 10.2731 14.2844L9.20169 9.13684C9.01158 8.40589 8.45895 8.18779 7.77663 8.16274ZM36.8141 11.2869L37.0278 12.2817L37.7558 15.6122L35.1444 15.6122C35.4038 14.9491 36.3971 12.3878 36.3971 12.3878C36.3794 12.4173 36.655 11.7202 36.8141 11.2869Z" fill="rgb(14,69,149)" fill-rule="nonzero" />
</svg>
