<svg viewBox="0 0 28 27.9998" xmlns="http://www.w3.org/2000/svg" xmlns:xlink="http://www.w3.org/1999/xlink" width="28" height="27.9998093" fill="none" customFrame="#000000">
	<path id="交易成功对号A" d="M14 27.9998C13.6563 27.9998 13.313 27.9871 12.9701 27.9618C12.6273 27.9366 12.2859 27.8987 11.9458 27.8483C11.6058 27.7978 11.268 27.7349 10.9326 27.6596C10.5972 27.5843 10.265 27.4968 9.93605 27.397C9.60708 27.2972 9.28223 27.1854 8.9615 27.0617C8.64077 26.938 8.32502 26.8027 8.01426 26.6557C7.70349 26.5087 7.39856 26.3505 7.09945 26.1811C6.80034 26.0116 6.50787 25.8314 6.22204 25.6404C5.9362 25.4495 5.65778 25.2482 5.38677 25.0367C5.11577 24.8252 4.8529 24.604 4.59819 24.3732C4.34347 24.1423 4.09759 23.9024 3.86055 23.6535C3.62351 23.4045 3.39594 23.1471 3.17786 22.8814C2.95977 22.6157 2.75176 22.3423 2.55382 22.0612C2.35587 21.7802 2.16853 21.4922 1.9918 21.1973C1.81507 20.9025 1.64942 20.6015 1.49486 20.2945C1.3403 19.9874 1.19724 19.6751 1.06568 19.3575C0.934129 19.0399 0.814435 18.7179 0.706601 18.3915C0.598768 18.065 0.503086 17.7351 0.419558 17.4016C0.336029 17.0682 0.26488 16.7321 0.206109 16.3934C0.147338 16.0547 0.101105 15.7143 0.067411 15.3722C0.0337164 15.03 0.0126513 14.6872 0.00421565 14.3435C-0.00422002 13.9998 -3.41795e-06 13.6563 0.0168655 13.313C0.0337344 12.9696 0.0632098 12.6274 0.105292 12.2862C0.147374 11.945 0.201948 11.6058 0.269016 11.2687C0.336083 10.9315 0.415461 10.5973 0.507149 10.266C0.598838 9.93464 0.702589 9.60715 0.818403 9.28348C0.934216 8.95981 1.06178 8.64084 1.20109 8.32657C1.3404 8.01229 1.49108 7.70357 1.65313 7.4004C1.81519 7.09723 1.98817 6.80042 2.17209 6.50999C2.35601 6.21956 2.55036 5.93629 2.75514 5.66018C2.95992 5.38407 3.17459 5.11586 3.39913 4.85556C3.62367 4.59526 3.85748 4.34357 4.10057 4.10049C4.26258 3.93848 4.42847 3.78054 4.59823 3.62667C4.768 3.47281 4.94144 3.3232 5.11855 3.17785C5.29566 3.03249 5.47623 2.89157 5.66027 2.75509C5.8443 2.6186 6.03157 2.48671 6.22207 2.35942C6.41258 2.23213 6.60609 2.10959 6.80262 1.99179C6.99914 1.874 7.19843 1.7611 7.4005 1.6531C7.60256 1.54509 7.80716 1.44211 8.01428 1.34415C8.2214 1.24618 8.4308 1.15336 8.64248 1.06568C8.85416 0.978003 9.06786 0.895569 9.28359 0.818381C9.49932 0.741193 9.71681 0.669343 9.93606 0.602834C10.1553 0.536323 10.3761 0.475233 10.5983 0.419561C10.8206 0.36389 11.0441 0.313704 11.2688 0.269005C11.4935 0.224306 11.7192 0.185147 11.9458 0.151528C12.1725 0.117909 12.3998 0.0898711 12.6278 0.0674135C12.8558 0.0449558 13.0842 0.0281058 13.3131 0.0168634C13.5419 0.00562101 13.7709 -1.76519e-07 14 -1.76519e-07C14.2292 -1.76519e-07 14.4581 0.00562101 14.687 0.0168634C14.9158 0.0281058 15.1443 0.0449558 15.3723 0.0674135C15.6003 0.0898711 15.8276 0.117909 16.0543 0.151528C16.2809 0.185147 16.5066 0.224306 16.7313 0.269005C16.956 0.313704 17.1795 0.36389 17.4017 0.419561C17.624 0.475233 17.8448 0.536324 18.064 0.602834C18.2833 0.669344 18.5008 0.741193 18.7165 0.818381C18.9322 0.895569 19.1459 0.978003 19.3576 1.06568C19.5693 1.15336 19.7787 1.24618 19.9858 1.34415C20.1929 1.44211 20.3975 1.54509 20.5996 1.6531C20.8016 1.7611 21.0009 1.874 21.1975 1.99179C21.394 2.10959 21.5875 2.23213 21.778 2.35942C21.9685 2.48671 22.1558 2.6186 22.3398 2.75509C22.5238 2.89157 22.7044 3.03249 22.8815 3.17785C23.0586 3.3232 23.2321 3.47281 23.4018 3.62667C23.5716 3.78054 23.7375 3.93848 23.8995 4.10049C24.0615 4.26251 24.2195 4.4284 24.3733 4.59816C24.5272 4.76793 24.6768 4.94137 24.8222 5.11848C24.9675 5.29559 25.1084 5.47616 25.2449 5.66019C25.3814 5.84422 25.5133 6.03149 25.6406 6.222C25.7679 6.41251 25.8904 6.60602 26.0082 6.80254C26.126 6.99907 26.2389 7.19836 26.3469 7.40043C26.4549 7.60249 26.5579 7.80709 26.6559 8.01421C26.7538 8.22133 26.8466 8.43073 26.9343 8.64241C27.022 8.85409 27.1044 9.06779 27.1816 9.28352C27.2588 9.49924 27.3307 9.71673 27.3972 9.93599C27.4637 10.1552 27.5248 10.376 27.5804 10.5982C27.6361 10.8205 27.6863 11.044 27.731 11.2687C27.7757 11.4934 27.8149 11.7191 27.8485 11.9457C27.8821 12.1724 27.9101 12.3997 27.9326 12.6277C27.955 12.8557 27.9719 13.0842 27.9831 13.313C27.9944 13.5419 28 13.7708 28 14C28 14.2291 27.9944 14.4581 27.9831 14.6869C27.9719 14.9158 27.955 15.1442 27.9326 15.3722C27.9101 15.6002 27.8821 15.8275 27.8485 16.0542C27.8149 16.2808 27.7757 16.5065 27.731 16.7312C27.6863 16.9559 27.6361 17.1794 27.5804 17.4017C27.5248 17.6239 27.4637 17.8447 27.3972 18.0639C27.3307 18.2832 27.2588 18.5007 27.1816 18.7164C27.1044 18.9321 27.022 19.1458 26.9343 19.3575C26.8466 19.5692 26.7538 19.7786 26.6559 19.9857C26.5579 20.1928 26.4549 20.3974 26.3469 20.5995C26.2389 20.8016 26.126 21.0009 26.0082 21.1974C25.8904 21.3939 25.7679 21.5874 25.6406 21.7779C25.5133 21.9684 25.3814 22.1557 25.2449 22.3397C25.1084 22.5238 24.9675 22.7043 24.8222 22.8814C24.6768 23.0586 24.5272 23.232 24.3733 23.4018C24.2195 23.5715 24.0615 23.7374 23.8995 23.8994C23.251 24.5515 22.5448 25.1335 21.7809 25.6454C21.0169 26.1574 20.2101 26.5893 19.3605 26.9412C18.5109 27.2931 17.635 27.5582 16.7328 27.7363C15.8306 27.9145 14.9197 28.0023 14 27.9998ZM8.25527 12.8197C8.09046 12.8197 7.92919 12.8436 7.77146 12.8913C7.61373 12.9391 7.4663 13.0087 7.32919 13.1001C7.19207 13.1916 7.07115 13.3009 6.96642 13.4282C6.86169 13.5554 6.77766 13.6951 6.71431 13.8473C6.65096 13.9994 6.61103 14.1575 6.5945 14.3215C6.57797 14.4855 6.58556 14.6483 6.61727 14.81C6.64898 14.9718 6.70345 15.1254 6.78067 15.271C6.8579 15.4166 6.95456 15.5479 7.07067 15.6649L11.374 20.0021C11.4383 20.0669 11.5084 20.1248 11.5842 20.1757C11.66 20.2267 11.74 20.2697 11.8243 20.3048C11.9086 20.3399 11.9956 20.3664 12.0851 20.3843C12.1747 20.4022 12.2651 20.4111 12.3564 20.4111C12.4477 20.4111 12.5382 20.4022 12.6277 20.3843C12.7172 20.3664 12.8042 20.3399 12.8885 20.3048C12.9728 20.2697 13.0528 20.2267 13.1286 20.1757C13.2044 20.1248 13.2745 20.0669 13.3388 20.0021L21.0134 12.2861C21.0753 12.2236 21.1308 12.1559 21.1798 12.0829C21.2288 12.0099 21.2705 11.9329 21.3049 11.8519C21.3392 11.771 21.3656 11.6875 21.3841 11.6015C21.4025 11.5156 21.4127 11.4286 21.4146 11.3407C21.4165 11.2528 21.4101 11.1655 21.3953 11.0788C21.3806 10.9921 21.3578 10.9076 21.327 10.8252C21.2961 10.7428 21.2578 10.6641 21.212 10.5891C21.1661 10.514 21.1136 10.444 21.0544 10.3789C20.9953 10.3139 20.9305 10.255 20.8601 10.2023C20.7897 10.1496 20.715 10.104 20.6359 10.0655C20.5568 10.0271 20.4748 9.99641 20.3899 9.97356C20.305 9.95071 20.2187 9.93608 20.1309 9.92968C20.0432 9.92327 19.9557 9.92519 19.8684 9.93546C19.781 9.94572 19.6955 9.96414 19.6116 9.99071C19.5278 10.0173 19.4472 10.0515 19.3699 10.0934C19.2926 10.1353 19.22 10.1842 19.152 10.2399L13.2559 15.0898C13.1933 15.1413 13.1266 15.187 13.056 15.2269C12.9854 15.2667 12.9118 15.3001 12.8353 15.327C12.7587 15.3539 12.6805 15.3739 12.6004 15.3871C12.5204 15.4002 12.4398 15.4063 12.3587 15.4052C12.2776 15.4042 12.1972 15.3961 12.1176 15.381C12.0379 15.3658 11.9601 15.3438 11.8843 15.315C11.8085 15.2861 11.7358 15.2509 11.6662 15.2093C11.5966 15.1677 11.5311 15.1203 11.4698 15.0672L9.34564 13.2273C9.19433 13.096 9.02485 12.9953 8.83721 12.9251C8.64957 12.855 8.45559 12.8198 8.25527 12.8197L8.25527 12.8197Z" fill="rgb(40,199,148)" fill-rule="nonzero" />
</svg>
