<svg viewBox="0 0 44 44" xmlns="http://www.w3.org/2000/svg" xmlns:xlink="http://www.w3.org/1999/xlink" width="44" height="44" fill="none" clip-path="url(#clipPath_38)" customFrame="url(#clipPath_38)">
	<defs>
		<clipPath id="clipPath_38">
			<rect width="44" height="44" x="0" y="0" rx="8" fill="rgb(255,255,255)" />
		</clipPath>
		<linearGradient id="paint_linear_88" x1="9.86205864" x2="34.1379471" y1="22.0000057" y2="22.0000172" gradientUnits="userSpaceOnUse">
			<stop stop-color="rgb(102,158,255)" offset="0" stop-opacity="1" />
			<stop stop-color="rgb(25,110,255)" offset="1" stop-opacity="1" />
		</linearGradient>
	</defs>
	<rect id="信用卡申请" width="44" height="44" x="0" y="0" rx="8" fill="rgb(235,242,255)" />
	<path id="形状结合" d="M32.5516 12.1379C32.8125 12.1379 33.023 12.3484 33.023 12.6092L33.026 12.6092L33.026 16.3258L9.86209 16.3258L9.86209 12.6092C9.86209 12.3484 10.0726 12.1379 10.3336 12.1379L32.5516 12.1379ZM33.026 20.976C31.8844 20.1817 30.5026 19.7104 29.0111 19.7104C25.1357 19.7104 21.9837 22.861 21.9837 26.7347C21.9837 28.267 22.4848 29.6837 23.321 30.8395L10.3395 30.8395C10.0756 30.8395 9.86206 30.6261 9.86206 30.3624L9.86206 18.4212L33.026 18.4212L33.026 20.976ZM33.023 29.8911C33.711 29.0198 34.138 27.9321 34.138 26.7347C34.138 25.1609 33.4145 23.7709 32.2966 22.8314C32.2521 22.7928 32.2047 22.7543 32.1572 22.7158C31.9852 22.5794 31.8073 22.455 31.6176 22.3423C31.4723 22.2534 31.321 22.1704 31.1669 22.0993C31.066 22.0519 30.9652 22.0074 30.8614 21.9659C30.6183 21.8711 30.3692 21.7911 30.1083 21.7318C30.049 21.7199 29.9867 21.711 29.9244 21.6992C29.625 21.6429 29.3195 21.6073 29.0052 21.6073C26.1735 21.6073 23.8755 23.9013 23.8755 26.7347C23.8755 27.0489 23.914 27.3541 23.9674 27.6535C23.9793 27.7187 23.9882 27.7809 24.003 27.8461C24.0623 28.1129 24.1424 28.3737 24.2432 28.6226C24.2788 28.7145 24.3232 28.8005 24.3647 28.8894C24.4448 29.0613 24.5367 29.2273 24.6346 29.3873C24.7324 29.5503 24.8421 29.7015 24.9578 29.8526C25.0319 29.9475 25.106 30.0393 25.1861 30.1283C26.1261 31.1834 27.4782 31.8621 29.0023 31.8621C30.645 31.8591 32.0861 31.0796 33.023 29.8911ZM27.9526 24.4911L26.1439 26.3909C26.0638 26.4768 26.0638 26.6072 26.1439 26.6962L27.9526 28.596C27.9971 28.6434 28.0534 28.6641 28.1098 28.6641C28.2224 28.6641 28.3292 28.5782 28.3292 28.4448L28.3292 27.197L28.3499 27.197C30.1468 27.197 31.6324 28.0002 31.9081 29.0465L31.9408 29.0465C31.7629 27.2178 30.2239 25.7892 28.3499 25.7892L28.3292 25.7892L28.3292 24.6422C28.3292 24.5089 28.2224 24.4229 28.1098 24.4229C28.0534 24.4229 27.9971 24.4437 27.9526 24.4911Z" fill="url(#paint_linear_88)" fill-rule="evenodd" />
</svg>
