<svg viewBox="0 0 44 44" xmlns="http://www.w3.org/2000/svg" xmlns:xlink="http://www.w3.org/1999/xlink" width="44" height="44" fill="none" customFrame="url(#clipPath_37)">
	<defs>
		<clipPath id="clipPath_37">
			<rect width="44" height="44" x="0" y="0" rx="8" fill="rgb(255,255,255)" />
		</clipPath>
		<linearGradient id="paint_linear_87" x1="9.86206245" x2="34.1379166" y1="22.1452446" y2="22.1452141" gradientUnits="userSpaceOnUse">
			<stop stop-color="rgb(255,79,18)" offset="0" stop-opacity="1" />
			<stop stop-color="rgb(255,117,69)" offset="0.995273232" stop-opacity="1" />
		</linearGradient>
	</defs>
	<rect id="信用卡申请" width="44" height="44" x="0" y="0" rx="8" fill="rgb(255,240,235)" />
	<path id="形状结合" d="M34.1379 15.2896C34.1379 13.3041 32.528 11.6834 30.5555 11.6834L13.4444 11.6834C11.472 11.6834 9.86206 13.3041 9.86206 15.2896L9.86206 16.9442L34.1379 16.9442L34.1379 15.2896ZM24.1747 27.8374C24.1747 24.681 26.7287 22.11 29.8644 22.11C31.567 22.11 33.0927 22.8652 34.1379 24.0616L34.1379 18.4712L9.86206 18.4712L9.86206 28.7029C9.86206 30.6884 11.472 32.3091 13.4444 32.3091L26.3073 32.3091C25.0092 31.2569 24.1747 29.6448 24.1747 27.8374ZM25.4559 27.9466C25.4559 25.5368 27.403 23.5767 29.7969 23.5767C32.1907 23.5767 34.1379 25.5198 34.1379 27.9381C34.1379 30.3563 32.1992 32.3164 29.7969 32.3164C27.3946 32.3164 25.4559 30.3563 25.4559 27.9466ZM20.272 27.8973L20.8536 25.6996C20.9969 25.1651 20.6766 24.7323 20.1456 24.7323L14.9785 24.7323C14.4475 24.7323 13.908 25.1651 13.7647 25.6996L13.1831 27.8973C13.0482 28.4318 13.3601 28.8646 13.8911 28.8646L19.0582 28.8646C19.5892 28.8646 20.1287 28.4318 20.272 27.8973ZM32.688 27.1582L29.5861 30.2722C29.4513 30.408 29.2827 30.4674 29.1057 30.4674C28.9287 30.4674 28.7601 30.3995 28.6252 30.2722L26.7708 28.4055C26.5095 28.1425 26.5095 27.7097 26.7708 27.4467C27.0321 27.1837 27.462 27.1837 27.7233 27.4467L29.1057 28.8382L31.7271 26.1994C31.9884 25.9363 32.4183 25.9363 32.6796 26.1994C32.9493 26.4624 32.9493 26.8952 32.688 27.1582Z" fill="url(#paint_linear_87)" fill-rule="evenodd" />
</svg>
