<svg viewBox="0 0 44 44" xmlns="http://www.w3.org/2000/svg" xmlns:xlink="http://www.w3.org/1999/xlink" width="44" height="44" fill="none" clip-path="url(#clipPath_39)" customFrame="url(#clipPath_39)">
	<defs>
		<clipPath id="clipPath_39">
			<rect width="44" height="44" x="0" y="0" rx="8" fill="rgb(255,255,255)" />
		</clipPath>
		<linearGradient id="paint_linear_89" x1="34.8969536" x2="9.10351181" y1="22.1476097" y2="22.1475868" gradientUnits="userSpaceOnUse">
			<stop stop-color="rgb(41,204,152)" offset="0" stop-opacity="1" />
			<stop stop-color="rgb(0,224,152)" offset="1" stop-opacity="1" />
		</linearGradient>
	</defs>
	<rect id="信用卡申请" width="44" height="44" x="0" y="0" rx="8" fill="rgb(235,255,249)" />
	<path id="形状" d="M11.9471 31.1614C11.5657 31.1641 11.1878 31.0881 10.8379 30.9382C10.5018 30.7991 10.1961 30.5974 9.9375 30.344C9.68092 30.1022 9.47374 29.814 9.32722 29.4951C9.17916 29.1645 9.10362 28.8068 9.10555 28.4454L9.10555 14.2668C9.0773 13.5391 9.3446 12.8304 9.8481 12.298C10.406 11.7605 11.1679 11.4803 11.9462 11.5265L31.468 11.5265C32.2621 11.4883 33.0435 11.7338 33.6692 12.2179C34.248 12.7577 34.5496 13.5262 34.4902 14.31L34.4902 22.5489C33.3267 21.5524 31.8566 20.9726 30.3176 20.9033C30.3234 20.7015 30.2554 20.5043 30.1261 20.3479C29.9551 20.1837 29.7195 20.102 29.482 20.1246L22.5792 20.1246C22.3383 20.1056 22.1003 20.1865 21.9224 20.3479C21.7872 20.5016 21.7155 20.6998 21.7217 20.9033C21.7188 21.0984 21.7867 21.2881 21.9133 21.438C22.0832 21.6004 22.3162 21.6819 22.5518 21.6613L26.8393 21.6613C24.576 22.8207 23.1574 25.1295 23.1621 27.646C23.1609 28.8864 23.5062 30.103 24.1601 31.1623L11.9471 31.1614ZM14.6269 16.5822C14.3763 16.6874 14.1465 16.8356 13.9482 17.0197C13.7512 17.2097 13.5959 17.4377 13.492 17.6894C13.379 17.9532 13.321 18.2367 13.3215 18.5231C13.3207 18.8036 13.3788 19.0813 13.492 19.3387C13.6001 19.5882 13.7548 19.8154 13.9482 20.0084C14.1438 20.2014 14.3739 20.3571 14.6269 20.4676C14.8841 20.5768 15.1614 20.6326 15.4415 20.6314C15.7383 20.6346 16.0327 20.5789 16.3072 20.4676C16.5612 20.3614 16.7906 20.2052 16.9813 20.0084C17.1736 19.8146 17.3282 19.5876 17.4374 19.3387C17.5549 19.0826 17.6131 18.8041 17.608 18.5231C17.6275 17.9596 17.4061 17.414 16.9977 17.0197C16.5853 16.62 16.0246 16.4052 15.447 16.4255C15.1652 16.4239 14.8859 16.4772 14.625 16.5822L14.6269 16.5822ZM24.0974 18.0775C24.0897 17.8809 24.1787 17.6928 24.3364 17.5724L24.3373 17.576C24.4992 17.4488 24.7015 17.3821 24.9084 17.3879L29.4859 17.3879C29.6962 17.384 29.9018 17.4489 30.0707 17.5724C30.2332 17.6901 30.3272 17.8786 30.3225 18.0775C30.3208 18.2822 30.2289 18.4761 30.0707 18.6086C29.9134 18.7564 29.7031 18.8367 29.4859 18.8319L24.9084 18.8319C24.6949 18.8375 24.4883 18.7569 24.3364 18.6086C24.183 18.4737 24.096 18.2802 24.0974 18.0775ZM11.9431 24.1262C11.9317 23.5709 12.152 23.0355 12.5524 22.6453L12.5526 22.6451C12.9382 22.2479 13.4738 22.0269 14.0312 22.0349L16.8509 22.0349C17.1329 22.0343 17.4122 22.09 17.6719 22.1988C17.9253 22.3044 18.1557 22.4573 18.3506 22.6489C18.5458 22.8383 18.7008 23.0641 18.8067 23.3133C18.9206 23.571 18.9787 23.8494 18.9773 24.1307L18.9773 26.2129L11.9431 26.2129L11.9431 24.1262ZM26.2677 30.7572C24.6259 28.8409 24.7448 26.003 26.5413 24.227C28.3415 22.4559 31.2155 22.3386 33.1578 23.9569C35.1011 25.5742 35.4662 28.3906 33.9979 30.4385L34.6365 31.0687C34.9159 31.393 34.8956 31.8748 34.59 32.1751C34.2872 32.4804 33.7962 32.5013 33.4679 32.2228L32.8293 31.5926C32.0026 32.1702 31.0144 32.4798 30.0014 32.4785C28.5605 32.4763 27.194 31.8464 26.2677 30.7572ZM27.7776 25.4567L27.7785 25.4558C28.3824 24.8612 29.2014 24.5284 30.0545 24.5312C30.9035 24.5302 31.7179 24.8629 32.3177 25.4558C32.9191 26.0484 33.257 26.8528 33.257 27.6915C33.257 28.5302 32.9191 29.3345 32.3177 29.9272C31.716 30.5216 30.8995 30.8555 30.0481 30.8555C29.1967 30.8555 28.3802 30.5216 27.7785 29.9272C26.531 28.6914 26.5307 26.6929 27.7776 25.4567Z" fill="url(#paint_linear_89)" fill-rule="evenodd" />
</svg>
