<svg viewBox="0 0 44 44" xmlns="http://www.w3.org/2000/svg" xmlns:xlink="http://www.w3.org/1999/xlink" width="44" height="44" fill="none" clip-path="url(#clipPath_40)" customFrame="url(#clipPath_40)">
	<defs>
		<clipPath id="clipPath_40">
			<rect width="44" height="44" x="0" y="0" rx="8" fill="rgb(255,255,255)" />
		</clipPath>
		<linearGradient id="paint_linear_90" x1="10.9999981" x2="32.9999962" y1="21.9999771" y2="21.9999886" gradientUnits="userSpaceOnUse">
			<stop stop-color="rgb(179,157,250)" offset="0" stop-opacity="1" />
			<stop stop-color="rgb(126,96,224)" offset="1" stop-opacity="1" />
		</linearGradient>
	</defs>
	<rect id="信用卡申请" width="44" height="44" x="0" y="0" rx="8" fill="rgb(240,235,255)" />
	<path id="形状结合" d="M14.0723 11.0004L29.8728 11.0004C30.6821 10.9872 31.4629 11.2983 32.0404 11.8641C32.6179 12.4298 32.9438 13.2029 32.9451 14.0103L32.9451 16.5277L11 16.5277L11 14.0103C11.0211 12.3354 12.3931 10.9912 14.0723 11.0004ZM26.8326 23.4039C24.5543 24.1031 22.9893 26.1898 22.9601 28.5674C22.9608 30.0042 23.533 31.3819 24.5511 32.3982L14.0723 32.3982C13.263 32.4114 12.4822 32.1003 11.9048 31.5346C11.3273 30.9688 11.0014 30.1957 11 29.3883L11 18.06L32.9452 18.06L32.9452 25.5028C31.5811 23.5528 29.1108 22.7046 26.8326 23.4039ZM19.0649 25.1197L19.0649 25.8311L17.1447 25.8311L17.1447 26.8162L19.1197 26.8162L19.1197 27.5276L17.1447 27.5276L17.1447 29.2789L15.828 29.2789L15.828 27.5276L13.9078 27.5276L13.9078 26.8162L15.828 26.8162L15.828 25.8311L13.9078 25.8311L13.9078 25.1197L15.4439 25.1197L13.1945 21.1247L14.7307 21.1247L16.5412 24.6271L18.3516 21.1247L19.8878 21.1247L17.6384 25.1197L19.0649 25.1197ZM28.4464 24.0252C25.9692 24.0554 23.9826 26.0776 24.0026 28.5488C24.0227 31.02 26.0419 33.0098 28.5193 32.9999C30.9967 32.99 32.9998 30.984 33 28.5128C32.9819 26.0205 30.9449 24.0131 28.4464 24.0252ZM28.1721 30.3023L31.0249 27.473L31.003 27.473C31.1347 27.4182 31.1347 27.3088 31.1895 27.1282C31.1815 27.001 31.1221 26.8825 31.0249 26.7998C30.9288 26.7311 30.814 26.6929 30.6958 26.6904C30.5792 26.7017 30.4667 26.7391 30.3666 26.7998L27.8429 29.2625L26.5262 27.9491C26.43 27.8803 26.3153 27.8422 26.197 27.8396C26.0804 27.851 25.9679 27.8884 25.8678 27.9491C25.7989 28.045 25.7607 28.1595 25.7581 28.2774C25.7428 28.3978 25.7832 28.5186 25.8678 28.6058L27.5686 30.3023C27.6436 30.371 27.7411 30.4099 27.8429 30.4118C27.9595 30.4004 28.072 30.363 28.1721 30.3023Z" fill="url(#paint_linear_90)" fill-rule="evenodd" />
</svg>
