<svg viewBox="0 0 44 44" xmlns="http://www.w3.org/2000/svg" xmlns:xlink="http://www.w3.org/1999/xlink" width="44" height="44" fill="none" clip-path="url(#clipPath_44)" customFrame="url(#clipPath_44)">
	<defs>
		<clipPath id="clipPath_44">
			<rect width="44" height="44" x="0" y="0" rx="8" fill="rgb(255,255,255)" />
		</clipPath>
		<linearGradient id="paint_linear_91" x1="11.5766582" x2="32.4235039" y1="22.0000381" y2="22.0000496" gradientUnits="userSpaceOnUse">
			<stop stop-color="rgb(254,183,0)" offset="0" stop-opacity="1" />
			<stop stop-color="rgb(254,197,51)" offset="1" stop-opacity="1" />
		</linearGradient>
	</defs>
	<rect id="信用卡申请" width="44" height="44" x="0" y="0" rx="8" fill="rgb(254,248,234)" />
	<path id="矢量 8" d="M27.6536 16.7201C28.4881 16.2211 29.0499 15.2952 29.0499 14.2343C29.0499 12.6443 27.7927 11.3543 26.2409 11.3543C25.5455 11.3543 24.9114 11.6148 24.4205 12.043C23.9323 11.1934 23.0323 10.6207 22.0014 10.6207C20.9692 10.6207 20.0706 11.1934 19.5824 12.043C19.0915 11.6148 18.4574 11.3543 17.762 11.3543C16.2102 11.3543 14.953 12.643 14.953 14.2343C14.953 15.2965 15.5148 16.2211 16.3493 16.7201C13.4789 18.3333 11.5767 21.1355 11.5767 24.3264C11.5767 29.3267 16.2443 33.3793 22.0001 33.3793C27.7559 33.3793 32.4235 29.3253 32.4235 24.3264C32.4249 21.1355 30.524 18.3319 27.6536 16.7201L27.6536 16.7201ZM25.015 24.1368C25.5196 24.1368 25.9286 24.5554 25.9286 25.0736C25.9286 25.5904 25.5196 26.0104 25.015 26.0104L22.8428 26.0104L22.8428 28.2372C22.8428 28.754 22.4337 29.174 21.9292 29.174C21.4246 29.174 21.0156 28.7554 21.0156 28.2372L21.0156 26.0104L18.8461 26.0104C18.3415 26.0104 17.9324 25.5918 17.9324 25.0736C17.9324 24.5568 18.3415 24.1368 18.8461 24.1368L21.0183 24.1368L21.0183 23.4223L18.8461 23.4223C18.3415 23.4223 17.9324 23.0037 17.9324 22.4855C17.9324 21.9687 18.3415 21.5487 18.8461 21.5487L19.8415 21.5487C19.2292 20.8723 18.692 20.2819 18.5652 20.151C18.498 20.0891 18.4409 20.019 18.394 19.9407C18.347 19.8624 18.312 19.7791 18.289 19.6907C18.2661 19.6023 18.256 19.5125 18.2589 19.4212C18.2618 19.3299 18.2775 19.2409 18.3061 19.1542C18.4656 18.6633 18.9824 18.3987 19.461 18.5624C19.7065 18.6456 19.7065 18.6456 21.2351 20.3364C21.4833 20.6105 21.7315 20.8846 21.9469 21.1232L24.1355 18.801C24.1766 18.757 24.2217 18.7175 24.2708 18.6825C24.3198 18.6476 24.3719 18.6179 24.4269 18.5934C24.482 18.5689 24.5389 18.5501 24.5977 18.5371C24.6565 18.524 24.716 18.5169 24.7763 18.5159C24.8365 18.5148 24.8962 18.5197 24.9555 18.5306C25.0147 18.5416 25.0723 18.5583 25.1281 18.5808C25.184 18.6033 25.2371 18.6311 25.2874 18.6643C25.3377 18.6975 25.3842 18.7353 25.4268 18.7778C25.7896 19.1365 25.7991 19.7296 25.4487 20.1019L24.0837 21.55L25.0164 21.55C25.5209 21.55 25.93 21.9687 25.93 22.4868C25.93 23.0037 25.5209 23.4236 25.0164 23.4236L22.8442 23.4236L22.8442 24.1382L25.015 24.1382L25.015 24.1368Z" fill="url(#paint_linear_91)" fill-rule="nonzero" />
</svg>
