<svg viewBox="0 0 20 20" xmlns="http://www.w3.org/2000/svg" xmlns:xlink="http://www.w3.org/1999/xlink" width="20" height="20" fill="none" customFrame="#000000">
	<rect id="全部功能菜单图标 " width="20" height="20" x="0" y="0" fill="rgb(255,255,255)" fill-opacity="0" />
	<path id="合并" d="M9.99992 19.1667C4.94542 19.1667 0.833252 15.0546 0.833252 10C0.833252 4.94554 4.94542 0.833374 9.99992 0.833374C15.0545 0.833374 19.1666 4.94554 19.1666 10C19.1666 15.0546 15.0545 19.1667 9.99992 19.1667ZM9.99992 2.55212C5.89314 2.55212 2.552 5.89326 2.552 10C2.552 14.1069 5.89314 17.448 9.99992 17.448C14.1068 17.448 17.4478 14.1069 17.4478 10C17.4478 5.89326 14.1068 2.55212 9.99992 2.55212ZM5.62467 10.0001L9.99992 14.3753L14.3752 10.0001L9.99992 5.62482L5.62467 10.0001ZM9.99992 12.1067L7.8933 10.0001L9.99992 7.89346L12.1065 10.0001L9.99992 12.1067Z" fill="rgb(80,81,82)" fill-rule="evenodd" />
	<path id="合并" d="M0.833252 10C0.833252 4.94554 4.94542 0.833374 9.99992 0.833374C15.0545 0.833374 19.1666 4.94554 19.1666 10C19.1666 15.0546 15.0545 19.1667 9.99992 19.1667C4.94542 19.1667 0.833252 15.0546 0.833252 10ZM2.552 10C2.552 14.1069 5.89314 17.448 9.99992 17.448C14.1068 17.448 17.4478 14.1069 17.4478 10C17.4478 5.89326 14.1068 2.55212 9.99992 2.55212C5.89314 2.55212 2.552 5.89326 2.552 10ZM9.99992 14.3753L14.3752 10.0001L9.99992 5.62482L5.62467 10.0001L9.99992 14.3753ZM7.8933 10.0001L9.99992 7.89346L12.1065 10.0001L9.99992 12.1067L7.8933 10.0001Z" fill-rule="evenodd" stroke="rgb(255,255,255)" stroke-width="0.400000006" />
</svg>
