<svg viewBox="0 0 20 20" xmlns="http://www.w3.org/2000/svg" xmlns:xlink="http://www.w3.org/1999/xlink" width="20" height="20" fill="none" customFrame="#000000">
	<rect id="全部功能菜单图标 " width="20" height="20" x="0" y="0" fill="rgb(255,255,255)" fill-opacity="0" />
	<path id="合并" d="M16.8612 2.91666L3.13871 2.91666C1.86907 2.91666 0.833252 4.04079 0.833252 5.42162L0.833252 14.5784C0.833252 15.9592 1.8691 17.0833 3.13871 17.0833L16.8612 17.0833C18.1308 17.0833 19.1666 15.9592 19.1666 14.5784L19.1666 5.42162C19.1666 4.04079 18.1308 2.91666 16.8612 2.91666ZM18.3003 6.67845L1.62616 6.67845L1.62616 5.31093C1.62616 4.47009 2.24943 3.78847 3.01952 3.78847L16.9024 3.78847C17.6724 3.78847 18.2958 4.47009 18.2958 5.31093L18.3003 6.67845ZM16.9071 16.2159C17.6771 16.2159 18.3004 15.5343 18.3004 14.6934L18.305 7.58574L1.6308 7.58574L1.6308 14.6934C1.6308 15.5343 2.2541 16.2159 3.0241 16.2159L16.9071 16.2159ZM6.71484 10.6826L7.58013 10.4438C7.34914 9.55273 6.67351 9.09914 5.55286 9.08314C4.31674 9.11519 3.67396 9.57662 3.62451 10.4677C3.57506 11.1839 4.21784 11.6695 5.55286 11.9239C6.47568 12.0992 6.90408 12.3697 6.83842 12.7356C6.83842 13.229 6.45909 13.4756 5.70118 13.4756C4.84401 13.5077 4.37428 13.1574 4.292 12.4252L3.45143 12.664C3.68205 13.7304 4.44035 14.2395 5.72591 14.1918C7.01151 14.1597 7.679 13.6826 7.72845 12.7595C7.76127 11.9478 7.07716 11.4148 5.67647 11.16C4.83592 11.0168 4.44847 10.7862 4.51451 10.4677C4.53074 10.0224 4.88537 9.79928 5.5776 9.79928C6.18716 9.78364 6.56652 10.0779 6.71484 10.6826ZM8.59377 9.17861L9.45905 9.17861L9.45905 13.4279L12.0302 13.4279L12.0302 14.1202L8.59377 14.1202L8.59377 9.17861ZM16.4396 11.2016L14.9866 11.2016C14.7529 11.2016 14.565 11.4051 14.565 11.6529C14.565 11.9052 14.7529 12.1088 14.9866 12.1088L16.4396 12.1088C16.6733 12.1088 16.8612 11.9052 16.8612 11.6529C16.8612 11.4051 16.6687 11.2016 16.4396 11.2016ZM14.9866 12.8347L16.4396 12.8347C16.6687 12.8347 16.8612 13.0382 16.8612 13.2861C16.8612 13.5339 16.6733 13.7374 16.4396 13.7374L14.9866 13.7374C14.7529 13.7374 14.565 13.5383 14.565 13.2861C14.565 13.0383 14.7529 12.8347 14.9866 12.8347Z" fill="rgb(80,81,82)" fill-rule="evenodd" />
	<path id="合并" d="M3.13871 2.91666C1.86907 2.91666 0.833252 4.04079 0.833252 5.42162L0.833252 14.5784C0.833252 15.9592 1.8691 17.0833 3.13871 17.0833L16.8612 17.0833C18.1308 17.0833 19.1666 15.9592 19.1666 14.5784L19.1666 5.42162C19.1666 4.04079 18.1308 2.91666 16.8612 2.91666L3.13871 2.91666ZM1.62616 6.67845L1.62616 5.31093C1.62616 4.47009 2.24943 3.78847 3.01952 3.78847L16.9024 3.78847C17.6724 3.78847 18.2958 4.47009 18.2958 5.31093L18.3003 6.67845L1.62616 6.67845ZM18.3004 14.6934L18.305 7.58574L1.6308 7.58574L1.6308 14.6934C1.6308 15.5343 2.2541 16.2159 3.0241 16.2159L16.9071 16.2159C17.6771 16.2159 18.3004 15.5343 18.3004 14.6934ZM7.58013 10.4438C7.34914 9.55273 6.67351 9.09914 5.55286 9.08314C4.31674 9.11519 3.67396 9.57662 3.62451 10.4677C3.57506 11.1839 4.21784 11.6695 5.55286 11.9239C6.47568 12.0992 6.90408 12.3697 6.83842 12.7356C6.83842 13.229 6.45909 13.4756 5.70118 13.4756C4.84401 13.5077 4.37428 13.1574 4.292 12.4252L3.45143 12.664C3.68205 13.7304 4.44035 14.2395 5.72591 14.1918C7.01151 14.1597 7.679 13.6826 7.72845 12.7595C7.76127 11.9478 7.07716 11.4148 5.67647 11.16C4.83592 11.0168 4.44847 10.7862 4.51451 10.4677C4.53074 10.0224 4.88537 9.79928 5.5776 9.79928C6.18716 9.78364 6.56652 10.0779 6.71484 10.6826L7.58013 10.4438ZM9.45905 9.17861L9.45905 13.4279L12.0302 13.4279L12.0302 14.1202L8.59377 14.1202L8.59377 9.17861L9.45905 9.17861ZM14.9866 11.2016C14.7529 11.2016 14.565 11.4051 14.565 11.6529C14.565 11.9052 14.7529 12.1088 14.9866 12.1088L16.4396 12.1088C16.6733 12.1088 16.8612 11.9052 16.8612 11.6529C16.8612 11.4051 16.6687 11.2016 16.4396 11.2016L14.9866 11.2016ZM16.4396 12.8347C16.6687 12.8347 16.8612 13.0382 16.8612 13.2861C16.8612 13.5339 16.6733 13.7374 16.4396 13.7374L14.9866 13.7374C14.7529 13.7374 14.565 13.5383 14.565 13.2861C14.565 13.0383 14.7529 12.8347 14.9866 12.8347L16.4396 12.8347Z" fill-rule="evenodd" stroke="rgb(80,81,82)" stroke-width="0.300000012" />
</svg>
