<svg viewBox="0 0 20 20" xmlns="http://www.w3.org/2000/svg" xmlns:xlink="http://www.w3.org/1999/xlink" width="20" height="20" fill="none" customFrame="#000000">
	<rect id="全部功能菜单图标 " width="20" height="20" x="0" y="0" fill="rgb(255,255,255)" fill-opacity="0" />
	<path id="合并" d="M17.2023 2.91663L2.79754 2.91663C1.68444 2.91663 0.833252 3.75375 0.833252 4.84844L0.833252 15.1515C0.833252 16.2462 1.68444 17.0833 2.79754 17.0833L17.2023 17.0833C18.3154 17.0833 19.1666 16.2462 19.1666 15.1515L19.1666 4.84844C19.1666 3.75375 18.3154 2.91663 17.2023 2.91663ZM2.14278 6.78026L17.8571 6.78026L17.8571 4.84844C17.8571 4.46208 17.5952 4.2045 17.2023 4.2045L2.79754 4.2045C2.40468 4.2045 2.14278 4.46208 2.14278 4.84844L2.14278 6.78026ZM17.8571 15.1515C17.8571 15.5378 17.5952 15.7954 17.2023 15.7954L2.79754 15.7954C2.40468 15.7954 2.14278 15.5378 2.14278 15.1515L2.14278 8.06814L17.8571 8.06814L17.8571 15.1515ZM6.72611 13.2196L4.10706 13.2196C3.7142 13.2196 3.4523 12.962 3.4523 12.5756C3.4523 12.1893 3.7142 11.9317 4.10706 11.9317L6.72611 11.9317C7.11897 11.9317 7.38087 12.1893 7.38087 12.5756C7.38087 12.962 7.11897 13.2196 6.72611 13.2196Z" fill="rgb(80,81,82)" fill-rule="evenodd" />
</svg>
