<svg viewBox="0 0 20 20" xmlns="http://www.w3.org/2000/svg" xmlns:xlink="http://www.w3.org/1999/xlink" width="20" height="20" fill="none" customFrame="#000000">
	<rect id="全部功能菜单图标 " width="20" height="20" x="0" y="0" fill="rgb(255,255,255)" fill-opacity="0" />
	<path id="合并" d="M7.26334 8.72766L15.0711 8.72766C16.1779 8.72766 17.0834 9.52286 17.0834 10.4948L17.0834 16.1495C17.0834 17.1214 16.1779 17.9166 15.0711 17.9166L4.92906 17.9166C3.82229 17.9166 2.91675 17.1214 2.91675 16.1495L2.91675 10.4948C2.91675 9.52286 3.82229 8.72766 4.92906 8.72766L5.81448 8.72766L5.81448 5.75749C5.81448 3.72814 7.68894 2.08331 10.0001 2.08331C12.3112 2.08331 14.1857 3.72814 14.1857 5.75749L14.1857 6.81918C14.1857 7.17052 13.8613 7.45534 13.4613 7.45534C13.0612 7.45534 12.7368 7.17052 12.7368 6.81918L12.7368 5.75891C12.7368 4.43162 11.5115 3.35563 10.0001 3.35563C8.48862 3.35563 7.26334 4.43162 7.26334 5.75891L7.26334 8.72766ZM15.6346 15.7608C15.6329 16.2481 15.1834 16.6429 14.6284 16.6443L5.37177 16.6443C4.81677 16.6429 4.36727 16.2481 4.36561 15.7608L4.36561 10.8835C4.36727 10.3962 4.81677 10.0014 5.37177 9.99998L14.6284 9.99998C15.1834 10.0014 15.6329 10.3962 15.6346 10.8835L15.6346 15.7608ZM7.98765 11.9076C8.26033 11.9076 8.45603 11.9752 8.57475 12.1104C8.66631 12.2147 8.71208 12.3591 8.71208 12.5438L8.71208 14.0988C8.71208 14.2835 8.66631 14.4279 8.57475 14.5322C8.45603 14.6674 8.26033 14.735 7.98765 14.735C7.71497 14.735 7.51927 14.6674 7.40055 14.5322C7.309 14.4279 7.26322 14.2835 7.26322 14.0988L7.26322 12.5438C7.26322 12.3591 7.309 12.2147 7.40055 12.1104C7.51927 11.9752 7.71497 11.9076 7.98765 11.9076ZM12.5994 12.1104C12.4807 11.9752 12.285 11.9076 12.0123 11.9076C11.7396 11.9076 11.5439 11.9752 11.4252 12.1104C11.3337 12.2147 11.2879 12.3591 11.2879 12.5438L11.2879 14.0988C11.2879 14.2835 11.3337 14.4279 11.4252 14.5322C11.5439 14.6674 11.7396 14.735 12.0123 14.735C12.285 14.735 12.4807 14.6674 12.5994 14.5322C12.691 14.4279 12.7367 14.2835 12.7367 14.0988L12.7367 12.5438C12.7367 12.3591 12.691 12.2147 12.5994 12.1104Z" fill="rgb(80,81,82)" fill-rule="evenodd" />
</svg>
