<svg viewBox="0 0 20 20" xmlns="http://www.w3.org/2000/svg" xmlns:xlink="http://www.w3.org/1999/xlink" width="20" height="20" fill="none" customFrame="#000000">
	<rect id="全部功能菜单图标 " width="20" height="20" x="0" y="0" fill="rgb(255,255,255)" fill-opacity="0" />
	<path id="合并" d="M17.2023 2.91669L2.79754 2.91669C1.68444 2.91669 0.833252 3.75381 0.833252 4.84851L0.833252 15.1515C0.833252 16.2462 1.68444 17.0834 2.79754 17.0834L17.2023 17.0834C18.3154 17.0834 19.1666 16.2462 19.1666 15.1515L19.1666 4.84851C19.1666 3.75381 18.3154 2.91669 17.2023 2.91669ZM2.14278 6.78032L17.8571 6.78032L17.8571 4.84851C17.8571 4.46214 17.5952 4.20457 17.2023 4.20457L2.79754 4.20457C2.40468 4.20457 2.14278 4.46214 2.14278 4.84851L2.14278 6.78032ZM17.8571 15.1515C17.8571 15.5379 17.5952 15.7955 17.2023 15.7955L2.79754 15.7955C2.40468 15.7955 2.14278 15.5379 2.14278 15.1515L2.14278 8.0682L17.8571 8.0682L17.8571 15.1515ZM6.72611 13.2196L4.10706 13.2196C3.7142 13.2196 3.4523 12.9621 3.4523 12.5757C3.4523 12.1893 3.7142 11.9318 4.10706 11.9318L6.72611 11.9318C7.11897 11.9318 7.38087 12.1893 7.38087 12.5757C7.38087 12.9621 7.11897 13.2196 6.72611 13.2196Z" fill="rgb(0,174,120)" fill-rule="evenodd" />
</svg>
