<svg viewBox="0 0 20 20" xmlns="http://www.w3.org/2000/svg" xmlns:xlink="http://www.w3.org/1999/xlink" width="20" height="20" fill="none" customFrame="#000000">
	<rect id="全部功能菜单图标 " width="20" height="20" x="0" y="0" />
	<path id="合并" d="M3.75 17.5L8.7775 17.5C9.13524 17.9738 9.55817 18.3946 10.0338 18.75L3.75 18.75C2.36929 18.75 1.25 17.6307 1.25 16.25L1.25 3.75C1.25 2.36929 2.36929 1.25 3.75 1.25L15 1.25C16.3807 1.25 17.5 2.36929 17.5 3.75L17.5 8.77875C17.1112 8.485 16.7 8.225 16.25 8.0275L16.25 3.75C16.25 3.05964 15.6904 2.5 15 2.5L3.75 2.5C3.05964 2.5 2.5 3.05964 2.5 3.75L2.5 16.25C2.5 16.9404 3.05964 17.5 3.75 17.5ZM13.75 6.25C13.75 5.90482 13.4702 5.625 13.125 5.625L5.625 5.625C5.27982 5.625 5 5.90482 5 6.25C5 6.59518 5.27982 6.875 5.625 6.875L13.125 6.875C13.4702 6.875 13.75 6.59518 13.75 6.25ZM8.75 8.75C9.09518 8.75 9.375 9.02982 9.375 9.375C9.375 9.72018 9.09518 10 8.75 10L5.625 10C5.27982 10 5 9.72018 5 9.375C5 9.02982 5.27982 8.75 5.625 8.75L8.75 8.75ZM8.75 13.75C8.75 10.9886 10.9886 8.75 13.75 8.75C16.5114 8.75 18.75 10.9886 18.75 13.75C18.75 16.5114 16.5114 18.75 13.75 18.75C10.9886 18.75 8.75 16.5114 8.75 13.75ZM10.0019 13.7494C10.0019 15.8194 11.68 17.4975 13.75 17.4975C15.82 17.4975 17.4981 15.8194 17.4981 13.7494C17.4981 11.6793 15.82 10.0013 13.75 10.0013C11.68 10.0013 10.0019 11.6793 10.0019 13.7494ZM13.75 11.25L14.5737 12.8212L16.25 13.16L15.0825 14.4688L15.295 16.25L13.75 15.4888L12.205 16.25L12.4175 14.4688L11.25 13.16L12.9263 12.8212L13.75 11.25ZM5.625 11.875C5.27982 11.875 5 12.1548 5 12.5C5 12.8452 5.27982 13.125 5.625 13.125L6.875 13.125C7.22018 13.125 7.5 12.8452 7.5 12.5C7.5 12.1548 7.22018 11.875 6.875 11.875L5.625 11.875Z" fill="rgb(80,81,82)" fill-rule="evenodd" />
</svg>
