<svg viewBox="0 0 20 20" xmlns="http://www.w3.org/2000/svg" xmlns:xlink="http://www.w3.org/1999/xlink" width="20" height="20" fill="none" customFrame="#000000">
	<rect id="全部功能菜单图标 " width="20" height="20" x="0" y="0" fill="rgb(255,255,255)" fill-opacity="0" />
	<path id="合并" d="M1.25 10C1.25 5.1675 5.16752 1.25 9.99999 1.25C14.8325 1.25 18.75 5.1675 18.75 10C18.75 14.8325 14.8325 18.75 9.99999 18.75C5.1675 18.75 1.25 14.8325 1.25 10ZM2.50002 10C2.50002 14.1421 5.85787 17.5 9.99999 17.5C14.1421 17.5 17.5 14.1421 17.5 10C17.5 5.85787 14.1421 2.5 9.99999 2.5C5.85787 2.5 2.50002 5.85787 2.50002 10ZM13.4024 10.9674C14.3924 11.5833 15.198 12.4558 15.732 13.4905C15.8898 13.7962 15.7699 14.1719 15.4642 14.3297C15.3761 14.3753 15.2783 14.3992 15.1791 14.3992C14.9535 14.3992 14.7357 14.2762 14.6251 14.0619C13.7282 12.324 11.9571 11.2444 10.0032 11.2444C8.05572 11.2444 6.28738 12.3187 5.38832 14.0483C5.22963 14.3535 4.85357 14.4723 4.5484 14.3136C4.24318 14.1549 4.12437 13.7789 4.28304 13.4737C4.81861 12.4434 5.62394 11.575 6.61195 10.9624C6.95397 10.7504 7.3152 10.571 7.69087 10.4267C6.82234 9.73999 6.26492 8.67702 6.26492 7.48378C6.26492 5.4128 7.94376 3.73395 10.0147 3.73395C12.0857 3.73395 13.7645 5.4128 13.7645 7.48378C13.7645 8.68048 13.2039 9.74622 12.3311 10.4328C12.7041 10.5771 13.0628 10.7561 13.4024 10.9674ZM10.0147 4.99366C11.39 4.99366 12.5048 6.10852 12.5048 7.48378C12.5048 8.85903 11.39 9.97389 10.0147 9.97389C8.63948 9.97389 7.52462 8.85903 7.52462 7.48378C7.52462 6.10852 8.63948 4.99366 10.0147 4.99366Z" fill="rgb(80,81,82)" fill-rule="evenodd" />
</svg>
