<svg viewBox="0 0 20 20" xmlns="http://www.w3.org/2000/svg" xmlns:xlink="http://www.w3.org/1999/xlink" width="20" height="20" fill="none" customFrame="#000000">
	<rect id="全部功能菜单图标 " width="20" height="20" x="0" y="0" fill="rgb(255,255,255)" fill-opacity="0" />
	<path id="合并" d="M4.84359 2.91666L17.4478 2.91666C18.3956 2.91666 19.1666 3.67973 19.1666 4.61715L19.1666 13.6829C19.1666 14.6203 18.3956 15.3834 17.4479 15.3834L16.302 15.3834C16.302 16.3202 15.5311 17.0833 14.5834 17.0833L2.55195 17.0833C1.60417 17.0833 0.833252 16.3203 0.833252 15.3834L0.833252 7.45037C0.833252 6.51295 1.60417 5.74987 2.55195 5.74987L3.1249 5.74987L3.1249 4.61715C3.1249 3.67973 3.89582 2.91666 4.84359 2.91666ZM18.0208 13.6829C18.0208 13.9961 17.7634 14.2495 17.4479 14.2495L16.302 14.2495L16.302 7.45037C16.302 6.51295 15.5311 5.74987 14.5834 5.74987L4.27069 5.74987L4.27069 4.61715C4.27069 4.30393 4.52746 4.04992 4.84357 4.04992L17.4478 4.04992C17.7634 4.04992 18.0208 4.30393 18.0208 4.61715L18.0208 13.6829ZM1.97906 9.14975L15.1562 9.14975L15.1562 7.45037C15.1562 7.13715 14.8988 6.88372 14.5833 6.88372L2.55193 6.88372C2.23586 6.88372 1.97906 7.13715 1.97906 7.45037L1.97906 9.14975ZM15.1562 15.3834C15.1562 15.6955 14.8989 15.9495 14.5834 15.9495L2.55193 15.9495C2.23584 15.9495 1.97906 15.6955 1.97906 15.3834L1.97906 10.2836L15.1562 10.2836L15.1562 15.3834ZM5.41654 13.1158L3.12496 13.1158L3.12496 14.2491L5.41654 14.2491L5.41654 13.1158Z" fill="rgb(80,81,82)" fill-rule="evenodd" />
</svg>
