<svg viewBox="0 0 58 58" xmlns="http://www.w3.org/2000/svg" xmlns:xlink="http://www.w3.org/1999/xlink" width="58" height="58" fill="none" clip-path="url(#clipPath_55)" customFrame="url(#clipPath_55)">
	<defs>
		<clipPath id="clipPath_55">
			<rect width="58" height="58" x="0" y="0" rx="8" fill="rgb(255,255,255)" />
		</clipPath>
		<linearGradient id="paint_linear_139" x1="12.9999971" x2="45.0000343" y1="28.9999962" y2="29.0000076" gradientUnits="userSpaceOnUse">
			<stop stop-color="rgb(102,158,255)" offset="0" stop-opacity="1" />
			<stop stop-color="rgb(25,110,255)" offset="1" stop-opacity="1" />
		</linearGradient>
	</defs>
	<rect id="功能名称=信用卡开通" width="58" height="58" x="0" y="0" rx="8" fill="rgb(235,242,255)" />
	<path id="形状结合" d="M42.9089 16C43.2529 16 43.5304 16.2774 43.5304 16.6212L43.5343 16.6212L43.5343 21.5204L13 21.5204L13 16.6212C13 16.2774 13.2776 16 13.6215 16L42.9089 16ZM43.5343 27.6502C42.0294 26.6031 40.208 25.9819 38.242 25.9819C33.1334 25.9819 28.9785 30.1349 28.9785 35.2411C28.9785 37.261 29.6391 39.1284 30.7413 40.6521L13.6293 40.6521C13.2814 40.6521 13 40.3708 13 40.0231L13 24.2825L43.5343 24.2825L43.5343 27.6502ZM43.5304 39.402C44.4372 38.2533 45 36.8195 45 35.2412C45 33.1666 44.0463 31.3343 42.5728 30.0959C42.5141 30.0451 42.4516 29.9943 42.3891 29.9435C42.1624 29.7638 41.9279 29.5997 41.6777 29.4512C41.4862 29.334 41.2868 29.2246 41.0836 29.1309C40.9507 29.0684 40.8178 29.0098 40.681 28.9551C40.3605 28.8301 40.0322 28.7246 39.6882 28.6464C39.61 28.6308 39.528 28.6191 39.4459 28.6035C39.0511 28.5292 38.6485 28.4823 38.2342 28.4823C34.5014 28.4823 31.4723 31.5062 31.4723 35.2412C31.4723 35.6553 31.5231 36.0577 31.5934 36.4523C31.6091 36.5382 31.6208 36.6203 31.6403 36.7062C31.7185 37.0578 31.824 37.4017 31.9569 37.7298C32.0038 37.8509 32.0625 37.9642 32.1172 38.0814C32.2227 38.308 32.3439 38.5268 32.4729 38.7378C32.6018 38.9527 32.7465 39.1519 32.8989 39.3512C32.9966 39.4762 33.0943 39.5973 33.1999 39.7145C34.4389 41.1053 36.2212 42 38.2303 42C40.3957 41.9961 42.2953 40.9686 43.5304 39.402ZM36.8466 32.2837L34.4624 34.788C34.3568 34.9013 34.3568 35.0732 34.4624 35.1904L36.8466 37.6947C36.9053 37.7572 36.9795 37.7845 37.0538 37.7845C37.2023 37.7845 37.343 37.6712 37.343 37.4954L37.343 35.8506L37.3704 35.8506C39.739 35.8506 41.6972 36.9094 42.0607 38.2885L42.1037 38.2885C41.8692 35.878 39.8406 33.9949 37.3704 33.9949L37.343 33.9949L37.343 32.4829C37.343 32.3071 37.2023 32.1938 37.0538 32.1938C36.9795 32.1938 36.9053 32.2212 36.8466 32.2837Z" fill="url(#paint_linear_139)" fill-rule="evenodd" />
</svg>
