<svg viewBox="0 0 58 58" xmlns="http://www.w3.org/2000/svg" xmlns:xlink="http://www.w3.org/1999/xlink" width="58" height="58" fill="none" clip-path="url(#clipPath_61)" customFrame="url(#clipPath_61)">
	<defs>
		<clipPath id="clipPath_61">
			<rect width="58" height="58" x="0" y="0" rx="8" fill="rgb(255,255,255)" />
		</clipPath>
		<linearGradient id="paint_linear_145" x1="15.2600079" x2="42.7399368" y1="29" y2="29.0000153" gradientUnits="userSpaceOnUse">
			<stop stop-color="rgb(254,183,0)" offset="0" stop-opacity="1" />
			<stop stop-color="rgb(254,197,51)" offset="1" stop-opacity="1" />
		</linearGradient>
	</defs>
	<rect id="功能名称=显示余额" width="58" height="58" x="0" y="0" rx="8" fill="rgb(254,248,234)" />
	<path id="矢量 8" d="M36.4523 22.0401C37.5524 21.3823 38.293 20.1618 38.293 18.7633C38.293 16.6675 36.6357 14.967 34.5902 14.967C33.6734 14.967 32.8376 15.3104 32.1905 15.8748C31.547 14.7549 30.3607 14 29.0018 14C27.6411 14 26.4565 14.7549 25.813 15.8748C25.1659 15.3104 24.3301 14.967 23.4134 14.967C21.3679 14.967 19.7106 16.6657 19.7106 18.7633C19.7106 20.1636 20.4511 21.3823 21.5512 22.0401C17.7675 24.1666 15.26 27.8604 15.26 32.0665C15.26 38.6579 21.4128 44 29 44C36.5872 44 42.7399 38.6561 42.7399 32.0665C42.7417 27.8604 40.236 24.1648 36.4523 22.0401L36.4523 22.0401ZM32.9742 31.8167C33.6393 31.8167 34.1785 32.3685 34.1785 33.0515C34.1785 33.7328 33.6393 34.2864 32.9742 34.2864L30.1108 34.2864L30.1108 37.2217C30.1108 37.9029 29.5716 38.4566 28.9065 38.4566C28.2414 38.4566 27.7022 37.9047 27.7022 37.2217L27.7022 34.2864L24.8424 34.2864C24.1773 34.2864 23.6381 33.7346 23.6381 33.0515C23.6381 32.3703 24.1773 31.8167 24.8424 31.8167L27.7058 31.8167L27.7058 30.8748L24.8424 30.8748C24.1773 30.8748 23.6381 30.3229 23.6381 29.6399C23.6381 28.9587 24.1773 28.405 24.8424 28.405L26.1546 28.405C25.3475 27.5135 24.6393 26.7352 24.4721 26.5626C24.3836 26.4811 24.3084 26.3887 24.2464 26.2854C24.1845 26.1822 24.1384 26.0723 24.1081 25.9559C24.0779 25.8394 24.0646 25.7209 24.0685 25.6006C24.0723 25.4803 24.093 25.363 24.1306 25.2487C24.3409 24.6016 25.0221 24.2528 25.6531 24.4685C25.9766 24.5782 25.9766 24.5782 27.9916 26.8071C28.3187 27.1684 28.6459 27.5297 28.9299 27.8442L31.8148 24.7831C31.869 24.7251 31.9285 24.673 31.9932 24.6269C32.0578 24.5809 32.1264 24.5417 32.199 24.5094C32.2715 24.4771 32.3466 24.4524 32.4241 24.4352C32.5016 24.418 32.5801 24.4086 32.6595 24.4072C32.7389 24.4058 32.8176 24.4123 32.8957 24.4267C32.9738 24.4411 33.0497 24.4631 33.1233 24.4928C33.197 24.5225 33.267 24.5592 33.3333 24.6029C33.3995 24.6466 33.4608 24.6965 33.5171 24.7525C33.9952 25.2253 34.0078 26.0072 33.5458 26.4979L31.7465 28.4068L32.976 28.4068C33.6411 28.4068 34.1803 28.9587 34.1803 29.6417C34.1803 30.3229 33.6411 30.8766 32.976 30.8766L30.1126 30.8766L30.1126 31.8185L32.9742 31.8185L32.9742 31.8167Z" fill="url(#paint_linear_145)" fill-rule="nonzero" />
</svg>
