<svg viewBox="0 0 58 58" xmlns="http://www.w3.org/2000/svg" xmlns:xlink="http://www.w3.org/1999/xlink" width="58" height="58" fill="none" clip-path="url(#clipPath_56)" customFrame="url(#clipPath_56)">
	<defs>
		<clipPath id="clipPath_56">
			<rect width="58" height="58" x="0" y="0" rx="8" fill="rgb(255,255,255)" />
		</clipPath>
		<linearGradient id="paint_linear_140" x1="14.5001202" x2="43.4998703" y1="28.9998093" y2="28.9998245" gradientUnits="userSpaceOnUse">
			<stop stop-color="rgb(0,230,230)" offset="0" stop-opacity="1" />
			<stop stop-color="rgb(41,204,204)" offset="1" stop-opacity="1" />
		</linearGradient>
	</defs>
	<rect id="功能名称=自动还款查询" width="58" height="58" x="0" y="0" rx="8" fill="rgb(235,255,255)" />
	<path id="形状结合" d="M40.6444 20.9725L38.6603 15.6764C38.549 15.1819 38.1628 14.7958 37.6683 14.6844C37.2489 14.4385 36.7294 14.4385 36.31 14.6844L22.1315 20.9725L40.6444 20.9725ZM43.4984 28.9697L35.9437 28.9697C34.8237 29.0111 33.9422 29.9401 33.9596 31.0607L33.9596 34.3421C33.9422 35.4627 34.8237 36.3917 35.9437 36.4331L43.4984 36.4331L43.4984 41.3629C43.519 41.9094 43.3215 42.4418 42.9493 42.8426C42.5772 43.2434 42.0609 43.4798 41.5143 43.4996L16.4845 43.4996C15.3645 43.4582 14.483 42.5293 14.5004 41.4087L14.5004 23.9178C14.483 22.7972 15.3645 21.8682 16.4845 21.8269L41.5143 21.8269C42.6343 21.8682 43.5158 22.7972 43.4984 23.9178L43.4984 28.9697ZM35.9132 33.8363C35.5592 33.5461 35.3433 33.1207 35.3179 32.6636C35.3095 32.1686 35.5034 31.6916 35.8549 31.343C36.2064 30.9943 36.685 30.8043 37.1799 30.8169C37.6424 30.8043 38.09 30.9814 38.4186 31.3072C38.7472 31.6329 38.9283 32.0789 38.9198 32.5415C38.8564 33.4597 38.1002 34.1762 37.1799 34.1899C36.7268 34.2547 36.2673 34.1265 35.9132 33.8363Z" fill="url(#paint_linear_140)" fill-rule="evenodd" />
</svg>
