<svg viewBox="0 0 24 24" xmlns="http://www.w3.org/2000/svg" xmlns:xlink="http://www.w3.org/1999/xlink" width="24" height="24" fill="none" customFrame="#000000">
	<rect id="功能查找A" width="24" height="24" x="0" y="0" fill="rgb(255,255,255)" fill-opacity="0" />
	<path id="形状" d="M11.183 2C14.7114 2.00001 17.9278 4.02195 19.4575 7.20171C20.9872 10.3815 20.5595 14.1565 18.3574 16.9135L21.6885 20.2458C21.9537 20.502 22.0601 20.8813 21.9667 21.238C21.8734 21.5948 21.5948 21.8734 21.2381 21.9667C20.8814 22.0601 20.502 21.9537 20.2459 21.6885L16.9137 18.3573C13.7653 20.8723 9.34504 21.0406 6.01443 18.7723C2.68383 16.5041 1.2212 12.3293 2.40792 8.47829C3.59464 4.62728 7.15339 1.99999 11.183 2ZM4.99771 7.61147C6.27356 5.40166 8.6314 4.04043 11.183 4.04058C15.1271 4.04081 18.3243 7.23833 18.3243 11.1826C18.3243 15.1269 15.1271 18.3244 11.183 18.3246C8.6314 18.3248 6.27356 16.9635 4.99771 14.7537C3.72187 12.5439 3.72187 9.82127 4.99771 7.61147Z" fill="rgb(155,160,169)" fill-rule="evenodd" />
</svg>
