<svg viewBox="0 0 58 58" xmlns="http://www.w3.org/2000/svg" xmlns:xlink="http://www.w3.org/1999/xlink" width="58" height="58" fill="none" customFrame="url(#clipPath_52)">
	<defs>
		<clipPath id="clipPath_52">
			<rect width="58" height="58" x="0" y="0" rx="8" fill="rgb(255,255,255)" />
		</clipPath>
		<linearGradient id="paint_linear_136" x1="13.0000019" x2="44.9999924" y1="29.1914406" y2="29.1913986" gradientUnits="userSpaceOnUse">
			<stop stop-color="rgb(255,79,18)" offset="0" stop-opacity="1" />
			<stop stop-color="rgb(255,117,69)" offset="0.995273232" stop-opacity="1" />
		</linearGradient>
	</defs>
	<rect id="功能名称=信用卡申请" width="58" height="58" x="0" y="0" rx="8" fill="rgb(255,240,235)" />
	<path id="形状结合" d="M45 20.1545C45 17.5372 42.8778 15.4009 40.2778 15.4009L17.7222 15.4009C15.1222 15.4009 13 17.5372 13 20.1545L13 22.3355L45 22.3355L45 20.1545ZM31.8667 36.6948C31.8667 32.534 35.2333 29.145 39.3667 29.145C41.6111 29.145 43.6222 30.1404 45 31.7175L45 24.3483L13 24.3483L13 37.8356C13 40.4529 15.1222 42.5892 17.7222 42.5892L34.6778 42.5892C32.9667 41.2023 31.8667 39.0772 31.8667 36.6948ZM33.5555 36.8386C33.5555 33.6621 36.1222 31.0784 39.2777 31.0784C42.4333 31.0784 44.9999 33.6397 44.9999 36.8274C44.9999 40.0151 42.4444 42.5988 39.2777 42.5988C36.111 42.5988 33.5555 40.0151 33.5555 36.8386ZM26.7222 36.7737L27.4888 33.8768C27.6777 33.1721 27.2555 32.6017 26.5555 32.6017L19.7444 32.6017C19.0444 32.6017 18.3333 33.1721 18.1444 33.8768L17.3777 36.7737C17.2 37.4783 17.6111 38.0488 18.3111 38.0488L25.1222 38.0488C25.8222 38.0488 26.5333 37.4783 26.7222 36.7737ZM43.0888 35.7994L38.9999 39.9043C38.8221 40.0832 38.5999 40.1615 38.3666 40.1615C38.1332 40.1615 37.911 40.0721 37.7332 39.9043L35.2888 37.4436C34.9444 37.0969 34.9444 36.5264 35.2888 36.1797C35.6332 35.833 36.1999 35.833 36.5443 36.1797L38.3666 38.014L41.8221 34.5355C42.1666 34.1888 42.7332 34.1888 43.0777 34.5355C43.4332 34.8823 43.4332 35.4527 43.0888 35.7994Z" fill="url(#paint_linear_136)" fill-rule="evenodd" />
</svg>
