<svg viewBox="0 0 58 58" xmlns="http://www.w3.org/2000/svg" xmlns:xlink="http://www.w3.org/1999/xlink" width="58" height="58" fill="none" clip-path="url(#clipPath_53)" customFrame="url(#clipPath_53)">
	<defs>
		<clipPath id="clipPath_53">
			<rect width="58" height="58" x="0" y="0" rx="8" fill="rgb(255,255,255)" />
		</clipPath>
		<linearGradient id="paint_linear_137" x1="14.4999981" x2="43.4999924" y1="28.9999733" y2="28.9999886" gradientUnits="userSpaceOnUse">
			<stop stop-color="rgb(179,157,250)" offset="0" stop-opacity="1" />
			<stop stop-color="rgb(126,96,224)" offset="1" stop-opacity="1" />
		</linearGradient>
	</defs>
	<rect id="功能名称=信用卡账户查询" width="58" height="58" x="0" y="0" rx="8" fill="rgb(240,235,255)" />
	<path id="形状结合" d="M18.5499 14.5005L39.3778 14.5005C40.4446 14.4831 41.4739 14.8932 42.2351 15.639C42.9963 16.3848 43.4259 17.4039 43.4277 18.4682L43.4277 21.7866L14.5 21.7866L14.5 18.4682C14.5278 16.2603 16.3363 14.4885 18.5499 14.5005ZM35.3702 30.8506C32.367 31.7723 30.3041 34.523 30.2656 37.657C30.2665 39.5509 31.0208 41.3671 32.3629 42.7068L18.5499 42.7068C17.4831 42.7242 16.4539 42.3141 15.6926 41.5683C14.9314 40.8225 14.5018 39.8034 14.5 38.7391L14.5 23.8064L43.4277 23.8064L43.4277 33.6173C41.6296 31.0469 38.3734 29.9288 35.3702 30.8506ZM25.1309 33.1123L25.1309 34.0501L22.5998 34.0501L22.5998 35.3486L25.2033 35.3486L25.2033 36.2864L22.5998 36.2864L22.5998 38.5949L20.8641 38.5949L20.8641 36.2864L18.3329 36.2864L18.3329 35.3486L20.8641 35.3486L20.8641 34.0501L18.3329 34.0501L18.3329 33.1123L20.3579 33.1123L17.3928 27.8461L19.4177 27.8461L21.8043 32.463L24.1908 27.8461L26.2157 27.8461L23.2507 33.1123L25.1309 33.1123ZM37.4975 31.6696C34.2321 31.7093 31.6134 34.3751 31.6398 37.6325C31.6663 40.8899 34.328 43.513 37.5936 43.4999C40.8593 43.4868 43.4998 40.8425 43.5 37.585C43.4761 34.2997 40.791 31.6536 37.4975 31.6696ZM37.1359 39.9439L40.8965 36.2144L40.8676 36.2144C41.0411 36.1422 41.0411 35.9979 41.1135 35.7599C41.1029 35.5923 41.0246 35.4361 40.8965 35.327C40.7697 35.2364 40.6185 35.1861 40.4626 35.1828C40.3089 35.1977 40.1606 35.247 40.0287 35.327L36.702 38.5733L34.9663 36.842C34.8396 36.7514 34.6883 36.7011 34.5324 36.6977C34.3787 36.7126 34.2304 36.7619 34.0985 36.842C34.0077 36.9684 33.9573 37.1193 33.9539 37.2748C33.9337 37.4335 33.9869 37.5928 34.0985 37.7076L36.3404 39.9439C36.4392 40.0344 36.5678 40.0858 36.702 40.0882C36.8557 40.0733 37.004 40.024 37.1359 39.9439Z" fill="url(#paint_linear_137)" fill-rule="evenodd" />
</svg>
