<svg viewBox="0 0 58 58" xmlns="http://www.w3.org/2000/svg" xmlns:xlink="http://www.w3.org/1999/xlink" width="58" height="58" fill="none" clip-path="url(#clipPath_58)" customFrame="url(#clipPath_58)">
	<defs>
		<clipPath id="clipPath_58">
			<rect width="58" height="58" x="0" y="0" rx="8" fill="rgb(255,255,255)" />
		</clipPath>
		<linearGradient id="paint_linear_142" x1="12.9999971" x2="45.0000458" y1="28.9996986" y2="28.9997139" gradientUnits="userSpaceOnUse">
			<stop stop-color="rgb(255,52,52)" offset="0" stop-opacity="1" />
			<stop stop-color="rgb(255,94,94)" offset="1" stop-opacity="1" />
		</linearGradient>
	</defs>
	<rect id="功能名称=客户身份证件有效期更新" width="58" height="58" x="0" y="0" rx="8" fill="rgb(255,235,235)" />
	<path id="形状结合" d="M45 20.1534C45 17.5361 42.8778 15.3998 40.2778 15.3998L17.7222 15.3998C15.1222 15.3998 13 17.5361 13 20.1534L13 22.3344L45 22.3344L45 20.1534ZM31.8667 36.6942C31.8667 32.5334 35.2333 29.1443 39.3667 29.1443C41.6111 29.1443 43.6222 30.1398 45 31.7169L45 24.3477L13 24.3477L13 37.835C13 40.4523 15.1222 42.5886 17.7222 42.5886L34.6778 42.5886C32.9667 41.2017 31.8667 39.0765 31.8667 36.6942ZM33.5556 36.8394C33.5556 33.6629 36.1223 31.0792 39.2778 31.0792C42.4334 31.0792 45.0001 33.6405 45.0001 36.8282C45.0001 40.0159 42.4445 42.5996 39.2778 42.5996C36.1112 42.5996 33.5556 40.0159 33.5556 36.8394ZM26.7222 36.7724L27.4889 33.8756C27.6778 33.1709 27.2556 32.6005 26.5556 32.6005L19.7444 32.6005C19.0444 32.6005 18.3333 33.1709 18.1444 33.8756L17.3778 36.7724C17.2 37.4771 17.6111 38.0475 18.3111 38.0475L25.1222 38.0475C25.8222 38.0475 26.5333 37.4771 26.7222 36.7724ZM43.0889 35.7992L39.0001 39.9041C38.8223 40.083 38.6001 40.1613 38.3667 40.1613C38.1334 40.1613 37.9112 40.0718 37.7334 39.9041L35.2889 37.4434C34.9445 37.0967 34.9445 36.5262 35.2889 36.1795C35.6334 35.8328 36.2001 35.8328 36.5445 36.1795L38.3667 38.0138L41.8223 34.5353C42.1667 34.1886 42.7334 34.1886 43.0778 34.5353C43.4334 34.882 43.4334 35.4525 43.0889 35.7992Z" fill="url(#paint_linear_142)" fill-rule="evenodd" />
</svg>
