<svg viewBox="0 0 58 58" xmlns="http://www.w3.org/2000/svg" xmlns:xlink="http://www.w3.org/1999/xlink" width="58" height="58" fill="none" customFrame="url(#clipPath_60)">
	<defs>
		<clipPath id="clipPath_60">
			<rect width="58" height="58" x="0" y="0" rx="8" fill="rgb(255,255,255)" />
		</clipPath>
		<linearGradient id="paint_linear_144" x1="16.5555439" x2="41.4444237" y1="29.1972237" y2="29.1971817" gradientUnits="userSpaceOnUse">
			<stop stop-color="rgb(255,79,18)" offset="0" stop-opacity="1" />
			<stop stop-color="rgb(255,117,69)" offset="0.995273232" stop-opacity="1" />
		</linearGradient>
	</defs>
	<rect id="功能名称=二维码凭条" width="58" height="58" x="0" y="0" rx="8" fill="rgb(255,240,235)" />
	<path id="形状结合" d="M38.4444 15C40.1013 15 41.4444 16.3431 41.4444 18L41.4444 19.1806L41.4444 41.9601C41.4444 42.216 41.3427 42.4218 41.1195 42.5691C40.9046 42.711 40.6673 42.7861 40.3988 42.8084C40.1304 42.825 39.8676 42.7639 39.6048 42.6331C39.342 42.5079 39.1555 42.2966 39.0594 42.0129C38.9579 41.7236 38.791 41.49 38.5592 41.312C38.3305 41.134 38.0677 41.0338 37.7907 40.9977C37.5055 40.9699 37.2369 41.0366 36.9684 41.1923C36.7001 41.3565 36.5021 41.6262 36.3723 42.0129C36.2393 42.2966 36.0416 42.5357 35.7733 42.7082C35.5049 42.8806 35.2363 42.9864 34.9566 42.9975C34.6656 43.0142 34.4056 42.9474 34.1512 42.8084C33.9082 42.6665 33.7301 42.4328 33.6314 42.1075C33.5324 41.7264 33.3373 41.4289 33.0633 41.2174C32.7751 41.0115 32.4897 40.9031 32.1847 40.8808C31.8878 40.8698 31.5883 40.9504 31.2861 41.1202C30.992 41.3037 30.7773 41.5596 30.6445 41.9182C30.5061 42.2327 30.3082 42.4774 30.0484 42.6359C29.777 42.7999 29.4974 42.8863 29.1977 42.9028C28.8982 42.9196 28.6128 42.8585 28.3528 42.7333C28.0872 42.6081 27.8837 42.4133 27.7567 42.1576C27.3525 41.3593 26.8722 40.9393 26.3099 40.9143C25.7474 40.8752 25.3012 41.1812 24.962 41.821C24.8293 42.1102 24.6257 42.3438 24.3431 42.5162C24.0605 42.6942 23.7638 42.7889 23.4445 42.8084C23.1365 42.8249 22.8483 42.7638 22.6053 42.6331C22.3453 42.5078 22.1815 42.2965 22.0741 42.0128C21.9751 41.6262 21.7973 41.3342 21.5286 41.1173C21.2689 40.917 20.9835 40.8086 20.6896 40.7918C20.3815 40.7696 20.0877 40.8502 19.7908 41.031C19.4886 41.2063 19.24 41.4872 19.0393 41.8681C18.9065 42.1297 18.6974 42.3076 18.4204 42.4217C18.1323 42.5357 17.8637 42.5747 17.5981 42.5469C17.3325 42.5078 17.0896 42.4217 16.8804 42.2742C16.6602 42.1325 16.5555 41.9321 16.5555 41.6707L16.5555 26.6667L16.5555 18C16.5555 16.3431 17.8987 15 19.5555 15L38.4444 15ZM27.427 21.1251L23.8482 21.1251Q23.8002 21.1251 23.7527 21.1297Q23.7053 21.1344 23.6583 21.1438C23.5956 21.1562 23.5348 21.1747 23.4757 21.1991C23.4167 21.2236 23.3606 21.2536 23.3075 21.2891C23.2543 21.3246 23.2052 21.3649 23.16 21.4101C23.1148 21.4553 23.0745 21.5045 23.039 21.5576C23.0035 21.6107 22.9735 21.6668 22.949 21.7259C22.9246 21.7849 22.9061 21.8458 22.8936 21.9084C22.8812 21.9711 22.8749 22.0344 22.8749 22.0983L22.8749 25.6463C22.8749 25.7102 22.8812 25.7735 22.8936 25.8361C22.9061 25.8988 22.9246 25.9597 22.949 26.0187C22.9735 26.0778 23.0035 26.1338 23.039 26.187C23.0745 26.2401 23.1148 26.2893 23.16 26.3345C23.2052 26.3796 23.2543 26.42 23.3075 26.4555C23.3606 26.491 23.4167 26.521 23.4757 26.5454C23.5348 26.5699 23.5956 26.5883 23.6583 26.6008C23.721 26.6133 23.7843 26.6195 23.8482 26.6195L27.427 26.6195C27.4909 26.6195 27.5542 26.6133 27.6169 26.6008C27.6795 26.5883 27.7404 26.5699 27.7994 26.5454C27.8585 26.521 27.9146 26.491 27.9677 26.4555C28.0208 26.42 28.07 26.3796 28.1152 26.3345C28.1604 26.2893 28.2007 26.2401 28.2362 26.187C28.2717 26.1338 28.3017 26.0778 28.3261 26.0187C28.3506 25.9597 28.3691 25.8988 28.3815 25.8361C28.394 25.7735 28.4002 25.7102 28.4002 25.6463L28.4002 22.0983C28.4002 21.5614 27.965 21.1251 27.427 21.1251ZM30.5683 26.6207L34.146 26.6207C34.2099 26.6207 34.2732 26.6144 34.3359 26.602C34.3985 26.5895 34.4594 26.571 34.5184 26.5466C34.5775 26.5221 34.6336 26.4921 34.6867 26.4566C34.7398 26.4211 34.789 26.3808 34.8342 26.3356C34.8794 26.2904 34.9197 26.2413 34.9552 26.1881C34.9907 26.135 35.0207 26.0789 35.0451 26.0199Q35.0635 25.9756 35.0773 25.9301L35.0773 25.9299Q35.0912 25.8843 35.1005 25.8373Q35.1099 25.7903 35.1145 25.7429L35.1145 25.7429L35.1146 25.7428Q35.1192 25.6953 35.1192 25.6474L35.1192 22.0983C35.1192 22.0344 35.113 21.9711 35.1005 21.9084C35.0881 21.8458 35.0696 21.7849 35.0451 21.7259C35.0207 21.6668 34.9907 21.6107 34.9552 21.5576C34.9197 21.5045 34.8794 21.4553 34.8342 21.4101C34.789 21.3649 34.7398 21.3246 34.6867 21.2891C34.6336 21.2536 34.5775 21.2236 34.5184 21.1991C34.4594 21.1747 34.3985 21.1562 34.3359 21.1438C34.2732 21.1313 34.2099 21.1251 34.146 21.1251L30.5683 21.1251C30.5044 21.1251 30.4411 21.1313 30.3784 21.1438C30.3158 21.1562 30.2549 21.1747 30.1959 21.1991C30.1368 21.2236 30.0807 21.2536 30.0276 21.2891C29.9745 21.3246 29.9253 21.3649 29.8801 21.4101C29.8349 21.4553 29.7946 21.5045 29.7591 21.5576C29.7236 21.6107 29.6936 21.6668 29.6692 21.7259C29.6447 21.7849 29.6262 21.8458 29.6138 21.9084C29.6013 21.9711 29.5951 22.0344 29.5951 22.0983L29.5951 25.6463C29.5939 26.1843 30.0303 26.6207 30.5683 26.6207ZM30.309 27.7561C29.9126 27.7561 29.5916 28.0771 29.5916 28.4735L29.5916 32.8827C29.5916 33.2791 29.9126 33.6001 30.309 33.6001C30.7054 33.6001 31.0264 33.2791 31.0264 32.8827L31.0264 28.4735C31.0264 28.0771 30.7054 27.7561 30.309 27.7561ZM34.4076 27.7561C34.0112 27.7561 33.6902 28.0771 33.6902 28.4735L33.6902 32.8827C33.6902 33.2791 34.0112 33.6001 34.4076 33.6001C34.804 33.6001 35.1249 33.2791 35.1249 32.8827L35.1249 28.4735C35.1249 28.0771 34.804 27.7561 34.4076 27.7561ZM27.427 27.8178L23.8482 27.8178C23.7843 27.8178 23.721 27.824 23.6583 27.8365C23.5956 27.849 23.5348 27.8674 23.4757 27.8919C23.4167 27.9163 23.3606 27.9463 23.3075 27.9818C23.2543 28.0173 23.2052 28.0577 23.16 28.1028C23.1148 28.148 23.0745 28.1972 23.039 28.2503C23.0035 28.3035 22.9735 28.3595 22.949 28.4186C22.9246 28.4776 22.9061 28.5385 22.8936 28.6012Q22.8843 28.6481 22.8796 28.6956Q22.8749 28.7431 22.8749 28.791L22.8749 32.339Q22.8749 32.3869 22.8796 32.4344Q22.8843 32.4819 22.8936 32.5289C22.9061 32.5915 22.9246 32.6524 22.949 32.7114C22.9735 32.7705 23.0035 32.8266 23.039 32.8797C23.0745 32.9328 23.1148 32.982 23.16 33.0272C23.2052 33.0724 23.2543 33.1127 23.3075 33.1482C23.3606 33.1837 23.4167 33.2137 23.4757 33.2382C23.5348 33.2626 23.5956 33.2811 23.6583 33.2935C23.721 33.306 23.7843 33.3122 23.8482 33.3122L27.427 33.3122C27.4909 33.3122 27.5542 33.306 27.6169 33.2935C27.6795 33.2811 27.7404 33.2626 27.7994 33.2382C27.8585 33.2137 27.9146 33.1837 27.9677 33.1482C28.0208 33.1127 28.07 33.0724 28.1152 33.0272C28.1604 32.982 28.2007 32.9328 28.2362 32.8797C28.2717 32.8266 28.3017 32.7705 28.3261 32.7114C28.3506 32.6524 28.3691 32.5915 28.3815 32.5289C28.394 32.4662 28.4002 32.4029 28.4002 32.339L28.4002 28.7899C28.4002 28.2541 27.965 27.8178 27.427 27.8178ZM32.4177 29.1451C32.0213 29.1451 31.7003 29.4661 31.7003 29.8625L31.7003 32.8827C31.7003 33.2791 32.0213 33.6001 32.4177 33.6001C32.8141 33.6001 33.1351 33.2791 33.1351 32.8827L33.1351 29.8625C33.1351 29.4673 32.8141 29.1451 32.4177 29.1451Z" fill="url(#paint_linear_144)" fill-rule="evenodd" />
</svg>
