<svg viewBox="0 0 58 58" xmlns="http://www.w3.org/2000/svg" xmlns:xlink="http://www.w3.org/1999/xlink" width="58" height="58" fill="none" clip-path="url(#clipPath_57)" customFrame="url(#clipPath_57)">
	<defs>
		<clipPath id="clipPath_57">
			<rect width="58" height="58" x="0" y="0" rx="8" fill="rgb(255,255,255)" />
		</clipPath>
		<linearGradient id="paint_linear_141" x1="12.9999971" x2="45.0000458" y1="28.9998207" y2="28.999836" gradientUnits="userSpaceOnUse">
			<stop stop-color="rgb(254,183,0)" offset="0" stop-opacity="1" />
			<stop stop-color="rgb(254,197,51)" offset="1" stop-opacity="1" />
		</linearGradient>
	</defs>
	<rect id="功能名称=自动还款方式修改" width="58" height="58" x="0" y="0" rx="8" fill="rgb(254,248,234)" />
	<path id="形状结合" d="M45 20.1535C45 17.5362 42.8778 15.3999 40.2778 15.3999L17.7222 15.3999C15.1222 15.3999 13 17.5362 13 20.1535L13 22.3345L45 22.3345L45 20.1535ZM31.8667 36.6943C31.8667 32.5335 35.2333 29.1445 39.3667 29.1445C41.6111 29.1445 43.6222 30.1399 45 31.717L45 24.3478L13 24.3478L13 37.8351C13 40.4524 15.1222 42.5887 17.7222 42.5887L34.6778 42.5887C32.9667 41.2018 31.8667 39.0767 31.8667 36.6943ZM33.5556 36.8395C33.5556 33.663 36.1223 31.0793 39.2778 31.0793C42.4334 31.0793 45.0001 33.6406 45.0001 36.8283C45.0001 40.016 42.4445 42.5997 39.2778 42.5997C36.1112 42.5997 33.5556 40.016 33.5556 36.8395ZM26.7222 36.7726L27.4889 33.8757C27.6778 33.171 27.2556 32.6006 26.5556 32.6006L19.7444 32.6006C19.0444 32.6006 18.3333 33.171 18.1444 33.8757L17.3778 36.7726C17.2 37.4772 17.6111 38.0476 18.3111 38.0476L25.1222 38.0476C25.8222 38.0476 26.5333 37.4772 26.7222 36.7726ZM43.0889 35.7993L39.0001 39.9042C38.8223 40.0831 38.6001 40.1614 38.3667 40.1614C38.1334 40.1614 37.9112 40.072 37.7334 39.9042L35.2889 37.4435C34.9445 37.0968 34.9445 36.5263 35.2889 36.1796C35.6334 35.8329 36.2001 35.8329 36.5445 36.1796L38.3667 38.0139L41.8223 34.5354C42.1667 34.1887 42.7334 34.1887 43.0778 34.5354C43.4334 34.8822 43.4334 35.4526 43.0889 35.7993Z" fill="url(#paint_linear_141)" fill-rule="evenodd" />
</svg>
