<svg viewBox="0 0 58 58" xmlns="http://www.w3.org/2000/svg" xmlns:xlink="http://www.w3.org/1999/xlink" width="58" height="58" fill="none" clip-path="url(#clipPath_59)" customFrame="url(#clipPath_59)">
	<defs>
		<clipPath id="clipPath_59">
			<rect width="58" height="58" x="0" y="0" rx="8" fill="rgb(255,255,255)" />
		</clipPath>
		<linearGradient id="paint_linear_143" x1="14.9999981" x2="42.9999924" y1="28.9999962" y2="29.0000114" gradientUnits="userSpaceOnUse">
			<stop stop-color="rgb(102,158,255)" offset="0" stop-opacity="1" />
			<stop stop-color="rgb(25,110,255)" offset="1" stop-opacity="1" />
		</linearGradient>
	</defs>
	<rect id="功能名称=打印纸质凭条" width="58" height="58" x="0" y="0" rx="8" fill="rgb(235,242,255)" />
	<path id="矢量 4" d="M18.5 25.5L18.5 32.5C18.5 32.6149 18.5112 32.7287 18.5336 32.8414C18.556 32.9541 18.5892 33.0635 18.6332 33.1697C18.6772 33.2759 18.7311 33.3767 18.7949 33.4722C18.8588 33.5678 18.9313 33.6562 19.0126 33.7374C19.0938 33.8187 19.1822 33.8912 19.2778 33.9551C19.3733 34.0189 19.4741 34.0728 19.5803 34.1168C19.6865 34.1608 19.7959 34.194 19.9086 34.2164C20.0213 34.2388 20.1351 34.25 20.25 34.25L37.75 34.25C37.8649 34.25 37.9787 34.2388 38.0914 34.2164C38.2041 34.194 38.3135 34.1608 38.4197 34.1168C38.5259 34.0728 38.6267 34.0189 38.7222 33.9551C38.8178 33.8912 38.9062 33.8187 38.9874 33.7374C39.0687 33.6562 39.1412 33.5678 39.2051 33.4722C39.2689 33.3767 39.3228 33.2759 39.3668 33.1697C39.4108 33.0635 39.444 32.9541 39.4664 32.8414C39.4888 32.7287 39.5 32.6149 39.5 32.5L39.5 25.5L41.25 25.5C41.3649 25.5 41.4787 25.5112 41.5914 25.5336C41.7041 25.556 41.8135 25.5892 41.9197 25.6332C42.0258 25.6772 42.1267 25.7311 42.2222 25.7949C42.3178 25.8588 42.4062 25.9313 42.4874 26.0126C42.5687 26.0938 42.6412 26.1822 42.7051 26.2778C42.7689 26.3733 42.8228 26.4741 42.8668 26.5803C42.9108 26.6865 42.944 26.7959 42.9664 26.9086C42.9888 27.0213 43 27.1351 43 27.25L43 39.5C43 39.6146 42.9944 39.729 42.9831 39.8431C42.9719 39.9571 42.9551 40.0704 42.9327 40.1828C42.9104 40.2952 42.8826 40.4063 42.8493 40.516C42.816 40.6257 42.7774 40.7335 42.7336 40.8394C42.6897 40.9453 42.6408 41.0488 42.5867 41.1499C42.5327 41.251 42.4738 41.3492 42.4101 41.4445C42.3465 41.5398 42.2783 41.6318 42.2055 41.7204C42.1328 41.809 42.0559 41.8938 41.9749 41.9749C41.8938 42.0559 41.809 42.1328 41.7204 42.2055C41.6318 42.2783 41.5398 42.3465 41.4445 42.4101C41.3492 42.4738 41.251 42.5327 41.1499 42.5867C41.0488 42.6408 40.9453 42.6897 40.8394 42.7336C40.7335 42.7774 40.6257 42.816 40.516 42.8493C40.4063 42.8826 40.2952 42.9104 40.1828 42.9327C40.0704 42.9551 39.9571 42.9719 39.8431 42.9831C39.729 42.9944 39.6146 43 39.5 43L18.5 43C18.3854 43 18.271 42.9944 18.1569 42.9831C18.0429 42.9719 17.9296 42.9551 17.8172 42.9327C17.7048 42.9104 17.5937 42.8826 17.484 42.8493C17.3743 42.816 17.2665 42.7774 17.1606 42.7336C17.0547 42.6897 16.9512 42.6408 16.8501 42.5867C16.749 42.5327 16.6508 42.4738 16.5555 42.4101C16.4602 42.3465 16.3682 42.2783 16.2796 42.2055C16.191 42.1328 16.1062 42.0559 16.0251 41.9749C15.9441 41.8938 15.8672 41.809 15.7945 41.7204C15.7217 41.6318 15.6535 41.5398 15.5899 41.4445C15.5262 41.3492 15.4673 41.251 15.4133 41.1499C15.3592 41.0488 15.3103 40.9453 15.2664 40.8394C15.2226 40.7335 15.184 40.6257 15.1507 40.516C15.1174 40.4063 15.0896 40.2952 15.0673 40.1828C15.0449 40.0704 15.0281 39.9571 15.0169 39.8431C15.0056 39.729 15 39.6146 15 39.5L15 27.25C15 27.1351 15.0112 27.0213 15.0336 26.9086C15.056 26.7959 15.0892 26.6865 15.1332 26.5803C15.1772 26.4741 15.2311 26.3733 15.2949 26.2778C15.3588 26.1822 15.4313 26.0938 15.5126 26.0126C15.5938 25.9313 15.6822 25.8588 15.7778 25.7949C15.8733 25.7311 15.9741 25.6772 16.0803 25.6332C16.1865 25.5892 16.2959 25.556 16.4086 25.5336C16.5213 25.5112 16.6351 25.5 16.75 25.5L18.5 25.5ZM22 15L36 15C36.1149 15 36.2287 15.0112 36.3414 15.0336C36.4541 15.056 36.5635 15.0892 36.6697 15.1332C36.7759 15.1772 36.8767 15.2311 36.9722 15.2949C37.0678 15.3588 37.1562 15.4313 37.2374 15.5126C37.3187 15.5938 37.3912 15.6822 37.4551 15.7778C37.5189 15.8733 37.5728 15.9741 37.6168 16.0803C37.6608 16.1865 37.694 16.2959 37.7164 16.4086C37.7388 16.5213 37.75 16.6351 37.75 16.75L37.75 30.75C37.75 30.8649 37.7388 30.9787 37.7164 31.0914C37.694 31.2041 37.6608 31.3135 37.6168 31.4197C37.5728 31.5259 37.5189 31.6267 37.4551 31.7222C37.3912 31.8178 37.3187 31.9062 37.2374 31.9874C37.1562 32.0687 37.0678 32.1412 36.9722 32.2051C36.8767 32.2689 36.7759 32.3228 36.6697 32.3668C36.5635 32.4108 36.4541 32.444 36.3414 32.4664C36.2287 32.4888 36.1149 32.5 36 32.5L22 32.5C21.8851 32.5 21.7713 32.4888 21.6586 32.4664C21.5459 32.444 21.4365 32.4108 21.3303 32.3668C21.2241 32.3228 21.1233 32.2689 21.0278 32.2051C20.9322 32.1412 20.8438 32.0687 20.7626 31.9874C20.6813 31.9062 20.6088 31.8178 20.5449 31.7222C20.4811 31.6267 20.4272 31.5259 20.3832 31.4197C20.3392 31.3135 20.306 31.2041 20.2836 31.0914C20.2612 30.9787 20.25 30.8649 20.25 30.75L20.25 16.75C20.25 16.6351 20.2612 16.5213 20.2836 16.4086C20.306 16.2959 20.3392 16.1865 20.3832 16.0803C20.4272 15.9741 20.4811 15.8733 20.5449 15.7778C20.6088 15.6822 20.6813 15.5938 20.7626 15.5126C20.8438 15.4313 20.9322 15.3588 21.0278 15.2949C21.1233 15.2311 21.2241 15.1772 21.3303 15.1332C21.4365 15.0892 21.5459 15.056 21.6586 15.0336C21.7713 15.0112 21.8851 15 22 15ZM24.625 20.25C24.5675 20.25 24.5106 20.2556 24.4543 20.2668C24.3979 20.278 24.3432 20.2946 24.2901 20.3166C24.2371 20.3386 24.1866 20.3655 24.1389 20.3975C24.0911 20.4294 24.0469 20.4657 24.0063 20.5063C23.9657 20.5469 23.9294 20.5911 23.8975 20.6389C23.8655 20.6866 23.8386 20.7371 23.8166 20.7902C23.7946 20.8432 23.778 20.8979 23.7668 20.9543C23.7556 21.0106 23.75 21.0675 23.75 21.125C23.75 21.1825 23.7556 21.2394 23.7668 21.2957C23.778 21.3521 23.7946 21.4068 23.8166 21.4598C23.8386 21.5129 23.8655 21.5634 23.8975 21.6111C23.9294 21.6589 23.9657 21.7031 24.0063 21.7437C24.0469 21.7843 24.0911 21.8206 24.1389 21.8525C24.1866 21.8845 24.2371 21.9114 24.2901 21.9334C24.3432 21.9554 24.3979 21.972 24.4543 21.9832C24.5106 21.9944 24.5675 22 24.625 22L33.375 22C33.4325 22 33.4894 21.9944 33.5457 21.9832C33.6021 21.972 33.6568 21.9554 33.7098 21.9334C33.7629 21.9114 33.8134 21.8845 33.8611 21.8525C33.9089 21.8206 33.9531 21.7843 33.9937 21.7437C34.0343 21.7031 34.0706 21.6589 34.1025 21.6111C34.1345 21.5634 34.1614 21.5129 34.1834 21.4598C34.2054 21.4068 34.222 21.3521 34.2332 21.2957C34.2444 21.2394 34.25 21.1825 34.25 21.125C34.25 21.0675 34.2444 21.0106 34.2332 20.9543C34.222 20.8979 34.2054 20.8432 34.1834 20.7902C34.1614 20.7371 34.1345 20.6866 34.1025 20.6389C34.0706 20.5911 34.0343 20.5469 33.9937 20.5063C33.9531 20.4657 33.9089 20.4294 33.8611 20.3975C33.8134 20.3655 33.7629 20.3386 33.7098 20.3166C33.6568 20.2946 33.6021 20.278 33.5457 20.2668C33.4894 20.2556 33.4325 20.25 33.375 20.25L24.625 20.25ZM24.625 25.5C24.5675 25.5 24.5106 25.5056 24.4543 25.5168C24.3979 25.528 24.3432 25.5446 24.2901 25.5666C24.2371 25.5886 24.1866 25.6155 24.1389 25.6475C24.0911 25.6794 24.0469 25.7157 24.0063 25.7563C23.9657 25.7969 23.9294 25.8411 23.8975 25.8889C23.8655 25.9366 23.8386 25.9871 23.8166 26.0401C23.7946 26.0932 23.778 26.1479 23.7668 26.2043C23.7556 26.2606 23.75 26.3175 23.75 26.375C23.75 26.4325 23.7556 26.4894 23.7668 26.5457C23.778 26.6021 23.7946 26.6568 23.8166 26.7098C23.8386 26.7629 23.8655 26.8134 23.8975 26.8611C23.9294 26.9089 23.9657 26.9531 24.0063 26.9937C24.0469 27.0343 24.0911 27.0706 24.1389 27.1025C24.1866 27.1345 24.2371 27.1614 24.2901 27.1834C24.3432 27.2054 24.3979 27.222 24.4543 27.2332C24.5106 27.2444 24.5675 27.25 24.625 27.25L33.375 27.25C33.4325 27.25 33.4894 27.2444 33.5457 27.2332C33.6021 27.222 33.6568 27.2054 33.7098 27.1834C33.7629 27.1614 33.8134 27.1345 33.8611 27.1025C33.9089 27.0706 33.9531 27.0343 33.9937 26.9937C34.0343 26.9531 34.0706 26.9089 34.1025 26.8611C34.1345 26.8134 34.1614 26.7629 34.1834 26.7098C34.2054 26.6568 34.222 26.6021 34.2332 26.5457C34.2444 26.4894 34.25 26.4325 34.25 26.375C34.25 26.3175 34.2444 26.2606 34.2332 26.2043C34.222 26.1479 34.2054 26.0932 34.1834 26.0401C34.1614 25.9871 34.1345 25.9366 34.1025 25.8889C34.0706 25.8411 34.0343 25.7969 33.9937 25.7563C33.9531 25.7157 33.9089 25.6794 33.8611 25.6475C33.8134 25.6155 33.7629 25.5886 33.7098 25.5666C33.6568 25.5446 33.6021 25.528 33.5457 25.5168C33.4894 25.5056 33.4325 25.5 33.375 25.5L24.625 25.5Z" fill="url(#paint_linear_143)" fill-rule="nonzero" />
</svg>
