<svg viewBox="0 0 58 58" xmlns="http://www.w3.org/2000/svg" xmlns:xlink="http://www.w3.org/1999/xlink" width="58" height="58" fill="none" clip-path="url(#clipPath_54)" customFrame="url(#clipPath_54)">
	<defs>
		<clipPath id="clipPath_54">
			<rect width="58" height="58" x="0" y="0" rx="8" fill="rgb(255,255,255)" />
		</clipPath>
		<linearGradient id="paint_linear_138" x1="46.0004997" x2="12.0000572" y1="29.1945419" y2="29.1945152" gradientUnits="userSpaceOnUse">
			<stop stop-color="rgb(41,204,152)" offset="0" stop-opacity="1" />
			<stop stop-color="rgb(0,224,152)" offset="1" stop-opacity="1" />
		</linearGradient>
	</defs>
	<rect id="功能名称=信用卡还款" width="58" height="58" x="0" y="0" rx="8" fill="rgb(235,255,249)" />
	<path id="形状" d="M15.7485 41.0764C15.2456 41.0799 14.7476 40.9797 14.2863 40.7821C13.8433 40.5988 13.4403 40.3329 13.0994 39.9989C12.7612 39.6801 12.4881 39.3002 12.2949 38.8799C12.0998 38.4441 12.0002 37.9726 12.0027 37.4962L12.0027 18.8062C11.9655 17.847 12.3179 16.9127 12.9816 16.211C13.717 15.5024 14.7213 15.1331 15.7473 15.194L41.4805 15.194C42.5272 15.1437 43.5573 15.4672 44.3821 16.1054C45.1451 16.817 45.5426 17.83 45.4643 18.8632L45.4643 29.7235C43.9307 28.41 41.9927 27.6457 39.9641 27.5543C39.9717 27.2883 39.882 27.0284 39.7116 26.8221C39.4862 26.6057 39.1757 26.4981 38.8627 26.5279L29.7635 26.5279C29.4459 26.5028 29.1322 26.6095 28.8977 26.8221C28.7194 27.0247 28.625 27.2861 28.6331 27.5543C28.6292 27.8115 28.7188 28.0616 28.8856 28.2592C29.1096 28.4732 29.4168 28.5806 29.7274 28.5535L35.3791 28.5535C32.3956 30.0819 30.5257 33.1252 30.5318 36.4425C30.5302 38.0775 30.9854 39.6813 31.8474 41.0776L15.7485 41.0764ZM19.2808 21.8583C18.9505 21.9971 18.6477 22.1923 18.3862 22.435C18.1265 22.6855 17.9218 22.986 17.7849 23.3179C17.6359 23.6655 17.5594 24.0393 17.5601 24.4167C17.559 24.7866 17.6356 25.1526 17.7849 25.4919C17.9274 25.8208 18.1314 26.1203 18.3862 26.3747C18.6441 26.6291 18.9474 26.8343 19.2808 26.9799C19.6199 27.1239 19.9855 27.1975 20.3547 27.1959C20.7459 27.2001 21.1339 27.1267 21.4958 26.9799C21.8307 26.84 22.1331 26.6341 22.3844 26.3747C22.6379 26.1192 22.8417 25.82 22.9857 25.4919C23.1405 25.1544 23.2173 24.7871 23.2106 24.4167C23.2363 23.674 22.9443 22.9548 22.4061 22.435C21.8624 21.9082 21.1233 21.625 20.3619 21.6518C19.9905 21.6497 19.6223 21.7199 19.2784 21.8583L19.2808 21.8583ZM31.7647 23.8294C31.7545 23.5703 31.8719 23.3223 32.0798 23.1636L32.081 23.1684C32.2944 23.0006 32.561 22.9128 32.8337 22.9204L38.8678 22.9204C39.1449 22.9153 39.4159 23.0008 39.6386 23.1636C39.8528 23.3187 39.9767 23.5673 39.9705 23.8294C39.9683 24.0993 39.8471 24.3549 39.6386 24.5295C39.4312 24.7244 39.1541 24.8302 38.8678 24.8238L32.8337 24.8238C32.5523 24.8312 32.28 24.7249 32.0798 24.5295C31.8776 24.3517 31.7628 24.0966 31.7647 23.8294ZM16.5463 29.8506L16.5466 29.8503C17.0549 29.3267 17.7609 29.0354 18.4956 29.046L22.2125 29.046C22.5843 29.0452 22.9524 29.1187 23.2947 29.262C23.6287 29.4013 23.9325 29.6027 24.1894 29.8553C24.4466 30.105 24.651 30.4027 24.7906 30.7311C24.9408 31.0709 25.0174 31.4379 25.0155 31.8086L25.0155 34.5533L15.7431 34.5533L15.7431 31.8026C15.7281 31.0707 16.0185 30.3649 16.5463 29.8506ZM34.6255 40.5436C32.4614 38.0175 32.6182 34.2766 34.9863 31.9355C37.3592 29.6009 41.1477 29.4463 43.7079 31.5795C46.2697 33.7114 46.7509 37.4239 44.8154 40.1235L45.6571 40.9542C46.0255 41.3816 45.9988 42.0167 45.5958 42.4126C45.1967 42.8151 44.5495 42.8426 44.1168 42.4755L43.275 41.6448C42.1852 42.4062 40.8825 42.8142 39.5473 42.8125C37.6479 42.8097 35.8466 41.9793 34.6255 40.5436ZM36.6159 33.5565L36.6171 33.5553C37.4131 32.7715 38.4927 32.3329 39.6173 32.3366C40.7363 32.3352 41.8099 32.7738 42.6006 33.5553C43.3933 34.3366 43.8387 35.3968 43.8387 36.5024C43.8387 37.608 43.3933 38.6682 42.6006 39.4495C41.8074 40.2329 40.7311 40.6732 39.6088 40.6732C38.4865 40.6732 37.4103 40.2329 36.6171 39.4495C34.9726 37.8204 34.9722 35.186 36.6159 33.5565Z" fill="url(#paint_linear_138)" fill-rule="evenodd" />
</svg>
