<svg viewBox="0 0 330 72" xmlns="http://www.w3.org/2000/svg" xmlns:xlink="http://www.w3.org/1999/xlink" width="330" height="72" fill="none" customFrame="#000000">
	<mask id="mask_6" width="521" height="72" x="0" y="-9.15527344e-05" maskUnits="userSpaceOnUse" mask-type="outline">
		<g filter="url(#pixso_custom_mask_type_outline)">
			<use xlink:href="#use_6" />
		</g>
	</mask>
	<defs>
		<linearGradient id="paint_linear_92" x1="511.865265" x2="11.7140198" y1="58.0215149" y2="7.87527466" gradientUnits="userSpaceOnUse">
			<stop stop-color="rgb(95,209,159)" offset="0" stop-opacity="1" />
			<stop stop-color="rgb(6,174,120)" offset="1" stop-opacity="1" />
		</linearGradient>
		<g id="use_6">
			<rect id="蒙版" width="521" height="72" x="0" y="-9.15527344e-05" rx="8" opacity="0" fill="url(#paint_linear_92)" />
			<rect id="蒙版" width="520" height="71" x="0.5" y="0.499908447" rx="8" opacity="0" stroke="rgb(151,151,151)" stroke-opacity="0" stroke-width="1" />
		</g>
		<filter id="pixso_custom_mask_type_outline">
			<feColorMatrix type="matrix" values="0 0 0 0 1 0 0 0 0 1 0 0 0 0 1 0 0 0 255 0 " />
		</filter>
		<linearGradient id="paint_linear_93" x1="41.9150009" x2="41.9150009" y1="0" y2="124.42791" gradientUnits="userSpaceOnUse">
			<stop stop-color="rgb(255,255,255)" offset="0" stop-opacity="0.137254909" />
			<stop stop-color="rgb(255,255,255)" offset="1" stop-opacity="0" />
		</linearGradient>
		<linearGradient id="paint_linear_94" x1="295.095184" x2="-6.10351562e-05" y1="49.1151428" y2="49.1151428" gradientUnits="userSpaceOnUse">
			<stop stop-color="rgb(255,255,255)" offset="0" stop-opacity="0.0941176489" />
			<stop stop-color="rgb(255,255,255)" offset="1" stop-opacity="0" />
		</linearGradient>
	</defs>
	<g id="形状" mask="url(#mask_6)">
		<use xlink:href="#use_6" />
		<path id="形状" d="M58.683 33.3788L27.4768 33.3788C25.333 33.3788 23.3166 32.2563 21.9168 30.3434C18.432 25.5672 15.2409 19.8059 15.2409 15.545C15.2409 6.31982 20.9153 6.46724 25.868 6.59591C26.5788 6.61438 27.2747 6.63246 27.9368 6.6224C29.9673 6.59669 31.8597 4.74916 33.6387 3.01228C35.822 0.880731 37.8346 -1.08417 39.7224 0.68928C41.8763 2.72317 43.035 4.79448 43.9381 6.40872C45.0336 8.36711 45.7528 9.65278 47.4162 9.3828C51.4883 8.71847 47.9448 0.677823 58.4187 0.677823C68.8925 0.677823 72.5046 5.68319 71.1244 15.545C70.4392 20.4702 67.3851 25.9681 64.1646 30.4466C62.8138 32.3365 60.7875 33.3788 58.683 33.3788ZM66.4062 42.771C64.7422 40.5604 62.3244 39.3233 59.8087 39.3233L26.5077 39.3233C24.0997 39.3233 21.7798 40.4572 20.1157 42.4961C9.6516 55.3245 0 73.6393 0 86.9945C0 98.7692 10.1117 113.636 22.5824 113.636L61.2476 113.636C73.7184 113.636 83.83 98.8952 83.83 86.9945C83.83 73.3987 76.0676 55.5994 66.4062 42.771ZM49.5404 73.1926L56.2358 58.9782C56.8231 57.7298 56.0498 56.2064 54.8165 56.1835L51.6254 56.1835C51.0185 56.1835 50.4703 56.5844 50.1962 57.2144L44.7439 69.9397C44.1468 71.3141 42.4632 71.3141 41.8759 69.9397L36.4236 57.2144C36.1593 56.5844 35.6013 56.1835 34.9944 56.1835L31.8033 56.1835C30.5895 56.1835 29.8162 57.7183 30.4036 58.9668L37.099 73.1811C37.6863 74.4296 36.9228 75.9644 35.6992 75.9644L33.8492 75.9644C32.9584 75.9644 32.2438 76.812 32.2438 77.8428C32.2438 78.8851 32.9682 79.7213 33.8492 79.7213L38.5869 79.7213C39.5266 79.7213 40.2803 80.6147 40.2705 81.7028L40.2607 82.6191C40.251 83.6614 39.5364 84.4975 38.6456 84.4975L33.8492 84.4975C32.9584 84.4975 32.2438 85.3337 32.2438 86.376C32.2438 87.4183 32.9682 88.2544 33.8492 88.2544L38.6554 88.2544C39.5462 88.2544 40.2607 89.102 40.2607 90.1328L40.2607 94.9091C40.2607 95.9514 40.9851 96.7876 41.8661 96.7876L44.7733 96.7876C45.6641 96.7876 46.3786 95.94 46.3786 94.9091L46.3786 90.1328C46.3786 89.0905 47.103 88.2544 47.984 88.2544L52.8391 88.2544C53.7299 88.2544 54.4445 87.4183 54.4445 86.376C54.4445 85.3337 53.7201 84.4975 52.8391 84.4975L47.984 84.4975C47.0932 84.4975 46.3786 83.65 46.3786 82.6191L46.3786 81.6913C46.3884 80.6032 47.1324 79.7327 48.0623 79.7327L52.8391 79.7327C53.7299 79.7327 54.4445 78.8852 54.4445 77.8543C54.4445 76.812 53.7201 75.9759 52.8391 75.9759L50.9402 75.9759C49.7264 75.9759 48.9531 74.4411 49.5404 73.1926Z" fill="url(#paint_linear_93)" fill-rule="evenodd" transform="matrix(0.992546,0.121869,-0.121869,0.992546,84.8572,-23.7756)" />
	</g>
	<path id="路径 2" d="M330 1.11514C330 1.11514 318.853 67.3384 204.087 97.1151L0.104384 97.1151L0 1.11514L330 1.11514Z" fill="url(#paint_linear_94)" fill-rule="evenodd" />
	<path id="路径 2" d="M204.087 97.1151L0.104384 97.1151L0.00108734 2.11514L0 1.11514L330 1.11514C330 1.11514 329.942 1.46142 329.79 2.11514C327.846 10.5019 310.555 69.4916 204.087 97.1151ZM328.763 2.11514L1.00109 2.11514L1.1033 96.1151L203.96 96.1151C217.615 92.5667 230.318 88.3672 242.066 83.5166C252.77 79.0978 262.634 74.158 271.66 68.6975C279.729 63.8165 287.079 58.5486 293.712 52.8937C299.511 47.9506 304.712 42.7539 309.317 37.3035C313.21 32.6965 316.626 27.9688 319.566 23.1203C321.915 19.2466 323.908 15.3853 325.545 11.5364C326.711 8.79424 327.641 6.1976 328.335 3.74651C328.499 3.16694 328.641 2.62315 328.763 2.11514Z" fill="rgb(151,151,151)" fill-opacity="0" fill-rule="evenodd" />
</svg>
