<svg viewBox="0 0 21 21" xmlns="http://www.w3.org/2000/svg" xmlns:xlink="http://www.w3.org/1999/xlink" width="21" height="21" fill="none" customFrame="#000000">
	<path id="合并" d="M3 19.5L9.033 19.5C9.46228 20.0686 9.96981 20.5736 10.5405 21L3 21C1.34315 21 0 19.6569 0 18L0 3C0 1.34315 1.34315 0 3 0L16.5 0C18.1569 0 19.5 1.34315 19.5 3L19.5 9.0345C19.0335 8.682 18.54 8.37 18 8.133L18 3C18 2.17157 17.3284 1.5 16.5 1.5L3 1.5C2.17157 1.5 1.5 2.17157 1.5 3L1.5 18C1.5 18.8284 2.17157 19.5 3 19.5ZM15 6C15 5.58579 14.6642 5.25 14.25 5.25L5.25 5.25C4.83579 5.25 4.5 5.58579 4.5 6C4.5 6.41421 4.83579 6.75 5.25 6.75L14.25 6.75C14.6642 6.75 15 6.41421 15 6ZM9 9C9.41421 9 9.75 9.33579 9.75 9.75C9.75 10.1642 9.41421 10.5 9 10.5L5.25 10.5C4.83579 10.5 4.5 10.1642 4.5 9.75C4.5 9.33579 4.83579 9 5.25 9L9 9ZM9 15C9 11.6863 11.6863 9 15 9C18.3137 9 21 11.6863 21 15C21 18.3137 18.3137 21 15 21C11.6863 21 9 18.3137 9 15ZM10.5022 14.9993C10.5022 17.4833 12.516 19.497 15 19.497C17.484 19.497 19.4977 17.4833 19.4977 14.9993C19.4977 12.5152 17.484 10.5015 15 10.5015C12.516 10.5015 10.5022 12.5152 10.5022 14.9993ZM15 12L15.9885 13.8855L18 14.292L16.599 15.8625L16.854 18L15 17.0865L13.146 18L13.401 15.8625L12 14.292L14.0115 13.8855L15 12ZM5.25 12.75C4.83579 12.75 4.5 13.0858 4.5 13.5C4.5 13.9142 4.83579 14.25 5.25 14.25L6.75 14.25C7.16421 14.25 7.5 13.9142 7.5 13.5C7.5 13.0858 7.16421 12.75 6.75 12.75L5.25 12.75Z" fill="rgb(80,81,82)" fill-rule="evenodd" />
</svg>
