<svg viewBox="0 0 24 24" xmlns="http://www.w3.org/2000/svg" xmlns:xlink="http://www.w3.org/1999/xlink" width="24" height="24" fill="none" customFrame="#000000">
	<rect id="名称=账户管理,选中=否" width="24" height="24" x="0" y="0" fill="rgb(255,255,255)" fill-opacity="0" />
	<path id="合并" d="M12 1.5C6.20102 1.5 1.5 6.201 1.5 12C1.5 17.799 6.201 22.5 12 22.5C17.799 22.5 22.5 17.799 22.5 12C22.5 6.201 17.799 1.5 12 1.5ZM3.00002 12C3.00002 16.9706 7.02944 21 12 21C16.9705 21 21 16.9706 21 12C21 7.02945 16.9705 3 12 3C7.02944 3 3.00002 7.02945 3.00002 12ZM16.0829 13.1608C17.2709 13.8999 18.2376 14.9469 18.8784 16.1886C19.0678 16.5555 18.9239 17.0063 18.5571 17.1956C18.4513 17.2504 18.334 17.279 18.2149 17.279C17.9442 17.279 17.6828 17.1314 17.5501 16.8742C16.4738 14.7887 14.3486 13.4932 12.0038 13.4932C9.66686 13.4932 7.54485 14.7825 6.46598 16.8579C6.27555 17.2242 5.82429 17.3667 5.45807 17.1763C5.09182 16.9859 4.94925 16.5347 5.13965 16.1684C5.78233 14.9321 6.74873 13.8901 7.93434 13.1549C8.34476 12.9004 8.77825 12.6852 9.22905 12.5121C8.18681 11.688 7.5179 10.4124 7.5179 8.98053C7.5179 6.49536 9.53252 4.48074 12.0177 4.48074C14.5028 4.48074 16.5174 6.49536 16.5174 8.98053C16.5174 10.4166 15.8447 11.6955 14.7973 12.5193C15.2449 12.6926 15.6753 12.9074 16.0829 13.1608ZM12.0177 5.99239C13.668 5.99239 15.0058 7.33023 15.0058 8.98053C15.0058 10.6308 13.668 11.9687 12.0177 11.9687C10.3674 11.9687 9.02955 10.6308 9.02955 8.98053C9.02955 7.33023 10.3674 5.99239 12.0177 5.99239Z" fill="rgb(80,81,82)" fill-rule="evenodd" />
</svg>
