<svg viewBox="0 0 70 70" xmlns="http://www.w3.org/2000/svg" xmlns:xlink="http://www.w3.org/1999/xlink" width="70" height="70" fill="none" customFrame="#000000">
	<defs>
		<linearGradient id="paint_linear_128" x1="0.999995649" x2="56.9999886" y1="34.9997559" y2="34.9997787" gradientUnits="userSpaceOnUse">
			<stop stop-color="rgb(0,230,230)" offset="0" stop-opacity="1" />
			<stop stop-color="rgb(41,204,204)" offset="1" stop-opacity="1" />
		</linearGradient>
		<g id="pixso_custom_effect_43">
			<effect visibility="visible" effectType="backgroundBlur" saturation="0" stdDeviation="17.125164" />
		</g>
		<filter id="filter_43" width="33.247406" height="33.2473907" x="36.376297" y="29.3763123" filterUnits="userSpaceOnUse" customEffect="url(#pixso_custom_effect_43)" color-interpolation-filters="sRGB">
			<feFlood flood-opacity="0" result="BackgroundImageFix" />
			<feGaussianBlur stdDeviation="5.70838785" in="BackgroundImage" />
			<feComposite result="effect_backgroundBlur_1" in2="SourceAlpha" operator="in" />
			<feBlend result="shape" in="SourceGraphic" in2="effect_backgroundBlur_1" mode="normal" />
		</filter>
		<linearGradient id="paint_linear_129" x1="41.5000038" x2="63.4968872" y1="32.5" y2="55.9759903" gradientUnits="userSpaceOnUse">
			<stop stop-color="rgb(255,255,255)" offset="0" stop-opacity="0" />
			<stop stop-color="rgb(255,255,255)" offset="1" stop-opacity="1" />
		</linearGradient>
	</defs>
	<rect id="名称=客户信息修改" width="70" height="70" x="0" y="0" fill="rgb(255,255,255)" fill-opacity="0" />
	<g id="组合 1880">
		<path id="差集" d="M57 18.9998C57 15.686 54.3137 12.9998 51 12.9998L7 12.9998C3.68629 12.9998 1 15.686 1 18.9998L1 50.9998C1 54.3135 3.68629 56.9998 7 56.9998L51 56.9998C54.3137 56.9998 57 54.3135 57 50.9998L57 18.9998ZM31.291 47.6807C31.291 47.4219 31.5455 47.163 31.5455 46.6454L31.5455 44.0571C31.5455 43.7983 31.291 43.2807 31.291 43.0219C31.291 42.5042 30.7819 41.9866 30.5273 41.7277C30.2728 41.4689 29.7637 41.2101 29.2546 40.9513C28.7455 40.6924 28.2364 40.6924 27.7273 40.4336C27.2182 40.1748 26.7092 40.1748 26.2001 39.916C25.691 39.6572 25.1819 39.3983 24.9273 39.1395C24.4182 38.8807 24.4182 38.6219 24.1637 38.363C23.9092 38.1042 23.9092 37.8454 23.9092 37.5866L23.9092 36.8101C24.1637 36.2924 24.1637 36.0336 24.4182 35.7748C24.4182 35.516 24.9273 35.2572 25.1819 34.9983C25.4364 34.9983 25.691 34.7395 25.691 34.4807C25.691 34.2219 25.9455 33.963 25.9455 33.7042C25.9455 33.1866 26.2001 32.9277 26.2001 32.6689C26.4546 32.6689 26.4546 32.6689 26.7091 32.4101C26.9637 32.4101 27.2182 32.1513 27.2182 31.8925C27.4728 31.6336 27.4728 31.3748 27.4728 30.8572L27.4728 30.0807C27.4728 29.8219 27.2182 29.8219 27.2182 29.563C27.2182 29.563 27.2182 29.3042 26.9637 29.3042C26.9637 28.5277 26.7091 27.7513 26.7091 26.9748C26.7091 26.4572 26.4546 25.6807 26.2001 24.9042C25.9455 24.1277 25.691 23.3513 25.1819 22.8336C25.1819 22.5748 24.6728 22.316 24.4182 22.0572C23.9092 21.7983 23.4001 22.0572 22.891 21.7983C22.3819 21.5395 21.8728 21.2807 21.3637 21.2807C20.8546 21.0219 20.3455 21.0219 19.8364 21.0219L18.5637 21.0219C18.3091 21.0219 17.8001 21.0219 17.291 21.2807C16.7819 21.5395 16.2728 21.7983 16.0182 22.0572C15.5091 22.316 15.0001 22.8336 14.491 23.3513C14.2364 23.8689 13.9819 24.3866 13.7273 25.163C13.7273 25.9395 13.4728 26.4572 13.4728 26.9748L13.4728 29.0454C13.4728 29.0454 13.2182 29.3042 13.2182 29.563C12.9637 29.8219 13.2182 30.0807 12.9637 30.3395C12.794 30.5121 12.8506 30.6846 12.9071 30.8572C12.9354 30.9434 12.9637 31.0297 12.9637 31.116C12.9637 31.3748 12.9637 31.6336 13.2182 31.8925C13.2182 32.1513 13.4728 32.4101 13.4728 32.4101C13.7273 32.6689 13.7273 32.6689 13.9819 32.6689C13.9819 33.1866 14.2364 33.4454 14.2364 33.7042C14.2364 33.963 14.2364 34.2219 14.491 34.4807L15.7637 35.7748C16.0182 36.0336 16.2728 36.2924 16.2728 36.8101L16.2728 38.1042C16.0182 38.363 16.0182 38.6219 15.7637 38.8807C15.5091 39.1395 15.2546 39.3983 14.7455 39.6572C14.2364 40.1748 13.7273 40.4336 13.2182 40.6925C12.7091 40.6925 11.9455 40.9513 11.4364 41.2101C10.9273 41.2101 10.4182 41.7277 9.90914 41.9866Q9.72778 42.0788 9.58949 42.2148Q9.14551 42.6514 9.14551 43.5395L9.14551 46.6454C9.40005 47.4219 9.40005 47.6807 9.6546 47.9395C9.6546 47.9395 9.90915 48.1983 10.4182 48.1983C10.9273 48.1983 11.4364 48.4571 11.9455 48.4571C12.4546 48.4571 13.2182 48.716 13.9819 48.716C14.7455 48.716 15.5091 48.9748 16.2728 48.9748C17.0364 49.2336 17.8001 49.2336 18.5637 49.2336L22.3819 49.2336C23.1455 48.9748 23.9091 48.9748 24.6728 48.9748C25.4364 48.9748 26.2001 48.716 26.9637 48.716C27.7273 48.716 28.2364 48.4571 29.0001 48.4571C29.5091 48.4571 30.0182 48.4571 30.5273 48.1983C31.0364 47.9395 31.291 47.9395 31.291 47.6807ZM37.9091 28.5277L48.091 28.5277C48.8546 28.5277 49.3637 28.0101 49.3637 27.2336C49.3637 26.4572 48.8546 25.9395 48.091 25.9395L37.9091 25.9395C37.1455 25.9395 36.6364 26.4572 36.6364 27.2336C36.6364 28.0101 37.1455 28.5277 37.9091 28.5277ZM37.9091 36.2924L48.091 36.2924C48.8546 36.2924 49.3637 35.7748 49.3637 34.9983C49.3637 34.2219 48.8546 33.7042 48.091 33.7042L37.9091 33.7042C37.1455 33.7042 36.6364 34.2219 36.6364 34.9983C36.6364 35.7748 37.1455 36.2924 37.9091 36.2924ZM37.9091 44.0572L48.091 44.0572C48.8546 44.0572 49.3637 43.5395 49.3637 42.763C49.3637 41.9866 48.8546 41.4689 48.091 41.4689L37.9091 41.4689C37.1455 41.4689 36.6364 41.9866 36.6364 42.763C36.6364 43.5395 37.1455 44.0572 37.9091 44.0572Z" fill="url(#paint_linear_128)" fill-rule="evenodd" />
		<g id="编组">
			<g filter="url(#filter_43)">
				<rect id="矩形" width="32" height="32" x="37" y="30" rx="16" fill="url(#paint_linear_129)" />
				<rect id="矩形" width="32" height="32" x="37" y="30" rx="16" stroke="rgb(255,255,255)" stroke-width="1.24740005" />
			</g>
			<path id="合并" d="M49.6386 54.0064L47.1056 54.0064C46.8262 54.0072 46.5575 53.9542 46.2994 53.8474Q46.1059 53.7672 45.9352 53.6529Q45.7646 53.5386 45.6168 53.3901C45.5187 53.2927 45.4311 53.1865 45.354 53.0716C45.277 52.9567 45.212 52.8354 45.1591 52.7076C45.1061 52.5798 45.0663 52.4481 45.0395 52.3124C45.0127 52.1767 44.9996 52.0397 45 51.9014L45 49.3678C44.9994 49.0885 45.0526 48.8198 45.1595 48.5617Q45.2397 48.3682 45.354 48.1975L45.354 48.1975Q45.4683 48.0268 45.6168 47.879L54.7504 38.7444C54.8686 38.6259 54.9973 38.5201 55.1365 38.4271C55.2757 38.3341 55.4227 38.2557 55.5774 38.1918C55.7321 38.1279 55.8916 38.0799 56.0559 38.0476Q56.1791 38.0233 56.3035 38.0115L56.3036 38.0115Q56.4279 37.9996 56.5534 38C56.7207 37.9994 56.8864 38.0153 57.0506 38.0476C57.2148 38.0798 57.3742 38.1279 57.5289 38.1918C57.6835 38.2557 57.8304 38.3341 57.9695 38.4271C58.1086 38.5201 58.2372 38.6259 58.3553 38.7444L60.2482 40.6362C60.3677 40.7552 60.4745 40.8848 60.5684 41.025C60.6622 41.1651 60.7414 41.3132 60.806 41.4691C60.8705 41.6249 60.9191 41.7856 60.9517 41.9512C60.9844 42.1167 61.0005 42.2838 61 42.4525C61.0004 42.6211 60.9843 42.7881 60.9517 42.9535C60.919 43.1189 60.8705 43.2795 60.806 43.4353C60.7415 43.5911 60.6624 43.739 60.5686 43.8791C60.4748 44.0192 60.3682 44.1488 60.2487 44.2677L51.1263 53.3891C50.9295 53.5871 50.7021 53.7397 50.4442 53.8467C50.1864 53.9537 49.9178 54.0069 49.6386 54.0064ZM47.1273 51.879L49.6386 51.879L55.4588 46.0538L52.9704 43.5331L47.121 49.3832L47.1273 51.879ZM54.4741 42.0293L56.9612 44.55L58.745 42.7646C58.8313 42.6784 58.8742 42.5744 58.8737 42.4525C58.8742 42.3304 58.8312 42.2264 58.7445 42.1404L56.8522 40.2486C56.77 40.1657 56.6706 40.1244 56.5539 40.1247C56.4369 40.1244 56.3371 40.1657 56.2546 40.2486L54.4741 42.0293Z" fill="rgb(41,204,204)" fill-rule="evenodd" />
		</g>
	</g>
</svg>
