<svg viewBox="0 0 70 70" xmlns="http://www.w3.org/2000/svg" xmlns:xlink="http://www.w3.org/1999/xlink" width="70" height="70" fill="none" customFrame="#000000">
	<defs>
		<linearGradient id="paint_linear_126" x1="0.999996185" x2="49.9999886" y1="34.4961624" y2="34.4961853" gradientUnits="userSpaceOnUse">
			<stop stop-color="rgb(102,158,255)" offset="0" stop-opacity="1" />
			<stop stop-color="rgb(25,110,255)" offset="1" stop-opacity="1" />
		</linearGradient>
		<g id="pixso_custom_effect_42">
			<effect visibility="visible" effectType="backgroundBlur" saturation="0" stdDeviation="17.125164" />
		</g>
		<filter id="filter_42" width="33.2473907" height="33.2473907" x="36.3763123" y="29.3763123" filterUnits="userSpaceOnUse" customEffect="url(#pixso_custom_effect_42)" color-interpolation-filters="sRGB">
			<feFlood flood-opacity="0" result="BackgroundImageFix" />
			<feGaussianBlur stdDeviation="5.70838785" in="BackgroundImage" />
			<feComposite result="effect_backgroundBlur_1" in2="SourceAlpha" operator="in" />
			<feBlend result="shape" in="SourceGraphic" in2="effect_backgroundBlur_1" mode="normal" />
		</filter>
		<linearGradient id="paint_linear_127" x1="41.5000038" x2="63.4968872" y1="32.5" y2="55.9759903" gradientUnits="userSpaceOnUse">
			<stop stop-color="rgb(255,255,255)" offset="0" stop-opacity="0" />
			<stop stop-color="rgb(255,255,255)" offset="1" stop-opacity="1" />
		</linearGradient>
	</defs>
	<rect id="名称=本行转账" width="70" height="70" x="0" y="0" fill="rgb(255,255,255)" fill-opacity="0" />
	<g id="组合 1880">
		<g id="编组">
			<path id="形状" d="M4.96707 17.0172L23.4671 10.3549C24.7811 9.8817 26.2189 9.8817 27.5329 10.3549L46.0329 17.0172C48.4132 17.8743 50 20.1324 50 22.6623L50 25.5823C50 28.896 47.3137 31.5823 44 31.5823L7 31.5823C3.68629 31.5823 1 28.896 1 25.5823L1 22.6623C1 20.1324 2.58684 17.8743 4.96707 17.0172ZM24.5116 25.1093C23.2538 25.1093 22.2317 24.0837 22.2317 22.8172C22.2317 21.5493 23.2525 20.5216 24.5116 20.5216L24.5322 20.5216C25.3671 20.489 26.1529 20.9189 26.58 21.6421C27.0071 22.3652 27.0071 23.2657 26.58 23.9888C26.1529 24.7119 25.3671 25.1419 24.5322 25.1093L24.5116 25.1093ZM8.56954 46.9088L16.2057 46.9088C16.633 46.9088 16.8483 46.9088 16.9816 46.7711C17.1184 46.6369 17.1184 46.4235 17.1184 45.9899L17.1184 35.2071C17.1184 34.7735 17.1184 34.5567 16.9816 34.4224C16.8483 34.2882 16.633 34.2882 16.2057 34.2882L5.01465 34.2882C4.77925 34.2972 4.59099 34.4882 4.58397 34.7253L4.58397 46.3065C4.58397 46.8916 4.58397 47.1876 4.75487 47.3253C4.93262 47.4629 5.23342 47.3906 5.83843 47.2392C6.73225 47.0187 7.64928 46.9077 8.56954 46.9088ZM40.4711 46.9088C41.3925 46.9074 42.3107 47.0184 43.2056 47.2392C43.8107 47.3906 44.1115 47.4629 44.2892 47.3253C44.4601 47.1876 44.4601 46.8951 44.4601 46.3065L44.4601 34.7253C44.4499 34.4844 44.2687 34.2985 44.0294 34.2882L32.8384 34.2882C32.4111 34.2882 32.1957 34.2882 32.0624 34.4224C31.9257 34.5567 31.9257 34.7735 31.9257 35.2071L31.9257 45.9899C31.9257 46.4235 31.9257 46.6369 32.0624 46.7711C32.1957 46.9088 32.4111 46.9088 32.8384 46.9088L40.4711 46.9088ZM25.5001 49.8164L6.99998 49.8165C3.68628 49.8165 1 52.5028 1 55.8165L1 55.9923C1 57.6492 2.34315 58.9923 4 58.9923L48 58.9923C49.1046 58.9923 50 58.0969 50 56.9923L50 55.8165C50 52.5028 47.3137 49.8165 44 49.8165L25.5001 49.8164Z" fill="url(#paint_linear_126)" fill-rule="evenodd" />
		</g>
		<g id="编组">
			<g filter="url(#filter_42)">
				<rect id="矩形" width="32" height="32" x="37" y="30" rx="16" fill="url(#paint_linear_127)" />
				<rect id="矩形" width="32" height="32" x="37" y="30" rx="16" stroke="rgb(255,255,255)" stroke-width="1.24740005" />
			</g>
			<path id="矢量 70" d="M61.9706 45.2445C61.3476 45.2504 58.2928 43.5206 58.1963 43.4304C57.9643 43.2135 58.0519 42.9435 58.2887 42.9066C58.5255 42.8696 59.8549 42.7147 59.8549 42.7147C59.0378 40.5735 57.2147 38.8635 54.8218 38.3093C51.0027 37.4244 47.0533 39.9345 46.1804 43.7655C46.1729 43.7982 46.1201 44.1888 45.8038 44.1764C45.5896 44.168 44.8881 43.8945 44.6344 43.7778C44.3449 43.6447 44.2666 43.6791 44.3544 43.2505C45.3478 38.3802 50.4349 35.0979 55.3175 36.2209C59.3695 37.1528 62.1844 40.6002 62.4937 44.5282C62.5454 45.0546 62.2721 45.2416 61.9706 45.2445L61.9706 45.2445ZM55.5932 46.312C55.9943 46.312 56.3195 46.6305 56.3195 47.0241C56.3195 47.417 55.9943 47.7362 55.5932 47.7362L54.1407 47.7362L54.1407 48.6262C54.1407 49.1179 53.7343 49.5164 53.2329 49.5164C52.7314 49.5164 52.325 49.1179 52.325 48.6262L52.325 47.7362L50.8725 47.7362C50.4714 47.7362 50.1463 47.4169 50.1463 47.0241C50.1463 46.6304 50.4714 46.312 50.8725 46.312L52.325 46.312L52.325 45.5999L50.8725 45.5999C50.4714 45.5999 50.1463 45.2807 50.1463 44.8878C50.1463 44.4943 50.4714 44.1757 50.8725 44.1757L52.325 44.1757L52.325 44.127L50.7133 42.5471C50.4277 42.2669 50.4277 41.8128 50.7133 41.5329C50.9989 41.2529 51.4619 41.253 51.7476 41.5329L53.2206 42.9768L54.6995 41.5269C54.9851 41.2474 55.4481 41.2474 55.7337 41.5269C56.0194 41.8072 56.0194 42.2613 55.7337 42.5412L54.1408 44.103L54.1408 44.1757L55.5933 44.1757C55.9944 44.1757 56.3195 44.4942 56.3195 44.8878C56.3195 45.2808 55.9944 45.5999 55.5933 45.5999L54.1408 45.5999L54.1408 46.312L55.5933 46.312L55.5932 46.312ZM48.3071 47.3168C48.6257 47.5166 48.5489 47.9177 48.1988 47.9535C47.8487 47.9892 46.7523 48.0838 46.7523 48.0838C47.6214 50.0811 49.383 51.6558 51.6608 52.1833C55.4799 53.0678 59.3855 50.6791 60.2586 46.8481C60.2766 46.7695 60.276 46.7818 60.3072 46.6131C60.3385 46.4443 60.3891 46.1876 60.7253 46.3019C61.0615 46.4161 61.8816 46.6525 62.137 46.7195C62.3925 46.7864 62.3637 46.8852 62.3317 47.118C62.322 47.1887 62.3072 47.2536 62.2918 47.3217C61.1487 52.3029 56.1728 55.4103 51.1779 54.2611C47.1306 53.3303 44.3174 49.8905 44.0026 45.9684C43.9599 45.2945 44.4456 45.1569 44.942 45.4144C45.3325 45.6169 47.9884 47.1171 48.307 47.3168L48.3071 47.3168Z" fill="rgb(25,110,255)" fill-rule="nonzero" />
		</g>
	</g>
</svg>
