<svg viewBox="0 0 70 70" xmlns="http://www.w3.org/2000/svg" xmlns:xlink="http://www.w3.org/1999/xlink" width="70" height="70" fill="none" customFrame="#000000">
	<defs>
		<linearGradient id="paint_linear_134" x1="0.999995649" x2="56.9999886" y1="34.9997559" y2="34.9997787" gradientUnits="userSpaceOnUse">
			<stop stop-color="rgb(0,230,230)" offset="0" stop-opacity="1" />
			<stop stop-color="rgb(41,204,204)" offset="1" stop-opacity="1" />
		</linearGradient>
		<g id="pixso_custom_effect_46">
			<effect visibility="visible" effectType="backgroundBlur" saturation="0" stdDeviation="17.125164" />
		</g>
		<filter id="filter_46" width="33.2473755" height="33.2473907" x="36.3763123" y="29.3763123" filterUnits="userSpaceOnUse" customEffect="url(#pixso_custom_effect_46)" color-interpolation-filters="sRGB">
			<feFlood flood-opacity="0" result="BackgroundImageFix" />
			<feGaussianBlur stdDeviation="5.70838785" in="BackgroundImage" />
			<feComposite result="effect_backgroundBlur_1" in2="SourceAlpha" operator="in" />
			<feBlend result="shape" in="SourceGraphic" in2="effect_backgroundBlur_1" mode="normal" />
		</filter>
		<linearGradient id="paint_linear_135" x1="41.5000038" x2="63.4968872" y1="32.5" y2="55.9759903" gradientUnits="userSpaceOnUse">
			<stop stop-color="rgb(255,255,255)" offset="0" stop-opacity="0" />
			<stop stop-color="rgb(255,255,255)" offset="1" stop-opacity="1" />
		</linearGradient>
	</defs>
	<rect id="名称=账户管理" width="70" height="70" x="0" y="0" fill="rgb(255,255,255)" fill-opacity="0" />
	<g id="组合 1880">
		<path id="差集" d="M57 18.9998C57 15.686 54.3137 12.9998 51 12.9998L7 12.9998C3.68629 12.9998 1 15.686 1 18.9998L1 50.9998C1 54.3135 3.68629 56.9998 7 56.9998L51 56.9998C54.3137 56.9998 57 54.3135 57 50.9998L57 18.9998ZM31.291 47.6807C31.291 47.4219 31.5455 47.163 31.5455 46.6454L31.5455 44.0571C31.5455 43.7983 31.291 43.2807 31.291 43.0219C31.291 42.5042 30.7819 41.9866 30.5273 41.7277C30.2728 41.4689 29.7637 41.2101 29.2546 40.9513C28.7455 40.6924 28.2364 40.6924 27.7273 40.4336C27.2182 40.1748 26.7092 40.1748 26.2001 39.916C25.691 39.6572 25.1819 39.3983 24.9273 39.1395C24.4182 38.8807 24.4182 38.6219 24.1637 38.363C23.9092 38.1042 23.9092 37.8454 23.9092 37.5866L23.9092 36.8101C24.1637 36.2924 24.1637 36.0336 24.4182 35.7748C24.4182 35.516 24.9273 35.2572 25.1819 34.9983C25.4364 34.9983 25.691 34.7395 25.691 34.4807C25.691 34.2219 25.9455 33.963 25.9455 33.7042C25.9455 33.1866 26.2001 32.9277 26.2001 32.6689C26.4546 32.6689 26.4546 32.6689 26.7091 32.4101C26.9637 32.4101 27.2182 32.1513 27.2182 31.8925C27.4728 31.6336 27.4728 31.3748 27.4728 30.8572L27.4728 30.0807C27.4728 29.8219 27.2182 29.8219 27.2182 29.563C27.2182 29.563 27.2182 29.3042 26.9637 29.3042C26.9637 28.5277 26.7091 27.7513 26.7091 26.9748C26.7091 26.4572 26.4546 25.6807 26.2001 24.9042C25.9455 24.1277 25.691 23.3513 25.1819 22.8336C25.1819 22.5748 24.6728 22.316 24.4182 22.0572C23.9092 21.7983 23.4001 22.0572 22.891 21.7983C22.3819 21.5395 21.8728 21.2807 21.3637 21.2807C20.8546 21.0219 20.3455 21.0219 19.8364 21.0219L18.5637 21.0219C18.3091 21.0219 17.8001 21.0219 17.291 21.2807C16.7819 21.5395 16.2728 21.7983 16.0182 22.0572C15.5091 22.316 15.0001 22.8336 14.491 23.3513C14.2364 23.8689 13.9819 24.3866 13.7273 25.163C13.7273 25.9395 13.4728 26.4572 13.4728 26.9748L13.4728 29.0454C13.4728 29.0454 13.2182 29.3042 13.2182 29.563C12.9637 29.8219 13.2182 30.0807 12.9637 30.3395C12.794 30.5121 12.8506 30.6846 12.9071 30.8572C12.9354 30.9434 12.9637 31.0297 12.9637 31.116C12.9637 31.3748 12.9637 31.6336 13.2182 31.8925C13.2182 32.1513 13.4728 32.4101 13.4728 32.4101C13.7273 32.6689 13.7273 32.6689 13.9819 32.6689C13.9819 33.1866 14.2364 33.4454 14.2364 33.7042C14.2364 33.963 14.2364 34.2219 14.491 34.4807L15.7637 35.7748C16.0182 36.0336 16.2728 36.2924 16.2728 36.8101L16.2728 38.1042C16.0182 38.363 16.0182 38.6219 15.7637 38.8807C15.5091 39.1395 15.2546 39.3983 14.7455 39.6572C14.2364 40.1748 13.7273 40.4336 13.2182 40.6925C12.7091 40.6925 11.9455 40.9513 11.4364 41.2101C10.9273 41.2101 10.4182 41.7277 9.90914 41.9866Q9.72778 42.0788 9.58949 42.2148Q9.14551 42.6514 9.14551 43.5395L9.14551 46.6454C9.40005 47.4219 9.40005 47.6807 9.6546 47.9395C9.6546 47.9395 9.90915 48.1983 10.4182 48.1983C10.9273 48.1983 11.4364 48.4571 11.9455 48.4571C12.4546 48.4571 13.2182 48.716 13.9819 48.716C14.7455 48.716 15.5091 48.9748 16.2728 48.9748C17.0364 49.2336 17.8001 49.2336 18.5637 49.2336L22.3819 49.2336C23.1455 48.9748 23.9091 48.9748 24.6728 48.9748C25.4364 48.9748 26.2001 48.716 26.9637 48.716C27.7273 48.716 28.2364 48.4571 29.0001 48.4571C29.5091 48.4571 30.0182 48.4571 30.5273 48.1983C31.0364 47.9395 31.291 47.9395 31.291 47.6807ZM37.9091 28.5277L48.091 28.5277C48.8546 28.5277 49.3637 28.0101 49.3637 27.2336C49.3637 26.4572 48.8546 25.9395 48.091 25.9395L37.9091 25.9395C37.1455 25.9395 36.6364 26.4572 36.6364 27.2336C36.6364 28.0101 37.1455 28.5277 37.9091 28.5277ZM37.9091 36.2924L48.091 36.2924C48.8546 36.2924 49.3637 35.7748 49.3637 34.9983C49.3637 34.2219 48.8546 33.7042 48.091 33.7042L37.9091 33.7042C37.1455 33.7042 36.6364 34.2219 36.6364 34.9983C36.6364 35.7748 37.1455 36.2924 37.9091 36.2924ZM37.9091 44.0572L48.091 44.0572C48.8546 44.0572 49.3637 43.5395 49.3637 42.763C49.3637 41.9866 48.8546 41.4689 48.091 41.4689L37.9091 41.4689C37.1455 41.4689 36.6364 41.9866 36.6364 42.763C36.6364 43.5395 37.1455 44.0572 37.9091 44.0572Z" fill="url(#paint_linear_134)" fill-rule="evenodd" />
		<g id="编组">
			<g filter="url(#filter_46)">
				<rect id="矩形" width="32" height="32" x="37" y="30" rx="16" fill="url(#paint_linear_135)" />
				<rect id="矩形" width="32" height="32" x="37" y="30" rx="16" stroke="rgb(255,255,255)" stroke-width="1.24740005" />
			</g>
			<path id="合并" d="M49.6386 54.0064L47.1056 54.0064C46.8262 54.0072 46.5575 53.9542 46.2994 53.8474Q46.1059 53.7672 45.9352 53.6529Q45.7646 53.5386 45.6168 53.3901C45.5187 53.2927 45.4311 53.1865 45.354 53.0716C45.277 52.9567 45.212 52.8354 45.1591 52.7076C45.1061 52.5798 45.0663 52.4481 45.0395 52.3124C45.0127 52.1767 44.9996 52.0397 45 51.9014L45 49.3678C44.9994 49.0885 45.0526 48.8198 45.1595 48.5617Q45.2397 48.3682 45.354 48.1975L45.354 48.1975Q45.4683 48.0268 45.6168 47.879L54.7504 38.7444C54.8686 38.6259 54.9973 38.5201 55.1365 38.4271C55.2757 38.3341 55.4227 38.2557 55.5774 38.1918C55.7321 38.1279 55.8916 38.0799 56.0559 38.0476Q56.1791 38.0233 56.3035 38.0115L56.3036 38.0115Q56.4279 37.9996 56.5534 38C56.7207 37.9994 56.8864 38.0153 57.0506 38.0476C57.2148 38.0798 57.3742 38.1279 57.5289 38.1918C57.6835 38.2557 57.8304 38.3341 57.9695 38.4271C58.1086 38.5201 58.2372 38.6259 58.3553 38.7444L60.2482 40.6362C60.3677 40.7552 60.4745 40.8848 60.5684 41.025C60.6622 41.1651 60.7414 41.3132 60.806 41.4691C60.8705 41.6249 60.9191 41.7856 60.9517 41.9512C60.9844 42.1167 61.0005 42.2838 61 42.4525C61.0004 42.6211 60.9843 42.7881 60.9517 42.9535C60.919 43.1189 60.8705 43.2795 60.806 43.4353C60.7415 43.5911 60.6624 43.739 60.5686 43.8791C60.4748 44.0192 60.3682 44.1488 60.2487 44.2677L51.1263 53.3891C50.9295 53.5871 50.7021 53.7397 50.4442 53.8467C50.1864 53.9537 49.9178 54.0069 49.6386 54.0064ZM47.1273 51.879L49.6386 51.879L55.4588 46.0538L52.9704 43.5331L47.121 49.3832L47.1273 51.879ZM54.4741 42.0293L56.9612 44.55L58.745 42.7646C58.8313 42.6784 58.8742 42.5744 58.8737 42.4525C58.8742 42.3304 58.8312 42.2264 58.7445 42.1404L56.8522 40.2486C56.77 40.1657 56.6706 40.1244 56.5539 40.1247C56.4369 40.1244 56.3371 40.1657 56.2546 40.2486L54.4741 42.0293Z" opacity="0" fill="rgb(41,204,204)" fill-rule="evenodd" />
			<path id="合并" d="M58.9945 52.1721C58.9251 52.3078 58.8468 52.4381 58.7595 52.563C58.6722 52.6879 58.5768 52.8063 58.4732 52.9181C58.3696 53.0299 58.2589 53.134 58.141 53.2306C58.0231 53.3272 57.8992 53.4152 57.7692 53.4947C57.6392 53.5743 57.5044 53.6445 57.3647 53.7055C57.225 53.7665 57.0819 53.8176 56.9352 53.8589C56.8619 53.8795 56.7881 53.8976 56.7137 53.9131L56.7133 53.9132L56.7129 53.9133C56.6387 53.9288 56.5639 53.9417 56.4887 53.9521C56.3377 53.9729 56.186 53.9833 56.0336 53.9833L50.021 53.9833C49.8698 53.9833 49.7193 53.973 49.5695 53.9524C49.4197 53.9318 49.272 53.9012 49.1264 53.8605C48.9807 53.8198 48.8385 53.7694 48.6998 53.7093C48.561 53.6491 48.427 53.5799 48.2977 53.5015C48.1684 53.4231 48.0451 53.3362 47.9276 53.241C47.8102 53.1458 47.6997 53.043 47.5963 52.9327C47.4929 52.8224 47.3974 52.7056 47.3099 52.5822C47.2224 52.4589 47.1437 52.3302 47.0738 52.1961L44.3774 47.0301C44.3156 46.9118 44.2612 46.7902 44.2141 46.6653C44.1905 46.6029 44.1689 46.5399 44.1491 46.4763C44.1294 46.4127 44.1116 46.3484 44.0957 46.2837C44.0639 46.1541 44.04 46.023 44.024 45.8905C44.008 45.758 44 45.6251 44 45.4916C44 45.3582 44.008 45.2252 44.024 45.0928C44.04 44.9603 44.0639 44.8292 44.0957 44.6996C44.1275 44.57 44.167 44.4428 44.2141 44.3179C44.2612 44.1931 44.3156 44.0715 44.3774 43.9532L47.0738 38.7861C47.1088 38.7191 47.1459 38.6535 47.1853 38.5891L47.1853 38.5891L47.1854 38.589C47.2247 38.5247 47.2663 38.4618 47.31 38.4002C47.3975 38.2769 47.493 38.1601 47.5964 38.0498C47.6481 37.9947 47.7016 37.9415 47.7568 37.8902L47.7568 37.8901L47.7568 37.8901C47.8121 37.8388 47.8691 37.7893 47.9278 37.7417C48.0452 37.6465 48.1686 37.5597 48.2979 37.4814C48.4272 37.403 48.5612 37.3338 48.7 37.2737C48.8387 37.2136 48.9809 37.1633 49.1265 37.1226C49.1993 37.1023 49.2726 37.0844 49.3464 37.0691C49.4203 37.0538 49.4947 37.041 49.5696 37.0308C49.7194 37.0103 49.8699 37 50.021 37L56.0336 37C57.2826 37 58.4259 37.7002 58.9945 38.8112L61.6355 43.9783C62.1215 44.9294 62.1215 46.055 61.6355 47.005L58.9945 52.1721ZM60.4723 44.5719L57.8313 39.4059C57.7891 39.3235 57.7416 39.2444 57.6886 39.1686C57.6356 39.0927 57.5777 39.0209 57.5148 38.953C57.4519 38.8851 57.3847 38.8219 57.3131 38.7632C57.2415 38.7046 57.1663 38.6512 57.0873 38.6029C57.0084 38.5546 56.9266 38.512 56.8418 38.475C56.757 38.4379 56.67 38.4069 56.581 38.3818C56.4919 38.3568 56.4016 38.3379 56.3099 38.3253C56.2183 38.3127 56.1262 38.3064 56.0336 38.3064L50.021 38.3064C49.2686 38.3064 48.5788 38.7245 48.2318 39.3912L45.5354 44.5573C45.46 44.7015 45.403 44.8526 45.3642 45.0106C45.3254 45.1686 45.3061 45.3289 45.3061 45.4916C45.3061 45.6543 45.3254 45.8147 45.3642 45.9727C45.3836 46.0517 45.4076 46.129 45.4361 46.2045C45.4646 46.2801 45.4977 46.3539 45.5354 46.426L48.2318 51.592C48.2742 51.6734 48.322 51.7516 48.3751 51.8264C48.4283 51.9013 48.4862 51.9722 48.549 52.0392C48.6118 52.1061 48.6788 52.1685 48.7501 52.2263C48.8214 52.2842 48.8963 52.3369 48.9748 52.3845C49.0533 52.432 49.1347 52.4741 49.2189 52.5106C49.3032 52.5471 49.3895 52.5777 49.4779 52.6024C49.5663 52.6271 49.656 52.6457 49.7469 52.6582C49.8379 52.6706 49.9292 52.6769 50.021 52.6769L56.0336 52.6769C56.7924 52.6769 57.4864 52.2525 57.8313 51.5774L60.4723 46.4103C60.545 46.2681 60.6 46.1194 60.6374 45.9641C60.6748 45.8088 60.6935 45.6513 60.6935 45.4916C60.6935 45.3319 60.6748 45.1744 60.6374 45.0192C60.6 44.8639 60.545 44.7152 60.4723 44.573L60.4723 44.5719ZM52.6282 49.2621C52.7517 49.2742 52.8756 49.2803 52.9997 49.2802C53.0616 49.2802 53.1234 49.2787 53.1852 49.2756C53.2472 49.2725 53.3091 49.268 53.3709 49.2619C53.4944 49.2497 53.6169 49.2314 53.7386 49.2072C53.8603 49.183 53.9804 49.1528 54.0991 49.1168C54.2178 49.0807 54.3345 49.039 54.4491 48.9915C54.5637 48.944 54.6757 48.8909 54.7851 48.8324C54.8398 48.8032 54.8938 48.7726 54.9469 48.7407C55 48.7089 55.0523 48.6757 55.1039 48.6413C55.207 48.5723 55.3065 48.4985 55.4024 48.4198C55.4983 48.3411 55.59 48.2578 55.6777 48.1701C55.7654 48.0824 55.8486 47.9906 55.9273 47.8946C56.006 47.7987 56.0798 47.6992 56.1487 47.5961C56.2176 47.4929 56.2813 47.3866 56.3398 47.2772C56.3982 47.1678 56.4512 47.0558 56.4987 46.9412C56.5461 46.8265 56.5879 46.7099 56.6239 46.5912C56.6599 46.4725 56.69 46.3523 56.7142 46.2306C56.7384 46.1089 56.7565 45.9864 56.7687 45.8629C56.7809 45.7394 56.7869 45.6157 56.7869 45.4916C56.7869 45.3676 56.7809 45.2438 56.7687 45.1204C56.7565 44.9969 56.7384 44.8744 56.7142 44.7527C56.69 44.631 56.6599 44.5108 56.6239 44.3921C56.5879 44.2734 56.5461 44.1567 56.4987 44.0421C56.4749 43.9848 56.4498 43.9281 56.4233 43.872C56.3968 43.816 56.369 43.7607 56.3398 43.7061C56.3105 43.6514 56.28 43.5974 56.2481 43.5443C56.2163 43.4911 56.1832 43.4388 56.1487 43.3872C56.0798 43.2841 56.006 43.1845 55.9273 43.0886C55.8486 42.9927 55.7654 42.9009 55.6777 42.8132C55.59 42.7254 55.4983 42.6422 55.4024 42.5635C55.3065 42.4848 55.207 42.4109 55.1039 42.342C55.0007 42.2731 54.8945 42.2093 54.7851 42.1508C54.6757 42.0923 54.5637 42.0393 54.4491 41.9918C54.3345 41.9443 54.2178 41.9025 54.0991 41.8665C53.9804 41.8305 53.8603 41.8003 53.7386 41.7761C53.6169 41.7518 53.4944 41.7336 53.3709 41.7214C53.3091 41.7153 53.2472 41.7107 53.1852 41.7077C53.1234 41.7046 53.0616 41.7031 52.9997 41.7031C52.8756 41.703 52.7517 41.7091 52.6282 41.7212C52.5047 41.7333 52.3821 41.7515 52.2604 41.7756C52.1386 41.7998 52.0184 41.8299 51.8996 41.8659C51.7808 41.9019 51.6641 41.9436 51.5494 41.9911C51.4348 42.0385 51.3227 42.0915 51.2132 42.15C51.1038 42.2085 50.9974 42.2722 50.8942 42.3411C50.791 42.41 50.6914 42.4838 50.5955 42.5626C50.4995 42.6413 50.4077 42.7245 50.3199 42.8122C50.2321 42.9 50.1489 42.9918 50.0701 43.0877C49.9914 43.1837 49.9175 43.2832 49.8485 43.3864C49.7796 43.4896 49.7158 43.5959 49.6573 43.7054C49.5988 43.8148 49.5458 43.9269 49.4983 44.0415C49.4508 44.1562 49.409 44.2729 49.373 44.3916C49.337 44.5104 49.3068 44.6306 49.2826 44.7524C49.2584 44.8741 49.2402 44.9967 49.228 45.1202C49.2159 45.2437 49.2098 45.3675 49.2098 45.4916C49.2098 45.6157 49.2159 45.7396 49.228 45.8631C49.2402 45.9866 49.2584 46.1092 49.2826 46.2309C49.3068 46.3526 49.337 46.4729 49.373 46.5916C49.409 46.7104 49.4508 46.8271 49.4983 46.9418C49.5458 47.0564 49.5988 47.1685 49.6573 47.2779C49.7158 47.3874 49.7796 47.4937 49.8485 47.5969C49.8831 47.6485 49.9188 47.6993 49.9558 47.7491C49.9927 47.7988 50.0308 47.8476 50.0701 47.8955C50.1489 47.9915 50.2321 48.0833 50.3199 48.171C50.4077 48.2588 50.4995 48.342 50.5955 48.4207C50.6914 48.4994 50.791 48.5732 50.8942 48.6422C50.9974 48.7111 51.1038 48.7748 51.2132 48.8333C51.268 48.8625 51.3234 48.8904 51.3794 48.9169C51.4355 48.9434 51.4921 48.9685 51.5494 48.9922C51.6641 49.0397 51.7808 49.0814 51.8996 49.1174C52.0184 49.1534 52.1386 49.1835 52.2604 49.2076C52.3821 49.2318 52.5047 49.25 52.6282 49.2621ZM53.243 47.9619C53.1621 47.9698 53.081 47.9738 52.9997 47.9738C52.9591 47.9738 52.9186 47.9728 52.8782 47.9708C52.8375 47.9688 52.7969 47.9659 52.7564 47.9619C52.6755 47.9539 52.5951 47.942 52.5154 47.9261C52.4357 47.9103 52.3569 47.8905 52.2791 47.8669C52.2013 47.8433 52.1249 47.816 52.0498 47.7849C51.9747 47.7538 51.9013 47.719 51.8296 47.6807C51.7579 47.6424 51.6882 47.6007 51.6206 47.5555C51.5531 47.5103 51.4878 47.462 51.425 47.4104C51.3935 47.3846 51.3628 47.358 51.3327 47.3307C51.3026 47.3035 51.2732 47.2755 51.2445 47.2468C51.187 47.1893 51.1325 47.1292 51.0809 47.0663C51.0293 47.0035 50.981 46.9383 50.9358 46.8707C50.8906 46.8031 50.8489 46.7334 50.8106 46.6617C50.7723 46.59 50.7375 46.5166 50.7064 46.4415C50.6753 46.3664 50.648 46.29 50.6244 46.2122C50.6008 46.1344 50.581 46.0556 50.5652 45.9759C50.5493 45.8962 50.5374 45.8158 50.5294 45.7349C50.5215 45.654 50.5175 45.5729 50.5175 45.4916C50.5175 45.4508 50.5185 45.4101 50.5205 45.3694C50.5225 45.329 50.5255 45.2886 50.5294 45.2483C50.5374 45.1674 50.5493 45.0871 50.5652 45.0074C50.581 44.9277 50.6008 44.8489 50.6244 44.7711C50.648 44.6933 50.6753 44.6169 50.7064 44.5418C50.7375 44.4666 50.7723 44.3932 50.8106 44.3216C50.8489 44.2499 50.8906 44.1802 50.9358 44.1126C50.9584 44.0788 50.9817 44.0457 51.0059 44.0131C51.0301 43.9804 51.0551 43.9484 51.0809 43.917C51.1325 43.8541 51.187 43.794 51.2445 43.7365C51.302 43.679 51.3622 43.6245 51.425 43.5729C51.4878 43.5213 51.5531 43.473 51.6206 43.4278C51.6882 43.3826 51.7579 43.3409 51.8296 43.3026C51.9013 43.2642 51.9747 43.2295 52.0498 43.1984C52.1249 43.1673 52.2013 43.1399 52.2791 43.1163C52.3569 43.0928 52.4357 43.073 52.5154 43.0572C52.5951 43.0413 52.6755 43.0294 52.7564 43.0214C52.8373 43.0135 52.9184 43.0095 52.9997 43.0095C53.0402 43.0095 53.0807 43.0105 53.1211 43.0124C53.1618 43.0144 53.2024 43.0174 53.243 43.0214C53.3239 43.0294 53.4042 43.0413 53.4839 43.0572C53.5636 43.073 53.6424 43.0928 53.7202 43.1163C53.798 43.1399 53.8744 43.1673 53.9496 43.1984C54.0247 43.2295 54.0981 43.2642 54.1698 43.3026C54.2414 43.3409 54.3111 43.3826 54.3787 43.4278C54.4463 43.473 54.5115 43.5213 54.5743 43.5729C54.6372 43.6245 54.6973 43.679 54.7548 43.7365C54.8123 43.794 54.8668 43.8541 54.9184 43.917C54.97 43.9798 55.0183 44.045 55.0635 44.1126C55.1087 44.1802 55.1504 44.2499 55.1887 44.3216C55.2271 44.3932 55.2618 44.4666 55.2929 44.5418C55.324 44.6169 55.3514 44.6933 55.375 44.7711C55.3986 44.8489 55.4183 44.9277 55.4341 45.0074C55.45 45.0871 55.4619 45.1674 55.4699 45.2483C55.4779 45.3292 55.4818 45.4103 55.4818 45.4916C55.4818 45.5322 55.4808 45.5727 55.4789 45.6131C55.4769 45.6538 55.4739 45.6944 55.4699 45.7349C55.4619 45.8158 55.45 45.8962 55.4341 45.9759C55.4183 46.0556 55.3986 46.1344 55.375 46.2122C55.3514 46.29 55.324 46.3664 55.2929 46.4415C55.2618 46.5166 55.2271 46.59 55.1887 46.6617C55.1504 46.7334 55.1087 46.8031 55.0635 46.8707C55.0183 46.9383 54.97 47.0035 54.9184 47.0663C54.8668 47.1292 54.8123 47.1893 54.7548 47.2468C54.6973 47.3043 54.6372 47.3588 54.5743 47.4104C54.5115 47.462 54.4463 47.5103 54.3787 47.5555C54.3111 47.6007 54.2414 47.6424 54.1698 47.6807C54.0981 47.719 54.0247 47.7538 53.9496 47.7849C53.8744 47.816 53.798 47.8433 53.7202 47.8669C53.6424 47.8905 53.5636 47.9103 53.4839 47.9261C53.4042 47.942 53.3239 47.9539 53.243 47.9619Z" opacity="0" fill="rgb(41,204,204)" fill-rule="evenodd" />
			<path id="合并" d="M58.7595 52.563C58.6722 52.6879 58.5768 52.8063 58.4732 52.9181C58.3696 53.0299 58.2589 53.134 58.141 53.2306C58.0231 53.3272 57.8992 53.4152 57.7692 53.4947C57.6392 53.5743 57.5044 53.6445 57.3647 53.7055C57.225 53.7665 57.0819 53.8176 56.9352 53.8589C56.8619 53.8795 56.7881 53.8976 56.7137 53.9131L56.7133 53.9132L56.7129 53.9133C56.6387 53.9288 56.5639 53.9417 56.4887 53.9521C56.3377 53.9729 56.186 53.9833 56.0336 53.9833L50.021 53.9833C49.8698 53.9833 49.7193 53.973 49.5695 53.9524C49.4197 53.9318 49.272 53.9012 49.1264 53.8605C48.9807 53.8198 48.8385 53.7694 48.6998 53.7093C48.561 53.6491 48.427 53.5799 48.2977 53.5015C48.1684 53.4231 48.0451 53.3362 47.9276 53.241C47.8102 53.1458 47.6997 53.043 47.5963 52.9327C47.4929 52.8224 47.3974 52.7056 47.3099 52.5822C47.2224 52.4589 47.1437 52.3302 47.0738 52.1961L44.3774 47.0301C44.3156 46.9118 44.2612 46.7902 44.2141 46.6653C44.1905 46.6029 44.1689 46.5399 44.1491 46.4763C44.1294 46.4127 44.1116 46.3484 44.0957 46.2837C44.0639 46.1541 44.04 46.023 44.024 45.8905C44.008 45.758 44 45.6251 44 45.4916C44 45.3582 44.008 45.2252 44.024 45.0928C44.04 44.9603 44.0639 44.8292 44.0957 44.6996C44.1275 44.57 44.167 44.4428 44.2141 44.3179C44.2612 44.1931 44.3156 44.0715 44.3774 43.9532L47.0738 38.7861C47.1088 38.7191 47.1459 38.6535 47.1853 38.5891L47.1853 38.5891L47.1854 38.589C47.2247 38.5247 47.2663 38.4618 47.31 38.4002C47.3975 38.2769 47.493 38.1601 47.5964 38.0498C47.6481 37.9947 47.7016 37.9415 47.7568 37.8902L47.7568 37.8901L47.7568 37.8901C47.8121 37.8388 47.8691 37.7893 47.9278 37.7417C48.0452 37.6465 48.1686 37.5597 48.2979 37.4814C48.4272 37.403 48.5612 37.3338 48.7 37.2737C48.8387 37.2136 48.9809 37.1633 49.1265 37.1226C49.1993 37.1023 49.2726 37.0844 49.3464 37.0691C49.4203 37.0538 49.4947 37.041 49.5696 37.0308C49.7194 37.0103 49.8699 37 50.021 37L56.0336 37C57.2826 37 58.4259 37.7002 58.9945 38.8112L61.6355 43.9783C62.1215 44.9294 62.1215 46.055 61.6355 47.005L58.9945 52.1721C58.9251 52.3078 58.8468 52.4381 58.7595 52.563ZM57.8313 39.4059C57.7891 39.3235 57.7416 39.2444 57.6886 39.1686C57.6356 39.0927 57.5777 39.0209 57.5148 38.953C57.4519 38.8851 57.3847 38.8219 57.3131 38.7632C57.2415 38.7046 57.1663 38.6512 57.0873 38.6029C57.0084 38.5546 56.9266 38.512 56.8418 38.475C56.757 38.4379 56.67 38.4069 56.581 38.3818C56.4919 38.3568 56.4016 38.3379 56.3099 38.3253C56.2183 38.3127 56.1262 38.3064 56.0336 38.3064L50.021 38.3064C49.2686 38.3064 48.5788 38.7245 48.2318 39.3912L45.5354 44.5573C45.46 44.7015 45.403 44.8526 45.3642 45.0106C45.3254 45.1686 45.3061 45.3289 45.3061 45.4916C45.3061 45.6543 45.3254 45.8147 45.3642 45.9727C45.3836 46.0517 45.4076 46.129 45.4361 46.2045C45.4646 46.2801 45.4977 46.3539 45.5354 46.426L48.2318 51.592C48.2742 51.6734 48.322 51.7516 48.3751 51.8264C48.4283 51.9013 48.4862 51.9722 48.549 52.0392C48.6118 52.1061 48.6788 52.1685 48.7501 52.2263C48.8214 52.2842 48.8963 52.3369 48.9748 52.3845C49.0533 52.432 49.1347 52.4741 49.2189 52.5106C49.3032 52.5471 49.3895 52.5777 49.4779 52.6024C49.5663 52.6271 49.656 52.6457 49.7469 52.6582C49.8379 52.6706 49.9292 52.6769 50.021 52.6769L56.0336 52.6769C56.7924 52.6769 57.4864 52.2525 57.8313 51.5774L60.4723 46.4103C60.545 46.2681 60.6 46.1194 60.6374 45.9641C60.6748 45.8088 60.6935 45.6513 60.6935 45.4916C60.6935 45.3319 60.6748 45.1744 60.6374 45.0192C60.6 44.8639 60.545 44.7152 60.4723 44.573L60.4723 44.5719L57.8313 39.4059ZM52.9997 49.2802C53.0616 49.2802 53.1234 49.2787 53.1852 49.2756C53.2472 49.2725 53.3091 49.268 53.3709 49.2619C53.4944 49.2497 53.6169 49.2314 53.7386 49.2072C53.8603 49.183 53.9804 49.1528 54.0991 49.1168C54.2178 49.0807 54.3345 49.039 54.4491 48.9915C54.5637 48.944 54.6757 48.8909 54.7851 48.8324C54.8398 48.8032 54.8938 48.7726 54.9469 48.7407C55 48.7089 55.0523 48.6757 55.1039 48.6413C55.207 48.5723 55.3065 48.4985 55.4024 48.4198C55.4983 48.3411 55.59 48.2578 55.6777 48.1701C55.7654 48.0824 55.8486 47.9906 55.9273 47.8946C56.006 47.7987 56.0798 47.6992 56.1487 47.5961C56.2176 47.4929 56.2813 47.3866 56.3398 47.2772C56.3982 47.1678 56.4512 47.0558 56.4987 46.9412C56.5461 46.8265 56.5879 46.7099 56.6239 46.5912C56.6599 46.4725 56.69 46.3523 56.7142 46.2306C56.7384 46.1089 56.7565 45.9864 56.7687 45.8629C56.7809 45.7394 56.7869 45.6157 56.7869 45.4916C56.7869 45.3676 56.7809 45.2438 56.7687 45.1204C56.7565 44.9969 56.7384 44.8744 56.7142 44.7527C56.69 44.631 56.6599 44.5108 56.6239 44.3921C56.5879 44.2734 56.5461 44.1567 56.4987 44.0421C56.4749 43.9848 56.4498 43.9281 56.4233 43.872C56.3968 43.816 56.369 43.7607 56.3398 43.7061C56.3105 43.6514 56.28 43.5974 56.2481 43.5443C56.2163 43.4911 56.1832 43.4388 56.1487 43.3872C56.0798 43.2841 56.006 43.1845 55.9273 43.0886C55.8486 42.9927 55.7654 42.9009 55.6777 42.8132C55.59 42.7254 55.4983 42.6422 55.4024 42.5635C55.3065 42.4848 55.207 42.4109 55.1039 42.342C55.0007 42.2731 54.8945 42.2093 54.7851 42.1508C54.6757 42.0923 54.5637 42.0393 54.4491 41.9918C54.3345 41.9443 54.2178 41.9025 54.0991 41.8665C53.9804 41.8305 53.8603 41.8003 53.7386 41.7761C53.6169 41.7518 53.4944 41.7336 53.3709 41.7214C53.3091 41.7153 53.2472 41.7107 53.1852 41.7077C53.1234 41.7046 53.0616 41.7031 52.9997 41.7031C52.8756 41.703 52.7517 41.7091 52.6282 41.7212C52.5047 41.7333 52.3821 41.7515 52.2604 41.7756C52.1386 41.7998 52.0184 41.8299 51.8996 41.8659C51.7808 41.9019 51.6641 41.9436 51.5494 41.9911C51.4348 42.0385 51.3227 42.0915 51.2132 42.15C51.1038 42.2085 50.9974 42.2722 50.8942 42.3411C50.791 42.41 50.6914 42.4838 50.5955 42.5626C50.4995 42.6413 50.4077 42.7245 50.3199 42.8122C50.2321 42.9 50.1489 42.9918 50.0701 43.0877C49.9914 43.1837 49.9175 43.2832 49.8485 43.3864C49.7796 43.4896 49.7158 43.5959 49.6573 43.7054C49.5988 43.8148 49.5458 43.9269 49.4983 44.0415C49.4508 44.1562 49.409 44.2729 49.373 44.3916C49.337 44.5104 49.3068 44.6306 49.2826 44.7524C49.2584 44.8741 49.2402 44.9967 49.228 45.1202C49.2159 45.2437 49.2098 45.3675 49.2098 45.4916C49.2098 45.6157 49.2159 45.7396 49.228 45.8631C49.2402 45.9866 49.2584 46.1092 49.2826 46.2309C49.3068 46.3526 49.337 46.4729 49.373 46.5916C49.409 46.7104 49.4508 46.8271 49.4983 46.9418C49.5458 47.0564 49.5988 47.1685 49.6573 47.2779C49.7158 47.3874 49.7796 47.4937 49.8485 47.5969C49.8831 47.6485 49.9188 47.6993 49.9558 47.7491C49.9927 47.7988 50.0308 47.8476 50.0701 47.8955C50.1489 47.9915 50.2321 48.0833 50.3199 48.171C50.4077 48.2588 50.4995 48.342 50.5955 48.4207C50.6914 48.4994 50.791 48.5732 50.8942 48.6422C50.9974 48.7111 51.1038 48.7748 51.2132 48.8333C51.268 48.8625 51.3234 48.8904 51.3794 48.9169C51.4355 48.9434 51.4921 48.9685 51.5494 48.9922C51.6641 49.0397 51.7808 49.0814 51.8996 49.1174C52.0184 49.1534 52.1386 49.1835 52.2604 49.2076C52.3821 49.2318 52.5047 49.25 52.6282 49.2621C52.7517 49.2742 52.8756 49.2803 52.9997 49.2802ZM52.9997 47.9738C52.9591 47.9738 52.9186 47.9728 52.8782 47.9708C52.8375 47.9688 52.7969 47.9659 52.7564 47.9619C52.6755 47.9539 52.5951 47.942 52.5154 47.9261C52.4357 47.9103 52.3569 47.8905 52.2791 47.8669C52.2013 47.8433 52.1249 47.816 52.0498 47.7849C51.9747 47.7538 51.9013 47.719 51.8296 47.6807C51.7579 47.6424 51.6882 47.6007 51.6206 47.5555C51.5531 47.5103 51.4878 47.462 51.425 47.4104C51.3935 47.3846 51.3628 47.358 51.3327 47.3307C51.3026 47.3035 51.2732 47.2755 51.2445 47.2468C51.187 47.1893 51.1325 47.1292 51.0809 47.0663C51.0293 47.0035 50.981 46.9383 50.9358 46.8707C50.8906 46.8031 50.8489 46.7334 50.8106 46.6617C50.7723 46.59 50.7375 46.5166 50.7064 46.4415C50.6753 46.3664 50.648 46.29 50.6244 46.2122C50.6008 46.1344 50.581 46.0556 50.5652 45.9759C50.5493 45.8962 50.5374 45.8158 50.5294 45.7349C50.5215 45.654 50.5175 45.5729 50.5175 45.4916C50.5175 45.4508 50.5185 45.4101 50.5205 45.3694C50.5225 45.329 50.5255 45.2886 50.5294 45.2483C50.5374 45.1674 50.5493 45.0871 50.5652 45.0074C50.581 44.9277 50.6008 44.8489 50.6244 44.7711C50.648 44.6933 50.6753 44.6169 50.7064 44.5418C50.7375 44.4666 50.7723 44.3932 50.8106 44.3216C50.8489 44.2499 50.8906 44.1802 50.9358 44.1126C50.9584 44.0788 50.9817 44.0457 51.0059 44.0131C51.0301 43.9804 51.0551 43.9484 51.0809 43.917C51.1325 43.8541 51.187 43.794 51.2445 43.7365C51.302 43.679 51.3622 43.6245 51.425 43.5729C51.4878 43.5213 51.5531 43.473 51.6206 43.4278C51.6882 43.3826 51.7579 43.3409 51.8296 43.3026C51.9013 43.2642 51.9747 43.2295 52.0498 43.1984C52.1249 43.1673 52.2013 43.1399 52.2791 43.1163C52.3569 43.0928 52.4357 43.073 52.5154 43.0572C52.5951 43.0413 52.6755 43.0294 52.7564 43.0214C52.8373 43.0135 52.9184 43.0095 52.9997 43.0095C53.0402 43.0095 53.0807 43.0105 53.1211 43.0124C53.1618 43.0144 53.2024 43.0174 53.243 43.0214C53.3239 43.0294 53.4042 43.0413 53.4839 43.0572C53.5636 43.073 53.6424 43.0928 53.7202 43.1163C53.798 43.1399 53.8744 43.1673 53.9496 43.1984C54.0247 43.2295 54.0981 43.2642 54.1698 43.3026C54.2414 43.3409 54.3111 43.3826 54.3787 43.4278C54.4463 43.473 54.5115 43.5213 54.5743 43.5729C54.6372 43.6245 54.6973 43.679 54.7548 43.7365C54.8123 43.794 54.8668 43.8541 54.9184 43.917C54.97 43.9798 55.0183 44.045 55.0635 44.1126C55.1087 44.1802 55.1504 44.2499 55.1887 44.3216C55.2271 44.3932 55.2618 44.4666 55.2929 44.5418C55.324 44.6169 55.3514 44.6933 55.375 44.7711C55.3986 44.8489 55.4183 44.9277 55.4341 45.0074C55.45 45.0871 55.4619 45.1674 55.4699 45.2483C55.4779 45.3292 55.4818 45.4103 55.4818 45.4916C55.4818 45.5322 55.4808 45.5727 55.4789 45.6131C55.4769 45.6538 55.4739 45.6944 55.4699 45.7349C55.4619 45.8158 55.45 45.8962 55.4341 45.9759C55.4183 46.0556 55.3986 46.1344 55.375 46.2122C55.3514 46.29 55.324 46.3664 55.2929 46.4415C55.2618 46.5166 55.2271 46.59 55.1887 46.6617C55.1504 46.7334 55.1087 46.8031 55.0635 46.8707C55.0183 46.9383 54.97 47.0035 54.9184 47.0663C54.8668 47.1292 54.8123 47.1893 54.7548 47.2468C54.6973 47.3043 54.6372 47.3588 54.5743 47.4104C54.5115 47.462 54.4463 47.5103 54.3787 47.5555C54.3111 47.6007 54.2414 47.6424 54.1698 47.6807C54.0981 47.719 54.0247 47.7538 53.9496 47.7849C53.8744 47.816 53.798 47.8433 53.7202 47.8669C53.6424 47.8905 53.5636 47.9103 53.4839 47.9261C53.4042 47.942 53.3239 47.9539 53.243 47.9619C53.1621 47.9698 53.081 47.9738 52.9997 47.9738Z" opacity="0" fill-rule="evenodd" stroke="rgb(41,204,204)" stroke-width="1.20000005" />
			<path id="矢量 84" d="M58.9943 52.1721C58.925 52.3079 58.8466 52.438 58.7595 52.563C58.6721 52.688 58.5766 52.8062 58.4731 52.918C58.3696 53.0298 58.259 53.134 58.1411 53.2307C58.0231 53.3271 57.8991 53.4153 57.7692 53.4946C57.6391 53.5742 57.5043 53.6445 57.3647 53.7056C57.2251 53.7664 57.0817 53.8176 56.935 53.8589C56.8618 53.8796 56.788 53.8977 56.7136 53.9131L56.7133 53.9133L56.7128 53.9133C56.6386 53.9287 56.5639 53.9417 56.4887 53.9521C56.3376 53.9729 56.186 53.9834 56.0336 53.9834L50.021 53.9834C49.8699 53.9832 49.7192 53.9729 49.5696 53.9524C49.4197 53.9319 49.272 53.9011 49.1264 53.8606C48.9807 53.8198 48.8386 53.7693 48.6997 53.7092C48.561 53.6492 48.427 53.5798 48.2976 53.5015C48.1684 53.4231 48.0452 53.3362 47.9275 53.241C47.81 53.1458 47.6997 53.043 47.5962 52.9326C47.4929 52.8223 47.3974 52.7056 47.3098 52.5823C47.2224 52.459 47.1438 52.3301 47.0737 52.196L44.3774 47.03C44.3157 46.9119 44.2612 46.7903 44.2141 46.6653C44.1904 46.603 44.1689 46.5398 44.1492 46.4763C44.1294 46.4126 44.1116 46.3484 44.0957 46.2837C44.064 46.1541 44.04 46.0229 44.0239 45.8906C44.0081 45.7581 44 45.625 44 45.4917C44 45.3582 44.0081 45.2253 44.0239 45.0928C44.04 44.9602 44.064 44.8293 44.0957 44.6997C44.1274 44.5701 44.167 44.4429 44.2141 44.3179C44.2612 44.1931 44.3157 44.0715 44.3774 43.9531L47.0737 38.7861C47.1089 38.7192 47.146 38.6536 47.1853 38.5891L47.1853 38.5891L47.1853 38.5891C47.2246 38.5247 47.2663 38.4617 47.31 38.4001C47.3974 38.2769 47.4929 38.1602 47.5964 38.0498C47.6482 37.9946 47.7016 37.9414 47.7568 37.8901L47.7568 37.8901L47.7568 37.8901C47.812 37.8389 47.8691 37.7893 47.9277 37.7417C48.0452 37.6465 48.1687 37.5598 48.2978 37.4814C48.4272 37.4031 48.5613 37.3337 48.6999 37.2737C48.8386 37.2136 48.9809 37.1633 49.1264 37.1226C49.1992 37.1023 49.2727 37.0845 49.3464 37.0691C49.4204 37.054 49.4946 37.041 49.5696 37.0308C49.7195 37.0103 49.8699 37 50.021 37L56.0336 37C57.2824 37 58.426 37.7002 58.9943 38.8113L61.6354 43.9783C62.1215 44.9294 62.1215 46.0549 61.6354 47.0049L58.9943 52.1721ZM60.4721 44.572L57.8313 39.4058C57.789 39.3235 57.7417 39.2444 57.6884 39.1685C57.6355 39.0928 57.5776 39.0208 57.5148 38.9529C57.4519 38.885 57.3847 38.8218 57.3129 38.7632C57.2414 38.7046 57.1662 38.6511 57.0874 38.6028C57.0083 38.5547 56.9265 38.512 56.8418 38.4749C56.757 38.438 56.6699 38.407 56.581 38.3818C56.4919 38.3567 56.4016 38.3379 56.3098 38.3252C56.2182 38.3127 56.1262 38.3064 56.0336 38.3064L50.021 38.3064C49.2685 38.3064 48.5788 38.7244 48.2317 39.3914L45.5354 44.5574C45.46 44.7014 45.4031 44.8525 45.3643 45.0105C45.3254 45.1687 45.3061 45.3289 45.3061 45.4917C45.3061 45.6543 45.3254 45.8147 45.3643 45.9727C45.3835 46.0518 45.4075 46.1289 45.436 46.2046C45.4646 46.28 45.4978 46.354 45.5354 46.426L48.2317 51.592C48.2742 51.6733 48.322 51.7515 48.3752 51.8264C48.4282 51.9014 48.4861 51.9722 48.5491 52.0391C48.6118 52.1062 48.6789 52.1685 48.7502 52.2263C48.8215 52.2842 48.8962 52.3369 48.9748 52.3845C49.0532 52.4321 49.1348 52.4741 49.219 52.5105C49.3032 52.5471 49.3894 52.5776 49.4778 52.6023C49.5664 52.6272 49.656 52.6458 49.7468 52.6582C49.8379 52.6707 49.9292 52.6768 50.021 52.6768L56.0336 52.6768C56.7924 52.6768 57.4863 52.2524 57.8313 51.5774L60.4721 46.4104C60.5449 46.2681 60.6 46.1194 60.6374 45.9641C60.6747 45.8088 60.6935 45.6514 60.6935 45.4917C60.6935 45.332 60.6747 45.1746 60.6374 45.0193C60.6 44.864 60.5449 44.7151 60.4721 44.573L60.4721 44.572ZM52.6281 49.2622C52.7517 49.2742 52.8755 49.2803 52.9997 49.2803C53.0615 49.2803 53.1235 49.2786 53.1853 49.2756C53.247 49.2725 53.3091 49.2681 53.3708 49.262C53.4944 49.2498 53.6169 49.2314 53.7385 49.2073C53.8603 49.1829 53.9804 49.1528 54.0991 49.1167C54.2177 49.0808 54.3344 49.0391 54.4489 48.9915C54.5637 48.9438 54.6757 48.8909 54.7851 48.8325C54.8398 48.8032 54.8938 48.7727 54.947 48.7407C55 48.709 55.0522 48.6758 55.1037 48.6414C55.207 48.5723 55.3064 48.4985 55.4023 48.4197C55.4983 48.3411 55.59 48.2578 55.6777 48.1702C55.7653 48.0823 55.8486 47.9905 55.9272 47.8945C56.0061 47.7988 56.0798 47.6992 56.1486 47.5959C56.2175 47.4929 56.2812 47.3867 56.3398 47.2771C56.3982 47.1677 56.4511 47.0557 56.4987 46.9412C56.5461 46.8267 56.5878 46.71 56.6237 46.5911C56.6599 46.4724 56.6899 46.3523 56.7141 46.2307C56.7382 46.1089 56.7565 45.9863 56.7688 45.8628C56.7807 45.7395 56.7868 45.6157 56.7868 45.4917C56.7868 45.3677 56.7807 45.2439 56.7688 45.1204C56.7565 44.9968 56.7382 44.8743 56.7141 44.7527C56.6899 44.6311 56.6599 44.5107 56.6237 44.3921C56.5878 44.2734 56.5461 44.1567 56.4987 44.0422C56.4748 43.9849 56.4497 43.928 56.4233 43.8721C56.3967 43.8162 56.3689 43.7607 56.3398 43.7061C56.3105 43.6514 56.28 43.5974 56.248 43.5442C56.2163 43.4912 56.1831 43.4387 56.1486 43.3872C56.0798 43.2842 56.0061 43.1846 55.9272 43.0886C55.8486 42.9927 55.7653 42.9009 55.6777 42.8132C55.59 42.7253 55.4983 42.6423 55.4023 42.5635C55.3064 42.4849 55.207 42.4109 55.1037 42.342C55.0007 42.2729 54.8945 42.2092 54.7851 42.1509C54.6757 42.0923 54.5637 42.0393 54.4489 41.9919C54.3344 41.9443 54.2177 41.9026 54.0991 41.8665C53.9804 41.8306 53.8603 41.8003 53.7385 41.7761C53.6169 41.752 53.4944 41.7336 53.3708 41.7214C53.3091 41.7153 53.247 41.7107 53.185 41.7078C53.1233 41.7046 53.0615 41.7031 52.9997 41.7031C52.8755 41.7031 52.7517 41.709 52.6281 41.7212C52.5046 41.7334 52.3821 41.7515 52.2602 41.7756C52.1386 41.7998 52.0183 41.8298 51.8996 41.866C51.7807 41.9019 51.664 41.9436 51.5493 41.991C51.4348 42.0386 51.3227 42.0916 51.2131 42.1499C51.1037 42.2085 50.9973 42.2722 50.8943 42.3411C50.791 42.4099 50.6914 42.4839 50.5954 42.5625C50.4995 42.6414 50.4077 42.7246 50.3198 42.8123C50.2322 42.8999 50.1489 42.9919 50.07 43.0876C49.9914 43.1836 49.9175 43.2832 49.8486 43.3865C49.7795 43.4895 49.7158 43.5959 49.6572 43.7053C49.5989 43.8147 49.5459 43.9268 49.4983 44.0415C49.4507 44.1562 49.4089 44.2729 49.373 44.3916C49.3369 44.5105 49.3069 44.6306 49.2827 44.7524C49.2583 44.874 49.2402 44.9966 49.228 45.1201C49.2158 45.2437 49.2097 45.3674 49.2097 45.4917C49.2097 45.6157 49.2158 45.7395 49.228 45.863C49.2402 45.9866 49.2583 46.1091 49.2827 46.231C49.3069 46.3525 49.3369 46.4729 49.373 46.5916C49.4089 46.7104 49.4507 46.8271 49.4983 46.9417C49.5459 47.0564 49.5989 47.1685 49.6572 47.2778C49.7158 47.3875 49.7795 47.4937 49.8486 47.5969C49.883 47.6484 49.9189 47.6992 49.9558 47.7493C49.9927 47.7988 50.0307 47.8477 50.07 47.8955C50.1489 47.9915 50.2322 48.0833 50.3198 48.1711C50.4077 48.2588 50.4995 48.342 50.5954 48.4207C50.6914 48.4995 50.791 48.5732 50.8943 48.6421C50.9973 48.7112 51.1037 48.7749 51.2131 48.8333C51.268 48.8625 51.3235 48.8904 51.3794 48.917C51.4355 48.9434 51.4922 48.9685 51.5493 48.9922C51.664 49.0396 51.7807 49.0813 51.8996 49.1174C52.0183 49.1533 52.1386 49.1833 52.2602 49.2078C52.3821 49.2319 52.5046 49.25 52.6281 49.2622ZM53.2429 47.9619C53.1621 47.9697 53.081 47.9739 52.9997 47.9739C52.9592 47.9739 52.9187 47.9729 52.8781 47.9709C52.8376 47.9688 52.7968 47.9658 52.7563 47.9619C52.6755 47.9539 52.5952 47.9419 52.5154 47.926C52.4358 47.9102 52.3569 47.8906 52.279 47.8669C52.2014 47.8433 52.125 47.8159 52.0498 47.7849C51.9746 47.7537 51.9013 47.719 51.8296 47.6807C51.7578 47.6423 51.6882 47.6006 51.6206 47.5554C51.553 47.5103 51.4878 47.4619 51.425 47.4104C51.3935 47.3845 51.3628 47.3579 51.3327 47.3308C51.3025 47.3035 51.2732 47.2756 51.2444 47.2468C51.187 47.1892 51.1325 47.1292 51.0808 47.0664C51.0293 47.0034 50.9809 46.9382 50.9358 46.8706C50.8906 46.803 50.8489 46.7334 50.8105 46.6616C50.7722 46.5901 50.7375 46.5166 50.7065 46.4414C50.6753 46.3665 50.6479 46.29 50.6242 46.2122C50.6008 46.1343 50.581 46.0557 50.5652 45.9758C50.5493 45.8962 50.5373 45.8159 50.5295 45.7349C50.5215 45.6541 50.5176 45.573 50.5176 45.4917C50.5176 45.4509 50.5185 45.4102 50.5205 45.3694C50.5224 45.3291 50.5254 45.2886 50.5295 45.2483C50.5373 45.1675 50.5493 45.0872 50.5652 45.0073C50.581 44.9277 50.6008 44.8489 50.6242 44.771C50.6479 44.6934 50.6753 44.6169 50.7065 44.5417C50.7375 44.4666 50.7722 44.3933 50.8105 44.3215C50.8489 44.2498 50.8906 44.1802 50.9358 44.1125C50.9585 44.0789 50.9817 44.0457 51.0058 44.0132C51.03 43.9805 51.0552 43.9485 51.0808 43.917C51.1325 43.854 51.187 43.7939 51.2444 43.7366C51.302 43.679 51.362 43.6245 51.425 43.573C51.4878 43.5212 51.553 43.4729 51.6206 43.4277C51.6882 43.3826 51.7578 43.3408 51.8296 43.3025C51.9013 43.2642 51.9746 43.2295 52.0498 43.1985C52.125 43.1672 52.2014 43.1399 52.279 43.1165C52.3569 43.0928 52.4358 43.073 52.5154 43.0571C52.5952 43.0413 52.6755 43.0293 52.7563 43.0215C52.8371 43.0134 52.9184 43.0095 52.9997 43.0095C53.0403 43.0095 53.0805 43.0105 53.1211 43.0125C53.1618 43.0144 53.2024 43.0173 53.2429 43.0215C53.3239 43.0293 53.4043 43.0413 53.4839 43.0571C53.5637 43.073 53.6423 43.0928 53.7202 43.1165C53.7981 43.1399 53.8745 43.1672 53.9494 43.1985C54.0246 43.2295 54.0981 43.2642 54.1696 43.3025C54.2414 43.3408 54.311 43.3826 54.3786 43.4277C54.4463 43.4729 54.5114 43.5212 54.5742 43.573C54.6372 43.6245 54.6972 43.679 54.7548 43.7366C54.8122 43.7939 54.8669 43.854 54.9184 43.917C54.9699 43.9797 55.0183 44.0449 55.0634 44.1125C55.1086 44.1802 55.1504 44.2498 55.1887 44.3215C55.227 44.3933 55.2617 44.4666 55.2929 44.5417C55.3239 44.6169 55.3513 44.6934 55.375 44.771C55.3984 44.8489 55.4182 44.9277 55.434 45.0073C55.4499 45.0872 55.4619 45.1675 55.4699 45.2483C55.4777 45.3293 55.4819 45.4104 55.4819 45.4917C55.4819 45.5322 55.4809 45.5728 55.4787 45.613C55.4768 45.6538 55.4738 45.6943 55.4699 45.7349C55.4619 45.8159 55.4499 45.8962 55.434 45.9758C55.4182 46.0557 55.3984 46.1343 55.375 46.2122C55.3513 46.29 55.3239 46.3665 55.2929 46.4414C55.2617 46.5166 55.227 46.5901 55.1887 46.6616C55.1504 46.7334 55.1086 46.803 55.0634 46.8706C55.0183 46.9382 54.9699 47.0034 54.9184 47.0664C54.8669 47.1292 54.8122 47.1892 54.7548 47.2468C54.6972 47.3042 54.6372 47.3589 54.5742 47.4104C54.5114 47.4619 54.4463 47.5103 54.3786 47.5554C54.311 47.6006 54.2414 47.6423 54.1696 47.6807C54.0981 47.719 54.0246 47.7537 53.9494 47.7849C53.8745 47.8159 53.7981 47.8433 53.7202 47.8669C53.6423 47.8906 53.5637 47.9102 53.4839 47.926C53.4043 47.9419 53.3239 47.9539 53.2429 47.9619Z" opacity="0" fill="rgb(41,204,204)" fill-rule="evenodd" />
			<path id="矢量 84" d="M58.7595 52.563C58.6721 52.688 58.5766 52.8062 58.4731 52.918C58.3696 53.0298 58.259 53.134 58.1411 53.2307C58.0231 53.3271 57.8991 53.4153 57.7692 53.4946C57.6391 53.5742 57.5043 53.6445 57.3647 53.7056C57.2251 53.7664 57.0817 53.8176 56.935 53.8589C56.8618 53.8796 56.788 53.8977 56.7136 53.9131L56.7133 53.9133L56.7128 53.9133C56.6386 53.9287 56.5639 53.9417 56.4887 53.9521C56.3376 53.9729 56.186 53.9834 56.0336 53.9834L50.021 53.9834C49.8699 53.9832 49.7192 53.9729 49.5696 53.9524C49.4197 53.9319 49.272 53.9011 49.1264 53.8606C48.9807 53.8198 48.8386 53.7693 48.6997 53.7092C48.561 53.6492 48.427 53.5798 48.2976 53.5015C48.1684 53.4231 48.0452 53.3362 47.9275 53.241C47.81 53.1458 47.6997 53.043 47.5962 52.9326C47.4929 52.8223 47.3974 52.7056 47.3098 52.5823C47.2224 52.459 47.1438 52.3301 47.0737 52.196L44.3774 47.03C44.3157 46.9119 44.2612 46.7903 44.2141 46.6653C44.1904 46.603 44.1689 46.5398 44.1492 46.4763C44.1294 46.4126 44.1116 46.3484 44.0957 46.2837C44.064 46.1541 44.04 46.0229 44.0239 45.8906C44.0081 45.7581 44 45.625 44 45.4917C44 45.3582 44.0081 45.2253 44.0239 45.0928C44.04 44.9602 44.064 44.8293 44.0957 44.6997C44.1274 44.5701 44.167 44.4429 44.2141 44.3179C44.2612 44.1931 44.3157 44.0715 44.3774 43.9531L47.0737 38.7861C47.1089 38.7192 47.146 38.6536 47.1853 38.5891L47.1853 38.5891L47.1853 38.5891C47.2246 38.5247 47.2663 38.4617 47.31 38.4001C47.3974 38.2769 47.4929 38.1602 47.5964 38.0498C47.6482 37.9946 47.7016 37.9414 47.7568 37.8901L47.7568 37.8901L47.7568 37.8901C47.812 37.8389 47.8691 37.7893 47.9277 37.7417C48.0452 37.6465 48.1687 37.5598 48.2978 37.4814C48.4272 37.4031 48.5613 37.3337 48.6999 37.2737C48.8386 37.2136 48.9809 37.1633 49.1264 37.1226C49.1992 37.1023 49.2727 37.0845 49.3464 37.0691C49.4204 37.054 49.4946 37.041 49.5696 37.0308C49.7195 37.0103 49.8699 37 50.021 37L56.0336 37C57.2824 37 58.426 37.7002 58.9943 38.8113L61.6354 43.9783C62.1215 44.9294 62.1215 46.0549 61.6354 47.0049L58.9943 52.1721C58.925 52.3079 58.8466 52.438 58.7595 52.563ZM57.8313 39.4058C57.789 39.3235 57.7417 39.2444 57.6884 39.1685C57.6355 39.0928 57.5776 39.0208 57.5148 38.9529C57.4519 38.885 57.3847 38.8218 57.3129 38.7632C57.2414 38.7046 57.1662 38.6511 57.0874 38.6028C57.0083 38.5547 56.9265 38.512 56.8418 38.4749C56.757 38.438 56.6699 38.407 56.581 38.3818C56.4919 38.3567 56.4016 38.3379 56.3098 38.3252C56.2182 38.3127 56.1262 38.3064 56.0336 38.3064L50.021 38.3064C49.2685 38.3064 48.5788 38.7244 48.2317 39.3914L45.5354 44.5574C45.46 44.7014 45.4031 44.8525 45.3643 45.0105C45.3254 45.1687 45.3061 45.3289 45.3061 45.4917C45.3061 45.6543 45.3254 45.8147 45.3643 45.9727C45.3835 46.0518 45.4075 46.1289 45.436 46.2046C45.4646 46.28 45.4978 46.354 45.5354 46.426L48.2317 51.592C48.2742 51.6733 48.322 51.7515 48.3752 51.8264C48.4282 51.9014 48.4861 51.9722 48.5491 52.0391C48.6118 52.1062 48.6789 52.1685 48.7502 52.2263C48.8215 52.2842 48.8962 52.3369 48.9748 52.3845C49.0532 52.4321 49.1348 52.4741 49.219 52.5105C49.3032 52.5471 49.3894 52.5776 49.4778 52.6023C49.5664 52.6272 49.656 52.6458 49.7468 52.6582C49.8379 52.6707 49.9292 52.6768 50.021 52.6768L56.0336 52.6768C56.7924 52.6768 57.4863 52.2524 57.8313 51.5774L60.4721 46.4104C60.5449 46.2681 60.6 46.1194 60.6374 45.9641C60.6747 45.8088 60.6935 45.6514 60.6935 45.4917C60.6935 45.332 60.6747 45.1746 60.6374 45.0193C60.6 44.864 60.5449 44.7151 60.4721 44.573L60.4721 44.572L57.8313 39.4058ZM52.9997 49.2803C53.0615 49.2803 53.1235 49.2786 53.1853 49.2756C53.247 49.2725 53.3091 49.2681 53.3708 49.262C53.4944 49.2498 53.6169 49.2314 53.7385 49.2073C53.8603 49.1829 53.9804 49.1528 54.0991 49.1167C54.2177 49.0808 54.3344 49.0391 54.4489 48.9915C54.5637 48.9438 54.6757 48.8909 54.7851 48.8325C54.8398 48.8032 54.8938 48.7727 54.947 48.7407C55 48.709 55.0522 48.6758 55.1037 48.6414C55.207 48.5723 55.3064 48.4985 55.4023 48.4197C55.4983 48.3411 55.59 48.2578 55.6777 48.1702C55.7653 48.0823 55.8486 47.9905 55.9272 47.8945C56.0061 47.7988 56.0798 47.6992 56.1486 47.5959C56.2175 47.4929 56.2812 47.3867 56.3398 47.2771C56.3982 47.1677 56.4511 47.0557 56.4987 46.9412C56.5461 46.8267 56.5878 46.71 56.6237 46.5911C56.6599 46.4724 56.6899 46.3523 56.7141 46.2307C56.7382 46.1089 56.7565 45.9863 56.7688 45.8628C56.7807 45.7395 56.7868 45.6157 56.7868 45.4917C56.7868 45.3677 56.7807 45.2439 56.7688 45.1204C56.7565 44.9968 56.7382 44.8743 56.7141 44.7527C56.6899 44.6311 56.6599 44.5107 56.6237 44.3921C56.5878 44.2734 56.5461 44.1567 56.4987 44.0422C56.4748 43.9849 56.4497 43.928 56.4233 43.8721C56.3967 43.8162 56.3689 43.7607 56.3398 43.7061C56.3105 43.6514 56.28 43.5974 56.248 43.5442C56.2163 43.4912 56.1831 43.4387 56.1486 43.3872C56.0798 43.2842 56.0061 43.1846 55.9272 43.0886C55.8486 42.9927 55.7653 42.9009 55.6777 42.8132C55.59 42.7253 55.4983 42.6423 55.4023 42.5635C55.3064 42.4849 55.207 42.4109 55.1037 42.342C55.0007 42.2729 54.8945 42.2092 54.7851 42.1509C54.6757 42.0923 54.5637 42.0393 54.4489 41.9919C54.3344 41.9443 54.2177 41.9026 54.0991 41.8665C53.9804 41.8306 53.8603 41.8003 53.7385 41.7761C53.6169 41.752 53.4944 41.7336 53.3708 41.7214C53.3091 41.7153 53.247 41.7107 53.185 41.7078C53.1233 41.7046 53.0615 41.7031 52.9997 41.7031C52.8755 41.7031 52.7517 41.709 52.6281 41.7212C52.5046 41.7334 52.3821 41.7515 52.2602 41.7756C52.1386 41.7998 52.0183 41.8298 51.8996 41.866C51.7807 41.9019 51.664 41.9436 51.5493 41.991C51.4348 42.0386 51.3227 42.0916 51.2131 42.1499C51.1037 42.2085 50.9973 42.2722 50.8943 42.3411C50.791 42.4099 50.6914 42.4839 50.5954 42.5625C50.4995 42.6414 50.4077 42.7246 50.3198 42.8123C50.2322 42.8999 50.1489 42.9919 50.07 43.0876C49.9914 43.1836 49.9175 43.2832 49.8486 43.3865C49.7795 43.4895 49.7158 43.5959 49.6572 43.7053C49.5989 43.8147 49.5459 43.9268 49.4983 44.0415C49.4507 44.1562 49.4089 44.2729 49.373 44.3916C49.3369 44.5105 49.3069 44.6306 49.2827 44.7524C49.2583 44.874 49.2402 44.9966 49.228 45.1201C49.2158 45.2437 49.2097 45.3674 49.2097 45.4917C49.2097 45.6157 49.2158 45.7395 49.228 45.863C49.2402 45.9866 49.2583 46.1091 49.2827 46.231C49.3069 46.3525 49.3369 46.4729 49.373 46.5916C49.4089 46.7104 49.4507 46.8271 49.4983 46.9417C49.5459 47.0564 49.5989 47.1685 49.6572 47.2778C49.7158 47.3875 49.7795 47.4937 49.8486 47.5969C49.883 47.6484 49.9189 47.6992 49.9558 47.7493C49.9927 47.7988 50.0307 47.8477 50.07 47.8955C50.1489 47.9915 50.2322 48.0833 50.3198 48.1711C50.4077 48.2588 50.4995 48.342 50.5954 48.4207C50.6914 48.4995 50.791 48.5732 50.8943 48.6421C50.9973 48.7112 51.1037 48.7749 51.2131 48.8333C51.268 48.8625 51.3235 48.8904 51.3794 48.917C51.4355 48.9434 51.4922 48.9685 51.5493 48.9922C51.664 49.0396 51.7807 49.0813 51.8996 49.1174C52.0183 49.1533 52.1386 49.1833 52.2602 49.2078C52.3821 49.2319 52.5046 49.25 52.6281 49.2622C52.7517 49.2742 52.8755 49.2803 52.9997 49.2803ZM52.9997 47.9739C52.9592 47.9739 52.9187 47.9729 52.8781 47.9709C52.8376 47.9688 52.7968 47.9658 52.7563 47.9619C52.6755 47.9539 52.5952 47.9419 52.5154 47.926C52.4358 47.9102 52.3569 47.8906 52.279 47.8669C52.2014 47.8433 52.125 47.8159 52.0498 47.7849C51.9746 47.7537 51.9013 47.719 51.8296 47.6807C51.7578 47.6423 51.6882 47.6006 51.6206 47.5554C51.553 47.5103 51.4878 47.4619 51.425 47.4104C51.3935 47.3845 51.3628 47.3579 51.3327 47.3308C51.3025 47.3035 51.2732 47.2756 51.2444 47.2468C51.187 47.1892 51.1325 47.1292 51.0808 47.0664C51.0293 47.0034 50.9809 46.9382 50.9358 46.8706C50.8906 46.803 50.8489 46.7334 50.8105 46.6616C50.7722 46.5901 50.7375 46.5166 50.7065 46.4414C50.6753 46.3665 50.6479 46.29 50.6242 46.2122C50.6008 46.1343 50.581 46.0557 50.5652 45.9758C50.5493 45.8962 50.5373 45.8159 50.5295 45.7349C50.5215 45.6541 50.5176 45.573 50.5176 45.4917C50.5176 45.4509 50.5185 45.4102 50.5205 45.3694C50.5224 45.3291 50.5254 45.2886 50.5295 45.2483C50.5373 45.1675 50.5493 45.0872 50.5652 45.0073C50.581 44.9277 50.6008 44.8489 50.6242 44.771C50.6479 44.6934 50.6753 44.6169 50.7065 44.5417C50.7375 44.4666 50.7722 44.3933 50.8105 44.3215C50.8489 44.2498 50.8906 44.1802 50.9358 44.1125C50.9585 44.0789 50.9817 44.0457 51.0058 44.0132C51.03 43.9805 51.0552 43.9485 51.0808 43.917C51.1325 43.854 51.187 43.7939 51.2444 43.7366C51.302 43.679 51.362 43.6245 51.425 43.573C51.4878 43.5212 51.553 43.4729 51.6206 43.4277C51.6882 43.3826 51.7578 43.3408 51.8296 43.3025C51.9013 43.2642 51.9746 43.2295 52.0498 43.1985C52.125 43.1672 52.2014 43.1399 52.279 43.1165C52.3569 43.0928 52.4358 43.073 52.5154 43.0571C52.5952 43.0413 52.6755 43.0293 52.7563 43.0215C52.8371 43.0134 52.9184 43.0095 52.9997 43.0095C53.0403 43.0095 53.0805 43.0105 53.1211 43.0125C53.1618 43.0144 53.2024 43.0173 53.2429 43.0215C53.3239 43.0293 53.4043 43.0413 53.4839 43.0571C53.5637 43.073 53.6423 43.0928 53.7202 43.1165C53.7981 43.1399 53.8745 43.1672 53.9494 43.1985C54.0246 43.2295 54.0981 43.2642 54.1696 43.3025C54.2414 43.3408 54.311 43.3826 54.3786 43.4277C54.4463 43.4729 54.5114 43.5212 54.5742 43.573C54.6372 43.6245 54.6972 43.679 54.7548 43.7366C54.8122 43.7939 54.8669 43.854 54.9184 43.917C54.9699 43.9797 55.0183 44.0449 55.0634 44.1125C55.1086 44.1802 55.1504 44.2498 55.1887 44.3215C55.227 44.3933 55.2617 44.4666 55.2929 44.5417C55.3239 44.6169 55.3513 44.6934 55.375 44.771C55.3984 44.8489 55.4182 44.9277 55.434 45.0073C55.4499 45.0872 55.4619 45.1675 55.4699 45.2483C55.4777 45.3293 55.4819 45.4104 55.4819 45.4917C55.4819 45.5322 55.4809 45.5728 55.4787 45.613C55.4768 45.6538 55.4738 45.6943 55.4699 45.7349C55.4619 45.8159 55.4499 45.8962 55.434 45.9758C55.4182 46.0557 55.3984 46.1343 55.375 46.2122C55.3513 46.29 55.3239 46.3665 55.2929 46.4414C55.2617 46.5166 55.227 46.5901 55.1887 46.6616C55.1504 46.7334 55.1086 46.803 55.0634 46.8706C55.0183 46.9382 54.9699 47.0034 54.9184 47.0664C54.8669 47.1292 54.8122 47.1892 54.7548 47.2468C54.6972 47.3042 54.6372 47.3589 54.5742 47.4104C54.5114 47.4619 54.4463 47.5103 54.3786 47.5554C54.311 47.6006 54.2414 47.6423 54.1696 47.6807C54.0981 47.719 54.0246 47.7537 53.9494 47.7849C53.8745 47.8159 53.7981 47.8433 53.7202 47.8669C53.6423 47.8906 53.5637 47.9102 53.4839 47.926C53.4043 47.9419 53.3239 47.9539 53.2429 47.9619C53.1621 47.9697 53.081 47.9739 52.9997 47.9739Z" opacity="0" fill-rule="evenodd" stroke="rgb(41,204,204)" stroke-width="1.20000005" />
			<path id="矢量 84(边框)" d="M58.8306 52.5172C58.8407 52.5032 58.8506 52.4892 58.8605 52.4751L58.8609 52.4745C58.9579 52.3355 59.0444 52.1914 59.1206 52.0424L61.5965 47.1983C61.7309 46.9356 61.8317 46.6648 61.899 46.3859C61.9663 46.1067 62 45.8193 62 45.5238C62 45.2308 61.9669 44.9457 61.9007 44.6686C61.8335 44.3871 61.7321 44.1138 61.5966 43.8486L59.1205 39.0044C59.0395 38.8462 58.9482 38.6953 58.8465 38.5519C58.7524 38.4191 58.6494 38.2926 58.5375 38.1725C58.426 38.0528 58.3077 37.9415 58.1826 37.8385C58.0509 37.7301 57.9116 37.631 57.7647 37.5411C57.6172 37.4509 57.4649 37.3717 57.3079 37.3036C57.1597 37.2393 57.0073 37.1849 56.8507 37.1403C56.6929 37.0954 56.5337 37.0613 56.3728 37.038C56.1984 37.0127 56.0221 37 55.844 37L50.2072 37C50.1367 37 50.0663 37.002 49.996 37.0061C49.8997 37.0116 49.8036 37.0209 49.7077 37.034C49.6279 37.0449 49.5453 37.0591 49.4599 37.0766C49.378 37.0937 49.297 37.1134 49.2168 37.1358C49.0549 37.1811 48.8977 37.2368 48.7451 37.3029C48.7407 37.3048 48.7362 37.3068 48.7317 37.3088C48.5835 37.3737 48.4395 37.4484 48.2999 37.533C48.156 37.6203 48.0194 37.7164 47.89 37.8213C47.8249 37.8742 47.7621 37.9288 47.7016 37.9849C47.6405 38.0418 47.5812 38.1007 47.5239 38.1619C47.4218 38.2707 47.327 38.3849 47.2395 38.5045C47.2285 38.5194 47.2178 38.5343 47.2071 38.5494C47.1574 38.6193 47.1112 38.6893 47.0685 38.7594C47.0259 38.8291 46.9849 38.9016 46.9454 38.9768L44.4176 43.8209C44.3855 43.8825 44.3551 43.945 44.3265 44.0082C44.2944 44.0793 44.2645 44.1515 44.2369 44.2246C44.1845 44.3636 44.1408 44.5045 44.1059 44.6472C44.0932 44.6989 44.0817 44.7507 44.0713 44.8028C44.0528 44.8954 44.0378 44.9886 44.0264 45.0826C44.0088 45.2297 44 45.3767 44 45.5235C44 45.6702 44.0089 45.8176 44.0266 45.9655C44.0347 46.0324 44.0447 46.0991 44.0564 46.1654C44.0704 46.244 44.0869 46.3222 44.1059 46.4C44.1235 46.4716 44.1433 46.5429 44.1653 46.6139C44.1884 46.6879 44.2122 46.7573 44.2369 46.8221C44.2744 46.9216 44.316 47.019 44.3618 47.1145C44.3798 47.1519 44.3984 47.1891 44.4177 47.2259L46.9456 52.0694C47.0236 52.2185 47.1107 52.361 47.207 52.4968C47.2221 52.5181 47.2375 52.5393 47.2531 52.5603C47.3369 52.673 47.4271 52.781 47.5237 52.8842C47.5994 52.9649 47.6784 53.0419 47.7607 53.1152C47.8032 53.153 47.8465 53.1898 47.8907 53.2257C48.0213 53.3314 48.1578 53.4274 48.3001 53.5138C48.4146 53.5831 48.5321 53.6459 48.6526 53.7021C48.6833 53.7164 48.7142 53.7303 48.7452 53.7437C48.8919 53.8071 49.0414 53.8607 49.1938 53.9044C49.2017 53.9067 49.2097 53.909 49.2176 53.9112C49.3797 53.9563 49.543 53.9901 49.7076 54.0127C49.8724 54.0352 50.0389 54.0467 50.2072 54.0469L55.844 54.0469C56.0119 54.0469 56.18 54.0354 56.3485 54.0122C56.4113 54.0035 56.4739 53.9931 56.5361 53.9812L56.7142 53.9812L56.7658 53.9297C56.7808 53.9258 56.7958 53.9218 56.8109 53.9177C56.821 53.9149 56.8312 53.9121 56.8413 53.9092C57.0028 53.8638 57.1614 53.8072 57.3172 53.7394C57.373 53.715 57.4281 53.6893 57.4826 53.6622C57.5786 53.6144 57.6726 53.5624 57.7644 53.5062C57.9077 53.4187 58.045 53.3212 58.1764 53.2138C58.214 53.183 58.251 53.1514 58.2873 53.1191C58.3767 53.0397 58.4622 52.9559 58.5438 52.8677C58.6469 52.7563 58.7426 52.6395 58.8306 52.5172ZM57.0284 40.0739L57.0289 40.0748L59.4426 44.7967L59.4426 44.7978L59.5044 44.9185C59.5291 44.9667 59.5506 45.0159 59.5691 45.0663C59.5865 45.1139 59.6012 45.1625 59.6132 45.2121C59.6283 45.2753 59.6389 45.3388 59.6447 45.4028C59.6484 45.4429 59.6502 45.4831 59.6502 45.5235C59.6502 45.5638 59.6484 45.604 59.6447 45.644C59.6389 45.708 59.6284 45.7716 59.6132 45.8348C59.605 45.8688 59.5955 45.9023 59.5847 45.9355C59.5631 46.0016 59.5363 46.066 59.5042 46.1288L57.0284 50.9728C56.9714 51.0843 56.902 51.1842 56.82 51.2725C56.7386 51.3603 56.6448 51.4367 56.5387 51.5016C56.4335 51.5659 56.3238 51.6143 56.2096 51.6469C56.0925 51.6803 55.9706 51.697 55.844 51.697L50.2072 51.697C50.1461 51.697 50.0859 51.6929 50.0265 51.6848C50.0066 51.682 49.9867 51.6788 49.9669 51.6752C49.9273 51.6679 49.888 51.6588 49.8491 51.6478C49.8363 51.6443 49.8235 51.6405 49.8108 51.6365C49.7659 51.6225 49.7217 51.6061 49.6783 51.5872C49.6238 51.5637 49.5714 51.5367 49.5211 51.5063C49.52 51.5057 49.5189 51.505 49.5178 51.5043C49.4667 51.4734 49.4176 51.4388 49.3703 51.4004C49.3226 51.3617 49.2781 51.3202 49.2368 51.276C49.1958 51.2325 49.1579 51.1861 49.1229 51.1366C49.0942 51.0961 49.0678 51.0543 49.0439 51.0111C49.0386 51.0016 49.0334 50.992 49.0284 50.9823L46.5006 46.1391C46.4756 46.0913 46.4538 46.0426 46.435 45.9932C46.4162 45.9433 46.4005 45.8923 46.3877 45.8401C46.3777 45.7992 46.3696 45.7579 46.3635 45.7164C46.3542 45.6527 46.3495 45.5884 46.3495 45.5235C46.3495 45.4613 46.3538 45.3998 46.3623 45.3388C46.3685 45.2944 46.377 45.2503 46.3877 45.2066C46.4044 45.1386 46.4262 45.0728 46.4529 45.0091C46.4673 44.9747 46.4832 44.941 46.5006 44.9078L49.0287 40.0641C49.0856 39.9547 49.1547 39.8566 49.2359 39.7698C49.3175 39.6825 49.4114 39.6067 49.5176 39.5423C49.6226 39.4787 49.7321 39.4308 49.846 39.3987C49.9618 39.3661 50.0822 39.3497 50.2072 39.3497L55.844 39.3497C55.8659 39.3497 55.8878 39.3503 55.9097 39.3513C55.9485 39.3532 55.9872 39.3568 56.0259 39.3621C56.0867 39.3705 56.1461 39.3829 56.204 39.3992C56.2637 39.4161 56.321 39.4365 56.3759 39.4604C56.39 39.4666 56.404 39.473 56.4179 39.4796C56.4589 39.4993 56.4989 39.5209 56.5379 39.5447C56.59 39.5766 56.6399 39.6121 56.6877 39.6512C56.7342 39.6893 56.7782 39.7306 56.8196 39.7752C56.8607 39.8196 56.8991 39.8674 56.9348 39.9183C56.9689 39.9669 57.0001 40.0188 57.0284 40.0739ZM52.5961 49.6181C52.7314 49.6312 52.866 49.6378 52.9997 49.6378C53.0635 49.6378 53.1303 49.6361 53.2003 49.6328C53.2721 49.6291 53.3396 49.6241 53.403 49.6179C53.5363 49.6047 53.6693 49.5849 53.802 49.5585C53.936 49.5317 54.0668 49.4988 54.1943 49.46C54.2364 49.4473 54.2782 49.4339 54.3199 49.4198C54.4057 49.3907 54.4905 49.3587 54.5743 49.3239C54.6323 49.2998 54.6897 49.2745 54.7465 49.2478C54.8112 49.2175 54.8752 49.1855 54.9383 49.1518C54.9995 49.119 55.0584 49.0856 55.115 49.0516C55.1711 49.018 55.2277 48.9821 55.2848 48.944C55.3973 48.8687 55.5054 48.7884 55.6093 48.703C55.7128 48.6183 55.8124 48.528 55.9081 48.4323C56.0043 48.3358 56.0948 48.2359 56.1794 48.1326C56.264 48.0299 56.3442 47.9217 56.4199 47.8082C56.4589 47.7499 56.4963 47.6906 56.5322 47.6304C56.5652 47.5752 56.5968 47.5192 56.6271 47.4624C56.6372 47.4436 56.6471 47.4246 56.6569 47.4056C56.7085 47.3052 56.756 47.2028 56.7995 47.0983C56.8515 46.9725 56.8969 46.8452 56.9358 46.7167C56.9746 46.5892 57.0072 46.459 57.0336 46.326C57.0601 46.1929 57.0798 46.0598 57.093 45.9267C57.1061 45.7916 57.1126 45.6572 57.1126 45.5235C57.1126 45.3899 57.1061 45.2558 57.0931 45.1211L57.0928 45.1177C57.0795 44.9848 57.0598 44.8526 57.0336 44.721C57.0071 44.5875 56.9744 44.4568 56.9354 44.3287C56.8967 44.2009 56.8515 44.0745 56.7999 43.9496C56.7732 43.8856 56.7459 43.8241 56.7181 43.7651C56.6887 43.7033 56.6586 43.6434 56.6278 43.5855C56.5947 43.5238 56.5612 43.4646 56.5271 43.4079C56.505 43.3709 56.4822 43.3342 56.4589 43.298C56.4459 43.2778 56.4328 43.2579 56.4195 43.238C56.3441 43.1251 56.2638 43.0169 56.1788 42.9134C56.0941 42.81 56.0038 42.7104 55.9081 42.6147C55.8145 42.5208 55.7149 42.4304 55.6093 42.3437C55.503 42.2566 55.3946 42.1762 55.2843 42.1026C55.1728 42.0279 55.0575 41.9587 54.9383 41.8952C54.8197 41.8316 54.698 41.7741 54.573 41.7225C54.4504 41.6715 54.3241 41.6262 54.1943 41.5867C54.0632 41.547 53.9323 41.5143 53.8018 41.4884C53.6692 41.462 53.5363 41.4422 53.403 41.4291C53.3341 41.4223 53.2664 41.4173 53.2 41.4142C53.1355 41.4108 53.0688 41.4092 52.9997 41.4092C52.8633 41.4092 52.7287 41.4157 52.5961 41.4288C52.4615 41.4421 52.3284 41.4618 52.197 41.4879C52.0634 41.5145 51.9326 41.5472 51.8045 41.5862C51.6773 41.6247 51.5509 41.6698 51.4253 41.7216C51.3006 41.7734 51.179 41.8309 51.0605 41.894C50.9402 41.9584 50.8245 42.0278 50.7133 42.1021C50.6025 42.176 50.4945 42.256 50.3892 42.3422C50.3732 42.3554 50.3573 42.3687 50.3415 42.3821C50.2547 42.4556 50.1709 42.5326 50.0901 42.6132C49.9959 42.7074 49.9055 42.807 49.8191 42.912C49.7322 43.018 49.6517 43.1266 49.5775 43.2378C49.5038 43.3478 49.4347 43.4629 49.3703 43.5831C49.3185 43.6802 49.2706 43.7791 49.2268 43.8797C49.2168 43.9025 49.2071 43.9254 49.1976 43.9483C49.1621 44.0337 49.1297 44.1202 49.1002 44.2076C49.0866 44.2479 49.0736 44.2885 49.0613 44.3293C49.0223 44.4576 48.9896 44.5882 48.9633 44.7209C48.9372 44.8509 48.9174 44.9839 48.904 45.1198C48.8978 45.182 48.8931 45.2442 48.8898 45.3066C48.886 45.3788 48.8841 45.4511 48.8841 45.5235C48.8841 45.5802 48.8853 45.6368 48.8876 45.6934C48.8908 45.7714 48.8963 45.8492 48.904 45.9269C48.9174 46.0626 48.9372 46.196 48.9635 46.327C48.9899 46.4599 49.0226 46.5904 49.0616 46.7184C49.1005 46.8472 49.1458 46.9739 49.1977 47.0988C49.2222 47.1577 49.248 47.2161 49.2751 47.2738C49.3051 47.3375 49.3366 47.4005 49.3698 47.4627C49.406 47.5303 49.4439 47.5968 49.4837 47.6621C49.5141 47.712 49.5455 47.7613 49.5781 47.8099C49.6135 47.8629 49.6519 47.9175 49.6932 47.9735C49.7348 48.0295 49.7765 48.083 49.8185 48.1341C49.9036 48.2376 49.9938 48.3371 50.089 48.4326C50.1859 48.5293 50.286 48.6199 50.3892 48.7045C50.4927 48.7895 50.6009 48.8697 50.7139 48.945C50.8247 49.0193 50.9401 49.0885 51.06 49.1525C51.1178 49.1833 51.1774 49.2133 51.2389 49.2426C51.3025 49.2725 51.3644 49.2999 51.4246 49.3248C51.5496 49.3764 51.6764 49.4217 51.8048 49.4608C51.9327 49.4995 52.063 49.5321 52.1957 49.5588C52.2208 49.5637 52.246 49.5685 52.2711 49.573C52.3787 49.5923 52.487 49.6073 52.5961 49.6181ZM53.1721 47.2796C53.1137 47.2852 53.0563 47.288 52.9997 47.288L52.9928 47.288C52.9661 47.2879 52.9395 47.2872 52.9128 47.2859C52.8828 47.2843 52.8537 47.2821 52.8255 47.2794C52.7691 47.2738 52.7123 47.2653 52.6553 47.2539C52.5973 47.2424 52.5415 47.2284 52.4877 47.2121C52.4323 47.1952 52.3776 47.1756 52.3236 47.1533C52.2708 47.1314 52.2189 47.1068 52.1677 47.0794C52.1171 47.0524 52.0676 47.0227 52.0192 46.9904C51.9845 46.9673 51.9508 46.943 51.9179 46.9174C51.9053 46.9076 51.8928 46.8977 51.8804 46.8875C51.8586 46.8696 51.8364 46.8505 51.8138 46.83C51.7926 46.8109 51.7719 46.7913 51.7518 46.7712C51.7111 46.7302 51.672 46.6871 51.6347 46.6418C51.5986 46.5977 51.5645 46.5517 51.5326 46.5038C51.5003 46.4554 51.4706 46.4059 51.4436 46.3553L51.4433 46.3549C51.4163 46.3044 51.3918 46.2526 51.3699 46.1994C51.3648 46.1872 51.3599 46.175 51.3551 46.1627C51.3387 46.1209 51.324 46.0784 51.3109 46.0353C51.2941 45.9795 51.2802 45.9236 51.269 45.8677C51.2577 45.8106 51.2493 45.7539 51.2438 45.6975C51.2381 45.6398 51.2352 45.5818 51.2352 45.5235C51.2352 45.4942 51.2359 45.465 51.2373 45.4357C51.2387 45.4066 51.2408 45.379 51.2435 45.3529C51.2491 45.2942 51.2577 45.2362 51.269 45.179C51.2803 45.1227 51.2944 45.0664 51.3114 45.0099C51.3143 45.0004 51.3172 44.9909 51.3203 44.9815C51.3348 44.9367 51.3511 44.8924 51.3693 44.8488C51.3914 44.7952 51.4161 44.7428 51.4436 44.6914C51.4706 44.6408 51.5003 44.5913 51.5326 44.5429C51.5501 44.5169 51.5664 44.4937 51.5817 44.4732C51.5978 44.4514 51.6162 44.4278 51.637 44.4023C51.6728 44.3587 51.7111 44.3165 51.7518 44.2758C51.7929 44.2348 51.8354 44.1962 51.8796 44.1601C51.9245 44.123 51.9711 44.0884 52.0192 44.0563C52.0676 44.024 52.1171 43.9943 52.1677 43.9673C52.219 43.9398 52.271 43.9153 52.3236 43.8936C52.3776 43.8712 52.432 43.8517 52.4866 43.8352C52.5426 43.8182 52.5989 43.804 52.6556 43.7927C52.7126 43.7814 52.7693 43.773 52.8257 43.7675C52.8832 43.7618 52.9413 43.7589 52.9997 43.7589C53.0285 43.7589 53.0574 43.7596 53.0864 43.761C53.1159 43.7624 53.1439 43.7645 53.1704 43.7672C53.2291 43.7729 53.2868 43.7814 53.3436 43.7927C53.4 43.8039 53.456 43.818 53.5115 43.8348C53.5671 43.8516 53.6211 43.8709 53.6736 43.8928C53.7283 43.9153 53.7807 43.94 53.8309 43.9669C53.8354 43.9693 53.84 43.9718 53.8445 43.9742C53.8908 43.9995 53.936 44.0268 53.9801 44.0563C54.0282 44.0884 54.0741 44.1225 54.1179 44.1586C54.1632 44.1957 54.2064 44.2348 54.2474 44.2758C54.2891 44.3175 54.3277 44.36 54.3631 44.4033C54.4001 44.4484 54.4346 44.4949 54.4667 44.5429C54.499 44.5913 54.5287 44.6408 54.5557 44.6914C54.5629 44.705 54.57 44.7186 54.5769 44.7323C54.596 44.7705 54.6138 44.8093 54.6302 44.8488C54.6521 44.9018 54.6715 44.9562 54.6885 45.0119C54.6942 45.0309 54.6996 45.0499 54.7047 45.069C54.7143 45.1055 54.7229 45.1423 54.7303 45.1794C54.735 45.2031 54.7392 45.227 54.743 45.2509C54.7482 45.2842 54.7525 45.3175 54.7558 45.3511C54.7615 45.4095 54.7643 45.4669 54.7643 45.5235C54.7643 45.5527 54.7636 45.5804 54.7621 45.6066C54.7606 45.6381 54.7585 45.6684 54.7557 45.6975C54.75 45.7541 54.7416 45.8107 54.7303 45.8674C54.7191 45.9235 54.705 45.98 54.6879 46.0368C54.6713 46.0914 54.6519 46.1454 54.6298 46.1988C54.6074 46.2527 54.5828 46.3046 54.5561 46.3546C54.5527 46.361 54.5492 46.3674 54.5457 46.3738C54.5213 46.4182 54.4949 46.4615 54.4667 46.5038C54.4347 46.5517 54.4002 46.5983 54.3631 46.6437C54.3277 46.6867 54.2889 46.7295 54.2466 46.772C54.2051 46.8133 54.1628 46.8515 54.1197 46.8868C54.0746 46.9238 54.0281 46.9584 53.9801 46.9904C53.9317 47.0227 53.8822 47.0524 53.8316 47.0794C53.7812 47.1065 53.7287 47.1313 53.6742 47.1539C53.6213 47.1758 53.5671 47.1952 53.5115 47.2121C53.4574 47.2285 53.4016 47.2425 53.3439 47.2539C53.3204 47.2586 53.2968 47.2628 53.2731 47.2666C53.2396 47.2719 53.2059 47.2762 53.1721 47.2796Z" fill="rgb(41,204,204)" fill-rule="evenodd" />
			<g id="组合 1883" opacity="0">
				<path id="多边形 2" d="M10.5 0.866025L16.5 4.33013C17.4282 4.86602 18 5.85641 18 6.9282L18 13.8564C18 14.9282 17.4282 15.9186 16.5 16.4545L10.5 19.9186C9.57179 20.4545 8.4282 20.4545 7.5 19.9186L1.5 16.4545C0.571797 15.9186 0 14.9282 0 13.8564L1.37651e-07 6.9282C1.37651e-07 5.85641 0.571797 4.86603 1.5 4.33013L7.5 0.866025C8.4282 0.330127 9.5718 0.330127 10.5 0.866025Z" fill="rgb(196,196,196)" fill-opacity="0" fill-rule="evenodd" transform="matrix(0,-1,1,0,42,55)" />
				<path id="多边形 2" d="M16.5 4.33013L10.5 0.866025C9.5718 0.330127 8.4282 0.330127 7.5 0.866025L1.5 4.33013C0.571797 4.86603 0 5.85641 0 6.9282L0 13.8564C0 14.9282 0.571797 15.9186 1.5 16.4545L7.5 19.9186C8.4282 20.4545 9.57179 20.4545 10.5 19.9186L16.5 16.4545C17.4282 15.9186 18 14.9282 18 13.8564L18 6.9282C18 5.85641 17.4282 4.86602 16.5 4.33013ZM9.3 2.94449L15.3 6.40859C15.3464 6.43538 15.3879 6.46708 15.4245 6.50369C15.4611 6.54029 15.4928 6.58179 15.5196 6.6282C15.5464 6.67462 15.5665 6.72282 15.5799 6.77283C15.5933 6.82282 15.6 6.87462 15.6 6.9282L15.6 13.8564C15.6 13.91 15.5933 13.9618 15.5799 14.0118C15.5665 14.0618 15.5464 14.11 15.5196 14.1564C15.4928 14.2028 15.4611 14.2443 15.4245 14.2809C15.3879 14.3175 15.3464 14.3492 15.3 14.376L9.3 17.8401C9.25358 17.8669 9.20537 17.887 9.15537 17.9004C9.10537 17.9138 9.05358 17.9205 9 17.9205C8.94641 17.9205 8.89462 17.9138 8.84463 17.9004C8.79462 17.887 8.74641 17.8669 8.7 17.8401L2.7 14.376C2.65359 14.3492 2.61208 14.3175 2.57547 14.2809C2.53887 14.2443 2.50718 14.2028 2.48038 14.1564C2.45359 14.11 2.4335 14.0618 2.4201 14.0118C2.4067 13.9618 2.4 13.91 2.4 13.8564L2.4 6.9282C2.4 6.87461 2.4067 6.82282 2.4201 6.77281C2.4335 6.72282 2.45359 6.67461 2.48039 6.6282C2.50718 6.58179 2.53888 6.54029 2.57548 6.50369C2.61208 6.46708 2.65359 6.43538 2.7 6.40859L8.7 2.94449C8.74641 2.91769 8.79462 2.89759 8.84462 2.8842C8.89462 2.8708 8.94641 2.8641 9 2.8641C9.05359 2.8641 9.10538 2.8708 9.15538 2.8842C9.20538 2.89759 9.25359 2.91769 9.3 2.94449Z" fill="rgb(41,204,204)" fill-rule="evenodd" transform="matrix(0,-1,1,0,42,55)" />
				<circle id="椭圆 81" cx="52.5" cy="46" r="4" fill="rgb(196,196,196)" fill-opacity="0" />
				<circle id="椭圆 81" cx="52.5" cy="46" r="3" stroke="rgb(41,204,204)" stroke-width="2" />
			</g>
		</g>
	</g>
</svg>
