<svg viewBox="0 0 70 70" xmlns="http://www.w3.org/2000/svg" xmlns:xlink="http://www.w3.org/1999/xlink" width="70" height="70" fill="none" customFrame="#000000">
	<defs>
		<linearGradient id="paint_linear_120" x1="4.00000286" x2="47.9999886" y1="35.3236389" y2="35.3235703" gradientUnits="userSpaceOnUse">
			<stop stop-color="rgb(255,79,18)" offset="0" stop-opacity="1" />
			<stop stop-color="rgb(255,117,69)" offset="0.995273232" stop-opacity="1" />
		</linearGradient>
		<g id="pixso_custom_effect_39">
			<effect visibility="visible" effectType="backgroundBlur" saturation="0" stdDeviation="17.125164" />
		</g>
		<filter id="filter_39" width="33.2474365" height="33.2473907" x="33.3762817" y="29.3760681" filterUnits="userSpaceOnUse" customEffect="url(#pixso_custom_effect_39)" color-interpolation-filters="sRGB">
			<feFlood flood-opacity="0" result="BackgroundImageFix" />
			<feGaussianBlur stdDeviation="5.70838785" in="BackgroundImage" />
			<feComposite result="effect_backgroundBlur_1" in2="SourceAlpha" operator="in" />
			<feBlend result="shape" in="SourceGraphic" in2="effect_backgroundBlur_1" mode="normal" />
		</filter>
		<linearGradient id="paint_linear_121" x1="37" x2="60.4968796" y1="32.9997559" y2="55.97575" gradientUnits="userSpaceOnUse">
			<stop stop-color="rgb(255,255,255)" offset="0" stop-opacity="0" />
			<stop stop-color="rgb(255,255,255)" offset="1" stop-opacity="1" />
		</linearGradient>
	</defs>
	<rect id="名称=查询活期余额" width="70" height="70" x="0" y="0" fill="rgb(255,255,255)" fill-opacity="0" />
	<g id="组合 1877">
		<path id="形状" d="M42.5544 12C43.7474 12 44.7145 12.9671 44.7145 14.1601C44.7145 15.353 43.7474 16.3201 42.5544 16.3201L10.5267 16.3201C9.33373 16.3201 8.36664 15.353 8.36664 14.1601C8.36664 12.9671 9.33373 12 10.5267 12L42.5544 12ZM42 19.0193C45.3137 19.0193 48 21.7056 48 25.0193L48 51.9993C48 55.313 45.3137 57.9993 42 57.9993L10 57.9993C6.68629 57.9993 4 55.313 4 51.9993L4 25.0193C4 21.7056 6.68629 19.0193 10 19.0193L42 19.0193ZM29.4106 36.289L31.3523 36.289C31.4448 36.289 31.5364 36.2985 31.6271 36.3175C31.7178 36.3365 31.8059 36.3647 31.8913 36.402C31.9767 36.4394 32.0579 36.4851 32.1348 36.5393C32.2117 36.5935 32.2829 36.6551 32.3483 36.7241C32.4137 36.7931 32.472 36.8681 32.5234 36.9492C32.5748 37.0303 32.6182 37.1159 32.6536 37.206C32.689 37.2962 32.7157 37.3891 32.7337 37.4847C32.7518 37.5804 32.7608 37.677 32.7608 37.7746C32.7608 37.8721 32.7518 37.9687 32.7337 38.0644C32.7157 38.1601 32.689 38.2529 32.6536 38.3431C32.6182 38.4332 32.5748 38.5188 32.5234 38.5999C32.472 38.681 32.4137 38.7561 32.3483 38.825C32.2829 38.894 32.2117 38.9556 32.1348 39.0098C32.0579 39.064 31.9767 39.1097 31.8913 39.1471C31.8059 39.1844 31.7178 39.2126 31.6271 39.2316C31.5364 39.2506 31.4448 39.2602 31.3523 39.2602L27.4084 39.2602L27.4084 41.6371L31.3523 41.6371C31.4448 41.6371 31.5364 41.6466 31.6271 41.6656C31.7178 41.6847 31.8059 41.7129 31.8913 41.7502C31.9767 41.7875 32.0579 41.8333 32.1348 41.8875C32.2117 41.9417 32.2829 42.0032 32.3483 42.0722C32.4137 42.1412 32.472 42.2162 32.5234 42.2973C32.5748 42.3784 32.6182 42.4641 32.6536 42.5542C32.689 42.6443 32.7157 42.7372 32.7337 42.8329C32.7518 42.9285 32.7608 43.0252 32.7608 43.1227C32.7608 43.2202 32.7518 43.3168 32.7337 43.4125C32.7157 43.5082 32.689 43.6011 32.6536 43.6912C32.6182 43.7813 32.5748 43.8669 32.5234 43.948C32.472 44.0292 32.4137 44.1042 32.3483 44.1732C32.2829 44.2421 32.2117 44.3037 32.1348 44.3579C32.0579 44.4121 31.9767 44.4579 31.8913 44.4952C31.8059 44.5325 31.7178 44.5607 31.6271 44.5797C31.5364 44.5988 31.4448 44.6083 31.3523 44.6083L27.4084 44.6083L27.4084 49.1241C27.4084 49.2217 27.3994 49.3183 27.3813 49.4139Q27.3635 49.5084 27.3345 49.5992Q27.3194 49.6464 27.3012 49.6926C27.2658 49.7828 27.2224 49.8684 27.171 49.9495C27.1197 50.0306 27.0613 50.1056 26.9959 50.1746C26.9305 50.2436 26.8593 50.3052 26.7824 50.3594C26.7055 50.4135 26.6244 50.4593 26.5389 50.4966C26.4535 50.534 26.3654 50.5621 26.2747 50.5812C26.184 50.6002 26.0924 50.6097 25.9999 50.6097C25.9074 50.6097 25.8158 50.6002 25.7251 50.5812C25.6344 50.5621 25.5463 50.534 25.4609 50.4966C25.3754 50.4593 25.2943 50.4135 25.2174 50.3594C25.1405 50.3052 25.0693 50.2436 25.0039 50.1746C24.9385 50.1056 24.8801 50.0306 24.8287 49.9495C24.7774 49.8684 24.734 49.7828 24.6986 49.6926C24.6632 49.6025 24.6365 49.5096 24.6184 49.4139C24.6004 49.3183 24.5914 49.2217 24.5914 49.1241L24.5914 44.6083L20.6475 44.6083C20.555 44.6083 20.4634 44.5988 20.3727 44.5797C20.282 44.5607 20.1939 44.5325 20.1085 44.4952Q20.0724 44.4795 20.0374 44.4617Q19.9479 44.4163 19.865 44.3579C19.7881 44.3037 19.7169 44.2421 19.6515 44.1732C19.5861 44.1042 19.5277 44.0292 19.4764 43.948C19.425 43.8669 19.3816 43.7813 19.3462 43.6912C19.3108 43.6011 19.2841 43.5082 19.266 43.4125C19.248 43.3168 19.239 43.2202 19.239 43.1227C19.239 43.0252 19.248 42.9285 19.266 42.8329C19.2841 42.7372 19.3108 42.6443 19.3462 42.5542Q19.3851 42.4552 19.4368 42.3634Q19.4557 42.3299 19.4764 42.2973C19.5277 42.2162 19.5861 42.1412 19.6515 42.0722C19.7169 42.0032 19.7881 41.9417 19.865 41.8875C19.9419 41.8333 20.023 41.7875 20.1085 41.7502C20.1939 41.7129 20.282 41.6847 20.3727 41.6656C20.4634 41.6466 20.555 41.6371 20.6475 41.6371L24.5914 41.6371L24.5914 39.2602L20.6475 39.2602Q20.5851 39.2602 20.5233 39.2544Q20.4476 39.2473 20.3727 39.2316C20.282 39.2126 20.1939 39.1844 20.1085 39.1471Q20.0723 39.1313 20.0372 39.1135Q19.9478 39.0681 19.865 39.0098C19.7881 38.9556 19.7169 38.894 19.6515 38.825C19.5861 38.7561 19.5277 38.681 19.4764 38.5999C19.425 38.5188 19.3816 38.4332 19.3462 38.3431C19.3108 38.2529 19.2841 38.1601 19.266 38.0644C19.248 37.9687 19.239 37.8721 19.239 37.7746C19.239 37.677 19.248 37.5804 19.266 37.4847C19.2841 37.3891 19.3108 37.2962 19.3462 37.206C19.3816 37.1159 19.425 37.0303 19.4764 36.9492C19.5277 36.8681 19.5861 36.7931 19.6515 36.7241Q19.7263 36.6452 19.8112 36.5792Q19.8376 36.5586 19.865 36.5393C19.9419 36.4851 20.023 36.4394 20.1085 36.402C20.1939 36.3647 20.282 36.3365 20.3727 36.3175C20.4634 36.2985 20.555 36.289 20.6475 36.289L22.6166 36.289L19.4189 32.9167C19.3546 32.8488 19.2972 32.775 19.2467 32.6952C19.1961 32.6154 19.1535 32.5312 19.1187 32.4426C19.0839 32.354 19.0576 32.2626 19.0398 32.1685Q19.028 32.1058 19.0214 32.0425Q19.0132 31.9634 19.0132 31.8834Q19.0132 31.8035 19.0214 31.7244Q19.028 31.6611 19.0398 31.5984C19.0576 31.5043 19.0839 31.4129 19.1187 31.3243C19.1535 31.2356 19.1961 31.1514 19.2467 31.0716C19.2972 30.9919 19.3546 30.9181 19.4189 30.8502C19.4832 30.7823 19.5532 30.7217 19.6288 30.6684C19.7044 30.6151 19.7843 30.57 19.8683 30.5333C19.9524 30.4966 20.039 30.4688 20.1282 30.4501C20.2175 30.4314 20.3076 30.422 20.3985 30.422C20.4895 30.422 20.5796 30.4314 20.6688 30.4501C20.7581 30.4688 20.8447 30.4966 20.9287 30.5333C21.0128 30.57 21.0926 30.6151 21.1683 30.6684C21.2439 30.7217 21.3139 30.7823 21.3782 30.8502L25.9862 35.7103L30.5885 30.8561C30.6537 30.7873 30.7247 30.7259 30.8014 30.6719C30.8781 30.6178 30.959 30.5721 31.0443 30.5349C31.1295 30.4977 31.2173 30.4696 31.3078 30.4506C31.3983 30.4316 31.4896 30.4221 31.5819 30.4221C31.6741 30.4221 31.7655 30.4316 31.8559 30.4506C31.9464 30.4696 32.0343 30.4977 32.1195 30.5349C32.2047 30.5721 32.2857 30.6178 32.3624 30.6719C32.4391 30.7259 32.51 30.7873 32.5752 30.8561C32.6405 30.9249 32.6987 30.9998 32.75 31.0807C32.8012 31.1616 32.8445 31.2469 32.8798 31.3368C32.9151 31.4267 32.9418 31.5194 32.9598 31.6148C32.9778 31.7102 32.9868 31.8066 32.9868 31.9039C32.9868 32.0012 32.9778 32.0975 32.9598 32.1929C32.9418 32.2884 32.9151 32.381 32.8798 32.4709C32.8445 32.5608 32.8012 32.6462 32.75 32.7271C32.6987 32.808 32.6405 32.8828 32.5752 32.9516L29.4106 36.289Z" fill="url(#paint_linear_120)" fill-rule="evenodd" />
		<g id="编组">
			<g filter="url(#filter_39)">
				<rect id="矩形" width="32" height="32" x="34" y="29.9997559" rx="16" fill="url(#paint_linear_121)" />
				<rect id="矩形" width="32" height="32" x="34" y="29.9997559" rx="16" stroke="rgb(255,255,255)" stroke-width="1.24740005" />
			</g>
			<path id="矢量 51" d="M57.6663 52.3579L55.7664 50.0401C55.8593 49.9111 55.948 49.7793 56.0326 49.6448C56.1173 49.5102 56.1976 49.3732 56.2736 49.2336C56.3496 49.094 56.4212 48.9521 56.4883 48.8081C56.5554 48.664 56.6179 48.5179 56.6759 48.3699C56.7338 48.2219 56.7871 48.0723 56.8356 47.9209C56.8842 47.7696 56.928 47.6169 56.9669 47.4628C57.0059 47.3087 57.04 47.1535 57.0693 46.9973C57.0985 46.841 57.1228 46.6841 57.1422 46.5263C57.1616 46.3685 57.176 46.2103 57.1855 46.0517C57.1949 45.893 57.1994 45.7342 57.1989 45.5753C57.1984 45.4163 57.1929 45.2575 57.1825 45.099C57.172 44.9404 57.1566 44.7822 57.1362 44.6246C57.1158 44.467 57.0905 44.3101 57.0603 44.1541C57.0301 43.9981 56.995 43.8431 56.955 43.6893C56.9151 43.5354 56.8704 43.383 56.8208 43.2319C56.7713 43.0809 56.7171 42.9316 56.6582 42.7839C56.5994 42.6363 56.5359 42.4907 56.4679 42.347C56.3999 42.2034 56.3274 42.062 56.2505 41.9229C56.1736 41.7838 56.0925 41.6472 56.007 41.5132C55.9215 41.3792 55.832 41.248 55.7383 41.1196C55.6446 40.9912 55.547 40.8659 55.4454 40.7436C55.3438 40.6213 55.2386 40.5024 55.1295 40.3867C55.0205 40.271 54.908 40.1589 54.7919 40.0503C54.6759 39.9417 54.5565 39.8368 54.4339 39.7357C54.3112 39.6346 54.1856 39.5374 54.0568 39.4442C53.9281 39.351 53.7966 39.2619 53.6622 39.1769C53.5279 39.092 53.3911 39.0113 53.2517 38.9349C53.1123 38.8585 52.9706 38.7866 52.8268 38.7191C52.6829 38.6516 52.537 38.5886 52.3891 38.5303C52.2413 38.4719 52.0918 38.4183 51.9405 38.3693C51.7893 38.3204 51.6367 38.2762 51.4827 38.2368C51.3288 38.1974 51.1737 38.1629 51.0175 38.1332C50.8614 38.1036 50.7044 38.0788 50.5467 38.059C50.389 38.0392 50.2309 38.0244 50.0722 38.0145C49.9136 38.0046 49.7548 37.9997 49.5959 37.9998C49.4369 37.9998 49.2781 38.0049 49.1195 38.0149C48.9609 38.025 48.8027 38.04 48.645 38.0599C48.4874 38.0799 48.3305 38.1048 48.1743 38.1346C48.0182 38.1644 47.8632 38.1991 47.7092 38.2386C47.5553 38.2781 47.4027 38.3225 47.2515 38.3716C47.1004 38.4207 46.9509 38.4745 46.8031 38.533C46.6553 38.5914 46.5095 38.6545 46.3657 38.7221C46.2218 38.7898 46.0803 38.8618 45.9409 38.9384C45.8016 39.0149 45.6649 39.0957 45.5306 39.1808C45.3964 39.2659 45.2649 39.3551 45.1363 39.4485C45.0076 39.5418 44.882 39.6391 44.7595 39.7403C44.637 39.8416 44.5177 39.9465 44.4018 40.0552C44.2858 40.164 44.1734 40.2762 44.0645 40.392C43.9556 40.5077 43.8504 40.6268 43.7489 40.7491C43.6475 40.8715 43.55 40.9969 43.4564 41.1254C43.3629 41.2539 43.2734 41.3852 43.1881 41.5193C43.1027 41.6534 43.0217 41.79 42.9449 41.9292C42.8682 42.0684 42.7959 42.2098 42.728 42.3535C42.6601 42.4973 42.5968 42.643 42.538 42.7907C42.4793 42.9384 42.4252 43.0877 42.3759 43.2388C42.3265 43.3899 42.2819 43.5424 42.2421 43.6963C42.2023 43.8501 42.1674 44.0051 42.1373 44.1612C42.1072 44.3173 42.0821 44.4741 42.0618 44.6318C42.0416 44.7894 42.0263 44.9476 42.016 45.1062C42.0057 45.2648 42.0004 45.4236 42 45.5825C41.9997 45.7414 42.0043 45.9002 42.0139 46.0589C42.0235 46.2175 42.0381 46.3757 42.0576 46.5335C42.0772 46.6912 42.1017 46.8482 42.131 47.0044C42.1604 47.1606 42.1947 47.3157 42.2338 47.4698C42.2729 47.6238 42.3168 47.7765 42.3655 47.9278C42.4142 48.0791 42.4676 48.2287 42.5257 48.3767C42.5838 48.5246 42.6465 48.6706 42.7137 48.8146C42.781 48.9586 42.8527 49.1004 42.9288 49.2399C43.005 49.3794 43.0854 49.5164 43.1702 49.6509C43.2549 49.7854 43.3438 49.9171 43.4368 50.0459C43.5298 50.1748 43.6267 50.3007 43.7276 50.4235C43.8285 50.5463 43.9332 50.6658 44.0416 50.7821C44.15 50.8983 44.2619 51.0111 44.3774 51.1203C44.4929 51.2295 44.6117 51.335 44.7337 51.4368C44.8558 51.5385 44.981 51.6364 45.1092 51.7303C45.2375 51.8242 45.3685 51.914 45.5024 51.9997C45.6362 52.0854 45.7727 52.1668 45.9116 52.2439C46.0506 52.3211 46.1919 52.3938 46.3354 52.462C46.4789 52.5303 46.6245 52.594 46.772 52.6531C46.9195 52.7123 47.0688 52.7667 47.2197 52.8165C47.3707 52.8663 47.523 52.9113 47.6768 52.9515C47.8306 52.9917 47.9855 53.027 48.1415 53.0575C48.2975 53.088 48.4542 53.1136 48.6118 53.1343C48.7694 53.1549 48.9275 53.1706 49.0861 53.1814C49.2447 53.1921 49.4034 53.1978 49.5624 53.1986C49.7213 53.1994 49.8801 53.1952 50.0388 53.186C50.1975 53.1768 50.3557 53.1627 50.5135 53.1435C50.6713 53.1244 50.8283 53.1004 50.9846 53.0714C51.1409 53.0424 51.2961 53.0086 51.4503 52.9699C51.6044 52.9312 51.7572 52.8877 51.9087 52.8394C52.0601 52.7911 52.2099 52.7381 52.358 52.6804C52.5061 52.6227 52.6522 52.5604 52.7964 52.4936C52.9406 52.4267 53.0826 52.3554 53.2223 52.2796C53.362 52.2038 53.4992 52.1238 53.6339 52.0394C53.7686 51.955 53.9005 51.8665 54.0297 51.7738C54.1588 51.6812 54.2849 51.5845 54.408 51.484L56.1844 53.6213C56.2042 53.6473 56.2252 53.6721 56.2476 53.6958C56.2699 53.7196 56.2934 53.7421 56.3181 53.7635C56.3428 53.7848 56.3685 53.8048 56.3952 53.8235C56.4219 53.8422 56.4495 53.8595 56.4781 53.8753C56.5066 53.8911 56.5358 53.9055 56.5658 53.9183C56.5958 53.9311 56.6263 53.9424 56.6575 53.9521C56.6886 53.9618 56.7202 53.9698 56.7522 53.9762C56.7841 53.9827 56.8163 53.9874 56.8488 53.9906C56.8813 53.9937 56.9138 53.9951 56.9464 53.9949C56.979 53.9946 57.0115 53.9927 57.044 53.9891C57.0764 53.9855 57.1085 53.9803 57.1404 53.9734C57.1723 53.9665 57.2037 53.958 57.2347 53.9479C57.2657 53.9377 57.2961 53.926 57.3259 53.9128C57.3557 53.8995 57.3847 53.8847 57.413 53.8685C57.4413 53.8522 57.4686 53.8345 57.4951 53.8155C57.5215 53.7964 57.5469 53.776 57.5713 53.7543C57.6193 53.711 57.6627 53.6634 57.7016 53.6117C57.7404 53.56 57.774 53.5051 57.8022 53.4469C57.8305 53.3887 57.8529 53.3284 57.8695 53.2659C57.8862 53.2034 57.8967 53.1399 57.9011 53.0753C57.9055 53.0108 57.9036 52.9464 57.8956 52.8823C57.8876 52.8181 57.8736 52.7553 57.8534 52.6938C57.8333 52.6323 57.8075 52.5733 57.776 52.5168C57.7446 52.4603 57.708 52.4074 57.6663 52.3579ZM49.5728 51.294C49.4796 51.294 49.3863 51.2917 49.2932 51.2871C49.2 51.2826 49.107 51.2757 49.0142 51.2665C48.9213 51.2574 48.8288 51.246 48.7365 51.2323C48.6443 51.2186 48.5524 51.2027 48.4609 51.1845C48.3694 51.1663 48.2784 51.1458 48.1879 51.1232C48.0975 51.1005 48.0076 51.0756 47.9183 51.0486C47.8291 51.0215 47.7405 50.9922 47.6527 50.9608C47.5649 50.9294 47.4779 50.8958 47.3917 50.8601C47.3055 50.8244 47.2203 50.7866 47.1359 50.7468C47.0516 50.7069 46.9683 50.665 46.8861 50.621C46.8038 50.577 46.7227 50.5311 46.6426 50.4831C46.5626 50.4351 46.4839 50.3853 46.4063 50.3334C46.3287 50.2816 46.2525 50.2279 46.1776 50.1724C46.1027 50.1168 46.0291 50.0594 45.957 50.0002C45.8849 49.9411 45.8143 49.8802 45.7452 49.8175C45.6761 49.7549 45.6086 49.6906 45.5426 49.6246C45.4766 49.5587 45.4123 49.4911 45.3497 49.422C45.2871 49.3529 45.2262 49.2823 45.167 49.2102C45.1078 49.1381 45.0504 49.0646 44.9949 48.9896C44.9393 48.9147 44.8856 48.8385 44.8338 48.7609C44.782 48.6834 44.7321 48.6046 44.6841 48.5246C44.6362 48.4446 44.5902 48.3634 44.5462 48.2812C44.5023 48.1989 44.4603 48.1156 44.4204 48.0313C44.3806 47.947 44.3428 47.8617 44.3071 47.7755C44.2714 47.6894 44.2378 47.6023 44.2064 47.5145C44.175 47.4267 44.1457 47.3382 44.1186 47.2489C44.0916 47.1596 44.0667 47.0698 44.044 46.9793C44.0214 46.8888 44.0009 46.7978 43.9827 46.7063C43.9645 46.6148 43.9486 46.523 43.9349 46.4307C43.9212 46.3384 43.9098 46.2459 43.9007 46.153C43.8915 46.0602 43.8847 45.9672 43.8801 45.8741C43.8755 45.7809 43.8732 45.6877 43.8732 45.5944C43.8732 45.5011 43.8755 45.4079 43.8801 45.3147C43.8847 45.2215 43.8915 45.1286 43.9007 45.0357C43.9098 44.9429 43.9212 44.8503 43.9349 44.7581C43.9486 44.6658 43.9645 44.5739 43.9827 44.4824C44.0009 44.391 44.0214 44.3 44.044 44.2095C44.0667 44.119 44.0916 44.0291 44.1186 43.9399C44.1457 43.8506 44.175 43.7621 44.2064 43.6742C44.2378 43.5864 44.2714 43.4994 44.3071 43.4132C44.3428 43.3271 44.3806 43.2418 44.4204 43.1575C44.4603 43.0732 44.5023 42.9899 44.5462 42.9076C44.5902 42.8253 44.6362 42.7442 44.6841 42.6642C44.7321 42.5842 44.782 42.5054 44.8338 42.4278C44.8856 42.3503 44.9393 42.2741 44.9949 42.1991C45.0504 42.1242 45.1078 42.0507 45.167 41.9786C45.2262 41.9065 45.2871 41.8359 45.3497 41.7668C45.4123 41.6976 45.4766 41.6301 45.5426 41.5641C45.6086 41.4982 45.6761 41.4339 45.7452 41.3713C45.8143 41.3086 45.8849 41.2477 45.957 41.1885C46.0291 41.1293 46.1027 41.072 46.1776 41.0164C46.2525 40.9608 46.3287 40.9072 46.4063 40.8553C46.4839 40.8035 46.5626 40.7536 46.6426 40.7057C46.7227 40.6577 46.8038 40.6117 46.8861 40.5678C46.9683 40.5238 47.0516 40.4819 47.1359 40.442C47.2203 40.4021 47.3055 40.3643 47.3917 40.3286C47.4779 40.2929 47.5649 40.2594 47.6527 40.228C47.7405 40.1965 47.8291 40.1673 47.9183 40.1402C48.0076 40.1131 48.0975 40.0882 48.1879 40.0656C48.2784 40.0429 48.3694 40.0225 48.4609 40.0043C48.5524 39.9861 48.6443 39.9701 48.7365 39.9565C48.8288 39.9428 48.9213 39.9314 49.0142 39.9222C49.107 39.9131 49.2 39.9062 49.2932 39.9016C49.3863 39.8971 49.4796 39.8948 49.5728 39.8948C49.6661 39.8948 49.7593 39.8971 49.8525 39.9016C49.9457 39.9062 50.0387 39.9131 50.1315 39.9222C50.2243 39.9314 50.3169 39.9428 50.4091 39.9565C50.5014 39.9701 50.5933 39.9861 50.6848 40.0043C50.7763 40.0225 50.8672 40.0429 50.9577 40.0656C51.0482 40.0882 51.1381 40.1131 51.2273 40.1402C51.3166 40.1673 51.4051 40.1965 51.493 40.2279C51.5808 40.2594 51.6678 40.2929 51.754 40.3286C51.8402 40.3643 51.9254 40.4021 52.0097 40.442C52.0941 40.4819 52.1773 40.5238 52.2596 40.5678C52.3419 40.6117 52.423 40.6577 52.503 40.7057C52.583 40.7536 52.6618 40.8035 52.7394 40.8553C52.8169 40.9072 52.8932 40.9608 52.9681 41.0164C53.043 41.072 53.1165 41.1293 53.1886 41.1885C53.2607 41.2477 53.3313 41.3086 53.4005 41.3713C53.4696 41.4339 53.5371 41.4982 53.6031 41.5641C53.669 41.6301 53.7333 41.6976 53.796 41.7668C53.8586 41.8359 53.9195 41.9065 53.9787 41.9786C54.0379 42.0507 54.0952 42.1242 54.1508 42.1991C54.2064 42.2741 54.2601 42.3503 54.3119 42.4278C54.3637 42.5054 54.4136 42.5842 54.4616 42.6642C54.5095 42.7442 54.5555 42.8253 54.5994 42.9076C54.6434 42.9899 54.6853 43.0732 54.7252 43.1575C54.7651 43.2418 54.8029 43.3271 54.8386 43.4132C54.8743 43.4994 54.9078 43.5864 54.9393 43.6742C54.9707 43.7621 54.9999 43.8506 55.027 43.9399C55.0541 44.0291 55.079 44.119 55.1016 44.2095C55.1243 44.3 55.1447 44.391 55.1629 44.4824C55.1811 44.5739 55.1971 44.6658 55.2108 44.7581C55.2244 44.8503 55.2359 44.9429 55.245 45.0357C55.2541 45.1286 55.261 45.2215 55.2656 45.3147C55.2702 45.4079 55.2724 45.5011 55.2724 45.5944C55.2724 45.6877 55.2702 45.7809 55.2656 45.8741C55.261 45.9672 55.2541 46.0602 55.245 46.153C55.2359 46.2459 55.2244 46.3384 55.2108 46.4307C55.1971 46.523 55.1811 46.6148 55.1629 46.7063C55.1447 46.7978 55.1243 46.8888 55.1016 46.9793C55.079 47.0698 55.0541 47.1596 55.027 47.2489C54.9999 47.3382 54.9707 47.4267 54.9393 47.5145C54.9078 47.6023 54.8743 47.6894 54.8386 47.7755C54.8029 47.8617 54.7651 47.947 54.7252 48.0313C54.6853 48.1156 54.6434 48.1989 54.5994 48.2812C54.5555 48.3634 54.5095 48.4446 54.4616 48.5246C54.4136 48.6046 54.3637 48.6834 54.3119 48.7609C54.2601 48.8385 54.2064 48.9147 54.1508 48.9896C54.0952 49.0646 54.0379 49.1381 53.9787 49.2102C53.9195 49.2823 53.8586 49.3529 53.796 49.422C53.7333 49.4911 53.669 49.5587 53.6031 49.6246C53.5371 49.6906 53.4696 49.7549 53.4005 49.8175C53.3313 49.8802 53.2607 49.9411 53.1886 50.0002C53.1165 50.0594 53.043 50.1168 52.9681 50.1724C52.8932 50.2279 52.8169 50.2816 52.7394 50.3334C52.6618 50.3853 52.583 50.4351 52.503 50.4831C52.423 50.5311 52.3419 50.577 52.2596 50.621C52.1773 50.665 52.0941 50.7069 52.0097 50.7468C51.9254 50.7866 51.8402 50.8244 51.754 50.8601C51.6678 50.8958 51.5808 50.9294 51.493 50.9608C51.4051 50.9922 51.3166 51.0215 51.2273 51.0486C51.1381 51.0756 51.0482 51.1005 50.9577 51.1232C50.8672 51.1458 50.7763 51.1663 50.6848 51.1845C50.5933 51.2027 50.5014 51.2186 50.4091 51.2323C50.3169 51.246 50.2243 51.2574 50.1315 51.2665C50.0387 51.2757 49.9457 51.2825 49.8525 51.2871C49.7593 51.2917 49.6661 51.294 49.5728 51.294L49.5728 51.294Z" fill="rgb(255,117,69)" fill-rule="nonzero" />
			<path id="矢量 51" d="M55.7664 50.0401C55.8593 49.9111 55.948 49.7793 56.0326 49.6448C56.1173 49.5102 56.1976 49.3732 56.2736 49.2336C56.3496 49.094 56.4212 48.9521 56.4883 48.8081C56.5554 48.664 56.6179 48.5179 56.6759 48.3699C56.7338 48.2219 56.7871 48.0723 56.8356 47.9209C56.8842 47.7696 56.928 47.6169 56.9669 47.4628C57.0059 47.3087 57.04 47.1535 57.0693 46.9973C57.0985 46.841 57.1228 46.6841 57.1422 46.5263C57.1616 46.3685 57.176 46.2103 57.1855 46.0517C57.1949 45.893 57.1994 45.7342 57.1989 45.5753C57.1984 45.4163 57.1929 45.2575 57.1825 45.099C57.172 44.9404 57.1566 44.7822 57.1362 44.6246C57.1158 44.467 57.0905 44.3101 57.0603 44.1541C57.0301 43.9981 56.995 43.8431 56.955 43.6893C56.9151 43.5354 56.8704 43.383 56.8208 43.2319C56.7713 43.0809 56.7171 42.9316 56.6582 42.7839C56.5994 42.6363 56.5359 42.4907 56.4679 42.347C56.3999 42.2034 56.3274 42.062 56.2505 41.9229C56.1736 41.7838 56.0925 41.6472 56.007 41.5132C55.9215 41.3792 55.832 41.248 55.7383 41.1196C55.6446 40.9912 55.547 40.8659 55.4454 40.7436C55.3438 40.6213 55.2386 40.5024 55.1295 40.3867C55.0205 40.271 54.908 40.1589 54.7919 40.0503C54.6759 39.9417 54.5565 39.8368 54.4339 39.7357C54.3112 39.6346 54.1856 39.5374 54.0568 39.4442C53.9281 39.351 53.7966 39.2619 53.6622 39.1769C53.5279 39.092 53.3911 39.0113 53.2517 38.9349C53.1123 38.8585 52.9706 38.7866 52.8268 38.7191C52.6829 38.6516 52.537 38.5886 52.3891 38.5303C52.2413 38.4719 52.0918 38.4183 51.9405 38.3693C51.7893 38.3204 51.6367 38.2762 51.4827 38.2368C51.3288 38.1974 51.1737 38.1629 51.0175 38.1332C50.8614 38.1036 50.7044 38.0788 50.5467 38.059C50.389 38.0392 50.2309 38.0244 50.0722 38.0145C49.9136 38.0046 49.7548 37.9997 49.5959 37.9998C49.4369 37.9998 49.2781 38.0049 49.1195 38.0149C48.9609 38.025 48.8027 38.04 48.645 38.0599C48.4874 38.0799 48.3305 38.1048 48.1743 38.1346C48.0182 38.1644 47.8632 38.1991 47.7092 38.2386C47.5553 38.2781 47.4027 38.3225 47.2515 38.3716C47.1004 38.4207 46.9509 38.4745 46.8031 38.533C46.6553 38.5914 46.5095 38.6545 46.3657 38.7221C46.2218 38.7898 46.0803 38.8618 45.9409 38.9384C45.8016 39.0149 45.6649 39.0957 45.5306 39.1808C45.3964 39.2659 45.2649 39.3551 45.1363 39.4485C45.0076 39.5418 44.882 39.6391 44.7595 39.7403C44.637 39.8416 44.5177 39.9465 44.4018 40.0552C44.2858 40.164 44.1734 40.2762 44.0645 40.392C43.9556 40.5077 43.8504 40.6268 43.7489 40.7491C43.6475 40.8715 43.55 40.9969 43.4564 41.1254C43.3629 41.2539 43.2734 41.3852 43.1881 41.5193C43.1027 41.6534 43.0217 41.79 42.9449 41.9292C42.8682 42.0684 42.7959 42.2098 42.728 42.3535C42.6601 42.4973 42.5968 42.643 42.538 42.7907C42.4793 42.9384 42.4252 43.0877 42.3759 43.2388C42.3265 43.3899 42.2819 43.5424 42.2421 43.6963C42.2023 43.8501 42.1674 44.0051 42.1373 44.1612C42.1072 44.3173 42.0821 44.4741 42.0618 44.6318C42.0416 44.7894 42.0263 44.9476 42.016 45.1062C42.0057 45.2648 42.0004 45.4236 42 45.5825C41.9997 45.7414 42.0043 45.9002 42.0139 46.0589C42.0235 46.2175 42.0381 46.3757 42.0576 46.5335C42.0772 46.6912 42.1017 46.8482 42.131 47.0044C42.1604 47.1606 42.1947 47.3157 42.2338 47.4698C42.2729 47.6238 42.3168 47.7765 42.3655 47.9278C42.4142 48.0791 42.4676 48.2287 42.5257 48.3767C42.5838 48.5246 42.6465 48.6706 42.7137 48.8146C42.781 48.9586 42.8527 49.1004 42.9288 49.2399C43.005 49.3794 43.0854 49.5164 43.1702 49.6509C43.2549 49.7854 43.3438 49.9171 43.4368 50.0459C43.5298 50.1748 43.6267 50.3007 43.7276 50.4235C43.8285 50.5463 43.9332 50.6658 44.0416 50.7821C44.15 50.8983 44.2619 51.0111 44.3774 51.1203C44.4929 51.2295 44.6117 51.335 44.7337 51.4368C44.8558 51.5385 44.981 51.6364 45.1092 51.7303C45.2375 51.8242 45.3685 51.914 45.5024 51.9997C45.6362 52.0854 45.7727 52.1668 45.9116 52.2439C46.0506 52.3211 46.1919 52.3938 46.3354 52.462C46.4789 52.5303 46.6245 52.594 46.772 52.6531C46.9195 52.7123 47.0688 52.7667 47.2197 52.8165C47.3707 52.8663 47.523 52.9113 47.6768 52.9515C47.8306 52.9917 47.9855 53.027 48.1415 53.0575C48.2975 53.088 48.4542 53.1136 48.6118 53.1343C48.7694 53.1549 48.9275 53.1706 49.0861 53.1814C49.2447 53.1921 49.4034 53.1978 49.5624 53.1986C49.7213 53.1994 49.8801 53.1952 50.0388 53.186C50.1975 53.1768 50.3557 53.1627 50.5135 53.1435C50.6713 53.1244 50.8283 53.1004 50.9846 53.0714C51.1409 53.0424 51.2961 53.0086 51.4503 52.9699C51.6044 52.9312 51.7572 52.8877 51.9087 52.8394C52.0601 52.7911 52.2099 52.7381 52.358 52.6804C52.5061 52.6227 52.6522 52.5604 52.7964 52.4936C52.9406 52.4267 53.0826 52.3554 53.2223 52.2796C53.362 52.2038 53.4992 52.1238 53.6339 52.0394C53.7686 51.955 53.9005 51.8665 54.0297 51.7738C54.1588 51.6812 54.2849 51.5845 54.408 51.484L56.1844 53.6213C56.2042 53.6473 56.2252 53.6721 56.2476 53.6958C56.2699 53.7196 56.2934 53.7421 56.3181 53.7635C56.3428 53.7848 56.3685 53.8048 56.3952 53.8235C56.4219 53.8422 56.4495 53.8595 56.4781 53.8753C56.5066 53.8911 56.5358 53.9055 56.5658 53.9183C56.5958 53.9311 56.6263 53.9424 56.6575 53.9521C56.6886 53.9618 56.7202 53.9698 56.7522 53.9762C56.7841 53.9827 56.8163 53.9874 56.8488 53.9906C56.8813 53.9937 56.9138 53.9951 56.9464 53.9949C56.979 53.9946 57.0115 53.9927 57.044 53.9891C57.0764 53.9855 57.1085 53.9803 57.1404 53.9734C57.1723 53.9665 57.2037 53.958 57.2347 53.9479C57.2657 53.9377 57.2961 53.926 57.3259 53.9128C57.3557 53.8995 57.3847 53.8847 57.413 53.8685C57.4413 53.8522 57.4686 53.8345 57.4951 53.8155C57.5215 53.7964 57.5469 53.776 57.5713 53.7543C57.6193 53.711 57.6627 53.6634 57.7016 53.6117C57.7404 53.56 57.774 53.5051 57.8022 53.4469C57.8305 53.3887 57.8529 53.3284 57.8695 53.2659C57.8862 53.2034 57.8967 53.1399 57.9011 53.0753C57.9055 53.0108 57.9036 52.9464 57.8956 52.8823C57.8876 52.8181 57.8736 52.7553 57.8534 52.6938C57.8333 52.6323 57.8075 52.5733 57.776 52.5168C57.7446 52.4603 57.708 52.4074 57.6663 52.3579L55.7664 50.0401ZM49.2932 51.2871C49.2 51.2826 49.107 51.2757 49.0142 51.2665C48.9213 51.2574 48.8288 51.246 48.7365 51.2323C48.6443 51.2186 48.5524 51.2027 48.4609 51.1845C48.3694 51.1663 48.2784 51.1458 48.1879 51.1232C48.0975 51.1005 48.0076 51.0756 47.9183 51.0486C47.8291 51.0215 47.7405 50.9922 47.6527 50.9608C47.5649 50.9294 47.4779 50.8958 47.3917 50.8601C47.3055 50.8244 47.2203 50.7866 47.1359 50.7468C47.0516 50.7069 46.9683 50.665 46.8861 50.621C46.8038 50.577 46.7227 50.5311 46.6426 50.4831C46.5626 50.4351 46.4839 50.3853 46.4063 50.3334C46.3287 50.2816 46.2525 50.2279 46.1776 50.1724C46.1027 50.1168 46.0291 50.0594 45.957 50.0002C45.8849 49.9411 45.8143 49.8802 45.7452 49.8175C45.6761 49.7549 45.6086 49.6906 45.5426 49.6246C45.4766 49.5587 45.4123 49.4911 45.3497 49.422C45.2871 49.3529 45.2262 49.2823 45.167 49.2102C45.1078 49.1381 45.0504 49.0646 44.9949 48.9896C44.9393 48.9147 44.8856 48.8385 44.8338 48.7609C44.782 48.6834 44.7321 48.6046 44.6841 48.5246C44.6362 48.4446 44.5902 48.3634 44.5462 48.2812C44.5023 48.1989 44.4603 48.1156 44.4204 48.0313C44.3806 47.947 44.3428 47.8617 44.3071 47.7755C44.2714 47.6894 44.2378 47.6023 44.2064 47.5145C44.175 47.4267 44.1457 47.3382 44.1186 47.2489C44.0916 47.1596 44.0667 47.0698 44.044 46.9793C44.0214 46.8888 44.0009 46.7978 43.9827 46.7063C43.9645 46.6148 43.9486 46.523 43.9349 46.4307C43.9212 46.3384 43.9098 46.2459 43.9007 46.153C43.8915 46.0602 43.8847 45.9672 43.8801 45.8741C43.8755 45.7809 43.8732 45.6877 43.8732 45.5944C43.8732 45.5011 43.8755 45.4079 43.8801 45.3147C43.8847 45.2215 43.8915 45.1286 43.9007 45.0357C43.9098 44.9429 43.9212 44.8503 43.9349 44.7581C43.9486 44.6658 43.9645 44.5739 43.9827 44.4824C44.0009 44.391 44.0214 44.3 44.044 44.2095C44.0667 44.119 44.0916 44.0291 44.1186 43.9399C44.1457 43.8506 44.175 43.7621 44.2064 43.6742C44.2378 43.5864 44.2714 43.4994 44.3071 43.4132C44.3428 43.3271 44.3806 43.2418 44.4204 43.1575C44.4603 43.0732 44.5023 42.9899 44.5462 42.9076C44.5902 42.8253 44.6362 42.7442 44.6841 42.6642C44.7321 42.5842 44.782 42.5054 44.8338 42.4278C44.8856 42.3503 44.9393 42.2741 44.9949 42.1991C45.0504 42.1242 45.1078 42.0507 45.167 41.9786C45.2262 41.9065 45.2871 41.8359 45.3497 41.7668C45.4123 41.6976 45.4766 41.6301 45.5426 41.5641C45.6086 41.4982 45.6761 41.4339 45.7452 41.3713C45.8143 41.3086 45.8849 41.2477 45.957 41.1885C46.0291 41.1293 46.1027 41.072 46.1776 41.0164C46.2525 40.9608 46.3287 40.9072 46.4063 40.8553C46.4839 40.8035 46.5626 40.7536 46.6426 40.7057C46.7227 40.6577 46.8038 40.6117 46.8861 40.5678C46.9683 40.5238 47.0516 40.4819 47.1359 40.442C47.2203 40.4021 47.3055 40.3643 47.3917 40.3286C47.4779 40.2929 47.5649 40.2594 47.6527 40.228C47.7405 40.1965 47.8291 40.1673 47.9183 40.1402C48.0076 40.1131 48.0975 40.0882 48.1879 40.0656C48.2784 40.0429 48.3694 40.0225 48.4609 40.0043C48.5524 39.9861 48.6443 39.9701 48.7365 39.9565C48.8288 39.9428 48.9213 39.9314 49.0142 39.9222C49.107 39.9131 49.2 39.9062 49.2932 39.9016C49.3863 39.8971 49.4796 39.8948 49.5728 39.8948C49.6661 39.8948 49.7593 39.8971 49.8525 39.9016C49.9457 39.9062 50.0387 39.9131 50.1315 39.9222C50.2243 39.9314 50.3169 39.9428 50.4091 39.9565C50.5014 39.9701 50.5933 39.9861 50.6848 40.0043C50.7763 40.0225 50.8672 40.0429 50.9577 40.0656C51.0482 40.0882 51.1381 40.1131 51.2273 40.1402C51.3166 40.1673 51.4051 40.1965 51.493 40.2279C51.5808 40.2594 51.6678 40.2929 51.754 40.3286C51.8402 40.3643 51.9254 40.4021 52.0097 40.442C52.0941 40.4819 52.1773 40.5238 52.2596 40.5678C52.3419 40.6117 52.423 40.6577 52.503 40.7057C52.583 40.7536 52.6618 40.8035 52.7394 40.8553C52.8169 40.9072 52.8932 40.9608 52.9681 41.0164C53.043 41.072 53.1165 41.1293 53.1886 41.1885C53.2607 41.2477 53.3313 41.3086 53.4005 41.3713C53.4696 41.4339 53.5371 41.4982 53.6031 41.5641C53.669 41.6301 53.7333 41.6976 53.796 41.7668C53.8586 41.8359 53.9195 41.9065 53.9787 41.9786C54.0379 42.0507 54.0952 42.1242 54.1508 42.1991C54.2064 42.2741 54.2601 42.3503 54.3119 42.4278C54.3637 42.5054 54.4136 42.5842 54.4616 42.6642C54.5095 42.7442 54.5555 42.8253 54.5994 42.9076C54.6434 42.9899 54.6853 43.0732 54.7252 43.1575C54.7651 43.2418 54.8029 43.3271 54.8386 43.4132C54.8743 43.4994 54.9078 43.5864 54.9393 43.6742C54.9707 43.7621 54.9999 43.8506 55.027 43.9399C55.0541 44.0291 55.079 44.119 55.1016 44.2095C55.1243 44.3 55.1447 44.391 55.1629 44.4824C55.1811 44.5739 55.1971 44.6658 55.2108 44.7581C55.2244 44.8503 55.2359 44.9429 55.245 45.0357C55.2541 45.1286 55.261 45.2215 55.2656 45.3147C55.2702 45.4079 55.2724 45.5011 55.2724 45.5944C55.2724 45.6877 55.2702 45.7809 55.2656 45.8741C55.261 45.9672 55.2541 46.0602 55.245 46.153C55.2359 46.2459 55.2244 46.3384 55.2108 46.4307C55.1971 46.523 55.1811 46.6148 55.1629 46.7063C55.1447 46.7978 55.1243 46.8888 55.1016 46.9793C55.079 47.0698 55.0541 47.1596 55.027 47.2489C54.9999 47.3382 54.9707 47.4267 54.9393 47.5145C54.9078 47.6023 54.8743 47.6894 54.8386 47.7755C54.8029 47.8617 54.7651 47.947 54.7252 48.0313C54.6853 48.1156 54.6434 48.1989 54.5994 48.2812C54.5555 48.3634 54.5095 48.4446 54.4616 48.5246C54.4136 48.6046 54.3637 48.6834 54.3119 48.7609C54.2601 48.8385 54.2064 48.9147 54.1508 48.9896C54.0952 49.0646 54.0379 49.1381 53.9787 49.2102C53.9195 49.2823 53.8586 49.3529 53.796 49.422C53.7333 49.4911 53.669 49.5587 53.6031 49.6246C53.5371 49.6906 53.4696 49.7549 53.4005 49.8175C53.3313 49.8802 53.2607 49.9411 53.1886 50.0002C53.1165 50.0594 53.043 50.1168 52.9681 50.1724C52.8932 50.2279 52.8169 50.2816 52.7394 50.3334C52.6618 50.3853 52.583 50.4351 52.503 50.4831C52.423 50.5311 52.3419 50.577 52.2596 50.621C52.1773 50.665 52.0941 50.7069 52.0097 50.7468C51.9254 50.7866 51.8402 50.8244 51.754 50.8601C51.6678 50.8958 51.5808 50.9294 51.493 50.9608C51.4051 50.9922 51.3166 51.0215 51.2273 51.0486C51.1381 51.0756 51.0482 51.1005 50.9577 51.1232C50.8672 51.1458 50.7763 51.1663 50.6848 51.1845C50.5933 51.2027 50.5014 51.2186 50.4091 51.2323C50.3169 51.246 50.2243 51.2574 50.1315 51.2665C50.0387 51.2757 49.9457 51.2825 49.8525 51.2871C49.7593 51.2917 49.6661 51.294 49.5728 51.294L49.5728 51.294C49.4796 51.294 49.3863 51.2917 49.2932 51.2871Z" fill-rule="nonzero" stroke="rgb(255,117,69)" stroke-width="0.5" />
		</g>
	</g>
</svg>
