<svg viewBox="0 0 70 70" xmlns="http://www.w3.org/2000/svg" xmlns:xlink="http://www.w3.org/1999/xlink" width="70" height="70" fill="none" customFrame="#000000">
	<defs>
		<linearGradient id="paint_linear_118" x1="0.999995351" x2="60.9999847" y1="34.9985275" y2="34.9985504" gradientUnits="userSpaceOnUse">
			<stop stop-color="rgb(102,158,255)" offset="0" stop-opacity="1" />
			<stop stop-color="rgb(25,110,255)" offset="1" stop-opacity="1" />
		</linearGradient>
		<g id="pixso_custom_effect_38">
			<effect visibility="visible" effectType="backgroundBlur" saturation="0" stdDeviation="17.125164" />
		</g>
		<filter id="filter_38" width="33.2474365" height="33.2473907" x="36.3762817" y="29.3763123" filterUnits="userSpaceOnUse" customEffect="url(#pixso_custom_effect_38)" color-interpolation-filters="sRGB">
			<feFlood flood-opacity="0" result="BackgroundImageFix" />
			<feGaussianBlur stdDeviation="5.70838785" in="BackgroundImage" />
			<feComposite result="effect_backgroundBlur_1" in2="SourceAlpha" operator="in" />
			<feBlend result="shape" in="SourceGraphic" in2="effect_backgroundBlur_1" mode="normal" />
		</filter>
		<linearGradient id="paint_linear_119" x1="39.0000076" x2="63.4968872" y1="30.4999962" y2="55.9759903" gradientUnits="userSpaceOnUse">
			<stop stop-color="rgb(255,255,255)" offset="0" stop-opacity="0" />
			<stop stop-color="rgb(255,255,255)" offset="1" stop-opacity="1" />
		</linearGradient>
	</defs>
	<rect id="名称=补登折" width="70" height="70" x="0" y="0" fill="rgb(255,255,255)" fill-opacity="0" />
	<g id="组合 1876">
		<g id="组合 1875">
			<path id="矢量 54" d="M61 20.3919C61 16.8685 58.162 13.9985 54.6738 13.9985L14.2587 13.9985C10.9699 13.9985 8.16035 16.5325 7.53865 20.0325L1.07488 42.4185C1.04166 42.5352 1.01793 42.6519 1.01318 42.7685C0.908774 44.4999 1.42607 46.0165 2.51285 47.1505C3.76099 48.4525 5.76847 49.2132 8.02746 49.2459C7.96577 49.4139 7.9278 49.5959 7.9278 49.7872C7.9278 53.2125 10.7658 55.9985 14.2539 55.9985L54.6691 55.9985C58.1573 55.9985 60.9953 53.2125 61 49.7872L61 20.5225C61 20.4992 60.9952 20.4759 60.9952 20.4479C60.9952 20.4292 61 20.4105 61 20.3919L61 20.3919ZM54.6691 52.7319L14.2539 52.7319C12.5977 52.7319 11.2499 51.4112 11.2499 49.7872C11.2499 49.6005 11.2119 49.4232 11.1502 49.2552L46.0175 49.2552C49.4677 49.2552 52.6616 47.0759 54.3511 43.5619C54.3891 43.4825 54.4223 43.3985 54.4461 43.3099L57.341 33.2999C57.3979 33.1785 57.4312 33.0432 57.4549 32.9079L57.6779 32.1425L57.6779 49.7872C57.6732 51.4112 56.3254 52.7319 54.6691 52.7319L54.6691 52.7319Z" fill="url(#paint_linear_118)" fill-rule="nonzero" />
			<path id="合并" d="M45.7613 29.7905C46.2976 29.9771 46.5966 30.2198 46.6867 30.5278C46.7769 30.8171 46.7247 31.1438 46.5301 31.5171C46.2691 32.0025 45.8989 32.0865 45.6332 32.0678C45.3152 32.0491 44.8976 31.9045 44.3281 31.6198C43.8535 31.3771 43.3837 31.1018 42.9376 30.8078C42.8853 30.9198 42.8189 31.0225 42.7287 31.1018C42.5579 31.2605 42.2969 31.3445 41.9599 31.3445L35.8379 31.3445C35.5009 31.3445 35.2446 31.2605 35.0738 31.0925C34.9883 31.0085 34.9219 30.9058 34.8745 30.7938C34.5233 30.9991 34.1626 31.1998 33.8019 31.3911C33.3416 31.6291 32.8765 31.8298 32.4161 31.9885C32.1219 32.1051 31.8704 32.1611 31.6615 32.1611C31.5476 32.1611 31.448 32.1425 31.3578 32.1098C31.0968 32.0071 30.9022 31.7785 30.7883 31.4285C30.6744 31.0598 30.6697 30.7751 30.7788 30.5558C30.8927 30.3365 31.1585 30.1545 31.5951 30.0051C32.1124 29.8325 32.6155 29.6225 33.0948 29.3751L32.8717 29.2305C32.6866 29.1091 32.4541 28.9691 32.1836 28.8011C31.8466 28.6051 31.6426 28.3811 31.5761 28.1338C31.5097 27.8818 31.5904 27.5925 31.8087 27.2751C32.0127 26.9858 32.2358 26.8225 32.4968 26.7758C32.5727 26.7618 32.6487 26.7571 32.7293 26.7618C32.6819 26.7291 32.6392 26.6965 32.6012 26.6545C32.4351 26.4818 32.3544 26.2298 32.3544 25.8938C32.3544 25.5625 32.4209 25.3151 32.5632 25.1331C32.7151 24.9278 33.0046 24.8251 33.4222 24.8251L37.3375 24.8251C38.1965 24.8251 38.7518 25.0491 38.9843 25.4925L39.0128 25.5485C39.008 25.4085 39.0318 25.2825 39.0792 25.1658C39.1979 24.8858 39.4304 24.6898 39.7769 24.5825C40.1328 24.4798 40.4318 24.5031 40.6643 24.6478C40.8921 24.7971 41.0677 25.0445 41.2148 25.4365C41.2481 25.5345 41.2813 25.6185 41.3145 25.7025C41.3762 25.6558 41.4379 25.6091 41.5043 25.5531C41.6277 25.4458 41.7464 25.3385 41.8508 25.2405C42.0928 24.9651 42.387 24.8111 42.7145 24.8065C43.0467 24.8065 43.3457 24.9651 43.6067 25.2965C43.8108 25.5438 43.9104 25.7958 43.9057 26.0431C43.8962 26.3045 43.7206 26.5798 43.3694 26.8878C43.1843 27.0465 43.0087 27.1771 42.8284 27.2938C42.7098 27.3685 42.5911 27.4431 42.463 27.5178C42.4867 27.5458 42.5057 27.5738 42.5294 27.6018C42.5626 27.6438 42.5959 27.6858 42.6291 27.7231C43.1796 27.4058 43.7016 27.0278 44.1857 26.6031C44.8216 26.0991 45.3769 26.1225 45.8277 26.5891C46.1077 26.8505 46.2501 27.1398 46.2311 27.4338C46.2121 27.7558 45.9986 28.0685 45.6047 28.3625C45.3626 28.5258 45.1348 28.6798 44.8881 28.8338C44.7267 28.9411 44.5511 29.0438 44.3708 29.1465C44.8216 29.4171 45.2867 29.6365 45.7613 29.7905ZM29.2744 32.4645C28.9944 32.1565 28.6859 31.8251 28.3679 31.4938C28.05 31.1625 27.7035 30.8078 27.3381 30.4345C26.9917 30.0798 26.612 29.7018 26.1991 29.2958L26.2039 25.7631C26.2039 25.3151 26.09 24.9931 25.8669 24.8018C25.6486 24.6198 25.3544 24.5265 24.9889 24.5265C24.6235 24.5265 24.3293 24.6198 24.1205 24.8065C23.9022 24.9978 23.793 25.3105 23.793 25.7631L23.793 30.9898C23.7171 30.8498 23.5984 30.7098 23.4323 30.5698C23.0716 30.2851 22.7537 30.1918 22.4642 30.2898C22.2032 30.3785 21.9611 30.5745 21.7238 30.8918C21.6479 30.9851 21.5577 31.0971 21.4581 31.2278C21.3584 31.3538 21.2588 31.4798 21.1401 31.6198C21.1021 31.6665 21.0642 31.7131 21.0215 31.7598C21.534 31.0831 21.9801 30.3878 22.3645 29.6785C22.5164 29.3705 22.5971 29.0671 22.6018 28.7731C22.6066 28.4838 22.5449 28.2178 22.412 27.9798C22.2838 27.7465 22.0845 27.5645 21.814 27.4245C21.5815 27.3078 21.3062 27.2471 20.993 27.2378C20.993 26.9531 20.8696 26.6825 20.6323 26.4538C20.414 26.2065 20.191 25.9638 19.9442 25.7118C19.707 25.4701 19.4603 25.2383 19.2038 25.0165C18.8621 24.7271 18.5394 24.5871 18.2404 24.6011C17.9462 24.6151 17.6662 24.7551 17.4004 25.0258C17.1489 25.3105 17.0255 25.5998 17.0303 25.8845C17.035 26.1785 17.2391 26.4865 17.6567 26.8225C17.7516 26.8971 17.8703 27.0045 18.0316 27.1585C18.0601 27.1865 18.0886 27.2145 18.1123 27.2425L16.513 27.2425C16.1096 27.2425 15.8058 27.3405 15.6065 27.5318C15.4119 27.7278 15.317 28.0265 15.317 28.4185C15.317 28.8011 15.4024 29.0858 15.5828 29.2958C15.7679 29.5058 16.0811 29.6178 16.513 29.6178L19.7448 29.6178C19.574 29.8885 19.3557 30.1965 19.0899 30.5278C18.7919 30.894 18.4802 31.2487 18.155 31.5918C17.8086 31.9558 17.4242 32.3338 17.0018 32.7118C16.5747 33.0945 16.1238 33.4631 15.6635 33.8038C15.2601 34.1025 15.037 34.3965 14.9753 34.6905C14.9136 34.9891 14.9943 35.2925 15.2221 35.5958C15.4499 35.8758 15.6872 36.0345 15.9577 36.0811C16.2425 36.1325 16.5747 36.0111 17.0208 35.7031C17.3055 35.4978 17.576 35.2785 17.8465 35.0638C17.9794 34.9565 18.1123 34.8491 18.2404 34.7371L18.2404 39.0305C18.2404 39.4645 18.3591 39.7678 18.5869 39.9405C18.7909 40.0945 19.0662 40.1738 19.4031 40.1738C19.8587 40.1738 20.1672 40.0805 20.3476 39.8891C20.5137 39.7025 20.5991 39.4225 20.5991 39.0258L20.5991 35.0265C20.7367 35.1385 20.8743 35.2505 21.0072 35.3625C21.2588 35.5725 21.4913 35.7778 21.6954 35.9691C22.0038 36.2725 22.3028 36.4498 22.5828 36.4965C22.8913 36.5478 23.195 36.4265 23.4893 36.1371C23.6222 36.0018 23.7171 35.8665 23.7883 35.7311L23.7883 38.8998C23.7883 39.3198 23.8832 39.6371 24.073 39.8425C24.2676 40.0525 24.5761 40.1551 24.9984 40.1551C25.4303 40.1551 25.7435 40.0478 25.9286 39.8378C26.109 39.6371 26.1944 39.3291 26.1944 38.8998L26.1944 32.5998C26.5171 32.9498 26.8256 33.2858 27.1103 33.6125C27.5422 34.0978 27.9266 34.5551 28.2968 35.0078C28.553 35.3111 28.8473 35.4978 29.1605 35.5631C29.3883 35.6098 29.7537 35.5771 30.1761 35.1618C30.4466 34.8958 30.5795 34.6158 30.5747 34.3265C30.57 34.0418 30.4134 33.7338 30.0907 33.3698L29.2744 32.4645ZM39.1931 26.2251C39.1646 26.1551 39.1362 26.0898 39.1124 26.0245C39.1124 26.3465 38.9891 26.7058 38.747 27.1025C38.4765 27.5411 38.1491 27.9751 37.7741 28.3811C37.5274 28.6471 37.2616 28.9131 36.9863 29.1698L41.044 29.1698C40.6975 28.7871 40.3938 28.3905 40.1423 27.9845C39.7816 27.4151 39.4636 26.8225 39.1931 26.2251ZM36.1938 26.9205L33.4175 26.9205C33.3558 26.9205 33.2989 26.9158 33.2372 26.9158C33.2846 26.9391 33.3321 26.9671 33.3795 26.9951L34.3097 27.5551C34.5565 27.6998 34.8175 27.8678 35.088 28.0498C35.5056 27.7231 35.8758 27.3451 36.1938 26.9205ZM45.3674 37.6911L42.6148 37.6911L42.8331 37.3225C42.947 37.1125 43.004 36.8978 43.004 36.6878C43.004 36.6085 42.9945 36.5338 42.9707 36.4591L43.0087 36.4591C43.6494 36.4591 44.1002 36.3378 44.3945 36.0905C44.6982 35.8338 44.8453 35.3951 44.8453 34.7511L44.8453 33.3371C44.8453 32.7071 44.6935 32.2545 44.3945 31.9931C44.1097 31.7411 43.6399 31.6105 43.0087 31.6105L34.5327 31.6105C33.8731 31.6105 33.4222 31.7411 33.1422 32.0071C32.8622 32.2731 32.7293 32.7071 32.7293 33.3371L32.7293 34.7511C32.7293 35.3811 32.867 35.8151 33.147 36.0765C33.427 36.3378 33.8826 36.4638 34.5327 36.4638L34.6324 36.4638C34.6229 36.5198 34.6182 36.5805 34.6229 36.6411C34.6276 36.8278 34.7036 37.0518 34.8507 37.3318C34.9029 37.4298 34.9693 37.5325 35.0405 37.6491C35.0453 37.6631 35.0548 37.6725 35.0595 37.6865L32.0222 37.6865C31.5998 37.6865 31.3103 37.7891 31.1585 37.9945C31.0208 38.1718 30.9497 38.4285 30.9497 38.7551C30.9497 39.0865 31.0303 39.3478 31.1869 39.5205C31.3531 39.7211 31.6283 39.8238 32.0175 39.8238L45.3626 39.8238C46.065 39.8238 46.4494 39.4458 46.4494 38.7551C46.4494 38.3958 46.3735 38.1391 46.2169 37.9711C46.0555 37.7798 45.7755 37.6911 45.3674 37.6911ZM23.3469 34.3031L22.8296 33.8738C22.6967 33.7665 22.5544 33.6498 22.4025 33.5331C22.5828 33.3605 22.7584 33.1785 22.9293 32.9778C23.1571 32.7211 23.3659 32.4645 23.5605 32.2031C23.6649 32.0585 23.7361 31.9278 23.793 31.7971L23.793 34.8398C23.7028 34.6671 23.5605 34.4851 23.3469 34.3031ZM35.0405 33.6778L42.5057 33.6778L42.5104 34.3871L35.0405 34.3871L35.0405 33.6778ZM36.9199 36.4685L40.7945 36.4685C40.7717 36.5093 40.749 36.5544 40.7307 36.6038L40.6738 36.7065C40.6026 36.8371 40.5219 36.9818 40.4317 37.1405C40.3321 37.3131 40.2229 37.4951 40.1043 37.6911L37.4561 37.6911L37.4466 37.6678C37.366 37.4578 37.29 37.2665 37.2236 37.1031C37.1477 36.9211 37.048 36.7065 36.9199 36.4685Z" fill="rgb(255,255,255)" fill-rule="evenodd" />
		</g>
		<g id="编组">
			<g filter="url(#filter_38)">
				<rect id="矩形" width="32" height="32" x="37" y="30" rx="16" fill="url(#paint_linear_119)" />
				<rect id="矩形" width="32" height="32" x="37" y="30" rx="16" stroke="rgb(255,255,255)" stroke-width="1.24740005" />
			</g>
			<path id="矢量 52" d="M59.5 51L47.5 51C47.4509 51 47.4019 51.0024 47.353 51.0072C47.3041 51.012 47.2555 51.0192 47.2074 51.0288C47.1592 51.0384 47.1116 51.0503 47.0646 51.0646C47.0176 51.0788 46.9714 51.0954 46.926 51.1142C46.8806 51.133 46.8362 51.154 46.7929 51.1771C46.7496 51.2003 46.7075 51.2255 46.6666 51.2528C46.6258 51.2801 46.5864 51.3093 46.5484 51.3405C46.5104 51.3717 46.4741 51.4046 46.4393 51.4393C46.4046 51.4741 46.3717 51.5104 46.3405 51.5484C46.3093 51.5864 46.2801 51.6258 46.2528 51.6666C46.2255 51.7075 46.2003 51.7496 46.1771 51.7929C46.154 51.8362 46.133 51.8806 46.1142 51.926C46.0954 51.9714 46.0788 52.0176 46.0646 52.0646C46.0503 52.1116 46.0384 52.1592 46.0288 52.2074C46.0192 52.2555 46.012 52.3041 46.0072 52.353C46.0024 52.4019 46 52.4509 46 52.5C46 52.5491 46.0024 52.5981 46.0072 52.647C46.012 52.6959 46.0192 52.7445 46.0288 52.7926C46.0384 52.8408 46.0503 52.8884 46.0646 52.9354C46.0788 52.9824 46.0954 53.0286 46.1142 53.074C46.133 53.1194 46.154 53.1638 46.1771 53.2071C46.2003 53.2504 46.2255 53.2925 46.2528 53.3334C46.2801 53.3742 46.3093 53.4136 46.3405 53.4516C46.3717 53.4896 46.4046 53.5259 46.4393 53.5607C46.4741 53.5954 46.5104 53.6283 46.5484 53.6595C46.5864 53.6907 46.6258 53.7199 46.6666 53.7472C46.7075 53.7745 46.7496 53.7997 46.7929 53.8229C46.8362 53.846 46.8806 53.867 46.926 53.8858C46.9714 53.9046 47.0176 53.9212 47.0646 53.9354C47.1116 53.9497 47.1592 53.9616 47.2074 53.9712C47.2555 53.9808 47.3041 53.988 47.353 53.9928C47.4019 53.9976 47.4509 54 47.5 54L59.5 54C59.5491 54 59.5981 53.9976 59.647 53.9928C59.6959 53.988 59.7445 53.9808 59.7926 53.9712C59.8408 53.9616 59.8884 53.9497 59.9354 53.9354C59.9824 53.9212 60.0286 53.9046 60.074 53.8858C60.1194 53.867 60.1638 53.846 60.2071 53.8229C60.2504 53.7997 60.2925 53.7745 60.3334 53.7472C60.3742 53.7199 60.4136 53.6907 60.4516 53.6595C60.4896 53.6283 60.5259 53.5954 60.5607 53.5607C60.5954 53.5259 60.6283 53.4896 60.6595 53.4516C60.6907 53.4136 60.7199 53.3742 60.7472 53.3334C60.7745 53.2925 60.7997 53.2504 60.8229 53.2071C60.846 53.1638 60.867 53.1194 60.8858 53.074C60.9046 53.0286 60.9212 52.9824 60.9354 52.9354C60.9497 52.8884 60.9616 52.8408 60.9712 52.7926C60.9808 52.7445 60.988 52.6959 60.9928 52.647C60.9976 52.5981 61 52.5491 61 52.5C61 52.4509 60.9976 52.4019 60.9928 52.353C60.988 52.3041 60.9808 52.2555 60.9712 52.2074C60.9616 52.1592 60.9497 52.1116 60.9354 52.0646C60.9212 52.0176 60.9046 51.9714 60.8858 51.926C60.867 51.8806 60.846 51.8362 60.8229 51.7929C60.7997 51.7496 60.7745 51.7075 60.7472 51.6666C60.7199 51.6258 60.6907 51.5864 60.6595 51.5484C60.6283 51.5104 60.5954 51.4741 60.5607 51.4393C60.5259 51.4046 60.4896 51.3717 60.4516 51.3405C60.4136 51.3093 60.3742 51.2801 60.3334 51.2528C60.2925 51.2255 60.2504 51.2003 60.2071 51.1771C60.1638 51.154 60.1194 51.133 60.074 51.1142C60.0286 51.0954 59.9824 51.0788 59.9354 51.0646C59.8884 51.0503 59.8408 51.0384 59.7926 51.0288C59.7445 51.0192 59.6959 51.012 59.647 51.0072C59.5981 51.0024 59.5491 51 59.5 51M59.5 45L54 45C53.9509 45 53.9019 45.0024 53.853 45.0072C53.8041 45.012 53.7555 45.0192 53.7074 45.0288C53.6592 45.0384 53.6116 45.0503 53.5646 45.0646C53.5176 45.0788 53.4714 45.0954 53.426 45.1142C53.3806 45.133 53.3362 45.154 53.2929 45.1771C53.2496 45.2003 53.2075 45.2255 53.1666 45.2528C53.1258 45.2801 53.0864 45.3093 53.0484 45.3405C53.0104 45.3717 52.9741 45.4046 52.9393 45.4393C52.9046 45.4741 52.8717 45.5104 52.8405 45.5484C52.8093 45.5864 52.7801 45.6258 52.7528 45.6666C52.7255 45.7075 52.7003 45.7496 52.6771 45.7929C52.654 45.8362 52.633 45.8806 52.6142 45.926C52.5954 45.9714 52.5788 46.0176 52.5646 46.0646C52.5503 46.1116 52.5384 46.1592 52.5288 46.2074C52.5192 46.2555 52.512 46.3041 52.5072 46.353C52.5024 46.4019 52.5 46.4509 52.5 46.5C52.5 46.5491 52.5024 46.5981 52.5072 46.647C52.512 46.6959 52.5192 46.7445 52.5288 46.7926C52.5384 46.8408 52.5503 46.8884 52.5646 46.9354C52.5788 46.9824 52.5954 47.0286 52.6142 47.074C52.633 47.1194 52.654 47.1638 52.6771 47.2071C52.7003 47.2504 52.7255 47.2925 52.7528 47.3334C52.7801 47.3742 52.8093 47.4136 52.8405 47.4516C52.8717 47.4896 52.9046 47.5259 52.9393 47.5607C52.9741 47.5954 53.0104 47.6283 53.0484 47.6595C53.0864 47.6907 53.1258 47.7199 53.1666 47.7472C53.2075 47.7745 53.2496 47.7997 53.2929 47.8229C53.3362 47.846 53.3806 47.867 53.426 47.8858C53.4714 47.9046 53.5176 47.9212 53.5646 47.9354C53.6116 47.9497 53.6592 47.9616 53.7074 47.9712C53.7555 47.9808 53.8041 47.988 53.853 47.9928C53.9019 47.9976 53.9509 48 54 48L59.5 48C59.5491 48 59.5981 47.9975 59.647 47.9927C59.6958 47.9878 59.7443 47.9806 59.7925 47.971C59.8406 47.9614 59.8882 47.9494 59.9352 47.9352C59.9822 47.9209 60.0284 47.9043 60.0737 47.8855C60.1191 47.8667 60.1634 47.8457 60.2067 47.8225C60.25 47.7994 60.292 47.7741 60.3329 47.7468C60.3737 47.7195 60.4131 47.6903 60.451 47.6591C60.489 47.628 60.5253 47.595 60.56 47.5603C60.5947 47.5256 60.6276 47.4892 60.6588 47.4512C60.6899 47.4133 60.7191 47.3739 60.7464 47.333C60.7737 47.2922 60.7989 47.2501 60.822 47.2068C60.8451 47.1635 60.8661 47.1192 60.8849 47.0738C60.9037 47.0284 60.9202 46.9822 60.9344 46.9352C60.9487 46.8882 60.9606 46.8407 60.9702 46.7925C60.9797 46.7443 60.9869 46.6958 60.9917 46.647C60.9966 46.5981 60.999 46.5491 60.999 46.5C60.999 46.4509 60.9966 46.4019 60.9917 46.353C60.9869 46.3042 60.9797 46.2557 60.9702 46.2075C60.9606 46.1593 60.9487 46.1118 60.9344 46.0648C60.9202 46.0178 60.9037 45.9716 60.8849 45.9262C60.8661 45.8808 60.8451 45.8365 60.822 45.7932C60.7989 45.7499 60.7737 45.7078 60.7464 45.667C60.7191 45.6261 60.6899 45.5867 60.6588 45.5488C60.6276 45.5108 60.5947 45.4744 60.56 45.4397C60.5253 45.405 60.489 45.372 60.451 45.3409C60.4131 45.3097 60.3737 45.2805 60.3329 45.2532C60.292 45.2259 60.25 45.2006 60.2067 45.1775C60.1634 45.1543 60.1191 45.1333 60.0737 45.1145C60.0284 45.0957 59.9822 45.0791 59.9352 45.0648C59.8882 45.0506 59.8406 45.0386 59.7925 45.029C59.7443 45.0194 59.6958 45.0122 59.647 45.0073C59.5981 45.0025 59.5491 45 59.5 45M54 42L59.5 42C59.5491 42 59.5981 41.9976 59.647 41.9928C59.6959 41.988 59.7445 41.9808 59.7926 41.9712C59.8408 41.9616 59.8884 41.9497 59.9354 41.9354C59.9824 41.9212 60.0286 41.9046 60.074 41.8858C60.1194 41.867 60.1638 41.846 60.2071 41.8229C60.2504 41.7997 60.2925 41.7745 60.3334 41.7472C60.3742 41.7199 60.4136 41.6907 60.4516 41.6595C60.4896 41.6283 60.5259 41.5954 60.5607 41.5607C60.5954 41.5259 60.6283 41.4896 60.6595 41.4516C60.6907 41.4136 60.7199 41.3742 60.7472 41.3334C60.7745 41.2925 60.7997 41.2504 60.8229 41.2071C60.846 41.1638 60.867 41.1194 60.8858 41.074C60.9046 41.0286 60.9212 40.9824 60.9354 40.9354C60.9497 40.8884 60.9616 40.8408 60.9712 40.7926C60.9808 40.7445 60.988 40.6959 60.9928 40.647C60.9976 40.5981 61 40.5491 61 40.5C61 40.4509 60.9976 40.4019 60.9928 40.353C60.988 40.3041 60.9808 40.2555 60.9712 40.2074C60.9616 40.1592 60.9497 40.1116 60.9354 40.0646C60.9212 40.0176 60.9046 39.9714 60.8858 39.926C60.867 39.8806 60.846 39.8362 60.8229 39.7929C60.7997 39.7496 60.7745 39.7075 60.7472 39.6666C60.7199 39.6258 60.6907 39.5864 60.6595 39.5484C60.6283 39.5104 60.5954 39.4741 60.5607 39.4393C60.5259 39.4046 60.4896 39.3717 60.4516 39.3405C60.4136 39.3093 60.3742 39.2801 60.3334 39.2528C60.2925 39.2255 60.2504 39.2003 60.2071 39.1771C60.1638 39.154 60.1194 39.133 60.074 39.1142C60.0286 39.0954 59.9824 39.0788 59.9354 39.0646C59.8884 39.0503 59.8408 39.0384 59.7926 39.0288C59.7445 39.0192 59.6959 39.012 59.647 39.0072C59.5981 39.0024 59.5491 39 59.5 39L54 39C53.9509 39 53.9019 39.0024 53.853 39.0072C53.8041 39.012 53.7555 39.0192 53.7074 39.0288C53.6592 39.0384 53.6116 39.0503 53.5646 39.0646C53.5176 39.0788 53.4714 39.0954 53.426 39.1142C53.3806 39.133 53.3362 39.154 53.2929 39.1771C53.2496 39.2003 53.2075 39.2255 53.1666 39.2528C53.1258 39.2801 53.0864 39.3093 53.0484 39.3405C53.0104 39.3717 52.9741 39.4046 52.9393 39.4393C52.9046 39.4741 52.8717 39.5104 52.8405 39.5484C52.8093 39.5864 52.7801 39.6258 52.7528 39.6666C52.7255 39.7075 52.7003 39.7496 52.6771 39.7929C52.654 39.8362 52.633 39.8806 52.6142 39.926C52.5954 39.9714 52.5788 40.0176 52.5646 40.0646C52.5503 40.1116 52.5384 40.1592 52.5288 40.2074C52.5192 40.2555 52.512 40.3041 52.5072 40.353C52.5024 40.4019 52.5 40.4509 52.5 40.5C52.5 40.5491 52.5024 40.5981 52.5072 40.647C52.512 40.6959 52.5192 40.7445 52.5288 40.7926C52.5384 40.8408 52.5503 40.8884 52.5646 40.9354C52.5788 40.9824 52.5954 41.0286 52.6142 41.074C52.633 41.1194 52.654 41.1638 52.6771 41.2071C52.7003 41.2504 52.7255 41.2925 52.7528 41.3334C52.7801 41.3742 52.8093 41.4136 52.8405 41.4516C52.8717 41.4896 52.9046 41.5259 52.9393 41.5607C52.9741 41.5954 53.0104 41.6283 53.0484 41.6595C53.0864 41.6907 53.1258 41.7199 53.1666 41.7472C53.2075 41.7745 53.2496 41.7997 53.2929 41.8229C53.3362 41.846 53.3806 41.867 53.426 41.8858C53.4714 41.9046 53.5176 41.9212 53.5646 41.9354C53.6116 41.9497 53.6592 41.9616 53.7074 41.9712C53.7555 41.9808 53.8041 41.988 53.853 41.9928C53.9019 41.9976 53.9509 42 54 42ZM47.5 48L47.75 48C47.7991 48 47.8481 47.9976 47.897 47.9928C47.9459 47.988 47.9945 47.9808 48.0426 47.9712C48.0908 47.9616 48.1384 47.9497 48.1854 47.9354C48.2324 47.9212 48.2786 47.9046 48.324 47.8858C48.3694 47.867 48.4138 47.846 48.4571 47.8229C48.5004 47.7997 48.5425 47.7745 48.5834 47.7472C48.6242 47.7199 48.6636 47.6907 48.7016 47.6595C48.7396 47.6283 48.7759 47.5954 48.8107 47.5607C48.8454 47.5259 48.8783 47.4896 48.9095 47.4516C48.9407 47.4136 48.9699 47.3742 48.9972 47.3334C49.0245 47.2925 49.0497 47.2504 49.0729 47.2071C49.096 47.1638 49.117 47.1194 49.1358 47.074C49.1546 47.0286 49.1712 46.9824 49.1854 46.9354C49.1997 46.8884 49.2116 46.8408 49.2212 46.7926C49.2308 46.7445 49.238 46.6959 49.2428 46.647C49.2476 46.5981 49.25 46.5491 49.25 46.5L49.25 40.5C49.25 40.4509 49.2476 40.4019 49.2428 40.353C49.238 40.3041 49.2308 40.2555 49.2212 40.2074C49.2116 40.1592 49.1997 40.1116 49.1854 40.0646C49.1712 40.0176 49.1546 39.9714 49.1358 39.926C49.117 39.8806 49.096 39.8362 49.0729 39.7929C49.0497 39.7496 49.0245 39.7075 48.9972 39.6666C48.9699 39.6258 48.9407 39.5864 48.9095 39.5484C48.8783 39.5104 48.8454 39.4741 48.8107 39.4393C48.7759 39.4046 48.7396 39.3717 48.7016 39.3405C48.6636 39.3093 48.6242 39.2801 48.5834 39.2528C48.5425 39.2255 48.5004 39.2003 48.4571 39.1771C48.4138 39.154 48.3694 39.133 48.324 39.1142C48.2786 39.0954 48.2324 39.0788 48.1854 39.0646C48.1384 39.0503 48.0908 39.0384 48.0426 39.0288C47.9945 39.0192 47.9459 39.012 47.897 39.0072C47.8481 39.0024 47.7991 39 47.75 39L47.5 39C47.4509 39 47.4019 39.0024 47.353 39.0072C47.3041 39.012 47.2555 39.0192 47.2074 39.0288C47.1592 39.0384 47.1116 39.0503 47.0646 39.0646C47.0176 39.0788 46.9714 39.0954 46.926 39.1142C46.8806 39.133 46.8362 39.154 46.7929 39.1771C46.7496 39.2003 46.7075 39.2255 46.6666 39.2528C46.6258 39.2801 46.5864 39.3093 46.5484 39.3405C46.5104 39.3717 46.4741 39.4046 46.4393 39.4393C46.4046 39.4741 46.3717 39.5104 46.3405 39.5484C46.3093 39.5864 46.2801 39.6258 46.2528 39.6666C46.2255 39.7075 46.2003 39.7496 46.1771 39.7929C46.154 39.8362 46.133 39.8806 46.1142 39.926C46.0954 39.9714 46.0788 40.0176 46.0646 40.0646C46.0503 40.1116 46.0384 40.1592 46.0288 40.2074C46.0192 40.2555 46.012 40.3041 46.0072 40.353C46.0024 40.4019 46 40.4509 46 40.5L46 46.5C46 46.5491 46.0024 46.5981 46.0072 46.647C46.012 46.6959 46.0192 46.7445 46.0288 46.7926C46.0384 46.8408 46.0503 46.8884 46.0646 46.9354C46.0788 46.9824 46.0954 47.0286 46.1142 47.074C46.133 47.1194 46.154 47.1638 46.1771 47.2071C46.2003 47.2504 46.2255 47.2925 46.2528 47.3334C46.2801 47.3742 46.3093 47.4136 46.3405 47.4516C46.3717 47.4896 46.4046 47.5259 46.4393 47.5607C46.4741 47.5954 46.5104 47.6283 46.5484 47.6595C46.5864 47.6907 46.6258 47.7199 46.6666 47.7472C46.7075 47.7745 46.7496 47.7997 46.7929 47.8229C46.8362 47.846 46.8806 47.867 46.926 47.8858C46.9714 47.9046 47.0176 47.9212 47.0646 47.9354C47.1116 47.9497 47.1592 47.9616 47.2074 47.9712C47.2555 47.9808 47.3041 47.988 47.353 47.9928C47.4019 47.9976 47.4509 48 47.5 48Z" fill="rgb(25,110,255)" fill-rule="nonzero" />
		</g>
	</g>
</svg>
