<svg viewBox="0 0 24 24" xmlns="http://www.w3.org/2000/svg" xmlns:xlink="http://www.w3.org/1999/xlink" width="24" height="24" fill="none" customFrame="#000000">
	<rect id="名称=子账户,选中=否" width="24" height="24" x="0" y="0" fill="rgb(255,255,255)" fill-opacity="0" />
	<path id="合并" d="M5.81241 3.5L20.9375 3.5C22.0748 3.5 23 4.41569 23 5.54059L23 16.4195C23 17.5444 22.0748 18.4601 20.9375 18.4601L19.5625 18.4601C19.5625 19.5843 18.6374 20.5 17.5001 20.5L3.06244 20.5C1.9251 20.5 1 19.5843 1 18.4601L1 8.94045C1 7.81555 1.9251 6.89986 3.06244 6.89986L3.74997 6.89986L3.74997 5.54059C3.74997 4.41569 4.67508 3.5 5.81241 3.5ZM21.625 16.4195C21.625 16.7953 21.3162 17.0994 20.9375 17.0994L19.5625 17.0994L19.5625 8.94045C19.5625 7.81555 18.6374 6.89986 17.5001 6.89986L5.12492 6.89986L5.12492 5.54059C5.12492 5.16473 5.43305 4.85992 5.81238 4.85992L20.9375 4.85992C21.3162 4.85992 21.625 5.16473 21.625 5.54059L21.625 16.4195ZM2.37497 10.9797L18.1876 10.9797L18.1875 8.94045C18.1875 8.56459 17.8787 8.26048 17.5001 8.26048L3.06241 8.26048C2.68313 8.26048 2.37497 8.56459 2.37497 8.94045L2.37497 10.9797ZM18.1876 18.4601C18.1876 18.8346 17.8787 19.1394 17.5001 19.1394L3.06241 19.1394C2.68311 19.1394 2.37497 18.8346 2.37497 18.4601L2.37497 12.3403L18.1876 12.3403L18.1876 18.4601ZM6.49995 15.739L3.75005 15.739L3.75005 17.0989L6.49995 17.0989L6.49995 15.739Z" fill="rgb(80,81,82)" fill-rule="evenodd" />
</svg>
