<svg viewBox="0 0 70 70" xmlns="http://www.w3.org/2000/svg" xmlns:xlink="http://www.w3.org/1999/xlink" width="70" height="70" fill="none" customFrame="#000000">
	<defs>
		<linearGradient id="paint_linear_124" x1="49.9999924" x2="0.999992371" y1="34.8449554" y2="34.8449097" gradientUnits="userSpaceOnUse">
			<stop stop-color="rgb(41,204,152)" offset="0" stop-opacity="1" />
			<stop stop-color="rgb(0,224,152)" offset="1" stop-opacity="1" />
		</linearGradient>
		<g id="pixso_custom_effect_41">
			<effect visibility="visible" effectType="backgroundBlur" saturation="0" stdDeviation="17.125164" />
		</g>
		<filter id="filter_41" width="33.2473755" height="33.2473907" x="36.3763123" y="29.3761902" filterUnits="userSpaceOnUse" customEffect="url(#pixso_custom_effect_41)" color-interpolation-filters="sRGB">
			<feFlood flood-opacity="0" result="BackgroundImageFix" />
			<feGaussianBlur stdDeviation="5.70838785" in="BackgroundImage" />
			<feComposite result="effect_backgroundBlur_1" in2="SourceAlpha" operator="in" />
			<feBlend result="shape" in="SourceGraphic" in2="effect_backgroundBlur_1" mode="normal" />
		</filter>
		<linearGradient id="paint_linear_125" x1="41.5000038" x2="63.4968872" y1="32.4998779" y2="55.9758682" gradientUnits="userSpaceOnUse">
			<stop stop-color="rgb(255,255,255)" offset="0" stop-opacity="0" />
			<stop stop-color="rgb(255,255,255)" offset="1" stop-opacity="1" />
		</linearGradient>
	</defs>
	<rect id="名称=开通账户变动通知" width="70" height="70" x="0" y="0" fill="rgb(255,255,255)" fill-opacity="0" />
	<g id="组合 1879">
		<path id="合并" d="M39.1961 9.99988L12.7647 9.99988C9.451 9.99988 6.76471 12.6862 6.76471 15.9999L6.76471 31.1188C6.76471 32.2994 7.45706 33.3702 8.53361 33.8546L23.5182 40.5977C25.0841 41.3023 26.8768 41.3023 28.4426 40.5977L43.4272 33.8546C44.5037 33.3702 45.1961 32.2994 45.1961 31.1188L45.1961 15.9999C45.1961 12.6862 42.5098 9.99988 39.1961 9.99988ZM31.1325 22.0787L29.2635 22.0787L32.3097 19.0328C32.3725 18.9701 32.4286 18.9018 32.4779 18.8279C32.5273 18.7541 32.5689 18.6762 32.6029 18.5941C32.6369 18.5121 32.6626 18.4275 32.6799 18.3405C32.6972 18.2534 32.7059 18.1654 32.7059 18.0766C32.7059 17.9878 32.6972 17.8999 32.6799 17.8128C32.6626 17.7257 32.6369 17.6412 32.6029 17.5591C32.5689 17.4771 32.5273 17.3992 32.4779 17.3253C32.4286 17.2515 32.3725 17.1832 32.3097 17.1204C32.247 17.0576 32.1786 17.0016 32.1048 16.9522C32.031 16.9029 31.9531 16.8612 31.871 16.8272C31.789 16.7933 31.7044 16.7676 31.6173 16.7503Q31.5522 16.7373 31.4864 16.7308L31.4864 16.7308Q31.4203 16.7243 31.3535 16.7243Q31.2868 16.7243 31.2207 16.7308Q31.1549 16.7373 31.0897 16.7503C31.0026 16.7676 30.918 16.7933 30.836 16.8272C30.754 16.8612 30.676 16.9029 30.6022 16.9522C30.5284 17.0016 30.4601 17.0576 30.3973 17.1204L25.9671 21.5506L21.5314 17.115C21.4695 17.0531 21.4021 16.9977 21.3293 16.9491Q21.2748 16.9126 21.2171 16.8818L21.2171 16.8817L21.2168 16.8816Q21.1593 16.8509 21.0988 16.8258C21.0179 16.7923 20.9345 16.7669 20.8486 16.7499C20.7627 16.7328 20.676 16.7242 20.5884 16.7242C20.5008 16.7242 20.4141 16.7328 20.3282 16.7499C20.2423 16.7669 20.1589 16.7923 20.078 16.8258C19.9971 16.8593 19.9203 16.9004 19.8475 16.9491C19.7747 16.9977 19.7073 17.0531 19.6454 17.115Q19.599 17.1614 19.5575 17.212L19.5574 17.2121Q19.516 17.2626 19.4796 17.3171C19.431 17.3899 19.3899 17.4668 19.3564 17.5477C19.3229 17.6286 19.2976 17.712 19.2805 17.7978C19.2634 17.8837 19.2549 17.9704 19.2549 18.058C19.2549 18.1456 19.2634 18.2323 19.2805 18.3182C19.2976 18.404 19.3229 18.4874 19.3564 18.5683C19.3899 18.6492 19.431 18.7261 19.4796 18.7989Q19.5161 18.8535 19.5576 18.904Q19.599 18.9546 19.6454 19.001L22.7235 22.0787L20.8281 22.0787C20.739 22.0787 20.6509 22.0874 20.5635 22.1048C20.4762 22.1222 20.3914 22.1479 20.3092 22.182C20.2269 22.216 20.1488 22.2578 20.0748 22.3072Q20.0193 22.3443 19.968 22.3864Q19.9166 22.4286 19.8693 22.4759C19.8064 22.5388 19.7502 22.6073 19.7007 22.6813C19.6512 22.7553 19.6095 22.8335 19.5754 22.9157C19.5413 22.998 19.5156 23.0828 19.4983 23.1701C19.4809 23.2574 19.4722 23.3456 19.4722 23.4346C19.4722 23.5236 19.4809 23.6118 19.4983 23.6991C19.5156 23.7864 19.5413 23.8712 19.5754 23.9535C19.6095 24.0357 19.6512 24.1138 19.7007 24.1879C19.7502 24.2619 19.8064 24.3304 19.8693 24.3933C19.9323 24.4563 20.0008 24.5125 20.0748 24.5619C20.1488 24.6114 20.2269 24.6532 20.3092 24.6872C20.3914 24.7213 20.4762 24.747 20.5635 24.7644C20.6509 24.7818 20.739 24.7904 20.8281 24.7904L24.6244 24.7904L24.6244 26.9598L20.8281 26.9598C20.739 26.9598 20.6509 26.9685 20.5635 26.9858C20.4762 27.0032 20.3914 27.0289 20.3092 27.063C20.2269 27.0971 20.1488 27.1388 20.0748 27.1883Q20.0193 27.2254 19.9679 27.2675Q19.9166 27.3097 19.8693 27.3569C19.8064 27.4199 19.7502 27.4883 19.7007 27.5624C19.6512 27.6364 19.6095 27.7145 19.5754 27.7968Q19.5499 27.8585 19.5306 27.9221L19.5305 27.9222Q19.5113 27.9857 19.4983 28.0511Q19.4852 28.1166 19.4787 28.1828Q19.4722 28.2489 19.4722 28.3156C19.4722 28.4047 19.4809 28.4928 19.4983 28.5801C19.5156 28.6675 19.5413 28.7522 19.5754 28.8345C19.6095 28.9167 19.6512 28.9949 19.7007 29.0689C19.7502 29.1429 19.8064 29.2114 19.8693 29.2744Q19.9166 29.3216 19.9679 29.3638Q20.0193 29.4059 20.0748 29.443C20.1488 29.4924 20.2269 29.5342 20.3092 29.5683C20.3914 29.6023 20.4762 29.6281 20.5635 29.6454C20.6509 29.6628 20.739 29.6715 20.8281 29.6715L24.6244 29.6715L24.6244 33.7929C24.6244 33.8819 24.6331 33.9701 24.6505 34.0574C24.6679 34.1447 24.6936 34.2295 24.7276 34.3118C24.7617 34.394 24.8035 34.4722 24.8529 34.5462C24.9024 34.6202 24.9586 34.6887 25.0216 34.7516C25.0845 34.8146 25.153 34.8708 25.227 34.9202C25.301 34.9697 25.3792 35.0115 25.4614 35.0455C25.5437 35.0796 25.6285 35.1053 25.7158 35.1227C25.8031 35.1401 25.8913 35.1488 25.9803 35.1488C26.0693 35.1488 26.1575 35.1401 26.2448 35.1227C26.3321 35.1053 26.4169 35.0796 26.4991 35.0455C26.5814 35.0115 26.6595 34.9697 26.7336 34.9202C26.8076 34.8708 26.8761 34.8146 26.939 34.7516C27.002 34.6887 27.0582 34.6202 27.1076 34.5462C27.1571 34.4722 27.1989 34.394 27.2329 34.3118C27.267 34.2295 27.2927 34.1447 27.3101 34.0574C27.3274 33.9701 27.3361 33.8819 27.3361 33.7929L27.3361 29.6715L31.1325 29.6715C31.2215 29.6715 31.3097 29.6628 31.397 29.6454C31.4843 29.6281 31.5691 29.6023 31.6514 29.5683C31.7336 29.5342 31.8118 29.4924 31.8858 29.443C31.9598 29.3935 32.0283 29.3373 32.0912 29.2744C32.1542 29.2114 32.2104 29.1429 32.2599 29.0689C32.3093 28.9949 32.3511 28.9167 32.3852 28.8345C32.4192 28.7522 32.4449 28.6675 32.4623 28.5801C32.4797 28.4928 32.4884 28.4047 32.4884 28.3156C32.4884 28.2266 32.4797 28.1384 32.4623 28.0511C32.4449 27.9638 32.4192 27.879 32.3852 27.7968C32.3511 27.7145 32.3093 27.6364 32.2599 27.5624C32.2104 27.4883 32.1542 27.4199 32.0912 27.3569C32.0283 27.294 31.9598 27.2377 31.8858 27.1883C31.8118 27.1388 31.7336 27.0971 31.6514 27.063C31.5691 27.0289 31.4843 27.0032 31.397 26.9858C31.3097 26.9685 31.2215 26.9598 31.1325 26.9598L27.3361 26.9598L27.3361 24.7904L31.1325 24.7904C31.2215 24.7904 31.3097 24.7818 31.397 24.7644C31.4843 24.747 31.5691 24.7213 31.6514 24.6872C31.7336 24.6532 31.8118 24.6114 31.8858 24.5619C31.9598 24.5125 32.0283 24.4563 32.0912 24.3933C32.1542 24.3304 32.2104 24.2619 32.2599 24.1879C32.3093 24.1138 32.3511 24.0357 32.3852 23.9535C32.4192 23.8712 32.4449 23.7864 32.4623 23.6991C32.4797 23.6118 32.4884 23.5236 32.4884 23.4346C32.4884 23.3456 32.4797 23.2574 32.4623 23.1701C32.4449 23.0828 32.4192 22.998 32.3852 22.9157C32.3511 22.8335 32.3093 22.7553 32.2599 22.6813C32.2104 22.6073 32.1542 22.5388 32.0912 22.4759C32.0283 22.4129 31.9598 22.3567 31.8858 22.3072C31.8118 22.2578 31.7336 22.216 31.6514 22.182C31.5691 22.1479 31.4843 22.1222 31.397 22.1048C31.3097 22.0874 31.2215 22.0787 31.1325 22.0787ZM5.21352 35.8833L22.6799 43.6088C24.7784 44.537 27.1745 44.5194 29.2592 43.5604L45.7463 35.9763C47.7338 35.0621 50 36.5141 50 38.7018L50 52.9999C50 56.3136 47.3137 58.9999 44 58.9999L7 58.9999C3.68629 58.9999 1 56.3136 1 52.9999L1 38.6269C1 36.4582 3.2302 35.006 5.21352 35.8833Z" fill="url(#paint_linear_124)" fill-rule="evenodd" />
		<g id="编组">
			<g filter="url(#filter_41)">
				<rect id="矩形" width="32" height="32" x="37" y="29.9998779" rx="16" fill="url(#paint_linear_125)" />
				<rect id="矩形" width="32" height="32" x="37" y="29.9998779" rx="16" stroke="rgb(255,255,255)" stroke-width="1.24740005" />
			</g>
			<path id="矢量 82" d="M52.5005 36.9999C52.6849 36.9999 52.869 37.0083 53.0526 37.0251C53.2363 37.0419 53.4188 37.067 53.6001 37.1005C53.7815 37.1339 53.9609 37.1756 54.1385 37.2255C54.316 37.2753 54.4909 37.3332 54.6632 37.399C54.8355 37.4648 55.0044 37.5384 55.1699 37.6196C55.3355 37.7009 55.497 37.7895 55.6544 37.8855C55.8119 37.9815 55.9647 38.0845 56.1127 38.1945C56.2608 38.3044 56.4035 38.4209 56.5409 38.5439C56.6783 38.6669 56.8098 38.7959 56.9355 38.9309C57.0611 39.0659 57.1803 39.2063 57.2931 39.3522C57.4059 39.4981 57.5119 39.6489 57.6109 39.8044C57.7099 39.96 57.8017 40.1197 57.8861 40.2837C57.9706 40.4476 58.0474 40.6151 58.1166 40.786C58.1857 40.957 58.2469 41.1308 58.3002 41.3073C58.3535 41.4839 58.3987 41.6625 58.4356 41.8431C58.4726 42.0238 58.5013 42.2058 58.5216 42.3891L58.7534 44.4743L58.8003 44.8238C58.93 45.6204 59.2087 46.3866 59.6217 47.0811L60.4008 48.3826C60.903 49.2344 61.0309 49.5416 60.9941 49.9803L60.9711 50.1643C60.9366 50.3839 60.8646 50.5904 60.7552 50.7839C60.6458 50.9774 60.5059 51.1455 60.3355 51.2883C59.905 51.648 59.6309 51.7078 58.494 51.716L56.0409 51.7151L56.0151 51.8503C55.8091 52.7738 55.4172 53.5998 54.8746 54.2244C54.227 54.9694 53.39 55.3962 52.5005 55.3962C51.611 55.3962 50.774 54.9704 50.1264 54.2244C49.558 53.5704 49.1551 52.6947 48.9583 51.7179L46.9181 51.717C45.428 51.717 45.1429 51.6884 44.6646 51.2883C44.4942 51.1455 44.3543 50.9774 44.2449 50.7839C44.1355 50.5904 44.0635 50.3839 44.029 50.1643C43.9416 49.6124 44.0299 49.3475 44.5993 48.3826L45.3774 47.082C45.6104 46.6909 45.7997 46.2797 45.9454 45.8484C46.0912 45.4171 46.19 44.9753 46.2421 44.5231L46.4785 42.3891C46.4984 42.2106 46.5262 42.0334 46.5619 41.8574C46.5976 41.6814 46.6411 41.5073 46.6922 41.3352C46.7434 41.163 46.8021 40.9935 46.8683 40.8266C46.9345 40.6597 47.008 40.496 47.0888 40.3356C47.1696 40.1752 47.2573 40.0187 47.352 39.8661C47.4467 39.7135 47.548 39.5654 47.6558 39.4218C47.7636 39.2782 47.8776 39.1397 47.9978 39.0062C48.1179 38.8728 48.2438 38.7449 48.3753 38.6226C48.5068 38.5003 48.6435 38.3841 48.7853 38.274C48.9272 38.1639 49.0736 38.0602 49.2247 37.9631C49.3757 37.866 49.5308 37.7757 49.6899 37.6924C49.8489 37.6091 50.0114 37.5329 50.1772 37.464C50.3431 37.3951 50.5116 37.3337 50.6829 37.2798C50.8542 37.2258 51.0276 37.1796 51.203 37.1411C51.3784 37.1026 51.5551 37.0719 51.7333 37.0491C51.9114 37.0263 52.0902 37.0114 52.2696 37.0045L52.5005 36.9999ZM54.1525 51.717L50.8494 51.717C50.9984 52.2403 51.2302 52.6901 51.5154 53.0176C51.8309 53.3809 52.1749 53.5566 52.5005 53.5566C52.8261 53.5566 53.1701 53.3818 53.4856 53.0176C53.7708 52.6901 54.0026 52.2403 54.1525 51.716L54.1525 51.717ZM52.5005 38.8395L52.3257 38.8432C52.2011 38.8484 52.0769 38.8591 51.9532 38.8753C51.8296 38.8915 51.7068 38.9132 51.5851 38.9403C51.4633 38.9674 51.343 38.9998 51.2241 39.0376C51.1052 39.0754 50.9882 39.1183 50.8731 39.1665C50.758 39.2146 50.6453 39.2678 50.535 39.3259C50.4246 39.3841 50.317 39.447 50.2122 39.5147C50.1075 39.5824 50.0059 39.6546 49.9075 39.7313C49.8091 39.808 49.7144 39.8889 49.6232 39.9741C49.532 40.0592 49.4447 40.1482 49.3614 40.241C49.2781 40.3339 49.1991 40.4303 49.1243 40.5301C49.0496 40.63 48.9794 40.733 48.9138 40.8391C48.8482 40.9452 48.7874 41.054 48.7314 41.1655C48.6755 41.2769 48.6245 41.3907 48.5787 41.5067C48.5328 41.6227 48.4922 41.7405 48.4567 41.8601C48.4213 41.9797 48.3913 42.1007 48.3666 42.223C48.3419 42.3452 48.3227 42.4684 48.3089 42.5924L48.0743 44.7006L48.0237 45.0796C47.9415 45.6 47.8109 46.108 47.6317 46.6035C47.4526 47.099 47.2282 47.573 46.9586 48.0257L46.2411 49.2243L45.8649 49.8663L46.4775 49.8755L58.082 49.8773C58.6513 49.8773 58.9512 49.8663 59.079 49.8663L59.1361 49.8681L58.8279 49.3383L58.07 48.0699L57.8686 47.7176C57.6186 47.254 57.4148 46.771 57.257 46.2685C57.0992 45.7661 56.9903 45.2533 56.9303 44.73L56.693 42.5924C56.6789 42.4647 56.6589 42.338 56.6332 42.2122C56.6074 42.0864 56.576 41.962 56.5389 41.8391C56.5018 41.7161 56.4592 41.5951 56.411 41.4761C56.3629 41.3571 56.3094 41.2405 56.2506 41.1263C56.1918 41.0121 56.1279 40.9009 56.059 40.7926C55.99 40.6842 55.9162 40.5793 55.8377 40.4777C55.7591 40.3761 55.6761 40.2783 55.5887 40.1843C55.5012 40.0902 55.4096 40.0004 55.3139 39.9148C55.2182 39.8291 55.1188 39.748 55.0158 39.6714C54.9127 39.5949 54.8063 39.5232 54.6967 39.4563C54.587 39.3894 54.4746 39.3277 54.3593 39.2711C54.244 39.2145 54.1264 39.1633 54.0064 39.1175C53.8865 39.0716 53.7647 39.0314 53.6411 38.9966C53.5174 38.9619 53.3925 38.9329 53.2662 38.9096C53.1399 38.8863 53.0128 38.8688 52.8849 38.8571C52.7571 38.8454 52.6289 38.8395 52.5005 38.8395Z" fill="rgb(40,199,148)" fill-rule="nonzero" />
			<path id="矢量 82" d="M53.1437 36.0292C53.3577 36.0488 53.5703 36.0781 53.7816 36.1171C53.9929 36.1561 54.202 36.2046 54.4088 36.2627C54.6157 36.3208 54.8195 36.3882 55.0202 36.4649C55.2209 36.5416 55.4177 36.6273 55.6105 36.7219C55.8034 36.8166 55.9916 36.9199 56.175 37.0317C56.3585 37.1436 56.5365 37.2635 56.7089 37.3917C56.8814 37.5198 57.0477 37.6555 57.2078 37.7988C57.3679 37.9421 57.5212 38.0924 57.6675 38.2496C57.8139 38.4069 57.9528 38.5706 58.0842 38.7405C58.2157 38.9105 58.3391 39.0861 58.4545 39.2674C58.5698 39.4486 58.6767 39.6347 58.7751 39.8257C58.8735 40.0168 58.963 40.2119 59.0436 40.411C59.1241 40.6102 59.1955 40.8126 59.2576 41.0183C59.3197 41.224 59.3722 41.4321 59.4153 41.6426C59.4584 41.8531 59.4918 42.0652 59.5155 42.2787L59.7473 44.3638L58.7534 44.4743L59.7445 44.3413L59.7914 44.6908L58.8003 44.8238L59.7873 44.6631C59.8979 45.3425 60.1292 45.9781 60.4812 46.5699L61.2588 47.869C61.5466 48.357 61.7386 48.7281 61.8348 48.9823C61.9693 49.3377 62.0213 49.6982 61.9906 50.0639L61.9889 50.0842L61.9614 50.3041L61.959 50.3197C61.9056 50.6587 61.7945 50.9775 61.6256 51.2761C61.4567 51.5748 61.2408 51.8343 60.9779 52.0547C60.8128 52.1926 60.6543 52.3028 60.5022 52.3851C60.3189 52.4844 60.1195 52.5588 59.9042 52.6084C59.725 52.6497 59.5119 52.6783 59.2651 52.6942C59.0758 52.7064 58.8212 52.7137 58.5013 52.716L56.0405 52.7151L56.0409 51.7151L57.0232 51.9022L56.9945 52.0528L56.9911 52.0681C56.871 52.6064 56.6983 53.1109 56.473 53.5814C56.2397 54.0686 55.9585 54.5016 55.6294 54.8803C55.2159 55.3561 54.7474 55.7243 54.2239 55.9849C53.6731 56.2591 53.0986 56.3962 52.5005 56.3962C51.9022 56.3962 51.3278 56.2593 50.7773 55.9853C50.2534 55.7247 49.7847 55.3562 49.3713 54.8799C49.0269 54.4838 48.7352 54.0283 48.4961 53.5135C48.2652 53.0165 48.0925 52.4838 47.978 51.9154L48.9583 51.7179L48.9578 52.7179L46.9177 52.717C46.4917 52.717 46.1752 52.7132 45.968 52.7056C45.6737 52.6948 45.4293 52.6719 45.2347 52.6369C44.9869 52.5922 44.7619 52.5191 44.5599 52.4176C44.3864 52.3304 44.2074 52.2097 44.0229 52.0553C43.7595 51.8345 43.5433 51.5748 43.3744 51.2761C43.2056 50.9775 43.0945 50.6587 43.0411 50.3197C43.0079 50.1099 42.9949 49.9191 43.002 49.7472C43.0107 49.5395 43.0486 49.3311 43.1159 49.122C43.1721 48.9475 43.2562 48.7512 43.3684 48.5331C43.4544 48.3658 43.5776 48.1462 43.738 47.8744L44.5193 46.5686C44.7154 46.2393 44.875 45.8926 44.9981 45.5283C45.1212 45.164 45.2047 44.7908 45.2486 44.4088L45.4845 42.279C45.5078 42.0704 45.5403 41.8636 45.5819 41.6586C45.6235 41.4536 45.6741 41.2508 45.7337 41.0503C45.7933 40.8497 45.8617 40.6522 45.9388 40.4578C46.016 40.2633 46.1016 40.0727 46.1957 39.8858C46.2898 39.699 46.392 39.5167 46.5023 39.3389C46.6126 39.1611 46.7305 38.9886 46.8562 38.8213C46.9818 38.654 47.1146 38.4927 47.2546 38.3372C47.3946 38.1817 47.5411 38.0327 47.6944 37.8903C47.8476 37.7478 48.0068 37.6124 48.172 37.4841C48.3373 37.3558 48.5079 37.2351 48.6838 37.122C48.8598 37.0088 49.0405 36.9037 49.2258 36.8066C49.4111 36.7095 49.6003 36.6208 49.7935 36.5406C49.9867 36.4603 50.1831 36.3887 50.3826 36.3259C50.5822 36.2631 50.7841 36.2093 50.9885 36.1644C51.1928 36.1195 51.3987 36.0838 51.6062 36.0572C51.8137 36.0306 52.022 36.0133 52.2311 36.0052L52.4806 36.0001C52.7087 35.9999 52.9297 36.0097 53.1437 36.0292ZM52.9615 38.0209C52.8082 38.0069 52.6611 37.9998 52.5204 37.9997L52.3082 38.0037C52.1583 38.0095 52.009 38.0219 51.8603 38.041C51.7116 38.06 51.5639 38.0856 51.4175 38.1178C51.271 38.15 51.1263 38.1886 50.9832 38.2336C50.8402 38.2786 50.6994 38.3299 50.5609 38.3875C50.4225 38.445 50.2868 38.5086 50.154 38.5782C50.0211 38.6478 49.8916 38.7231 49.7655 38.8042C49.6394 38.8853 49.5171 38.9719 49.3986 39.0638C49.2802 39.1558 49.166 39.2529 49.0562 39.355C48.9464 39.4571 48.8413 39.5639 48.741 39.6753C48.6407 39.7868 48.5455 39.9024 48.4554 40.0224C48.3653 40.1423 48.2808 40.2659 48.2017 40.3934C48.1227 40.5208 48.0494 40.6515 47.982 40.7854C47.9145 40.9193 47.8531 41.056 47.7978 41.1954C47.7425 41.3348 47.6935 41.4763 47.6508 41.6201C47.608 41.7638 47.5718 41.9092 47.542 42.0562C47.5122 42.2031 47.489 42.3508 47.4724 42.4992L47.2355 44.6373C47.1754 45.1598 47.0612 45.6702 46.8928 46.1685C46.7245 46.6668 46.5054 47.1424 46.2356 47.5954L45.4605 48.8908C45.2124 49.3112 45.0655 49.5925 45.0198 49.7347C45.0079 49.7715 45.0014 49.8034 45.0003 49.8303C44.9987 49.8695 45.0042 49.929 45.0168 50.0089C45.0326 50.1091 45.0654 50.2034 45.1154 50.2917C45.1653 50.38 45.2289 50.4565 45.3062 50.5213C45.3721 50.5764 45.4227 50.6129 45.458 50.6306C45.4875 50.6455 45.5313 50.6581 45.5891 50.6685C45.6907 50.6868 45.8414 50.6996 46.0412 50.7069C46.224 50.7136 46.5164 50.717 46.9186 50.717L49.777 50.7183L49.9386 51.5203C50.0219 51.9337 50.1457 52.3173 50.3099 52.6709C50.4697 53.0149 50.6603 53.3142 50.8816 53.5688C51.1205 53.8441 51.3827 54.0527 51.6682 54.1947C51.9382 54.3291 52.2156 54.3962 52.5005 54.3962C52.7851 54.3962 53.0624 54.329 53.3326 54.1945C53.6182 54.0523 53.8806 53.8436 54.1197 53.5685C54.3306 53.3258 54.5137 53.0422 54.6692 52.7176C54.8288 52.3842 54.9521 52.0225 55.0391 51.6326L56.0151 51.8503L55.0328 51.6632L55.2134 50.7148L58.4868 50.7161C58.9844 50.7124 59.3072 50.6936 59.4551 50.6595C59.4941 50.6505 59.5257 50.6395 59.5499 50.6264C59.5845 50.6076 59.6322 50.5728 59.6932 50.5219C59.7709 50.4567 59.8348 50.38 59.8847 50.2917C59.9346 50.2034 59.9675 50.1091 59.9833 50.0089L60.9711 50.1643L59.9788 50.0403L60.0018 49.8563L60.9941 49.9803L59.9976 49.8968C60.0008 49.8591 60.0007 49.8286 59.9974 49.8052C59.9932 49.7759 59.9822 49.7376 59.9644 49.6904C59.9086 49.543 59.768 49.2783 59.5428 48.8962L58.7622 47.5922C58.2809 46.7829 57.9646 45.9136 57.8133 44.9845L57.8111 44.9707L57.7608 44.5961L57.5277 42.4995C57.5107 42.3464 57.4868 42.1945 57.4559 42.0436C57.4251 41.8928 57.3874 41.7437 57.3429 41.5963C57.2984 41.4489 57.2473 41.3038 57.1895 41.161C57.1318 41.0183 57.0677 40.8785 56.9972 40.7416C56.9266 40.6047 56.85 40.4713 56.7674 40.3415C56.6847 40.2116 56.5962 40.0857 56.502 39.9639C56.4079 39.8421 56.3083 39.7248 56.2034 39.6121C56.0985 39.4994 55.9887 39.3917 55.874 39.289C55.7593 39.1863 55.6401 39.0891 55.5165 38.9973C55.3928 38.9055 55.2653 38.8195 55.1339 38.7393C55.0024 38.6592 54.8675 38.5852 54.7293 38.5173C54.5911 38.4495 54.4501 38.3881 54.3062 38.3331C54.1624 38.2781 54.0164 38.2298 53.8681 38.1882C53.7199 38.1466 53.5701 38.1118 53.4186 38.0839C53.2672 38.0559 53.1148 38.0349 52.9615 38.0209ZM51.8112 51.4431C51.9216 51.8308 52.0744 52.1368 52.2695 52.3609C52.3453 52.4481 52.4147 52.5087 52.4777 52.5426C52.4918 52.5501 52.503 52.555 52.5115 52.5573C52.5097 52.5568 52.5061 52.5566 52.5005 52.5566C52.4953 52.5566 52.4919 52.5568 52.4903 52.5572C52.4987 52.555 52.5099 52.5501 52.5237 52.5427C52.5864 52.509 52.6551 52.4491 52.7297 52.3629C52.926 52.1375 53.0798 51.8302 53.191 51.4411L55.1525 51.716L55.1525 52.717L50.8494 52.717L50.8494 51.717L51.8112 51.4431ZM49.525 50.717L54.1525 50.717L54.1525 51.717L53.1525 51.717L53.1525 51.716L54.1525 51.716L55.114 51.991C54.9211 52.6654 54.6303 53.2258 54.2415 53.6723C54.0061 53.9441 53.7489 54.1549 53.47 54.3047C53.1572 54.4726 52.8341 54.5566 52.5005 54.5566C52.1669 54.5566 51.8436 54.4724 51.5306 54.3041C51.2524 54.1545 50.9959 53.9446 50.7612 53.6743C50.3707 53.2258 50.0795 52.6646 49.8876 51.9908L49.525 50.717ZM52.3674 39.8423C52.2723 39.8463 52.1776 39.8545 52.0832 39.8668C51.9888 39.8792 51.8952 39.8957 51.8023 39.9164C51.7094 39.9371 51.6176 39.9618 51.5269 39.9906C51.4362 40.0194 51.3469 40.0522 51.2591 40.089C51.1713 40.1257 51.0853 40.1663 51.0011 40.2106C50.9169 40.255 50.8349 40.303 50.7549 40.3546C50.675 40.4063 50.5975 40.4614 50.5224 40.5199C50.4474 40.5784 50.3751 40.6402 50.3055 40.7051C50.2359 40.77 50.1693 40.8379 50.1058 40.9088C50.0422 40.9796 49.9819 41.0532 49.9249 41.1293C49.8679 41.2055 49.8143 41.2841 49.7643 41.3651C49.7142 41.446 49.6678 41.529 49.6251 41.6141C49.5825 41.6991 49.5436 41.7859 49.5086 41.8744C49.4736 41.9629 49.4426 42.0528 49.4156 42.1441C49.3886 42.2353 49.3656 42.3276 49.3468 42.4209C49.328 42.5142 49.3133 42.6081 49.3028 42.7027L49.0682 44.8112L49.0134 45.2238L49.0115 45.2356C48.9194 45.8189 48.7729 46.3881 48.5721 46.9435C48.3714 47.4988 48.1199 48.0301 47.8178 48.5374L47.0992 49.7379L46.7277 50.3718L45.8649 49.8663L45.8799 48.8664L46.4925 48.8756L58.0821 48.8773C58.3331 48.8773 58.599 48.8746 58.8798 48.8692C58.9788 48.8672 59.0452 48.8663 59.079 48.8663L59.0952 48.8663L59.1683 48.8686L59.1361 49.8681L58.2716 50.3709L57.9635 49.8411L57.2116 48.5828L56.9942 48.2031L56.9883 48.1921C56.7082 47.6726 56.4798 47.1313 56.3029 46.5682C56.1261 46.005 56.0041 45.4303 55.9368 44.8439L55.6991 42.7027C55.6883 42.6053 55.6731 42.5086 55.6535 42.4127C55.6338 42.3167 55.6098 42.2218 55.5815 42.128C55.5532 42.0342 55.5207 41.9419 55.484 41.8511C55.4472 41.7602 55.4064 41.6713 55.3616 41.5842C55.3167 41.4971 55.268 41.4122 55.2154 41.3296C55.1628 41.2469 55.1065 41.1668 55.0466 41.0893C54.9866 41.0118 54.9233 40.9372 54.8566 40.8655C54.7898 40.7937 54.72 40.7252 54.647 40.6599C54.574 40.5945 54.4981 40.5326 54.4195 40.4742C54.3408 40.4158 54.2597 40.3611 54.176 40.3101C54.0924 40.2591 54.0066 40.212 53.9186 40.1688C53.8307 40.1256 53.741 40.0866 53.6494 40.0516C53.5579 40.0166 53.465 39.9859 53.3707 39.9594C53.2764 39.9329 53.181 39.9108 53.0847 39.893C52.9883 39.8752 52.8914 39.8618 52.7938 39.8529C52.6962 39.844 52.5985 39.8395 52.5005 39.8395L52.3468 39.843L52.3674 39.8423ZM52.3047 37.8434L52.5005 37.8395C52.6594 37.8395 52.8179 37.8468 52.9761 37.8612C53.1343 37.8757 53.2915 37.8974 53.4477 37.9262C53.6039 37.955 53.7585 37.9909 53.9115 38.0339C54.0644 38.0768 54.2151 38.1267 54.3634 38.1834C54.5118 38.2401 54.6573 38.3035 54.7999 38.3735C54.9425 38.4435 55.0817 38.5198 55.2173 38.6025C55.3529 38.6852 55.4845 38.7739 55.612 38.8687C55.7396 38.9634 55.8625 39.0637 55.9809 39.1697C56.0992 39.2756 56.2125 39.3867 56.3207 39.5031C56.429 39.6194 56.5317 39.7403 56.6288 39.866C56.726 39.9917 56.8172 40.1215 56.9025 40.2555C56.9878 40.3896 57.0669 40.5272 57.1396 40.6684C57.2123 40.8096 57.2785 40.9539 57.3381 41.1011C57.3976 41.2484 57.4504 41.3981 57.4963 41.5502C57.5421 41.7023 57.581 41.8561 57.6129 42.0118C57.6447 42.1674 57.6694 42.3241 57.6869 42.482L57.9238 44.6161C57.9766 45.0762 58.0723 45.5271 58.2111 45.9689C58.3498 46.4107 58.529 46.8354 58.7488 47.2431L57.8686 47.7176L58.7367 47.2212L58.9284 47.5569L59.6924 48.8356L60.908 50.9258L59.0468 50.8658L59.079 49.8663L59.079 50.8663C59.0581 50.8663 59.0046 50.8671 58.9185 50.8688C58.6248 50.8745 58.3459 50.8773 58.0818 50.8773L46.4625 50.8754L44.1351 50.8404L45.3831 48.7106L46.0994 47.514C46.3365 47.116 46.5338 46.6991 46.6913 46.2635C46.8488 45.8278 46.9637 45.3811 47.036 44.9235L48.0237 45.0796L47.0325 44.9472L47.0805 44.59L47.315 42.482C47.332 42.3287 47.3558 42.1763 47.3864 42.0251C47.4169 41.8738 47.4541 41.7242 47.4979 41.5762C47.5417 41.4282 47.592 41.2825 47.6487 41.139C47.7055 40.9955 47.7685 40.8548 47.8377 40.7169C47.9069 40.5789 47.9821 40.4443 48.0633 40.3131C48.1445 40.1818 48.2313 40.0544 48.3237 39.9309C48.4162 39.8074 48.514 39.6881 48.617 39.5733C48.7201 39.4584 48.828 39.3483 48.9408 39.243C49.0536 39.1377 49.1709 39.0376 49.2926 38.9427C49.4143 38.8478 49.5399 38.7585 49.6696 38.6748C49.7992 38.591 49.9322 38.5132 50.0688 38.4412C50.2053 38.3693 50.3447 38.3035 50.4871 38.244C50.6295 38.1844 50.7742 38.1313 50.9213 38.0845C51.0683 38.0378 51.2172 37.9977 51.3678 37.9641C51.5185 37.9306 51.6703 37.9038 51.8233 37.8838C51.9763 37.8637 52.1299 37.8505 52.2841 37.8441L52.3047 37.8434Z" fill="rgb(40,199,148)" fill-rule="nonzero" />
		</g>
	</g>
</svg>
