<svg viewBox="0 0 70 70" xmlns="http://www.w3.org/2000/svg" xmlns:xlink="http://www.w3.org/1999/xlink" width="70" height="70" fill="none" customFrame="#000000">
	<defs>
		<linearGradient id="paint_linear_130" x1="0.999995649" x2="56.9999886" y1="35.4999924" y2="35.5000153" gradientUnits="userSpaceOnUse">
			<stop stop-color="rgb(179,157,250)" offset="0" stop-opacity="1" />
			<stop stop-color="rgb(126,96,224)" offset="1" stop-opacity="1" />
		</linearGradient>
		<g id="pixso_custom_effect_44">
			<effect visibility="visible" effectType="backgroundBlur" saturation="0" stdDeviation="17.125164" />
		</g>
		<filter id="filter_44" width="33.2474022" height="33.2473907" x="36.3763008" y="29.3763123" filterUnits="userSpaceOnUse" customEffect="url(#pixso_custom_effect_44)" color-interpolation-filters="sRGB">
			<feFlood flood-opacity="0" result="BackgroundImageFix" />
			<feGaussianBlur stdDeviation="5.70838785" in="BackgroundImage" />
			<feComposite result="effect_backgroundBlur_1" in2="SourceAlpha" operator="in" />
			<feBlend result="shape" in="SourceGraphic" in2="effect_backgroundBlur_1" mode="normal" />
		</filter>
		<linearGradient id="paint_linear_131" x1="37.0000038" x2="63.4968872" y1="29.9999962" y2="55.9759903" gradientUnits="userSpaceOnUse">
			<stop stop-color="rgb(255,255,255)" offset="0" stop-opacity="0" />
			<stop stop-color="rgb(255,255,255)" offset="1" stop-opacity="1" />
		</linearGradient>
	</defs>
	<rect id="名称=转账" width="70" height="70" x="0" y="0" fill="rgb(255,255,255)" fill-opacity="0" />
	<g id="组合 1875">
		<path id="形状" d="M57 20C57 16.6863 54.3137 14 51 14L7 14C3.68629 14 1 16.6863 1 20L1 24L57 24L57 20ZM51 57L7 57C3.68629 57 1 54.3137 1 51L1 28L57 28L57 51C57 54.3137 54.3137 57 51 57ZM20.0214 37.5336C19.355 37.0987 19.1864 36.2533 19.6383 35.6121C20.0903 34.9709 20.9691 34.8087 21.6356 35.2435L26.3252 38.303C26.4015 38.3528 26.4721 38.4082 26.537 38.4691C26.5941 38.5228 26.6468 38.5808 26.6951 38.6432C26.7465 38.7095 26.7915 38.779 26.8302 38.8516C26.8686 38.9238 26.9008 38.9991 26.9266 39.0775C26.9743 39.2221 26.9988 39.3669 27 39.5119C27.0012 39.6603 26.9781 39.8088 26.9306 39.9575C26.8831 40.1062 26.8156 40.2417 26.728 40.3638C26.6425 40.4832 26.5378 40.5898 26.4139 40.6838C26.3468 40.7347 26.2762 40.7796 26.2023 40.8186C26.128 40.8579 26.0502 40.891 25.9689 40.9182C25.8926 40.9437 25.8151 40.9633 25.7365 40.9769C25.6472 40.9923 25.5565 41 25.4643 41L10.438 41C9.63271 41 9 40.3913 9 39.6166C9 38.8418 9.63271 38.2331 10.438 38.2331L21.0938 38.2331L20.0214 37.5336ZM16.3617 49.3879C16.8136 48.7467 16.645 47.9013 15.9786 47.4664L14.9062 46.7669L25.562 46.7669C26.3673 46.7669 27 46.1582 27 45.3834C27 44.6087 26.3673 44 25.562 44L10.5357 44C10.4435 44 10.3528 44.0077 10.2635 44.0231C10.1849 44.0367 10.1074 44.0563 10.0311 44.0818C9.94983 44.109 9.87204 44.1421 9.79769 44.1814C9.72376 44.2204 9.65324 44.2653 9.58611 44.3162C9.46225 44.4102 9.35753 44.5168 9.27196 44.6362C9.18441 44.7583 9.1169 44.8938 9.06942 45.0425C9.02195 45.1912 8.99883 45.3397 9.00005 45.4881C9.00124 45.6331 9.02569 45.7779 9.07339 45.9225C9.09924 46.0009 9.13137 46.0762 9.1698 46.1484C9.20847 46.221 9.25349 46.2905 9.30489 46.3568C9.35319 46.4192 9.4059 46.4772 9.46302 46.5309C9.52793 46.5918 9.59854 46.6472 9.67483 46.697L14.3644 49.7565C15.0309 50.1913 15.9097 50.0291 16.3617 49.3879Z" fill="url(#paint_linear_130)" fill-rule="evenodd" />
		<g id="3像素" opacity="0">
			<rect id="矩形 7178" width="3" height="12" x="33.0999756" y="32.5999756" rx="1" fill="rgb(45,47,46)" />
			<rect id="矩形 7179" width="3" height="14" x="0" y="0" rx="1" fill="rgb(45,47,46)" transform="matrix(0,-1,1,0,27.6,40.6)" />
			<rect id="矩形 7180" width="3" height="14" x="0" y="0" rx="1" fill="rgb(45,47,46)" transform="matrix(0,-1,1,0,27.6,35.6)" />
			<rect id="矩形 7181" width="3" height="10" x="0" y="0" rx="1" fill="rgb(45,47,46)" transform="matrix(0.707107,-0.707107,0.707107,0.707107,27,28.1213)" />
			<rect id="矩形 7182" width="3" height="10" x="0" y="0" rx="1" fill="rgb(45,47,46)" transform="matrix(-0.707107,-0.707107,-0.707107,0.707107,42.1924,28.1213)" />
		</g>
		<g id="编组">
			<g filter="url(#filter_44)">
				<rect id="矩形" width="32" height="32" x="37" y="30" rx="16" fill="url(#paint_linear_131)" />
				<rect id="矩形" width="32" height="32" x="37" y="30" rx="16" stroke="rgb(255,255,255)" stroke-width="1.24740005" />
			</g>
			<path id="矢量 71" d="M61.4849 45.9947C60.8787 46.0004 57.9065 44.3173 57.8126 44.2296C57.5869 44.0186 57.6722 43.7558 57.9025 43.7199C58.1329 43.684 59.4263 43.5332 59.4263 43.5332C58.6314 41.4499 56.8575 39.7861 54.5294 39.2469C50.8135 38.3859 46.9707 40.8282 46.1214 44.5556C46.1141 44.5874 46.0628 44.9674 45.755 44.9554C45.5467 44.9472 44.8641 44.6811 44.6173 44.5676C44.3355 44.4381 44.2594 44.4715 44.3448 44.0545C45.3113 39.3159 50.2609 36.1223 55.0116 37.215C58.9542 38.1216 61.6929 41.4759 61.9938 45.2977C62.0442 45.8099 61.7783 45.9919 61.4849 45.9946L61.4849 45.9947ZM48.1907 48.011C48.5007 48.2053 48.4259 48.5956 48.0853 48.6304C47.7446 48.6651 46.6779 48.7572 46.6779 48.7572C47.5236 50.7005 49.2376 52.2327 51.4538 52.7459C55.1696 53.6065 58.9697 51.2824 59.8192 47.5549C59.8367 47.4784 59.8361 47.4904 59.8665 47.3263C59.8969 47.1621 59.9461 46.9123 60.2733 47.0234C60.6004 47.1346 61.3983 47.3646 61.6468 47.4298C61.8954 47.4949 61.8674 47.591 61.8363 47.8175C61.8268 47.8863 61.8125 47.9494 61.7975 48.0157C60.6852 52.8622 55.8438 55.8857 50.9839 54.7676C47.046 53.8619 44.3088 50.5151 44.0026 46.699C43.961 46.0433 44.4335 45.9094 44.9165 46.1599C45.2965 46.357 47.8806 47.8166 48.1906 48.0109L48.1907 48.011Z" fill="rgb(126,96,234)" fill-rule="nonzero" />
			<path id="矢量 71" d="M58.3972 43.6559C58.1726 43.6834 57.979 43.708 57.9025 43.7199C57.6722 43.7558 57.5869 44.0186 57.8126 44.2296C57.8372 44.2525 58.0584 44.3845 58.3826 44.5668C58.4284 44.5926 58.4764 44.6194 58.5261 44.647C58.9722 44.895 59.5629 45.2106 60.1066 45.4741C60.7128 45.7679 61.2607 45.9968 61.4849 45.9947L61.4849 45.9946C61.654 45.993 61.814 45.9319 61.9095 45.7823C61.9798 45.6724 62.0152 45.5147 61.9938 45.2977C61.6929 41.4759 58.9542 38.1216 55.0116 37.215C50.2609 36.1223 45.3113 39.3159 44.3448 44.0545C44.2702 44.4186 44.3188 44.4393 44.5199 44.5249C44.5491 44.5374 44.5815 44.5512 44.6173 44.5676C44.8641 44.6811 45.5467 44.9472 45.755 44.9554C46.0439 44.9667 46.1069 44.6326 46.1195 44.5652C46.1204 44.5608 46.121 44.5576 46.1214 44.5556C46.9707 40.8282 50.8135 38.3859 54.5294 39.2469C56.4893 39.7008 58.0564 40.9517 58.9773 42.5789C59.1504 42.8847 59.3006 43.2037 59.4263 43.5332C59.4263 43.5332 59.0912 43.5723 58.7318 43.6154C58.6871 43.6207 58.6421 43.6261 58.5972 43.6315C58.5294 43.6397 58.462 43.6479 58.3972 43.6559ZM60.273 44.4413C60.5144 44.5623 60.7311 44.6662 60.9233 44.7528C60.8967 44.5851 60.8648 44.4185 60.8276 44.2532C60.7267 43.8047 60.5866 43.3652 60.4072 42.9344C60.2481 42.5523 60.0621 42.1866 59.8492 41.8373C59.6301 41.4778 59.3825 41.1356 59.1064 40.8108C58.8076 40.4592 58.4836 40.1378 58.1345 39.8464C57.8407 39.6012 57.5291 39.3773 57.1997 39.1748C56.9053 38.9937 56.6017 38.8329 56.2889 38.6924C55.8098 38.4772 55.3093 38.3095 54.7875 38.1895C54.3904 38.0982 53.9913 38.0397 53.5901 38.0139C52.9536 37.9729 52.3119 38.0145 51.6648 38.1384C51.2851 38.2112 50.9144 38.31 50.5527 38.4349C50.0317 38.6148 49.5295 38.8488 49.0459 39.1369C49.4794 38.8894 49.9278 38.6846 50.3911 38.5226C50.7787 38.3871 51.1767 38.2814 51.5851 38.2057C52.1843 38.0946 52.7802 38.053 53.3729 38.0807C53.8356 38.1024 54.2963 38.1664 54.755 38.2727C55.164 38.3674 55.5605 38.4927 55.9447 38.6485C56.1769 38.7428 56.4047 38.8482 56.6279 38.9648C56.8864 39.0998 57.1358 39.2482 57.3762 39.4101C57.6705 39.6082 57.9512 39.8264 58.2185 40.0648C58.4205 40.245 58.6124 40.4345 58.7941 40.6334C59.0406 40.9031 59.2683 41.1899 59.4772 41.4938C59.6551 41.7526 59.8168 42.0199 59.9623 42.2957C60.1123 42.5803 60.2451 42.8739 60.3606 43.1767L60.8189 44.3776L60.273 44.4413ZM48.1907 48.011L48.1906 48.0109C48.1233 47.9688 47.9489 47.8669 47.7131 47.7314C47.679 47.7118 47.6436 47.6914 47.607 47.6705C46.7325 47.1692 45.2021 46.308 44.9165 46.1599C44.4335 45.9094 43.961 46.0433 44.0026 46.699C44.3088 50.5151 47.046 53.8619 50.9839 54.7676C55.8438 55.8857 60.6852 52.8622 61.7975 48.0157C61.8125 47.9494 61.8268 47.8863 61.8363 47.8175C61.8379 47.8055 61.8396 47.7938 61.8412 47.7826C61.8696 47.5809 61.8822 47.4915 61.6468 47.4298C61.3983 47.3646 60.6004 47.1346 60.2733 47.0234C59.9461 46.9123 59.8969 47.1621 59.8665 47.3263C59.8361 47.4904 59.8367 47.4784 59.8192 47.5549C58.9697 51.2824 55.1696 53.6065 51.4538 52.7459C49.6171 52.3205 48.1253 51.1954 47.1869 49.7164C46.993 49.4108 46.8227 49.09 46.6779 48.7572C46.6779 48.7572 47.0235 48.7274 47.3841 48.6953C47.419 48.6922 47.4541 48.689 47.4889 48.6859C47.4926 48.6856 47.4962 48.6853 47.4998 48.6849C47.5813 48.6776 47.6618 48.6703 47.7375 48.6634C47.7533 48.662 47.7689 48.6605 47.7843 48.6591C47.9062 48.6479 48.0124 48.6378 48.0853 48.6304C48.4259 48.5956 48.5007 48.2053 48.1907 48.011ZM45.8551 47.8257C45.559 47.6586 45.3077 47.5173 45.1011 47.4019C45.1216 47.5152 45.1446 47.628 45.17 47.7402C45.2714 48.1879 45.4119 48.6268 45.5915 49.0568C45.7508 49.4379 45.9368 49.8027 46.1495 50.1511C46.3689 50.5102 46.6166 50.852 46.8928 51.1764C47.1911 51.5268 47.5143 51.8472 47.8626 52.1376C48.1567 52.3829 48.4686 52.6068 48.7983 52.8093C49.0917 52.9896 49.3942 53.1497 49.7057 53.2897C50.1851 53.5051 50.6859 53.6729 51.2081 53.793C51.8079 53.931 52.4077 54.0004 53.0076 54.0012C53.47 54.0018 53.9325 53.9617 54.3951 53.8808C54.8807 53.7958 55.3508 53.669 55.8053 53.5002C56.3117 53.3122 56.7987 53.0722 57.2664 52.7801C57.7469 52.4801 58.1867 52.1379 58.5858 51.7534C58.9237 51.4279 59.2325 51.0721 59.5121 50.686C59.7991 50.2898 60.0458 49.8745 60.2524 49.4401C60.4405 49.0446 60.5952 48.6332 60.7167 48.206C60.7139 48.2051 60.7111 48.2043 60.7083 48.2035C60.701 48.2014 60.6937 48.1992 60.6865 48.1971C60.5788 48.5743 60.4442 48.9392 60.2827 49.2917C60.0649 49.7671 59.7984 50.22 59.483 50.6505C59.2218 51.0069 58.9353 51.3373 58.6234 51.6416C58.2066 52.0481 57.7444 52.4082 57.2369 52.7217C56.7683 53.0112 56.2806 53.2489 55.774 53.4348C55.3244 53.5997 54.8598 53.7239 54.3803 53.8073C53.8465 53.9001 53.3144 53.9386 52.7838 53.9229C52.2637 53.9074 51.7452 53.8398 51.2282 53.7201C50.831 53.6281 50.4454 53.5072 50.0714 53.3575C49.8569 53.2716 49.6462 53.1762 49.4393 53.0713C49.189 52.9444 48.9468 52.8049 48.7128 52.6528C48.4314 52.4699 48.1617 52.2688 47.9039 52.0495C47.7115 51.8858 47.5277 51.7138 47.3526 51.5333C47.1064 51.2797 46.8773 51.0095 46.6652 50.7227C46.4933 50.4903 46.3349 50.25 46.1899 50.0019C46.0307 49.7295 45.8877 49.4476 45.7609 49.1563L45.2066 47.8826L45.8551 47.8257ZM44.9996 46.6218L44.9997 46.6211L44.9993 46.619L44.9996 46.6218Z" fill="rgb(126,96,234)" fill-rule="evenodd" />
			<g id="组合 1882" opacity="0">
				<path id="合并" d="M44.5362 41.3115C44.3431 41.7254 44.1813 42.1538 44.0508 42.5969C43.861 43.2415 44.2184 43.8972 44.863 44.087C45.5076 44.2768 46.1633 43.9195 46.3531 43.2748C46.447 42.9559 46.563 42.6471 46.701 42.3486Q46.9475 41.8153 47.2879 41.3254Q47.5929 40.8864 47.9576 40.5043Q48.332 40.1122 48.7693 39.7802Q49.2476 39.417 49.7737 39.1469L49.7738 39.1468C50.0623 38.9986 50.3617 38.8714 50.6718 38.7652Q51.0955 38.62 51.5309 38.5326L51.5309 38.5326Q52.1907 38.4 52.8771 38.4Q53.6002 38.4 54.2922 38.5466L54.2922 38.5466C54.6212 38.6162 54.9449 38.7108 55.2633 38.8301Q55.767 39.0189 56.229 39.2811L56.2292 39.2812Q56.7844 39.5962 57.2794 40.0172Q57.7511 40.4183 58.1375 40.8893L58.1375 40.8894C58.3723 41.1755 58.5834 41.481 58.7709 41.8058C58.9579 42.1297 59.1162 42.4638 59.2457 42.8083L58.8916 42.8689L58.2154 42.9848L58.0163 43.019L57.3942 43.1256C57.0983 43.1763 57.0521 43.5822 57.3291 43.6981L57.9113 43.9416L58.0977 44.0196L59.1247 44.4492L60.202 44.8999L60.2017 44.8977C60.4262 45.0143 60.6908 45.0601 60.9644 45.0129C61.6266 44.8987 62.0571 44.2886 61.9429 43.6264C61.8522 43.1006 61.7182 42.5904 61.5409 42.0956C61.357 41.5823 61.1265 41.0857 60.8494 40.6057C60.5927 40.1611 60.3034 39.7435 59.9814 39.3526C59.6365 38.9339 59.2541 38.546 58.8342 38.1889C58.3977 37.8177 57.935 37.4921 57.4462 37.2121L57.4461 37.212Q56.8057 36.8452 56.1056 36.5828Q55.4245 36.3275 54.7206 36.184C54.1186 36.0613 53.5041 36 52.8771 36Q51.991 36 51.1363 36.164L51.1362 36.164Q50.5066 36.2849 49.894 36.4947C49.462 36.6427 49.0456 36.8206 48.6447 37.0286Q47.9502 37.3887 47.318 37.8688Q46.7293 38.3157 46.225 38.8433L46.225 38.8433L46.225 38.8434Q45.7303 39.3609 45.3168 39.9561Q44.8658 40.6053 44.5364 41.3112L44.5362 41.3115Z" fill="rgb(126,96,234)" fill-rule="evenodd" />
				<path id="合并" d="M0.536225 5.31152C0.343099 5.72536 0.181302 6.15382 0.0508337 6.5969C-0.138983 7.24154 0.218374 7.89718 0.863009 8.08699C1.50764 8.27681 2.16328 7.91945 2.3531 7.27482C2.44702 6.95587 2.56299 6.64712 2.70101 6.34856Q2.94754 5.8153 3.28787 5.32542Q3.59289 4.88637 3.95763 4.50435Q4.332 4.11225 4.7693 3.78022Q5.24764 3.41704 5.77373 3.14685L5.77375 3.14684C6.06232 2.99863 6.36167 2.87141 6.67179 2.76517Q7.09553 2.62001 7.53087 2.53256L7.5309 2.53255Q8.1907 2.4 8.87713 2.4Q9.60018 2.4 10.2922 2.54657L10.2922 2.54657C10.6212 2.61624 10.9448 2.71076 11.2633 2.83011Q11.767 3.01891 12.229 3.28109L12.2292 3.28117Q12.7844 3.59621 13.2794 4.01722Q13.7511 4.4183 14.1375 4.8893L14.1375 4.88939C14.3723 5.1755 14.5834 5.48096 14.7709 5.80577C14.9579 6.12966 15.1162 6.46382 15.2457 6.80825L14.8916 6.86894L14.2154 6.98485L14.0163 7.01898L13.3942 7.12561C13.0983 7.17634 13.0521 7.58218 13.3291 7.69806L13.9113 7.94164L14.0977 8.0196L15.1247 8.44924L16.202 8.89992L16.2017 8.89769C16.4262 9.01435 16.6908 9.06011 16.9644 9.01291C17.6266 8.89865 18.0571 8.28856 17.9429 7.62635C17.8522 7.10061 17.7182 6.59038 17.5409 6.09565C17.357 5.58231 17.1265 5.08567 16.8494 4.60572C16.5927 4.16115 16.3034 3.74345 15.9814 3.35262C15.6365 2.93387 15.2541 2.54597 14.8342 2.18892C14.3977 1.81769 13.935 1.49207 13.4462 1.21206L13.4461 1.21199Q12.8057 0.845205 12.1056 0.582789Q11.4245 0.327487 10.7206 0.184024C10.1186 0.0613415 9.50411 0 8.87713 0Q7.99097 0 7.13628 0.164011L7.13624 0.164019Q6.50658 0.284852 5.894 0.494702C5.46201 0.642686 5.04557 0.820639 4.64467 1.02856Q3.95024 1.38871 3.318 1.86875Q2.72931 2.31572 2.22502 2.84334L2.22501 2.84335L2.225 2.84336Q1.73032 3.36092 1.31684 3.9561Q0.865827 4.6053 0.536363 5.31122L0.536225 5.31152Z" fill="rgb(126,96,234)" fill-rule="evenodd" transform="matrix(-1,0,0,-1,61.9612,55.0312)" />
			</g>
		</g>
	</g>
</svg>
