<svg viewBox="0 0 70 70" xmlns="http://www.w3.org/2000/svg" xmlns:xlink="http://www.w3.org/1999/xlink" width="70" height="70" fill="none" customFrame="#000000">
	<defs>
		<clipPath id="clipPath_51">
			<rect width="70" height="51" x="0" y="7.5" fill="rgb(255,255,255)" />
		</clipPath>
		<linearGradient id="paint_linear_114" x1="47.9999924" x2="0.999996185" y1="34.8450775" y2="34.8450317" gradientUnits="userSpaceOnUse">
			<stop stop-color="rgb(41,204,152)" offset="0" stop-opacity="1" />
			<stop stop-color="rgb(0,224,152)" offset="1" stop-opacity="1" />
		</linearGradient>
		<g id="pixso_custom_effect_36">
			<effect visibility="visible" effectType="backgroundBlur" saturation="0" stdDeviation="17.125164" />
		</g>
		<filter id="filter_36" width="33.2474022" height="33.2473907" x="36.3763008" y="29.8763123" filterUnits="userSpaceOnUse" customEffect="url(#pixso_custom_effect_36)" color-interpolation-filters="sRGB">
			<feFlood flood-opacity="0" result="BackgroundImageFix" />
			<feGaussianBlur stdDeviation="5.70838785" in="BackgroundImage" />
			<feComposite result="effect_backgroundBlur_1" in2="SourceAlpha" operator="in" />
			<feBlend result="shape" in="SourceGraphic" in2="effect_backgroundBlur_1" mode="normal" />
		</filter>
		<linearGradient id="paint_linear_115" x1="40.5000038" x2="63.4968834" y1="30.4999981" y2="56.4759903" gradientUnits="userSpaceOnUse">
			<stop stop-color="rgb(255,255,255)" offset="0" stop-opacity="0" />
			<stop stop-color="rgb(255,255,255)" offset="1" stop-opacity="1" />
		</linearGradient>
	</defs>
	<rect id="名称=更多服务" width="70" height="70" x="0" y="0" fill="rgb(255,255,255)" fill-opacity="0" />
	<g id="画板 116" customFrame="url(#clipPath_51)">
		<rect id="画板 116" width="70" height="51" x="0" y="7.5" fill="rgb(255,255,255)" fill-opacity="0" />
		<path id="形状" d="M39.3945 11.4279L46.5518 18.4839C48.4829 20.3877 48.4828 23.474 46.5511 25.3785L39.3945 32.4339C37.4634 34.3377 34.3323 34.3377 32.4012 32.4339L25.2446 25.3785C23.3135 23.4747 23.3135 20.3877 25.2446 18.4839L32.4012 11.4279C34.3323 9.52405 37.4634 9.52405 39.3945 11.4279ZM5.87354 12.2067L15.8474 12.2067C18.5393 12.2067 20.721 14.3575 20.7216 17.0113L20.7216 26.8449C20.7216 29.4988 18.5393 31.6496 15.848 31.6496L5.87354 31.6496C3.18163 31.6496 1 29.4982 1 26.8449L1 17.0113C1 14.3575 3.18163 12.2067 5.87354 12.2067ZM29.7721 39.4622L39.7459 39.4622C42.4379 39.4622 44.6195 41.613 44.6201 44.2669L44.6201 54.1004C44.6201 56.7543 42.4379 58.9051 39.7466 58.9051L29.7721 58.9051C27.0802 58.9051 24.8985 56.7537 24.8985 54.1004L24.8985 44.2669C24.8985 41.613 27.0802 39.4622 29.7721 39.4622ZM15.8474 39.5571L5.87354 39.5571C3.18163 39.5571 1 41.7079 1 44.3618L1 54.1953C1 56.8486 3.18163 59 5.87354 59L15.848 59C18.5393 59 20.7216 56.8492 20.7216 54.1953L20.7216 44.3618C20.721 41.7079 18.5393 39.5571 15.8474 39.5571Z" fill="url(#paint_linear_114)" fill-rule="evenodd" />
		<g id="编组">
			<g filter="url(#filter_36)">
				<rect id="矩形" width="32" height="32" x="37" y="30.5" rx="16" fill="url(#paint_linear_115)" />
				<rect id="矩形" width="32" height="32" x="37" y="30.5" rx="16" stroke="rgb(255,255,255)" stroke-width="1.24740005" />
			</g>
			<path id="形状" d="M44 42.3947L53 37.5L62 42.3947L53 47.2895L44 42.3947ZM45.8158 44.8421L44 45.9473L53 51.3947L62 45.9473L60.1842 44.8421L53 49.1842L45.8158 44.8421ZM60.1842 48.9473L53 53.2894L45.8158 48.9473L44 50.0526L53 55.4999L62 50.0526L60.1842 48.9473Z" fill="rgb(40,199,148)" fill-rule="evenodd" />
		</g>
	</g>
</svg>
