<svg viewBox="0 0 70 70" xmlns="http://www.w3.org/2000/svg" xmlns:xlink="http://www.w3.org/1999/xlink" width="70" height="70" fill="none" customFrame="#000000">
	<defs>
		<clipPath id="clipPath_50">
			<rect width="66" height="57" x="2" y="6" fill="rgb(255,255,255)" />
		</clipPath>
		<linearGradient id="paint_linear_112" x1="0.999996603" x2="44.9999924" y1="34.9999924" y2="35.0000153" gradientUnits="userSpaceOnUse">
			<stop stop-color="rgb(179,157,250)" offset="0" stop-opacity="1" />
			<stop stop-color="rgb(126,96,224)" offset="1" stop-opacity="1" />
		</linearGradient>
		<g id="pixso_custom_effect_35">
			<effect visibility="visible" effectType="backgroundBlur" saturation="0" stdDeviation="17.125164" />
		</g>
		<filter id="filter_35" width="33.2474365" height="33.2473907" x="35.3762817" y="29.3763123" filterUnits="userSpaceOnUse" customEffect="url(#pixso_custom_effect_35)" color-interpolation-filters="sRGB">
			<feFlood flood-opacity="0" result="BackgroundImageFix" />
			<feGaussianBlur stdDeviation="5.70838785" in="BackgroundImage" />
			<feComposite result="effect_backgroundBlur_1" in2="SourceAlpha" operator="in" />
			<feBlend result="shape" in="SourceGraphic" in2="effect_backgroundBlur_1" mode="normal" />
		</filter>
		<linearGradient id="paint_linear_113" x1="38.0000076" x2="62.4968872" y1="30.4999962" y2="55.9759903" gradientUnits="userSpaceOnUse">
			<stop stop-color="rgb(255,255,255)" offset="0" stop-opacity="0" />
			<stop stop-color="rgb(255,255,255)" offset="1" stop-opacity="1" />
		</linearGradient>
	</defs>
	<rect id="名称=改密" width="70" height="70" x="0" y="0" fill="rgb(255,255,255)" fill-opacity="0" />
	<g id="画板 112" customFrame="url(#clipPath_50)">
		<rect id="画板 112" width="66" height="57" x="2" y="6" fill="rgb(255,255,255)" fill-opacity="0" />
		<g id="编组">
			<path id="合并" d="M22.4215 15.1656C28.0807 15.1656 32.346 19.2717 32.346 24.7168L32.346 25.4428C32.56 26.3966 33.4077 27.0746 34.3862 27.0746C35.3648 27.0746 36.2125 26.3966 36.4265 25.4428L36.4265 24.7287C36.4921 21.008 35.0103 17.4268 32.334 14.8383C29.6811 12.3662 26.1865 10.9941 22.5586 11L22.3739 11C18.6874 11.0015 15.1292 12.3522 12.372 14.7967C9.55415 17.3113 7.95124 20.9125 7.96978 24.687L7.96978 28.5841L7 28.5841C3.68629 28.5841 1 31.2704 1 34.5841L1 53C1 56.3137 3.68629 59 7 59L39 59C42.3137 59 45 56.3137 45 53L45 34.5841C45 31.2704 42.3137 28.5841 39 28.5841L12.0623 28.5841L12.0623 24.687L12.0623 24.6717C12.0708 19.3232 16.6189 15.1656 22.4215 15.1656Z" fill="url(#paint_linear_112)" fill-rule="evenodd" />
			<path id="形状" d="M22.8205 34.4485L22.7907 34.4485C18.9024 34.5221 15.652 37.4243 15.1439 41.2761C14.6359 45.1278 17.2634 48.772 21 49.8493L21 52.92C21.1173 53.4601 21.2047 53.9313 21.6708 54.2292C22.0057 54.4473 22.3969 54.5631 22.7967 54.5624C22.9449 54.5613 23.0925 54.5453 23.2375 54.5148C24.0511 54.3438 24.3289 53.7089 24.5 52.8962L24.5 49.8315C28.2082 48.7319 30.9229 45.1015 30.4156 41.2708C29.9083 37.4401 26.6874 34.5469 22.8205 34.4485ZM26.2332 45.7322C27.1694 44.7946 27.6942 43.524 27.6921 42.2L27.7 42.1683C27.6869 39.4113 25.4376 37.1869 22.6762 37.2C19.9148 37.2132 17.6869 39.4588 17.7001 42.2158C17.7044 44.9698 19.9417 47.2 22.7 47.2C24.0261 47.1979 25.297 46.6699 26.2332 45.7322Z" fill="rgb(255,254.745,254.745)" fill-rule="evenodd" />
		</g>
		<g id="编组">
			<g filter="url(#filter_35)">
				<rect id="矩形" width="32" height="32" x="36" y="30" rx="16" fill="url(#paint_linear_113)" />
				<rect id="矩形" width="32" height="32" x="36" y="30" rx="16" stroke="rgb(255,255,255)" stroke-width="1.24740005" />
			</g>
			<path id="矢量 70" d="M60.9706 45.7445C60.3476 45.7504 57.2928 44.0206 57.1963 43.9304C56.9643 43.7135 57.0519 43.4435 57.2887 43.4066C57.5255 43.3696 58.8549 43.2147 58.8549 43.2147C58.0378 41.0735 56.2147 39.3635 53.8218 38.8093C50.0027 37.9244 46.0533 40.4345 45.1804 44.2655C45.1729 44.2982 45.1201 44.6888 44.8038 44.6764C44.5896 44.668 43.8881 44.3945 43.6344 44.2778C43.3449 44.1447 43.2666 44.1791 43.3544 43.7505C44.3478 38.8802 49.4349 35.5979 54.3175 36.7209C58.3695 37.6528 61.1844 41.1002 61.4937 45.0282C61.5454 45.5546 61.2721 45.7416 60.9706 45.7445L60.9706 45.7445ZM47.3071 47.8168C47.6257 48.0166 47.5489 48.4177 47.1988 48.4535C46.8487 48.4892 45.7523 48.5838 45.7523 48.5838C46.6214 50.5811 48.383 52.1558 50.6608 52.6833C54.4799 53.5678 58.3855 51.1791 59.2586 47.3481C59.2766 47.2695 59.276 47.2818 59.3072 47.1131C59.3385 46.9443 59.3891 46.6876 59.7253 46.8019C60.0615 46.9161 60.8816 47.1525 61.137 47.2195C61.3925 47.2864 61.3637 47.3852 61.3317 47.618C61.322 47.6887 61.3072 47.7536 61.2918 47.8217C60.1487 52.8029 55.1728 55.9103 50.1779 54.7611C46.1306 53.8303 43.3174 50.3905 43.0026 46.4684C42.9599 45.7945 43.4456 45.6569 43.942 45.9144C44.3325 46.1169 46.9884 47.6171 47.307 47.8168L47.3071 47.8168Z" fill="rgb(126,96,234)" fill-rule="nonzero" />
			<path id="矢量 70" d="M57.8259 43.3372C57.5829 43.3669 57.3705 43.3938 57.2887 43.4066C57.0519 43.4435 56.9643 43.7135 57.1963 43.9304C57.2208 43.9534 57.4369 44.0825 57.7557 44.2621C57.7982 44.2861 57.8425 44.3109 57.8885 44.3365C58.3494 44.5935 58.973 44.9277 59.5468 45.206C60.1727 45.5096 60.7393 45.7467 60.9706 45.7445L60.9706 45.7445C61.153 45.7428 61.3251 45.6736 61.4211 45.5027C61.4838 45.3911 61.5141 45.2362 61.4937 45.0282C61.1844 41.1002 58.3695 37.6528 54.3175 36.7209C49.4349 35.5979 44.3478 38.8802 43.3544 43.7505C43.2777 44.1247 43.3277 44.1459 43.5343 44.2339C43.5643 44.2467 43.5977 44.2609 43.6344 44.2778C43.8881 44.3945 44.5896 44.668 44.8038 44.6764C45.1007 44.688 45.1654 44.3446 45.1784 44.2754C45.1793 44.2709 45.1799 44.2675 45.1804 44.2655C46.0533 40.4345 50.0027 37.9244 53.8218 38.8093C55.8467 39.2783 57.4637 40.575 58.4082 42.2601C58.5798 42.5664 58.7292 42.8854 58.8549 43.2147C58.8549 43.2147 58.4811 43.2582 58.0947 43.3047C58.0541 43.3096 58.0133 43.3145 57.9729 43.3194C57.9232 43.3254 57.8739 43.3314 57.8259 43.3372ZM59.6298 44.1311C59.9319 44.2839 60.1981 44.4117 60.4286 44.5145C60.3998 44.3242 60.3642 44.1354 60.3221 43.9481C60.218 43.4859 60.0735 43.0327 59.8886 42.5886C59.7245 42.1946 59.5327 41.8175 59.3132 41.4574C59.0872 41.0866 58.8319 40.7337 58.5472 40.3987C58.2391 40.0362 57.9051 39.7048 57.5453 39.4044C57.2422 39.1515 56.9207 38.9205 56.5809 38.7116C56.277 38.5246 55.9636 38.3587 55.6408 38.2137C55.147 37.9919 54.6312 37.8192 54.0933 37.6955C53.6834 37.6012 53.2713 37.5408 52.857 37.5142C52.2009 37.4722 51.5394 37.515 50.8725 37.6428C50.4805 37.7179 50.0977 37.8199 49.7243 37.949C49.0958 38.1661 48.4937 38.4596 47.918 38.8295C47.3323 39.2058 46.8074 39.6396 46.3434 40.1309C46.2035 40.279 46.0692 40.4322 45.9404 40.5907C46.1018 40.4002 46.2711 40.2177 46.4482 40.0431C46.8738 39.6239 47.345 39.2508 47.8616 38.9239C48.4098 38.577 48.9822 38.2993 49.5788 38.0908C49.9755 37.9521 50.3828 37.844 50.8009 37.7665C51.4148 37.6527 52.0253 37.61 52.6326 37.6385C53.1062 37.6608 53.5779 37.7263 54.0475 37.8351C54.4666 37.9322 54.873 38.0606 55.2667 38.2203C55.5044 38.3168 55.7374 38.4247 55.9658 38.544C56.2305 38.6822 56.4859 38.8342 56.7321 39C57.0336 39.2029 57.3212 39.4265 57.5949 39.6706C57.8017 39.8551 57.9981 40.049 58.1841 40.2525C58.4367 40.5289 58.6701 40.8229 58.8843 41.1344C59.0666 41.3995 59.2322 41.6734 59.3812 41.956C59.5349 42.2474 59.6709 42.5481 59.7892 42.8582L60.2474 44.0591L59.6298 44.1311ZM47.3071 47.8168L47.307 47.8168C47.2405 47.7751 47.072 47.6766 46.8435 47.5451C46.813 47.5276 46.7815 47.5095 46.7491 47.4909C45.8582 46.9797 44.2401 46.069 43.942 45.9144C43.4456 45.6569 42.9599 45.7945 43.0026 46.4684C43.3174 50.3905 46.1306 53.8303 50.1779 54.7611C55.1728 55.9103 60.1487 52.8029 61.2918 47.8217C61.3072 47.7536 61.322 47.6887 61.3317 47.618C61.3334 47.6056 61.3351 47.5937 61.3367 47.5821C61.366 47.3748 61.379 47.2829 61.137 47.2195C60.8816 47.1525 60.0615 46.9161 59.7253 46.8019C59.3891 46.6876 59.3385 46.9443 59.3072 47.1131C59.276 47.2818 59.2766 47.2695 59.2586 47.3481C58.3855 51.1791 54.4799 53.5678 50.6608 52.6833C48.7622 52.2436 47.2222 51.0763 46.2587 49.5432C46.0663 49.237 45.8969 48.9163 45.7523 48.5838C45.7523 48.5838 46.1388 48.5505 46.5261 48.5159C46.5499 48.5137 46.5737 48.5116 46.5975 48.5095C46.604 48.5089 46.6106 48.5083 46.6171 48.5077C46.6835 48.5018 46.749 48.4958 46.8116 48.4901C46.8381 48.4877 46.8641 48.4853 46.8894 48.483C47.0147 48.4714 47.1238 48.4611 47.1988 48.4535C47.5489 48.4177 47.6257 48.0166 47.3071 47.8168ZM44.9983 47.6462C44.6343 47.4407 44.3329 47.2713 44.0941 47.1381C44.1178 47.2745 44.1449 47.4102 44.1755 47.545C44.28 48.0066 44.4249 48.4591 44.6101 48.9024C44.7743 49.2954 44.9662 49.6716 45.1856 50.031C45.4117 50.4013 45.6672 50.7537 45.952 51.0882C46.2595 51.4494 46.5927 51.7797 46.9517 52.0792C47.2551 52.3322 47.5769 52.5632 47.917 52.7721C48.2199 52.9582 48.5321 53.1235 48.8537 53.2679C49.3478 53.4899 49.8639 53.6628 50.4021 53.7866C51.0203 53.9288 51.6386 54.0003 52.2571 54.0012C52.7342 54.0019 53.2114 53.9605 53.6886 53.877C54.1895 53.7894 54.6744 53.6586 55.1432 53.4845C55.6652 53.2907 56.1674 53.0432 56.6496 52.742C57.145 52.4327 57.5984 52.0799 58.01 51.6835C58.3586 51.3477 58.6771 50.9807 58.9655 50.5824C59.2613 50.1741 59.5156 49.7461 59.7285 49.2984C59.9266 48.8821 60.0888 48.4487 60.2153 47.9983C60.2037 47.9949 60.1921 47.9915 60.1802 47.9881C60.1636 47.9832 60.1472 47.9784 60.131 47.9736C60.0194 48.3695 59.8789 48.7521 59.7097 49.1216C59.4867 49.6084 59.2137 50.0723 58.8906 50.5133C58.6233 50.8781 58.3301 51.2163 58.0108 51.5278C57.5837 51.9445 57.1101 52.3135 56.59 52.6348C56.1099 52.9314 55.6102 53.1749 55.0911 53.3653C54.6307 53.5342 54.155 53.6614 53.6639 53.7468C53.1171 53.8418 52.572 53.8813 52.0285 53.8652C51.4958 53.8493 50.9647 53.7801 50.4352 53.6575C50.0282 53.5632 49.633 53.4393 49.2497 53.2858C49.0302 53.1979 48.8146 53.1003 48.6029 52.993C48.3465 52.863 48.0985 52.7201 47.8589 52.5644C47.5706 52.377 47.2944 52.171 47.0304 51.9464C46.8334 51.7789 46.6454 51.6028 46.4661 51.4181C46.2138 51.1582 45.9789 50.8813 45.7616 50.5874C45.5855 50.3493 45.4233 50.1033 45.2748 49.8491C45.1117 49.5701 44.9652 49.2813 44.8353 48.9829L44.281 47.7092L44.9983 47.6462Z" fill="rgb(126,96,234)" fill-rule="evenodd" />
		</g>
	</g>
</svg>
