<svg viewBox="0 0 70 70" xmlns="http://www.w3.org/2000/svg" xmlns:xlink="http://www.w3.org/1999/xlink" width="70" height="70" fill="none" customFrame="#000000">
	<defs>
		<linearGradient id="paint_linear_122" x1="3.99999666" x2="47.9999924" y1="34.9990616" y2="34.9990845" gradientUnits="userSpaceOnUse">
			<stop stop-color="rgb(254,183,0)" offset="0" stop-opacity="1" />
			<stop stop-color="rgb(254,197,51)" offset="1" stop-opacity="1" />
		</linearGradient>
		<g id="pixso_custom_effect_40">
			<effect visibility="visible" effectType="backgroundBlur" saturation="0" stdDeviation="17.125164" />
		</g>
		<filter id="filter_40" width="33.2473755" height="33.2473907" x="33.3763123" y="29.3764343" filterUnits="userSpaceOnUse" customEffect="url(#pixso_custom_effect_40)" color-interpolation-filters="sRGB">
			<feFlood flood-opacity="0" result="BackgroundImageFix" />
			<feGaussianBlur stdDeviation="5.70838785" in="BackgroundImage" />
			<feComposite result="effect_backgroundBlur_1" in2="SourceAlpha" operator="in" />
			<feBlend result="shape" in="SourceGraphic" in2="effect_backgroundBlur_1" mode="normal" />
		</filter>
		<linearGradient id="paint_linear_123" x1="36.0000076" x2="60.4968872" y1="30.5001183" y2="55.9761124" gradientUnits="userSpaceOnUse">
			<stop stop-color="rgb(255,255,255)" offset="0" stop-opacity="0" />
			<stop stop-color="rgb(255,255,255)" offset="1" stop-opacity="1" />
		</linearGradient>
	</defs>
	<rect id="名称=查询活期明细" width="70" height="70" x="0" y="0" fill="rgb(255,255,255)" fill-opacity="0" />
	<g id="组合 1878">
		<path id="合并" d="M20.5865 16.0523L31.0384 16.0523C32.2494 16.0523 33.2686 14.9208 33.2686 13.5245C33.2686 12.1246 32.2494 11.0004 30.9744 11.0004L20.5865 11.0004C19.3078 11.0004 18.2923 12.1283 18.2923 13.5245C18.2923 14.9208 19.3116 16.0523 20.5865 16.0523ZM10 13.8779L13.5652 13.8779L13.5652 14.6779C13.5652 16.887 15.3561 18.6779 17.5652 18.6779L33.4783 18.6779C35.6874 18.6779 37.4783 16.887 37.4783 14.6779L37.4783 13.8779L42 13.8779C45.3137 13.8779 48 16.5642 48 19.8779L48 52.9978C48 56.3115 45.3137 58.9978 42 58.9978L10 58.9978C6.68629 58.9978 4 56.3115 4 52.9978L4 19.8779C4 16.5642 6.68629 13.8779 10 13.8779ZM29.379 29.1826C30.3554 29.1826 31.1469 29.9741 31.1469 30.9504C31.1469 31.9268 30.3554 32.7183 29.379 32.7183L11.9624 32.7183C10.986 32.7183 10.1945 31.9268 10.1945 30.9504C10.1945 29.9741 10.986 29.1826 11.9624 29.1826L29.379 29.1826ZM26.9569 40.0423C26.9569 39.0659 26.1654 38.2744 25.1891 38.2744L11.9629 38.2744C10.9865 38.2744 10.195 39.0659 10.195 40.0423C10.195 41.0186 10.9865 41.8101 11.9629 41.8101L25.1891 41.8101C26.1654 41.8101 26.9569 41.0186 26.9569 40.0423ZM32.5219 47.366C33.4982 47.366 34.2897 48.1575 34.2897 49.1339C34.2897 50.1102 33.4982 50.9017 32.5219 50.9017L11.9623 50.9017C10.986 50.9017 10.1945 50.1102 10.1945 49.1339C10.1945 48.1575 10.986 47.366 11.9623 47.366L32.5219 47.366Z" fill="url(#paint_linear_122)" fill-rule="evenodd" />
		<g id="编组">
			<g filter="url(#filter_40)">
				<rect id="矩形" width="32" height="32" x="34" y="30.0001221" rx="16" fill="url(#paint_linear_123)" />
				<rect id="矩形" width="32" height="32" x="34" y="30.0001221" rx="16" stroke="rgb(255,255,255)" stroke-width="1.24740005" />
			</g>
			<path id="矢量 51" d="M57.6663 51.8583L55.7664 49.5404C55.8593 49.4115 55.948 49.2797 56.0326 49.1451C56.1173 49.0106 56.1976 48.8735 56.2736 48.7339C56.3496 48.5943 56.4212 48.4525 56.4883 48.3084C56.5554 48.1644 56.6179 48.0183 56.6759 47.8703C56.7338 47.7223 56.7871 47.5726 56.8356 47.4213C56.8842 47.2699 56.928 47.1172 56.9669 46.9631C57.0059 46.809 57.04 46.6539 57.0693 46.4976C57.0985 46.3414 57.1228 46.1844 57.1422 46.0267C57.1616 45.8689 57.176 45.7107 57.1855 45.552C57.1949 45.3934 57.1994 45.2346 57.1989 45.0756C57.1984 44.9167 57.1929 44.7579 57.1825 44.5993C57.172 44.4407 57.1566 44.2826 57.1362 44.125C57.1158 43.9673 57.0905 43.8105 57.0603 43.6545C57.0301 43.4984 56.995 43.3435 56.955 43.1896C56.9151 43.0358 56.8704 42.8834 56.8208 42.7323C56.7713 42.5813 56.7171 42.4319 56.6582 42.2843C56.5994 42.1367 56.5359 41.991 56.4679 41.8474C56.3999 41.7037 56.3274 41.5623 56.2505 41.4232C56.1736 41.2841 56.0925 41.1476 56.007 41.0136C55.9215 40.8795 55.832 40.7483 55.7383 40.6199C55.6446 40.4916 55.547 40.3662 55.4454 40.2439C55.3438 40.1217 55.2386 40.0027 55.1295 39.8871C55.0205 39.7714 54.908 39.6593 54.7919 39.5507C54.6759 39.4421 54.5565 39.3372 54.4339 39.2361C54.3112 39.135 54.1856 39.0378 54.0568 38.9446C53.9281 38.8514 53.7966 38.7623 53.6622 38.6773C53.5279 38.5923 53.3911 38.5116 53.2517 38.4353C53.1123 38.3589 52.9706 38.2869 52.8268 38.2194C52.6829 38.1519 52.537 38.089 52.3891 38.0307C52.2413 37.9723 52.0918 37.9187 51.9405 37.8697C51.7893 37.8207 51.6367 37.7766 51.4827 37.7372C51.3288 37.6978 51.1737 37.6633 51.0175 37.6336C50.8614 37.6039 50.7044 37.5792 50.5467 37.5594C50.389 37.5396 50.2309 37.5247 50.0722 37.5148C49.9136 37.505 49.7548 37.5 49.5959 37.5001C49.4369 37.5002 49.2781 37.5053 49.1195 37.5153C48.9609 37.5253 48.8027 37.5403 48.645 37.5603C48.4874 37.5803 48.3305 37.6051 48.1743 37.6349C48.0182 37.6648 47.8632 37.6994 47.7092 37.739C47.5553 37.7785 47.4027 37.8228 47.2515 37.8719C47.1004 37.921 46.9509 37.9748 46.8031 38.0333C46.6553 38.0918 46.5095 38.1549 46.3657 38.2225C46.2218 38.2901 46.0803 38.3622 45.9409 38.4387C45.8016 38.5153 45.6649 38.5961 45.5306 38.6812C45.3964 38.7663 45.2649 38.8555 45.1363 38.9488C45.0076 39.0422 44.882 39.1395 44.7595 39.2407C44.637 39.3419 44.5177 39.4469 44.4018 39.5556C44.2858 39.6643 44.1734 39.7766 44.0645 39.8923C43.9556 40.0081 43.8504 40.1272 43.7489 40.2495C43.6475 40.3719 43.55 40.4973 43.4564 40.6258C43.3629 40.7543 43.2734 40.8856 43.1881 41.0197C43.1027 41.1537 43.0217 41.2904 42.9449 41.4296C42.8682 41.5687 42.7959 41.7102 42.728 41.8539C42.6601 41.9976 42.5968 42.1433 42.538 42.291C42.4793 42.4387 42.4252 42.5881 42.3759 42.7392C42.3265 42.8903 42.2819 43.0428 42.2421 43.1966C42.2023 43.3505 42.1674 43.5055 42.1373 43.6616C42.1072 43.8176 42.0821 43.9745 42.0618 44.1321C42.0416 44.2898 42.0263 44.4479 42.016 44.6065C42.0057 44.7651 42.0004 44.9239 42 45.0829C41.9997 45.2418 42.0043 45.4006 42.0139 45.5593C42.0235 45.7179 42.0381 45.8761 42.0576 46.0338C42.0772 46.1916 42.1017 46.3486 42.131 46.5048C42.1604 46.661 42.1947 46.8161 42.2338 46.9701C42.2729 47.1242 42.3168 47.2769 42.3655 47.4282C42.4142 47.5795 42.4676 47.7291 42.5257 47.877C42.5838 48.025 42.6465 48.171 42.7137 48.315C42.781 48.459 42.8527 48.6008 42.9288 48.7403C43.005 48.8798 43.0854 49.0168 43.1702 49.1513C43.2549 49.2857 43.3438 49.4174 43.4368 49.5463C43.5298 49.6752 43.6267 49.8011 43.7276 49.9239C43.8285 50.0467 43.9332 50.1662 44.0416 50.2824C44.15 50.3987 44.2619 50.5114 44.3774 50.6206C44.4929 50.7299 44.6117 50.8354 44.7337 50.9371C44.8558 51.0389 44.981 51.1367 45.1092 51.2306C45.2375 51.3246 45.3685 51.4144 45.5024 51.5001C45.6362 51.5857 45.7727 51.6672 45.9116 51.7443C46.0506 51.8214 46.1919 51.8941 46.3354 51.9624C46.4789 52.0307 46.6245 52.0944 46.772 52.1535C46.9195 52.2126 47.0688 52.2671 47.2197 52.3169C47.3707 52.3666 47.523 52.4116 47.6768 52.4518C47.8306 52.4921 47.9855 52.5274 48.1415 52.5579C48.2975 52.5884 48.4542 52.614 48.6118 52.6346C48.7694 52.6553 48.9275 52.671 49.0861 52.6817C49.2447 52.6925 49.4034 52.6982 49.5624 52.699C49.7213 52.6998 49.8801 52.6956 50.0388 52.6864C50.1975 52.6772 50.3557 52.663 50.5135 52.6439C50.6713 52.6248 50.8283 52.6007 50.9846 52.5718C51.1409 52.5428 51.2961 52.509 51.4503 52.4703C51.6044 52.4315 51.7572 52.388 51.9087 52.3398C52.0601 52.2915 52.2099 52.2385 52.358 52.1808C52.5061 52.1231 52.6522 52.0608 52.7964 51.9939C52.9406 51.9271 53.0826 51.8557 53.2223 51.78C53.362 51.7042 53.4992 51.6241 53.6339 51.5397C53.7686 51.4554 53.9005 51.3668 54.0297 51.2742C54.1588 51.1815 54.2849 51.0849 54.408 50.9843L56.1844 53.1217C56.2042 53.1476 56.2252 53.1725 56.2476 53.1962C56.2699 53.22 56.2934 53.2425 56.3181 53.2638C56.3428 53.2852 56.3685 53.3052 56.3952 53.3239C56.4219 53.3426 56.4495 53.3598 56.4781 53.3757C56.5066 53.3915 56.5358 53.4058 56.5658 53.4187C56.5958 53.4315 56.6263 53.4428 56.6575 53.4524C56.6886 53.4621 56.7202 53.4702 56.7522 53.4766C56.7841 53.483 56.8163 53.4878 56.8488 53.4909C56.8813 53.494 56.9138 53.4955 56.9464 53.4952C56.979 53.495 57.0115 53.4931 57.044 53.4895C57.0764 53.4859 57.1085 53.4807 57.1404 53.4738C57.1723 53.4669 57.2037 53.4584 57.2347 53.4482C57.2657 53.4381 57.2961 53.4264 57.3259 53.4131C57.3557 53.3999 57.3847 53.3851 57.413 53.3688C57.4413 53.3526 57.4686 53.3349 57.4951 53.3158C57.5215 53.2968 57.5469 53.2764 57.5713 53.2547C57.6193 53.2113 57.6627 53.1638 57.7016 53.1121C57.7404 53.0604 57.774 53.0054 57.8022 52.9473C57.8305 52.8891 57.8529 52.8287 57.8695 52.7662C57.8862 52.7037 57.8967 52.6402 57.9011 52.5757C57.9055 52.5112 57.9036 52.4468 57.8956 52.3826C57.8876 52.3184 57.8736 52.2556 57.8534 52.1942C57.8333 52.1327 57.8075 52.0737 57.776 52.0172C57.7446 51.9607 57.708 51.9077 57.6663 51.8583ZM49.5728 50.7944C49.4796 50.7944 49.3863 50.7921 49.2932 50.7875C49.2 50.7829 49.107 50.7761 49.0142 50.7669C48.9213 50.7578 48.8288 50.7464 48.7365 50.7327C48.6443 50.719 48.5524 50.703 48.4609 50.6848C48.3694 50.6666 48.2784 50.6462 48.1879 50.6235C48.0975 50.6009 48.0076 50.576 47.9183 50.5489C47.8291 50.5219 47.7405 50.4926 47.6527 50.4612C47.5649 50.4298 47.4779 50.3962 47.3917 50.3605C47.3055 50.3248 47.2203 50.287 47.1359 50.2471C47.0516 50.2073 46.9683 50.1653 46.8861 50.1214C46.8038 50.0774 46.7227 50.0314 46.6426 49.9835C46.5626 49.9355 46.4839 49.8856 46.4063 49.8338C46.3287 49.782 46.2525 49.7283 46.1776 49.6727C46.1027 49.6171 46.0291 49.5598 45.957 49.5006C45.8849 49.4414 45.8143 49.3805 45.7452 49.3179C45.6761 49.2552 45.6086 49.1909 45.5426 49.125C45.4766 49.059 45.4123 48.9915 45.3497 48.9224C45.2871 48.8533 45.2262 48.7826 45.167 48.7105C45.1078 48.6384 45.0504 48.5649 44.9949 48.49C44.9393 48.4151 44.8856 48.3388 44.8338 48.2613C44.782 48.1837 44.7321 48.1049 44.6841 48.0249C44.6362 47.9449 44.5902 47.8638 44.5462 47.7815C44.5023 47.6993 44.4603 47.616 44.4204 47.5316C44.3806 47.4473 44.3428 47.3621 44.3071 47.2759C44.2714 47.1897 44.2378 47.1027 44.2064 47.0149C44.175 46.9271 44.1457 46.8385 44.1186 46.7493C44.0916 46.66 44.0667 46.5701 44.044 46.4796C44.0214 46.3892 44.0009 46.2982 43.9827 46.2067C43.9645 46.1152 43.9486 46.0233 43.9349 45.9311C43.9212 45.8388 43.9098 45.7462 43.9007 45.6534C43.8915 45.5606 43.8847 45.4676 43.8801 45.3744C43.8755 45.2812 43.8732 45.188 43.8732 45.0947C43.8732 45.0015 43.8755 44.9082 43.8801 44.8151C43.8847 44.7219 43.8915 44.6289 43.9007 44.5361C43.9098 44.4433 43.9212 44.3507 43.9349 44.2584C43.9486 44.1662 43.9645 44.0743 43.9827 43.9828C44.0009 43.8913 44.0214 43.8003 44.044 43.7099C44.0667 43.6194 44.0916 43.5295 44.1186 43.4402C44.1457 43.351 44.175 43.2624 44.2064 43.1746C44.2378 43.0868 44.2714 42.9998 44.3071 42.9136C44.3428 42.8274 44.3806 42.7422 44.4204 42.6579C44.4603 42.5735 44.5023 42.4902 44.5462 42.408C44.5902 42.3257 44.6362 42.2446 44.6841 42.1646C44.7321 42.0846 44.782 42.0058 44.8338 41.9282C44.8856 41.8507 44.9393 41.7744 44.9949 41.6995C45.0504 41.6246 45.1078 41.5511 45.167 41.479C45.2262 41.4068 45.2871 41.3362 45.3497 41.2671C45.4123 41.198 45.4766 41.1305 45.5426 41.0645C45.6086 40.9986 45.6761 40.9343 45.7452 40.8716C45.8143 40.809 45.8849 40.7481 45.957 40.6889C46.0291 40.6297 46.1027 40.5723 46.1776 40.5168C46.2525 40.4612 46.3287 40.4075 46.4063 40.3557C46.4839 40.3039 46.5626 40.254 46.6426 40.206C46.7227 40.1581 46.8038 40.1121 46.8861 40.0681C46.9683 40.0242 47.0516 39.9822 47.1359 39.9424C47.2203 39.9025 47.3055 39.8647 47.3917 39.829C47.4779 39.7933 47.5649 39.7597 47.6527 39.7283C47.7405 39.6969 47.8291 39.6676 47.9183 39.6406C48.0076 39.6135 48.0975 39.5886 48.1879 39.5659C48.2784 39.5433 48.3694 39.5229 48.4609 39.5047C48.5524 39.4865 48.6443 39.4705 48.7365 39.4568C48.8288 39.4431 48.9213 39.4317 49.0142 39.4226C49.107 39.4134 49.2 39.4066 49.2932 39.402C49.3863 39.3974 49.4796 39.3951 49.5728 39.3951C49.6661 39.3951 49.7593 39.3974 49.8525 39.402C49.9457 39.4066 50.0387 39.4134 50.1315 39.4226C50.2243 39.4317 50.3169 39.4431 50.4091 39.4568C50.5014 39.4705 50.5933 39.4865 50.6848 39.5047C50.7763 39.5229 50.8672 39.5433 50.9577 39.5659C51.0482 39.5886 51.1381 39.6135 51.2273 39.6406C51.3166 39.6676 51.4051 39.6969 51.493 39.7283C51.5808 39.7597 51.6678 39.7933 51.754 39.829C51.8402 39.8647 51.9254 39.9025 52.0097 39.9424C52.0941 39.9822 52.1773 40.0242 52.2596 40.0681C52.3419 40.1121 52.423 40.1581 52.503 40.206C52.583 40.254 52.6618 40.3039 52.7394 40.3557C52.8169 40.4075 52.8932 40.4612 52.9681 40.5168C53.043 40.5723 53.1165 40.6297 53.1886 40.6889C53.2607 40.7481 53.3313 40.809 53.4005 40.8716C53.4696 40.9343 53.5371 40.9986 53.6031 41.0645C53.669 41.1305 53.7333 41.198 53.796 41.2671C53.8586 41.3362 53.9195 41.4068 53.9787 41.479C54.0379 41.5511 54.0952 41.6246 54.1508 41.6995C54.2064 41.7744 54.2601 41.8507 54.3119 41.9282C54.3637 42.0058 54.4136 42.0846 54.4616 42.1646C54.5095 42.2446 54.5555 42.3257 54.5994 42.408C54.6434 42.4902 54.6853 42.5735 54.7252 42.6579C54.7651 42.7422 54.8029 42.8274 54.8386 42.9136C54.8743 42.9998 54.9078 43.0868 54.9393 43.1746C54.9707 43.2624 54.9999 43.351 55.027 43.4402C55.0541 43.5295 55.079 43.6194 55.1016 43.7099C55.1243 43.8003 55.1447 43.8913 55.1629 43.9828C55.1811 44.0743 55.1971 44.1662 55.2108 44.2584C55.2244 44.3507 55.2359 44.4433 55.245 44.5361C55.2541 44.6289 55.261 44.7219 55.2656 44.8151C55.2702 44.9082 55.2724 45.0015 55.2724 45.0947C55.2724 45.188 55.2702 45.2812 55.2656 45.3744C55.261 45.4676 55.2541 45.5606 55.245 45.6534C55.2359 45.7462 55.2244 45.8388 55.2108 45.9311C55.1971 46.0233 55.1811 46.1152 55.1629 46.2067C55.1447 46.2982 55.1243 46.3892 55.1016 46.4796C55.079 46.5701 55.0541 46.66 55.027 46.7493C54.9999 46.8385 54.9707 46.9271 54.9393 47.0149C54.9078 47.1027 54.8743 47.1897 54.8386 47.2759C54.8029 47.3621 54.7651 47.4473 54.7252 47.5316C54.6853 47.616 54.6434 47.6993 54.5994 47.7815C54.5555 47.8638 54.5095 47.9449 54.4616 48.0249C54.4136 48.1049 54.3637 48.1837 54.3119 48.2613C54.2601 48.3388 54.2064 48.4151 54.1508 48.49C54.0952 48.5649 54.0379 48.6384 53.9787 48.7105C53.9195 48.7826 53.8586 48.8533 53.796 48.9224C53.7333 48.9915 53.669 49.059 53.6031 49.125C53.5371 49.1909 53.4696 49.2552 53.4005 49.3179C53.3313 49.3805 53.2607 49.4414 53.1886 49.5006C53.1165 49.5598 53.043 49.6171 52.9681 49.6727C52.8932 49.7283 52.8169 49.782 52.7394 49.8338C52.6618 49.8856 52.583 49.9355 52.503 49.9835C52.423 50.0314 52.3419 50.0774 52.2596 50.1214C52.1773 50.1653 52.0941 50.2073 52.0097 50.2471C51.9254 50.287 51.8402 50.3248 51.754 50.3605C51.6678 50.3962 51.5808 50.4298 51.493 50.4612C51.4051 50.4926 51.3166 50.5219 51.2273 50.5489C51.1381 50.576 51.0482 50.6009 50.9577 50.6236C50.8672 50.6462 50.7763 50.6666 50.6848 50.6848C50.5933 50.703 50.5014 50.719 50.4091 50.7327C50.3169 50.7464 50.2243 50.7578 50.1315 50.7669C50.0387 50.7761 49.9457 50.7829 49.8525 50.7875C49.7593 50.7921 49.6661 50.7944 49.5728 50.7944L49.5728 50.7944Z" fill="rgb(245,185,32)" fill-rule="nonzero" />
			<path id="矢量 51" d="M55.7664 49.5404C55.8593 49.4115 55.948 49.2797 56.0326 49.1451C56.1173 49.0106 56.1976 48.8735 56.2736 48.7339C56.3496 48.5943 56.4212 48.4525 56.4883 48.3084C56.5554 48.1644 56.6179 48.0183 56.6759 47.8703C56.7338 47.7223 56.7871 47.5726 56.8356 47.4213C56.8842 47.2699 56.928 47.1172 56.9669 46.9631C57.0059 46.809 57.04 46.6539 57.0693 46.4976C57.0985 46.3414 57.1228 46.1844 57.1422 46.0267C57.1616 45.8689 57.176 45.7107 57.1855 45.552C57.1949 45.3934 57.1994 45.2346 57.1989 45.0756C57.1984 44.9167 57.1929 44.7579 57.1825 44.5993C57.172 44.4407 57.1566 44.2826 57.1362 44.125C57.1158 43.9673 57.0905 43.8105 57.0603 43.6545C57.0301 43.4984 56.995 43.3435 56.955 43.1896C56.9151 43.0358 56.8704 42.8834 56.8208 42.7323C56.7713 42.5813 56.7171 42.4319 56.6582 42.2843C56.5994 42.1367 56.5359 41.991 56.4679 41.8474C56.3999 41.7037 56.3274 41.5623 56.2505 41.4232C56.1736 41.2841 56.0925 41.1476 56.007 41.0136C55.9215 40.8795 55.832 40.7483 55.7383 40.6199C55.6446 40.4916 55.547 40.3662 55.4454 40.2439C55.3438 40.1217 55.2386 40.0027 55.1295 39.8871C55.0205 39.7714 54.908 39.6593 54.7919 39.5507C54.6759 39.4421 54.5565 39.3372 54.4339 39.2361C54.3112 39.135 54.1856 39.0378 54.0568 38.9446C53.9281 38.8514 53.7966 38.7623 53.6622 38.6773C53.5279 38.5923 53.3911 38.5116 53.2517 38.4353C53.1123 38.3589 52.9706 38.2869 52.8268 38.2194C52.6829 38.1519 52.537 38.089 52.3891 38.0307C52.2413 37.9723 52.0918 37.9187 51.9405 37.8697C51.7893 37.8207 51.6367 37.7766 51.4827 37.7372C51.3288 37.6978 51.1737 37.6633 51.0175 37.6336C50.8614 37.6039 50.7044 37.5792 50.5467 37.5594C50.389 37.5396 50.2309 37.5247 50.0722 37.5148C49.9136 37.505 49.7548 37.5 49.5959 37.5001C49.4369 37.5002 49.2781 37.5053 49.1195 37.5153C48.9609 37.5253 48.8027 37.5403 48.645 37.5603C48.4874 37.5803 48.3305 37.6051 48.1743 37.6349C48.0182 37.6648 47.8632 37.6994 47.7092 37.739C47.5553 37.7785 47.4027 37.8228 47.2515 37.8719C47.1004 37.921 46.9509 37.9748 46.8031 38.0333C46.6553 38.0918 46.5095 38.1549 46.3657 38.2225C46.2218 38.2901 46.0803 38.3622 45.9409 38.4387C45.8016 38.5153 45.6649 38.5961 45.5306 38.6812C45.3964 38.7663 45.2649 38.8555 45.1363 38.9488C45.0076 39.0422 44.882 39.1395 44.7595 39.2407C44.637 39.3419 44.5177 39.4469 44.4018 39.5556C44.2858 39.6643 44.1734 39.7766 44.0645 39.8923C43.9556 40.0081 43.8504 40.1272 43.7489 40.2495C43.6475 40.3719 43.55 40.4973 43.4564 40.6258C43.3629 40.7543 43.2734 40.8856 43.1881 41.0197C43.1027 41.1537 43.0217 41.2904 42.9449 41.4296C42.8682 41.5687 42.7959 41.7102 42.728 41.8539C42.6601 41.9976 42.5968 42.1433 42.538 42.291C42.4793 42.4387 42.4252 42.5881 42.3759 42.7392C42.3265 42.8903 42.2819 43.0428 42.2421 43.1966C42.2023 43.3505 42.1674 43.5055 42.1373 43.6616C42.1072 43.8176 42.0821 43.9745 42.0618 44.1321C42.0416 44.2898 42.0263 44.4479 42.016 44.6065C42.0057 44.7651 42.0004 44.9239 42 45.0829C41.9997 45.2418 42.0043 45.4006 42.0139 45.5593C42.0235 45.7179 42.0381 45.8761 42.0576 46.0338C42.0772 46.1916 42.1017 46.3486 42.131 46.5048C42.1604 46.661 42.1947 46.8161 42.2338 46.9701C42.2729 47.1242 42.3168 47.2769 42.3655 47.4282C42.4142 47.5795 42.4676 47.7291 42.5257 47.877C42.5838 48.025 42.6465 48.171 42.7137 48.315C42.781 48.459 42.8527 48.6008 42.9288 48.7403C43.005 48.8798 43.0854 49.0168 43.1702 49.1513C43.2549 49.2857 43.3438 49.4174 43.4368 49.5463C43.5298 49.6752 43.6267 49.8011 43.7276 49.9239C43.8285 50.0467 43.9332 50.1662 44.0416 50.2824C44.15 50.3987 44.2619 50.5114 44.3774 50.6206C44.4929 50.7299 44.6117 50.8354 44.7337 50.9371C44.8558 51.0389 44.981 51.1367 45.1092 51.2306C45.2375 51.3246 45.3685 51.4144 45.5024 51.5001C45.6362 51.5857 45.7727 51.6672 45.9116 51.7443C46.0506 51.8214 46.1919 51.8941 46.3354 51.9624C46.4789 52.0307 46.6245 52.0944 46.772 52.1535C46.9195 52.2126 47.0688 52.2671 47.2197 52.3169C47.3707 52.3666 47.523 52.4116 47.6768 52.4518C47.8306 52.4921 47.9855 52.5274 48.1415 52.5579C48.2975 52.5884 48.4542 52.614 48.6118 52.6346C48.7694 52.6553 48.9275 52.671 49.0861 52.6817C49.2447 52.6925 49.4034 52.6982 49.5624 52.699C49.7213 52.6998 49.8801 52.6956 50.0388 52.6864C50.1975 52.6772 50.3557 52.663 50.5135 52.6439C50.6713 52.6248 50.8283 52.6007 50.9846 52.5718C51.1409 52.5428 51.2961 52.509 51.4503 52.4703C51.6044 52.4315 51.7572 52.388 51.9087 52.3398C52.0601 52.2915 52.2099 52.2385 52.358 52.1808C52.5061 52.1231 52.6522 52.0608 52.7964 51.9939C52.9406 51.9271 53.0826 51.8557 53.2223 51.78C53.362 51.7042 53.4992 51.6241 53.6339 51.5397C53.7686 51.4554 53.9005 51.3668 54.0297 51.2742C54.1588 51.1815 54.2849 51.0849 54.408 50.9843L56.1844 53.1217C56.2042 53.1476 56.2252 53.1725 56.2476 53.1962C56.2699 53.22 56.2934 53.2425 56.3181 53.2638C56.3428 53.2852 56.3685 53.3052 56.3952 53.3239C56.4219 53.3426 56.4495 53.3598 56.4781 53.3757C56.5066 53.3915 56.5358 53.4058 56.5658 53.4187C56.5958 53.4315 56.6263 53.4428 56.6575 53.4524C56.6886 53.4621 56.7202 53.4702 56.7522 53.4766C56.7841 53.483 56.8163 53.4878 56.8488 53.4909C56.8813 53.494 56.9138 53.4955 56.9464 53.4952C56.979 53.495 57.0115 53.4931 57.044 53.4895C57.0764 53.4859 57.1085 53.4807 57.1404 53.4738C57.1723 53.4669 57.2037 53.4584 57.2347 53.4482C57.2657 53.4381 57.2961 53.4264 57.3259 53.4131C57.3557 53.3999 57.3847 53.3851 57.413 53.3688C57.4413 53.3526 57.4686 53.3349 57.4951 53.3158C57.5215 53.2968 57.5469 53.2764 57.5713 53.2547C57.6193 53.2113 57.6627 53.1638 57.7016 53.1121C57.7404 53.0604 57.774 53.0054 57.8022 52.9473C57.8305 52.8891 57.8529 52.8287 57.8695 52.7662C57.8862 52.7037 57.8967 52.6402 57.9011 52.5757C57.9055 52.5112 57.9036 52.4468 57.8956 52.3826C57.8876 52.3184 57.8736 52.2556 57.8534 52.1942C57.8333 52.1327 57.8075 52.0737 57.776 52.0172C57.7446 51.9607 57.708 51.9077 57.6663 51.8583L55.7664 49.5404ZM49.2932 50.7875C49.2 50.7829 49.107 50.7761 49.0142 50.7669C48.9213 50.7578 48.8288 50.7464 48.7365 50.7327C48.6443 50.719 48.5524 50.703 48.4609 50.6848C48.3694 50.6666 48.2784 50.6462 48.1879 50.6235C48.0975 50.6009 48.0076 50.576 47.9183 50.5489C47.8291 50.5219 47.7405 50.4926 47.6527 50.4612C47.5649 50.4298 47.4779 50.3962 47.3917 50.3605C47.3055 50.3248 47.2203 50.287 47.1359 50.2471C47.0516 50.2073 46.9683 50.1653 46.8861 50.1214C46.8038 50.0774 46.7227 50.0314 46.6426 49.9835C46.5626 49.9355 46.4839 49.8856 46.4063 49.8338C46.3287 49.782 46.2525 49.7283 46.1776 49.6727C46.1027 49.6171 46.0291 49.5598 45.957 49.5006C45.8849 49.4414 45.8143 49.3805 45.7452 49.3179C45.6761 49.2552 45.6086 49.1909 45.5426 49.125C45.4766 49.059 45.4123 48.9915 45.3497 48.9224C45.2871 48.8533 45.2262 48.7826 45.167 48.7105C45.1078 48.6384 45.0504 48.5649 44.9949 48.49C44.9393 48.4151 44.8856 48.3388 44.8338 48.2613C44.782 48.1837 44.7321 48.1049 44.6841 48.0249C44.6362 47.9449 44.5902 47.8638 44.5462 47.7815C44.5023 47.6993 44.4603 47.616 44.4204 47.5316C44.3806 47.4473 44.3428 47.3621 44.3071 47.2759C44.2714 47.1897 44.2378 47.1027 44.2064 47.0149C44.175 46.9271 44.1457 46.8385 44.1186 46.7493C44.0916 46.66 44.0667 46.5701 44.044 46.4796C44.0214 46.3892 44.0009 46.2982 43.9827 46.2067C43.9645 46.1152 43.9486 46.0233 43.9349 45.9311C43.9212 45.8388 43.9098 45.7462 43.9007 45.6534C43.8915 45.5606 43.8847 45.4676 43.8801 45.3744C43.8755 45.2812 43.8732 45.188 43.8732 45.0947C43.8732 45.0015 43.8755 44.9082 43.8801 44.8151C43.8847 44.7219 43.8915 44.6289 43.9007 44.5361C43.9098 44.4433 43.9212 44.3507 43.9349 44.2584C43.9486 44.1662 43.9645 44.0743 43.9827 43.9828C44.0009 43.8913 44.0214 43.8003 44.044 43.7099C44.0667 43.6194 44.0916 43.5295 44.1186 43.4402C44.1457 43.351 44.175 43.2624 44.2064 43.1746C44.2378 43.0868 44.2714 42.9998 44.3071 42.9136C44.3428 42.8274 44.3806 42.7422 44.4204 42.6579C44.4603 42.5735 44.5023 42.4902 44.5462 42.408C44.5902 42.3257 44.6362 42.2446 44.6841 42.1646C44.7321 42.0846 44.782 42.0058 44.8338 41.9282C44.8856 41.8507 44.9393 41.7744 44.9949 41.6995C45.0504 41.6246 45.1078 41.5511 45.167 41.479C45.2262 41.4068 45.2871 41.3362 45.3497 41.2671C45.4123 41.198 45.4766 41.1305 45.5426 41.0645C45.6086 40.9986 45.6761 40.9343 45.7452 40.8716C45.8143 40.809 45.8849 40.7481 45.957 40.6889C46.0291 40.6297 46.1027 40.5723 46.1776 40.5168C46.2525 40.4612 46.3287 40.4075 46.4063 40.3557C46.4839 40.3039 46.5626 40.254 46.6426 40.206C46.7227 40.1581 46.8038 40.1121 46.8861 40.0681C46.9683 40.0242 47.0516 39.9822 47.1359 39.9424C47.2203 39.9025 47.3055 39.8647 47.3917 39.829C47.4779 39.7933 47.5649 39.7597 47.6527 39.7283C47.7405 39.6969 47.8291 39.6676 47.9183 39.6406C48.0076 39.6135 48.0975 39.5886 48.1879 39.5659C48.2784 39.5433 48.3694 39.5229 48.4609 39.5047C48.5524 39.4865 48.6443 39.4705 48.7365 39.4568C48.8288 39.4431 48.9213 39.4317 49.0142 39.4226C49.107 39.4134 49.2 39.4066 49.2932 39.402C49.3863 39.3974 49.4796 39.3951 49.5728 39.3951C49.6661 39.3951 49.7593 39.3974 49.8525 39.402C49.9457 39.4066 50.0387 39.4134 50.1315 39.4226C50.2243 39.4317 50.3169 39.4431 50.4091 39.4568C50.5014 39.4705 50.5933 39.4865 50.6848 39.5047C50.7763 39.5229 50.8672 39.5433 50.9577 39.5659C51.0482 39.5886 51.1381 39.6135 51.2273 39.6406C51.3166 39.6676 51.4051 39.6969 51.493 39.7283C51.5808 39.7597 51.6678 39.7933 51.754 39.829C51.8402 39.8647 51.9254 39.9025 52.0097 39.9424C52.0941 39.9822 52.1773 40.0242 52.2596 40.0681C52.3419 40.1121 52.423 40.1581 52.503 40.206C52.583 40.254 52.6618 40.3039 52.7394 40.3557C52.8169 40.4075 52.8932 40.4612 52.9681 40.5168C53.043 40.5723 53.1165 40.6297 53.1886 40.6889C53.2607 40.7481 53.3313 40.809 53.4005 40.8716C53.4696 40.9343 53.5371 40.9986 53.6031 41.0645C53.669 41.1305 53.7333 41.198 53.796 41.2671C53.8586 41.3362 53.9195 41.4068 53.9787 41.479C54.0379 41.5511 54.0952 41.6246 54.1508 41.6995C54.2064 41.7744 54.2601 41.8507 54.3119 41.9282C54.3637 42.0058 54.4136 42.0846 54.4616 42.1646C54.5095 42.2446 54.5555 42.3257 54.5994 42.408C54.6434 42.4902 54.6853 42.5735 54.7252 42.6579C54.7651 42.7422 54.8029 42.8274 54.8386 42.9136C54.8743 42.9998 54.9078 43.0868 54.9393 43.1746C54.9707 43.2624 54.9999 43.351 55.027 43.4402C55.0541 43.5295 55.079 43.6194 55.1016 43.7099C55.1243 43.8003 55.1447 43.8913 55.1629 43.9828C55.1811 44.0743 55.1971 44.1662 55.2108 44.2584C55.2244 44.3507 55.2359 44.4433 55.245 44.5361C55.2541 44.6289 55.261 44.7219 55.2656 44.8151C55.2702 44.9082 55.2724 45.0015 55.2724 45.0947C55.2724 45.188 55.2702 45.2812 55.2656 45.3744C55.261 45.4676 55.2541 45.5606 55.245 45.6534C55.2359 45.7462 55.2244 45.8388 55.2108 45.9311C55.1971 46.0233 55.1811 46.1152 55.1629 46.2067C55.1447 46.2982 55.1243 46.3892 55.1016 46.4796C55.079 46.5701 55.0541 46.66 55.027 46.7493C54.9999 46.8385 54.9707 46.9271 54.9393 47.0149C54.9078 47.1027 54.8743 47.1897 54.8386 47.2759C54.8029 47.3621 54.7651 47.4473 54.7252 47.5316C54.6853 47.616 54.6434 47.6993 54.5994 47.7815C54.5555 47.8638 54.5095 47.9449 54.4616 48.0249C54.4136 48.1049 54.3637 48.1837 54.3119 48.2613C54.2601 48.3388 54.2064 48.4151 54.1508 48.49C54.0952 48.5649 54.0379 48.6384 53.9787 48.7105C53.9195 48.7826 53.8586 48.8533 53.796 48.9224C53.7333 48.9915 53.669 49.059 53.6031 49.125C53.5371 49.1909 53.4696 49.2552 53.4005 49.3179C53.3313 49.3805 53.2607 49.4414 53.1886 49.5006C53.1165 49.5598 53.043 49.6171 52.9681 49.6727C52.8932 49.7283 52.8169 49.782 52.7394 49.8338C52.6618 49.8856 52.583 49.9355 52.503 49.9835C52.423 50.0314 52.3419 50.0774 52.2596 50.1214C52.1773 50.1653 52.0941 50.2073 52.0097 50.2471C51.9254 50.287 51.8402 50.3248 51.754 50.3605C51.6678 50.3962 51.5808 50.4298 51.493 50.4612C51.4051 50.4926 51.3166 50.5219 51.2273 50.5489C51.1381 50.576 51.0482 50.6009 50.9577 50.6236C50.8672 50.6462 50.7763 50.6666 50.6848 50.6848C50.5933 50.703 50.5014 50.719 50.4091 50.7327C50.3169 50.7464 50.2243 50.7578 50.1315 50.7669C50.0387 50.7761 49.9457 50.7829 49.8525 50.7875C49.7593 50.7921 49.6661 50.7944 49.5728 50.7944L49.5728 50.7944C49.4796 50.7944 49.3863 50.7921 49.2932 50.7875Z" fill-rule="nonzero" stroke="rgb(245,185,32)" stroke-width="0.5" />
		</g>
	</g>
</svg>
