<svg viewBox="0 0 24 24" xmlns="http://www.w3.org/2000/svg" xmlns:xlink="http://www.w3.org/1999/xlink" width="24" height="24" fill="none" customFrame="#000000">
	<rect id="名称=密码管理,选中=否" width="24" height="24" x="0" y="0" fill="rgb(255,255,255)" fill-opacity="0" />
	<path id="合并" d="M8.71591 10.4732L18.0852 10.4732C19.4134 10.4732 20.5 11.4275 20.5 12.5938L20.5 19.3795C20.5 20.5458 19.4134 21.5 18.0852 21.5L5.91477 21.5C4.58665 21.5 3.5 20.5458 3.5 19.3795L3.5 12.5938C3.5 11.4275 4.58665 10.4732 5.91477 10.4732L6.97727 10.4732L6.97727 6.90902C6.97727 4.47379 9.22663 2.5 12 2.5C14.7734 2.5 17.0227 4.47379 17.0227 6.90902L17.0227 8.18303C17.0227 8.60465 16.6335 8.94643 16.1534 8.94643C15.6733 8.94643 15.2841 8.60465 15.2841 8.18303L15.2841 6.91071C15.2841 5.31796 13.8138 4.02679 12 4.02679C10.1862 4.02679 8.71591 5.31796 8.71591 6.91071L8.71591 10.4732ZM18.7614 18.9129C18.7594 19.4978 18.22 19.9715 17.554 19.9732L6.44602 19.9732C5.78003 19.9715 5.24063 19.4978 5.23864 18.9129L5.23864 13.0603C5.24063 12.4754 5.78003 12.0017 6.44602 12L17.554 12C18.22 12.0017 18.7594 12.4754 18.7614 13.0603L18.7614 18.9129ZM9.58508 14.2892Q10.0759 14.2892 10.2896 14.5325Q10.4544 14.7202 10.4544 15.0526L10.4544 16.9186C10.4544 17.4276 10.1646 17.682 9.58508 17.682C9.00554 17.682 8.71576 17.4276 8.71576 16.9186L8.71576 15.0526Q8.71576 14.7202 8.88056 14.5325Q9.09426 14.2892 9.58508 14.2892ZM15.1192 14.5325Q14.9055 14.2892 14.4147 14.2892Q13.9239 14.2892 13.7101 14.5325Q13.5454 14.7202 13.5454 15.0526L13.5454 16.9186C13.5454 17.4276 13.8351 17.682 14.4147 17.682C14.9942 17.682 15.284 17.4276 15.284 16.9186L15.284 15.0526Q15.284 14.7202 15.1192 14.5325Z" fill="rgb(80,81,82)" fill-rule="evenodd" />
</svg>
