<svg viewBox="0 0 70 70" xmlns="http://www.w3.org/2000/svg" xmlns:xlink="http://www.w3.org/1999/xlink" width="70" height="70" fill="none" customFrame="#000000">
	<defs>
		<linearGradient id="paint_linear_116" x1="0.999995649" x2="56.9999886" y1="34.9999924" y2="35.0000153" gradientUnits="userSpaceOnUse">
			<stop stop-color="rgb(255,52,52)" offset="0" stop-opacity="1" />
			<stop stop-color="rgb(255,94,94)" offset="1" stop-opacity="1" />
		</linearGradient>
		<g id="pixso_custom_effect_37">
			<effect visibility="visible" effectType="backgroundBlur" saturation="0" stdDeviation="17.125164" />
		</g>
		<filter id="filter_37" width="33.2474365" height="33.2473907" x="36.3762817" y="29.3763123" filterUnits="userSpaceOnUse" customEffect="url(#pixso_custom_effect_37)" color-interpolation-filters="sRGB">
			<feFlood flood-opacity="0" result="BackgroundImageFix" />
			<feGaussianBlur stdDeviation="5.70838785" in="BackgroundImage" />
			<feComposite result="effect_backgroundBlur_1" in2="SourceAlpha" operator="in" />
			<feBlend result="shape" in="SourceGraphic" in2="effect_backgroundBlur_1" mode="normal" />
		</filter>
		<linearGradient id="paint_linear_117" x1="44.1186066" x2="63.4968834" y1="36.4108047" y2="55.9759903" gradientUnits="userSpaceOnUse">
			<stop stop-color="rgb(255,255,255)" offset="0" stop-opacity="0" />
			<stop stop-color="rgb(255,255,255)" offset="1" stop-opacity="1" />
		</linearGradient>
	</defs>
	<rect id="名称=存款 " width="70" height="70" x="0" y="0" fill="rgb(255,255,255)" fill-opacity="0" />
	<g id="组合 1874">
		<path id="形状" d="M51 14C54.3137 14 57 16.6863 57 20L57 24L1 24L1 20C1 16.6863 3.68629 14 7 14L51 14ZM51 56C54.3137 56 57 53.3137 57 50L57 28L1 28L1 50C1 53.3137 3.68629 56 7 56L51 56ZM18.673 38.1752L20.4794 38.1752C20.5654 38.1752 20.6506 38.1835 20.735 38.2003C20.8194 38.2171 20.9014 38.242 20.9809 38.2749C21.0603 38.3078 21.1359 38.3482 21.2074 38.396C21.2789 38.4438 21.3451 38.4981 21.406 38.559Q21.4516 38.6046 21.4924 38.6542Q21.5331 38.7039 21.5689 38.7575C21.6167 38.8291 21.6571 38.9046 21.69 38.9841C21.723 39.0636 21.7478 39.1455 21.7646 39.2299C21.7814 39.3143 21.7898 39.3995 21.7898 39.4855C21.7898 39.5716 21.7814 39.6568 21.7646 39.7412C21.7478 39.8256 21.723 39.9075 21.69 39.987C21.6571 40.0665 21.6167 40.142 21.5689 40.2136C21.5211 40.2851 21.4668 40.3513 21.406 40.4121C21.3451 40.473 21.2789 40.5273 21.2074 40.5751C21.1359 40.6229 21.0603 40.6633 20.9809 40.6962C20.9014 40.7291 20.8194 40.754 20.735 40.7708C20.6506 40.7875 20.5654 40.7959 20.4794 40.7959L16.8103 40.7959L16.8103 42.8926L20.4794 42.8926C20.5654 42.8926 20.6506 42.901 20.735 42.9177C20.8194 42.9345 20.9014 42.9594 20.9809 42.9923C21.0603 43.0252 21.1359 43.0656 21.2074 43.1134C21.2789 43.1612 21.3451 43.2155 21.406 43.2764C21.4668 43.3372 21.5211 43.4034 21.5689 43.4749C21.6167 43.5465 21.6571 43.622 21.69 43.7015C21.723 43.781 21.7478 43.8629 21.7646 43.9473C21.7814 44.0317 21.7898 44.1169 21.7898 44.203C21.7898 44.289 21.7814 44.3742 21.7646 44.4586C21.7478 44.543 21.723 44.6249 21.69 44.7044C21.6571 44.7839 21.6167 44.8594 21.5689 44.931C21.5211 45.0025 21.4668 45.0687 21.406 45.1295C21.3451 45.1904 21.2789 45.2447 21.2074 45.2925C21.1359 45.3403 21.0603 45.3807 20.9809 45.4136C20.9014 45.4465 20.8194 45.4714 20.735 45.4882C20.6506 45.505 20.5654 45.5134 20.4794 45.5134L16.8103 45.5134L16.8103 49.4966C16.8103 49.5827 16.8019 49.6679 16.7851 49.7523C16.7683 49.8366 16.7435 49.9186 16.7105 49.9981C16.6776 50.0776 16.6372 50.1531 16.5894 50.2246C16.5416 50.2962 16.4873 50.3624 16.4265 50.4232C16.3656 50.484 16.2995 50.5384 16.2279 50.5862C16.1564 50.634 16.0809 50.6743 16.0014 50.7073C15.9219 50.7402 15.8399 50.765 15.7555 50.7818C15.6712 50.7986 15.5859 50.807 15.4999 50.807C15.4139 50.807 15.3286 50.7986 15.2443 50.7818C15.1599 50.765 15.0779 50.7402 14.9984 50.7073C14.9189 50.6743 14.8434 50.634 14.7719 50.5862C14.7003 50.5384 14.6341 50.484 14.5733 50.4232C14.5125 50.3624 14.4581 50.2962 14.4103 50.2246C14.3625 50.1531 14.3222 50.0776 14.2893 49.9981C14.2563 49.9186 14.2315 49.8366 14.2147 49.7523C14.1979 49.6679 14.1895 49.5827 14.1895 49.4966L14.1895 45.5134L10.5204 45.5134C10.4344 45.5134 10.3491 45.505 10.2648 45.4882C10.1804 45.4714 10.0984 45.4465 10.0189 45.4136C9.93945 45.3807 9.86393 45.3403 9.79239 45.2925C9.72085 45.2447 9.65466 45.1904 9.59382 45.1295C9.53298 45.0687 9.47866 45.0025 9.43085 44.931C9.38305 44.8594 9.34269 44.7839 9.30976 44.7044C9.27683 44.6249 9.25198 44.543 9.23519 44.4586C9.21841 44.3742 9.21001 44.289 9.21001 44.203Q9.21001 44.1385 9.2163 44.0746Q9.22259 44.0107 9.23519 43.9473C9.25198 43.8629 9.27683 43.781 9.30976 43.7015C9.34269 43.622 9.38305 43.5465 9.43085 43.4749C9.47866 43.4034 9.53298 43.3372 9.59382 43.2764Q9.63946 43.2307 9.68911 43.19Q9.73874 43.1493 9.79239 43.1134C9.86393 43.0656 9.93945 43.0252 10.0189 42.9923C10.0984 42.9594 10.1804 42.9345 10.2648 42.9177C10.3491 42.901 10.4344 42.8926 10.5204 42.8926L14.1895 42.8926L14.1895 40.7959L10.5204 40.7959C10.4344 40.7959 10.3491 40.7875 10.2648 40.7708C10.1804 40.754 10.0984 40.7291 10.0189 40.6962C9.93945 40.6633 9.86393 40.6229 9.79239 40.5751Q9.73874 40.5392 9.68911 40.4985Q9.63946 40.4578 9.59382 40.4121C9.53298 40.3513 9.47866 40.2851 9.43085 40.2136Q9.39498 40.1599 9.36469 40.1032Q9.33444 40.0466 9.30976 39.987C9.27683 39.9075 9.25198 39.8256 9.23519 39.7412C9.21841 39.6568 9.21001 39.5716 9.21001 39.4855Q9.21001 39.4211 9.2163 39.3572Q9.22259 39.2932 9.23519 39.2299C9.25198 39.1455 9.27683 39.0636 9.30976 38.9841C9.34269 38.9046 9.38305 38.8291 9.43085 38.7575C9.47866 38.686 9.53298 38.6198 9.59382 38.559Q9.63941 38.5134 9.68901 38.4727Q9.73869 38.4319 9.79239 38.396C9.86393 38.3482 9.93945 38.3078 10.0189 38.2749C10.0984 38.242 10.1804 38.2171 10.2648 38.2003C10.3491 38.1835 10.4344 38.1752 10.5204 38.1752L12.3523 38.1752L9.37742 35.2006C9.31759 35.1407 9.26417 35.0756 9.21716 35.0052C9.17016 34.9349 9.13046 34.8606 9.09809 34.7824C9.06571 34.7042 9.04126 34.6236 9.02476 34.5406C9.00825 34.4576 9 34.3738 9 34.2892Q9 34.2257 9.00619 34.1629Q9.01238 34.1 9.02476 34.0377C9.04126 33.9547 9.06571 33.8742 9.09809 33.796C9.13046 33.7178 9.17016 33.6435 9.21716 33.5731C9.26417 33.5028 9.31759 33.4377 9.37742 33.3778C9.43724 33.3179 9.50234 33.2645 9.5727 33.2174C9.64306 33.1704 9.71734 33.1307 9.79552 33.0983C9.87371 33.0659 9.95431 33.0414 10.0373 33.0249C10.1203 33.0084 10.2042 33.0001 10.2888 33.0001C10.3734 33.0001 10.4573 33.0084 10.5403 33.0249C10.6233 33.0414 10.7039 33.0659 10.7821 33.0983C10.8603 33.1307 10.9345 33.1704 11.0049 33.2174C11.0753 33.2645 11.1403 33.3179 11.2002 33.3778L15.4871 37.6648L19.7688 33.383Q19.8144 33.3375 19.8639 33.2968Q19.9134 33.2562 19.9669 33.2205C20.0382 33.1728 20.1135 33.1325 20.1928 33.0997C20.2721 33.0668 20.3538 33.042 20.438 33.0253C20.5222 33.0086 20.6072 33.0002 20.693 33.0002C20.7788 33.0002 20.8638 33.0086 20.948 33.0253C21.0321 33.042 21.1139 33.0668 21.1931 33.0997C21.2724 33.1325 21.3477 33.1728 21.4191 33.2205C21.4904 33.2682 21.5565 33.3224 21.6171 33.383C21.6778 33.4437 21.732 33.5097 21.7797 33.5811C21.8274 33.6524 21.8676 33.7278 21.9005 33.807C21.9333 33.8863 21.9581 33.968 21.9749 34.0522C21.9916 34.1364 22 34.2214 22 34.3072C22 34.393 21.9916 34.478 21.9749 34.5622C21.9581 34.6464 21.9333 34.7281 21.9005 34.8074C21.8676 34.8867 21.8274 34.962 21.7797 35.0333C21.732 35.1047 21.6778 35.1707 21.6171 35.2314L18.673 38.1752Z" fill="url(#paint_linear_116)" fill-rule="evenodd" />
		<g id="编组">
			<g filter="url(#filter_37)">
				<rect id="矩形" width="32" height="32" x="37" y="30" rx="16" fill="url(#paint_linear_117)" />
				<rect id="矩形" width="32" height="32" x="37" y="30" rx="16" stroke="rgb(255,255,255)" stroke-width="1.24740005" />
			</g>
			<path id="合并" d="M17.9998 4.51038C17.9999 4.50161 18 4.49284 18 4.48406C17.9999 4.3847 17.9894 4.2863 17.9686 4.18887C17.9478 4.09143 17.917 3.99684 17.8763 3.90508C17.8355 3.81332 17.7856 3.72617 17.7266 3.64361C17.6675 3.56106 17.6004 3.48469 17.5252 3.41451C17.45 3.34433 17.3683 3.28169 17.28 3.22658L12.5137 0.254145C12.4254 0.19903 12.3321 0.15251 12.234 0.114583C12.1359 0.0766557 12.0347 0.0480511 11.9306 0.028769C11.8265 0.00948694 11.7213 -0.000102183 11.6151 8.19564e-07C11.509 0.000105499 11.4038 0.00990031 11.2997 0.0293861C11.1956 0.0488719 11.0946 0.0776742 10.9965 0.115793C10.8985 0.153912 10.8054 0.200615 10.7172 0.255902C10.629 0.311189 10.5474 0.373998 10.4724 0.444329C10.3974 0.514659 10.3304 0.59116 10.2715 0.673832C10.2127 0.756503 10.163 0.843756 10.1224 0.935592Q10.0813 1.02874 10.0539 1.12576Q10.0407 1.17222 10.0307 1.21955C10.0101 1.31702 9.99989 1.41543 10 1.51479C10.0001 1.61415 10.0106 1.71254 10.0314 1.80997C10.0522 1.9074 10.083 2.002 10.1237 2.09375Q10.1378 2.12545 10.1533 2.15642L10.1533 2.15644Q10.2052 2.25991 10.2734 2.35522C10.3325 2.43777 10.3996 2.51414 10.4748 2.58433C10.5499 2.65451 10.6316 2.71716 10.72 2.77228L11.1391 3.03367L1.80412 3.03367C0.809278 3.03367 0 3.70653 0 4.53367C0 5.36081 0.809278 6.03367 1.80412 6.03367L16.201 6.03367C16.393 6.03367 16.5778 6.00862 16.7512 5.96224C16.8878 5.93279 17.0198 5.88609 17.1472 5.82216C17.3768 5.70695 17.5649 5.54916 17.7113 5.34879C17.894 5.11397 18 4.83399 18 4.53367C18 4.52589 17.9999 4.51813 17.9998 4.51038Z" fill="rgb(255,52,52)" fill-rule="evenodd" transform="matrix(-1,0,0,1,62,42)" />
		</g>
	</g>
</svg>
