<svg viewBox="0 0 24 24" xmlns="http://www.w3.org/2000/svg" xmlns:xlink="http://www.w3.org/1999/xlink" width="24" height="24" fill="none" customFrame="#000000">
	<rect id="名称=签约解约,选中=是" width="24" height="24" x="0" y="0" fill="rgb(255,255,255)" fill-opacity="0" />
	<path id="合并" d="M4.5 21L10.533 21C10.9623 21.5686 11.4698 22.0736 12.0405 22.5L4.5 22.5C2.84315 22.5 1.5 21.1569 1.5 19.5L1.5 4.5C1.5 2.84315 2.84315 1.5 4.5 1.5L18 1.5C19.6569 1.5 21 2.84315 21 4.5L21 10.5345C20.5335 10.182 20.04 9.87 19.5 9.633L19.5 4.5C19.5 3.67157 18.8284 3 18 3L4.5 3C3.67157 3 3 3.67157 3 4.5L3 19.5C3 20.3284 3.67157 21 4.5 21ZM16.5 7.5C16.5 7.08579 16.1642 6.75 15.75 6.75L6.75 6.75C6.33579 6.75 6 7.08579 6 7.5C6 7.91421 6.33579 8.25 6.75 8.25L15.75 8.25C16.1642 8.25 16.5 7.91421 16.5 7.5ZM10.5 10.5C10.9142 10.5 11.25 10.8358 11.25 11.25C11.25 11.6642 10.9142 12 10.5 12L6.75 12C6.33579 12 6 11.6642 6 11.25C6 10.8358 6.33579 10.5 6.75 10.5L10.5 10.5ZM10.5 16.5C10.5 13.1863 13.1863 10.5 16.5 10.5C19.8137 10.5 22.5 13.1863 22.5 16.5C22.5 19.8137 19.8137 22.5 16.5 22.5C13.1863 22.5 10.5 19.8137 10.5 16.5ZM12.0022 16.4993C12.0022 18.9833 14.016 20.997 16.5 20.997C18.984 20.997 20.9977 18.9833 20.9977 16.4993C20.9977 14.0152 18.984 12.0015 16.5 12.0015C14.016 12.0015 12.0022 14.0152 12.0022 16.4993ZM16.5 13.5L17.4885 15.3855L19.5 15.792L18.099 17.3625L18.354 19.5L16.5 18.5865L14.646 19.5L14.901 17.3625L13.5 15.792L15.5115 15.3855L16.5 13.5ZM6.75 14.25C6.33579 14.25 6 14.5858 6 15C6 15.4142 6.33579 15.75 6.75 15.75L8.25 15.75C8.66421 15.75 9 15.4142 9 15C9 14.5858 8.66421 14.25 8.25 14.25L6.75 14.25Z" fill="rgb(0,174,120)" fill-rule="evenodd" />
</svg>
