<svg viewBox="0 0 24 24" xmlns="http://www.w3.org/2000/svg" xmlns:xlink="http://www.w3.org/1999/xlink" width="24" height="24" fill="none" customFrame="#000000">
	<rect id="名称=社保卡业务,选中=是" width="24" height="24" x="0" y="0" fill="rgb(255,255,255)" fill-opacity="0" />
	<path id="合并" d="M20.2336 3.5L3.76654 3.5C2.24298 3.5 1 4.84896 1 6.50596L1 17.4941C1 19.151 2.24301 20.5 3.76654 20.5L20.2336 20.5C21.757 20.5 23 19.151 23 17.4941L23 6.50596C23 4.84896 21.757 3.5 20.2336 3.5ZM21.9605 8.01415L1.95149 8.01415L1.95149 6.37313C1.95149 5.36412 2.69941 4.54617 3.62352 4.54617L20.283 4.54617C21.207 4.54617 21.9551 5.36412 21.9551 6.37313L21.9605 8.01415ZM20.2886 19.4591C21.2126 19.4591 21.9605 18.6412 21.9605 17.6321L21.9661 9.10291L1.95706 9.10291L1.95706 17.6321C1.95706 18.6412 2.70502 19.4591 3.62902 19.4591L20.2886 19.4591ZM8.05791 12.8191L9.09625 12.5326C8.81907 11.4633 8.00831 10.919 6.66353 10.8998C5.18019 10.9382 4.40885 11.492 4.34951 12.5613C4.29017 13.4207 5.06151 14.0034 6.66353 14.3087C7.77092 14.5191 8.28499 14.8436 8.2062 15.2827C8.2062 15.8749 7.75101 16.1707 6.84151 16.1707C5.8129 16.2092 5.24923 15.7889 5.1505 14.9103L4.14181 15.1968C4.41856 16.4765 5.32852 17.0874 6.8712 17.0301C8.41391 16.9917 9.2149 16.4192 9.27424 15.3114C9.31363 14.3374 8.49269 13.6977 6.81186 13.392C5.8032 13.2201 5.33826 12.9435 5.41751 12.5613C5.43699 12.0268 5.86254 11.7592 6.69321 11.7592C7.42469 11.7404 7.87992 12.0935 8.05791 12.8191ZM10.3126 11.0143L11.351 11.0143L11.351 16.1135L14.4363 16.1135L14.4363 16.9442L10.3126 16.9442L10.3126 11.0143ZM19.7276 13.4419L17.984 13.4419C17.7035 13.4419 17.4781 13.6861 17.4781 13.9835C17.4781 14.2863 17.7035 14.5306 17.984 14.5306L19.7276 14.5306C20.008 14.5306 20.2336 14.2863 20.2336 13.9835C20.2336 13.6861 20.0026 13.4419 19.7276 13.4419ZM17.984 15.4016L19.7276 15.4016C20.0026 15.4016 20.2336 15.6459 20.2336 15.9433C20.2336 16.2407 20.008 16.4849 19.7276 16.4849L17.984 16.4849C17.7035 16.4849 17.4781 16.246 17.4781 15.9433C17.4781 15.6459 17.7035 15.4016 17.984 15.4016Z" fill="rgb(0,174,120)" fill-rule="evenodd" />
	<path id="合并" d="M20.2336 3.5L3.76654 3.5C2.24298 3.5 1 4.84896 1 6.50596L1 17.4941C1 19.151 2.24301 20.5 3.76654 20.5L20.2336 20.5C21.757 20.5 23 19.151 23 17.4941L23 6.50596C23 4.84896 21.757 3.5 20.2336 3.5ZM21.9605 8.01415L1.95149 8.01415L1.95149 6.37313C1.95149 5.36412 2.69941 4.54617 3.62352 4.54617L20.283 4.54617C21.207 4.54617 21.9551 5.36412 21.9551 6.37313L21.9605 8.01415ZM20.2886 19.4591C21.2126 19.4591 21.9605 18.6412 21.9605 17.6321L21.9661 9.10291L1.95706 9.10291L1.95706 17.6321C1.95706 18.6412 2.70502 19.4591 3.62902 19.4591L20.2886 19.4591ZM8.05791 12.8191L9.09625 12.5326C8.81907 11.4633 8.00831 10.919 6.66353 10.8998C5.18019 10.9382 4.40885 11.492 4.34951 12.5613C4.29017 13.4207 5.06151 14.0034 6.66353 14.3087C7.77092 14.5191 8.28499 14.8436 8.2062 15.2827C8.2062 15.8749 7.75101 16.1707 6.84151 16.1707C5.8129 16.2092 5.24923 15.7889 5.1505 14.9103L4.14181 15.1968C4.41856 16.4765 5.32852 17.0874 6.8712 17.0301C8.41391 16.9917 9.2149 16.4192 9.27424 15.3114C9.31363 14.3374 8.49269 13.6977 6.81186 13.392C5.8032 13.2201 5.33826 12.9435 5.41751 12.5613C5.43699 12.0268 5.86254 11.7592 6.69321 11.7592C7.42469 11.7404 7.87992 12.0935 8.05791 12.8191ZM10.3126 11.0143L11.351 11.0143L11.351 16.1135L14.4363 16.1135L14.4363 16.9442L10.3126 16.9442L10.3126 11.0143ZM19.7276 13.4419L17.984 13.4419C17.7035 13.4419 17.4781 13.6861 17.4781 13.9835C17.4781 14.2863 17.7035 14.5306 17.984 14.5306L19.7276 14.5306C20.008 14.5306 20.2336 14.2863 20.2336 13.9835C20.2336 13.6861 20.0026 13.4419 19.7276 13.4419ZM17.984 15.4016L19.7276 15.4016C20.0026 15.4016 20.2336 15.6459 20.2336 15.9433C20.2336 16.2407 20.008 16.4849 19.7276 16.4849L17.984 16.4849C17.7035 16.4849 17.4781 16.246 17.4781 15.9433C17.4781 15.6459 17.7035 15.4016 17.984 15.4016Z" fill-rule="evenodd" stroke="rgb(0,174,120)" stroke-width="0.300000012" />
</svg>
