<svg viewBox="0 0 24 24" xmlns="http://www.w3.org/2000/svg" xmlns:xlink="http://www.w3.org/1999/xlink" width="24" height="24" fill="none" customFrame="#000000">
	<rect id="名称=基金理财,选中=是" width="24" height="24" x="0" y="0" fill="rgb(255,255,255)" fill-opacity="0" />
	<path id="合并" d="M12 23C5.9346 23 1 18.0655 1 12C1 5.9346 5.9346 1 12 1C18.0655 1 23 5.9346 23 12C23 18.0655 18.0655 23 12 23ZM12 3.0625C7.07186 3.0625 3.0625 7.07186 3.0625 12C3.0625 16.9282 7.07186 20.9375 12 20.9375C16.9282 20.9375 20.9375 16.9282 20.9375 12C20.9375 7.07186 16.9282 3.0625 12 3.0625ZM6.7497 12L12 17.2503L17.2503 12L12 6.74973L6.7497 12ZM12 14.528L9.47206 12L12 9.4721L14.5279 12L12 14.528Z" fill="rgb(0,174,120)" fill-rule="evenodd" />
	<path id="合并" d="M12 23C5.9346 23 1 18.0655 1 12C1 5.9346 5.9346 1 12 1C18.0655 1 23 5.9346 23 12C23 18.0655 18.0655 23 12 23ZM12 3.0625C7.07186 3.0625 3.0625 7.07186 3.0625 12C3.0625 16.9282 7.07186 20.9375 12 20.9375C16.9282 20.9375 20.9375 16.9282 20.9375 12C20.9375 7.07186 16.9282 3.0625 12 3.0625ZM6.7497 12L12 17.2503L17.2503 12L12 6.74973L6.7497 12ZM12 14.528L9.47206 12L12 9.4721L14.5279 12L12 14.528Z" fill-rule="evenodd" stroke="rgb(255,255,255)" stroke-width="0.400000006" />
</svg>
