<svg viewBox="0 0 24 24" xmlns="http://www.w3.org/2000/svg" xmlns:xlink="http://www.w3.org/1999/xlink" width="24" height="24" fill="none" customFrame="#000000">
	<rect id="名称=信用卡,选中=否" width="24" height="24" x="0" y="0" fill="rgb(255,255,255)" fill-opacity="0" />
	<path id="合并" d="M20.6429 3.5L3.35714 3.5C2.02143 3.5 1 4.50455 1 5.81818L1 18.1818C1 19.4955 2.02143 20.5 3.35714 20.5L20.6429 20.5C21.9786 20.5 23 19.4955 23 18.1818L23 5.81818C23 4.50455 21.9786 3.5 20.6429 3.5ZM2.57143 8.13636L21.4286 8.13636L21.4286 5.81818C21.4286 5.35455 21.1143 5.04545 20.6429 5.04545L3.35714 5.04545C2.88571 5.04545 2.57143 5.35455 2.57143 5.81818L2.57143 8.13636ZM21.4286 18.1818C21.4286 18.6455 21.1143 18.9545 20.6429 18.9545L3.35714 18.9545C2.88571 18.9545 2.57143 18.6455 2.57143 18.1818L2.57143 9.68182L21.4286 9.68182L21.4286 18.1818ZM8.07143 15.8635L4.92857 15.8635C4.45714 15.8635 4.14286 15.5545 4.14286 15.0908C4.14286 14.6272 4.45714 14.3181 4.92857 14.3181L8.07143 14.3181C8.54286 14.3181 8.85714 14.6272 8.85714 15.0908C8.85714 15.5545 8.54286 15.8635 8.07143 15.8635Z" fill="rgb(80,81,82)" fill-rule="evenodd" />
</svg>
