<svg viewBox="0 0 70 70" xmlns="http://www.w3.org/2000/svg" xmlns:xlink="http://www.w3.org/1999/xlink" width="70" height="70" fill="none" customFrame="#000000">
	<defs>
		<linearGradient id="paint_linear_110" x1="56.9999924" x2="0.999992371" y1="35.295784" y2="35.2957382" gradientUnits="userSpaceOnUse">
			<stop stop-color="rgb(41,204,152)" offset="0" stop-opacity="1" />
			<stop stop-color="rgb(0,224,152)" offset="1" stop-opacity="1" />
		</linearGradient>
		<g id="pixso_custom_effect_34">
			<effect visibility="visible" effectType="backgroundBlur" saturation="0" stdDeviation="17.125164" />
		</g>
		<filter id="filter_34" width="33.2474365" height="33.2473907" x="36.3762817" y="29.3763123" filterUnits="userSpaceOnUse" customEffect="url(#pixso_custom_effect_34)" color-interpolation-filters="sRGB">
			<feFlood flood-opacity="0" result="BackgroundImageFix" />
			<feGaussianBlur stdDeviation="5.70838785" in="BackgroundImage" />
			<feComposite result="effect_backgroundBlur_1" in2="SourceAlpha" operator="in" />
			<feBlend result="shape" in="SourceGraphic" in2="effect_backgroundBlur_1" mode="normal" />
		</filter>
		<linearGradient id="paint_linear_111" x1="37.0000038" x2="63.4968872" y1="29.9999962" y2="55.9759903" gradientUnits="userSpaceOnUse">
			<stop stop-color="rgb(255,255,255)" offset="0" stop-opacity="0" />
			<stop stop-color="rgb(255,255,255)" offset="1" stop-opacity="1" />
		</linearGradient>
	</defs>
	<rect id="名称=取款" width="70" height="70" x="0" y="0" fill="rgb(255,255,255)" fill-opacity="0" />
	<g id="组合 1874">
		<path id="形状" d="M51 14C54.3137 14 57 16.6863 57 20L57 24L1 24L1 20C1 16.6863 3.68629 14 7 14L51 14ZM51 56C54.3137 56 57 53.3137 57 50L57 28L1 28L1 50C1 53.3137 3.68629 56 7 56L51 56ZM18.673 39.1752L20.4794 39.1752C20.5654 39.1752 20.6506 39.1835 20.735 39.2003C20.8194 39.2171 20.9014 39.242 20.9809 39.2749C21.0603 39.3078 21.1359 39.3482 21.2074 39.396C21.2789 39.4438 21.3451 39.4981 21.406 39.559Q21.4516 39.6046 21.4924 39.6542Q21.5331 39.7039 21.5689 39.7575C21.6167 39.8291 21.6571 39.9046 21.69 39.9841C21.723 40.0636 21.7478 40.1455 21.7646 40.2299C21.7814 40.3143 21.7898 40.3995 21.7898 40.4855C21.7898 40.5716 21.7814 40.6568 21.7646 40.7412C21.7478 40.8256 21.723 40.9075 21.69 40.987C21.6571 41.0665 21.6167 41.142 21.5689 41.2136C21.5211 41.2851 21.4668 41.3513 21.406 41.4121C21.3451 41.473 21.2789 41.5273 21.2074 41.5751C21.1359 41.6229 21.0603 41.6633 20.9809 41.6962C20.9014 41.7291 20.8194 41.754 20.735 41.7708C20.6506 41.7875 20.5654 41.7959 20.4794 41.7959L16.8103 41.7959L16.8103 43.8926L20.4794 43.8926C20.5654 43.8926 20.6506 43.901 20.735 43.9177C20.8194 43.9345 20.9014 43.9594 20.9809 43.9923C21.0603 44.0252 21.1359 44.0656 21.2074 44.1134C21.2789 44.1612 21.3451 44.2155 21.406 44.2764C21.4668 44.3372 21.5211 44.4034 21.5689 44.4749C21.6167 44.5465 21.6571 44.622 21.69 44.7015C21.723 44.781 21.7478 44.8629 21.7646 44.9473C21.7814 45.0317 21.7898 45.1169 21.7898 45.203C21.7898 45.289 21.7814 45.3742 21.7646 45.4586C21.7478 45.543 21.723 45.6249 21.69 45.7044C21.6571 45.7839 21.6167 45.8594 21.5689 45.931C21.5211 46.0025 21.4668 46.0687 21.406 46.1295C21.3451 46.1904 21.2789 46.2447 21.2074 46.2925C21.1359 46.3403 21.0603 46.3807 20.9809 46.4136C20.9014 46.4465 20.8194 46.4714 20.735 46.4882C20.6506 46.505 20.5654 46.5134 20.4794 46.5134L16.8103 46.5134L16.8103 50.4966C16.8103 50.5827 16.8019 50.6679 16.7851 50.7523C16.7683 50.8366 16.7435 50.9186 16.7105 50.9981C16.6776 51.0776 16.6372 51.1531 16.5894 51.2246C16.5416 51.2962 16.4873 51.3624 16.4265 51.4232C16.3656 51.484 16.2995 51.5384 16.2279 51.5862C16.1564 51.634 16.0809 51.6743 16.0014 51.7073C15.9219 51.7402 15.8399 51.765 15.7555 51.7818C15.6712 51.7986 15.5859 51.807 15.4999 51.807C15.4139 51.807 15.3286 51.7986 15.2443 51.7818C15.1599 51.765 15.0779 51.7402 14.9984 51.7073C14.9189 51.6743 14.8434 51.634 14.7719 51.5862C14.7003 51.5384 14.6341 51.484 14.5733 51.4232C14.5125 51.3624 14.4581 51.2962 14.4103 51.2246C14.3625 51.1531 14.3222 51.0776 14.2893 50.9981C14.2563 50.9186 14.2315 50.8366 14.2147 50.7523C14.1979 50.6679 14.1895 50.5827 14.1895 50.4966L14.1895 46.5134L10.5204 46.5134C10.4344 46.5134 10.3491 46.505 10.2648 46.4882C10.1804 46.4714 10.0984 46.4465 10.0189 46.4136C9.93945 46.3807 9.86393 46.3403 9.79239 46.2925Q9.73859 46.2566 9.68882 46.2157Q9.63932 46.175 9.59382 46.1295C9.53298 46.0687 9.47866 46.0025 9.43085 45.931C9.38305 45.8594 9.34269 45.7839 9.30976 45.7044C9.27683 45.6249 9.25198 45.543 9.23519 45.4586C9.21841 45.3742 9.21001 45.289 9.21001 45.203Q9.21001 45.1385 9.2163 45.0746Q9.22259 45.0107 9.23519 44.9473C9.25198 44.8629 9.27683 44.781 9.30976 44.7015C9.34269 44.622 9.38305 44.5465 9.43085 44.4749C9.47866 44.4034 9.53298 44.3372 9.59382 44.2764Q9.63946 44.2307 9.68911 44.19Q9.73874 44.1493 9.79239 44.1134C9.86393 44.0656 9.93945 44.0252 10.0189 43.9923C10.0984 43.9594 10.1804 43.9345 10.2648 43.9177C10.3491 43.901 10.4344 43.8926 10.5204 43.8926L14.1895 43.8926L14.1895 41.7959L10.5204 41.7959C10.4344 41.7959 10.3491 41.7875 10.2648 41.7708C10.1804 41.754 10.0984 41.7291 10.0189 41.6962C9.93945 41.6633 9.86393 41.6229 9.79239 41.5751Q9.73874 41.5392 9.68911 41.4985Q9.63946 41.4578 9.59382 41.4121C9.53298 41.3513 9.47866 41.2851 9.43085 41.2136Q9.39498 41.1599 9.36469 41.1032Q9.33444 41.0466 9.30976 40.987C9.27683 40.9075 9.25198 40.8256 9.23519 40.7412C9.21841 40.6568 9.21001 40.5716 9.21001 40.4855Q9.21001 40.4211 9.2163 40.3572Q9.22259 40.2932 9.23519 40.2299C9.25198 40.1455 9.27683 40.0636 9.30976 39.9841C9.34269 39.9046 9.38305 39.8291 9.43085 39.7575C9.47866 39.686 9.53298 39.6198 9.59382 39.559Q9.63941 39.5134 9.68901 39.4727Q9.73869 39.4319 9.79239 39.396C9.86393 39.3482 9.93945 39.3078 10.0189 39.2749C10.0984 39.242 10.1804 39.2171 10.2648 39.2003C10.3491 39.1835 10.4344 39.1752 10.5204 39.1752L12.3523 39.1752L9.37742 36.2006C9.31759 36.1407 9.26417 36.0756 9.21716 36.0052C9.17016 35.9349 9.13046 35.8606 9.09809 35.7824C9.06571 35.7042 9.04126 35.6236 9.02476 35.5406C9.00825 35.4576 9 35.3738 9 35.2892Q9 35.2257 9.00619 35.1629Q9.01238 35.1 9.02476 35.0377C9.04126 34.9547 9.06571 34.8742 9.09809 34.796C9.13046 34.7178 9.17016 34.6435 9.21716 34.5731C9.26417 34.5028 9.31759 34.4377 9.37742 34.3778C9.43724 34.3179 9.50234 34.2645 9.5727 34.2174C9.64306 34.1704 9.71734 34.1307 9.79552 34.0983C9.87371 34.0659 9.95431 34.0414 10.0373 34.0249C10.1203 34.0084 10.2042 34.0001 10.2888 34.0001C10.3734 34.0001 10.4573 34.0084 10.5403 34.0249C10.6233 34.0414 10.7039 34.0659 10.7821 34.0983C10.8603 34.1307 10.9345 34.1704 11.0049 34.2174C11.0753 34.2645 11.1403 34.3179 11.2002 34.3778L15.4871 38.6648L19.7688 34.383Q19.8144 34.3375 19.8639 34.2968Q19.9134 34.2562 19.9669 34.2205C20.0382 34.1728 20.1135 34.1325 20.1928 34.0997C20.2721 34.0668 20.3538 34.042 20.438 34.0253C20.5222 34.0086 20.6072 34.0002 20.693 34.0002C20.7788 34.0002 20.8638 34.0086 20.948 34.0253C21.0321 34.042 21.1139 34.0668 21.1931 34.0997C21.2724 34.1325 21.3477 34.1728 21.4191 34.2205C21.4904 34.2682 21.5565 34.3224 21.6171 34.383C21.6778 34.4437 21.732 34.5097 21.7797 34.5811C21.8274 34.6524 21.8676 34.7278 21.9005 34.807C21.9333 34.8863 21.9581 34.968 21.9749 35.0522C21.9916 35.1364 22 35.2214 22 35.3072C22 35.393 21.9916 35.478 21.9749 35.5622C21.9581 35.6464 21.9333 35.7281 21.9005 35.8074C21.8676 35.8867 21.8274 35.962 21.7797 36.0333C21.732 36.1047 21.6778 36.1707 21.6171 36.2314L18.673 39.1752Z" fill="url(#paint_linear_110)" fill-rule="evenodd" />
		<g id="编组">
			<g filter="url(#filter_34)">
				<rect id="矩形" width="32" height="32" x="37" y="30" rx="16" fill="url(#paint_linear_111)" />
				<rect id="矩形" width="32" height="32" x="37" y="30" rx="16" stroke="rgb(255,255,255)" stroke-width="1.24740005" />
			</g>
			<path id="合并" d="M5.76025 12.2081L5.77344 12.2216L5.75822 12.2064C5.7589 12.207 5.75958 12.2075 5.76025 12.2081ZM5.76025 12.2081C6.30302 12.6478 7.08304 12.6472 7.62521 12.2064C8.07673 11.6433 8.07673 10.8366 7.62521 10.2735L3.73904 6.27063L7.62521 2.26778C8.07673 1.70464 8.07673 0.897978 7.62521 0.334839C7.08236 -0.111613 6.30107 -0.111613 5.75822 0.334839L0 6.28078L5.76025 12.2081ZM13.7944 12.2216L8.03615 6.28078L13.7944 0.334839C14.3372 -0.111613 15.1185 -0.111613 15.6614 0.334839C16.1129 0.897978 16.1129 1.70464 15.6614 2.26778L11.7752 6.27063L15.6614 10.2735C16.1129 10.8366 16.1129 11.6433 15.6614 12.2064C15.1185 12.6478 14.3372 12.6478 13.7944 12.2064L13.7944 12.2216Z" opacity="0" fill="rgb(0,174,120)" fill-rule="evenodd" transform="matrix(-1,0,0,1,61,39)" />
			<path id="合并" d="M61.9998 47.3104C61.9999 47.3017 62 47.2929 62 47.2841C61.9999 47.1847 61.9894 47.0863 61.9686 46.9889C61.9478 46.8915 61.917 46.7969 61.8763 46.7051C61.8355 46.6134 61.7856 46.5262 61.7266 46.4437C61.6675 46.3611 61.6004 46.2847 61.5252 46.2146C61.4501 46.1444 61.3683 46.0817 61.28 46.0266L56.5137 43.0542C56.4254 42.9991 56.3321 42.9526 56.234 42.9146C56.1359 42.8767 56.0347 42.8481 55.9306 42.8288C55.8265 42.8095 55.7213 42.7999 55.6151 42.8C55.509 42.8002 55.4038 42.8099 55.2997 42.8294C55.1956 42.8489 55.0946 42.8777 54.9965 42.9158C54.8985 42.954 54.8054 43.0007 54.7172 43.056C54.629 43.1112 54.5474 43.174 54.4724 43.2444C54.3974 43.3147 54.3304 43.3912 54.2715 43.4739C54.2127 43.5566 54.163 43.6438 54.1224 43.7356Q54.0813 43.8288 54.0539 43.9258Q54.0407 43.9723 54.0307 44.0196C54.0101 44.1171 53.9999 44.2155 54 44.3148C54.0001 44.4142 54.0106 44.5126 54.0314 44.61C54.0522 44.7075 54.083 44.802 54.1237 44.8938Q54.1378 44.9255 54.1533 44.9565L54.1533 44.9565Q54.2052 45.06 54.2734 45.1553C54.3325 45.2378 54.3996 45.3142 54.4748 45.3844C54.5499 45.4546 54.6316 45.5172 54.72 45.5723L55.1391 45.8337L45.8041 45.8337C44.8093 45.8337 44 46.5066 44 47.3337C44 48.1609 44.8093 48.8337 45.8041 48.8337L60.201 48.8337C60.393 48.8337 60.5779 48.8087 60.7512 48.7623C60.8878 48.7328 61.0198 48.6861 61.1472 48.6222C61.3768 48.507 61.5649 48.3492 61.7113 48.1488C61.894 47.914 62 47.634 62 47.3337C62 47.3259 61.9999 47.3182 61.9998 47.3104Z" fill="rgb(40,199,148)" fill-rule="evenodd" />
		</g>
	</g>
</svg>
