<svg viewBox="0 0 22 22" xmlns="http://www.w3.org/2000/svg" xmlns:xlink="http://www.w3.org/1999/xlink" width="22" height="22" fill="none" customFrame="#000000">
	<rect id="地标A" width="22" height="22" x="0" y="0" />
	<path id="形状" d="M2 9.17479C2 11.515 2.94915 13.7583 4.63649 15.406L4.63649 15.4051L11.0004 21.6364L17.3635 15.4069C19.0508 13.7592 20 11.5159 20 9.17568C20 6.83546 19.0508 4.59219 17.3635 2.94445C13.8499 -0.496471 8.15102 -0.496472 4.63649 2.94356C2.94915 4.59131 2 6.83458 2 9.17479ZM16.0954 14.1483C17.4425 12.8333 18.2003 11.0428 18.2003 9.1748C18.2003 7.30683 17.4425 5.51628 16.0954 4.20133C13.2829 1.44736 8.71802 1.44736 5.90549 4.20133C4.55836 5.51628 3.80053 7.30683 3.80053 9.1748C3.80053 11.0428 4.55836 12.8333 5.90549 14.1483L11.0004 19.1368L16.0954 14.1483ZM7.88249 10.9999C8.52564 12.0969 9.71421 12.7727 11.0004 12.7726C12.9886 12.7724 14.6002 11.1851 14.6002 9.22709C14.6002 7.26906 12.9886 5.68173 11.0004 5.68158C9.71421 5.68148 8.52564 6.35723 7.88249 7.45425C7.23935 8.55128 7.23935 9.90289 7.88249 10.9999ZM11.0004 10.9998C11.9946 10.9998 12.8005 10.2062 12.8005 9.22709C12.8005 8.24803 11.9946 7.45434 11.0004 7.45434C10.0063 7.45434 9.20042 8.24803 9.20042 9.22709C9.20042 10.2062 10.0063 10.9998 11.0004 10.9998Z" fill="rgb(6,174,120)" fill-rule="evenodd" />
</svg>
