<svg viewBox="0 0 66.5 45" xmlns="http://www.w3.org/2000/svg" xmlns:xlink="http://www.w3.org/1999/xlink" width="66.5" height="45" fill="none" customFrame="#000000">
	<rect id="属性=下一页-菜单区,状态=禁用" width="66" height="44" x="0" y="0.5" />
	<path id="矩形备份 22" d="M8 0L59.2618 0C62.2981 0 64.2273 3.24991 62.7734 5.91541L43.1371 41.9154C42.4361 43.2005 41.0892 44 39.6255 44L8 44C3.58172 44 0 40.4183 0 36L0 8C0 3.58172 3.58172 0 8 0Z" fill="rgb(235,255,249)" fill-rule="evenodd" transform="matrix(-1,0,0,-1,66,44.5)" />
	<path id="矩形备份 22" d="M59.2618 0C62.2981 0 64.2273 3.24991 62.7734 5.91541L43.1371 41.9154C42.4361 43.2005 41.0892 44 39.6255 44L8 44C3.58172 44 0 40.4183 0 36L0 8C0 3.58172 3.58172 0 8 0L59.2618 0Z" fill-rule="evenodd" stroke="rgb(90,224,182)" stroke-width="1" transform="matrix(-1,0,0,-1,66,44.5)" />
	<path id="形状备份" d="M8.80753 0L10.5673 1.7775L3.41244 9L10.5687 16.2225L8.80753 18L0 9.111L0.109983 9L0 8.889L8.80753 0ZM18 1.7775L16.2388 0L7.43126 8.889L7.54124 9L7.43126 9.111L16.2388 18L18 16.2225L10.8437 9L18 1.7775Z" fill="rgb(90,224,182)" fill-rule="evenodd" transform="matrix(0,-1,1,0,30,31.5)" />
</svg>
