<svg viewBox="0 0 88.5 37" xmlns="http://www.w3.org/2000/svg" xmlns:xlink="http://www.w3.org/1999/xlink" width="88.5" height="37" fill="none" customFrame="#000000">
	<rect id="属性=上一页-内容区,状态=默认" width="88" height="36" x="0.5" y="0.5" />
	<path id="矩形备份 22" d="M6.5 0.5L80.949 0.5C84.1592 0.5 86.0615 4.09119 84.2582 6.747L65.2459 34.747C64.5013 35.8435 63.262 36.5 61.9366 36.5L6.5 36.5C3.18629 36.5 0.5 33.8137 0.5 30.5L0.5 6.5C0.5 3.18629 3.18629 0.5 6.5 0.5Z" fill="rgb(0,174,120)" fill-rule="evenodd" />
	<path id="矩形备份 22" d="M80.949 0.5C84.1592 0.5 86.0615 4.09119 84.2582 6.747L65.2459 34.747C64.5013 35.8435 63.262 36.5 61.9366 36.5L6.5 36.5C3.18629 36.5 0.5 33.8137 0.5 30.5L0.5 6.5C0.5 3.18629 3.18629 0.5 6.5 0.5L80.949 0.5Z" fill-rule="evenodd" stroke="rgb(0,174,120)" stroke-width="1" />
	<path id="形状" d="M6.8503 0L8.21897 1.3825L2.65412 7L8.22013 12.6175L6.8503 14L0 7.08633L0.0855421 7L0 6.91367L6.8503 0ZM14 1.3825L12.6302 0L5.77988 6.91367L5.86542 7L5.77988 7.08633L12.6302 14L14 12.6175L8.434 7L14 1.3825Z" fill="rgb(255,255,255)" fill-rule="evenodd" transform="matrix(0,1,-1,0,47.5,11.5)" />
</svg>
