<svg viewBox="0 0 108.5 45" xmlns="http://www.w3.org/2000/svg" xmlns:xlink="http://www.w3.org/1999/xlink" width="108.5" height="45" fill="none" customFrame="#000000">
	<rect id="属性=下一页-内容区,状态=禁用" width="108" height="44" x="0" y="0.5" />
	<path id="矩形备份 22" d="M8 0L100.431 0C103.645 0 105.547 3.59811 103.736 6.25335L79.1909 42.2533C78.4458 43.3462 77.2086 44 75.886 44L8 44C3.58172 44 9.37875e-13 40.4183 9.37875e-13 36L9.37875e-13 8C9.37875e-13 3.58172 3.58172 0 8 0Z" fill="rgb(235,255,249)" fill-rule="evenodd" transform="matrix(-1,0,0,-1,108,44.5)" />
	<path id="矩形备份 22" d="M100.431 0C103.645 0 105.547 3.59811 103.736 6.25335L79.1909 42.2533C78.4458 43.3462 77.2086 44 75.886 44L8 44C3.58172 44 9.37875e-13 40.4183 9.37875e-13 36L9.37875e-13 8C9.37875e-13 3.58172 3.58172 0 8 0L100.431 0Z" fill-rule="evenodd" stroke="rgb(90,224,182)" stroke-width="1" transform="matrix(-1,0,0,-1,108,44.5)" />
	<path id="形状备份" d="M8.80753 0L10.5673 1.7775L3.41244 9L10.5687 16.2225L8.80753 18L0 9.111L0.109983 9L0 8.889L8.80753 0ZM18 1.7775L16.2388 0L7.43127 8.889L7.54126 9L7.43127 9.111L16.2388 18L18 16.2225L10.8437 9L18 1.7775Z" fill="rgb(90,224,182)" fill-rule="evenodd" transform="matrix(0,-1,1,0,49,31.5)" />
</svg>
