<svg viewBox="0 0 88.5 37" xmlns="http://www.w3.org/2000/svg" xmlns:xlink="http://www.w3.org/1999/xlink" width="88.5" height="37" fill="none" customFrame="#000000">
	<rect id="属性=下一页-内容区,状态=触发" width="88" height="36" x="0" y="0.5" />
	<path id="矩形备份 23" d="M6 0L80.449 0C83.6592 0 85.5615 3.59119 83.7582 6.247L64.7459 34.247C64.0013 35.3435 62.762 36 61.4366 36L6 36C2.68629 36 -4.97963e-13 33.3137 -4.97963e-13 30L-4.97963e-13 6C-4.97963e-13 2.68629 2.68629 0 6 0Z" fill="rgb(0,158,109)" fill-rule="evenodd" transform="matrix(-1,0,0,-1,88,36.5)" />
	<path id="矩形备份 23" d="M80.449 0C83.6592 0 85.5615 3.59119 83.7582 6.247L64.7459 34.247C64.0013 35.3435 62.762 36 61.4366 36L6 36C2.68629 36 -4.97963e-13 33.3137 -4.97963e-13 30L-4.97963e-13 6C-4.97963e-13 2.68629 2.68629 0 6 0L80.449 0Z" fill-rule="evenodd" stroke="rgb(0,158,109)" stroke-width="1" transform="matrix(-1,0,0,-1,88,36.5)" />
	<path id="形状" d="M6.8503 0L8.21897 1.3825L2.65412 7L8.22013 12.6175L6.8503 14L0 7.08633L0.0855421 7L0 6.91367L6.8503 0ZM14 1.3825L12.6302 0L5.77988 6.91367L5.86542 7L5.77988 7.08633L12.6302 14L14 12.6175L8.434 7L14 1.3825Z" fill="rgb(255,255,255)" fill-rule="evenodd" transform="matrix(0,-1,1,0,41,25.5)" />
</svg>
