<svg viewBox="0 0 54.5 37" xmlns="http://www.w3.org/2000/svg" xmlns:xlink="http://www.w3.org/1999/xlink" width="54.5" height="37" fill="none" customFrame="#000000">
	<rect id="属性=上一页-菜单区,状态=默认" width="54" height="36" x="0.5" y="0.5" />
	<path id="矩形备份 22" d="M6.5 0.5L47.7618 0.5C50.7981 0.5 52.7273 3.74991 51.2734 6.41541L36.0007 34.4154C35.2998 35.7005 33.9529 36.5 32.4891 36.5L6.5 36.5C3.18629 36.5 0.5 33.8137 0.5 30.5L0.5 6.5C0.5 3.18629 3.18629 0.5 6.5 0.5Z" fill="rgb(0,174,120)" fill-rule="evenodd" />
	<path id="矩形备份 22" d="M47.7618 0.5C50.7981 0.5 52.7273 3.74991 51.2734 6.41541L36.0007 34.4154C35.2998 35.7005 33.9529 36.5 32.4891 36.5L6.5 36.5C3.18629 36.5 0.5 33.8137 0.5 30.5L0.5 6.5C0.5 3.18629 3.18629 0.5 6.5 0.5L47.7618 0.5Z" fill-rule="evenodd" stroke="rgb(0,174,120)" stroke-width="1" />
	<path id="形状" d="M6.8503 0L8.21898 1.3825L2.65412 7L8.22013 12.6175L6.8503 14L0 7.08633L0.0855421 7L0 6.91367L6.8503 0ZM14 1.3825L12.6302 0L5.77987 6.91367L5.86541 7L5.77987 7.08633L12.6302 14L14 12.6175L8.43398 7L14 1.3825Z" fill="rgb(255,255,255)" fill-rule="evenodd" transform="matrix(0,1,-1,0,30.5,11.5)" />
</svg>
