<svg viewBox="0 0 176 68" xmlns="http://www.w3.org/2000/svg" xmlns:xlink="http://www.w3.org/1999/xlink" width="176" height="68" fill="none" customFrame="url(#clipPath_68)">
	<defs>
		<clipPath id="clipPath_68">
			<rect width="176" height="68" x="0" y="0" rx="33.5" fill="rgb(255,255,255)" />
		</clipPath>
	</defs>
	<rect id="属性=返首,状态=触发" width="176" height="68" x="0" y="0" rx="33.5" fill="rgb(1,158,110)" />
	<path id="路径" d="M31.5039 20.4823L42.3104 28.2131C43.3709 28.9717 43.9998 30.193 44 31.4941L44 43.9607C44 46.1915 42.1855 48 39.9474 48L34.4211 48L34.4211 42.1247C34.4211 39.6912 32.4415 37.7182 30 37.7182C27.5585 37.7182 25.5789 39.6912 25.5789 42.1247L25.5789 48L20.0526 48C17.8145 48 16 46.1915 16 43.9607L16 31.4944C16.0001 30.1933 16.629 28.9718 17.6896 28.2131L28.4961 20.4823C29.3949 19.8392 30.6051 19.8392 31.5039 20.4823Z" fill="rgb(255,255,255)" fill-rule="evenodd" />
	<path id="" d="M74.9375 30.7832C74.3574 32.2715 73.5898 33.6133 72.6582 34.7676C71.457 33.7832 70.2324 32.7988 69.1777 31.9609L67.6133 33.2324C68.7207 34.1699 69.9922 35.2246 71.2168 36.2793C69.7754 37.5742 68.1172 38.5586 66.3652 39.1855C66.7988 39.6133 67.3496 40.4336 67.6133 40.9844C69.5117 40.2402 71.3105 39.1621 72.7988 37.7207C74.1465 38.9453 75.3418 40.0703 76.1621 40.9609L77.8613 39.3789C76.9766 38.4883 75.6816 37.334 74.2871 36.1621C75.7988 34.3105 76.9531 32.0078 77.6211 29.2012L76.2324 28.7207L75.8457 28.791L67.3789 28.791L67.3789 26.418C71.2168 26.2246 75.4414 25.791 78.4883 24.9531L76.6133 23.1777C73.9297 23.9219 69.2246 24.3496 65.1699 24.543L65.1699 29.752C65.1699 32.6816 64.9297 36.5898 62.6973 39.3496C63.2246 39.5898 64.1855 40.2402 64.5898 40.6211C66.752 37.9375 67.2793 33.9297 67.3496 30.7832L74.9375 30.7832ZM62.8613 27.3027C62.1172 26.3418 60.582 24.7363 59.457 23.6055L57.6816 24.7598C58.7832 25.9609 60.2715 27.6426 60.9922 28.6504L62.8613 27.3027ZM62.2871 31.5977L57.2012 31.5977L57.2012 33.6895L60.0547 33.6895L60.0547 40.0938C59.0703 40.457 57.9219 41.3418 56.7676 42.543L58.2793 44.6816C59.2402 43.334 60.248 41.8984 60.9688 41.8984C61.543 41.8984 62.334 42.6133 63.4648 43.1934C65.1934 44.0781 67.3027 44.3418 70.2324 44.3418C72.6348 44.3418 76.6895 44.2012 78.3945 44.0781C78.4648 43.4336 78.7988 42.3262 79.0625 41.7285C76.666 42.0391 72.9688 42.2324 70.3027 42.2324C67.6426 42.2324 65.4805 42.0859 63.8457 41.248C63.2012 40.8906 62.7207 40.5508 62.2871 40.334L62.2871 31.5977ZM94.4258 36.209L89.3105 36.209L89.3105 31.3105L94.4258 31.3105L94.4258 36.209ZM87.2012 29.3418L87.2012 38.1543L96.6582 38.1543L96.6582 29.3418L87.2012 29.3418ZM84.2949 41.5117L84.2949 26.0547L99.6348 26.0547L99.6348 41.5117L84.2949 41.5117ZM81.9922 23.7754L81.9922 44.8984L84.2949 44.8984L84.2949 43.5977L99.6348 43.5977L99.6348 44.8984L102.031 44.8984L102.031 23.7754L81.9922 23.7754ZM121.736 34L110.146 34L110.146 32.0078L121.736 32.0078L121.736 34ZM110.146 41.7051L110.146 39.543L121.736 39.543L121.736 41.7051L110.146 41.7051ZM121.736 37.791L110.146 37.791L110.146 35.752L121.736 35.752L121.736 37.791ZM126.705 28.1934L126.705 26.1309L120.992 26.1309C121.643 25.334 122.357 24.3789 123.008 23.418L120.488 22.8379C120.008 23.7988 119.193 25.1699 118.473 26.1309L112.52 26.1309L113.574 25.5742C113.094 24.7598 112.162 23.582 111.295 22.7676L109.326 23.6348C109.977 24.3496 110.721 25.3574 111.201 26.1309L105.342 26.1309L105.342 28.1934L114.682 28.1934C114.559 28.791 114.365 29.4648 114.201 30.0625L107.914 30.0625L107.914 44.8984L110.146 44.8984L110.146 43.6504L121.736 43.6504L121.736 44.8984L124.062 44.8984L124.062 30.0625L116.598 30.0625C116.861 29.4883 117.131 28.8379 117.395 28.1934L126.705 28.1934ZM131.984 28.7441L131.984 39.8066L134.264 39.8066L134.264 30.8066L145.953 30.8066L145.953 39.7363L148.326 39.7363L148.326 28.7441L139.736 28.7441C140.117 27.9531 140.551 27.0625 140.938 26.1543L150.365 26.1543L150.365 24.0859L129.822 24.0859L129.822 26.1543L138.395 26.1543C138.178 27.0156 137.838 27.9531 137.504 28.7441L131.984 28.7441ZM141.225 32.0781L138.922 32.0781L138.922 36.3496C138.922 38.7754 137.768 41.4648 129.225 43.1172C129.729 43.5742 130.326 44.418 130.59 44.9453C139.666 43 141.225 39.7129 141.225 36.3789L141.225 32.0781ZM140.961 40.457C143.721 41.7051 147.342 43.6504 149.07 44.9688L150.465 43.1934C148.613 41.9219 144.945 40.0469 142.256 38.9453L140.961 40.457Z" fill="rgb(254.745,255,254.921)" fill-rule="nonzero" />
</svg>
