<svg viewBox="0 0 66.5 45" xmlns="http://www.w3.org/2000/svg" xmlns:xlink="http://www.w3.org/1999/xlink" width="66.5" height="45" fill="none" customFrame="#000000">
	<rect id="属性=上一页-菜单区,状态=禁用" width="66" height="44" x="0.5" y="0.5" />
	<path id="矩形备份 21" d="M8.5 0.5L59.7618 0.5C62.7981 0.5 64.7273 3.74991 63.2734 6.41541L43.6371 42.4154C42.9361 43.7005 41.5892 44.5 40.1255 44.5L8.5 44.5C4.08172 44.5 0.5 40.9183 0.5 36.5L0.5 8.5C0.5 4.08172 4.08172 0.5 8.5 0.5Z" fill="rgb(235,255,249)" fill-rule="evenodd" />
	<path id="矩形备份 21" d="M59.7618 0.5C62.7981 0.5 64.7273 3.74991 63.2734 6.41541L43.6371 42.4154C42.9361 43.7005 41.5892 44.5 40.1255 44.5L8.5 44.5C4.08172 44.5 0.5 40.9183 0.5 36.5L0.5 8.5C0.5 4.08172 4.08172 0.5 8.5 0.5L59.7618 0.5Z" fill-rule="evenodd" stroke="rgb(90,224,182)" stroke-width="1" />
	<path id="形状" d="M8.80753 0L10.5673 1.7775L3.41244 9L10.5687 16.2225L8.80753 18L0 9.111L0.109983 9L0 8.889L8.80753 0ZM18 1.7775L16.2388 0L7.43126 8.889L7.54124 9L7.43126 9.111L16.2388 18L18 16.2225L10.8437 9L18 1.7775Z" fill="rgb(90,224,182)" fill-rule="evenodd" transform="matrix(0,1,-1,0,36.5,13.5)" />
</svg>
