<svg viewBox="0 0 54.5 37" xmlns="http://www.w3.org/2000/svg" xmlns:xlink="http://www.w3.org/1999/xlink" width="54.5" height="37" fill="none" customFrame="#000000">
	<rect id="属性=下一页-菜单区,状态=默认" width="54" height="36" x="0" y="0.5" />
	<path id="矩形备份 23" d="M6 0L47.2618 0C50.2981 0 52.2273 3.24991 50.7734 5.91541L35.5007 33.9154C34.7998 35.2005 33.4529 36 31.9891 36L6 36C2.68629 36 0 33.3137 0 30L0 6C0 2.68629 2.68629 0 6 0Z" fill="rgb(0,174,120)" fill-rule="evenodd" transform="matrix(-1,0,0,-1,54,36.5)" />
	<path id="矩形备份 23" d="M47.2618 0C50.2981 0 52.2273 3.24991 50.7734 5.91541L35.5007 33.9154C34.7998 35.2005 33.4529 36 31.9891 36L6 36C2.68629 36 0 33.3137 0 30L0 6C0 2.68629 2.68629 0 6 0L47.2618 0Z" fill-rule="evenodd" stroke="rgb(0,174,120)" stroke-width="1" transform="matrix(-1,0,0,-1,54,36.5)" />
	<path id="形状备份" d="M6.8503 0L8.21898 1.3825L2.65412 7L8.22013 12.6175L6.8503 14L0 7.08633L0.0855421 7L0 6.91367L6.8503 0ZM14 1.3825L12.6302 0L5.77987 6.91367L5.86541 7L5.77987 7.08633L12.6302 14L14 12.6175L8.43398 7L14 1.3825Z" fill="rgb(255,255,255)" fill-rule="evenodd" transform="matrix(0,-1,1,0,24,25.5)" />
</svg>
