<svg viewBox="0 0 190 68" xmlns="http://www.w3.org/2000/svg" xmlns:xlink="http://www.w3.org/1999/xlink" width="190" height="68" fill="none" customFrame="url(#clipPath_65)">
	<defs>
		<clipPath id="clipPath_65">
			<rect width="190" height="68" x="0" y="0" rx="33.5" fill="rgb(255,255,255)" />
		</clipPath>
		<clipPath id="clipPath_66">
			<rect width="52" height="52" x="6" y="8" rx="25.5" fill="rgb(255,255,255)" />
		</clipPath>
	</defs>
	<rect id="属性=退卡,状态=触发" width="190" height="68" x="0" y="0" rx="33.5" fill="rgb(230,232,231)" />
	<g id="编组 36" customFrame="url(#clipPath_66)">
		<rect id="编组 36" width="52" height="52" x="6" y="8" rx="25.5" fill="rgb(255,255,255)" />
		<path id="路径 4" d="M36.5673 31.4866L45.0412 31.4866L45.0412 27.7725L50.7178 34.2521L45.0412 40.2274L45.0412 36.8658L36.5673 36.8658L36.5673 31.4866Z" fill="rgb(207,209,208)" fill-rule="evenodd" />
		<path id="形状结合" d="M36.5672 21.772C36.5672 20.2411 35.3261 19 33.7952 19L19.5542 19C18.0233 19 16.7822 20.2411 16.7822 21.772L16.7822 46.228C16.7822 47.7589 18.0233 49 19.5542 49L33.7952 49C35.3261 49 36.5672 47.7589 36.5672 46.228L36.5672 21.772ZM36.5622 39.4545L36.5622 28.5454L28.7152 28.5454C27.9498 28.5454 27.3292 29.1659 27.3292 29.9314L27.3292 38.0685C27.3292 38.8339 27.9498 39.4545 28.7152 39.4545L36.5622 39.4545Z" fill="rgb(207,209,208)" fill-rule="evenodd" />
		<rect id="矩形" width="3.5" height="26" x="13.2822266" y="21" rx="1" fill="rgb(255,255,255)" />
	</g>
	<path id="" d="M77.8691 26.1543C76.9375 25.3105 75.0625 24.0625 73.6973 23.2012L72.3027 24.666C73.6738 25.5977 75.5195 26.9453 76.3867 27.8066L77.8691 26.1543ZM76.4102 32.248C75.4727 31.5273 73.6504 30.4492 72.3496 29.752L71.0547 31.3105C72.3789 32.1016 74.1777 33.2559 75.0625 33.9766L76.4102 32.248ZM73.8379 44.4883C75.0156 42.2793 76.3105 39.5195 77.3652 37.1172L75.6133 35.7285C74.4648 38.3652 72.9297 41.3184 71.8457 43.0938L73.8379 44.4883ZM81.3027 39.4961L81.3027 38.0547L88.3105 38.0547L88.3105 39.4961L81.3027 39.4961ZM88.3105 35.0547L88.3105 36.4727L81.3027 36.4727L81.3027 35.0547L88.3105 35.0547ZM90.4258 33.3262L79.2402 33.3262L79.2402 44.8984L81.3027 44.8984L81.3027 41.0781L88.3105 41.0781L88.3105 42.7832C88.3105 43.0703 88.2168 43.1699 87.9062 43.1699C87.5664 43.1934 86.4883 43.1934 85.4102 43.1465C85.6211 43.6211 85.8906 44.3945 86.0078 44.9219C87.6426 44.9219 88.7676 44.8984 89.5117 44.6055C90.209 44.3184 90.4258 43.791 90.4258 42.7832L90.4258 33.3262ZM81.4023 28.2871L84.209 28.2871L84.209 30.1094L81.4023 30.1094L81.4023 28.2871ZM88.2168 25.457L88.2168 30.1094L86.0312 30.1094L86.0312 26.8457L81.4023 26.8457L81.4023 25.457L88.2168 25.457ZM90.3027 30.1094L90.3027 23.7051L79.3867 23.7051L79.3867 30.1094L77.0078 30.1094L77.0078 34.334L79.0469 34.334L79.0469 31.8613L90.6426 31.8613L90.6426 34.334L92.7754 34.334L92.7754 30.1094L90.3027 30.1094ZM105.402 24.7832L96.1621 24.7832L96.1621 26.752L105.402 26.752L105.402 24.7832ZM106.41 40.6973C106 39.0625 104.992 36.3027 104.055 34.2402L102.256 34.7207C102.689 35.7285 103.117 36.9297 103.504 38.0547L98.5352 39.1855C99.3789 37.1465 100.24 34.7207 100.791 32.3945L105.83 32.3945L105.83 30.3789L95.3418 30.3789L95.3418 32.3945L98.5117 32.3945C97.9375 35.0781 96.9766 37.7207 96.6895 38.4648C96.3027 39.3262 95.9453 39.9531 95.5586 40.0938C95.7754 40.6211 96.1387 41.6816 96.2559 42.1094C96.2559 42.0859 96.2559 42.0625 96.2793 42.0391L96.2793 42.1094C96.9062 41.7754 97.8145 41.4414 104.102 39.9297C104.248 40.457 104.395 40.9375 104.488 41.3418L106.41 40.6973ZM111.402 28.2168C111.449 26.6055 111.473 24.9766 111.473 23.2949L109.264 23.2949C109.264 24.9766 109.264 26.6055 109.217 28.2168L106.146 28.2168L106.146 30.3496L109.146 30.3496C108.854 35.6816 107.969 40.334 104.846 43.2168C105.426 43.5508 106.193 44.3184 106.527 44.8691C109.984 41.5586 110.992 36.2793 111.303 30.3496L114.402 30.3496C114.162 38.3652 113.869 41.418 113.295 42.1094C113.055 42.4258 112.814 42.4961 112.387 42.4727C111.883 42.4727 110.752 42.4727 109.48 42.3789C109.838 43 110.102 43.9141 110.154 44.5352C111.402 44.6055 112.674 44.6348 113.418 44.5352C114.209 44.418 114.736 44.1777 115.24 43.4805C116.055 42.4258 116.318 39.0156 116.605 29.2949C116.605 28.9844 116.635 28.2168 116.635 28.2168L111.402 28.2168ZM136.387 25.6738L136.387 27.5195L129.59 27.5195L129.59 25.6738L136.387 25.6738ZM129.59 31.1465L129.59 29.2012L136.387 29.2012L136.387 31.1465L129.59 31.1465ZM129.59 38.1309L129.59 32.9688L138.449 32.9688C137.605 33.6895 136.434 34.6211 135.373 35.2949C134.512 34.6504 133.697 34 132.93 33.4727L131.418 34.5977C133.914 36.4023 136.938 39.0859 138.326 40.8379L139.984 39.5195C139.217 38.6348 138.039 37.5508 136.791 36.4727C137.969 35.7988 139.264 34.9141 140.418 34.0938L138.713 32.7285L138.543 32.8691L138.543 23.8457L127.334 23.8457L127.334 37.2871C127.334 38.3418 126.736 38.8984 126.279 39.1855C126.643 39.543 127.117 40.4336 127.264 40.9375C127.791 40.5977 128.582 40.3574 133.551 39.0859C133.504 38.6348 133.434 37.8145 133.434 37.2168L129.59 38.1309ZM125.055 27.5195C124.334 26.418 122.775 24.8301 121.48 23.752L119.775 24.9531C121.07 26.1309 122.605 27.7598 123.279 28.8613L125.055 27.5195ZM124.457 31.334L119.295 31.334L119.295 33.4023L122.295 33.4023L122.295 40.334C121.264 40.791 120.086 41.7051 118.961 42.7832L120.303 44.6582C121.527 43.2402 122.752 41.9219 123.59 41.9219C124.146 41.9219 124.914 42.5898 125.945 43.1699C127.65 44.0547 129.713 44.3418 132.543 44.3418C134.846 44.3418 138.854 44.1777 140.512 44.0781C140.535 43.4805 140.869 42.4492 141.109 41.8984C138.83 42.1621 135.232 42.3496 132.613 42.3496C130.047 42.3496 127.914 42.1855 126.379 41.3652C125.512 40.9141 124.938 40.4805 124.457 40.2402L124.457 31.334ZM163.721 39.209C161.869 38.3184 158.248 36.8535 155.822 35.9453L154.674 37.6738C157.17 38.7051 160.744 40.2637 162.473 41.2246L163.721 39.209ZM164.729 33.666L164.729 31.457L154.598 31.457L154.598 28.1465L162.402 28.1465L162.402 26.0078L154.598 26.0078L154.598 22.8906L152.248 22.8906L152.248 31.457L143.342 31.457L143.342 33.666L152.318 33.666L152.318 44.8691L154.674 44.8691L154.674 33.666L164.729 33.666Z" fill="rgb(101,103,102)" fill-rule="nonzero" />
</svg>
