<svg viewBox="0 0 108.5 45" xmlns="http://www.w3.org/2000/svg" xmlns:xlink="http://www.w3.org/1999/xlink" width="108.5" height="45" fill="none" customFrame="#000000">
	<rect id="属性=上一页-内容区,状态=默认" width="108" height="44" x="0.5" y="0.5" />
	<path id="矩形备份 21" d="M8.5 0.5L100.931 0.5C104.145 0.5 106.047 4.09811 104.236 6.75335L79.6909 42.7533C78.9458 43.8462 77.7086 44.5 76.386 44.5L8.5 44.5C4.08172 44.5 0.5 40.9183 0.5 36.5L0.5 8.5C0.5 4.08172 4.08172 0.5 8.5 0.5Z" fill="rgb(0,174,120)" fill-rule="evenodd" />
	<path id="矩形备份 21" d="M100.931 0.5C104.145 0.5 106.047 4.09811 104.236 6.75335L79.6909 42.7533C78.9458 43.8462 77.7086 44.5 76.386 44.5L8.5 44.5C4.08172 44.5 0.5 40.9183 0.5 36.5L0.5 8.5C0.5 4.08172 4.08172 0.5 8.5 0.5L100.931 0.5Z" fill-rule="evenodd" stroke="rgb(0,174,120)" stroke-width="1" />
	<path id="形状" d="M8.80753 0L10.5673 1.7775L3.41244 9L10.5687 16.2225L8.80753 18L0 9.111L0.109983 9L0 8.889L8.80753 0ZM18 1.7775L16.2388 0L7.43127 8.889L7.54126 9L7.43127 9.111L16.2388 18L18 16.2225L10.8437 9L18 1.7775Z" fill="rgb(255,255,255)" fill-rule="evenodd" transform="matrix(0,1,-1,0,59.5,13.5)" />
</svg>
