<svg viewBox="0 0 20 20" xmlns="http://www.w3.org/2000/svg" xmlns:xlink="http://www.w3.org/1999/xlink" width="20" height="20" fill="none" customFrame="#000000">
	<path id="成功A" d="M20 10C20 4.47715 15.5228 0 10 0C4.47715 0 0 4.47715 0 10C0 15.5228 4.47715 20 10 20C15.5228 20 20 15.5228 20 10ZM15.3557 7.33714C15.5886 7.12143 15.5771 6.47714 15.3571 6.25286L15.3557 6.25143C15.1314 6.02714 14.4643 6.03571 14.2314 6.25143L8.51 12.2286L5.95714 8.96286C5.73429 8.73429 5.06571 8.74429 4.83429 8.96286C4.60143 9.17857 4.61143 9.81714 4.83429 10.0457L8.07571 13.9671C8.18571 14.0786 8.33 14.1843 8.49571 14.1414C8.64533 14.1406 8.78914 14.0835 8.89857 13.9814L15.3557 7.33714Z" fill="rgb(69,201,134)" fill-rule="evenodd" />
</svg>
