<svg viewBox="0 0 40.3828 40.3846" xmlns="http://www.w3.org/2000/svg" xmlns:xlink="http://www.w3.org/1999/xlink" width="40.3828125" height="40.3846283" fill="none" customFrame="#000000">
	<g id="打印凭条-A">
		<path id="路径_1406" d="M37.5118 7.51331L32.7515 7.51331L32.7515 3.73199C32.7515 2.00178 31.912 0.191605 30.0719 0.191605L11.1091 0.191605C10.1649 0.279437 9.35219 0.65492 8.67081 1.31805C7.98942 1.98119 7.58958 2.78583 7.47126 3.73199L7.47126 7.51331L3.83134 7.51331C2.88679 7.60067 2.0736 7.97594 1.39177 8.63913C0.709932 9.30232 0.309811 10.1072 0.191406 11.0537L0.191406 22.6802C0.191406 24.4104 2.15129 25.4967 3.83134 25.4967L7.47126 25.4967L7.47126 37.3651C7.47126 39.0954 9.43114 40.1817 11.1112 40.1817L30.0719 40.1817C30.7512 40.243 31.3525 40.0537 31.8758 39.6138C32.3991 39.1739 32.691 38.6123 32.7515 37.9291L32.7515 25.4967L37.5118 25.4967C38.1911 25.558 38.7924 25.3687 39.3157 24.9288C39.839 24.4889 40.1309 23.9273 40.1914 23.2441L40.1914 11.0537C40.1914 9.32348 39.1919 7.51331 37.5118 7.51331ZM9.55198 3.73199C9.76303 2.9077 10.2831 2.4102 11.1123 2.23951L30.0719 2.23951C30.6718 2.23951 30.5521 3.08383 30.5521 3.68828L30.5521 7.4696L9.55198 7.4696L9.55198 3.73199ZM30.5923 36.9622C30.5935 37.2626 30.4885 37.5191 30.2772 37.7316C30.066 37.944 29.811 38.0497 29.5122 38.0485L10.6713 38.0485C10.3726 38.0497 10.1176 37.944 9.90631 37.7316C9.69506 37.5191 9.59002 37.2626 9.5912 36.9622L9.5912 21.1919C9.59002 20.8915 9.69506 20.635 9.90631 20.4225C10.1176 20.2101 10.3726 20.1044 10.6713 20.1056L29.632 20.1056C29.9308 20.1044 30.1858 20.2101 30.397 20.4225C30.6083 20.635 30.7133 20.8915 30.7121 21.1919L30.5923 36.9622ZM37.992 22.6396C37.992 23.243 38.1118 23.243 37.5118 23.243L32.7515 23.243L32.7515 21.5139C32.7515 19.7837 31.912 17.9735 30.0719 17.9735L11.1091 17.9735C10.1645 18.0609 9.35134 18.4361 8.66951 19.0993C7.98767 19.7625 7.58755 20.5674 7.46914 21.5139L7.46914 23.2441L3.83134 23.2441C3.23139 23.2441 2.27106 23.1236 2.27106 22.6407L2.27106 11.0537C2.47412 10.2254 2.99421 9.74248 3.83134 9.60492L37.4715 9.60492C38.0715 9.60492 37.9517 10.4492 37.9517 11.0537L37.992 22.6396ZM27.5513 24.8528L12.8718 24.8528C12.2135 24.8373 11.8534 25.1592 11.7917 25.8186C11.7931 26.1007 11.8968 26.3375 12.1028 26.5289C12.3089 26.7203 12.5518 26.8055 12.8315 26.7845L27.5916 26.7845C28.2136 26.8421 28.5633 26.5592 28.6407 25.9358C28.718 25.3124 28.4482 24.9517 27.8311 24.8538L27.5513 24.8528ZM27.5513 30.9677L12.8718 30.9677C12.568 30.9511 12.3028 31.0449 12.0763 31.2492C11.8497 31.4535 11.7282 31.7085 11.7117 32.014C11.6951 32.3196 11.7884 32.5863 11.9916 32.8142C12.1947 33.042 12.4482 33.1642 12.752 33.1809L27.5524 33.1809C28.2544 33.1499 28.6054 32.781 28.6054 32.0743C28.6054 31.3676 28.2533 30.9987 27.5513 30.9677Z" fill="rgb(157,83,56)" fill-rule="nonzero" />
		<path id="路径_1406" d="M32.7515 7.51331L32.7515 3.73199C32.7515 2.00178 31.912 0.191605 30.0719 0.191605L11.1091 0.191605C10.1649 0.279437 9.35219 0.65492 8.67081 1.31805C7.98942 1.98119 7.58958 2.78583 7.47126 3.73199L7.47126 7.51331L3.83134 7.51331C2.88679 7.60067 2.0736 7.97594 1.39177 8.63913C0.709932 9.30232 0.309811 10.1072 0.191406 11.0537L0.191406 22.6802C0.191406 24.4104 2.15129 25.4967 3.83134 25.4967L7.47126 25.4967L7.47126 37.3651C7.47126 39.0954 9.43114 40.1817 11.1112 40.1817L30.0719 40.1817C30.7512 40.243 31.3525 40.0537 31.8758 39.6138C32.3991 39.1739 32.691 38.6123 32.7515 37.9291L32.7515 25.4967L37.5118 25.4967C38.1911 25.558 38.7924 25.3687 39.3157 24.9288C39.839 24.4889 40.1309 23.9273 40.1914 23.2441L40.1914 11.0537C40.1914 9.32348 39.1919 7.51331 37.5118 7.51331L32.7515 7.51331ZM11.1123 2.23951L30.0719 2.23951C30.6718 2.23951 30.5521 3.08383 30.5521 3.68828L30.5521 7.4696L9.55198 7.4696L9.55198 3.73199C9.76303 2.9077 10.2831 2.4102 11.1123 2.23951ZM30.2772 37.7316C30.066 37.944 29.811 38.0497 29.5122 38.0485L10.6713 38.0485C10.3726 38.0497 10.1176 37.944 9.90631 37.7316C9.69506 37.5191 9.59002 37.2626 9.5912 36.9622L9.5912 21.1919C9.59002 20.8915 9.69506 20.635 9.90631 20.4225C10.1176 20.2101 10.3726 20.1044 10.6713 20.1056L29.632 20.1056C29.9308 20.1044 30.1858 20.2101 30.397 20.4225C30.6083 20.635 30.7133 20.8915 30.7121 21.1919L30.5923 36.9622C30.5935 37.2626 30.4885 37.5191 30.2772 37.7316ZM37.5118 23.243L32.7515 23.243L32.7515 21.5139C32.7515 19.7837 31.912 17.9735 30.0719 17.9735L11.1091 17.9735C10.1645 18.0609 9.35134 18.4361 8.66951 19.0993C7.98767 19.7625 7.58755 20.5674 7.46914 21.5139L7.46914 23.2441L3.83134 23.2441C3.23139 23.2441 2.27106 23.1236 2.27106 22.6407L2.27106 11.0537C2.47412 10.2254 2.99421 9.74248 3.83134 9.60492L37.4715 9.60492C38.0715 9.60492 37.9517 10.4492 37.9517 11.0537L37.992 22.6396C37.992 23.243 38.1118 23.243 37.5118 23.243ZM12.8718 24.8528C12.2135 24.8373 11.8534 25.1592 11.7917 25.8186C11.7931 26.1007 11.8968 26.3375 12.1028 26.5289C12.3089 26.7203 12.5518 26.8055 12.8315 26.7845L27.5916 26.7845C28.2136 26.8421 28.5633 26.5592 28.6407 25.9358C28.718 25.3124 28.4482 24.9517 27.8311 24.8538L27.5513 24.8528L12.8718 24.8528ZM12.8718 30.9677C12.568 30.9511 12.3028 31.0449 12.0763 31.2492C11.8497 31.4535 11.7282 31.7085 11.7117 32.014C11.6951 32.3196 11.7884 32.5863 11.9916 32.8142C12.1947 33.042 12.4482 33.1642 12.752 33.1809L27.5524 33.1809C28.2544 33.1499 28.6054 32.781 28.6054 32.0743C28.6054 31.3676 28.2533 30.9987 27.5513 30.9677L12.8718 30.9677Z" fill-rule="nonzero" stroke="rgb(157,83,56)" stroke-width="0.383211702" />
		<path id="路径_1407" d="M32.8877 12.4473C32.8877 12.8873 33.0424 13.2628 33.3517 13.574C33.6611 13.8851 34.0345 14.0407 34.472 14.0407C34.9094 14.0407 35.2828 13.8851 35.5922 13.574C35.9015 13.2629 36.0562 12.8873 36.0562 12.4473C36.0562 12.0073 35.9015 11.6317 35.5922 11.3206C35.2828 11.0095 34.9094 10.8539 34.472 10.8539C34.0407 10.8687 33.6726 11.0296 33.3675 11.3364C33.0624 11.6433 32.9025 12.0136 32.8877 12.4473Z" fill="rgb(157,83,56)" fill-rule="nonzero" />
		<path id="路径_1407" d="M33.3517 13.574C33.6611 13.8851 34.0345 14.0407 34.472 14.0407C34.9094 14.0407 35.2828 13.8851 35.5922 13.574C35.9015 13.2629 36.0562 12.8873 36.0562 12.4473C36.0562 12.0073 35.9015 11.6317 35.5922 11.3206C35.2828 11.0095 34.9094 10.8539 34.472 10.8539C34.0407 10.8687 33.6726 11.0296 33.3675 11.3364C33.0624 11.6433 32.9025 12.0136 32.8877 12.4473C32.8877 12.8873 33.0424 13.2628 33.3517 13.574Z" fill-rule="nonzero" stroke="rgb(157,83,56)" stroke-width="0.383211702" />
	</g>
</svg>
