<svg viewBox="0 0 40 40" xmlns="http://www.w3.org/2000/svg" xmlns:xlink="http://www.w3.org/1999/xlink" width="40" height="40.0000076" fill="none" customFrame="#000000">
	<g id="查看电子凭条-A">
		<path id="路径_1405" d="M39.9944 5.04138C39.9832 4.36415 39.8273 3.71452 39.5269 3.09249C39.2264 2.47047 38.8042 1.92321 38.2601 1.45074C37.716 0.978263 37.0914 0.616397 36.3863 0.365142C35.6812 0.113886 34.949 -0.00770398 34.1897 0.000371386L5.73143 0.000371386C4.98222 0.00115845 4.18272 0.129589 3.4907 0.385664C2.79868 0.641738 2.18776 1.00603 1.65793 1.47853C1.12811 1.95103 0.719591 2.49589 0.432372 3.11312C0.145153 3.73035 0.00102935 4.3731 0 5.04138L0 34.5125C-0.000743056 34.899 0.155162 35.226 0.467714 35.4936L5.08929 39.4663C5.38548 39.7207 5.73913 39.8478 6.15026 39.8478C6.56138 39.8478 6.91504 39.7207 7.21122 39.4663L11.9217 35.4133L16.8099 39.617C17.1056 39.8723 17.4593 40 17.8709 40C18.2824 40 18.6361 39.8723 18.9318 39.617L23.82 35.4133L28.7082 39.617C29.0041 39.8721 29.3577 39.9996 29.7692 39.9996C30.1807 39.9996 30.5343 39.8721 30.8302 39.617L35.2551 35.8117C35.5666 35.5437 35.7225 35.2166 35.7228 34.8306L35.7228 9.90303C36.9693 9.61843 37.99 9.0249 38.785 8.12244C39.5799 7.21999 39.9793 6.189 39.9944 5.04138ZM24.8743 32.5395C24.5787 32.2845 24.2252 32.157 23.8139 32.157C23.4026 32.157 23.0491 32.2845 22.7535 32.5395L17.8653 36.7452L12.9771 32.5395C12.6813 32.2847 12.3279 32.1573 11.9167 32.1573C11.5055 32.1573 11.152 32.2847 10.8563 32.5395L6.14581 36.5916L3.05513 33.9338L3.05513 5.04138C3.05605 4.40221 3.30985 3.85665 3.81654 3.40468C4.32323 2.95272 4.93486 2.72633 5.65143 2.72551C6.38777 2.70967 7.10678 2.92752 7.6418 3.37906C8.17683 3.8306 8.45583 4.38471 8.47882 5.04138C8.45644 5.69936 8.17701 6.25438 7.64053 6.70642C7.10405 7.15847 6.46694 7.37574 5.7292 7.35825C5.30738 7.35825 4.94733 7.49128 4.64905 7.75733C4.35078 8.02339 4.20164 8.34455 4.20164 8.72082C4.20164 9.09708 4.35078 9.41824 4.64905 9.6843C4.94733 9.95036 5.30738 10.0834 5.7292 10.0834L32.661 10.0834L32.661 34.2509L29.7625 36.7452L24.8743 32.5395ZM34.1897 7.35825L10.8863 7.35825C11.812 5.81367 11.812 4.2691 10.8863 2.72452L34.1897 2.72452C34.9273 2.70674 35.5644 2.9238 36.1009 3.37569C36.6375 3.82759 36.9169 4.38248 36.9393 5.04039C36.9169 5.69837 36.6375 6.25339 36.101 6.70543C35.5645 7.15748 34.9274 7.37574 34.1897 7.35825Z" fill="rgb(157,83,56)" fill-rule="nonzero" />
		<path id="直线_92" d="M15.4945 16.2411L6.60681 16.2411C5.86617 16.2411 5.49585 15.9108 5.49585 15.2502C5.49585 14.5895 5.86617 14.2592 6.60681 14.2592L15.4945 14.2592C16.2351 14.2592 16.6054 14.5895 16.6054 15.2502C16.6054 15.9108 16.2351 16.2411 15.4945 16.2411Z" fill="rgb(157,83,56)" fill-rule="nonzero" />
		<path id="直线_94" d="M16.6054 22.1869L6.60681 22.1869C5.86617 22.1869 5.49585 21.8566 5.49585 21.1959C5.49585 20.5353 5.86617 20.205 6.60681 20.205L16.6054 20.205C17.3461 20.205 17.7164 20.5353 17.7164 21.1959C17.7164 21.8566 17.3461 22.1869 16.6054 22.1869Z" fill="rgb(157,83,56)" fill-rule="nonzero" />
		<path id="直线_93" d="M18.9684 27.1417L6.60681 27.1417C5.86617 27.1417 5.49585 26.8113 5.49585 26.1507C5.49585 25.4901 5.86617 25.1597 6.60681 25.1597L18.9684 25.1597C19.7091 25.1597 20.0794 25.4901 20.0794 26.1507C20.0794 26.8113 19.7091 27.1417 18.9684 27.1417Z" fill="rgb(157,83,56)" fill-rule="nonzero" />
		<path id="联合_16" d="M29.0222 28.9818L27.0636 26.478C26.5516 26.6899 26.0178 26.7956 25.4622 26.7949C24.9146 26.7949 24.3879 26.6918 23.882 26.4856C23.3762 26.2793 22.9296 25.9857 22.5425 25.6046C22.1553 25.2235 21.857 24.784 21.6475 24.2861C21.438 23.7882 21.3332 23.2698 21.3333 22.7308C21.3332 22.1919 21.438 21.6735 21.6475 21.1755C21.857 20.6776 22.1553 20.2381 22.5425 19.857C22.9296 19.476 23.3762 19.1823 23.882 18.976C24.3879 18.7698 24.9146 18.6667 25.4622 18.6667C26.0098 18.6669 26.5365 18.7703 27.0424 18.9766C27.5482 19.183 27.9947 19.4767 28.3818 19.8577C28.769 20.2388 29.0673 20.6782 29.2768 21.176C29.4863 21.6738 29.5911 22.192 29.5911 22.7308C29.5924 23.7582 29.2467 24.656 28.5538 25.4244L30.4762 27.8795C30.8494 28.3567 30.7937 28.7789 30.309 29.1463C30.1442 29.2715 29.9577 29.3338 29.7494 29.3333C29.4481 29.3339 29.2057 29.2167 29.0222 28.9818ZM23.1673 22.7308C23.1681 23.354 23.3923 23.8859 23.84 24.3266C24.2877 24.7672 24.8281 24.9879 25.4612 24.9887C26.0945 24.9882 26.6352 24.7676 27.0831 24.3269C27.531 23.8862 27.7553 23.3542 27.7561 22.7308C27.7553 22.1075 27.531 21.5755 27.0831 21.1348C26.6352 20.6941 26.0945 20.4735 25.4612 20.473C24.8274 20.4726 24.2862 20.6929 23.8375 21.1337C23.3889 21.5745 23.1681 22.1069 23.1673 22.7308Z" fill="rgb(157,83,56)" fill-rule="nonzero" />
	</g>
</svg>
