<svg viewBox="0 0 18 18" xmlns="http://www.w3.org/2000/svg" xmlns:xlink="http://www.w3.org/1999/xlink" width="18" height="18" fill="none">
	<rect id="正在办理A" width="17.9999981" height="17.9999981" x="0" y="0" />
	<path id="正在办理A" d="M15.93 9.46361C15.9685 8.89384 16.4738 8.46349 17.0317 8.49986C17.6017 8.53825 18.0342 9.03123 17.9979 9.60302C17.6825 14.3107 13.7349 18 9.00904 18C4.04063 18 0 13.9591 0 8.99487C0 4.18418 3.76168 0.234208 8.56435 0.00185658C9.13032 -0.032491 9.61948 0.414028 9.64777 0.985814C9.67405 1.55558 9.23542 2.04049 8.66339 2.06877C4.96639 2.24859 2.06983 5.29139 2.06983 8.99487C2.06983 12.8176 5.18267 15.929 9.00702 15.929C12.6474 15.929 15.6875 13.0883 15.93 9.46361ZM11.1921 2.22233C11.6812 2.22233 12.0794 1.8243 12.0794 1.33535C12.0794 0.846403 11.6812 0.448375 11.1921 0.448375C10.7029 0.448375 10.3047 0.846403 10.3047 1.33535C10.3047 1.8243 10.7029 2.22233 11.1921 2.22233ZM14.4808 2.34558C14.4808 2.86685 14.0583 3.29114 13.5348 3.29114C13.0133 3.29114 12.5888 2.86887 12.5888 2.34558C12.5888 1.8243 13.0133 1.40001 13.5348 1.40001C14.0563 1.40001 14.4808 1.82228 14.4808 2.34558ZM15.5986 5.30351C16.1868 5.30351 16.6638 4.82668 16.6638 4.23873C16.6638 3.65078 16.1868 3.17396 15.5986 3.17396C15.0103 3.17396 14.5333 3.65078 14.5333 4.23873C14.5333 4.82668 15.0103 5.30351 15.5986 5.30351ZM7.99231 9.01507L7.99231 4.27308C7.99231 3.7013 8.4552 3.23861 9.02723 3.23861C9.59926 3.23861 10.0621 3.7013 10.0621 4.27308L10.0621 7.9806L13.7308 7.9806C14.3029 7.9806 14.7658 8.44328 14.7658 9.01507C14.7658 9.58686 14.3029 10.0495 13.7308 10.0495L9.02723 10.0495C8.45519 10.0495 7.99231 9.58686 7.99231 9.01507ZM16.8457 7.91797C16.2252 7.91797 15.7219 7.41488 15.7219 6.7946C15.7219 6.17432 16.2252 5.67123 16.8457 5.67123C17.4663 5.67123 17.9696 6.17432 17.9696 6.7946C17.9696 7.41488 17.4663 7.91797 16.8457 7.91797Z" fill="rgb(255,255,255)" fill-rule="evenodd" />
</svg>
