<svg viewBox="0 0 52 52" xmlns="http://www.w3.org/2000/svg" xmlns:xlink="http://www.w3.org/1999/xlink" width="52" height="52" fill="none" customFrame="url(#clipPath_64)">
	<defs>
		<clipPath id="clipPath_64">
			<rect width="52" height="52" x="0" y="0" rx="25.5" fill="rgb(255,255,255)" />
		</clipPath>
	</defs>
	<rect id="滑动退卡" width="52" height="52" x="0" y="0" rx="25.5" fill="rgb(255,255,255)" />
	<rect id="矩形" width="3.5" height="26" x="7.28222656" y="13" rx="1" fill="rgb(255,255,255)" />
	<path id="形状结合" d="M30.5672 13.772C30.5672 12.2411 29.3261 11 27.7952 11L13.5542 11C12.0233 11 10.7822 12.2411 10.7822 13.772L10.7822 38.228C10.7822 39.7589 12.0233 41 13.5542 41L27.7952 41C29.3261 41 30.5672 39.7589 30.5672 38.228L30.5672 13.772ZM30.5671 31.4545L30.5671 20.5455L22.7201 20.5455C21.9546 20.5455 21.3341 21.166 21.3341 21.9315L21.3341 30.0685C21.3341 30.834 21.9546 31.4545 22.7201 31.4545L30.5671 31.4545Z" fill="rgb(207,209,208)" fill-rule="evenodd" />
	<path id="路径 4" d="M30.5673 23.4866L39.0412 23.4866L39.0412 19.7725L44.7178 26.2521L39.0412 32.2274L39.0412 28.8658L30.5673 28.8658L30.5673 23.4866Z" fill="rgb(207,209,208)" fill-rule="evenodd" />
</svg>
