<svg viewBox="0 0 44 44" xmlns="http://www.w3.org/2000/svg" xmlns:xlink="http://www.w3.org/1999/xlink" width="44" height="44" fill="none" customFrame="url(#clipPath_43)">
	<defs>
		<clipPath id="clipPath_43">
			<rect width="44" height="44" x="0" y="0" rx="21.5" fill="rgb(255,255,255)" />
		</clipPath>
	</defs>
	<rect id="滑动退卡A" width="44" height="44" x="0" y="0" rx="21.5" fill="rgb(255,255,255)" />
	<g id="组合 1871">
		<rect id="矩形" width="2.80483007" height="20.8358803" x="7" y="11.5820312" rx="0.902415037" fill="rgb(255,255,255)" />
		<path id="形状结合" d="M25.66 12.7513C25.66 11.2204 24.4189 9.97931 22.888 9.97931L12.5767 9.97931C11.0458 9.97931 9.80469 11.2204 9.80469 12.7513L9.80469 31.2487C9.80469 32.7796 11.0458 34.0207 12.5767 34.0207L22.888 34.0207C24.4189 34.0207 25.66 32.7796 25.66 31.2487L25.66 12.7513ZM25.6599 26.3712L25.6599 17.6288L19.6467 17.6288C18.8813 17.6288 18.2607 18.2494 18.2607 19.0148L18.2607 24.9852C18.2607 25.7506 18.8813 26.3712 19.6467 26.3712L25.6599 26.3712Z" fill="rgb(207,209,208)" fill-rule="evenodd" />
		<path id="路径 4" d="M25.6602 19.9858L32.451 19.9858L32.451 17.0094L37.0001 22.2021L32.451 26.9905L32.451 24.2967L25.6602 24.2967L25.6602 19.9858Z" fill="rgb(207,209,208)" fill-rule="evenodd" />
	</g>
</svg>
