<svg viewBox="0 0 20 20" xmlns="http://www.w3.org/2000/svg" xmlns:xlink="http://www.w3.org/1999/xlink" width="20" height="20" fill="none" customFrame="url(#clipPath_49)">
	<defs>
		<clipPath id="clipPath_49">
			<rect width="20" height="20" x="0" y="0" rx="9.60000038" fill="rgb(255,255,255)" />
		</clipPath>
	</defs>
	<rect id="看更多箭头" width="20" height="20" x="0" y="0" rx="9.60000038" fill="rgb(244,244,244)" />
	<path id="路径" d="M8.01234 1.22137L4.61311 4.79931C4.48581 4.93373 4.3129 5.00923 4.13259 5.00913C4.12362 5.00913 4.11519 5.00397 4.10594 5.00369C4.09697 5.00426 4.08854 5.00913 4.07929 5.00913C3.90525 5.00913 3.73148 4.93928 3.5985 4.79931L0.199263 1.22137C-0.0664211 0.942002 -0.0664211 0.488891 0.199263 0.209525C0.464948 -0.0698415 0.894883 -0.0698415 1.16057 0.209525L4.10567 3.30946L7.05077 0.209525C7.31645 -0.0698415 7.74666 -0.0698415 8.01207 0.209525C8.27776 0.488891 8.27776 0.942002 8.01234 1.22137Z" fill="rgb(96,98,102)" fill-rule="evenodd" transform="matrix(0,-1,1,0,7.49536,14.1057)" />
</svg>
