<svg viewBox="0 0 54 36" xmlns="http://www.w3.org/2000/svg" xmlns:xlink="http://www.w3.org/1999/xlink" width="54" height="36" fill="none" customFrame="#000000">
	<rect id="翻页按扭-A" width="54" height="36" x="0" y="0" />
	<path id="矩形备份 21" d="M6 0L47.2618 0C50.2981 0 52.2273 3.24991 50.7734 5.91541L35.5007 33.9154C34.7998 35.2005 33.4529 36 31.9891 36L6 36C2.68629 36 0 33.3137 0 30L0 6C0 2.68629 2.68629 0 6 0Z" fill="rgb(235,255,249)" fill-rule="evenodd" />
	<path id="矩形备份 21" d="M47.2618 0L6 0C2.68629 0 0 2.68629 0 6L0 30C0 33.3137 2.68629 36 6 36L31.9891 36C33.4529 36 34.7998 35.2005 35.5007 33.9154L50.7734 5.91541C52.2273 3.24991 50.2981 0 47.2618 0ZM6 1L47.2618 1C47.6047 1 47.9297 1.05221 48.2371 1.15663C48.427 1.22115 48.6102 1.30561 48.7865 1.41C48.9729 1.52034 49.1437 1.64754 49.2987 1.79163C49.5083 1.98644 49.6893 2.2121 49.8415 2.46861C49.9938 2.72509 50.1052 2.99198 50.1759 3.26926C50.2282 3.47438 50.2581 3.6852 50.2657 3.9017C50.2729 4.10654 50.2593 4.30778 50.225 4.50542C50.1695 4.82523 50.0597 5.13561 49.8955 5.43656L34.6228 33.4366C34.4914 33.6775 34.3338 33.8932 34.1501 34.0837C33.9664 34.2743 33.7565 34.4396 33.5205 34.5797C33.2845 34.7198 33.0389 34.8249 32.7836 34.8949C32.5284 34.965 32.2636 35 31.9891 35L6 35C5.61697 35 5.24349 34.9583 4.87956 34.875C4.59871 34.8106 4.32355 34.7215 4.05408 34.6075C3.77718 34.4904 3.51489 34.3509 3.26723 34.189C2.97997 34.0013 2.71239 33.7835 2.46447 33.5355C2.21649 33.2876 1.99863 33.0199 1.81087 32.7326C1.64906 32.485 1.50961 32.2228 1.39251 31.9459C1.27853 31.6764 1.18937 31.4012 1.12503 31.1204C1.04168 30.7565 1 30.383 1 30L1 6C1 5.61701 1.04167 5.24357 1.12502 4.87967C1.18936 4.59878 1.27852 4.32359 1.39251 4.05408C1.50963 3.77718 1.64912 3.51491 1.81097 3.26725C1.99871 2.97999 2.21654 2.71239 2.46447 2.46447C2.71239 2.21654 2.97999 1.99871 3.26725 1.81097C3.51491 1.64912 3.77719 1.50963 4.05408 1.39251C4.32359 1.27852 4.59878 1.18936 4.87965 1.12503C5.24356 1.04168 5.61701 1 6 1Z" fill="rgb(90,224,182)" fill-rule="evenodd" />
	<path id="形状" d="M6.8503 0L8.21898 1.3825L2.65412 7L8.22013 12.6175L6.8503 14L0 7.08633L0.0855421 7L0 6.91367L6.8503 0ZM14 1.3825L12.6302 0L5.77987 6.91367L5.86541 7L5.77987 7.08633L12.6302 14L14 12.6175L8.43399 7L14 1.3825Z" fill="rgb(90,224,182)" fill-rule="evenodd" transform="matrix(0,1,-1,0,30,11)" />
</svg>
