<svg viewBox="0 0 88 36" xmlns="http://www.w3.org/2000/svg" xmlns:xlink="http://www.w3.org/1999/xlink" width="88" height="36" fill="none" customFrame="url(#clipPath_41)">
	<defs>
		<clipPath id="clipPath_41">
			<rect width="88" height="36" x="0" y="0" rx="4" fill="rgb(255,255,255)" />
		</clipPath>
	</defs>
	<rect id="翻页按扭" width="88" height="36" x="0" y="0" rx="4" />
	<path id="矩形备份 22" d="M6 0L80.449 0C83.6592 0 85.5615 3.59119 83.7582 6.247L64.7459 34.247C64.0013 35.3435 62.762 36 61.4366 36L6 36C2.68629 36 -4.97963e-13 33.3137 -4.97963e-13 30L-4.97963e-13 6C-4.97963e-13 2.68629 2.68629 0 6 0Z" fill="rgb(235,255,249)" fill-rule="evenodd" transform="matrix(-1,0,0,-1,88,36)" />
	<path id="矩形备份 22" d="M80.449 0L6 0C2.68629 0 -4.97963e-13 2.68629 -4.97963e-13 6L-4.97963e-13 30C-4.97963e-13 33.3137 2.68629 36 6 36L61.4366 36C62.762 36 64.0013 35.3435 64.7459 34.247L83.7582 6.247C85.5615 3.59119 83.6592 0 80.449 0ZM6 1L80.449 1C80.8166 1 81.1628 1.05906 81.4874 1.17717C81.6797 1.24714 81.8645 1.33783 82.0418 1.44924C82.2297 1.56739 82.4006 1.70272 82.5545 1.85524C82.7696 2.06846 82.9515 2.31527 83.1 2.59568C83.2485 2.87608 83.3506 3.16515 83.4061 3.4629C83.4459 3.67589 83.4618 3.89332 83.454 4.11518C83.4466 4.32443 83.4178 4.52827 83.3676 4.72671C83.283 5.06162 83.1374 5.38114 82.9309 5.68525L63.9186 33.6853C63.7789 33.8909 63.6193 34.0742 63.4397 34.2351C63.2601 34.3961 63.0605 34.5347 62.841 34.651C62.6214 34.7673 62.3946 34.8546 62.1605 34.9127C61.9265 34.9709 61.6852 35 61.4366 35L6 35C5.61697 35 5.24349 34.9583 4.87956 34.875C4.59871 34.8106 4.32355 34.7215 4.05408 34.6075C3.77718 34.4904 3.51489 34.3509 3.26723 34.189C2.97997 34.0013 2.71239 33.7835 2.46447 33.5355C2.21652 33.2876 1.99868 33.02 1.81094 32.7327C1.6491 32.4851 1.50962 32.2228 1.39251 31.9459C1.27853 31.6764 1.18937 31.4012 1.12503 31.1204C1.04168 30.7565 1 30.383 1 30L1 6C1 5.61701 1.04167 5.24357 1.12502 4.87967C1.18936 4.59878 1.27852 4.32359 1.39251 4.05408C1.50963 3.77718 1.64912 3.51491 1.81097 3.26725C1.99871 2.97999 2.21654 2.71239 2.46447 2.46447C2.71239 2.21654 2.97999 1.99871 3.26725 1.81097C3.51491 1.64912 3.77719 1.50963 4.05408 1.39251C4.32359 1.27852 4.59878 1.18936 4.87965 1.12503C5.24356 1.04168 5.61701 1 6 1Z" fill="rgb(90,224,182)" fill-rule="evenodd" transform="matrix(-1,0,0,-1,88,36)" />
	<path id="形状" d="M6.8503 0L8.21897 1.3825L2.65412 7L8.22013 12.6175L6.8503 14L0 7.08633L0.0855421 7L0 6.91367L6.8503 0ZM14 1.3825L12.6302 0L5.77988 6.91367L5.86542 7L5.77988 7.08633L12.6302 14L14 12.6175L8.434 7L14 1.3825Z" fill="rgb(90,224,182)" fill-rule="evenodd" transform="matrix(0,-1,1,0,41,25)" />
</svg>
