<svg viewBox="0 0 112 106" xmlns="http://www.w3.org/2000/svg" xmlns:xlink="http://www.w3.org/1999/xlink" width="112" height="106" fill="none" customFrame="#000000">
	<path id="装饰-A" d="M68.3957 10.549L65.491 26.4745L39.9397 26.5596L38.9771 31.834L70.1013 31.834L73.1074 15.9425L109.011 15.9425L107.018 26.5766L76.7045 26.5766L73.6815 42.451L36.9843 42.451L36.0048 47.7766L61.5392 47.7766L56.5911 74.3191L31.006 74.234L30.0265 79.5595L61.3028 79.5595L67.2473 47.7766L103.201 47.7766L101.158 58.3255L70.76 58.3255L64.8154 90.2106L28.1182 90.2106L27.1556 95.451L69.3752 95.451L75.3028 63.6511L100.111 63.6511L98.152 74.2681L79.0181 74.2681L73.0736 106L19.5561 106L25.4331 74.234L0 74.234L4.94813 47.6745L30.4318 47.6745L36.3257 15.8575L61.9107 15.8575L64.8323 0L112 0L109.973 10.549L68.3957 10.549ZM27.7737 63.9118L7.77777 63.9118L8.7648 58.4559L28.7778 58.4559L27.7737 63.9118ZM53.6667 58.4559L52.6828 63.9118L32.6667 63.9118L33.6505 58.4559L53.6667 58.4559Z" fill="rgb(237,248,245)" fill-rule="evenodd" />
</svg>
