<svg viewBox="0 0 36 36" xmlns="http://www.w3.org/2000/svg" xmlns:xlink="http://www.w3.org/1999/xlink" width="36" height="36" fill="none" customFrame="url(#clipPath_47)">
	<defs>
		<clipPath id="clipPath_47">
			<rect width="36" height="36" x="0" y="0" rx="17.5" fill="rgb(255,255,255)" />
		</clipPath>
	</defs>
	<rect id="语音搜索A" width="36" height="36" x="0" y="0" rx="17.5" fill="rgb(0,174,120)" />
	<g id="编组">
		<path id="路径" d="M17.9999 20.8L17.9999 20.8C20.2822 20.8 22.1496 19 22.1496 16.8L22.1496 12C22.1496 9.8 20.2822 8 17.9999 8L17.9999 8C15.7175 8 13.8501 9.8 13.8501 12L13.8501 16.8C13.8501 19 15.7175 20.8 17.9999 20.8Z" fill="rgb(255,255,255)" fill-rule="evenodd" />
		<path id="路径" d="M25.3816 17.91C25.4516 17.4725 25.143 17.065 24.6891 16.9975C24.2352 16.9325 23.8125 17.23 23.7424 17.665C23.3067 20.365 20.8402 22.4 18.0002 22.4C15.1602 22.4 12.6911 20.3625 12.258 17.6625C12.1879 17.225 11.7626 16.9275 11.3113 16.995C10.8574 17.0625 10.5488 17.47 10.6188 17.9075C11.1427 21.17 13.8349 23.6025 17.1702 23.9525L17.1702 26.4L14.6804 26.4C14.2213 26.4 13.8504 26.7575 13.8504 27.2C13.8504 27.6425 14.2213 28 14.6804 28L21.32 28C21.7791 28 22.15 27.6425 22.15 27.2C22.15 26.7575 21.7791 26.4 21.32 26.4L18.8301 26.4L18.8301 23.9525C22.1629 23.6025 24.8577 21.1725 25.3816 17.91Z" fill="rgb(255,255,255)" fill-rule="evenodd" />
	</g>
</svg>
