<svg viewBox="0 0 20 20" xmlns="http://www.w3.org/2000/svg" xmlns:xlink="http://www.w3.org/1999/xlink" width="20" height="20" fill="none" customFrame="#000000">
	<path id="说明A" d="M12.5883 0.34286C7.25444 -1.0854 1.77217 2.07886 0.343182 7.41228C-1.0858 12.7457 2.07814 18.228 7.41178 19.6569C12.7454 21.0858 18.2279 17.9209 19.6569 12.5886C21.0859 7.25629 17.9208 1.77179 12.5883 0.34286ZM9.99948 3.21566C10.4432 3.21566 10.8029 3.57536 10.8029 4.01906C10.8029 4.46276 10.4432 4.82245 9.99948 4.82245C9.55576 4.82245 9.19605 4.46276 9.19605 4.01906C9.19605 3.57536 9.55576 3.21566 9.99948 3.21566ZM9.47881 15.0472L11.4918 7.5348C11.547 7.32892 11.518 7.10957 11.4114 6.92503C11.3047 6.74049 11.1291 6.6059 10.9232 6.55087C9.63739 6.20639 8.31578 6.96943 7.97127 8.25518L7.82755 8.79077C7.79584 8.91133 7.85824 9.03674 7.97352 9.08417C8.0888 9.1316 8.2214 9.08641 8.28372 8.97846C8.59511 8.48114 9.10784 8.14427 9.68793 8.05589L7.6749 15.5683C7.56006 15.9968 7.81434 16.4373 8.24288 16.5522C9.52868 16.8967 10.8503 16.1337 11.1948 14.8479L11.3385 14.3123C11.369 14.1923 11.3066 14.0682 11.1921 14.021C11.0777 13.9739 10.9459 14.018 10.883 14.1246C10.5717 14.622 10.0589 14.9589 9.47881 15.0472Z" fill="rgb(255,117,69)" fill-rule="evenodd" />
</svg>
