<svg viewBox="0 0 20 20" xmlns="http://www.w3.org/2000/svg" xmlns:xlink="http://www.w3.org/1999/xlink" width="20" height="20" fill="none" customFrame="#000000">
	<path id="说明A" d="M12.5883 0.34286C7.25444 -1.0854 1.77217 2.07886 0.343182 7.41228C-1.0858 12.7457 2.07814 18.228 7.41178 19.6569C12.7454 21.0858 18.2279 17.9209 19.6569 12.5886C21.0859 7.25629 17.9208 1.77179 12.5883 0.34286ZM9.99949 3.21511C10.4432 3.21511 10.8029 3.5748 10.8029 4.0185C10.8029 4.46221 10.4432 4.8219 9.99949 4.8219C9.55577 4.8219 9.19606 4.46221 9.19606 4.0185C9.19606 3.5748 9.55577 3.21511 9.99949 3.21511ZM9.47882 15.0467L11.4919 7.53431C11.547 7.32842 11.518 7.10907 11.4114 6.92454C11.3047 6.74 11.1291 6.6054 10.9232 6.55037C9.6374 6.2059 8.31579 6.96894 7.97128 8.25468L7.82756 8.79028C7.79585 8.91084 7.85825 9.03625 7.97353 9.08368C8.08881 9.13111 8.2214 9.08592 8.28372 8.97796C8.59512 8.48064 9.10785 8.14378 9.68793 8.0554L7.6749 15.5678C7.56006 15.9963 7.81434 16.4368 8.24288 16.5517C9.52868 16.8962 10.8503 16.1332 11.1948 14.8474L11.3385 14.3118C11.369 14.1918 11.3066 14.0677 11.1921 14.0205C11.0777 13.9734 10.9459 14.0175 10.883 14.1241C10.5717 14.6216 10.0589 14.9584 9.47882 15.0467Z" fill="rgb(255,117,69)" fill-rule="evenodd" />
</svg>
