<svg viewBox="0 0 18 18" xmlns="http://www.w3.org/2000/svg" xmlns:xlink="http://www.w3.org/1999/xlink" width="18" height="18" fill="none" customFrame="#000000">
	<path id="说明" d="M11.3295 0.308574C6.52899 -0.976856 1.59495 1.87098 0.308864 6.67106C-0.977221 11.4711 1.87032 16.4052 6.6706 17.6912C11.4709 18.9772 16.4051 16.1288 17.6912 11.3297C18.9773 6.53066 16.1287 1.59461 11.3295 0.308574ZM8.99953 2.8941C9.39888 2.8941 9.72262 3.21782 9.72262 3.61715C9.72262 4.01649 9.39888 4.34021 8.99953 4.34021C8.60018 4.34021 8.27645 4.01649 8.27645 3.61715C8.27645 3.21782 8.60018 2.8941 8.99953 2.8941ZM8.53093 13.5425L10.3427 6.78132C10.3923 6.59603 10.3662 6.39861 10.2702 6.23253C10.1743 6.06645 10.0162 5.94531 9.83088 5.89578C8.67366 5.58575 7.4842 6.27249 7.17415 7.42966L7.04479 7.9117C7.01626 8.0202 7.07242 8.13307 7.17617 8.17575C7.27992 8.21844 7.39926 8.17777 7.45534 8.08061C7.7356 7.63303 8.19706 7.32985 8.71914 7.2503L6.90741 14.0115C6.80405 14.3972 7.0329 14.7936 7.41859 14.897C8.57581 15.207 9.76526 14.5203 10.0753 13.3631L10.2047 12.8811C10.2321 12.7731 10.1759 12.6614 10.0729 12.6189C9.9699 12.5765 9.85135 12.6162 9.79472 12.7122C9.51455 13.1598 9.05305 13.463 8.53093 13.5425Z" fill="rgb(255,117,69)" fill-rule="evenodd" />
</svg>
