<svg viewBox="0 0 28 28" xmlns="http://www.w3.org/2000/svg" xmlns:xlink="http://www.w3.org/1999/xlink" width="28" height="28" fill="none" customFrame="#000000">
	<path id="返回首页" d="M15.5039 0.482293L26.3104 8.21309C27.3709 8.97172 27.9998 10.193 28 11.4941L28 23.9607C28 26.1915 26.1855 28 23.9474 28L18.4211 28L18.4211 22.1247C18.4211 19.6912 16.4415 17.7182 14 17.7182C11.5585 17.7182 9.57895 19.6912 9.57895 22.1247L9.57895 28L4.05263 28C1.81447 28 0 26.1915 0 23.9607L0 11.4944C5.64964e-05 10.1933 0.628997 8.97179 1.68958 8.21309L12.4961 0.482293C13.3949 -0.160764 14.6051 -0.160764 15.5039 0.482293Z" fill="rgb(255,255,255)" fill-rule="evenodd" />
</svg>
