<svg viewBox="0 0 22 22" xmlns="http://www.w3.org/2000/svg" xmlns:xlink="http://www.w3.org/1999/xlink" width="22" height="22" fill="none" customFrame="#000000">
	<path id="返回首页A" d="M12.1816 0.378945L20.6725 6.45314C21.5057 7.04921 21.9999 8.00881 22 9.03106L22 18.8263C22 20.579 20.5743 22 18.8158 22L14.4737 22L14.4737 17.3837C14.4737 15.4717 12.9183 13.9215 11 13.9215C9.08166 13.9215 7.52632 15.4717 7.52632 17.3837L7.52632 22L3.18421 22C1.42566 22 0 20.579 0 18.8263L0 9.03135C4.43901e-05 8.009 0.494212 7.04927 1.32753 6.45314L9.81837 0.378945C10.5246 -0.126315 11.4754 -0.126315 12.1816 0.378945Z" fill="rgb(255,255,255)" fill-rule="evenodd" />
</svg>
