<svg viewBox="0 0 56 56" xmlns="http://www.w3.org/2000/svg" xmlns:xlink="http://www.w3.org/1999/xlink" width="56" height="56" fill="none" customFrame="#000000">
	<defs>
		<linearGradient id="paint_linear_106" x1="0.79980123" x2="45.5997963" y1="27.9997787" y2="27.999794" gradientUnits="userSpaceOnUse">
			<stop stop-color="rgb(0,230,230)" offset="0" stop-opacity="1" />
			<stop stop-color="rgb(41,204,204)" offset="1" stop-opacity="1" />
		</linearGradient>
		<g id="pixso_custom_effect_32">
			<effect visibility="visible" effectType="backgroundBlur" saturation="0" stdDeviation="13.7001314" />
		</g>
		<filter id="filter_32" width="26.5981445" height="26.5979195" x="29.1010742" y="23.5010109" filterUnits="userSpaceOnUse" customEffect="url(#pixso_custom_effect_32)" color-interpolation-filters="sRGB">
			<feFlood flood-opacity="0" result="BackgroundImageFix" />
			<feGaussianBlur stdDeviation="4.56671047" in="BackgroundImage" />
			<feComposite result="effect_backgroundBlur_1" in2="SourceAlpha" operator="in" />
			<feBlend result="shape" in="SourceGraphic" in2="effect_backgroundBlur_1" mode="normal" />
		</filter>
		<linearGradient id="paint_linear_107" x1="33.2001038" x2="50.7976074" y1="25.9999676" y2="44.7807617" gradientUnits="userSpaceOnUse">
			<stop stop-color="rgb(255,255,255)" offset="0" stop-opacity="0" />
			<stop stop-color="rgb(255,255,255)" offset="1" stop-opacity="1" />
		</linearGradient>
	</defs>
	<rect id="首页卡片图标" width="56" height="56" x="0" y="0" fill="rgb(255,255,255)" fill-opacity="0" />
	<g id="组合 1880">
		<path id="差集" d="M45.5998 15.1998C45.5998 12.5488 43.4508 10.3998 40.7998 10.3998L5.5998 10.3998C2.94884 10.3998 0.799805 12.5488 0.799805 15.1998L0.799805 40.7998C0.799805 43.4507 2.94884 45.5998 5.5998 45.5998L40.7998 45.5998C43.4508 45.5998 45.5998 43.4507 45.5998 40.7998L45.5998 15.1998ZM25.0326 38.1445C25.0326 37.9375 25.2362 37.7304 25.2362 37.3163L25.2362 35.2457C25.2362 35.0386 25.0326 34.6245 25.0326 34.4175C25.0326 34.0033 24.6253 33.5892 24.4217 33.3822C24.218 33.1751 23.8108 32.968 23.4035 32.761C22.9962 32.5539 22.5889 32.5539 22.1817 32.3469C21.7744 32.1398 21.3671 32.1398 20.9599 31.9328C20.5526 31.7257 20.1453 31.5186 19.9417 31.3116C19.5344 31.1045 19.5344 30.8975 19.3308 30.6904C19.1271 30.4833 19.1271 30.2763 19.1271 30.0692L19.1271 29.4481C19.3308 29.0339 19.3308 28.8269 19.5344 28.6198C19.5344 28.4128 19.9417 28.2057 20.1453 27.9986C20.3489 27.9986 20.5526 27.7916 20.5526 27.5845C20.5526 27.3775 20.7562 27.1704 20.7562 26.9633C20.7562 26.5492 20.9599 26.3422 20.9599 26.1351C21.1635 26.1351 21.1635 26.1351 21.3671 25.9281C21.5708 25.9281 21.7744 25.721 21.7744 25.5139C21.978 25.3069 21.978 25.0998 21.978 24.6857L21.978 24.0645C21.978 23.8575 21.7744 23.8575 21.7744 23.6504C21.7744 23.6504 21.7744 23.4433 21.5708 23.4433C21.5708 22.8222 21.3671 22.201 21.3671 21.5798C21.3671 21.1657 21.1635 20.5445 20.9599 19.9234C20.7562 19.3022 20.5526 18.681 20.1453 18.2669C20.1453 18.0598 19.738 17.8528 19.5344 17.6457C19.1271 17.4386 18.7199 17.6457 18.3126 17.4386C17.9053 17.2316 17.498 17.0245 17.0908 17.0245C16.6835 16.8175 16.2762 16.8175 15.8689 16.8175L14.8508 16.8175C14.6471 16.8175 14.2398 16.8175 13.8326 17.0245C13.4253 17.2316 13.018 17.4386 12.8144 17.6457C12.4071 17.8528 11.9998 18.2669 11.5926 18.681C11.3889 19.0951 11.1853 19.5092 10.9817 20.1304C10.9817 20.7516 10.778 21.1657 10.778 21.5798L10.778 23.2363C10.778 23.2363 10.5744 23.4434 10.5744 23.6504C10.3708 23.8575 10.5744 24.0645 10.3708 24.2716C10.235 24.4096 10.2803 24.5477 10.3255 24.6857C10.3481 24.7547 10.3708 24.8237 10.3708 24.8928C10.3708 25.0998 10.3708 25.3069 10.5744 25.5139C10.5744 25.721 10.778 25.9281 10.778 25.9281C10.9817 26.1351 10.9817 26.1351 11.1853 26.1351C11.1853 26.5492 11.3889 26.7563 11.3889 26.9633C11.3889 27.1704 11.3889 27.3775 11.5926 27.5845L11.9998 27.9986L12.6108 28.6198C12.8144 28.8269 13.018 29.0339 13.018 29.4481L13.018 30.4833C12.8144 30.6904 12.8144 30.8975 12.6108 31.1045C12.4071 31.3116 12.2035 31.5186 11.7962 31.7257C11.3889 32.1398 10.9817 32.3469 10.5744 32.5539C10.1671 32.5539 9.55621 32.761 9.14894 32.9681C8.74167 32.9681 8.33439 33.3822 7.92712 33.5892C7.51985 33.7963 7.31621 34.2104 7.31621 34.8316L7.31621 37.3163C7.51985 37.9375 7.51985 38.1445 7.72348 38.3516C7.72348 38.3516 7.92712 38.5586 8.33439 38.5586C8.74167 38.5586 9.14894 38.7657 9.55621 38.7657C9.96348 38.7657 10.5744 38.9728 11.1853 38.9728C11.7962 38.9728 12.4071 39.1798 13.018 39.1798C13.6289 39.3869 14.2398 39.3869 14.8508 39.3869L17.9053 39.3869C18.5162 39.1798 19.1271 39.1798 19.738 39.1798C20.3489 39.1798 20.9598 38.9728 21.5708 38.9728C22.1817 38.9728 22.5889 38.7657 23.1998 38.7657C23.6071 38.7657 24.0144 38.7657 24.4217 38.5586C24.8289 38.3516 25.0326 38.3516 25.0326 38.1445ZM30.3271 22.8222L38.4726 22.8222C39.0835 22.8222 39.4908 22.4081 39.4908 21.7869C39.4908 21.1657 39.0835 20.7516 38.4726 20.7516L30.3271 20.7516C29.7162 20.7516 29.3089 21.1657 29.3089 21.7869C29.3089 22.4081 29.7162 22.8222 30.3271 22.8222ZM30.3271 29.0339L38.4726 29.0339C39.0835 29.0339 39.4908 28.6198 39.4908 27.9986C39.4908 27.3775 39.0835 26.9633 38.4726 26.9633L30.3271 26.9633C29.7162 26.9633 29.3089 27.3775 29.3089 27.9986C29.3089 28.6198 29.7162 29.0339 30.3271 29.0339ZM30.3271 35.2457L38.4726 35.2457C39.0835 35.2457 39.4908 34.8316 39.4908 34.2104C39.4908 33.5892 39.0835 33.1751 38.4726 33.1751L30.3271 33.1751C29.7162 33.1751 29.3089 33.5892 29.3089 34.2104C29.3089 34.8316 29.7162 35.2457 30.3271 35.2457Z" fill="url(#paint_linear_106)" fill-rule="evenodd" />
		<g id="编组">
			<g filter="url(#filter_32)">
				<rect id="矩形" width="25.6000004" height="25.6000004" x="29.6000977" y="23.9999695" rx="12.8000002" fill="url(#paint_linear_107)" />
				<rect id="矩形" width="25.6000004" height="25.6000004" x="29.6000977" y="23.9999695" rx="12.8000002" stroke="rgb(255,255,255)" stroke-width="0.997920036" />
			</g>
			<path id="合并" d="M39.7109 43.2051L37.6844 43.2051C37.461 43.2057 37.246 43.1633 37.0396 43.0779C36.8331 42.9924 36.6511 42.8705 36.4934 42.7121C36.4149 42.6341 36.3449 42.5491 36.2832 42.4572C36.2216 42.3653 36.1696 42.2683 36.1273 42.1661C36.0849 42.0638 36.053 41.9584 36.0316 41.8499C36.0102 41.7413 35.9997 41.6317 36 41.5211L36 39.4942C35.9995 39.2707 36.0421 39.0558 36.1276 38.8493C36.2131 38.6429 36.3351 38.4608 36.4934 38.3032L43.8003 30.9955C43.8949 30.9007 43.9979 30.8161 44.1092 30.7417C44.2206 30.6673 44.3381 30.6045 44.4619 30.5534C44.5857 30.5023 44.7133 30.4638 44.8447 30.438C44.9104 30.4251 44.9764 30.4155 45.0428 30.4091C45.1091 30.4028 45.1757 30.3997 45.2427 30.4C45.3096 30.3997 45.3762 30.4028 45.4425 30.4091L45.4425 30.4091C45.5088 30.4155 45.5748 30.4251 45.6405 30.438C45.7718 30.4638 45.8994 30.5023 46.0231 30.5534C46.1468 30.6045 46.2643 30.6673 46.3756 30.7417C46.4869 30.8161 46.5897 30.9007 46.6842 30.9955L48.1985 32.5089C48.2942 32.6041 48.3796 32.7078 48.4547 32.8199C48.5298 32.9321 48.5931 33.0505 48.6448 33.1752C48.6964 33.2999 48.7353 33.4285 48.7614 33.5609C48.7875 33.6933 48.8004 33.827 48.8 33.962C48.8004 34.0968 48.7875 34.2304 48.7614 34.3628C48.7352 34.4951 48.6964 34.6236 48.6448 34.7482C48.5932 34.8728 48.5299 34.9912 48.4549 35.1033C48.3798 35.2153 48.2945 35.319 48.199 35.4141L40.901 42.7112C40.7436 42.8697 40.5617 42.9917 40.3554 43.0773C40.1491 43.1629 39.9342 43.2055 39.7109 43.2051ZM37.7019 41.5032L39.7109 41.5032L44.367 36.843L42.3763 34.8265L37.6968 39.5065L37.7019 41.5032ZM43.5793 33.6234L45.569 35.64L46.996 34.2116C47.065 34.1427 47.0994 34.0595 47.099 33.962C47.0994 33.8643 47.0649 33.7811 46.9956 33.7123L45.4817 32.1988C45.416 32.1325 45.3365 32.0995 45.2431 32.0997C45.1495 32.0995 45.0697 32.1325 45.0036 32.1988L43.5793 33.6234Z" opacity="0" fill="rgb(41,204,204)" fill-rule="evenodd" />
			<path id="合并" d="M47.1958 41.7376C47.1403 41.8462 47.0776 41.9504 47.0078 42.0504C46.938 42.1503 46.8616 42.245 46.7788 42.3344C46.6959 42.4239 46.6073 42.5072 46.513 42.5845C46.4187 42.6617 46.3195 42.7321 46.2155 42.7958C46.1115 42.8594 46.0037 42.9156 45.892 42.9644C45.7802 43.0132 45.6657 43.0541 45.5483 43.0871C45.4897 43.1036 45.4307 43.1181 45.3712 43.1305L45.3708 43.1306L45.3705 43.1306C45.3111 43.143 45.2514 43.1533 45.1911 43.1616C45.0704 43.1783 44.949 43.1866 44.8271 43.1866L40.017 43.1866C39.8961 43.1866 39.7757 43.1783 39.6558 43.1619C39.536 43.1455 39.4178 43.1209 39.3013 43.0884C39.1848 43.0558 39.071 43.0155 38.96 42.9674C38.849 42.9193 38.7418 42.8639 38.6384 42.8012C38.5349 42.7384 38.4362 42.669 38.3423 42.5928C38.2483 42.5166 38.16 42.4344 38.0772 42.3461C37.9945 42.2579 37.9181 42.1644 37.8481 42.0658C37.7781 41.9671 37.7152 41.8641 37.6592 41.7569L35.5021 37.624C35.4527 37.5294 35.4091 37.4321 35.3715 37.3322C35.3526 37.2823 35.3353 37.2319 35.3195 37.181C35.3037 37.1301 35.2895 37.0787 35.2768 37.0269C35.2513 36.9232 35.2322 36.8184 35.2194 36.7124C35.2066 36.6064 35.2002 36.5 35.2002 36.3933C35.2002 36.2865 35.2066 36.1802 35.2194 36.0742C35.2322 35.9682 35.2513 35.8634 35.2768 35.7597C35.3022 35.656 35.3338 35.5542 35.3715 35.4543C35.4091 35.3544 35.4527 35.2572 35.5021 35.1625L37.6592 31.0289C37.6872 30.9753 37.7169 30.9227 37.7484 30.8713L37.7485 30.8712L37.7485 30.8712C37.78 30.8198 37.8132 30.7694 37.8482 30.7201C37.9182 30.6215 37.9946 30.5281 38.0773 30.4399C38.1187 30.3958 38.1615 30.3532 38.2056 30.3121L38.2057 30.3121L38.2057 30.3121C38.2499 30.271 38.2954 30.2314 38.3424 30.1933C38.4364 30.1172 38.5351 30.0477 38.6385 29.9851C38.742 29.9224 38.8492 29.867 38.9602 29.8189C39.0712 29.7709 39.1849 29.7306 39.3014 29.698C39.3596 29.6818 39.4183 29.6675 39.4773 29.6553C39.5364 29.643 39.5959 29.6328 39.6559 29.6246C39.7757 29.6082 39.8961 29.6 40.017 29.6L44.8271 29.6C45.8263 29.6 46.7409 30.1602 47.1958 31.0489L49.3086 35.1826C49.6974 35.9435 49.6974 36.8439 49.3086 37.604L47.1958 41.7376ZM48.378 35.6575L46.2652 31.5247C46.2315 31.4588 46.1935 31.3955 46.1511 31.3348C46.1087 31.2741 46.0623 31.2167 46.012 31.1624C45.9617 31.1081 45.9079 31.0575 45.8507 31.0106C45.7934 30.9637 45.7332 30.9209 45.6701 30.8823C45.6069 30.8437 45.5414 30.8096 45.4736 30.7799C45.4058 30.7503 45.3362 30.7255 45.265 30.7055C45.1937 30.6854 45.1214 30.6703 45.0481 30.6602C44.9748 30.6501 44.9011 30.6451 44.8271 30.6451L40.017 30.6451C39.415 30.6451 38.8632 30.9795 38.5856 31.513L36.4285 35.6458C36.3682 35.7612 36.3226 35.8821 36.2916 36.0085C36.2605 36.1349 36.245 36.2631 36.245 36.3933C36.245 36.5234 36.2605 36.6517 36.2916 36.7781C36.3071 36.8413 36.3263 36.9032 36.3491 36.9636C36.3719 37.024 36.3984 37.0831 36.4285 37.1408L38.5856 41.2736C38.6196 41.3387 38.6578 41.4012 38.7003 41.4611C38.7428 41.521 38.7892 41.5777 38.8394 41.6313C38.8896 41.6849 38.9433 41.7348 39.0003 41.7811C39.0574 41.8273 39.1173 41.8695 39.1801 41.9075C39.2429 41.9456 39.308 41.9792 39.3753 42.0084C39.4427 42.0376 39.5118 42.0621 39.5825 42.0819C39.6532 42.1016 39.725 42.1165 39.7977 42.1265C39.8705 42.1365 39.9436 42.1415 40.017 42.1415L44.8271 42.1415C45.4341 42.1415 45.9893 41.802 46.2652 41.2619L48.378 37.1282C48.4362 37.0145 48.4802 36.8955 48.5101 36.7713C48.54 36.647 48.555 36.521 48.555 36.3933C48.555 36.2655 48.54 36.1395 48.5101 36.0153C48.4802 35.8911 48.4362 35.7721 48.378 35.6584L48.378 35.6575ZM42.1028 39.4097C42.2016 39.4193 42.3006 39.4242 42.3999 39.4241C42.4495 39.4241 42.4989 39.4229 42.5484 39.4205C42.5979 39.418 42.6475 39.4143 42.6969 39.4095C42.7957 39.3997 42.8937 39.3851 42.9911 39.3657C43.0884 39.3463 43.1845 39.3222 43.2795 39.2934C43.3745 39.2646 43.4678 39.2311 43.5595 39.1931C43.6511 39.1551 43.7407 39.1127 43.8283 39.0659C43.872 39.0425 43.9152 39.0181 43.9577 38.9925C44.0002 38.9671 44.0421 38.9406 44.0833 38.913C44.1658 38.8578 44.2454 38.7988 44.3221 38.7358C44.3988 38.6728 44.4722 38.6062 44.5424 38.5361C44.6126 38.4659 44.6791 38.3924 44.7421 38.3157C44.805 38.239 44.864 38.1593 44.9192 38.0768C44.9743 37.9943 45.0252 37.9093 45.072 37.8217C45.1188 37.7342 45.1612 37.6446 45.1991 37.5529C45.2371 37.4612 45.2705 37.3679 45.2993 37.2729C45.3281 37.1779 45.3522 37.0818 45.3715 36.9845C45.3909 36.8871 45.4054 36.7891 45.4152 36.6903C45.4249 36.5915 45.4297 36.4925 45.4297 36.3933C45.4297 36.294 45.4249 36.195 45.4152 36.0963C45.4054 35.9975 45.3909 35.8995 45.3715 35.8021C45.3522 35.7048 45.3281 35.6086 45.2993 35.5137C45.2705 35.4187 45.2371 35.3254 45.1991 35.2337C45.1801 35.1878 45.16 35.1424 45.1388 35.0976C45.1177 35.0528 45.0954 35.0086 45.072 34.9648C45.0486 34.9211 45.0242 34.8779 44.9987 34.8354C44.9732 34.7929 44.9467 34.751 44.9192 34.7098C44.864 34.6272 44.805 34.5476 44.7421 34.4709C44.6791 34.3942 44.6126 34.3207 44.5424 34.2505C44.4722 34.1803 44.3988 34.1137 44.3221 34.0508C44.2454 33.9878 44.1658 33.9287 44.0833 33.8736C44.0008 33.8184 43.9158 33.7674 43.8283 33.7206C43.7407 33.6738 43.6511 33.6314 43.5595 33.5934C43.4678 33.5554 43.3745 33.522 43.2795 33.4932C43.1845 33.4643 43.0884 33.4402 42.9911 33.4208C42.8937 33.4015 42.7957 33.3869 42.6969 33.3771C42.6475 33.3722 42.5979 33.3686 42.5483 33.3661C42.4989 33.3637 42.4495 33.3624 42.3999 33.3624C42.3006 33.3624 42.2016 33.3672 42.1028 33.3769C42.004 33.3866 41.9059 33.4011 41.8085 33.4205C41.7111 33.4398 41.6149 33.4639 41.5199 33.4927C41.4249 33.5215 41.3315 33.5549 41.2397 33.5928C41.148 33.6308 41.0583 33.6732 40.9708 33.72C40.8832 33.7668 40.7981 33.8177 40.7156 33.8729C40.633 33.928 40.5533 33.9871 40.4766 34.05C40.3998 34.113 40.3263 34.1796 40.2561 34.2498C40.1859 34.32 40.1193 34.3934 40.0563 34.4702C39.9933 34.5469 39.9342 34.6266 39.879 34.7091C39.8239 34.7916 39.7729 34.8767 39.7261 34.9643C39.6792 35.0518 39.6368 35.1415 39.5988 35.2332C39.5608 35.3249 39.5274 35.4183 39.4986 35.5133C39.4698 35.6083 39.4457 35.7045 39.4263 35.8019C39.4069 35.8992 39.3924 35.9973 39.3826 36.0961C39.3729 36.195 39.368 36.294 39.368 36.3933C39.368 36.4926 39.3729 36.5916 39.3826 36.6904C39.3924 36.7892 39.4069 36.8873 39.4263 36.9847C39.4457 37.0821 39.4698 37.1783 39.4986 37.2733C39.5274 37.3683 39.5608 37.4617 39.5988 37.5534C39.6368 37.6451 39.6792 37.7348 39.7261 37.8223C39.7729 37.9099 39.8239 37.9949 39.879 38.0775C39.9067 38.1188 39.9353 38.1594 39.9649 38.1993C39.9944 38.2391 40.0248 38.2781 40.0563 38.3164C40.1193 38.3931 40.1859 38.4666 40.2561 38.5368C40.3263 38.607 40.3998 38.6736 40.4766 38.7365C40.5533 38.7995 40.633 38.8586 40.7156 38.9137C40.7981 38.9689 40.8832 39.0198 40.9708 39.0666C41.0146 39.09 41.0589 39.1123 41.1037 39.1335C41.1486 39.1547 41.1939 39.1748 41.2397 39.1937C41.3315 39.2317 41.4249 39.2651 41.5199 39.2939C41.6149 39.3227 41.7111 39.3467 41.8085 39.3661C41.9059 39.3854 42.004 39.4 42.1028 39.4097ZM42.5946 38.3695C42.5298 38.3758 42.465 38.379 42.3999 38.379C42.3675 38.379 42.3351 38.3782 42.3028 38.3766C42.2702 38.3751 42.2377 38.3727 42.2053 38.3695C42.1406 38.3631 42.0763 38.3536 42.0125 38.3409C41.9487 38.3282 41.8857 38.3124 41.8235 38.2935C41.7613 38.2746 41.7001 38.2528 41.64 38.2279C41.5799 38.203 41.5212 38.1752 41.4639 38.1446C41.4065 38.1139 41.3508 38.0805 41.2967 38.0444C41.2426 38.0082 41.1905 37.9695 41.1402 37.9283C41.115 37.9076 41.0904 37.8864 41.0663 37.8646C41.0423 37.8428 41.0188 37.8204 40.9958 37.7974C40.9498 37.7514 40.9062 37.7033 40.8649 37.653C40.8237 37.6028 40.785 37.5506 40.7488 37.4965C40.7127 37.4424 40.6793 37.3867 40.6487 37.3294C40.618 37.272 40.5902 37.2133 40.5653 37.1532C40.5405 37.0931 40.5186 37.032 40.4997 36.9697C40.4808 36.9075 40.465 36.8445 40.4523 36.7807C40.4397 36.7169 40.4301 36.6526 40.4238 36.5879C40.4174 36.5232 40.4142 36.4583 40.4142 36.3933C40.4142 36.3606 40.415 36.328 40.4166 36.2955C40.4182 36.2632 40.4206 36.2309 40.4238 36.1987C40.4301 36.1339 40.4397 36.0697 40.4523 36.0059C40.465 35.9421 40.4808 35.8791 40.4997 35.8169C40.5186 35.7546 40.5405 35.6935 40.5653 35.6334C40.5902 35.5733 40.618 35.5146 40.6487 35.4572C40.6793 35.3999 40.7127 35.3441 40.7488 35.2901C40.7669 35.2631 40.7856 35.2365 40.8049 35.2104C40.8243 35.1843 40.8443 35.1587 40.8649 35.1335C40.9062 35.0833 40.9498 35.0351 40.9958 34.9892C41.0418 34.9432 41.0899 34.8996 41.1402 34.8583C41.1905 34.817 41.2426 34.7783 41.2967 34.7422C41.3508 34.7061 41.4065 34.6727 41.4639 34.642C41.5212 34.6114 41.5799 34.5836 41.64 34.5587C41.7001 34.5338 41.7613 34.5119 41.8235 34.4931C41.8857 34.4742 41.9487 34.4584 42.0125 34.4457C42.0763 34.433 42.1406 34.4235 42.2053 34.4171C42.27 34.4107 42.3349 34.4076 42.3999 34.4076C42.4324 34.4076 42.4647 34.4083 42.4971 34.4099C42.5296 34.4115 42.5621 34.4139 42.5946 34.4171C42.6593 34.4235 42.7235 34.433 42.7873 34.4457C42.8511 34.4584 42.9141 34.4742 42.9764 34.4931C43.0386 34.5119 43.0998 34.5338 43.1598 34.5587C43.2199 34.5836 43.2786 34.6114 43.336 34.642C43.3934 34.6727 43.4491 34.7061 43.5031 34.7422C43.5572 34.7783 43.6094 34.817 43.6597 34.8583C43.7099 34.8996 43.7581 34.9432 43.8041 34.9892C43.85 35.0351 43.8937 35.0833 43.9349 35.1335C43.9762 35.1838 44.0149 35.236 44.051 35.2901C44.0871 35.3441 44.1205 35.3999 44.1512 35.4572C44.1818 35.5146 44.2096 35.5733 44.2345 35.6334C44.2594 35.6935 44.2813 35.7546 44.3002 35.8169C44.319 35.8791 44.3348 35.9421 44.3475 36.0059C44.3602 36.0697 44.3697 36.1339 44.3761 36.1987C44.3825 36.2634 44.3857 36.3283 44.3857 36.3933C44.3857 36.4257 44.3849 36.4581 44.3833 36.4905C44.3817 36.523 44.3793 36.5555 44.3761 36.5879C44.3697 36.6526 44.3602 36.7169 44.3475 36.7807C44.3348 36.8445 44.319 36.9075 44.3002 36.9697C44.2813 37.032 44.2594 37.0931 44.2345 37.1532C44.2096 37.2133 44.1818 37.272 44.1512 37.3294C44.1205 37.3867 44.0871 37.4424 44.051 37.4965C44.0149 37.5506 43.9762 37.6028 43.9349 37.653C43.8937 37.7033 43.85 37.7514 43.8041 37.7974C43.7581 37.8434 43.7099 37.887 43.6597 37.9283C43.6094 37.9695 43.5572 38.0082 43.5031 38.0444C43.4491 38.0805 43.3934 38.1139 43.336 38.1446C43.2786 38.1752 43.2199 38.203 43.1598 38.2279C43.0998 38.2528 43.0386 38.2746 42.9764 38.2935C42.9141 38.3124 42.8511 38.3282 42.7873 38.3409C42.7235 38.3536 42.6593 38.3631 42.5946 38.3695Z" opacity="0" fill="rgb(41,204,204)" fill-rule="evenodd" />
			<path id="合并" d="M47.0078 42.0504C46.938 42.1503 46.8616 42.245 46.7788 42.3344C46.6959 42.4239 46.6073 42.5072 46.513 42.5845C46.4187 42.6617 46.3195 42.7321 46.2155 42.7958C46.1115 42.8594 46.0037 42.9156 45.892 42.9644C45.7802 43.0132 45.6657 43.0541 45.5483 43.0871C45.4897 43.1036 45.4307 43.1181 45.3712 43.1305L45.3708 43.1306L45.3705 43.1306C45.3111 43.143 45.2514 43.1533 45.1911 43.1616C45.0704 43.1783 44.949 43.1866 44.8271 43.1866L40.017 43.1866C39.8961 43.1866 39.7757 43.1783 39.6558 43.1619C39.536 43.1455 39.4178 43.1209 39.3013 43.0884C39.1848 43.0558 39.071 43.0155 38.96 42.9674C38.849 42.9193 38.7418 42.8639 38.6384 42.8012C38.5349 42.7384 38.4362 42.669 38.3423 42.5928C38.2483 42.5166 38.16 42.4344 38.0772 42.3461C37.9945 42.2579 37.9181 42.1644 37.8481 42.0658C37.7781 41.9671 37.7152 41.8641 37.6592 41.7569L35.5021 37.624C35.4527 37.5294 35.4091 37.4321 35.3715 37.3322C35.3526 37.2823 35.3353 37.2319 35.3195 37.181C35.3037 37.1301 35.2895 37.0787 35.2768 37.0269C35.2513 36.9232 35.2322 36.8184 35.2194 36.7124C35.2066 36.6064 35.2002 36.5 35.2002 36.3933C35.2002 36.2865 35.2066 36.1802 35.2194 36.0742C35.2322 35.9682 35.2513 35.8634 35.2768 35.7597C35.3022 35.656 35.3338 35.5542 35.3715 35.4543C35.4091 35.3544 35.4527 35.2572 35.5021 35.1625L37.6592 31.0289C37.6872 30.9753 37.7169 30.9227 37.7484 30.8713L37.7485 30.8712L37.7485 30.8712C37.78 30.8198 37.8132 30.7694 37.8482 30.7201C37.9182 30.6215 37.9946 30.5281 38.0773 30.4399C38.1187 30.3958 38.1615 30.3532 38.2056 30.3121L38.2057 30.3121L38.2057 30.3121C38.2499 30.271 38.2954 30.2314 38.3424 30.1933C38.4364 30.1172 38.5351 30.0477 38.6385 29.9851C38.742 29.9224 38.8492 29.867 38.9602 29.8189C39.0712 29.7709 39.1849 29.7306 39.3014 29.698C39.3596 29.6818 39.4183 29.6675 39.4773 29.6553C39.5364 29.643 39.5959 29.6328 39.6559 29.6246C39.7757 29.6082 39.8961 29.6 40.017 29.6L44.8271 29.6C45.8263 29.6 46.7409 30.1602 47.1958 31.0489L49.3086 35.1826C49.6974 35.9435 49.6974 36.8439 49.3086 37.604L47.1958 41.7376C47.1403 41.8462 47.0776 41.9504 47.0078 42.0504ZM46.2652 31.5247C46.2315 31.4588 46.1935 31.3955 46.1511 31.3348C46.1087 31.2741 46.0623 31.2167 46.012 31.1624C45.9617 31.1081 45.9079 31.0575 45.8507 31.0106C45.7934 30.9637 45.7332 30.9209 45.6701 30.8823C45.6069 30.8437 45.5414 30.8096 45.4736 30.7799C45.4058 30.7503 45.3362 30.7255 45.265 30.7055C45.1937 30.6854 45.1214 30.6703 45.0481 30.6602C44.9748 30.6501 44.9011 30.6451 44.8271 30.6451L40.017 30.6451C39.415 30.6451 38.8632 30.9795 38.5856 31.513L36.4285 35.6458C36.3682 35.7612 36.3226 35.8821 36.2916 36.0085C36.2605 36.1349 36.245 36.2631 36.245 36.3933C36.245 36.5234 36.2605 36.6517 36.2916 36.7781C36.3071 36.8413 36.3263 36.9032 36.3491 36.9636C36.3719 37.024 36.3984 37.0831 36.4285 37.1408L38.5856 41.2736C38.6196 41.3387 38.6578 41.4012 38.7003 41.4611C38.7428 41.521 38.7892 41.5777 38.8394 41.6313C38.8896 41.6849 38.9433 41.7348 39.0003 41.7811C39.0574 41.8273 39.1173 41.8695 39.1801 41.9075C39.2429 41.9456 39.308 41.9792 39.3753 42.0084C39.4427 42.0376 39.5118 42.0621 39.5825 42.0819C39.6532 42.1016 39.725 42.1165 39.7977 42.1265C39.8705 42.1365 39.9436 42.1415 40.017 42.1415L44.8271 42.1415C45.4341 42.1415 45.9893 41.802 46.2652 41.2619L48.378 37.1282C48.4362 37.0145 48.4802 36.8955 48.5101 36.7713C48.54 36.647 48.555 36.521 48.555 36.3933C48.555 36.2655 48.54 36.1395 48.5101 36.0153C48.4802 35.8911 48.4362 35.7721 48.378 35.6584L48.378 35.6575L46.2652 31.5247ZM42.3999 39.4241C42.4495 39.4241 42.4989 39.4229 42.5484 39.4205C42.5979 39.418 42.6475 39.4143 42.6969 39.4095C42.7957 39.3997 42.8937 39.3851 42.9911 39.3657C43.0884 39.3463 43.1845 39.3222 43.2795 39.2934C43.3745 39.2646 43.4678 39.2311 43.5595 39.1931C43.6511 39.1551 43.7407 39.1127 43.8283 39.0659C43.872 39.0425 43.9152 39.0181 43.9577 38.9925C44.0002 38.9671 44.0421 38.9406 44.0833 38.913C44.1658 38.8578 44.2454 38.7988 44.3221 38.7358C44.3988 38.6728 44.4722 38.6062 44.5424 38.5361C44.6126 38.4659 44.6791 38.3924 44.7421 38.3157C44.805 38.239 44.864 38.1593 44.9192 38.0768C44.9743 37.9943 45.0252 37.9093 45.072 37.8217C45.1188 37.7342 45.1612 37.6446 45.1991 37.5529C45.2371 37.4612 45.2705 37.3679 45.2993 37.2729C45.3281 37.1779 45.3522 37.0818 45.3715 36.9845C45.3909 36.8871 45.4054 36.7891 45.4152 36.6903C45.4249 36.5915 45.4297 36.4925 45.4297 36.3933C45.4297 36.294 45.4249 36.195 45.4152 36.0963C45.4054 35.9975 45.3909 35.8995 45.3715 35.8021C45.3522 35.7048 45.3281 35.6086 45.2993 35.5137C45.2705 35.4187 45.2371 35.3254 45.1991 35.2337C45.1801 35.1878 45.16 35.1424 45.1388 35.0976C45.1177 35.0528 45.0954 35.0086 45.072 34.9648C45.0486 34.9211 45.0242 34.8779 44.9987 34.8354C44.9732 34.7929 44.9467 34.751 44.9192 34.7098C44.864 34.6272 44.805 34.5476 44.7421 34.4709C44.6791 34.3942 44.6126 34.3207 44.5424 34.2505C44.4722 34.1803 44.3988 34.1137 44.3221 34.0508C44.2454 33.9878 44.1658 33.9287 44.0833 33.8736C44.0008 33.8184 43.9158 33.7674 43.8283 33.7206C43.7407 33.6738 43.6511 33.6314 43.5595 33.5934C43.4678 33.5554 43.3745 33.522 43.2795 33.4932C43.1845 33.4643 43.0884 33.4402 42.9911 33.4208C42.8937 33.4015 42.7957 33.3869 42.6969 33.3771C42.6475 33.3722 42.5979 33.3686 42.5483 33.3661C42.4989 33.3637 42.4495 33.3624 42.3999 33.3624C42.3006 33.3624 42.2016 33.3672 42.1028 33.3769C42.004 33.3866 41.9059 33.4011 41.8085 33.4205C41.7111 33.4398 41.6149 33.4639 41.5199 33.4927C41.4249 33.5215 41.3315 33.5549 41.2397 33.5928C41.148 33.6308 41.0583 33.6732 40.9708 33.72C40.8832 33.7668 40.7981 33.8177 40.7156 33.8729C40.633 33.928 40.5533 33.9871 40.4766 34.05C40.3998 34.113 40.3263 34.1796 40.2561 34.2498C40.1859 34.32 40.1193 34.3934 40.0563 34.4702C39.9933 34.5469 39.9342 34.6266 39.879 34.7091C39.8239 34.7916 39.7729 34.8767 39.7261 34.9643C39.6792 35.0518 39.6368 35.1415 39.5988 35.2332C39.5608 35.3249 39.5274 35.4183 39.4986 35.5133C39.4698 35.6083 39.4457 35.7045 39.4263 35.8019C39.4069 35.8992 39.3924 35.9973 39.3826 36.0961C39.3729 36.195 39.368 36.294 39.368 36.3933C39.368 36.4926 39.3729 36.5916 39.3826 36.6904C39.3924 36.7892 39.4069 36.8873 39.4263 36.9847C39.4457 37.0821 39.4698 37.1783 39.4986 37.2733C39.5274 37.3683 39.5608 37.4617 39.5988 37.5534C39.6368 37.6451 39.6792 37.7348 39.7261 37.8223C39.7729 37.9099 39.8239 37.9949 39.879 38.0775C39.9067 38.1188 39.9353 38.1594 39.9649 38.1993C39.9944 38.2391 40.0248 38.2781 40.0563 38.3164C40.1193 38.3931 40.1859 38.4666 40.2561 38.5368C40.3263 38.607 40.3998 38.6736 40.4766 38.7365C40.5533 38.7995 40.633 38.8586 40.7156 38.9137C40.7981 38.9689 40.8832 39.0198 40.9708 39.0666C41.0146 39.09 41.0589 39.1123 41.1037 39.1335C41.1486 39.1547 41.1939 39.1748 41.2397 39.1937C41.3315 39.2317 41.4249 39.2651 41.5199 39.2939C41.6149 39.3227 41.7111 39.3467 41.8085 39.3661C41.9059 39.3854 42.004 39.4 42.1028 39.4097C42.2016 39.4193 42.3006 39.4242 42.3999 39.4241ZM42.3999 38.379C42.3675 38.379 42.3351 38.3782 42.3028 38.3766C42.2702 38.3751 42.2377 38.3727 42.2053 38.3695C42.1406 38.3631 42.0763 38.3536 42.0125 38.3409C41.9487 38.3282 41.8857 38.3124 41.8235 38.2935C41.7613 38.2746 41.7001 38.2528 41.64 38.2279C41.5799 38.203 41.5212 38.1752 41.4639 38.1446C41.4065 38.1139 41.3508 38.0805 41.2967 38.0444C41.2426 38.0082 41.1905 37.9695 41.1402 37.9283C41.115 37.9076 41.0904 37.8864 41.0663 37.8646C41.0423 37.8428 41.0188 37.8204 40.9958 37.7974C40.9498 37.7514 40.9062 37.7033 40.8649 37.653C40.8237 37.6028 40.785 37.5506 40.7488 37.4965C40.7127 37.4424 40.6793 37.3867 40.6487 37.3294C40.618 37.272 40.5902 37.2133 40.5653 37.1532C40.5405 37.0931 40.5186 37.032 40.4997 36.9697C40.4808 36.9075 40.465 36.8445 40.4523 36.7807C40.4397 36.7169 40.4301 36.6526 40.4238 36.5879C40.4174 36.5232 40.4142 36.4583 40.4142 36.3933C40.4142 36.3606 40.415 36.328 40.4166 36.2955C40.4182 36.2632 40.4206 36.2309 40.4238 36.1987C40.4301 36.1339 40.4397 36.0697 40.4523 36.0059C40.465 35.9421 40.4808 35.8791 40.4997 35.8169C40.5186 35.7546 40.5405 35.6935 40.5653 35.6334C40.5902 35.5733 40.618 35.5146 40.6487 35.4572C40.6793 35.3999 40.7127 35.3441 40.7488 35.2901C40.7669 35.2631 40.7856 35.2365 40.8049 35.2104C40.8243 35.1843 40.8443 35.1587 40.8649 35.1335C40.9062 35.0833 40.9498 35.0351 40.9958 34.9892C41.0418 34.9432 41.0899 34.8996 41.1402 34.8583C41.1905 34.817 41.2426 34.7783 41.2967 34.7422C41.3508 34.7061 41.4065 34.6727 41.4639 34.642C41.5212 34.6114 41.5799 34.5836 41.64 34.5587C41.7001 34.5338 41.7613 34.5119 41.8235 34.4931C41.8857 34.4742 41.9487 34.4584 42.0125 34.4457C42.0763 34.433 42.1406 34.4235 42.2053 34.4171C42.27 34.4107 42.3349 34.4076 42.3999 34.4076C42.4324 34.4076 42.4647 34.4083 42.4971 34.4099C42.5296 34.4115 42.5621 34.4139 42.5946 34.4171C42.6593 34.4235 42.7235 34.433 42.7873 34.4457C42.8511 34.4584 42.9141 34.4742 42.9764 34.4931C43.0386 34.5119 43.0998 34.5338 43.1598 34.5587C43.2199 34.5836 43.2786 34.6114 43.336 34.642C43.3934 34.6727 43.4491 34.7061 43.5031 34.7422C43.5572 34.7783 43.6094 34.817 43.6597 34.8583C43.7099 34.8996 43.7581 34.9432 43.8041 34.9892C43.85 35.0351 43.8937 35.0833 43.9349 35.1335C43.9762 35.1838 44.0149 35.236 44.051 35.2901C44.0871 35.3441 44.1205 35.3999 44.1512 35.4572C44.1818 35.5146 44.2096 35.5733 44.2345 35.6334C44.2594 35.6935 44.2813 35.7546 44.3002 35.8169C44.319 35.8791 44.3348 35.9421 44.3475 36.0059C44.3602 36.0697 44.3697 36.1339 44.3761 36.1987C44.3825 36.2634 44.3857 36.3283 44.3857 36.3933C44.3857 36.4257 44.3849 36.4581 44.3833 36.4905C44.3817 36.523 44.3793 36.5555 44.3761 36.5879C44.3697 36.6526 44.3602 36.7169 44.3475 36.7807C44.3348 36.8445 44.319 36.9075 44.3002 36.9697C44.2813 37.032 44.2594 37.0931 44.2345 37.1532C44.2096 37.2133 44.1818 37.272 44.1512 37.3294C44.1205 37.3867 44.0871 37.4424 44.051 37.4965C44.0149 37.5506 43.9762 37.6028 43.9349 37.653C43.8937 37.7033 43.85 37.7514 43.8041 37.7974C43.7581 37.8434 43.7099 37.887 43.6597 37.9283C43.6094 37.9695 43.5572 38.0082 43.5031 38.0444C43.4491 38.0805 43.3934 38.1139 43.336 38.1446C43.2786 38.1752 43.2199 38.203 43.1598 38.2279C43.0998 38.2528 43.0386 38.2746 42.9764 38.2935C42.9141 38.3124 42.8511 38.3282 42.7873 38.3409C42.7235 38.3536 42.6593 38.3631 42.5946 38.3695C42.5298 38.3758 42.465 38.379 42.3999 38.379Z" opacity="0" fill-rule="evenodd" stroke="rgb(41,204,204)" stroke-width="0.960000038" />
			<path id="矢量 84" d="M47.1957 41.7377C47.1402 41.8463 47.0775 41.9504 47.0078 42.0504C46.9379 42.1504 46.8615 42.2449 46.7787 42.3344C46.6959 42.4238 46.6074 42.5072 46.513 42.5845C46.4187 42.6617 46.3195 42.7322 46.2156 42.7957C46.1115 42.8594 46.0037 42.9156 45.892 42.9644C45.7802 43.0131 45.6656 43.0541 45.5482 43.0871C45.4896 43.1037 45.4306 43.1181 45.3711 43.1304L45.3709 43.1306L45.3705 43.1306C45.3111 43.1429 45.2513 43.1533 45.1912 43.1617C45.0703 43.1783 44.949 43.1867 44.8271 43.1867L40.017 43.1867C39.8961 43.1865 39.7756 43.1783 39.6558 43.1619C39.5359 43.1455 39.4178 43.1209 39.3014 43.0885C39.1848 43.0558 39.0711 43.0154 38.9599 42.9674C38.849 42.9193 38.7418 42.8638 38.6383 42.8011C38.535 42.7385 38.4363 42.6689 38.3422 42.5928C38.2482 42.5166 38.16 42.4343 38.0771 42.3461C37.9945 42.2578 37.9182 42.1644 37.848 42.0658C37.7781 41.9672 37.7152 41.864 37.6592 41.7568L35.5021 37.624C35.4527 37.5295 35.4092 37.4322 35.3715 37.3322C35.3525 37.2824 35.3354 37.2318 35.3195 37.181C35.3037 37.1301 35.2895 37.0787 35.2768 37.0269C35.2514 36.9232 35.2322 36.8183 35.2193 36.7125C35.2066 36.6064 35.2002 36.5 35.2002 36.3933C35.2002 36.2865 35.2066 36.1802 35.2193 36.0742C35.2322 35.9681 35.2514 35.8635 35.2768 35.7597C35.3021 35.656 35.3338 35.5543 35.3715 35.4543C35.4092 35.3545 35.4527 35.2572 35.5021 35.1625L37.6592 31.0289C37.6873 30.9754 37.717 30.9228 37.7484 30.8713L37.7484 30.8713L37.7484 30.8713C37.7799 30.8197 37.8133 30.7693 37.8482 30.7201C37.9182 30.6215 37.9945 30.5281 38.0773 30.4398C38.1187 30.3957 38.1615 30.3531 38.2057 30.3121L38.2057 30.3121L38.2057 30.3121C38.2498 30.2711 38.2955 30.2314 38.3424 30.1933C38.4363 30.1172 38.5351 30.0478 38.6385 29.9851C38.742 29.9224 38.8492 29.867 38.9601 29.8189C39.0711 29.7709 39.1849 29.7306 39.3014 29.698C39.3596 29.6818 39.4183 29.6676 39.4773 29.6552C39.5365 29.6431 39.5959 29.6328 39.6558 29.6246C39.7758 29.6082 39.8961 29.6 40.017 29.6L44.8271 29.6C45.8261 29.6 46.741 30.1601 47.1957 31.049L49.3085 35.1826C49.6974 35.9435 49.6974 36.8439 49.3085 37.6039L47.1957 41.7377ZM48.3779 35.6576L46.2652 31.5246C46.2314 31.4588 46.1935 31.3955 46.1509 31.3347C46.1086 31.2742 46.0623 31.2166 46.0121 31.1623C45.9617 31.108 45.908 31.0574 45.8506 31.0105C45.7933 30.9636 45.7332 30.9209 45.6701 30.8822C45.6068 30.8437 45.5414 30.8095 45.4736 30.7799C45.4058 30.7504 45.3361 30.7256 45.265 30.7054C45.1937 30.6853 45.1215 30.6703 45.048 30.6601C44.9748 30.6502 44.9011 30.6451 44.8271 30.6451L40.017 30.6451C39.415 30.6451 38.8633 30.9795 38.5855 31.5131L36.4285 35.6459C36.3682 35.7611 36.3227 35.882 36.2916 36.0084C36.2605 36.1349 36.2451 36.2631 36.2451 36.3933C36.2451 36.5234 36.2605 36.6517 36.2916 36.7781C36.307 36.8414 36.3262 36.9031 36.349 36.9636C36.3719 37.024 36.3984 37.0832 36.4285 37.1408L38.5855 41.2736C38.6195 41.3386 38.6578 41.4011 38.7004 41.4611C38.7428 41.5211 38.7891 41.5777 38.8394 41.6312C38.8896 41.6849 38.9433 41.7347 39.0004 41.781C39.0574 41.8273 39.1172 41.8695 39.1801 41.9076C39.2428 41.9457 39.308 41.9793 39.3754 42.0084C39.4428 42.0377 39.5117 42.0621 39.5824 42.0818C39.6533 42.1017 39.725 42.1166 39.7976 42.1265C39.8705 42.1365 39.9435 42.1414 40.017 42.1414L44.8271 42.1414C45.4341 42.1414 45.9892 41.8019 46.2652 41.2619L48.3779 37.1283C48.4361 37.0144 48.4802 36.8955 48.5101 36.7713C48.54 36.647 48.555 36.5211 48.555 36.3933C48.555 36.2656 48.54 36.1396 48.5101 36.0154C48.4802 35.8912 48.4361 35.772 48.3779 35.6584L48.3779 35.6576ZM42.1027 39.4097C42.2015 39.4193 42.3006 39.4242 42.4 39.4242C42.4494 39.4242 42.499 39.4228 42.5484 39.4205C42.5978 39.4179 42.6474 39.4144 42.6968 39.4095C42.7957 39.3998 42.8937 39.3851 42.991 39.3658C43.0885 39.3463 43.1845 39.3222 43.2795 39.2933C43.3744 39.2646 43.4677 39.2312 43.5593 39.1931C43.6511 39.1551 43.7408 39.1127 43.8283 39.066C43.872 39.0426 43.9152 39.0181 43.9578 38.9926C44.0002 38.9672 44.042 38.9406 44.0832 38.9131C44.1658 38.8578 44.2453 38.7988 44.322 38.7357C44.3988 38.6728 44.4722 38.6062 44.5424 38.5361C44.6125 38.4658 44.6791 38.3924 44.742 38.3156C44.805 38.239 44.864 38.1594 44.9191 38.0767C44.9742 37.9943 45.0252 37.9094 45.072 37.8217C45.1187 37.7342 45.1611 37.6445 45.1992 37.5529C45.2371 37.4613 45.2705 37.3679 45.2992 37.2728C45.3281 37.1779 45.3521 37.0818 45.3715 36.9845C45.3908 36.8871 45.4054 36.789 45.4152 36.6902C45.4248 36.5916 45.4297 36.4926 45.4297 36.3933C45.4297 36.2941 45.4248 36.1951 45.4152 36.0963C45.4054 35.9974 45.3908 35.8994 45.3715 35.8021C45.3521 35.7049 45.3281 35.6086 45.2992 35.5136C45.2705 35.4187 45.2371 35.3254 45.1992 35.2338C45.18 35.1879 45.1599 35.1424 45.1388 35.0976C45.1175 35.0529 45.0953 35.0086 45.072 34.9648C45.0486 34.9211 45.0242 34.8779 44.9986 34.8353C44.9732 34.7929 44.9466 34.751 44.9191 34.7097C44.864 34.6273 44.805 34.5476 44.742 34.4709C44.6791 34.3941 44.6125 34.3207 44.5424 34.2506C44.4722 34.1802 44.3988 34.1138 44.322 34.0508C44.2453 33.9879 44.1658 33.9287 44.0832 33.8736C44.0008 33.8183 43.9158 33.7674 43.8283 33.7207C43.7408 33.6738 43.6511 33.6314 43.5593 33.5935C43.4677 33.5554 43.3744 33.522 43.2795 33.4931C43.1845 33.4644 43.0885 33.4402 42.991 33.4209C42.8937 33.4015 42.7957 33.3869 42.6968 33.3771C42.6474 33.3722 42.5978 33.3685 42.5482 33.3662C42.4988 33.3636 42.4494 33.3625 42.4 33.3625C42.3006 33.3625 42.2015 33.3672 42.1027 33.3769C42.0039 33.3867 41.9058 33.4011 41.8084 33.4205C41.7111 33.4398 41.6148 33.4638 41.5199 33.4927C41.4248 33.5215 41.3314 33.5549 41.2396 33.5928C41.148 33.6308 41.0584 33.6732 40.9707 33.7199C40.8832 33.7668 40.798 33.8177 40.7156 33.8728C40.633 33.9279 40.5533 33.9871 40.4765 34.05C40.3998 34.1131 40.3264 34.1797 40.256 34.2498C40.1859 34.3199 40.1193 34.3935 40.0562 34.4701C39.9933 34.5469 39.9342 34.6265 39.8791 34.7092C39.8238 34.7916 39.7728 34.8767 39.726 34.9642C39.6793 35.0517 39.6369 35.1414 39.5988 35.2332C39.5607 35.325 39.5273 35.4183 39.4986 35.5133C39.4697 35.6084 39.4457 35.7045 39.4264 35.8019C39.4068 35.8992 39.3924 35.9972 39.3826 36.0961C39.3728 36.1949 39.368 36.2939 39.368 36.3933C39.368 36.4926 39.3728 36.5916 39.3826 36.6904C39.3924 36.7892 39.4068 36.8873 39.4264 36.9847C39.4457 37.082 39.4697 37.1783 39.4986 37.2732C39.5273 37.3683 39.5607 37.4617 39.5988 37.5533C39.6369 37.6451 39.6793 37.7347 39.726 37.8222C39.7728 37.9099 39.8238 37.9949 39.8791 38.0775C39.9066 38.1187 39.9353 38.1594 39.9648 38.1994C39.9943 38.239 40.0248 38.2781 40.0562 38.3164C40.1193 38.3931 40.1859 38.4666 40.256 38.5369C40.3264 38.607 40.3998 38.6736 40.4765 38.7365C40.5533 38.7996 40.633 38.8586 40.7156 38.9136C40.798 38.9689 40.8832 39.0199 40.9707 39.0666C41.0146 39.09 41.059 39.1123 41.1037 39.1336C41.1486 39.1547 41.1939 39.1748 41.2396 39.1937C41.3314 39.2316 41.4248 39.265 41.5199 39.2939C41.6148 39.3226 41.7111 39.3467 41.8084 39.3662C41.9058 39.3855 42.0039 39.4 42.1027 39.4097ZM42.5945 38.3695C42.5299 38.3758 42.465 38.3791 42.4 38.3791C42.3676 38.3791 42.3351 38.3783 42.3027 38.3767C42.2703 38.375 42.2377 38.3726 42.2052 38.3695C42.1406 38.3631 42.0763 38.3535 42.0125 38.3408C41.9488 38.3281 41.8857 38.3125 41.8234 38.2935C41.7613 38.2746 41.7002 38.2527 41.64 38.2279C41.5799 38.2029 41.5213 38.1752 41.4638 38.1445C41.4064 38.1138 41.3508 38.0804 41.2967 38.0443C41.2426 38.0082 41.1904 37.9695 41.1402 37.9283C41.115 37.9076 41.0904 37.8863 41.0664 37.8646C41.0422 37.8428 41.0187 37.8205 40.9957 37.7974C40.9498 37.7513 40.9062 37.7033 40.8648 37.6531C40.8236 37.6027 40.7849 37.5506 40.7488 37.4965C40.7127 37.4424 40.6793 37.3867 40.6486 37.3293C40.618 37.272 40.5902 37.2133 40.5654 37.1531C40.5404 37.0931 40.5185 37.032 40.4996 36.9697C40.4808 36.9074 40.465 36.8445 40.4523 36.7806C40.4396 36.717 40.4301 36.6527 40.4238 36.5879C40.4174 36.5232 40.4142 36.4584 40.4142 36.3933C40.4142 36.3607 40.415 36.3281 40.4166 36.2955C40.4181 36.2633 40.4205 36.2308 40.4238 36.1986C40.4301 36.134 40.4396 36.0697 40.4523 36.0058C40.465 35.9422 40.4808 35.8791 40.4996 35.8168C40.5185 35.7547 40.5404 35.6935 40.5654 35.6334C40.5902 35.5732 40.618 35.5146 40.6486 35.4572C40.6793 35.3998 40.7127 35.3441 40.7488 35.29C40.767 35.2631 40.7855 35.2365 40.8049 35.2105C40.8242 35.1843 40.8443 35.1588 40.8648 35.1336C40.9062 35.0832 40.9498 35.0351 40.9957 34.9892C41.0418 34.9431 41.0898 34.8996 41.1402 34.8584C41.1904 34.817 41.2426 34.7783 41.2967 34.7422C41.3508 34.706 41.4064 34.6726 41.4638 34.642C41.5213 34.6113 41.5799 34.5836 41.64 34.5588C41.7002 34.5338 41.7613 34.5119 41.8234 34.4931C41.8857 34.4742 41.9488 34.4584 42.0125 34.4457C42.0763 34.433 42.1406 34.4234 42.2052 34.4172C42.2699 34.4107 42.3349 34.4076 42.4 34.4076C42.4324 34.4076 42.4646 34.4084 42.497 34.4099C42.5297 34.4115 42.5621 34.4138 42.5945 34.4172C42.6594 34.4234 42.7236 34.433 42.7873 34.4457C42.8511 34.4584 42.914 34.4742 42.9763 34.4931C43.0386 34.5119 43.0998 34.5338 43.1597 34.5588C43.2199 34.5836 43.2787 34.6113 43.3359 34.642C43.3933 34.6726 43.449 34.706 43.5031 34.7422C43.5572 34.7783 43.6093 34.817 43.6595 34.8584C43.7099 34.8996 43.758 34.9431 43.8041 34.9892C43.85 35.0351 43.8937 35.0832 43.9349 35.1336C43.9761 35.1838 44.0148 35.2359 44.0509 35.29C44.0871 35.3441 44.1205 35.3998 44.1511 35.4572C44.1818 35.5146 44.2095 35.5732 44.2345 35.6334C44.2593 35.6935 44.2812 35.7547 44.3002 35.8168C44.3189 35.8791 44.3347 35.9422 44.3474 36.0058C44.3601 36.0697 44.3697 36.134 44.3761 36.1986C44.3824 36.2635 44.3857 36.3283 44.3857 36.3933C44.3857 36.4258 44.3849 36.4582 44.3832 36.4904C44.3816 36.523 44.3793 36.5554 44.3761 36.5879C44.3697 36.6527 44.3601 36.717 44.3474 36.7806C44.3347 36.8445 44.3189 36.9074 44.3002 36.9697C44.2812 37.032 44.2593 37.0931 44.2345 37.1531C44.2095 37.2133 44.1818 37.272 44.1511 37.3293C44.1205 37.3867 44.0871 37.4424 44.0509 37.4965C44.0148 37.5506 43.9761 37.6027 43.9349 37.6531C43.8937 37.7033 43.85 37.7513 43.8041 37.7974C43.758 37.8433 43.7099 37.8871 43.6595 37.9283C43.6093 37.9695 43.5572 38.0082 43.5031 38.0443C43.449 38.0804 43.3933 38.1138 43.3359 38.1445C43.2787 38.1752 43.2199 38.2029 43.1597 38.2279C43.0998 38.2527 43.0386 38.2746 42.9763 38.2935C42.914 38.3125 42.8511 38.3281 42.7873 38.3408C42.7236 38.3535 42.6594 38.3631 42.5945 38.3695Z" opacity="0" fill="rgb(41,204,204)" fill-rule="evenodd" />
			<path id="矢量 84" d="M47.0078 42.0504C46.9379 42.1504 46.8615 42.2449 46.7787 42.3344C46.6959 42.4238 46.6074 42.5072 46.513 42.5845C46.4187 42.6617 46.3195 42.7322 46.2156 42.7957C46.1115 42.8594 46.0037 42.9156 45.892 42.9644C45.7802 43.0131 45.6656 43.0541 45.5482 43.0871C45.4896 43.1037 45.4306 43.1181 45.3711 43.1304L45.3709 43.1306L45.3705 43.1306C45.3111 43.1429 45.2513 43.1533 45.1912 43.1617C45.0703 43.1783 44.949 43.1867 44.8271 43.1867L40.017 43.1867C39.8961 43.1865 39.7756 43.1783 39.6558 43.1619C39.5359 43.1455 39.4178 43.1209 39.3014 43.0885C39.1848 43.0558 39.0711 43.0154 38.9599 42.9674C38.849 42.9193 38.7418 42.8638 38.6383 42.8011C38.535 42.7385 38.4363 42.6689 38.3422 42.5928C38.2482 42.5166 38.16 42.4343 38.0771 42.3461C37.9945 42.2578 37.9182 42.1644 37.848 42.0658C37.7781 41.9672 37.7152 41.864 37.6592 41.7568L35.5021 37.624C35.4527 37.5295 35.4092 37.4322 35.3715 37.3322C35.3525 37.2824 35.3354 37.2318 35.3195 37.181C35.3037 37.1301 35.2895 37.0787 35.2768 37.0269C35.2514 36.9232 35.2322 36.8183 35.2193 36.7125C35.2066 36.6064 35.2002 36.5 35.2002 36.3933C35.2002 36.2865 35.2066 36.1802 35.2193 36.0742C35.2322 35.9681 35.2514 35.8635 35.2768 35.7597C35.3021 35.656 35.3338 35.5543 35.3715 35.4543C35.4092 35.3545 35.4527 35.2572 35.5021 35.1625L37.6592 31.0289C37.6873 30.9754 37.717 30.9228 37.7484 30.8713L37.7484 30.8713L37.7484 30.8713C37.7799 30.8197 37.8133 30.7693 37.8482 30.7201C37.9182 30.6215 37.9945 30.5281 38.0773 30.4398C38.1187 30.3957 38.1615 30.3531 38.2057 30.3121L38.2057 30.3121L38.2057 30.3121C38.2498 30.2711 38.2955 30.2314 38.3424 30.1933C38.4363 30.1172 38.5351 30.0478 38.6385 29.9851C38.742 29.9224 38.8492 29.867 38.9601 29.8189C39.0711 29.7709 39.1849 29.7306 39.3014 29.698C39.3596 29.6818 39.4183 29.6676 39.4773 29.6552C39.5365 29.6431 39.5959 29.6328 39.6558 29.6246C39.7758 29.6082 39.8961 29.6 40.017 29.6L44.8271 29.6C45.8261 29.6 46.741 30.1601 47.1957 31.049L49.3085 35.1826C49.6974 35.9435 49.6974 36.8439 49.3085 37.6039L47.1957 41.7377C47.1402 41.8463 47.0775 41.9504 47.0078 42.0504ZM46.2652 31.5246C46.2314 31.4588 46.1935 31.3955 46.1509 31.3347C46.1086 31.2742 46.0623 31.2166 46.0121 31.1623C45.9617 31.108 45.908 31.0574 45.8506 31.0105C45.7933 30.9636 45.7332 30.9209 45.6701 30.8822C45.6068 30.8437 45.5414 30.8095 45.4736 30.7799C45.4058 30.7504 45.3361 30.7256 45.265 30.7054C45.1937 30.6853 45.1215 30.6703 45.048 30.6601C44.9748 30.6502 44.9011 30.6451 44.8271 30.6451L40.017 30.6451C39.415 30.6451 38.8633 30.9795 38.5855 31.5131L36.4285 35.6459C36.3682 35.7611 36.3227 35.882 36.2916 36.0084C36.2605 36.1349 36.2451 36.2631 36.2451 36.3933C36.2451 36.5234 36.2605 36.6517 36.2916 36.7781C36.307 36.8414 36.3262 36.9031 36.349 36.9636C36.3719 37.024 36.3984 37.0832 36.4285 37.1408L38.5855 41.2736C38.6195 41.3386 38.6578 41.4011 38.7004 41.4611C38.7428 41.5211 38.7891 41.5777 38.8394 41.6312C38.8896 41.6849 38.9433 41.7347 39.0004 41.781C39.0574 41.8273 39.1172 41.8695 39.1801 41.9076C39.2428 41.9457 39.308 41.9793 39.3754 42.0084C39.4428 42.0377 39.5117 42.0621 39.5824 42.0818C39.6533 42.1017 39.725 42.1166 39.7976 42.1265C39.8705 42.1365 39.9435 42.1414 40.017 42.1414L44.8271 42.1414C45.4341 42.1414 45.9892 41.8019 46.2652 41.2619L48.3779 37.1283C48.4361 37.0144 48.4802 36.8955 48.5101 36.7713C48.54 36.647 48.555 36.5211 48.555 36.3933C48.555 36.2656 48.54 36.1396 48.5101 36.0154C48.4802 35.8912 48.4361 35.772 48.3779 35.6584L48.3779 35.6576L46.2652 31.5246ZM42.4 39.4242C42.4494 39.4242 42.499 39.4228 42.5484 39.4205C42.5978 39.4179 42.6474 39.4144 42.6968 39.4095C42.7957 39.3998 42.8937 39.3851 42.991 39.3658C43.0885 39.3463 43.1845 39.3222 43.2795 39.2933C43.3744 39.2646 43.4677 39.2312 43.5593 39.1931C43.6511 39.1551 43.7408 39.1127 43.8283 39.066C43.872 39.0426 43.9152 39.0181 43.9578 38.9926C44.0002 38.9672 44.042 38.9406 44.0832 38.9131C44.1658 38.8578 44.2453 38.7988 44.322 38.7357C44.3988 38.6728 44.4722 38.6062 44.5424 38.5361C44.6125 38.4658 44.6791 38.3924 44.742 38.3156C44.805 38.239 44.864 38.1594 44.9191 38.0767C44.9742 37.9943 45.0252 37.9094 45.072 37.8217C45.1187 37.7342 45.1611 37.6445 45.1992 37.5529C45.2371 37.4613 45.2705 37.3679 45.2992 37.2728C45.3281 37.1779 45.3521 37.0818 45.3715 36.9845C45.3908 36.8871 45.4054 36.789 45.4152 36.6902C45.4248 36.5916 45.4297 36.4926 45.4297 36.3933C45.4297 36.2941 45.4248 36.1951 45.4152 36.0963C45.4054 35.9974 45.3908 35.8994 45.3715 35.8021C45.3521 35.7049 45.3281 35.6086 45.2992 35.5136C45.2705 35.4187 45.2371 35.3254 45.1992 35.2338C45.18 35.1879 45.1599 35.1424 45.1388 35.0976C45.1175 35.0529 45.0953 35.0086 45.072 34.9648C45.0486 34.9211 45.0242 34.8779 44.9986 34.8353C44.9732 34.7929 44.9466 34.751 44.9191 34.7097C44.864 34.6273 44.805 34.5476 44.742 34.4709C44.6791 34.3941 44.6125 34.3207 44.5424 34.2506C44.4722 34.1802 44.3988 34.1138 44.322 34.0508C44.2453 33.9879 44.1658 33.9287 44.0832 33.8736C44.0008 33.8183 43.9158 33.7674 43.8283 33.7207C43.7408 33.6738 43.6511 33.6314 43.5593 33.5935C43.4677 33.5554 43.3744 33.522 43.2795 33.4931C43.1845 33.4644 43.0885 33.4402 42.991 33.4209C42.8937 33.4015 42.7957 33.3869 42.6968 33.3771C42.6474 33.3722 42.5978 33.3685 42.5482 33.3662C42.4988 33.3636 42.4494 33.3625 42.4 33.3625C42.3006 33.3625 42.2015 33.3672 42.1027 33.3769C42.0039 33.3867 41.9058 33.4011 41.8084 33.4205C41.7111 33.4398 41.6148 33.4638 41.5199 33.4927C41.4248 33.5215 41.3314 33.5549 41.2396 33.5928C41.148 33.6308 41.0584 33.6732 40.9707 33.7199C40.8832 33.7668 40.798 33.8177 40.7156 33.8728C40.633 33.9279 40.5533 33.9871 40.4765 34.05C40.3998 34.1131 40.3264 34.1797 40.256 34.2498C40.1859 34.3199 40.1193 34.3935 40.0562 34.4701C39.9933 34.5469 39.9342 34.6265 39.8791 34.7092C39.8238 34.7916 39.7728 34.8767 39.726 34.9642C39.6793 35.0517 39.6369 35.1414 39.5988 35.2332C39.5607 35.325 39.5273 35.4183 39.4986 35.5133C39.4697 35.6084 39.4457 35.7045 39.4264 35.8019C39.4068 35.8992 39.3924 35.9972 39.3826 36.0961C39.3728 36.1949 39.368 36.2939 39.368 36.3933C39.368 36.4926 39.3728 36.5916 39.3826 36.6904C39.3924 36.7892 39.4068 36.8873 39.4264 36.9847C39.4457 37.082 39.4697 37.1783 39.4986 37.2732C39.5273 37.3683 39.5607 37.4617 39.5988 37.5533C39.6369 37.6451 39.6793 37.7347 39.726 37.8222C39.7728 37.9099 39.8238 37.9949 39.8791 38.0775C39.9066 38.1187 39.9353 38.1594 39.9648 38.1994C39.9943 38.239 40.0248 38.2781 40.0562 38.3164C40.1193 38.3931 40.1859 38.4666 40.256 38.5369C40.3264 38.607 40.3998 38.6736 40.4765 38.7365C40.5533 38.7996 40.633 38.8586 40.7156 38.9136C40.798 38.9689 40.8832 39.0199 40.9707 39.0666C41.0146 39.09 41.059 39.1123 41.1037 39.1336C41.1486 39.1547 41.1939 39.1748 41.2396 39.1937C41.3314 39.2316 41.4248 39.265 41.5199 39.2939C41.6148 39.3226 41.7111 39.3467 41.8084 39.3662C41.9058 39.3855 42.0039 39.4 42.1027 39.4097C42.2015 39.4193 42.3006 39.4242 42.4 39.4242ZM42.4 38.3791C42.3676 38.3791 42.3351 38.3783 42.3027 38.3767C42.2703 38.375 42.2377 38.3726 42.2052 38.3695C42.1406 38.3631 42.0763 38.3535 42.0125 38.3408C41.9488 38.3281 41.8857 38.3125 41.8234 38.2935C41.7613 38.2746 41.7002 38.2527 41.64 38.2279C41.5799 38.2029 41.5213 38.1752 41.4638 38.1445C41.4064 38.1138 41.3508 38.0804 41.2967 38.0443C41.2426 38.0082 41.1904 37.9695 41.1402 37.9283C41.115 37.9076 41.0904 37.8863 41.0664 37.8646C41.0422 37.8428 41.0187 37.8205 40.9957 37.7974C40.9498 37.7513 40.9062 37.7033 40.8648 37.6531C40.8236 37.6027 40.7849 37.5506 40.7488 37.4965C40.7127 37.4424 40.6793 37.3867 40.6486 37.3293C40.618 37.272 40.5902 37.2133 40.5654 37.1531C40.5404 37.0931 40.5185 37.032 40.4996 36.9697C40.4808 36.9074 40.465 36.8445 40.4523 36.7806C40.4396 36.717 40.4301 36.6527 40.4238 36.5879C40.4174 36.5232 40.4142 36.4584 40.4142 36.3933C40.4142 36.3607 40.415 36.3281 40.4166 36.2955C40.4181 36.2633 40.4205 36.2308 40.4238 36.1986C40.4301 36.134 40.4396 36.0697 40.4523 36.0058C40.465 35.9422 40.4808 35.8791 40.4996 35.8168C40.5185 35.7547 40.5404 35.6935 40.5654 35.6334C40.5902 35.5732 40.618 35.5146 40.6486 35.4572C40.6793 35.3998 40.7127 35.3441 40.7488 35.29C40.767 35.2631 40.7855 35.2365 40.8049 35.2105C40.8242 35.1843 40.8443 35.1588 40.8648 35.1336C40.9062 35.0832 40.9498 35.0351 40.9957 34.9892C41.0418 34.9431 41.0898 34.8996 41.1402 34.8584C41.1904 34.817 41.2426 34.7783 41.2967 34.7422C41.3508 34.706 41.4064 34.6726 41.4638 34.642C41.5213 34.6113 41.5799 34.5836 41.64 34.5588C41.7002 34.5338 41.7613 34.5119 41.8234 34.4931C41.8857 34.4742 41.9488 34.4584 42.0125 34.4457C42.0763 34.433 42.1406 34.4234 42.2052 34.4172C42.2699 34.4107 42.3349 34.4076 42.4 34.4076C42.4324 34.4076 42.4646 34.4084 42.497 34.4099C42.5297 34.4115 42.5621 34.4138 42.5945 34.4172C42.6594 34.4234 42.7236 34.433 42.7873 34.4457C42.8511 34.4584 42.914 34.4742 42.9763 34.4931C43.0386 34.5119 43.0998 34.5338 43.1597 34.5588C43.2199 34.5836 43.2787 34.6113 43.3359 34.642C43.3933 34.6726 43.449 34.706 43.5031 34.7422C43.5572 34.7783 43.6093 34.817 43.6595 34.8584C43.7099 34.8996 43.758 34.9431 43.8041 34.9892C43.85 35.0351 43.8937 35.0832 43.9349 35.1336C43.9761 35.1838 44.0148 35.2359 44.0509 35.29C44.0871 35.3441 44.1205 35.3998 44.1511 35.4572C44.1818 35.5146 44.2095 35.5732 44.2345 35.6334C44.2593 35.6935 44.2812 35.7547 44.3002 35.8168C44.3189 35.8791 44.3347 35.9422 44.3474 36.0058C44.3601 36.0697 44.3697 36.134 44.3761 36.1986C44.3824 36.2635 44.3857 36.3283 44.3857 36.3933C44.3857 36.4258 44.3849 36.4582 44.3832 36.4904C44.3816 36.523 44.3793 36.5554 44.3761 36.5879C44.3697 36.6527 44.3601 36.717 44.3474 36.7806C44.3347 36.8445 44.3189 36.9074 44.3002 36.9697C44.2812 37.032 44.2593 37.0931 44.2345 37.1531C44.2095 37.2133 44.1818 37.272 44.1511 37.3293C44.1205 37.3867 44.0871 37.4424 44.0509 37.4965C44.0148 37.5506 43.9761 37.6027 43.9349 37.6531C43.8937 37.7033 43.85 37.7513 43.8041 37.7974C43.758 37.8433 43.7099 37.8871 43.6595 37.9283C43.6093 37.9695 43.5572 38.0082 43.5031 38.0443C43.449 38.0804 43.3933 38.1138 43.3359 38.1445C43.2787 38.1752 43.2199 38.2029 43.1597 38.2279C43.0998 38.2527 43.0386 38.2746 42.9763 38.2935C42.914 38.3125 42.8511 38.3281 42.7873 38.3408C42.7236 38.3535 42.6594 38.3631 42.5945 38.3695C42.5299 38.3758 42.465 38.3791 42.4 38.3791Z" opacity="0" fill-rule="evenodd" stroke="rgb(41,204,204)" stroke-width="0.960000038" />
			<path id="矢量 84(边框)" d="M47.0647 42.0137C47.0727 42.0026 47.0807 41.9914 47.0886 41.9801L47.0889 41.9796C47.1665 41.8683 47.2357 41.7531 47.2966 41.6339L49.2774 37.7586C49.3849 37.5485 49.4656 37.3318 49.5194 37.1087C49.5733 36.8853 49.6002 36.6554 49.6002 36.419C49.6002 36.1846 49.5737 35.9566 49.5208 35.7348C49.467 35.5097 49.3859 35.291 49.2775 35.0789L47.2966 31.2035C47.2318 31.0769 47.1588 30.9563 47.0774 30.8415C47.0021 30.7352 46.9197 30.6341 46.8302 30.5379C46.741 30.4422 46.6464 30.3532 46.5463 30.2708C46.4409 30.1841 46.3295 30.1048 46.2119 30.0329C46.094 29.9607 45.9721 29.8973 45.8465 29.8428C45.728 29.7914 45.6061 29.7479 45.4807 29.7122C45.3545 29.6763 45.2271 29.649 45.0984 29.6304C44.9589 29.6101 44.8179 29.6 44.6754 29.6L40.1659 29.6C40.1095 29.6 40.0532 29.6016 39.997 29.6048C39.92 29.6092 39.8431 29.6167 39.7664 29.6272C39.7025 29.6359 39.6364 29.6473 39.5681 29.6613C39.5026 29.6749 39.4378 29.6907 39.3736 29.7086C39.2441 29.7449 39.1184 29.7894 38.9963 29.8423C38.9927 29.8439 38.9891 29.8454 38.9856 29.847C38.867 29.8989 38.7518 29.9587 38.6401 30.0263C38.525 30.0962 38.4157 30.1731 38.3122 30.257C38.2601 30.2994 38.2099 30.343 38.1615 30.3879C38.1126 30.4334 38.0652 30.4806 38.0193 30.5295C37.9376 30.6165 37.8618 30.7079 37.7918 30.8036C37.783 30.8155 37.7744 30.8274 37.7659 30.8395C37.7261 30.8954 37.6892 30.9514 37.655 31.0075C37.621 31.0633 37.5881 31.1213 37.5565 31.1814L35.5343 35.0567C35.5086 35.106 35.4843 35.156 35.4614 35.2066C35.4357 35.2634 35.4118 35.3211 35.3897 35.3797C35.3478 35.4909 35.3128 35.6036 35.2849 35.7177C35.2748 35.7591 35.2655 35.8005 35.2572 35.8422C35.2424 35.9163 35.2305 35.9909 35.2213 36.0661C35.2072 36.1838 35.2002 36.3013 35.2002 36.4188C35.2002 36.5362 35.2073 36.654 35.2214 36.7723C35.228 36.8259 35.2359 36.8792 35.2453 36.9323C35.2565 36.9952 35.2697 37.0578 35.2849 37.1199C35.299 37.1773 35.3148 37.2343 35.3324 37.2911C35.3509 37.3503 35.37 37.4058 35.3897 37.4577C35.4197 37.5372 35.453 37.6152 35.4897 37.6915C35.504 37.7215 35.5189 37.7512 35.5343 37.7807L37.5567 41.6555C37.619 41.7748 37.6887 41.8887 37.7658 41.9974C37.7779 42.0145 37.7902 42.0314 37.8027 42.0482C37.8697 42.1384 37.9419 42.2247 38.0191 42.3073C38.0797 42.3719 38.1429 42.4335 38.2088 42.4922C38.2427 42.5224 38.2774 42.5519 38.3127 42.5805C38.4172 42.6651 38.5264 42.7419 38.6403 42.811C38.7318 42.8664 38.8259 42.9167 38.9223 42.9616C38.9468 42.9731 38.9715 42.9842 38.9964 42.9949C39.1137 43.0457 39.2333 43.0885 39.3552 43.1235C39.3616 43.1253 39.3679 43.1271 39.3743 43.1289C39.5039 43.165 39.6346 43.1921 39.7663 43.2101C39.8981 43.2282 40.0313 43.2373 40.1659 43.2375L44.6754 43.2375C44.8097 43.2375 44.9442 43.2283 45.079 43.2098C45.1293 43.2027 45.1793 43.1945 45.2291 43.185L45.3716 43.185L45.4128 43.1437C45.4248 43.1406 45.4369 43.1374 45.4489 43.1341C45.457 43.1319 45.4652 43.1296 45.4733 43.1273C45.6024 43.091 45.7293 43.0457 45.8539 42.9915C45.8986 42.972 45.9427 42.9514 45.9863 42.9297C46.0631 42.8915 46.1382 42.8499 46.2117 42.805C46.3264 42.7349 46.4362 42.6569 46.5413 42.571C46.5714 42.5463 46.601 42.5211 46.63 42.4953C46.7015 42.4317 46.7699 42.3647 46.8352 42.2942C46.9178 42.205 46.9942 42.1115 47.0647 42.0137ZM45.6229 32.0591L45.6233 32.0598L47.5543 35.8373L47.5543 35.8382L47.6037 35.9348C47.6235 35.9733 47.6407 36.0127 47.6555 36.0531C47.6694 36.0911 47.6812 36.13 47.6907 36.1697C47.7029 36.2202 47.7113 36.271 47.716 36.3222C47.7189 36.3543 47.7204 36.3864 47.7204 36.4188C47.7204 36.451 47.7189 36.4832 47.716 36.5152C47.7113 36.5664 47.7029 36.6173 47.6907 36.6678C47.6842 36.695 47.6766 36.7218 47.6679 36.7483C47.6507 36.8013 47.6292 36.8528 47.6036 36.903L45.6229 40.7782C45.5773 40.8674 45.5218 40.9473 45.4562 41.018C45.3911 41.0882 45.316 41.1493 45.2311 41.2012C45.147 41.2527 45.0592 41.2915 44.9678 41.3175C44.8742 41.3442 44.7767 41.3575 44.6754 41.3575L40.1659 41.3575C40.1171 41.3575 40.0689 41.3543 40.0214 41.3478C40.0054 41.3456 39.9895 41.3431 39.9737 41.3401C39.942 41.3343 39.9106 41.327 39.8795 41.3183C39.8692 41.3154 39.859 41.3124 39.8488 41.3092C39.8129 41.298 39.7776 41.2848 39.7428 41.2697C39.6993 41.2509 39.6573 41.2293 39.6171 41.205C39.6162 41.2045 39.6153 41.204 39.6144 41.2034C39.5736 41.1787 39.5343 41.151 39.4965 41.1203C39.4583 41.0893 39.4227 41.0562 39.3896 41.0208C39.3569 40.986 39.3265 40.9488 39.2985 40.9092C39.2755 40.8769 39.2545 40.8434 39.2353 40.8089C39.2311 40.8012 39.2269 40.7935 39.2229 40.7858L37.2007 36.9112C37.1807 36.873 37.1632 36.8341 37.1482 36.7945C37.1332 36.7546 37.1206 36.7138 37.1104 36.6721C37.1023 36.6393 37.0959 36.6063 37.091 36.5731C37.0835 36.5222 37.0798 36.4707 37.0798 36.4188C37.0798 36.369 37.0832 36.3198 37.09 36.271C37.095 36.2355 37.1018 36.2003 37.1104 36.1652C37.1237 36.1109 37.1411 36.0582 37.1625 36.0073C37.1741 35.9798 37.1868 35.9527 37.2007 35.9262L39.2231 32.0513C39.2687 31.9637 39.3239 31.8852 39.3889 31.8158C39.4542 31.746 39.5293 31.6853 39.6143 31.6338C39.6983 31.5829 39.7858 31.5446 39.877 31.5189C39.9696 31.4928 40.0659 31.4798 40.1659 31.4798L44.6754 31.4798C44.693 31.4798 44.7104 31.4802 44.7279 31.4811C44.759 31.4826 44.79 31.4854 44.8209 31.4896C44.8695 31.4964 44.9171 31.5063 44.9634 31.5194C45.0111 31.5329 45.057 31.5492 45.101 31.5683C45.1122 31.5732 45.1234 31.5784 45.1345 31.5837C45.1673 31.5994 45.1993 31.6167 45.2305 31.6357C45.2722 31.6613 45.3121 31.6897 45.3503 31.721C45.3876 31.7514 45.4228 31.7844 45.4559 31.8201C45.4888 31.8557 45.5195 31.8939 45.548 31.9346C45.5753 31.9735 45.6003 32.015 45.6229 32.0591ZM42.0771 39.6945C42.1853 39.7049 42.293 39.7102 42.4 39.7102C42.451 39.7102 42.5045 39.7089 42.5605 39.7062C42.6179 39.7033 42.6719 39.6993 42.7226 39.6943C42.8292 39.6837 42.9356 39.6679 43.0418 39.6468C43.149 39.6253 43.2536 39.599 43.3556 39.568C43.3893 39.5578 43.4228 39.5471 43.4561 39.5358C43.5247 39.5125 43.5926 39.487 43.6597 39.4591C43.7061 39.4398 43.752 39.4196 43.7974 39.3982C43.8492 39.374 43.9003 39.3484 43.9508 39.3214C43.9998 39.2952 44.0469 39.2685 44.0922 39.2412C44.1371 39.2144 44.1823 39.1857 44.228 39.1551C44.318 39.0949 44.4045 39.0307 44.4877 38.9624C44.5704 38.8946 44.6501 38.8224 44.7267 38.7458C44.8037 38.6686 44.876 38.5887 44.9437 38.5061C45.0114 38.4239 45.0756 38.3374 45.1361 38.2466C45.1673 38.1999 45.1972 38.1525 45.226 38.1043C45.2523 38.0601 45.2776 38.0154 45.3019 37.9699C45.31 37.9548 45.3179 37.9397 45.3257 37.9244C45.367 37.8442 45.405 37.7622 45.4398 37.6786C45.4814 37.5779 45.5177 37.4762 45.5488 37.3733C45.5799 37.2713 45.606 37.1671 45.6271 37.0608C45.6482 36.9543 45.6641 36.8478 45.6746 36.7413C45.6851 36.6332 45.6903 36.5257 45.6903 36.4188C45.6903 36.3119 45.6851 36.2046 45.6747 36.0969L45.6744 36.0941C45.6638 35.9878 45.648 35.882 45.6271 35.7767C45.6059 35.67 45.5797 35.5654 45.5485 35.463C45.5175 35.3607 45.4814 35.2596 45.4401 35.1596C45.4187 35.1084 45.3969 35.0593 45.3747 35.0121C45.3511 34.9626 45.3271 34.9147 45.3024 34.8684C45.276 34.819 45.2491 34.7716 45.2219 34.7263C45.2042 34.6967 45.186 34.6674 45.1673 34.6383C45.1569 34.6223 45.1465 34.6063 45.1358 34.5904C45.0755 34.5 45.0113 34.4135 44.9432 34.3307C44.8754 34.248 44.8032 34.1683 44.7267 34.0917C44.6518 34.0166 44.5721 33.9443 44.4877 33.8749C44.4026 33.8052 44.3159 33.7409 44.2276 33.6821C44.1385 33.6223 44.0462 33.567 43.9508 33.5161C43.856 33.4653 43.7586 33.4192 43.6586 33.378C43.5605 33.3372 43.4595 33.301 43.3556 33.2693C43.2507 33.2376 43.1461 33.2114 43.0416 33.1907C42.9356 33.1696 42.8292 33.1538 42.7226 33.1432C42.6675 33.1378 42.6133 33.1338 42.5602 33.1313C42.5086 33.1286 42.4552 33.1273 42.4 33.1273C42.2908 33.1273 42.1832 33.1326 42.0771 33.1431C41.9694 33.1537 41.8629 33.1694 41.7578 33.1903C41.6509 33.2115 41.5463 33.2378 41.4438 33.269C41.342 33.2997 41.2409 33.3358 41.1405 33.3772C41.0407 33.4187 40.9434 33.4647 40.8486 33.5152C40.7524 33.5667 40.6598 33.6222 40.5709 33.6816C40.4822 33.7407 40.3958 33.8048 40.3116 33.8738C40.2988 33.8843 40.286 33.8949 40.2734 33.9056C40.204 33.9644 40.1369 34.0261 40.0723 34.0905C39.9969 34.1659 39.9246 34.2456 39.8554 34.3296C39.7859 34.4144 39.7215 34.5013 39.6622 34.5902C39.6032 34.6782 39.548 34.7703 39.4964 34.8665C39.455 34.9442 39.4167 35.0233 39.3816 35.1037C39.3737 35.122 39.3659 35.1403 39.3583 35.1587C39.3299 35.227 39.3039 35.2961 39.2804 35.366C39.2695 35.3983 39.2591 35.4308 39.2492 35.4634C39.218 35.5661 39.1919 35.6705 39.1708 35.7767C39.1499 35.8807 39.1341 35.9871 39.1234 36.0958C39.1185 36.1456 39.1147 36.1954 39.1121 36.2452C39.109 36.303 39.1075 36.3608 39.1075 36.4188C39.1075 36.4641 39.1084 36.5094 39.1103 36.5547C39.1129 36.6171 39.1172 36.6793 39.1234 36.7415C39.1341 36.8501 39.15 36.9568 39.171 37.0616C39.1921 37.1679 39.2183 37.2723 39.2495 37.3747C39.2806 37.4777 39.3169 37.5791 39.3584 37.679C39.378 37.7261 39.3986 37.7728 39.4203 37.819C39.4442 37.87 39.4695 37.9204 39.4961 37.9702C39.525 38.0242 39.5553 38.0774 39.5871 38.1297C39.6115 38.1696 39.6366 38.209 39.6626 38.2479C39.691 38.2903 39.7217 38.334 39.7547 38.3788C39.788 38.4236 39.8214 38.4664 39.855 38.5072C39.9231 38.5901 39.9952 38.6697 40.0714 38.7461C40.1489 38.8234 40.229 38.8959 40.3116 38.9636C40.3944 39.0316 40.4809 39.0957 40.5713 39.156C40.6599 39.2154 40.7523 39.2708 40.8482 39.3219C40.8944 39.3466 40.9421 39.3706 40.9913 39.394C41.0422 39.4179 41.0917 39.4399 41.1398 39.4598C41.2399 39.5011 41.3413 39.5374 41.4441 39.5686C41.5463 39.5995 41.6506 39.6257 41.7568 39.647C41.7768 39.651 41.797 39.6548 41.8171 39.6584C41.9031 39.6738 41.9898 39.6858 42.0771 39.6945ZM42.5379 37.8236C42.4912 37.8281 42.4452 37.8304 42.4 37.8304L42.3944 37.8304C42.3731 37.8303 42.3518 37.8297 42.3305 37.8287C42.3064 37.8274 42.2831 37.8257 42.2606 37.8235C42.2154 37.819 42.1701 37.8122 42.1244 37.8031C42.0781 37.7939 42.0334 37.7827 41.9904 37.7696C41.9461 37.7561 41.9023 37.7405 41.8591 37.7226C41.8169 37.7051 41.7753 37.6854 41.7343 37.6635C41.6938 37.6419 41.6542 37.6182 41.6156 37.5923C41.5878 37.5738 41.5608 37.5543 41.5345 37.5339C41.5244 37.5261 41.5144 37.5181 41.5045 37.51C41.4871 37.4957 41.4694 37.4804 41.4512 37.464C41.4343 37.4487 41.4178 37.433 41.4017 37.4169C41.3691 37.3841 41.3378 37.3497 41.3079 37.3134C41.2791 37.2781 41.2518 37.2413 41.2262 37.203C41.2004 37.1643 41.1767 37.1247 41.155 37.0842L41.1549 37.0839C41.1332 37.0435 41.1137 37.002 41.0961 36.9595C41.092 36.9498 41.0881 36.94 41.0843 36.9302C41.0712 36.8967 41.0594 36.8627 41.0489 36.8282C41.0355 36.7836 41.0243 36.7389 41.0154 36.6941C41.0063 36.6485 40.9996 36.6031 40.9953 36.5579C40.9907 36.5118 40.9884 36.4654 40.9884 36.4188C40.9884 36.3954 40.9889 36.372 40.99 36.3485C40.9912 36.3253 40.9928 36.3032 40.995 36.2823C40.9995 36.2353 41.0063 36.189 41.0154 36.1432C41.0244 36.0982 41.0357 36.0531 41.0493 36.0079C41.0516 36.0003 41.054 35.9927 41.0564 35.9852C41.068 35.9493 41.0811 35.9139 41.0956 35.879C41.1133 35.8361 41.1331 35.7942 41.155 35.7531C41.1767 35.7126 41.2004 35.673 41.2262 35.6343C41.2402 35.6135 41.2533 35.5949 41.2655 35.5786C41.2784 35.5611 41.2932 35.5422 41.3098 35.5218C41.3384 35.4869 41.3691 35.4532 41.4017 35.4206C41.4345 35.3878 41.4685 35.3569 41.5038 35.3281C41.5398 35.2984 41.577 35.2707 41.6156 35.245C41.6542 35.2192 41.6938 35.1954 41.7343 35.1738C41.7754 35.1518 41.817 35.1322 41.8591 35.1149C41.9023 35.0969 41.9458 35.0813 41.9895 35.0681C42.0343 35.0545 42.0793 35.0432 42.1247 35.0341C42.1703 35.0251 42.2156 35.0184 42.2607 35.014C42.3068 35.0094 42.3532 35.0071 42.4 35.0071C42.423 35.0071 42.4462 35.0077 42.4693 35.0088C42.4929 35.0099 42.5153 35.0116 42.5365 35.0137C42.5834 35.0183 42.6296 35.0251 42.6751 35.0341C42.7202 35.0431 42.765 35.0543 42.8094 35.0679C42.8539 35.0812 42.8971 35.0967 42.9391 35.1142C42.9828 35.1322 43.0248 35.152 43.0649 35.1735C43.0685 35.1754 43.0722 35.1774 43.0758 35.1794C43.1128 35.1996 43.149 35.2215 43.1842 35.245C43.2227 35.2707 43.2595 35.298 43.2945 35.3269C43.3308 35.3565 43.3653 35.3878 43.3981 35.4206C43.4315 35.454 43.4623 35.488 43.4907 35.5226C43.5203 35.5587 43.5479 35.5959 43.5736 35.6343C43.5994 35.673 43.6231 35.7126 43.6448 35.7531C43.6506 35.7639 43.6562 35.7749 43.6617 35.7858C43.677 35.8163 43.6912 35.8474 43.7043 35.879C43.7218 35.9214 43.7374 35.9649 43.751 36.0095C43.7556 36.0247 43.7599 36.0399 43.7639 36.0552C43.7717 36.0844 43.7785 36.1138 43.7844 36.1435C43.7882 36.1625 43.7916 36.1816 43.7946 36.2007C43.7988 36.2273 43.8022 36.254 43.8049 36.2808C43.8094 36.3276 43.8116 36.3735 43.8116 36.4188C43.8116 36.4422 43.811 36.4643 43.8099 36.4852C43.8087 36.5105 43.807 36.5347 43.8047 36.5579C43.8002 36.6033 43.7934 36.6486 43.7844 36.6939C43.7755 36.7388 43.7642 36.784 43.7505 36.8294C43.7372 36.8731 43.7218 36.9163 43.7041 36.959C43.6861 37.0021 43.6665 37.0437 43.6451 37.0837C43.6423 37.0888 43.6395 37.0939 43.6367 37.099C43.6172 37.1345 43.5961 37.1692 43.5736 37.203C43.548 37.2413 43.5203 37.2786 43.4907 37.3149C43.4624 37.3493 43.4313 37.3836 43.3975 37.4176C43.3643 37.4506 43.3305 37.4812 43.2959 37.5094C43.2599 37.539 43.2226 37.5667 43.1842 37.5923C43.1456 37.6182 43.106 37.6419 43.0655 37.6635C43.0251 37.6851 42.9832 37.705 42.9396 37.7231C42.8973 37.7406 42.8539 37.7561 42.8094 37.7696C42.7662 37.7828 42.7215 37.794 42.6754 37.8031C42.6565 37.8069 42.6376 37.8103 42.6187 37.8132C42.5919 37.8175 42.5649 37.8209 42.5379 37.8236Z" fill="rgb(41,204,204)" fill-rule="evenodd" />
			<g id="组合 1883" opacity="0">
				<path id="多边形 2" d="M8.7 0.866025L12.9 3.2909C13.8282 3.82679 14.4 4.81718 14.4 5.88897L14.4 10.7387C14.4 11.8105 13.8282 12.8009 12.9 13.3368L8.7 15.7617C7.7718 16.2976 6.6282 16.2976 5.7 15.7617L1.5 13.3368C0.571797 12.8009 0 11.8105 0 10.7387L1.10121e-07 5.88897C1.10121e-07 4.81718 0.571797 3.8268 1.5 3.2909L5.7 0.866025C6.6282 0.330127 7.7718 0.330127 8.7 0.866025Z" fill="rgb(196,196,196)" fill-opacity="0" fill-rule="evenodd" transform="matrix(0,-1,1,0,33.6001,44)" />
				<path id="多边形 2" d="M12.9 3.2909L8.7 0.866025C7.7718 0.330127 6.6282 0.330127 5.7 0.866025L1.5 3.2909C0.571797 3.8268 0 4.81718 0 5.88897L0 10.7387C0 11.8105 0.571797 12.8009 1.5 13.3368L5.7 15.7617C6.6282 16.2976 7.7718 16.2976 8.7 15.7617L12.9 13.3368C13.8282 12.8009 14.4 11.8105 14.4 10.7387L14.4 5.88897C14.4 4.81718 13.8282 3.82679 12.9 3.2909ZM7.74 2.52879L11.94 4.95366C12.0235 5.0019 12.0983 5.05896 12.1642 5.12486C12.23 5.19074 12.2871 5.26544 12.3353 5.34897C12.3835 5.43251 12.4197 5.51927 12.4438 5.60926C12.4679 5.69927 12.48 5.79251 12.48 5.88897L12.48 10.7387C12.48 10.8352 12.4679 10.9284 12.4438 11.0184C12.4197 11.1084 12.3835 11.1952 12.3353 11.2787C12.2871 11.3623 12.23 11.437 12.1641 11.5029C12.0982 11.5687 12.0235 11.6258 11.94 11.674L7.74 14.0989C7.65646 14.1471 7.5697 14.1833 7.4797 14.2074C7.3897 14.2315 7.29646 14.2436 7.2 14.2436C7.10354 14.2436 7.01031 14.2315 6.92031 14.2074C6.83031 14.1833 6.74354 14.1471 6.66 14.0989L2.46 11.674C2.37646 11.6258 2.30174 11.5687 2.23586 11.5028C2.16998 11.437 2.11292 11.3622 2.06469 11.2787C2.01646 11.1952 1.98029 11.1084 1.95617 11.0184C1.93206 10.9284 1.92 10.8352 1.92 10.7387L1.92 5.88897C1.92 5.79251 1.93206 5.69928 1.95617 5.60928C1.98029 5.51928 2.01646 5.43251 2.06469 5.34897C2.11292 5.26544 2.16998 5.19073 2.23586 5.12485C2.30175 5.05896 2.37646 5.0019 2.46 4.95367L6.66 2.52879C6.74354 2.48056 6.83031 2.44439 6.92031 2.42027C7.01031 2.39616 7.10354 2.3841 7.2 2.3841C7.29646 2.3841 7.3897 2.39616 7.4797 2.42028C7.5697 2.44439 7.65646 2.48057 7.74 2.52879Z" fill="rgb(41,204,204)" fill-rule="evenodd" transform="matrix(0,-1,1,0,33.6001,44)" />
				<circle id="椭圆 81" cx="41.9998055" cy="36.7999763" r="3.20000005" fill="rgb(196,196,196)" fill-opacity="0" />
				<circle id="椭圆 81" cx="41.9998055" cy="36.7999763" r="2.4000001" stroke="rgb(41,204,204)" stroke-width="1.60000002" />
			</g>
		</g>
	</g>
</svg>
