<svg viewBox="0 0 56 56" xmlns="http://www.w3.org/2000/svg" xmlns:xlink="http://www.w3.org/1999/xlink" width="56" height="56" fill="none" customFrame="#000000">
	<defs>
		<clipPath id="clipPath_48">
			<rect width="56" height="40.7999992" x="0" y="6" fill="rgb(255,255,255)" />
		</clipPath>
		<linearGradient id="paint_linear_108" x1="38.4000435" x2="0.800045013" y1="27.8760605" y2="27.8760223" gradientUnits="userSpaceOnUse">
			<stop stop-color="rgb(41,204,152)" offset="0" stop-opacity="1" />
			<stop stop-color="rgb(0,224,152)" offset="1" stop-opacity="1" />
		</linearGradient>
		<g id="pixso_custom_effect_33">
			<effect visibility="visible" effectType="backgroundBlur" saturation="0" stdDeviation="13.7001314" />
		</g>
		<filter id="filter_33" width="26.5979004" height="26.5979233" x="29.1010742" y="23.9010315" filterUnits="userSpaceOnUse" customEffect="url(#pixso_custom_effect_33)" color-interpolation-filters="sRGB">
			<feFlood flood-opacity="0" result="BackgroundImageFix" />
			<feGaussianBlur stdDeviation="4.56671047" in="BackgroundImage" />
			<feComposite result="effect_backgroundBlur_1" in2="SourceAlpha" operator="in" />
			<feBlend result="shape" in="SourceGraphic" in2="effect_backgroundBlur_1" mode="normal" />
		</filter>
		<linearGradient id="paint_linear_109" x1="32.4001007" x2="50.7976074" y1="24.399992" y2="45.1807899" gradientUnits="userSpaceOnUse">
			<stop stop-color="rgb(255,255,255)" offset="0" stop-opacity="0" />
			<stop stop-color="rgb(255,255,255)" offset="1" stop-opacity="1" />
		</linearGradient>
	</defs>
	<rect id="首页卡片图标" width="56" height="56" x="0" y="0" fill="rgb(255,255,255)" fill-opacity="0" />
	<g id="画板 116" customFrame="url(#clipPath_48)">
		<rect id="画板 116" width="56" height="40.7999992" x="0" y="6" fill="rgb(255,255,255)" fill-opacity="0" />
		<path id="形状" d="M31.5157 9.14229L37.2414 14.7871C38.7863 16.3102 38.7863 18.7792 37.2409 20.3028L31.5157 25.9471C29.9708 27.4702 27.4659 27.4702 25.921 25.9471L20.1957 20.3028C18.6508 18.7797 18.6508 16.3102 20.1957 14.7871L25.921 9.14229C27.4659 7.61924 29.9708 7.61924 31.5157 9.14229ZM4.69888 9.76532L12.678 9.76532C14.8315 9.76532 16.5768 11.486 16.5773 13.6091L16.5773 21.4759C16.5773 23.599 14.8315 25.3197 12.6785 25.3197L4.69888 25.3197C2.54535 25.3197 0.800049 23.5985 0.800049 21.4759L0.800049 13.6091C0.800049 11.486 2.54535 9.76532 4.69888 9.76532ZM23.8177 31.5697L31.7968 31.5697C33.9503 31.5697 35.6956 33.2904 35.6961 35.4135L35.6961 43.2803C35.6961 45.4034 33.9503 47.1241 31.7973 47.1241L23.8177 47.1241C21.6642 47.1241 19.9189 45.4029 19.9189 43.2803L19.9189 35.4135C19.9189 33.2904 21.6642 31.5697 23.8177 31.5697ZM12.678 31.6457L4.69888 31.6457C2.54535 31.6457 0.800049 33.3663 0.800049 35.4894L0.800049 43.3563C0.800049 45.4789 2.54535 47.2 4.69888 47.2L12.6785 47.2C14.8315 47.2 16.5773 45.4794 16.5773 43.3563L16.5773 35.4894C16.5768 33.3663 14.8315 31.6457 12.678 31.6457Z" fill="url(#paint_linear_108)" fill-rule="evenodd" />
		<g id="编组">
			<g filter="url(#filter_33)">
				<rect id="矩形" width="25.6000004" height="25.6000004" x="29.6000977" y="24.3999939" rx="12.8000002" fill="url(#paint_linear_109)" />
				<rect id="矩形" width="25.6000004" height="25.6000004" x="29.6000977" y="24.3999939" rx="12.8000002" stroke="rgb(255,255,255)" stroke-width="0.997920036" />
			</g>
			<path id="形状" d="M35.2 33.9158L42.4 30L49.6 33.9158L42.4 37.8316L35.2 33.9158ZM36.6526 35.8737L35.2 36.7579L42.4 41.1158L49.6 36.7579L48.1473 35.8737L42.4 39.3473L36.6526 35.8737ZM48.1473 39.1578L42.4 42.6315L36.6526 39.1578L35.2 40.042L42.4 44.3999L49.6 40.042L48.1473 39.1578Z" fill="rgb(40,199,148)" fill-rule="evenodd" />
		</g>
	</g>
</svg>
