<svg viewBox="0 0 56 56" xmlns="http://www.w3.org/2000/svg" xmlns:xlink="http://www.w3.org/1999/xlink" width="56" height="56" fill="none" customFrame="#000000">
	<defs>
		<linearGradient id="paint_linear_100" x1="0.79980123" x2="45.5997963" y1="28.3999939" y2="28.4000092" gradientUnits="userSpaceOnUse">
			<stop stop-color="rgb(179,157,250)" offset="0" stop-opacity="1" />
			<stop stop-color="rgb(126,96,224)" offset="1" stop-opacity="1" />
		</linearGradient>
		<g id="pixso_custom_effect_29">
			<effect visibility="visible" effectType="backgroundBlur" saturation="0" stdDeviation="13.7001314" />
		</g>
		<filter id="filter_29" width="26.5981445" height="26.5979233" x="29.1010742" y="23.5010376" filterUnits="userSpaceOnUse" customEffect="url(#pixso_custom_effect_29)" color-interpolation-filters="sRGB">
			<feFlood flood-opacity="0" result="BackgroundImageFix" />
			<feGaussianBlur stdDeviation="4.56671047" in="BackgroundImage" />
			<feComposite result="effect_backgroundBlur_1" in2="SourceAlpha" operator="in" />
			<feBlend result="shape" in="SourceGraphic" in2="effect_backgroundBlur_1" mode="normal" />
		</filter>
		<linearGradient id="paint_linear_101" x1="29.6001015" x2="50.7976074" y1="23.9999981" y2="44.7807922" gradientUnits="userSpaceOnUse">
			<stop stop-color="rgb(255,255,255)" offset="0" stop-opacity="0" />
			<stop stop-color="rgb(255,255,255)" offset="1" stop-opacity="1" />
		</linearGradient>
	</defs>
	<rect id="首页卡片图标" width="56" height="56" x="0" y="0" fill="rgb(255,255,255)" fill-opacity="0" />
	<g id="组合 1875">
		<path id="形状" d="M45.5998 16C45.5998 13.349 43.4508 11.2 40.7998 11.2L5.5998 11.2C2.94884 11.2 0.799805 13.349 0.799805 16L0.799805 19.2L45.5998 19.2L45.5998 16ZM39.5998 45.6L6.7998 45.6C3.4861 45.6 0.799805 42.9137 0.799805 39.6L0.799805 22.4L45.5998 22.4L45.5998 39.6C45.5998 42.9137 42.9135 45.6 39.5998 45.6ZM16.017 30.0268C15.4838 29.679 15.3489 29.0026 15.7105 28.4897C16.072 27.9767 16.7751 27.847 17.3083 28.1948L21.0599 30.6424C21.121 30.6822 21.1775 30.7265 21.2294 30.7753C21.2751 30.8182 21.3173 30.8647 21.3559 30.9145C21.397 30.9676 21.433 31.0232 21.464 31.0813C21.4947 31.139 21.5204 31.1993 21.5411 31.262C21.5793 31.3777 21.5988 31.4935 21.5998 31.6095C21.6007 31.7282 21.5822 31.847 21.5443 31.966C21.5063 32.085 21.4523 32.1933 21.3822 32.291C21.3138 32.3865 21.23 32.4718 21.1309 32.547C21.0772 32.5877 21.0208 32.6237 20.9617 32.6549C20.9022 32.6863 20.8399 32.7128 20.775 32.7346C20.7139 32.755 20.6519 32.7706 20.589 32.7815C20.5176 32.7938 20.445 32.8 20.3713 32.8L8.35019 32.8C7.70598 32.8 7.1998 32.313 7.1998 31.6932C7.1998 31.0735 7.70598 30.5865 8.35019 30.5865L16.8748 30.5865L16.017 30.0268ZM13.0891 39.5103C13.4507 38.9973 13.3158 38.321 12.7827 37.9732L11.9248 37.4135L20.4494 37.4135C21.0936 37.4135 21.5998 36.9265 21.5998 36.3067C21.5998 35.687 21.0936 35.2 20.4494 35.2L8.42836 35.2C8.35462 35.2 8.28203 35.2062 8.21059 35.2185C8.14772 35.2294 8.08574 35.245 8.02465 35.2654C7.95967 35.2872 7.89744 35.3137 7.83795 35.3451C7.77881 35.3763 7.72239 35.4122 7.66869 35.453C7.5696 35.5281 7.48583 35.6135 7.41737 35.709C7.34733 35.8067 7.29332 35.915 7.25534 36.034C7.21737 36.153 7.19887 36.2718 7.19984 36.3905C7.2008 36.5065 7.22035 36.6223 7.25851 36.738C7.27919 36.8007 7.3049 36.861 7.33565 36.9187C7.36658 36.9768 7.4026 37.0324 7.44372 37.0854C7.48236 37.1353 7.52453 37.1817 7.57022 37.2247C7.62215 37.2735 7.67863 37.3178 7.73967 37.3576L11.4914 39.8052C12.0245 40.153 12.7276 40.0233 13.0891 39.5103Z" fill="url(#paint_linear_100)" fill-rule="evenodd" />
		<g id="3像素" opacity="0">
			<rect id="矩形 7178" width="2.4000001" height="9.60000038" x="26.4799805" y="26.0799713" rx="0.800000072" fill="rgb(45,47,46)" />
			<rect id="矩形 7179" width="2.4000001" height="11.1999998" x="0" y="0" rx="0.800000072" fill="rgb(45,47,46)" transform="matrix(0,-1,1,0,22.0801,32.48)" />
			<rect id="矩形 7180" width="2.4000001" height="11.1999998" x="0" y="0" rx="0.800000072" fill="rgb(45,47,46)" transform="matrix(0,-1,1,0,22.0801,28.48)" />
			<rect id="矩形 7181" width="2.4000001" height="8" x="0" y="0" rx="0.800000072" fill="rgb(45,47,46)" transform="matrix(0.707107,-0.707107,0.707107,0.707107,21.6001,22.4971)" />
			<rect id="矩形 7182" width="2.4000001" height="8" x="0" y="0" rx="0.800000072" fill="rgb(45,47,46)" transform="matrix(-0.707107,-0.707107,-0.707107,0.707107,33.7539,22.4971)" />
		</g>
		<g id="编组">
			<g filter="url(#filter_29)">
				<rect id="矩形" width="25.6000004" height="25.6000004" x="29.6000977" y="24" rx="12.8000002" fill="url(#paint_linear_101)" />
				<rect id="矩形" width="25.6000004" height="25.6000004" x="29.6000977" y="24" rx="12.8000002" stroke="rgb(255,255,255)" stroke-width="0.997920036" />
			</g>
			<path id="矢量 71" d="M49.1881 36.7957C48.7032 36.8003 46.3254 35.4539 46.2503 35.3837C46.0697 35.2149 46.1379 35.0047 46.3222 34.9759C46.5065 34.9472 47.5413 34.8266 47.5413 34.8266C46.9053 33.1599 45.4862 31.8289 43.6237 31.3975C40.651 30.7087 37.5768 32.6626 36.8973 35.6445C36.8915 35.6699 36.8504 35.974 36.6042 35.9643C36.4375 35.9578 35.8914 35.7449 35.694 35.6541C35.4686 35.5505 35.4077 35.5772 35.4761 35.2436C36.2493 31.4527 40.209 28.8978 44.0095 29.772C47.1635 30.4973 49.3545 33.1807 49.5953 36.2382C49.6356 36.6479 49.4228 36.7935 49.1881 36.7957L49.1881 36.7957ZM38.5527 38.4088C38.8007 38.5643 38.741 38.8765 38.4684 38.9043C38.1959 38.9321 37.3425 39.0058 37.3425 39.0058C38.019 40.5604 39.3902 41.7861 41.1632 42.1967C44.1359 42.8852 47.176 41.0259 47.8556 38.0439C47.8695 37.9828 47.8691 37.9924 47.8934 37.861C47.9177 37.7297 47.9571 37.5298 48.2188 37.6188C48.4805 37.7077 49.1188 37.8917 49.3177 37.9438C49.5165 37.9959 49.4941 38.0728 49.4692 38.254C49.4616 38.3091 49.4502 38.3595 49.4382 38.4126C48.5484 42.2898 44.6752 44.7085 40.7873 43.814C37.637 43.0895 35.4472 40.4121 35.2022 37.3592C35.169 36.8346 35.547 36.7275 35.9334 36.928C36.2374 37.0856 38.3047 38.2533 38.5527 38.4088L38.5527 38.4088Z" fill="rgb(126,96,234)" fill-rule="nonzero" />
			<path id="矢量 71" d="M46.7181 34.9247C46.5384 34.9467 46.3834 34.9664 46.3222 34.9759C46.1379 35.0047 46.0697 35.2149 46.2503 35.3837C46.2699 35.402 46.4469 35.5076 46.7062 35.6534C46.743 35.6741 46.7813 35.6955 46.8211 35.7176C47.169 35.911 47.6268 36.1558 48.0525 36.3633C48.5505 36.6059 49.0047 36.7975 49.1881 36.7957L49.1881 36.7957L49.1881 36.7957L49.1881 36.7957C49.3292 36.7944 49.4623 36.7413 49.5373 36.6102C49.5871 36.5232 49.6113 36.4017 49.5953 36.2382C49.3545 33.1807 47.1635 30.4973 44.0095 29.772C40.209 28.8978 36.2493 31.4527 35.4761 35.2436C35.4164 35.5349 35.4552 35.5514 35.6161 35.6199C35.6395 35.6299 35.6654 35.6409 35.694 35.6541C35.8914 35.7449 36.4375 35.9578 36.6042 35.9643C36.8353 35.9734 36.8857 35.7061 36.8958 35.6522C36.8965 35.6487 36.897 35.6461 36.8973 35.6445C37.5768 32.6626 40.651 30.7087 43.6237 31.3975C45.1916 31.7607 46.4453 32.7614 47.1821 34.0632C47.3205 34.3077 47.4407 34.563 47.5413 34.8266C47.5413 34.8266 47.2732 34.8578 46.9856 34.8923C46.9499 34.8966 46.9138 34.9009 46.878 34.9052C46.8237 34.9118 46.7699 34.9183 46.7181 34.9247ZM48.2186 35.553C48.4117 35.6499 48.5851 35.733 48.7388 35.8023C48.7176 35.6681 48.6921 35.5348 48.6623 35.4025C48.5816 35.0438 48.4694 34.6921 48.3259 34.3475C48.1986 34.0419 48.0498 33.7493 47.8795 33.4698C47.7042 33.1822 47.5062 32.9085 47.2853 32.6486C47.0462 32.3674 46.7871 32.1102 46.5078 31.8771C46.2728 31.681 46.0235 31.5019 45.76 31.3398C45.5244 31.195 45.2815 31.0664 45.0314 30.954C44.6481 30.7818 44.2477 30.6476 43.8302 30.5516C43.5125 30.4786 43.1932 30.4317 42.8723 30.4111C42.3631 30.3784 41.8497 30.4116 41.332 30.5108C41.0283 30.569 40.7317 30.648 40.4423 30.748C40.0256 30.8919 39.6238 31.0791 39.2369 31.3095C39.5837 31.1115 39.9424 30.9477 40.3131 30.8181C40.6231 30.7097 40.9415 30.6252 41.2683 30.5646C41.7476 30.4757 42.2244 30.4424 42.6985 30.4646C43.0686 30.4819 43.4372 30.5331 43.8042 30.6181C44.1314 30.6939 44.4486 30.7942 44.756 30.9188C44.9418 30.9942 45.124 31.0786 45.3025 31.1718C45.5093 31.2798 45.7088 31.3986 45.9011 31.528C46.1366 31.6865 46.3612 31.8611 46.575 32.0518C46.7366 32.196 46.8902 32.3477 47.0355 32.5068C47.2327 32.7225 47.4148 32.952 47.582 33.1951C47.7243 33.4021 47.8537 33.616 47.9701 33.8367C48.0901 34.0643 48.1963 34.2992 48.2887 34.5414L48.6553 35.5021L48.2186 35.553ZM38.5527 38.4088L38.5527 38.4088C38.4989 38.375 38.3593 38.2936 38.1707 38.1851C38.1434 38.1694 38.115 38.1532 38.0858 38.1364C37.3862 37.7353 36.1619 37.0464 35.9334 36.928C35.547 36.7275 35.169 36.8346 35.2022 37.3592C35.4472 40.4121 37.637 43.0895 40.7873 43.814C44.6752 44.7085 48.5484 42.2898 49.4382 38.4126C49.4502 38.3595 49.4616 38.3091 49.4692 38.254C49.4705 38.2444 49.4718 38.2351 49.4731 38.2261C49.4959 38.0647 49.506 37.9932 49.3177 37.9438C49.1188 37.8917 48.4805 37.7077 48.2188 37.6188C47.9571 37.5298 47.9177 37.7297 47.8934 37.861C47.8691 37.9924 47.8695 37.9828 47.8556 38.0439C47.176 41.0259 44.1359 42.8852 41.1632 42.1967C39.6939 41.8564 38.5005 40.9563 37.7497 39.7731C37.5946 39.5286 37.4584 39.272 37.3425 39.0058C37.3425 39.0058 37.619 38.9819 37.9075 38.9562C37.9354 38.9537 37.9634 38.9512 37.9913 38.9487C37.9992 38.948 38.007 38.9473 38.0148 38.9466C38.075 38.9412 38.1343 38.9359 38.1902 38.9307C38.2028 38.9296 38.2153 38.9284 38.2276 38.9273C38.3251 38.9183 38.4101 38.9103 38.4684 38.9043C38.741 38.8765 38.8007 38.5643 38.5527 38.4088ZM36.6843 38.2605C36.4474 38.1269 36.2464 38.0139 36.0811 37.9215C36.0975 38.0122 36.1158 38.1024 36.1362 38.1921C36.2173 38.5503 36.3297 38.9014 36.4734 39.2454C36.6008 39.5503 36.7496 39.8421 36.9198 40.1209C37.0953 40.4082 37.2935 40.6816 37.5144 40.9412C37.753 41.2214 38.0116 41.4777 38.2902 41.7101C38.5255 41.9063 38.775 42.0854 39.0388 42.2475C39.2736 42.3917 39.5156 42.5198 39.7648 42.6318C40.1483 42.8041 40.5489 42.9383 40.9667 43.0344C41.4465 43.1448 41.9263 43.2003 42.4063 43.201C42.7762 43.2014 43.1462 43.1693 43.5163 43.1046C43.9048 43.0367 44.2808 42.9352 44.6443 42.8002C45.0495 42.6498 45.4391 42.4578 45.8133 42.2241C46.1977 41.9841 46.5495 41.7103 46.8688 41.4027C47.1392 41.1423 47.3862 40.8577 47.6099 40.5488C47.8394 40.2319 48.0368 39.8997 48.202 39.5522C48.3525 39.2358 48.4764 38.9066 48.5735 38.5648C48.5713 38.5641 48.5691 38.5635 48.5668 38.5628C48.561 38.5611 48.5552 38.5594 48.5494 38.5577C48.4632 38.8594 48.3555 39.1513 48.2263 39.4334C48.0522 39.8136 47.8389 40.176 47.5866 40.5204C47.3777 40.8055 47.1485 41.0697 46.899 41.3131C46.5656 41.6384 46.1958 41.9265 45.7897 42.1774C45.4148 42.4089 45.0247 42.5991 44.6194 42.7478C44.2597 42.8798 43.8881 42.9791 43.5045 43.0458C43.0774 43.1201 42.6517 43.1509 42.2273 43.1383C41.8112 43.1259 41.3963 43.0719 40.9827 42.9761C40.4644 42.8561 39.976 42.678 39.5174 42.442C39.0939 42.224 38.6959 41.9565 38.3233 41.6396C37.9704 41.3394 37.6569 41.0092 37.3827 40.6491C37.0753 40.2454 36.8174 39.804 36.6089 39.325L36.1655 38.3061L36.6843 38.2605ZM35.9999 37.2975L35.9999 37.2969L35.9997 37.2952L35.9999 37.2975Z" fill="rgb(126,96,234)" fill-rule="evenodd" />
			<g id="组合 1882" opacity="0">
				<path id="合并" d="M35.6292 33.0492L35.6291 33.0493C35.4747 33.3803 35.3452 33.7231 35.2409 34.0775C35.089 34.5932 35.3749 35.1177 35.8906 35.2696C36.4063 35.4215 36.9308 35.1356 37.0827 34.6199C37.1578 34.3647 37.2506 34.1177 37.361 33.8788L37.361 33.8788L37.361 33.8788C37.4925 33.5944 37.649 33.3216 37.8305 33.0603C37.9932 32.8262 38.1718 32.6072 38.3663 32.4035C38.566 32.1944 38.7824 32.0013 39.0156 31.8242C39.2708 31.6305 39.5386 31.4616 39.8192 31.3175C40.0501 31.1989 40.2895 31.0971 40.5376 31.0121C40.7636 30.9347 40.9927 30.8727 41.2249 30.826L41.2249 30.826C41.5768 30.7554 41.9358 30.72 42.3019 30.72C42.6875 30.72 43.0649 30.7591 43.434 30.8373C43.6971 30.893 43.9561 30.9686 44.2108 31.0641C44.4795 31.1648 44.7371 31.2851 44.9835 31.4249C45.2796 31.593 45.5597 31.7892 45.8237 32.0138C46.0753 32.2277 46.3041 32.4603 46.5102 32.7115C46.698 32.9404 46.8669 33.1848 47.0169 33.4446C47.1665 33.7037 47.2931 33.9711 47.3967 34.2466L47.1135 34.2952L46.5725 34.3879L46.4132 34.4152L45.9155 34.5005C45.6788 34.5411 45.6419 34.8657 45.8635 34.9585L46.3293 35.1533L46.4784 35.2157L47.3 35.5594L48.1618 35.9199L48.1615 35.9182C48.3411 36.0115 48.5529 36.0481 48.7717 36.0103C49.3015 35.9189 49.6459 35.4309 49.5545 34.9011C49.4819 34.4805 49.3747 34.0723 49.2329 33.6765C49.0858 33.2659 48.9014 32.8685 48.6797 32.4846C48.4743 32.1289 48.2429 31.7948 47.9853 31.4821C47.7094 31.1471 47.4034 30.8368 47.0676 30.5511C46.7183 30.2542 46.3482 29.9937 45.9572 29.7697L45.9571 29.7697L45.9571 29.7696C45.6156 29.574 45.2581 29.4062 44.8847 29.2662C44.5214 29.1301 44.1521 29.0237 43.7766 28.9472C43.2951 28.8491 42.8035 28.8 42.3019 28.8C41.8293 28.8 41.3651 28.8437 40.9092 28.9312L40.9092 28.9312L40.9092 28.9312C40.5734 28.9957 40.2421 29.0838 39.9154 29.1958C39.5698 29.3142 39.2367 29.4565 38.9159 29.6228L38.9159 29.6229L38.9159 29.6229C38.5456 29.8149 38.1918 30.039 37.8546 30.295C37.5406 30.5334 37.2492 30.7933 36.9802 31.0747L36.9802 31.0747L36.9802 31.0747L36.9802 31.0747C36.7164 31.3507 36.4742 31.6475 36.2537 31.9649C36.0131 32.3112 35.8049 32.6726 35.6292 33.0492L35.6292 33.0492L35.6292 33.0492Z" fill="rgb(126,96,234)" fill-rule="evenodd" />
				<path id="合并" d="M0.42898 4.24922L0.428944 4.24929C0.274459 4.58034 0.145033 4.92309 0.040667 5.27752C-0.111186 5.79323 0.174699 6.31774 0.690407 6.4696C1.20611 6.62145 1.73063 6.33556 1.88248 5.81986C1.95761 5.5647 2.05039 5.31769 2.16081 5.07885L2.16081 5.07884L2.16082 5.07882C2.2923 4.79443 2.44879 4.5216 2.6303 4.26033C2.79297 4.02617 2.97157 3.80722 3.16611 3.60348C3.36577 3.39436 3.58222 3.20126 3.81544 3.02418C4.07056 2.83048 4.33841 2.66157 4.619 2.51747C4.84986 2.39891 5.08933 2.29713 5.33743 2.21214C5.56343 2.13472 5.79252 2.07269 6.0247 2.02604L6.02471 2.02604C6.37661 1.95535 6.73561 1.92 7.10171 1.92C7.48733 1.92 7.86468 1.95909 8.23376 2.03726C8.49693 2.093 8.75588 2.16861 9.01063 2.26409C9.27931 2.3648 9.53687 2.48508 9.78334 2.62493C10.0794 2.79296 10.3595 2.98924 10.6235 3.21377C10.8751 3.4277 11.1039 3.66028 11.31 3.91151C11.4978 4.1404 11.6667 4.38477 11.8167 4.64462C11.9663 4.90373 12.0929 5.17106 12.1965 5.4466L11.9133 5.49515L11.3723 5.58788L11.213 5.61519L10.7153 5.70049C10.4786 5.74107 10.4417 6.06574 10.6633 6.15845L11.1291 6.35331L11.2782 6.41568L12.0998 6.75939L12.9616 7.11994L12.9613 7.11815C13.1409 7.21148 13.3527 7.24809 13.5715 7.21033C14.1013 7.11892 14.4457 6.63085 14.3543 6.10108C14.2817 5.68049 14.1745 5.2723 14.0327 4.87652C13.8856 4.46585 13.7012 4.06854 13.4795 3.68458C13.2741 3.32892 13.0427 2.99476 12.7851 2.6821C12.5092 2.3471 12.2032 2.03678 11.8674 1.75114C11.5181 1.45416 11.148 1.19368 10.757 0.969676L10.7569 0.969649L10.7569 0.969616C10.4154 0.773985 10.0579 0.60619 9.6845 0.466231C9.32122 0.33007 8.95187 0.223733 8.57644 0.14722C8.09487 0.0490732 7.60329 0 7.10171 0C6.6291 0 6.16488 0.0437349 5.70905 0.131205L5.70902 0.131211L5.709 0.131215C5.37318 0.195659 5.04191 0.283841 4.7152 0.395761C4.36961 0.514148 4.03646 0.656509 3.71574 0.822844L3.71574 0.822848L3.71573 0.822852C3.34537 1.01493 2.99159 1.23898 2.6544 1.495C2.34043 1.73338 2.04897 1.99327 1.78001 2.27467L1.78001 2.27468L1.78001 2.27468L1.77999 2.2747C1.51616 2.55073 1.27399 2.84746 1.05347 3.16488C0.812886 3.51118 0.604729 3.87262 0.428996 4.24918L0.428984 4.24921L0.42898 4.24922Z" fill="rgb(126,96,234)" fill-rule="evenodd" transform="matrix(-1,0,0,-1,49.5688,44.025)" />
			</g>
		</g>
	</g>
</svg>
