<svg viewBox="0 0 56 56" xmlns="http://www.w3.org/2000/svg" xmlns:xlink="http://www.w3.org/1999/xlink" width="56" height="56" fill="none" customFrame="#000000">
	<defs>
		<linearGradient id="paint_linear_102" x1="3.2001977" x2="38.4001884" y1="28.2588844" y2="28.258831" gradientUnits="userSpaceOnUse">
			<stop stop-color="rgb(255,79,18)" offset="0" stop-opacity="1" />
			<stop stop-color="rgb(255,117,69)" offset="0.995273232" stop-opacity="1" />
		</linearGradient>
		<g id="pixso_custom_effect_30">
			<effect visibility="visible" effectType="backgroundBlur" saturation="0" stdDeviation="13.7001314" />
		</g>
		<filter id="filter_30" width="26.5981445" height="26.5979195" x="26.7011719" y="23.5008278" filterUnits="userSpaceOnUse" customEffect="url(#pixso_custom_effect_30)" color-interpolation-filters="sRGB">
			<feFlood flood-opacity="0" result="BackgroundImageFix" />
			<feGaussianBlur stdDeviation="4.56671047" in="BackgroundImage" />
			<feComposite result="effect_backgroundBlur_1" in2="SourceAlpha" operator="in" />
			<feBlend result="shape" in="SourceGraphic" in2="effect_backgroundBlur_1" mode="normal" />
		</filter>
		<linearGradient id="paint_linear_103" x1="29.6001949" x2="48.3977013" y1="26.399786" y2="44.7805824" gradientUnits="userSpaceOnUse">
			<stop stop-color="rgb(255,255,255)" offset="0" stop-opacity="0" />
			<stop stop-color="rgb(255,255,255)" offset="1" stop-opacity="1" />
		</linearGradient>
	</defs>
	<rect id="首页卡片图标" width="56" height="56" x="0" y="0" fill="rgb(255,255,255)" fill-opacity="0" />
	<g id="组合 1877">
		<path id="形状" d="M34.0437 9.59998C34.9981 9.59998 35.7718 10.3736 35.7718 11.328C35.7718 12.2824 34.9981 13.0561 34.0437 13.0561L8.42156 13.0561C7.46718 13.0561 6.69351 12.2824 6.69351 11.328C6.69351 10.3736 7.46718 9.59998 8.42156 9.59998L34.0437 9.59998ZM33.6002 15.2154C36.2512 15.2154 38.4002 17.3644 38.4002 20.0154L38.4002 41.5994C38.4002 44.2504 36.2512 46.3994 33.6002 46.3994L8.0002 46.3994C5.34923 46.3994 3.2002 44.2504 3.2002 41.5994L3.2002 20.0154C3.2002 17.3644 5.34923 15.2154 8.0002 15.2154L33.6002 15.2154ZM23.5287 29.0311L25.082 29.0311C25.1152 29.0311 25.1483 29.0327 25.1813 29.0358C25.2217 29.0395 25.2619 29.0456 25.3018 29.054C25.3277 29.0594 25.3533 29.0658 25.3787 29.0731C25.4244 29.0862 25.4693 29.1024 25.5132 29.1216C25.5816 29.1515 25.6465 29.1881 25.708 29.2314C25.7696 29.2748 25.8265 29.3241 25.8788 29.3792C25.9311 29.4344 25.9778 29.4945 26.0189 29.5593C26.06 29.6242 26.0947 29.6927 26.1231 29.7648C26.1514 29.8369 26.1728 29.9112 26.1872 29.9878C26.2016 30.0643 26.2088 30.1416 26.2088 30.2196C26.2088 30.2977 26.2016 30.3749 26.1872 30.4515C26.1728 30.528 26.1514 30.6023 26.1231 30.6744C26.0947 30.7465 26.06 30.815 26.0189 30.8799C25.9778 30.9448 25.9311 31.0048 25.8788 31.06C25.8265 31.1152 25.7696 31.1644 25.708 31.2078C25.6465 31.2512 25.5816 31.2878 25.5132 31.3176C25.4449 31.3475 25.3744 31.37 25.3018 31.3853C25.2619 31.3936 25.2217 31.3997 25.1813 31.4035C25.1483 31.4066 25.1152 31.4081 25.082 31.4081L21.9269 31.4081L21.9269 33.3097L25.082 33.3097C25.1152 33.3097 25.1483 33.3112 25.1813 33.3143C25.2217 33.318 25.2619 33.3241 25.3018 33.3325C25.3744 33.3477 25.4449 33.3703 25.5132 33.4001C25.5816 33.43 25.6465 33.4666 25.708 33.51C25.7696 33.5533 25.8265 33.6026 25.8788 33.6578C25.9311 33.7129 25.9778 33.773 26.0189 33.8379C26.06 33.9027 26.0947 33.9712 26.1231 34.0433C26.1514 34.1154 26.1728 34.1897 26.1872 34.2663C26.2016 34.3428 26.2088 34.4201 26.2088 34.4981C26.2088 34.5762 26.2016 34.6535 26.1872 34.73C26.1728 34.8065 26.1514 34.8808 26.1231 34.9529C26.0947 35.025 26.06 35.0935 26.0189 35.1584C25.9778 35.2233 25.9311 35.2833 25.8788 35.3385C25.8265 35.3937 25.7696 35.443 25.708 35.4863C25.6465 35.5297 25.5816 35.5663 25.5132 35.5961C25.4449 35.626 25.3744 35.6485 25.3018 35.6638C25.2293 35.679 25.156 35.6866 25.082 35.6866L21.9269 35.6866L21.9269 39.2993C21.9269 39.3773 21.9197 39.4546 21.9053 39.5311C21.8908 39.6077 21.8695 39.682 21.8412 39.7541C21.8128 39.8262 21.7781 39.8947 21.737 39.9596C21.6959 40.0244 21.6492 40.0845 21.5969 40.1397C21.5446 40.1948 21.4877 40.2441 21.4261 40.2875C21.3646 40.3308 21.2997 40.3674 21.2313 40.3973C21.163 40.4271 21.0925 40.4497 21.0199 40.4649C20.9474 40.4801 20.8741 40.4878 20.8001 40.4878C20.7261 40.4878 20.6528 40.4801 20.5803 40.4649C20.5077 40.4497 20.4372 40.4271 20.3689 40.3973C20.3005 40.3674 20.2356 40.3308 20.1741 40.2875C20.1126 40.2441 20.0556 40.1948 20.0033 40.1397C19.951 40.0845 19.9043 40.0244 19.8632 39.9596C19.8221 39.8947 19.7874 39.8262 19.7591 39.7541C19.7307 39.682 19.7094 39.6077 19.6949 39.5311C19.6805 39.4546 19.6733 39.3773 19.6733 39.2993L19.6733 35.6866L16.5182 35.6866C16.4442 35.6866 16.3709 35.679 16.2984 35.6638C16.2258 35.6485 16.1553 35.626 16.087 35.5961C16.0186 35.5663 15.9537 35.5297 15.8922 35.4863C15.8306 35.443 15.7737 35.3937 15.7214 35.3385C15.6691 35.2833 15.6224 35.2233 15.5813 35.1584C15.5402 35.0935 15.5055 35.025 15.4771 34.9529C15.4488 34.8808 15.4275 34.8065 15.413 34.73C15.3986 34.6535 15.3914 34.5762 15.3914 34.4981C15.3914 34.4201 15.3986 34.3428 15.413 34.2663C15.4275 34.1897 15.4488 34.1154 15.4771 34.0433C15.5055 33.9712 15.5402 33.9027 15.5813 33.8379C15.6224 33.773 15.6691 33.7129 15.7214 33.6578C15.7737 33.6026 15.8306 33.5533 15.8922 33.51C15.9537 33.4666 16.0186 33.43 16.087 33.4001C16.1553 33.3703 16.2258 33.3477 16.2984 33.3325C16.3709 33.3173 16.4442 33.3097 16.5182 33.3097L19.6733 33.3097L19.6733 31.4081L16.5182 31.4081C16.4442 31.4081 16.3709 31.4005 16.2984 31.3853C16.2258 31.37 16.1553 31.3475 16.087 31.3176C16.0186 31.2878 15.9537 31.2512 15.8922 31.2078C15.8306 31.1644 15.7737 31.1152 15.7214 31.06C15.6691 31.0048 15.6224 30.9448 15.5813 30.8799C15.5402 30.815 15.5055 30.7465 15.4771 30.6744C15.4488 30.6023 15.4275 30.528 15.413 30.4515C15.3986 30.3749 15.3914 30.2977 15.3914 30.2196C15.3914 30.1416 15.3986 30.0643 15.413 29.9878C15.4275 29.9112 15.4488 29.8369 15.4771 29.7648C15.5055 29.6927 15.5402 29.6242 15.5813 29.5593C15.6224 29.4945 15.6691 29.4344 15.7214 29.3792C15.7737 29.3241 15.8306 29.2748 15.8922 29.2314C15.9537 29.1881 16.0186 29.1515 16.087 29.1216C16.1553 29.0918 16.2258 29.0692 16.2984 29.054C16.3709 29.0388 16.4442 29.0311 16.5182 29.0311L18.0935 29.0311L15.5353 26.3333C15.4839 26.279 15.4379 26.22 15.3975 26.1562C15.3571 26.0923 15.323 26.025 15.2951 25.9541C15.2673 25.8831 15.2463 25.81 15.2321 25.7348C15.2179 25.6595 15.2108 25.5835 15.2108 25.5067C15.2108 25.43 15.2179 25.354 15.2321 25.2787C15.2463 25.2034 15.2673 25.1303 15.2951 25.0594C15.323 24.9885 15.3571 24.9211 15.3975 24.8573C15.4379 24.7935 15.4839 24.7344 15.5353 24.6801C15.5868 24.6258 15.6427 24.5774 15.7032 24.5347C15.7638 24.492 15.8276 24.456 15.8949 24.4266C15.9621 24.3972 16.0314 24.375 16.1028 24.3601C16.1742 24.3451 16.2462 24.3376 16.319 24.3376C16.3518 24.3376 16.3844 24.3391 16.4169 24.3421C16.4565 24.3459 16.496 24.3518 16.5353 24.3601C16.6067 24.375 16.676 24.3972 16.7432 24.4266C16.8104 24.456 16.8743 24.492 16.9348 24.5347C16.9953 24.5774 17.0513 24.6258 17.1027 24.6801L20.7891 28.5682L24.471 24.6849C24.5232 24.6299 24.5799 24.5807 24.6413 24.5375C24.6854 24.5064 24.7312 24.4788 24.7788 24.4547C24.7975 24.4452 24.8164 24.4363 24.8356 24.4279C24.9038 24.3981 24.974 24.3756 25.0464 24.3604C25.1188 24.3452 25.1919 24.3377 25.2657 24.3377C25.3395 24.3377 25.4126 24.3452 25.485 24.3604C25.5573 24.3756 25.6276 24.3981 25.6958 24.4279C25.764 24.4577 25.8287 24.4942 25.8901 24.5375C25.9514 24.5807 26.0082 24.6299 26.0604 24.6849C26.1126 24.7399 26.1592 24.7998 26.2002 24.8645C26.2412 24.9292 26.2758 24.9975 26.304 25.0694C26.3323 25.1413 26.3536 25.2155 26.368 25.2918C26.3824 25.3681 26.3896 25.4452 26.3896 25.5231C26.3896 25.6009 26.3824 25.678 26.368 25.7543C26.3536 25.8307 26.3323 25.9048 26.304 25.9767C26.2758 26.0486 26.2412 26.1169 26.2002 26.1816C26.1592 26.2463 26.1126 26.3062 26.0604 26.3612L23.5287 29.0311Z" fill="url(#paint_linear_102)" fill-rule="evenodd" />
		<g id="编组">
			<g filter="url(#filter_30)">
				<rect id="矩形" width="25.6000004" height="25.6000004" x="27.2001953" y="23.9997864" rx="12.8000002" fill="url(#paint_linear_103)" />
				<rect id="矩形" width="25.6000004" height="25.6000004" x="27.2001953" y="23.9997864" rx="12.8000002" stroke="rgb(255,255,255)" stroke-width="0.997920036" />
			</g>
			<path id="矢量 51" d="M46.1331 41.8863L44.6132 40.032C44.6875 39.9289 44.7585 39.8234 44.8262 39.7158C44.8939 39.6082 44.9582 39.4985 45.019 39.3868C45.0798 39.2752 45.137 39.1617 45.1907 39.0464C45.2444 38.9312 45.2944 38.8143 45.3408 38.6959C45.3872 38.5775 45.4298 38.4578 45.4686 38.3367C45.5075 38.2156 45.5425 38.0935 45.5736 37.9702C45.6048 37.8469 45.6321 37.7228 45.6555 37.5978C45.6789 37.4728 45.6983 37.3472 45.7139 37.221C45.7294 37.0948 45.7409 36.9682 45.7485 36.8413C45.7561 36.7144 45.7596 36.5873 45.7592 36.4602C45.7588 36.333 45.7544 36.206 45.7461 36.0791C45.7377 35.9523 45.7254 35.8258 45.7091 35.6997C45.6928 35.5736 45.6725 35.4481 45.6483 35.3232C45.6241 35.1984 45.5961 35.0745 45.5641 34.9514C45.5322 34.8283 45.4964 34.7064 45.4568 34.5855C45.4172 34.4647 45.3738 34.3452 45.3267 34.2271C45.2796 34.109 45.2288 33.9925 45.1744 33.8776C45.12 33.7627 45.062 33.6496 45.0005 33.5383C44.939 33.427 44.8741 33.3177 44.8057 33.2105C44.7373 33.1033 44.6657 32.9984 44.5907 32.8956C44.5158 32.7929 44.4377 32.6927 44.3564 32.5948C44.2752 32.497 44.1909 32.4019 44.1037 32.3093C44.0165 32.2168 43.9265 32.1271 43.8336 32.0402C43.7408 31.9533 43.6453 31.8694 43.5472 31.7886C43.4491 31.7077 43.3485 31.6299 43.2456 31.5554C43.1426 31.4808 43.0373 31.4095 42.9299 31.3415C42.8224 31.2735 42.7129 31.209 42.6014 31.1479C42.4899 31.0868 42.3766 31.0292 42.2615 30.9752C42.1464 30.9212 42.0297 30.8709 41.9114 30.8242C41.7931 30.7775 41.6735 30.7346 41.5525 30.6954C41.4316 30.6563 41.3095 30.6209 41.1863 30.5894C41.0631 30.5579 40.939 30.5303 40.8141 30.5066C40.6892 30.4828 40.5637 30.463 40.4375 30.4472C40.3113 30.4313 40.1848 30.4195 40.0579 30.4116C39.931 30.4036 39.8039 30.3997 39.6768 30.3998C39.5496 30.3998 39.4226 30.4039 39.2957 30.4119C39.1688 30.4199 39.0423 30.4319 38.9161 30.4479C38.79 30.4639 38.6645 30.4838 38.5396 30.5076C38.4147 30.5315 38.2906 30.5592 38.1675 30.5909C38.0443 30.6225 37.9223 30.6579 37.8013 30.6972C37.6804 30.7365 37.5608 30.7795 37.4426 30.8263C37.3243 30.8731 37.2077 30.9236 37.0926 30.9777C36.9776 31.0318 36.8643 31.0895 36.7529 31.1507C36.6414 31.2119 36.532 31.2765 36.4246 31.3446C36.3172 31.4127 36.212 31.4841 36.1091 31.5588C36.0062 31.6334 35.9057 31.7113 35.8077 31.7922C35.7097 31.8732 35.6143 31.9572 35.5215 32.0442C35.4287 32.1311 35.3388 32.2209 35.2517 32.3135C35.1645 32.4062 35.0804 32.5014 34.9993 32.5993C34.9181 32.6972 34.8401 32.7975 34.7652 32.9003C34.6904 33.0031 34.6188 33.1081 34.5506 33.2154C34.4823 33.3227 34.4175 33.432 34.356 33.5433C34.2946 33.6547 34.2368 33.7678 34.1825 33.8828C34.1282 33.9978 34.0775 34.1144 34.0305 34.2325C33.9835 34.3507 33.9403 34.4702 33.9008 34.591C33.8613 34.7119 33.8256 34.8339 33.7938 34.957C33.762 35.0801 33.734 35.2041 33.7099 35.3289C33.6859 35.4538 33.6658 35.5793 33.6496 35.7054C33.6334 35.8315 33.6212 35.958 33.6129 36.0849C33.6047 36.2118 33.6004 36.3388 33.6001 36.466C33.5998 36.5931 33.6035 36.7202 33.6112 36.8471C33.6189 36.974 33.6306 37.1006 33.6462 37.2268C33.6618 37.3529 33.6814 37.4785 33.7049 37.6035C33.7284 37.7285 33.7558 37.8526 33.7871 37.9758C33.8184 38.099 33.8536 38.2212 33.8925 38.3422C33.9315 38.4633 33.9742 38.583 34.0207 38.7013C34.0672 38.8197 34.1173 38.9365 34.1711 39.0517C34.2249 39.1669 34.2822 39.2803 34.3432 39.3919C34.4041 39.5035 34.4684 39.6131 34.5362 39.7207C34.604 39.8283 34.6751 39.9336 34.7495 40.0367C34.8239 40.1398 34.9015 40.2405 34.9822 40.3388C35.0629 40.437 35.1466 40.5326 35.2334 40.6256C35.3201 40.7186 35.4096 40.8088 35.502 40.8962C35.5944 40.9836 35.6894 41.068 35.7871 41.1494C35.8848 41.2308 35.9849 41.3091 36.0875 41.3842C36.1901 41.4593 36.2949 41.5312 36.402 41.5997C36.5091 41.6683 36.6182 41.7334 36.7294 41.7951C36.8406 41.8568 36.9536 41.915 37.0684 41.9696C37.1832 42.0242 37.2997 42.0752 37.4177 42.1225C37.5357 42.1698 37.6551 42.2134 37.7759 42.2532C37.8966 42.293 38.0185 42.329 38.1415 42.3612C38.2646 42.3933 38.3885 42.4216 38.5133 42.446C38.6381 42.4704 38.7635 42.4909 38.8896 42.5074C39.0156 42.5239 39.1421 42.5365 39.269 42.5451C39.3958 42.5536 39.5229 42.5583 39.65 42.5589C39.7772 42.5595 39.9042 42.5561 40.0312 42.5488C40.1581 42.5414 40.2847 42.5301 40.4109 42.5148C40.5371 42.4995 40.6628 42.4803 40.7878 42.4571C40.9128 42.4339 41.037 42.4069 41.1603 42.3759C41.2837 42.3449 41.4059 42.3101 41.527 42.2715C41.6482 42.2328 41.768 42.1904 41.8865 42.1443C42.005 42.0981 42.1219 42.0483 42.2372 41.9948C42.3526 41.9413 42.4661 41.8843 42.5779 41.8237C42.6897 41.763 42.7995 41.699 42.9072 41.6315C43.015 41.564 43.1205 41.4932 43.2238 41.419C43.3271 41.3449 43.428 41.2676 43.5265 41.1872L44.9476 42.897C44.9634 42.9178 44.9803 42.9377 44.9982 42.9567C45.016 42.9757 45.0348 42.9937 45.0546 43.0108C45.0743 43.0278 45.0949 43.0438 45.1163 43.0588C45.1376 43.0737 45.1597 43.0875 45.1825 43.1002C45.2053 43.1129 45.2287 43.1244 45.2527 43.1346C45.2767 43.1449 45.3012 43.1539 45.3261 43.1616C45.351 43.1694 45.3762 43.1758 45.4018 43.181C45.4274 43.1861 45.4532 43.1899 45.4791 43.1924C45.5051 43.1949 45.5311 43.1961 45.5572 43.1959C45.5833 43.1957 45.6093 43.1942 45.6353 43.1913C45.6612 43.1884 45.6869 43.1842 45.7124 43.1787C45.7379 43.1732 45.7631 43.1664 45.7879 43.1583C45.8127 43.1502 45.837 43.1408 45.8608 43.1302C45.8846 43.1196 45.9079 43.1078 45.9305 43.0947C45.9531 43.0817 45.975 43.0676 45.9962 43.0524C46.0173 43.0371 46.0376 43.0208 46.0571 43.0034C46.0955 42.9688 46.1303 42.9307 46.1613 42.8894C46.1924 42.848 46.2193 42.804 46.2419 42.7575C46.2645 42.7109 46.2824 42.6627 46.2957 42.6127C46.309 42.5627 46.3174 42.5119 46.321 42.4602C46.3245 42.4086 46.323 42.3571 46.3166 42.3058C46.3102 42.2544 46.2989 42.2042 46.2829 42.155C46.2668 42.1058 46.2461 42.0586 46.2209 42.0134C46.1957 41.9682 46.1665 41.9259 46.1331 41.8863ZM39.6584 41.0352C39.5837 41.0352 39.5092 41.0333 39.4346 41.0297C39.3601 41.026 39.2857 41.0205 39.2114 41.0132C39.1372 41.0059 39.0631 40.9968 38.9893 40.9858C38.9155 40.9749 38.842 40.9621 38.7688 40.9476C38.6956 40.933 38.6228 40.9167 38.5504 40.8985C38.4781 40.8804 38.4062 40.8605 38.3348 40.8388C38.2633 40.8172 38.1925 40.7938 38.1222 40.7686C38.052 40.7435 37.9824 40.7166 37.9134 40.6881C37.8445 40.6595 37.7763 40.6293 37.7088 40.5974C37.6414 40.5655 37.5748 40.5319 37.5089 40.4968C37.4431 40.4616 37.3782 40.4248 37.3142 40.3865C37.2502 40.3481 37.1872 40.3082 37.1251 40.2667C37.0631 40.2253 37.0021 40.1823 36.9422 40.1379C36.8822 40.0934 36.8234 40.0475 36.7657 40.0002C36.708 39.9528 36.6516 39.9041 36.5963 39.854C36.541 39.8039 36.4869 39.7524 36.4342 39.6997C36.3814 39.6469 36.33 39.5929 36.2799 39.5376C36.2297 39.4823 36.181 39.4258 36.1337 39.3681C36.0863 39.3104 36.0404 39.2516 35.996 39.1917C35.9515 39.1317 35.9086 39.0708 35.8671 39.0087C35.8257 38.9467 35.7858 38.8836 35.7474 38.8196C35.709 38.7556 35.6723 38.6907 35.6371 38.6249C35.6019 38.5591 35.5684 38.4925 35.5365 38.425C35.5046 38.3575 35.4743 38.2893 35.4458 38.2204C35.4172 38.1515 35.3904 38.0819 35.3652 38.0116C35.3401 37.9413 35.3167 37.8705 35.295 37.7991C35.2734 37.7277 35.2535 37.6558 35.2353 37.5834C35.2172 37.511 35.2008 37.4382 35.1863 37.365C35.1717 37.2918 35.159 37.2183 35.148 37.1445C35.1371 37.0707 35.1279 36.9967 35.1206 36.9224C35.1133 36.8481 35.1078 36.7737 35.1042 36.6992C35.1005 36.6247 35.0987 36.5501 35.0987 36.4755C35.0987 36.4009 35.1005 36.3263 35.1042 36.2517C35.1078 36.1772 35.1133 36.1028 35.1206 36.0286C35.1279 35.9543 35.1371 35.8803 35.148 35.8064C35.159 35.7326 35.1717 35.6591 35.1863 35.5859C35.2008 35.5127 35.2172 35.44 35.2353 35.3676C35.2535 35.2952 35.2734 35.2233 35.295 35.1519C35.3167 35.0805 35.3401 35.0096 35.3652 34.9394C35.3904 34.8691 35.4172 34.7995 35.4458 34.7306C35.4743 34.6616 35.5045 34.5934 35.5365 34.526C35.5684 34.4585 35.6019 34.3919 35.6371 34.3261C35.6723 34.2602 35.709 34.1953 35.7474 34.1313C35.7858 34.0673 35.8257 34.0043 35.8671 33.9423C35.9086 33.8802 35.9515 33.8192 35.996 33.7593C36.0404 33.6993 36.0863 33.6405 36.1337 33.5828C36.181 33.5252 36.2297 33.4687 36.2799 33.4134C36.33 33.3581 36.3814 33.3041 36.4342 33.2513C36.4869 33.1985 36.541 33.1471 36.5963 33.097C36.6516 33.0469 36.708 32.9981 36.7657 32.9508C36.8234 32.9035 36.8822 32.8576 36.9422 32.8131C37.0021 32.7687 37.0631 32.7257 37.1251 32.6842C37.1872 32.6428 37.2502 32.6029 37.3142 32.5645C37.3782 32.5261 37.4431 32.4894 37.5089 32.4542C37.5748 32.419 37.6414 32.3855 37.7088 32.3536C37.7763 32.3217 37.8445 32.2914 37.9134 32.2629C37.9824 32.2343 38.052 32.2075 38.1222 32.1823C38.1925 32.1572 38.2633 32.1338 38.3348 32.1121C38.4062 32.0905 38.4781 32.0706 38.5504 32.0524C38.6228 32.0343 38.6956 32.018 38.7688 32.0034C38.842 31.9888 38.9155 31.9761 38.9893 31.9651C39.0631 31.9542 39.1372 31.9451 39.2114 31.9377C39.2857 31.9304 39.3601 31.9249 39.4346 31.9213C39.5092 31.9176 39.5837 31.9158 39.6584 31.9158C39.733 31.9158 39.8076 31.9176 39.8821 31.9213C39.9566 31.9249 40.031 31.9304 40.1053 31.9377C40.1796 31.9451 40.2536 31.9542 40.3274 31.9651C40.4012 31.9761 40.4747 31.9888 40.5479 32.0034C40.6211 32.018 40.6939 32.0343 40.7663 32.0524C40.8387 32.0706 40.9106 32.0905 40.982 32.1121C41.0534 32.1338 41.1242 32.1572 41.1945 32.1823C41.2647 32.2075 41.3343 32.2343 41.4033 32.2629C41.4722 32.2914 41.5404 32.3217 41.6079 32.3536C41.6753 32.3855 41.742 32.419 41.8078 32.4542C41.8736 32.4894 41.9385 32.5261 42.0025 32.5645C42.0665 32.6029 42.1295 32.6428 42.1916 32.6842C42.2536 32.7257 42.3146 32.7687 42.3746 32.8131C42.4345 32.8576 42.4933 32.9035 42.551 32.9508C42.6087 32.9981 42.6652 33.0469 42.7205 33.097C42.7758 33.1471 42.8298 33.1985 42.8825 33.2513C42.9353 33.3041 42.9868 33.3581 43.0369 33.4134C43.087 33.4687 43.1357 33.5252 43.1831 33.5828C43.2304 33.6405 43.2763 33.6993 43.3207 33.7593C43.3652 33.8192 43.4081 33.8802 43.4496 33.9423C43.4911 34.0043 43.531 34.0673 43.5693 34.1313C43.6077 34.1953 43.6445 34.2603 43.6796 34.3261C43.7148 34.3919 43.7484 34.4585 43.7803 34.526C43.8122 34.5934 43.8424 34.6616 43.871 34.7306C43.8995 34.7995 43.9264 34.8691 43.9515 34.9394C43.9767 35.0096 44 35.0805 44.0217 35.1519C44.0434 35.2233 44.0633 35.2952 44.0814 35.3676C44.0995 35.44 44.1159 35.5127 44.1304 35.5859C44.145 35.6591 44.1577 35.7326 44.1687 35.8064C44.1796 35.8803 44.1888 35.9543 44.1961 36.0286C44.2034 36.1028 44.2089 36.1772 44.2126 36.2517C44.2162 36.3263 44.2181 36.4009 44.2181 36.4755C44.2181 36.5501 44.2162 36.6247 44.2126 36.6992C44.2089 36.7737 44.2034 36.8481 44.1961 36.9224C44.1888 36.9967 44.1796 37.0707 44.1687 37.1445C44.1577 37.2183 44.145 37.2918 44.1304 37.365C44.1159 37.4382 44.0995 37.511 44.0814 37.5834C44.0633 37.6558 44.0434 37.7277 44.0217 37.7991C44 37.8705 43.9767 37.9413 43.9515 38.0116C43.9264 38.0819 43.8995 38.1515 43.871 38.2204C43.8424 38.2893 43.8122 38.3575 43.7803 38.425C43.7484 38.4925 43.7148 38.5591 43.6796 38.6249C43.6445 38.6907 43.6077 38.7556 43.5693 38.8196C43.531 38.8836 43.4911 38.9467 43.4496 39.0087C43.4081 39.0708 43.3652 39.1317 43.3207 39.1917C43.2763 39.2516 43.2304 39.3104 43.1831 39.3681C43.1357 39.4258 43.087 39.4823 43.0369 39.5376C42.9868 39.5929 42.9353 39.6469 42.8825 39.6997C42.8298 39.7524 42.7758 39.8039 42.7205 39.854C42.6652 39.9041 42.6087 39.9528 42.551 40.0002C42.4933 40.0475 42.4345 40.0934 42.3746 40.1379C42.3146 40.1823 42.2536 40.2253 42.1916 40.2667C42.1295 40.3082 42.0665 40.3481 42.0025 40.3865C41.9385 40.4248 41.8736 40.4616 41.8078 40.4968C41.742 40.5319 41.6753 40.5655 41.6079 40.5974C41.5404 40.6293 41.4722 40.6595 41.4033 40.6881C41.3343 40.7166 41.2647 40.7435 41.1945 40.7686C41.1242 40.7938 41.0534 40.8172 40.982 40.8388C40.9106 40.8605 40.8387 40.8804 40.7663 40.8985C40.6939 40.9167 40.6211 40.933 40.5479 40.9476C40.4747 40.9621 40.4012 40.9749 40.3274 40.9858C40.2536 40.9968 40.1796 41.0059 40.1053 41.0132C40.031 41.0205 39.9566 41.026 39.8821 41.0297C39.8076 41.0333 39.733 41.0352 39.6584 41.0352L39.6584 41.0352Z" fill="rgb(255,117,69)" fill-rule="nonzero" />
			<path id="矢量 51" d="M44.6132 40.032C44.6875 39.9289 44.7585 39.8234 44.8262 39.7158C44.8939 39.6082 44.9582 39.4985 45.019 39.3868C45.0798 39.2752 45.137 39.1617 45.1907 39.0464C45.2444 38.9312 45.2944 38.8143 45.3408 38.6959C45.3872 38.5775 45.4298 38.4578 45.4686 38.3367C45.5075 38.2156 45.5425 38.0935 45.5736 37.9702C45.6048 37.8469 45.6321 37.7228 45.6555 37.5978C45.6789 37.4728 45.6983 37.3472 45.7139 37.221C45.7294 37.0948 45.7409 36.9682 45.7485 36.8413C45.7561 36.7144 45.7596 36.5873 45.7592 36.4602C45.7588 36.333 45.7544 36.206 45.7461 36.0791C45.7377 35.9523 45.7254 35.8258 45.7091 35.6997C45.6928 35.5736 45.6725 35.4481 45.6483 35.3232C45.6241 35.1984 45.5961 35.0745 45.5641 34.9514C45.5322 34.8283 45.4964 34.7064 45.4568 34.5855C45.4172 34.4647 45.3738 34.3452 45.3267 34.2271C45.2796 34.109 45.2288 33.9925 45.1744 33.8776C45.12 33.7627 45.062 33.6496 45.0005 33.5383C44.939 33.427 44.8741 33.3177 44.8057 33.2105C44.7373 33.1033 44.6657 32.9984 44.5907 32.8956C44.5158 32.7929 44.4377 32.6927 44.3564 32.5948C44.2752 32.497 44.1909 32.4019 44.1037 32.3093C44.0165 32.2168 43.9265 32.1271 43.8336 32.0402C43.7408 31.9533 43.6453 31.8694 43.5472 31.7886C43.4491 31.7077 43.3485 31.6299 43.2456 31.5554C43.1426 31.4808 43.0373 31.4095 42.9299 31.3415C42.8224 31.2735 42.7129 31.209 42.6014 31.1479C42.4899 31.0868 42.3766 31.0292 42.2615 30.9752C42.1464 30.9212 42.0297 30.8709 41.9114 30.8242C41.7931 30.7775 41.6735 30.7346 41.5525 30.6954C41.4316 30.6563 41.3095 30.6209 41.1863 30.5894C41.0631 30.5579 40.939 30.5303 40.8141 30.5066C40.6892 30.4828 40.5637 30.463 40.4375 30.4472C40.3113 30.4313 40.1848 30.4195 40.0579 30.4116C39.931 30.4036 39.8039 30.3997 39.6768 30.3998C39.5496 30.3998 39.4226 30.4039 39.2957 30.4119C39.1688 30.4199 39.0423 30.4319 38.9161 30.4479C38.79 30.4639 38.6645 30.4838 38.5396 30.5076C38.4147 30.5315 38.2906 30.5592 38.1675 30.5909C38.0443 30.6225 37.9223 30.6579 37.8013 30.6972C37.6804 30.7365 37.5608 30.7795 37.4426 30.8263C37.3243 30.8731 37.2077 30.9236 37.0926 30.9777C36.9776 31.0318 36.8643 31.0895 36.7529 31.1507C36.6414 31.2119 36.532 31.2765 36.4246 31.3446C36.3172 31.4127 36.212 31.4841 36.1091 31.5588C36.0062 31.6334 35.9057 31.7113 35.8077 31.7922C35.7097 31.8732 35.6143 31.9572 35.5215 32.0442C35.4287 32.1311 35.3388 32.2209 35.2517 32.3135C35.1645 32.4062 35.0804 32.5014 34.9993 32.5993C34.9181 32.6972 34.8401 32.7975 34.7652 32.9003C34.6904 33.0031 34.6188 33.1081 34.5506 33.2154C34.4823 33.3227 34.4175 33.432 34.356 33.5433C34.2946 33.6547 34.2368 33.7678 34.1825 33.8828C34.1282 33.9978 34.0775 34.1144 34.0305 34.2325C33.9835 34.3507 33.9403 34.4702 33.9008 34.591C33.8613 34.7119 33.8256 34.8339 33.7938 34.957C33.762 35.0801 33.734 35.2041 33.7099 35.3289C33.6859 35.4538 33.6658 35.5793 33.6496 35.7054C33.6334 35.8315 33.6212 35.958 33.6129 36.0849C33.6047 36.2118 33.6004 36.3388 33.6001 36.466C33.5998 36.5931 33.6035 36.7202 33.6112 36.8471C33.6189 36.974 33.6306 37.1006 33.6462 37.2268C33.6618 37.3529 33.6814 37.4785 33.7049 37.6035C33.7284 37.7285 33.7558 37.8526 33.7871 37.9758C33.8184 38.099 33.8536 38.2212 33.8925 38.3422C33.9315 38.4633 33.9742 38.583 34.0207 38.7013C34.0672 38.8197 34.1173 38.9365 34.1711 39.0517C34.2249 39.1669 34.2822 39.2803 34.3432 39.3919C34.4041 39.5035 34.4684 39.6131 34.5362 39.7207C34.604 39.8283 34.6751 39.9336 34.7495 40.0367C34.8239 40.1398 34.9015 40.2405 34.9822 40.3388C35.0629 40.437 35.1466 40.5326 35.2334 40.6256C35.3201 40.7186 35.4096 40.8088 35.502 40.8962C35.5944 40.9836 35.6894 41.068 35.7871 41.1494C35.8848 41.2308 35.9849 41.3091 36.0875 41.3842C36.1901 41.4593 36.2949 41.5312 36.402 41.5997C36.5091 41.6683 36.6182 41.7334 36.7294 41.7951C36.8406 41.8568 36.9536 41.915 37.0684 41.9696C37.1832 42.0242 37.2997 42.0752 37.4177 42.1225C37.5357 42.1698 37.6551 42.2134 37.7759 42.2532C37.8966 42.293 38.0185 42.329 38.1415 42.3612C38.2646 42.3933 38.3885 42.4216 38.5133 42.446C38.6381 42.4704 38.7635 42.4909 38.8896 42.5074C39.0156 42.5239 39.1421 42.5365 39.269 42.5451C39.3958 42.5536 39.5229 42.5583 39.65 42.5589C39.7772 42.5595 39.9042 42.5561 40.0312 42.5488C40.1581 42.5414 40.2847 42.5301 40.4109 42.5148C40.5371 42.4995 40.6628 42.4803 40.7878 42.4571C40.9128 42.4339 41.037 42.4069 41.1603 42.3759C41.2837 42.3449 41.4059 42.3101 41.527 42.2715C41.6482 42.2328 41.768 42.1904 41.8865 42.1443C42.005 42.0981 42.1219 42.0483 42.2372 41.9948C42.3526 41.9413 42.4661 41.8843 42.5779 41.8237C42.6897 41.763 42.7995 41.699 42.9072 41.6315C43.015 41.564 43.1205 41.4932 43.2238 41.419C43.3271 41.3449 43.428 41.2676 43.5265 41.1872L44.9476 42.897C44.9634 42.9178 44.9803 42.9377 44.9982 42.9567C45.016 42.9757 45.0348 42.9937 45.0546 43.0108C45.0743 43.0278 45.0949 43.0438 45.1163 43.0588C45.1376 43.0737 45.1597 43.0875 45.1825 43.1002C45.2053 43.1129 45.2287 43.1244 45.2527 43.1346C45.2767 43.1449 45.3012 43.1539 45.3261 43.1616C45.351 43.1694 45.3762 43.1758 45.4018 43.181C45.4274 43.1861 45.4532 43.1899 45.4791 43.1924C45.5051 43.1949 45.5311 43.1961 45.5572 43.1959C45.5833 43.1957 45.6093 43.1942 45.6353 43.1913C45.6612 43.1884 45.6869 43.1842 45.7124 43.1787C45.7379 43.1732 45.7631 43.1664 45.7879 43.1583C45.8127 43.1502 45.837 43.1408 45.8608 43.1302C45.8846 43.1196 45.9079 43.1078 45.9305 43.0947C45.9531 43.0817 45.975 43.0676 45.9962 43.0524C46.0173 43.0371 46.0376 43.0208 46.0571 43.0034C46.0955 42.9688 46.1303 42.9307 46.1613 42.8894C46.1924 42.848 46.2193 42.804 46.2419 42.7575C46.2645 42.7109 46.2824 42.6627 46.2957 42.6127C46.309 42.5627 46.3174 42.5119 46.321 42.4602C46.3245 42.4086 46.323 42.3571 46.3166 42.3058C46.3102 42.2544 46.2989 42.2042 46.2829 42.155C46.2668 42.1058 46.2461 42.0586 46.2209 42.0134C46.1957 41.9682 46.1665 41.9259 46.1331 41.8863L44.6132 40.032ZM39.4346 41.0297C39.3601 41.026 39.2857 41.0205 39.2114 41.0132C39.1372 41.0059 39.0631 40.9968 38.9893 40.9858C38.9155 40.9749 38.842 40.9621 38.7688 40.9476C38.6956 40.933 38.6228 40.9167 38.5504 40.8985C38.4781 40.8804 38.4062 40.8605 38.3348 40.8388C38.2633 40.8172 38.1925 40.7938 38.1222 40.7686C38.052 40.7435 37.9824 40.7166 37.9134 40.6881C37.8445 40.6595 37.7763 40.6293 37.7088 40.5974C37.6414 40.5655 37.5748 40.5319 37.5089 40.4968C37.4431 40.4616 37.3782 40.4248 37.3142 40.3865C37.2502 40.3481 37.1872 40.3082 37.1251 40.2667C37.0631 40.2253 37.0021 40.1823 36.9422 40.1379C36.8822 40.0934 36.8234 40.0475 36.7657 40.0002C36.708 39.9528 36.6516 39.9041 36.5963 39.854C36.541 39.8039 36.4869 39.7524 36.4342 39.6997C36.3814 39.6469 36.33 39.5929 36.2799 39.5376C36.2297 39.4823 36.181 39.4258 36.1337 39.3681C36.0863 39.3104 36.0404 39.2516 35.996 39.1917C35.9515 39.1317 35.9086 39.0708 35.8671 39.0087C35.8257 38.9467 35.7858 38.8836 35.7474 38.8196C35.709 38.7556 35.6723 38.6907 35.6371 38.6249C35.6019 38.5591 35.5684 38.4925 35.5365 38.425C35.5046 38.3575 35.4743 38.2893 35.4458 38.2204C35.4172 38.1515 35.3904 38.0819 35.3652 38.0116C35.3401 37.9413 35.3167 37.8705 35.295 37.7991C35.2734 37.7277 35.2535 37.6558 35.2353 37.5834C35.2172 37.511 35.2008 37.4382 35.1863 37.365C35.1717 37.2918 35.159 37.2183 35.148 37.1445C35.1371 37.0707 35.1279 36.9967 35.1206 36.9224C35.1133 36.8481 35.1078 36.7737 35.1042 36.6992C35.1005 36.6247 35.0987 36.5501 35.0987 36.4755C35.0987 36.4009 35.1005 36.3263 35.1042 36.2517C35.1078 36.1772 35.1133 36.1028 35.1206 36.0286C35.1279 35.9543 35.1371 35.8803 35.148 35.8064C35.159 35.7326 35.1717 35.6591 35.1863 35.5859C35.2008 35.5127 35.2172 35.44 35.2353 35.3676C35.2535 35.2952 35.2734 35.2233 35.295 35.1519C35.3167 35.0805 35.3401 35.0096 35.3652 34.9394C35.3904 34.8691 35.4172 34.7995 35.4458 34.7306C35.4743 34.6616 35.5045 34.5934 35.5365 34.526C35.5684 34.4585 35.6019 34.3919 35.6371 34.3261C35.6723 34.2602 35.709 34.1953 35.7474 34.1313C35.7858 34.0673 35.8257 34.0043 35.8671 33.9423C35.9086 33.8802 35.9515 33.8192 35.996 33.7593C36.0404 33.6993 36.0863 33.6405 36.1337 33.5828C36.181 33.5252 36.2297 33.4687 36.2799 33.4134C36.33 33.3581 36.3814 33.3041 36.4342 33.2513C36.4869 33.1985 36.541 33.1471 36.5963 33.097C36.6516 33.0469 36.708 32.9981 36.7657 32.9508C36.8234 32.9035 36.8822 32.8576 36.9422 32.8131C37.0021 32.7687 37.0631 32.7257 37.1251 32.6842C37.1872 32.6428 37.2502 32.6029 37.3142 32.5645C37.3782 32.5261 37.4431 32.4894 37.5089 32.4542C37.5748 32.419 37.6414 32.3855 37.7088 32.3536C37.7763 32.3217 37.8445 32.2914 37.9134 32.2629C37.9824 32.2343 38.052 32.2075 38.1222 32.1823C38.1925 32.1572 38.2633 32.1338 38.3348 32.1121C38.4062 32.0905 38.4781 32.0706 38.5504 32.0524C38.6228 32.0343 38.6956 32.018 38.7688 32.0034C38.842 31.9888 38.9155 31.9761 38.9893 31.9651C39.0631 31.9542 39.1372 31.9451 39.2114 31.9377C39.2857 31.9304 39.3601 31.9249 39.4346 31.9213C39.5092 31.9176 39.5837 31.9158 39.6584 31.9158C39.733 31.9158 39.8076 31.9176 39.8821 31.9213C39.9566 31.9249 40.031 31.9304 40.1053 31.9377C40.1796 31.9451 40.2536 31.9542 40.3274 31.9651C40.4012 31.9761 40.4747 31.9888 40.5479 32.0034C40.6211 32.018 40.6939 32.0343 40.7663 32.0524C40.8387 32.0706 40.9106 32.0905 40.982 32.1121C41.0534 32.1338 41.1242 32.1572 41.1945 32.1823C41.2647 32.2075 41.3343 32.2343 41.4033 32.2629C41.4722 32.2914 41.5404 32.3217 41.6079 32.3536C41.6753 32.3855 41.742 32.419 41.8078 32.4542C41.8736 32.4894 41.9385 32.5261 42.0025 32.5645C42.0665 32.6029 42.1295 32.6428 42.1916 32.6842C42.2536 32.7257 42.3146 32.7687 42.3746 32.8131C42.4345 32.8576 42.4933 32.9035 42.551 32.9508C42.6087 32.9981 42.6652 33.0469 42.7205 33.097C42.7758 33.1471 42.8298 33.1985 42.8825 33.2513C42.9353 33.3041 42.9868 33.3581 43.0369 33.4134C43.087 33.4687 43.1357 33.5252 43.1831 33.5828C43.2304 33.6405 43.2763 33.6993 43.3207 33.7593C43.3652 33.8192 43.4081 33.8802 43.4496 33.9423C43.4911 34.0043 43.531 34.0673 43.5693 34.1313C43.6077 34.1953 43.6445 34.2603 43.6796 34.3261C43.7148 34.3919 43.7484 34.4585 43.7803 34.526C43.8122 34.5934 43.8424 34.6616 43.871 34.7306C43.8995 34.7995 43.9264 34.8691 43.9515 34.9394C43.9767 35.0096 44 35.0805 44.0217 35.1519C44.0434 35.2233 44.0633 35.2952 44.0814 35.3676C44.0995 35.44 44.1159 35.5127 44.1304 35.5859C44.145 35.6591 44.1577 35.7326 44.1687 35.8064C44.1796 35.8803 44.1888 35.9543 44.1961 36.0286C44.2034 36.1028 44.2089 36.1772 44.2126 36.2517C44.2162 36.3263 44.2181 36.4009 44.2181 36.4755C44.2181 36.5501 44.2162 36.6247 44.2126 36.6992C44.2089 36.7737 44.2034 36.8481 44.1961 36.9224C44.1888 36.9967 44.1796 37.0707 44.1687 37.1445C44.1577 37.2183 44.145 37.2918 44.1304 37.365C44.1159 37.4382 44.0995 37.511 44.0814 37.5834C44.0633 37.6558 44.0434 37.7277 44.0217 37.7991C44 37.8705 43.9767 37.9413 43.9515 38.0116C43.9264 38.0819 43.8995 38.1515 43.871 38.2204C43.8424 38.2893 43.8122 38.3575 43.7803 38.425C43.7484 38.4925 43.7148 38.5591 43.6796 38.6249C43.6445 38.6907 43.6077 38.7556 43.5693 38.8196C43.531 38.8836 43.4911 38.9467 43.4496 39.0087C43.4081 39.0708 43.3652 39.1317 43.3207 39.1917C43.2763 39.2516 43.2304 39.3104 43.1831 39.3681C43.1357 39.4258 43.087 39.4823 43.0369 39.5376C42.9868 39.5929 42.9353 39.6469 42.8825 39.6997C42.8298 39.7524 42.7758 39.8039 42.7205 39.854C42.6652 39.9041 42.6087 39.9528 42.551 40.0002C42.4933 40.0475 42.4345 40.0934 42.3746 40.1379C42.3146 40.1823 42.2536 40.2253 42.1916 40.2667C42.1295 40.3082 42.0665 40.3481 42.0025 40.3865C41.9385 40.4248 41.8736 40.4616 41.8078 40.4968C41.742 40.5319 41.6753 40.5655 41.6079 40.5974C41.5404 40.6293 41.4722 40.6595 41.4033 40.6881C41.3343 40.7166 41.2647 40.7435 41.1945 40.7686C41.1242 40.7938 41.0534 40.8172 40.982 40.8388C40.9106 40.8605 40.8387 40.8804 40.7663 40.8985C40.6939 40.9167 40.6211 40.933 40.5479 40.9476C40.4747 40.9621 40.4012 40.9749 40.3274 40.9858C40.2536 40.9968 40.1796 41.0059 40.1053 41.0132C40.031 41.0205 39.9566 41.026 39.8821 41.0297C39.8076 41.0333 39.733 41.0352 39.6584 41.0352L39.6584 41.0352C39.5837 41.0352 39.5092 41.0333 39.4346 41.0297Z" fill-rule="nonzero" stroke="rgb(255,117,69)" stroke-width="0.400000006" />
		</g>
	</g>
</svg>
