<svg viewBox="0 0 56 56" xmlns="http://www.w3.org/2000/svg" xmlns:xlink="http://www.w3.org/1999/xlink" width="56" height="56" fill="none" customFrame="#000000">
	<defs>
		<linearGradient id="paint_linear_96" x1="45.5998001" x2="0.799800873" y1="28.236618" y2="28.2365875" gradientUnits="userSpaceOnUse">
			<stop stop-color="rgb(41,204,152)" offset="0" stop-opacity="1" />
			<stop stop-color="rgb(0,224,152)" offset="1" stop-opacity="1" />
		</linearGradient>
		<g id="pixso_custom_effect_27">
			<effect visibility="visible" effectType="backgroundBlur" saturation="0" stdDeviation="13.7001314" />
		</g>
		<filter id="filter_27" width="26.5981445" height="26.5979233" x="29.1010742" y="23.5010376" filterUnits="userSpaceOnUse" customEffect="url(#pixso_custom_effect_27)" color-interpolation-filters="sRGB">
			<feFlood flood-opacity="0" result="BackgroundImageFix" />
			<feGaussianBlur stdDeviation="4.56671047" in="BackgroundImage" />
			<feComposite result="effect_backgroundBlur_1" in2="SourceAlpha" operator="in" />
			<feBlend result="shape" in="SourceGraphic" in2="effect_backgroundBlur_1" mode="normal" />
		</filter>
		<linearGradient id="paint_linear_97" x1="29.6001015" x2="50.7976074" y1="23.9999981" y2="44.7807922" gradientUnits="userSpaceOnUse">
			<stop stop-color="rgb(255,255,255)" offset="0" stop-opacity="0" />
			<stop stop-color="rgb(255,255,255)" offset="1" stop-opacity="1" />
		</linearGradient>
	</defs>
	<rect id="首页卡片图标" width="56" height="56" x="0" y="0" fill="rgb(255,255,255)" fill-opacity="0" />
	<g id="组合 1874">
		<path id="形状" d="M40.7998 11.2C43.4508 11.2 45.5998 13.349 45.5998 16L45.5998 19.2L0.799805 19.2L0.799805 16C0.799805 13.349 2.94884 11.2 5.5998 11.2L40.7998 11.2ZM40.7998 44.8C43.4508 44.8 45.5998 42.651 45.5998 40L45.5998 22.4L0.799805 22.4L0.799805 40C0.799805 42.651 2.94884 44.8 5.5998 44.8L40.7998 44.8ZM14.9382 31.3401L16.3833 31.3401C16.4521 31.3401 16.5203 31.3468 16.5878 31.3603C16.6553 31.3737 16.7209 31.3936 16.7845 31.4199C16.8163 31.4331 16.8473 31.4478 16.8776 31.4639C16.9077 31.4801 16.9371 31.4977 16.9657 31.5168C17.023 31.555 17.0759 31.5985 17.1246 31.6472C17.1733 31.6958 17.2167 31.7488 17.255 31.806C17.2932 31.8633 17.3255 31.9237 17.3518 31.9873C17.3782 32.0509 17.3981 32.1164 17.4115 32.1839C17.4249 32.2514 17.4316 32.3196 17.4316 32.3884C17.4316 32.4573 17.4249 32.5254 17.4115 32.5929C17.3981 32.6605 17.3782 32.726 17.3518 32.7896C17.3386 32.8215 17.3239 32.8525 17.3078 32.8828C17.2916 32.9129 17.274 32.9423 17.255 32.9708C17.2167 33.0281 17.1733 33.081 17.1246 33.1297C17.0759 33.1784 17.023 33.2218 16.9657 33.2601C16.937 33.2792 16.9075 33.2969 16.8773 33.3131C16.8471 33.3292 16.8162 33.3438 16.7845 33.3569C16.7209 33.3833 16.6553 33.4032 16.5878 33.4166C16.5203 33.43 16.4521 33.4367 16.3833 33.4367L13.448 33.4367L13.448 35.1141L16.3833 35.1141C16.4521 35.1141 16.5203 35.1208 16.5878 35.1342C16.6553 35.1476 16.7209 35.1675 16.7845 35.1938C16.8163 35.207 16.8473 35.2217 16.8776 35.2379C16.9077 35.254 16.9371 35.2716 16.9657 35.2907C17.023 35.329 17.0759 35.3724 17.1246 35.4211C17.1733 35.4698 17.2167 35.5227 17.255 35.58C17.2932 35.6372 17.3255 35.6976 17.3518 35.7612C17.3782 35.8248 17.3981 35.8903 17.4115 35.9578C17.4249 36.0254 17.4316 36.0935 17.4316 36.1624C17.4316 36.2312 17.4249 36.2994 17.4115 36.3669C17.3981 36.4344 17.3782 36.4999 17.3518 36.5635C17.3255 36.6271 17.2932 36.6875 17.255 36.7448C17.2167 36.802 17.1733 36.855 17.1246 36.9036C17.0759 36.9523 17.023 36.9958 16.9657 37.034C16.937 37.0532 16.9075 37.0708 16.8773 37.087C16.8471 37.1031 16.8162 37.1177 16.7845 37.1309C16.7209 37.1572 16.6553 37.1771 16.5878 37.1905C16.5203 37.204 16.4521 37.2107 16.3833 37.2107L13.448 37.2107L13.448 40.3973C13.448 40.4661 13.4413 40.5343 13.4279 40.6018C13.4145 40.6693 13.3946 40.7349 13.3682 40.7985C13.3551 40.8303 13.3404 40.8613 13.3242 40.8915C13.3081 40.9217 13.2905 40.9511 13.2714 40.9797C13.2331 41.0369 13.1897 41.0899 13.141 41.1386C13.0923 41.1872 13.0394 41.2307 12.9821 41.2689C12.9249 41.3072 12.8645 41.3395 12.8009 41.3658C12.7373 41.3921 12.6717 41.412 12.6042 41.4255C12.5367 41.4389 12.4686 41.4456 12.3997 41.4456C12.3309 41.4456 12.2627 41.4389 12.1952 41.4255C12.1277 41.412 12.0621 41.3921 11.9985 41.3658C11.935 41.3395 11.8745 41.3072 11.8173 41.2689C11.7887 41.2498 11.7611 41.2294 11.7347 41.2076C11.7082 41.1859 11.6828 41.1629 11.6585 41.1386C11.6098 41.0899 11.5663 41.0369 11.5281 40.9797C11.4898 40.9225 11.4575 40.8621 11.4312 40.7985C11.4049 40.7349 11.385 40.6693 11.3716 40.6018C11.3581 40.5343 11.3514 40.4661 11.3514 40.3973L11.3514 37.2107L8.41613 37.2107C8.3473 37.2107 8.27912 37.204 8.21161 37.1905C8.1441 37.1771 8.07855 37.1572 8.01496 37.1309C7.95136 37.1045 7.89095 37.0722 7.83372 37.034C7.77648 36.9958 7.72353 36.9523 7.67486 36.9036C7.62619 36.855 7.58273 36.802 7.54449 36.7448C7.50625 36.6875 7.47396 36.6271 7.44761 36.5635C7.42127 36.4999 7.40139 36.4344 7.38796 36.3669C7.37453 36.2994 7.36782 36.2312 7.36782 36.1624C7.36782 36.0935 7.37453 36.0254 7.38796 35.9578C7.40139 35.8903 7.42127 35.8248 7.44761 35.7612C7.47396 35.6976 7.50625 35.6372 7.54449 35.58C7.58273 35.5227 7.62619 35.4698 7.67486 35.4211C7.72353 35.3724 7.77648 35.329 7.83372 35.2907C7.89095 35.2525 7.95136 35.2202 8.01496 35.1938C8.07855 35.1675 8.1441 35.1476 8.21161 35.1342C8.27912 35.1208 8.3473 35.1141 8.41613 35.1141L11.3514 35.1141L11.3514 33.4367L8.41613 33.4367C8.3473 33.4367 8.27912 33.43 8.21161 33.4166C8.1441 33.4032 8.07855 33.3833 8.01496 33.3569C7.95136 33.3306 7.89095 33.2983 7.83372 33.2601C7.77648 33.2218 7.72353 33.1784 7.67486 33.1297C7.62619 33.081 7.58273 33.0281 7.54449 32.9708C7.50625 32.9136 7.47396 32.8532 7.44761 32.7896C7.42127 32.726 7.40139 32.6605 7.38796 32.5929C7.37453 32.5254 7.36782 32.4573 7.36782 32.3884C7.36782 32.3196 7.37453 32.2514 7.38796 32.1839C7.40139 32.1164 7.42127 32.0509 7.44761 31.9873C7.47396 31.9237 7.50625 31.8633 7.54449 31.806C7.58273 31.7488 7.62619 31.6958 7.67486 31.6472C7.72353 31.5985 7.77648 31.555 7.83372 31.5168C7.89095 31.4785 7.95136 31.4463 8.01496 31.4199C8.07855 31.3936 8.1441 31.3737 8.21161 31.3603C8.27912 31.3468 8.3473 31.3401 8.41613 31.3401L9.88167 31.3401L7.50174 28.9604C7.45387 28.9126 7.41114 28.8605 7.37353 28.8042C7.33593 28.7479 7.30418 28.6885 7.27827 28.6259C7.25237 28.5634 7.23282 28.4989 7.21961 28.4325C7.20641 28.3661 7.1998 28.299 7.1998 28.2313C7.1998 28.1636 7.20641 28.0966 7.21961 28.0302C7.23282 27.9638 7.25237 27.8993 7.27827 27.8368C7.30418 27.7742 7.33593 27.7148 7.37353 27.6585C7.41114 27.6022 7.45387 27.5501 7.50174 27.5022C7.5496 27.4543 7.60167 27.4116 7.65796 27.374C7.71425 27.3363 7.77367 27.3045 7.83622 27.2786C7.89878 27.2527 7.96326 27.2331 8.02966 27.2199C8.09607 27.2067 8.16313 27.2001 8.23084 27.2001C8.29855 27.2001 8.36561 27.2067 8.43202 27.2199C8.49842 27.2331 8.5629 27.2527 8.62546 27.2786C8.68801 27.3045 8.74743 27.3363 8.80372 27.374C8.86 27.4116 8.91208 27.4543 8.95994 27.5022L12.3895 30.9318L15.8149 27.5064C15.8634 27.4579 15.9162 27.4145 15.9733 27.3764C16.0304 27.3382 16.0906 27.306 16.1541 27.2797C16.2175 27.2535 16.2829 27.2336 16.3502 27.2202C16.4175 27.2068 16.4855 27.2001 16.5542 27.2001C16.5885 27.2001 16.6227 27.2018 16.6567 27.2052C16.6907 27.2085 16.7245 27.2135 16.7582 27.2202C16.8255 27.2336 16.8909 27.2535 16.9543 27.2797C17.0177 27.306 17.078 27.3382 17.1351 27.3764C17.1922 27.4145 17.245 27.4579 17.2935 27.5064C17.3421 27.555 17.3854 27.6078 17.4236 27.6649C17.4617 27.7219 17.4939 27.7822 17.5202 27.8456C17.5465 27.9091 17.5663 27.9744 17.5797 28.0418C17.5931 28.1091 17.5998 28.1771 17.5998 28.2458C17.5998 28.2801 17.5981 28.3143 17.5948 28.3484C17.5914 28.3823 17.5864 28.4161 17.5797 28.4497C17.5663 28.5171 17.5465 28.5825 17.5202 28.6459C17.4939 28.7093 17.4617 28.7696 17.4236 28.8267C17.3854 28.8837 17.3421 28.9365 17.2935 28.9851L14.9382 31.3401Z" fill="url(#paint_linear_96)" fill-rule="evenodd" />
		<g id="编组">
			<g filter="url(#filter_27)">
				<rect id="矩形" width="25.6000004" height="25.6000004" x="29.6000977" y="24" rx="12.8000002" fill="url(#paint_linear_97)" />
				<rect id="矩形" width="25.6000004" height="25.6000004" x="29.6000977" y="24" rx="12.8000002" stroke="rgb(255,255,255)" stroke-width="0.997920036" />
			</g>
			<path id="合并" d="M11.0355 9.77731L6.42892 5.02462L11.0355 0.267871C11.4698 -0.0892904 12.0948 -0.0892904 12.5291 0.267871C12.8903 0.718383 12.8903 1.36371 12.5291 1.81422L9.42015 5.0165L12.5291 8.21879C12.8903 8.6693 12.8903 9.31463 12.5291 9.76514C12.0948 10.1182 11.4698 10.1182 11.0355 9.76514L11.0355 9.77731ZM4.6082 9.76645L4.61875 9.77731L4.60658 9.76514L4.6082 9.76645ZM4.6082 9.76645C5.04241 10.1182 5.66643 10.1178 6.10016 9.76514C6.46139 9.31463 6.46139 8.6693 6.10016 8.21879L2.99123 5.0165L6.10016 1.81422C6.46139 1.36371 6.46139 0.718383 6.10016 0.267872C5.66589 -0.0892896 5.04085 -0.0892896 4.60658 0.267872L0 5.02462L4.6082 9.76645Z" opacity="0" fill="rgb(0,174,120)" fill-rule="evenodd" transform="matrix(-1,0,0,1,48.7998,31.2)" />
			<path id="合并" d="M49.6 37.8483C49.6001 37.8413 49.6002 37.8343 49.6002 37.8272C49.6001 37.7477 49.5917 37.669 49.5751 37.5911C49.5584 37.5131 49.5338 37.4375 49.5012 37.3641C49.4686 37.2906 49.4287 37.2209 49.3814 37.1549C49.3342 37.0888 49.2805 37.0277 49.2204 36.9716C49.1602 36.9155 49.0948 36.8653 49.0242 36.8213L45.2111 34.4433C45.1405 34.3992 45.0659 34.362 44.9874 34.3317C44.9636 34.3225 44.9396 34.3139 44.9153 34.3061L44.9153 34.3061L44.9152 34.3061C44.8595 34.2881 44.8027 34.2738 44.7447 34.263C44.6614 34.2476 44.5772 34.2399 44.4923 34.24C44.4074 34.2401 44.3233 34.2479 44.24 34.2635C44.1567 34.2791 44.0759 34.3021 43.9974 34.3326C43.919 34.3631 43.8445 34.4005 43.7739 34.4447C43.7034 34.4889 43.6381 34.5392 43.5781 34.5955C43.5181 34.6517 43.4645 34.7129 43.4174 34.7791C43.3703 34.8452 43.3306 34.915 43.2981 34.9885C43.2657 35.0619 43.2413 35.1377 43.2248 35.2156C43.2083 35.2936 43.2001 35.3723 43.2002 35.4518C43.2002 35.4866 43.2019 35.5213 43.2051 35.5558L43.2051 35.5558C43.2092 35.6001 43.216 35.6442 43.2253 35.688C43.242 35.7659 43.2666 35.8416 43.2992 35.915C43.3318 35.9884 43.3717 36.0581 43.4189 36.1242C43.4662 36.1902 43.5199 36.2513 43.58 36.3075C43.6401 36.3636 43.7055 36.4137 43.7762 36.4578L44.1115 36.6669L36.6435 36.6669C35.8476 36.6669 35.2002 37.2052 35.2002 37.8669C35.2002 38.5286 35.8476 39.0669 36.6435 39.0669L48.161 39.0669C48.3146 39.0669 48.4625 39.0469 48.6011 39.0098C48.7104 38.9862 48.816 38.9489 48.918 38.8977C49.1017 38.8055 49.2521 38.6793 49.3693 38.519C49.5154 38.3312 49.6002 38.1072 49.6002 37.8669C49.6002 37.8607 49.6001 37.8545 49.6 37.8483Z" fill="rgb(40,199,148)" fill-rule="evenodd" />
		</g>
	</g>
</svg>
