<svg viewBox="0 0 56 56" xmlns="http://www.w3.org/2000/svg" xmlns:xlink="http://www.w3.org/1999/xlink" width="56" height="56" fill="none" customFrame="#000000">
	<defs>
		<linearGradient id="paint_linear_104" x1="0.799800992" x2="48.7997932" y1="27.9987907" y2="27.998806" gradientUnits="userSpaceOnUse">
			<stop stop-color="rgb(102,158,255)" offset="0" stop-opacity="1" />
			<stop stop-color="rgb(25,110,255)" offset="1" stop-opacity="1" />
		</linearGradient>
		<g id="pixso_custom_effect_31">
			<effect visibility="visible" effectType="backgroundBlur" saturation="0" stdDeviation="13.7001314" />
		</g>
		<filter id="filter_31" width="26.5981445" height="26.5979195" x="29.1010742" y="23.5010109" filterUnits="userSpaceOnUse" customEffect="url(#pixso_custom_effect_31)" color-interpolation-filters="sRGB">
			<feFlood flood-opacity="0" result="BackgroundImageFix" />
			<feGaussianBlur stdDeviation="4.56671047" in="BackgroundImage" />
			<feComposite result="effect_backgroundBlur_1" in2="SourceAlpha" operator="in" />
			<feBlend result="shape" in="SourceGraphic" in2="effect_backgroundBlur_1" mode="normal" />
		</filter>
		<linearGradient id="paint_linear_105" x1="31.2001038" x2="50.7976074" y1="24.3999672" y2="44.7807617" gradientUnits="userSpaceOnUse">
			<stop stop-color="rgb(255,255,255)" offset="0" stop-opacity="0" />
			<stop stop-color="rgb(255,255,255)" offset="1" stop-opacity="1" />
		</linearGradient>
	</defs>
	<rect id="首页卡片图标" width="56" height="56" x="0" y="0" fill="rgb(255,255,255)" fill-opacity="0" />
	<g id="组合 1876">
		<g id="组合 1875">
			<path id="减去顶层" d="M48.7998 16.3135C48.7998 13.4948 46.5294 11.1988 43.7389 11.1988L11.4068 11.1988C8.77569 11.1988 6.52808 13.226 6.03072 16.026L0.859706 33.9348C0.83313 34.0281 0.814147 34.1215 0.81035 34.2148C0.726824 35.5999 1.14066 36.8132 2.01009 37.7204C3.0086 38.762 4.61458 39.3705 6.42177 39.3967C6.37242 39.5311 6.34205 39.6767 6.34205 39.8297C6.34205 42.57 8.61243 44.7988 11.403 44.7988L43.7351 44.7988C46.5256 44.7988 48.796 42.57 48.7998 39.8297L48.7998 16.418C48.7998 16.3993 48.796 16.3807 48.796 16.3583C48.796 16.3508 48.797 16.3433 48.7979 16.3359C48.7989 16.3284 48.7998 16.3209 48.7998 16.3135ZM43.7351 42.1855L11.403 42.1855C10.0779 42.1855 8.99969 41.1289 8.99969 39.8297C8.99969 39.6804 8.96932 39.5385 8.91996 39.4041L36.8138 39.4041C39.574 39.4041 42.1291 37.6607 43.4807 34.8495C43.5111 34.786 43.5377 34.7188 43.5566 34.6479L45.8726 26.6399C45.9182 26.5428 45.9447 26.4345 45.9637 26.3263L46.1422 25.714L46.1422 39.8297C46.1384 41.1289 45.0601 42.1855 43.7351 42.1855ZM41.5355 29.6L5.98299 29.6C5.85051 29.6 5.73371 29.6869 5.69564 29.8138L4.91561 32.4138C4.85786 32.6062 5.00199 32.8 5.20295 32.8L40.8855 32.8C41.0231 32.8 41.1431 32.7063 41.1765 32.5727L41.8266 29.9727C41.8739 29.7834 41.7307 29.6 41.5355 29.6Z" fill="url(#paint_linear_104)" fill-rule="evenodd" />
		</g>
		<g id="编组">
			<g filter="url(#filter_31)">
				<rect id="矩形" width="25.6000004" height="25.6000004" x="29.6000977" y="23.9999695" rx="12.8000002" fill="url(#paint_linear_105)" />
				<rect id="矩形" width="25.6000004" height="25.6000004" x="29.6000977" y="23.9999695" rx="12.8000002" stroke="rgb(255,255,255)" stroke-width="0.997920036" />
			</g>
			<path id="矢量 52" d="M47.5998 40.8L37.9998 40.8C37.9605 40.8 37.9213 40.8019 37.8822 40.8058C37.8431 40.8096 37.8042 40.8154 37.7657 40.823C37.7271 40.8307 37.6891 40.8402 37.6515 40.8517C37.6139 40.8631 37.5769 40.8763 37.5406 40.8913C37.5043 40.9064 37.4688 40.9231 37.4341 40.9417C37.3995 40.9602 37.3658 40.9804 37.3331 41.0022C37.3004 41.0241 37.2689 41.0474 37.2385 41.0724C37.2082 41.0973 37.1791 41.1237 37.1513 41.1515C37.1235 41.1792 37.0971 41.2083 37.0722 41.2387C37.0473 41.2691 37.0239 41.3006 37.002 41.3333C36.9802 41.366 36.96 41.3996 36.9415 41.4343C36.923 41.469 36.9062 41.5045 36.8911 41.5408C36.8761 41.5771 36.8629 41.614 36.8515 41.6516C36.8401 41.6893 36.8305 41.7273 36.8229 41.7659C36.8152 41.8044 36.8094 41.8433 36.8056 41.8824C36.8017 41.9215 36.7998 41.9607 36.7998 42C36.7998 42.0393 36.8017 42.0785 36.8056 42.1176C36.8094 42.1567 36.8152 42.1955 36.8229 42.2341C36.8305 42.2726 36.8401 42.3107 36.8515 42.3483C36.8629 42.3859 36.8761 42.4229 36.8911 42.4592C36.9062 42.4955 36.923 42.531 36.9415 42.5657C36.96 42.6003 36.9802 42.634 37.002 42.6667C37.0239 42.6993 37.0473 42.7309 37.0722 42.7613C37.0971 42.7916 37.1235 42.8207 37.1513 42.8485C37.1791 42.8763 37.2082 42.9027 37.2385 42.9276C37.2689 42.9525 37.3004 42.9759 37.3331 42.9977C37.3658 43.0196 37.3995 43.0398 37.4341 43.0583C37.4688 43.0768 37.5043 43.0936 37.5406 43.1086C37.5769 43.1237 37.6139 43.1369 37.6515 43.1483C37.6891 43.1597 37.7271 43.1693 37.7657 43.1769C37.8042 43.1846 37.8431 43.1904 37.8822 43.1942C37.9213 43.1981 37.9605 43.2 37.9998 43.2L47.5998 43.2C47.6391 43.2 47.6783 43.1981 47.7174 43.1942C47.7565 43.1904 47.7954 43.1846 47.8339 43.1769C47.8725 43.1693 47.9105 43.1597 47.9481 43.1483C47.9858 43.1369 48.0227 43.1237 48.059 43.1086C48.0953 43.0936 48.1308 43.0768 48.1655 43.0583C48.2001 43.0398 48.2338 43.0196 48.2665 42.9977C48.2992 42.9759 48.3307 42.9525 48.3611 42.9276C48.3915 42.9027 48.4205 42.8763 48.4483 42.8485C48.4761 42.8207 48.5025 42.7916 48.5274 42.7613C48.5523 42.7309 48.5757 42.6993 48.5976 42.6667C48.6194 42.634 48.6396 42.6003 48.6581 42.5657C48.6766 42.531 48.6934 42.4955 48.7085 42.4592C48.7235 42.4229 48.7367 42.3859 48.7481 42.3483C48.7595 42.3107 48.7691 42.2726 48.7767 42.2341C48.7844 42.1955 48.7902 42.1567 48.794 42.1176C48.7979 42.0785 48.7998 42.0393 48.7998 42C48.7998 41.9607 48.7979 41.9215 48.794 41.8824C48.7902 41.8433 48.7844 41.8044 48.7767 41.7659C48.7691 41.7273 48.7595 41.6893 48.7481 41.6516C48.7367 41.614 48.7235 41.5771 48.7085 41.5408C48.6934 41.5045 48.6766 41.469 48.6581 41.4343C48.6396 41.3996 48.6194 41.366 48.5976 41.3333C48.5757 41.3006 48.5523 41.2691 48.5274 41.2387C48.5025 41.2083 48.4761 41.1792 48.4483 41.1515C48.4205 41.1237 48.3915 41.0973 48.3611 41.0724C48.3307 41.0474 48.2992 41.0241 48.2665 41.0022C48.2338 40.9804 48.2001 40.9602 48.1655 40.9417C48.1308 40.9231 48.0953 40.9064 48.059 40.8913C48.0227 40.8763 47.9858 40.8631 47.9481 40.8517C47.9105 40.8402 47.8725 40.8307 47.8339 40.823C47.7954 40.8154 47.7565 40.8096 47.7174 40.8058C47.6783 40.8019 47.6391 40.8 47.5998 40.8M47.5998 36L43.1998 36C43.1605 36 43.1213 36.0019 43.0822 36.0058C43.0431 36.0096 43.0042 36.0154 42.9657 36.023C42.9272 36.0307 42.8891 36.0402 42.8515 36.0517C42.8139 36.0631 42.7769 36.0763 42.7406 36.0913C42.7043 36.1064 42.6688 36.1231 42.6341 36.1417C42.5995 36.1602 42.5658 36.1804 42.5331 36.2022C42.5004 36.2241 42.4689 36.2474 42.4385 36.2724C42.4081 36.2973 42.3791 36.3237 42.3513 36.3515C42.3235 36.3792 42.2971 36.4083 42.2722 36.4387C42.2473 36.4691 42.2239 36.5006 42.202 36.5333C42.1802 36.566 42.16 36.5996 42.1415 36.6343C42.123 36.669 42.1062 36.7045 42.0911 36.7408C42.0761 36.7771 42.0629 36.814 42.0515 36.8516C42.0401 36.8892 42.0305 36.9273 42.0229 36.9659C42.0152 37.0044 42.0094 37.0433 42.0056 37.0824C42.0017 37.1215 41.9998 37.1607 41.9998 37.2C41.9998 37.2393 42.0017 37.2785 42.0056 37.3176C42.0094 37.3567 42.0152 37.3955 42.0229 37.4341C42.0305 37.4726 42.0401 37.5107 42.0515 37.5483C42.0629 37.5859 42.0761 37.6229 42.0911 37.6592C42.1062 37.6955 42.123 37.731 42.1415 37.7657C42.16 37.8003 42.1802 37.834 42.202 37.8667C42.2239 37.8993 42.2473 37.9309 42.2722 37.9613C42.2971 37.9916 42.3235 38.0207 42.3513 38.0485C42.3791 38.0763 42.4081 38.1027 42.4385 38.1276C42.4689 38.1525 42.5004 38.1759 42.5331 38.1977C42.5658 38.2196 42.5995 38.2398 42.6341 38.2583C42.6688 38.2768 42.7043 38.2936 42.7406 38.3086C42.7769 38.3237 42.8139 38.3369 42.8515 38.3483C42.8891 38.3597 42.9272 38.3693 42.9657 38.3769C43.0042 38.3846 43.0431 38.3904 43.0822 38.3942C43.1213 38.3981 43.1605 38.4 43.1998 38.4L47.5998 38.4C47.6391 38.4 47.6783 38.398 47.7174 38.3941C47.7565 38.3903 47.7953 38.3845 47.8338 38.3768C47.8723 38.3691 47.9104 38.3595 47.948 38.3481C47.9855 38.3367 48.0225 38.3235 48.0588 38.3084C48.0951 38.2933 48.1305 38.2766 48.1652 38.258C48.1998 38.2395 48.2334 38.2193 48.2661 38.1975C48.2987 38.1756 48.3303 38.1522 48.3606 38.1273C48.391 38.1024 48.42 38.076 48.4478 38.0482C48.4756 38.0204 48.5019 37.9913 48.5268 37.961C48.5517 37.9306 48.5751 37.8991 48.5969 37.8664C48.6187 37.8337 48.6389 37.8001 48.6574 37.7654C48.6759 37.7308 48.6927 37.6953 48.7077 37.659C48.7227 37.6227 48.736 37.5858 48.7474 37.5482C48.7588 37.5106 48.7683 37.4725 48.7759 37.434C48.7836 37.3955 48.7894 37.3566 48.7932 37.3176C48.7971 37.2785 48.799 37.2393 48.799 37.2C48.799 37.1607 48.7971 37.1215 48.7932 37.0824C48.7894 37.0433 48.7836 37.0045 48.7759 36.966C48.7683 36.9274 48.7588 36.8894 48.7474 36.8518C48.736 36.8142 48.7227 36.7772 48.7077 36.741C48.6927 36.7047 48.6759 36.6692 48.6574 36.6345C48.6389 36.5999 48.6187 36.5662 48.5969 36.5336C48.5751 36.5009 48.5517 36.4694 48.5268 36.439C48.5019 36.4086 48.4756 36.3795 48.4478 36.3517C48.42 36.324 48.391 36.2976 48.3606 36.2727C48.3303 36.2477 48.2987 36.2243 48.2661 36.2025C48.2334 36.1807 48.1998 36.1605 48.1652 36.1419C48.1305 36.1234 48.0951 36.1066 48.0588 36.0916C48.0225 36.0765 47.9855 36.0633 47.948 36.0518C47.9104 36.0404 47.8723 36.0309 47.8338 36.0232C47.7953 36.0155 47.7565 36.0097 47.7174 36.0058C47.6783 36.002 47.6391 36 47.5998 36M43.1998 33.6L47.5998 33.6C47.6391 33.6 47.6783 33.5981 47.7174 33.5942C47.7565 33.5904 47.7954 33.5846 47.8339 33.5769C47.8725 33.5693 47.9105 33.5597 47.9481 33.5483C47.9858 33.5369 48.0227 33.5237 48.059 33.5086C48.0953 33.4936 48.1308 33.4768 48.1655 33.4583C48.2001 33.4398 48.2338 33.4196 48.2665 33.3977C48.2992 33.3759 48.3307 33.3525 48.3611 33.3276C48.3915 33.3027 48.4205 33.2763 48.4483 33.2485C48.4761 33.2207 48.5025 33.1916 48.5274 33.1613C48.5523 33.1309 48.5757 33.0993 48.5976 33.0667C48.6194 33.034 48.6396 33.0003 48.6581 32.9657C48.6766 32.931 48.6934 32.8955 48.7085 32.8592C48.7235 32.8229 48.7367 32.7859 48.7481 32.7483C48.7595 32.7107 48.7691 32.6726 48.7767 32.6341C48.7844 32.5955 48.7902 32.5567 48.794 32.5176C48.7979 32.4785 48.7998 32.4393 48.7998 32.4C48.7998 32.3607 48.7979 32.3215 48.794 32.2824C48.7902 32.2432 48.7844 32.2044 48.7767 32.1659C48.7691 32.1273 48.7595 32.0892 48.7481 32.0516C48.7367 32.014 48.7235 31.9771 48.7085 31.9408C48.6934 31.9045 48.6766 31.869 48.6581 31.8343C48.6396 31.7996 48.6194 31.766 48.5976 31.7333C48.5757 31.7006 48.5523 31.6691 48.5274 31.6387C48.5025 31.6083 48.4761 31.5792 48.4483 31.5515C48.4205 31.5237 48.3915 31.4973 48.3611 31.4724C48.3307 31.4474 48.2992 31.4241 48.2665 31.4022C48.2338 31.3804 48.2001 31.3602 48.1655 31.3417C48.1308 31.3231 48.0953 31.3064 48.059 31.2913C48.0227 31.2763 47.9858 31.2631 47.9481 31.2517C47.9105 31.2402 47.8725 31.2307 47.8339 31.223C47.7954 31.2154 47.7565 31.2096 47.7174 31.2058C47.6783 31.2019 47.6391 31.2 47.5998 31.2L43.1998 31.2C43.1605 31.2 43.1213 31.2019 43.0822 31.2058C43.0431 31.2096 43.0042 31.2154 42.9657 31.223C42.9272 31.2307 42.8891 31.2402 42.8515 31.2517C42.8139 31.2631 42.7769 31.2763 42.7406 31.2913C42.7043 31.3064 42.6688 31.3231 42.6341 31.3417C42.5995 31.3602 42.5658 31.3804 42.5331 31.4022C42.5004 31.4241 42.4689 31.4474 42.4385 31.4724C42.4081 31.4973 42.3791 31.5237 42.3513 31.5515C42.3235 31.5792 42.2971 31.6083 42.2722 31.6387C42.2473 31.6691 42.2239 31.7006 42.202 31.7333C42.1802 31.766 42.16 31.7996 42.1415 31.8343C42.123 31.869 42.1062 31.9045 42.0911 31.9408C42.0761 31.9771 42.0629 32.014 42.0515 32.0516C42.0401 32.0892 42.0305 32.1273 42.0229 32.1659C42.0152 32.2044 42.0094 32.2432 42.0056 32.2824C42.0017 32.3215 41.9998 32.3607 41.9998 32.4C41.9998 32.4393 42.0017 32.4785 42.0056 32.5176C42.0094 32.5567 42.0152 32.5955 42.0229 32.6341C42.0305 32.6726 42.0401 32.7107 42.0515 32.7483C42.0629 32.7859 42.0761 32.8229 42.0911 32.8592C42.1062 32.8955 42.123 32.931 42.1415 32.9657C42.16 33.0003 42.1802 33.034 42.202 33.0667C42.2239 33.0993 42.2473 33.1309 42.2722 33.1613C42.2971 33.1916 42.3235 33.2207 42.3513 33.2485C42.3791 33.2763 42.4081 33.3027 42.4385 33.3276C42.4689 33.3525 42.5004 33.3759 42.5331 33.3977C42.5658 33.4196 42.5995 33.4398 42.6341 33.4583C42.6688 33.4768 42.7043 33.4936 42.7406 33.5086C42.7769 33.5237 42.8139 33.5369 42.8515 33.5483C42.8891 33.5597 42.9272 33.5693 42.9657 33.5769C43.0042 33.5846 43.0431 33.5904 43.0822 33.5942C43.1213 33.5981 43.1605 33.6 43.1998 33.6ZM37.9998 38.4L38.1998 38.4C38.2391 38.4 38.2783 38.3981 38.3174 38.3942C38.3565 38.3904 38.3954 38.3846 38.4339 38.3769C38.4725 38.3693 38.5105 38.3597 38.5481 38.3483C38.5858 38.3369 38.6227 38.3237 38.659 38.3086C38.6953 38.2936 38.7308 38.2768 38.7655 38.2583C38.8001 38.2398 38.8338 38.2196 38.8665 38.1977C38.8992 38.1759 38.9307 38.1525 38.9611 38.1276C38.9915 38.1027 39.0205 38.0763 39.0483 38.0485C39.0761 38.0207 39.1025 37.9916 39.1274 37.9613C39.1524 37.9309 39.1757 37.8993 39.1976 37.8667C39.2194 37.834 39.2396 37.8003 39.2581 37.7657C39.2766 37.731 39.2934 37.6955 39.3085 37.6592C39.3235 37.6229 39.3367 37.5859 39.3481 37.5483C39.3595 37.5107 39.3691 37.4726 39.3767 37.4341C39.3844 37.3955 39.3902 37.3567 39.394 37.3176C39.3979 37.2785 39.3998 37.2393 39.3998 37.2L39.3998 32.4C39.3998 32.3607 39.3979 32.3215 39.394 32.2824C39.3902 32.2432 39.3844 32.2044 39.3767 32.1659C39.3691 32.1273 39.3595 32.0892 39.3481 32.0516C39.3367 32.014 39.3235 31.9771 39.3085 31.9408C39.2934 31.9045 39.2766 31.869 39.2581 31.8343C39.2396 31.7996 39.2194 31.766 39.1976 31.7333C39.1757 31.7006 39.1524 31.6691 39.1274 31.6387C39.1025 31.6083 39.0761 31.5792 39.0483 31.5515C39.0205 31.5237 38.9915 31.4973 38.9611 31.4724C38.9307 31.4474 38.8992 31.4241 38.8665 31.4022C38.8338 31.3804 38.8001 31.3602 38.7655 31.3417C38.7308 31.3231 38.6953 31.3064 38.659 31.2913C38.6227 31.2763 38.5858 31.2631 38.5481 31.2517C38.5105 31.2402 38.4725 31.2307 38.4339 31.223C38.3954 31.2154 38.3565 31.2096 38.3174 31.2058C38.2783 31.2019 38.2391 31.2 38.1998 31.2L37.9998 31.2C37.9605 31.2 37.9213 31.2019 37.8822 31.2058C37.8431 31.2096 37.8042 31.2154 37.7657 31.223C37.7271 31.2307 37.6891 31.2402 37.6515 31.2517C37.6139 31.2631 37.5769 31.2763 37.5406 31.2913C37.5043 31.3064 37.4688 31.3231 37.4341 31.3417C37.3995 31.3602 37.3658 31.3804 37.3331 31.4022C37.3004 31.4241 37.2689 31.4474 37.2385 31.4724C37.2082 31.4973 37.1791 31.5237 37.1513 31.5515C37.1235 31.5792 37.0971 31.6083 37.0722 31.6387C37.0473 31.6691 37.0239 31.7006 37.002 31.7333C36.9802 31.766 36.96 31.7996 36.9415 31.8343C36.923 31.869 36.9062 31.9045 36.8911 31.9408C36.8761 31.9771 36.8629 32.014 36.8515 32.0516C36.8401 32.0892 36.8305 32.1273 36.8229 32.1659C36.8152 32.2044 36.8094 32.2432 36.8056 32.2824C36.8017 32.3215 36.7998 32.3607 36.7998 32.4L36.7998 37.2C36.7998 37.2393 36.8017 37.2785 36.8056 37.3176C36.8094 37.3567 36.8152 37.3955 36.8229 37.4341C36.8305 37.4726 36.8401 37.5107 36.8515 37.5483C36.8629 37.5859 36.8761 37.6229 36.8911 37.6592C36.9062 37.6955 36.923 37.731 36.9415 37.7657C36.96 37.8003 36.9802 37.834 37.002 37.8667C37.0239 37.8993 37.0473 37.9309 37.0722 37.9613C37.0971 37.9916 37.1235 38.0207 37.1513 38.0485C37.1791 38.0763 37.2082 38.1027 37.2385 38.1276C37.2689 38.1525 37.3004 38.1759 37.3331 38.1977C37.3658 38.2196 37.3995 38.2398 37.4341 38.2583C37.4688 38.2768 37.5043 38.2936 37.5406 38.3086C37.5769 38.3237 37.6139 38.3369 37.6515 38.3483C37.6891 38.3597 37.7271 38.3693 37.7657 38.3769C37.8042 38.3846 37.8431 38.3904 37.8822 38.3942C37.9213 38.3981 37.9605 38.4 37.9998 38.4L37.9998 38.4Z" fill="rgb(25,110,255)" fill-rule="nonzero" />
		</g>
	</g>
</svg>
