<svg viewBox="0 0 56 56" xmlns="http://www.w3.org/2000/svg" xmlns:xlink="http://www.w3.org/1999/xlink" width="56" height="56" fill="none" customFrame="#000000">
	<defs>
		<linearGradient id="paint_linear_98" x1="0.79980123" x2="45.5997963" y1="27.9999962" y2="28.0000114" gradientUnits="userSpaceOnUse">
			<stop stop-color="rgb(255,52,52)" offset="0" stop-opacity="1" />
			<stop stop-color="rgb(255,94,94)" offset="1" stop-opacity="1" />
		</linearGradient>
		<g id="pixso_custom_effect_28">
			<effect visibility="visible" effectType="backgroundBlur" saturation="0" stdDeviation="13.7001314" />
		</g>
		<filter id="filter_28" width="26.5981445" height="26.5979233" x="29.1010742" y="23.5010376" filterUnits="userSpaceOnUse" customEffect="url(#pixso_custom_effect_28)" color-interpolation-filters="sRGB">
			<feFlood flood-opacity="0" result="BackgroundImageFix" />
			<feGaussianBlur stdDeviation="4.56671047" in="BackgroundImage" />
			<feComposite result="effect_backgroundBlur_1" in2="SourceAlpha" operator="in" />
			<feBlend result="shape" in="SourceGraphic" in2="effect_backgroundBlur_1" mode="normal" />
		</filter>
		<linearGradient id="paint_linear_99" x1="35.2949829" x2="50.7976074" y1="29.128643" y2="44.7807922" gradientUnits="userSpaceOnUse">
			<stop stop-color="rgb(255,255,255)" offset="0" stop-opacity="0" />
			<stop stop-color="rgb(255,255,255)" offset="1" stop-opacity="1" />
		</linearGradient>
	</defs>
	<rect id="首页卡片图标" width="56" height="56" x="0" y="0" fill="rgb(255,255,255)" fill-opacity="0" />
	<g id="组合 1874">
		<path id="形状" d="M40.7998 11.2C43.4508 11.2 45.5998 13.349 45.5998 16L45.5998 19.2L0.799805 19.2L0.799805 16C0.799805 13.349 2.94884 11.2 5.5998 11.2L40.7998 11.2ZM40.7998 44.8C43.4508 44.8 45.5998 42.651 45.5998 40L45.5998 22.4L0.799805 22.4L0.799805 40C0.799805 42.651 2.94884 44.8 5.5998 44.8L40.7998 44.8ZM14.9382 30.5401L16.3833 30.5401C16.4521 30.5401 16.5203 30.5468 16.5878 30.5603C16.6553 30.5737 16.7209 30.5936 16.7845 30.6199C16.8163 30.6331 16.8473 30.6478 16.8776 30.6639C16.9077 30.6801 16.9371 30.6977 16.9657 30.7168C17.023 30.755 17.0759 30.7985 17.1246 30.8472C17.1733 30.8958 17.2167 30.9488 17.255 31.006C17.2932 31.0633 17.3255 31.1237 17.3518 31.1873C17.3782 31.2509 17.3981 31.3164 17.4115 31.3839C17.4249 31.4514 17.4316 31.5196 17.4316 31.5884C17.4316 31.6573 17.4249 31.7254 17.4115 31.7929C17.3981 31.8605 17.3782 31.926 17.3518 31.9896C17.3386 32.0215 17.3239 32.0525 17.3078 32.0828C17.2916 32.1129 17.274 32.1423 17.255 32.1708C17.2167 32.2281 17.1733 32.281 17.1246 32.3297C17.0759 32.3784 17.023 32.4218 16.9657 32.4601C16.937 32.4792 16.9075 32.4969 16.8773 32.5131C16.8471 32.5292 16.8162 32.5438 16.7845 32.5569C16.7209 32.5833 16.6553 32.6032 16.5878 32.6166C16.5203 32.63 16.4521 32.6367 16.3833 32.6367L13.448 32.6367L13.448 34.314L16.3833 34.314C16.4521 34.314 16.5203 34.3208 16.5878 34.3342C16.6553 34.3476 16.7209 34.3675 16.7845 34.3938C16.8163 34.407 16.8473 34.4217 16.8776 34.4379C16.9077 34.454 16.9371 34.4716 16.9657 34.4907C17.023 34.529 17.0759 34.5724 17.1246 34.6211C17.1733 34.6698 17.2167 34.7227 17.255 34.78C17.2932 34.8372 17.3255 34.8976 17.3518 34.9612C17.3782 35.0248 17.3981 35.0903 17.4115 35.1578C17.4249 35.2254 17.4316 35.2935 17.4316 35.3624C17.4316 35.4312 17.4249 35.4994 17.4115 35.5669C17.3981 35.6344 17.3782 35.6999 17.3518 35.7635C17.3255 35.8271 17.2932 35.8875 17.255 35.9448C17.2167 36.002 17.1733 36.055 17.1246 36.1036C17.0759 36.1523 17.023 36.1958 16.9657 36.234C16.937 36.2532 16.9075 36.2708 16.8773 36.287C16.8471 36.3031 16.8162 36.3177 16.7845 36.3309C16.7209 36.3572 16.6553 36.3771 16.5878 36.3905C16.5203 36.404 16.4521 36.4107 16.3833 36.4107L13.448 36.4107L13.448 39.5973C13.448 39.6661 13.4413 39.7343 13.4279 39.8018C13.4145 39.8693 13.3946 39.9349 13.3682 39.9985C13.3551 40.0303 13.3404 40.0613 13.3242 40.0915C13.3081 40.1217 13.2905 40.1511 13.2714 40.1797C13.2331 40.2369 13.1897 40.2899 13.141 40.3386C13.0923 40.3872 13.0394 40.4307 12.9821 40.4689C12.9249 40.5072 12.8645 40.5395 12.8009 40.5658C12.7373 40.5921 12.6717 40.612 12.6042 40.6255C12.5367 40.6389 12.4686 40.6456 12.3997 40.6456C12.3309 40.6456 12.2627 40.6389 12.1952 40.6255C12.1277 40.612 12.0621 40.5921 11.9985 40.5658C11.935 40.5395 11.8745 40.5072 11.8173 40.4689C11.7887 40.4498 11.7611 40.4294 11.7347 40.4076C11.7082 40.3859 11.6828 40.3629 11.6585 40.3386C11.6098 40.2899 11.5663 40.2369 11.5281 40.1797C11.4898 40.1225 11.4575 40.0621 11.4312 39.9985C11.4049 39.9349 11.385 39.8693 11.3716 39.8018C11.3581 39.7343 11.3514 39.6661 11.3514 39.5973L11.3514 36.4107L8.41613 36.4107C8.3473 36.4107 8.27912 36.404 8.21161 36.3905C8.1441 36.3771 8.07855 36.3572 8.01496 36.3309C7.95136 36.3045 7.89095 36.2722 7.83372 36.234C7.77648 36.1958 7.72353 36.1523 7.67486 36.1036C7.62619 36.055 7.58273 36.002 7.54449 35.9448C7.50625 35.8875 7.47396 35.8271 7.44761 35.7635C7.42127 35.6999 7.40139 35.6344 7.38796 35.5669C7.37453 35.4994 7.36782 35.4312 7.36782 35.3624C7.36782 35.2935 7.37453 35.2254 7.38796 35.1578C7.40139 35.0903 7.42127 35.0248 7.44761 34.9612C7.47396 34.8976 7.50625 34.8372 7.54449 34.78C7.58273 34.7227 7.62619 34.6698 7.67486 34.6211C7.72353 34.5724 7.77648 34.529 7.83372 34.4907C7.89095 34.4525 7.95136 34.4202 8.01496 34.3938C8.07855 34.3675 8.1441 34.3476 8.21161 34.3342C8.27912 34.3208 8.3473 34.314 8.41613 34.314L11.3514 34.314L11.3514 32.6367L8.41613 32.6367C8.3473 32.6367 8.27912 32.63 8.21161 32.6166C8.1441 32.6032 8.07855 32.5833 8.01496 32.5569C7.95136 32.5306 7.89095 32.4983 7.83372 32.4601C7.77648 32.4218 7.72353 32.3784 7.67486 32.3297C7.62619 32.281 7.58273 32.2281 7.54449 32.1708C7.50625 32.1136 7.47396 32.0532 7.44761 31.9896C7.42127 31.926 7.40139 31.8605 7.38796 31.7929C7.37453 31.7254 7.36782 31.6573 7.36782 31.5884C7.36782 31.5196 7.37453 31.4514 7.38796 31.3839C7.40139 31.3164 7.42127 31.2509 7.44761 31.1873C7.47396 31.1237 7.50625 31.0633 7.54449 31.006C7.58273 30.9488 7.62619 30.8958 7.67486 30.8472C7.72353 30.7985 7.77648 30.755 7.83372 30.7168C7.89095 30.6786 7.95136 30.6463 8.01496 30.6199C8.07855 30.5936 8.1441 30.5737 8.21161 30.5603C8.27912 30.5468 8.3473 30.5401 8.41613 30.5401L9.88167 30.5401L7.50174 28.1604C7.45387 28.1126 7.41114 28.0605 7.37353 28.0042C7.33593 27.9479 7.30418 27.8885 7.27827 27.8259C7.25237 27.7634 7.23282 27.6989 7.21961 27.6325C7.20641 27.5661 7.1998 27.499 7.1998 27.4313C7.1998 27.3636 7.20641 27.2966 7.21961 27.2302C7.23282 27.1638 7.25237 27.0993 7.27827 27.0368C7.30418 26.9742 7.33593 26.9148 7.37353 26.8585C7.41114 26.8022 7.45387 26.7501 7.50174 26.7022C7.5496 26.6543 7.60167 26.6116 7.65796 26.574C7.71425 26.5363 7.77367 26.5045 7.83622 26.4786C7.89878 26.4527 7.96326 26.4331 8.02966 26.4199C8.09607 26.4067 8.16313 26.4001 8.23084 26.4001C8.29855 26.4001 8.36561 26.4067 8.43202 26.4199C8.49842 26.4331 8.5629 26.4527 8.62546 26.4786C8.68801 26.5045 8.74743 26.5363 8.80372 26.574C8.86 26.6116 8.91208 26.6543 8.95994 26.7022L12.3895 30.1318L15.8149 26.7064C15.8634 26.6579 15.9162 26.6145 15.9733 26.5764C16.0304 26.5382 16.0906 26.506 16.1541 26.4797C16.1857 26.4666 16.2179 26.4551 16.2505 26.4452C16.2832 26.4353 16.3165 26.4269 16.3502 26.4202C16.4175 26.4068 16.4855 26.4001 16.5542 26.4001C16.5885 26.4001 16.6227 26.4018 16.6567 26.4052C16.6907 26.4085 16.7245 26.4135 16.7582 26.4202C16.8255 26.4336 16.8909 26.4535 16.9543 26.4797C17.0177 26.506 17.078 26.5382 17.1351 26.5764C17.1922 26.6145 17.245 26.6579 17.2935 26.7064C17.3421 26.755 17.3854 26.8078 17.4236 26.8649C17.4617 26.9219 17.4939 26.9822 17.5202 27.0456C17.5465 27.1091 17.5663 27.1744 17.5797 27.2418C17.5931 27.3091 17.5998 27.3771 17.5998 27.4458C17.5998 27.4801 17.5981 27.5143 17.5948 27.5484C17.5914 27.5823 17.5864 27.6161 17.5797 27.6497C17.5663 27.7171 17.5465 27.7825 17.5202 27.8459C17.4939 27.9093 17.4617 27.9696 17.4236 28.0267C17.3854 28.0837 17.3421 28.1365 17.2935 28.1851L14.9382 30.5401Z" fill="url(#paint_linear_98)" fill-rule="evenodd" />
		<g id="编组">
			<g filter="url(#filter_28)">
				<rect id="矩形" width="25.6000004" height="25.6000004" x="29.6000977" y="24" rx="12.8000002" fill="url(#paint_linear_99)" />
				<rect id="矩形" width="25.6000004" height="25.6000004" x="29.6000977" y="24" rx="12.8000002" stroke="rgb(255,255,255)" stroke-width="0.997920036" />
			</g>
			<path id="合并" d="M14.3998 3.60828C14.4 3.60127 14.4 3.59426 14.4 3.58725C14.3999 3.50776 14.3915 3.42904 14.3749 3.35109C14.3582 3.27315 14.3336 3.19747 14.301 3.12407C14.2684 3.05066 14.2285 2.98093 14.1812 2.91489C14.134 2.84885 14.0803 2.78775 14.0202 2.73161C13.96 2.67546 13.8946 2.62535 13.824 2.58126L10.0109 0.203317C9.94028 0.159225 9.8657 0.122008 9.7872 0.0916668C9.7634 0.0824699 9.73939 0.0739582 9.71515 0.0661318L9.7151 0.0661159L9.71504 0.0660947C9.65935 0.0481181 9.6025 0.0337585 9.54448 0.0230159C9.46116 0.00759026 9.37704 -8.10388e-05 9.29211 6.48201e-07C9.20718 8.51068e-05 9.12307 0.00792095 9.03979 0.0235096C8.95651 0.0390982 8.87566 0.0621401 8.79723 0.0926352C8.7188 0.12313 8.6443 0.160493 8.57373 0.204722C8.50316 0.248952 8.43788 0.299199 8.37789 0.355464C8.3179 0.411728 8.26435 0.472929 8.21724 0.539066C8.17013 0.605203 8.13036 0.675006 8.09794 0.748474C8.06552 0.821942 8.04107 0.897664 8.02459 0.97564C8.00811 1.05362 7.99991 1.13235 8 1.21183C8.00004 1.24663 8.00167 1.28128 8.00488 1.31579L8.00488 1.31581C8.00901 1.36011 8.01576 1.40417 8.02512 1.44798C8.04177 1.52592 8.06639 1.6016 8.09898 1.675C8.13156 1.74841 8.17148 1.81813 8.21874 1.88418C8.266 1.95022 8.31969 2.01132 8.3798 2.06746C8.43992 2.12361 8.50531 2.17373 8.57598 2.21782L8.9113 2.42694L1.4433 2.42694C0.647422 2.42694 0 2.96522 0 3.62694C0 4.28865 0.647422 4.82694 1.4433 4.82694L12.9608 4.82694C13.1144 4.82694 13.2623 4.8069 13.4009 4.7698C13.5102 4.74623 13.6158 4.70888 13.7178 4.65773C13.9015 4.56556 14.0519 4.43932 14.1691 4.27902C14.3152 4.09117 14.4 3.86719 14.4 3.62694C14.4 3.62071 14.3999 3.61449 14.3998 3.60828Z" fill="rgb(255,52,52)" fill-rule="evenodd" transform="matrix(-1,0,0,1,49.6001,33.6)" />
		</g>
	</g>
</svg>
